<?xml version="1.0" encoding="utf-8"?>
<!-- Generator: Adobe Illustrator 22.0.1, SVG Export Plug-In . SVG Version: 6.00 Build 0)  -->
<svg version="1.2" baseProfile="tiny" id="레이어_1"
	 xmlns="http://www.w3.org/2000/svg" xmlns:xlink="http://www.w3.org/1999/xlink" x="0px" y="0px" viewBox="0 0 64 64"
	 xml:space="preserve">
<rect x="-411.9" y="8.4" fill="none" stroke="#000000" stroke-miterlimit="10" width="64" height="64"/>
<rect x="-411.9" y="8.4" fill="none" stroke="#000000" stroke-miterlimit="10" width="64" height="64"/>
<rect x="-411.9" y="8.4" fill="none" stroke="#000000" stroke-miterlimit="10" width="64" height="64"/>
<rect x="-411.9" y="8.4" fill="none" stroke="#000000" stroke-miterlimit="10" width="64" height="64"/>
<rect x="-411.9" y="8.4" fill="none" stroke="#000000" stroke-miterlimit="10" width="64" height="64"/>
<rect x="-411.9" y="8.4" fill="none" stroke="#000000" stroke-miterlimit="10" width="64" height="64"/>
<rect x="-411.9" y="8.4" fill="none" stroke="#000000" stroke-miterlimit="10" width="64" height="64"/>
<rect x="-411.9" y="8.4" fill="none" stroke="#000000" stroke-miterlimit="10" width="64" height="64"/>
<rect x="-411.9" y="8.4" fill="none" stroke="#000000" stroke-miterlimit="10" width="64" height="64"/>
<rect x="-411.9" y="8.4" fill="none" stroke="#000000" stroke-miterlimit="10" width="64" height="64"/>
<rect x="-411.9" y="8.4" fill="none" stroke="#000000" stroke-miterlimit="10" width="64" height="64"/>
<rect x="-411.9" y="8.4" fill="none" stroke="#000000" stroke-miterlimit="10" width="64" height="64"/>
<rect x="-411.9" y="8.4" fill="none" stroke="#000000" stroke-miterlimit="10" width="64" height="64"/>
<rect x="-411.9" y="8.4" fill="none" stroke="#000000" stroke-miterlimit="10" width="64" height="64"/>
<rect x="-411.9" y="8.4" fill="none" stroke="#000000" stroke-miterlimit="10" width="64" height="64"/>
<rect x="-411.9" y="8.4" fill="none" stroke="#000000" stroke-miterlimit="10" width="64" height="64"/>
<rect x="-411.9" y="8.4" fill="none" stroke="#000000" stroke-miterlimit="10" width="64" height="64"/>
<rect x="-411.9" y="8.4" fill="none" stroke="#000000" stroke-miterlimit="10" width="64" height="64"/>
<rect x="-411.9" y="8.4" fill="none" stroke="#000000" stroke-miterlimit="10" width="64" height="64"/>
<rect x="-411.9" y="8.4" fill="none" stroke="#000000" stroke-miterlimit="10" width="64" height="64"/>
<rect x="-411.9" y="8.4" fill="none" stroke="#000000" stroke-miterlimit="10" width="64" height="64"/>
<rect x="-411.9" y="8.4" fill="none" stroke="#000000" stroke-miterlimit="10" width="64" height="64"/>
<rect x="-411.9" y="8.4" fill="none" stroke="#000000" stroke-miterlimit="10" width="64" height="64"/>
<rect x="-411.9" y="8.4" fill="none" stroke="#000000" stroke-miterlimit="10" width="64" height="64"/>
<rect x="-411.9" y="8.4" fill="none" stroke="#000000" stroke-miterlimit="10" width="64" height="64"/>
<rect x="-411.9" y="8.4" fill="none" stroke="#000000" stroke-miterlimit="10" width="64" height="64"/>
<rect x="-411.9" y="8.4" fill="none" stroke="#000000" stroke-miterlimit="10" width="64" height="64"/>
<rect x="-411.9" y="8.4" fill="none" stroke="#000000" stroke-miterlimit="10" width="64" height="64"/>
<rect x="-411.9" y="8.4" fill="none" stroke="#000000" stroke-miterlimit="10" width="64" height="64"/>
<rect x="-411.9" y="8.4" fill="none" stroke="#000000" stroke-miterlimit="10" width="64" height="64"/>
<rect x="-411.9" y="8.4" fill="none" stroke="#000000" stroke-miterlimit="10" width="64" height="64"/>
<rect x="-411.9" y="8.4" fill="none" stroke="#000000" stroke-miterlimit="10" width="64" height="64"/>
<rect x="-411.9" y="8.4" fill="none" stroke="#000000" stroke-miterlimit="10" width="64" height="64"/>
<rect x="-411.9" y="8.4" fill="none" stroke="#000000" stroke-miterlimit="10" width="64" height="64"/>
<rect x="-411.9" y="8.4" fill="none" stroke="#000000" stroke-miterlimit="10" width="64" height="64"/>
<rect x="-411.9" y="8.4" fill="none" stroke="#000000" stroke-miterlimit="10" width="64" height="64"/>
<rect x="-411.9" y="8.4" fill="none" stroke="#000000" stroke-miterlimit="10" width="64" height="64"/>
<rect x="-411.9" y="8.4" fill="none" stroke="#000000" stroke-miterlimit="10" width="64" height="64"/>
<rect x="-411.9" y="8.4" fill="none" stroke="#000000" stroke-miterlimit="10" width="64" height="64"/>
<rect x="-411.9" y="8.4" fill="none" stroke="#000000" stroke-miterlimit="10" width="64" height="64"/>
<rect x="-411.9" y="8.4" fill="none" stroke="#000000" stroke-miterlimit="10" width="64" height="64"/>
<rect x="-411.9" y="8.4" fill="none" stroke="#000000" stroke-miterlimit="10" width="64" height="64"/>
<rect x="-411.9" y="8.4" fill="none" stroke="#000000" stroke-miterlimit="10" width="64" height="64"/>
<rect x="-411.9" y="8.4" fill="none" stroke="#000000" stroke-miterlimit="10" width="64" height="64"/>
<rect x="-411.9" y="8.4" fill="none" stroke="#000000" stroke-miterlimit="10" width="64" height="64"/>
<rect x="-411.9" y="8.4" fill="none" stroke="#000000" stroke-miterlimit="10" width="64" height="64"/>
<rect x="-411.9" y="8.4" fill="none" stroke="#000000" stroke-miterlimit="10" width="64" height="64"/>
<rect x="-411.9" y="8.4" fill="none" stroke="#000000" stroke-miterlimit="10" width="64" height="64"/>
<rect x="-411.9" y="8.4" fill="none" stroke="#000000" stroke-miterlimit="10" width="64" height="64"/>
<rect x="-411.9" y="8.4" fill="none" stroke="#000000" stroke-miterlimit="10" width="64" height="64"/>
<rect x="-411.9" y="8.4" fill="none" stroke="#000000" stroke-miterlimit="10" width="64" height="64"/>
<rect x="-411.9" y="8.4" fill="none" stroke="#000000" stroke-miterlimit="10" width="64" height="64"/>
<rect x="-411.9" y="8.4" fill="none" stroke="#000000" stroke-miterlimit="10" width="64" height="64"/>
<rect x="-411.9" y="8.4" fill="none" stroke="#000000" stroke-miterlimit="10" width="64" height="64"/>
<rect x="-411.9" y="8.4" fill="none" stroke="#000000" stroke-miterlimit="10" width="64" height="64"/>
<rect x="-411.9" y="8.4" fill="none" stroke="#000000" stroke-miterlimit="10" width="64" height="64"/>
<rect x="-411.9" y="8.4" fill="none" stroke="#000000" stroke-miterlimit="10" width="64" height="64"/>
<rect x="-411.9" y="8.4" fill="none" stroke="#000000" stroke-miterlimit="10" width="64" height="64"/>
<rect x="-411.9" y="8.4" fill="none" stroke="#000000" stroke-miterlimit="10" width="64" height="64"/>
<rect x="-411.9" y="8.4" fill="none" stroke="#000000" stroke-miterlimit="10" width="64" height="64"/>
<rect x="-411.9" y="8.4" fill="none" stroke="#000000" stroke-miterlimit="10" width="64" height="64"/>
<rect x="-411.9" y="8.4" fill="none" stroke="#000000" stroke-miterlimit="10" width="64" height="64"/>
<rect x="-411.9" y="8.4" fill="none" stroke="#000000" stroke-miterlimit="10" width="64" height="64"/>
<rect x="-411.9" y="8.4" fill="none" stroke="#000000" stroke-miterlimit="10" width="64" height="64"/>
<rect x="-411.9" y="8.4" fill="none" stroke="#000000" stroke-miterlimit="10" width="64" height="64"/>
<rect x="-411.9" y="8.4" fill="none" stroke="#000000" stroke-miterlimit="10" width="64" height="64"/>
<rect x="-411.9" y="8.4" fill="none" stroke="#000000" stroke-miterlimit="10" width="64" height="64"/>
<rect x="-411.9" y="8.4" fill="none" stroke="#000000" stroke-miterlimit="10" width="64" height="64"/>
<rect x="-411.9" y="8.4" fill="none" stroke="#000000" stroke-miterlimit="10" width="64" height="64"/>
<rect x="-411.9" y="8.4" fill="none" stroke="#000000" stroke-miterlimit="10" width="64" height="64"/>
<rect x="-411.9" y="8.4" fill="none" stroke="#000000" stroke-miterlimit="10" width="64" height="64"/>
<rect x="-411.9" y="8.4" fill="none" stroke="#000000" stroke-miterlimit="10" width="64" height="64"/>
<rect x="-411.9" y="8.4" fill="none" stroke="#000000" stroke-miterlimit="10" width="64" height="64"/>
<rect x="-411.9" y="8.4" fill="none" stroke="#000000" stroke-miterlimit="10" width="64" height="64"/>
<rect x="-411.9" y="8.4" fill="none" stroke="#000000" stroke-miterlimit="10" width="64" height="64"/>
<rect x="-411.9" y="8.4" fill="none" stroke="#000000" stroke-miterlimit="10" width="64" height="64"/>
<rect x="-411.9" y="8.4" fill="none" stroke="#000000" stroke-miterlimit="10" width="64" height="64"/>
<rect x="-411.9" y="8.4" fill="none" stroke="#000000" stroke-miterlimit="10" width="64" height="64"/>
<rect x="-411.9" y="8.4" fill="none" stroke="#000000" stroke-miterlimit="10" width="64" height="64"/>
<rect x="-411.9" y="8.4" fill="none" stroke="#000000" stroke-miterlimit="10" width="64" height="64"/>
<rect x="-411.9" y="8.4" fill="none" stroke="#000000" stroke-miterlimit="10" width="64" height="64"/>
<rect x="-411.9" y="8.4" fill="none" stroke="#000000" stroke-miterlimit="10" width="64" height="64"/>
<rect x="-411.9" y="8.4" fill="none" stroke="#000000" stroke-miterlimit="10" width="64" height="64"/>
<rect x="-411.9" y="8.4" fill="none" stroke="#000000" stroke-miterlimit="10" width="64" height="64"/>
<rect x="-411.9" y="8.4" fill="none" stroke="#000000" stroke-miterlimit="10" width="64" height="64"/>
<rect x="-411.9" y="8.4" fill="none" stroke="#000000" stroke-miterlimit="10" width="64" height="64"/>
<rect x="-411.9" y="8.4" fill="none" stroke="#000000" stroke-miterlimit="10" width="64" height="64"/>
<rect x="-411.9" y="8.4" fill="none" stroke="#000000" stroke-miterlimit="10" width="64" height="64"/>
<rect x="-411.9" y="8.4" fill="none" stroke="#000000" stroke-miterlimit="10" width="64" height="64"/>
<rect x="-411.9" y="8.4" fill="none" stroke="#000000" stroke-miterlimit="10" width="64" height="64"/>
<rect x="-411.9" y="8.4" fill="none" stroke="#000000" stroke-miterlimit="10" width="64" height="64"/>
<rect x="-411.9" y="8.4" fill="none" stroke="#000000" stroke-miterlimit="10" width="64" height="64"/>
<rect x="-411.9" y="8.4" fill="none" stroke="#000000" stroke-miterlimit="10" width="64" height="64"/>
<rect x="-411.9" y="8.4" fill="none" stroke="#000000" stroke-miterlimit="10" width="64" height="64"/>
<rect x="-411.9" y="8.4" fill="none" stroke="#000000" stroke-miterlimit="10" width="64" height="64"/>
<rect x="-411.9" y="8.4" fill="none" stroke="#000000" stroke-miterlimit="10" width="64" height="64"/>
<rect x="-411.9" y="8.4" fill="none" stroke="#000000" stroke-miterlimit="10" width="64" height="64"/>
<rect x="-411.9" y="8.4" fill="none" stroke="#000000" stroke-miterlimit="10" width="64" height="64"/>
<rect x="-411.9" y="8.4" fill="none" stroke="#000000" stroke-miterlimit="10" width="64" height="64"/>
<rect x="-411.9" y="8.4" fill="none" stroke="#000000" stroke-miterlimit="10" width="64" height="64"/>
<rect x="-411.9" y="8.4" fill="none" stroke="#000000" stroke-miterlimit="10" width="64" height="64"/>
<rect x="-411.9" y="8.4" fill="none" stroke="#000000" stroke-miterlimit="10" width="64" height="64"/>
<rect x="-411.9" y="8.4" fill="none" stroke="#000000" stroke-miterlimit="10" width="64" height="64"/>
<rect x="-411.9" y="8.4" fill="none" stroke="#000000" stroke-miterlimit="10" width="64" height="64"/>
<rect x="-411.9" y="8.4" fill="none" stroke="#000000" stroke-miterlimit="10" width="64" height="64"/>
<rect x="-411.9" y="8.4" fill="none" stroke="#000000" stroke-miterlimit="10" width="64" height="64"/>
<rect x="-411.9" y="8.4" fill="none" stroke="#000000" stroke-miterlimit="10" width="64" height="64"/>
<rect x="-411.9" y="8.4" fill="none" stroke="#000000" stroke-miterlimit="10" width="64" height="64"/>
<rect x="-411.9" y="8.4" fill="none" stroke="#000000" stroke-miterlimit="10" width="64" height="64"/>
<rect x="-411.9" y="8.4" fill="none" stroke="#000000" stroke-miterlimit="10" width="64" height="64"/>
<rect x="-411.9" y="8.4" fill="none" stroke="#000000" stroke-miterlimit="10" width="64" height="64"/>
<rect x="-411.9" y="8.4" fill="none" stroke="#000000" stroke-miterlimit="10" width="64" height="64"/>
<rect x="-411.9" y="8.4" fill="none" stroke="#000000" stroke-miterlimit="10" width="64" height="64"/>
<rect x="-411.9" y="8.4" fill="none" stroke="#000000" stroke-miterlimit="10" width="64" height="64"/>
<rect x="-411.9" y="8.4" fill="none" stroke="#000000" stroke-miterlimit="10" width="64" height="64"/>
<rect x="-411.9" y="8.4" fill="none" stroke="#000000" stroke-miterlimit="10" width="64" height="64"/>
<rect x="-411.9" y="8.4" fill="none" stroke="#000000" stroke-miterlimit="10" width="64" height="64"/>
<rect x="-411.9" y="8.4" fill="none" stroke="#000000" stroke-miterlimit="10" width="64" height="64"/>
<rect x="-411.9" y="8.4" fill="none" stroke="#000000" stroke-miterlimit="10" width="64" height="64"/>
<rect x="-411.9" y="8.4" fill="none" stroke="#000000" stroke-miterlimit="10" width="64" height="64"/>
<rect x="-411.9" y="8.4" fill="none" stroke="#000000" stroke-miterlimit="10" width="64" height="64"/>
<rect x="-411.9" y="8.4" fill="none" stroke="#000000" stroke-miterlimit="10" width="64" height="64"/>
<rect x="-411.9" y="8.4" fill="none" stroke="#000000" stroke-miterlimit="10" width="64" height="64"/>
<rect x="-411.9" y="8.4" fill="none" stroke="#000000" stroke-miterlimit="10" width="64" height="64"/>
<rect x="-411.9" y="8.4" fill="none" stroke="#000000" stroke-miterlimit="10" width="64" height="64"/>
<rect x="-411.9" y="8.4" fill="none" stroke="#000000" stroke-miterlimit="10" width="64" height="64"/>
<rect x="-411.9" y="8.4" fill="none" stroke="#000000" stroke-miterlimit="10" width="64" height="64"/>
<rect x="-411.9" y="8.4" fill="none" stroke="#000000" stroke-miterlimit="10" width="64" height="64"/>
<rect x="-411.9" y="8.4" fill="none" stroke="#000000" stroke-miterlimit="10" width="64" height="64"/>
<rect x="-411.9" y="8.4" fill="none" stroke="#000000" stroke-miterlimit="10" width="64" height="64"/>
<rect x="-411.9" y="8.4" fill="none" stroke="#000000" stroke-miterlimit="10" width="64" height="64"/>
<rect x="-411.9" y="8.4" fill="none" stroke="#000000" stroke-miterlimit="10" width="64" height="64"/>
<rect x="-411.9" y="8.4" fill="none" stroke="#000000" stroke-miterlimit="10" width="64" height="64"/>
<rect x="-411.9" y="8.4" fill="none" stroke="#000000" stroke-miterlimit="10" width="64" height="64"/>
<rect x="-411.9" y="8.4" fill="none" stroke="#000000" stroke-miterlimit="10" width="64" height="64"/>
<rect x="-411.9" y="8.4" fill="none" stroke="#000000" stroke-miterlimit="10" width="64" height="64"/>
<rect x="-411.9" y="8.4" fill="none" stroke="#000000" stroke-miterlimit="10" width="64" height="64"/>
<rect x="-411.9" y="8.4" fill="none" stroke="#000000" stroke-miterlimit="10" width="64" height="64"/>
<rect x="-411.9" y="8.4" fill="none" stroke="#000000" stroke-miterlimit="10" width="64" height="64"/>
<rect x="-411.9" y="8.4" fill="none" stroke="#000000" stroke-miterlimit="10" width="64" height="64"/>
<rect x="-411.9" y="8.4" fill="none" stroke="#000000" stroke-miterlimit="10" width="64" height="64"/>
<rect x="-411.9" y="8.4" fill="none" stroke="#000000" stroke-miterlimit="10" width="64" height="64"/>
<rect x="-411.9" y="8.4" fill="none" stroke="#000000" stroke-miterlimit="10" width="64" height="64"/>
<rect x="-411.9" y="8.4" fill="none" stroke="#000000" stroke-miterlimit="10" width="64" height="64"/>
<rect x="-411.9" y="8.4" fill="none" stroke="#000000" stroke-miterlimit="10" width="64" height="64"/>
<rect x="-411.9" y="8.4" fill="none" stroke="#000000" stroke-miterlimit="10" width="64" height="64"/>
<rect x="-411.9" y="8.4" fill="none" stroke="#000000" stroke-miterlimit="10" width="64" height="64"/>
<rect x="-411.9" y="8.4" fill="none" stroke="#000000" stroke-miterlimit="10" width="64" height="64"/>
<rect x="-411.9" y="8.4" fill="none" stroke="#000000" stroke-miterlimit="10" width="64" height="64"/>
<rect x="-411.9" y="8.4" fill="none" stroke="#000000" stroke-miterlimit="10" width="64" height="64"/>
<rect x="-411.9" y="8.4" fill="none" stroke="#000000" stroke-miterlimit="10" width="64" height="64"/>
<rect x="-411.9" y="8.4" fill="none" stroke="#000000" stroke-miterlimit="10" width="64" height="64"/>
<rect x="-411.9" y="8.4" fill="none" stroke="#000000" stroke-miterlimit="10" width="64" height="64"/>
<rect x="-411.9" y="8.4" fill="none" stroke="#000000" stroke-miterlimit="10" width="64" height="64"/>
<rect x="-411.9" y="8.4" fill="none" stroke="#000000" stroke-miterlimit="10" width="64" height="64"/>
<rect x="-411.9" y="8.4" fill="none" stroke="#000000" stroke-miterlimit="10" width="64" height="64"/>
<rect x="-411.9" y="8.4" fill="none" stroke="#000000" stroke-miterlimit="10" width="64" height="64"/>
<rect x="-411.9" y="8.4" fill="none" stroke="#000000" stroke-miterlimit="10" width="64" height="64"/>
<rect x="-411.9" y="8.4" fill="none" stroke="#000000" stroke-miterlimit="10" width="64" height="64"/>
<rect x="-411.9" y="8.4" fill="none" stroke="#000000" stroke-miterlimit="10" width="64" height="64"/>
<rect x="-411.9" y="8.4" fill="none" stroke="#000000" stroke-miterlimit="10" width="64" height="64"/>
<rect x="-411.9" y="8.4" fill="none" stroke="#000000" stroke-miterlimit="10" width="64" height="64"/>
<rect x="-411.9" y="8.4" fill="none" stroke="#000000" stroke-miterlimit="10" width="64" height="64"/>
<rect x="-411.9" y="8.4" fill="none" stroke="#000000" stroke-miterlimit="10" width="64" height="64"/>
<rect x="-411.9" y="8.4" fill="none" stroke="#000000" stroke-miterlimit="10" width="64" height="64"/>
<rect x="-411.9" y="8.4" fill="none" stroke="#000000" stroke-miterlimit="10" width="64" height="64"/>
<rect x="-411.9" y="8.4" fill="none" stroke="#000000" stroke-miterlimit="10" width="64" height="64"/>
<rect x="-411.9" y="8.4" fill="none" stroke="#000000" stroke-miterlimit="10" width="64" height="64"/>
<rect x="-411.9" y="8.4" fill="none" stroke="#000000" stroke-miterlimit="10" width="64" height="64"/>
<rect x="-411.9" y="8.4" fill="none" stroke="#000000" stroke-miterlimit="10" width="64" height="64"/>
<rect x="-411.9" y="8.4" fill="none" stroke="#000000" stroke-miterlimit="10" width="64" height="64"/>
<rect x="-411.9" y="8.4" fill="none" stroke="#000000" stroke-miterlimit="10" width="64" height="64"/>
<rect x="-411.9" y="8.4" fill="none" stroke="#000000" stroke-miterlimit="10" width="64" height="64"/>
<rect x="-411.9" y="8.4" fill="none" stroke="#000000" stroke-miterlimit="10" width="64" height="64"/>
<rect x="-411.9" y="8.4" fill="none" stroke="#000000" stroke-miterlimit="10" width="64" height="64"/>
<rect x="-411.9" y="8.4" fill="none" stroke="#000000" stroke-miterlimit="10" width="64" height="64"/>
<rect x="-411.9" y="8.4" fill="none" stroke="#000000" stroke-miterlimit="10" width="64" height="64"/>
<rect x="-411.9" y="8.4" fill="none" stroke="#000000" stroke-miterlimit="10" width="64" height="64"/>
<rect x="-411.9" y="8.4" fill="none" stroke="#000000" stroke-miterlimit="10" width="64" height="64"/>
<rect x="-411.9" y="8.4" fill="none" stroke="#000000" stroke-miterlimit="10" width="64" height="64"/>
<rect x="-411.9" y="8.4" fill="none" stroke="#000000" stroke-miterlimit="10" width="64" height="64"/>
<rect x="-411.9" y="8.4" fill="none" stroke="#000000" stroke-miterlimit="10" width="64" height="64"/>
<rect x="-411.9" y="8.4" fill="none" stroke="#000000" stroke-miterlimit="10" width="64" height="64"/>
<rect x="-411.9" y="8.4" fill="none" stroke="#000000" stroke-miterlimit="10" width="64" height="64"/>
<rect x="-411.9" y="8.4" fill="none" stroke="#000000" stroke-miterlimit="10" width="64" height="64"/>
<rect x="-411.9" y="8.4" fill="none" stroke="#000000" stroke-miterlimit="10" width="64" height="64"/>
<rect x="-411.9" y="8.4" fill="none" stroke="#000000" stroke-miterlimit="10" width="64" height="64"/>
<rect x="-411.9" y="8.4" fill="none" stroke="#000000" stroke-miterlimit="10" width="64" height="64"/>
<rect x="-411.9" y="8.4" fill="none" stroke="#000000" stroke-miterlimit="10" width="64" height="64"/>
<rect x="-411.9" y="8.4" fill="none" stroke="#000000" stroke-miterlimit="10" width="64" height="64"/>
<rect x="-411.9" y="8.4" fill="none" stroke="#000000" stroke-miterlimit="10" width="64" height="64"/>
<rect x="-411.9" y="8.4" fill="none" stroke="#000000" stroke-miterlimit="10" width="64" height="64"/>
<rect x="-411.9" y="8.4" fill="none" stroke="#000000" stroke-miterlimit="10" width="64" height="64"/>
<rect x="-411.9" y="8.4" fill="none" stroke="#000000" stroke-miterlimit="10" width="64" height="64"/>
<rect x="-411.9" y="8.4" fill="none" stroke="#000000" stroke-miterlimit="10" width="64" height="64"/>
<rect x="-411.9" y="8.4" fill="none" stroke="#000000" stroke-miterlimit="10" width="64" height="64"/>
<rect x="-411.9" y="8.4" fill="none" stroke="#000000" stroke-miterlimit="10" width="64" height="64"/>
<rect x="-411.9" y="8.4" fill="none" stroke="#000000" stroke-miterlimit="10" width="64" height="64"/>
<rect x="-411.9" y="8.4" fill="none" stroke="#000000" stroke-miterlimit="10" width="64" height="64"/>
<rect x="-411.9" y="8.4" fill="none" stroke="#000000" stroke-miterlimit="10" width="64" height="64"/>
<rect x="-411.9" y="8.4" fill="none" stroke="#000000" stroke-miterlimit="10" width="64" height="64"/>
<rect x="-411.9" y="8.4" fill="none" stroke="#000000" stroke-miterlimit="10" width="64" height="64"/>
<rect x="-411.9" y="8.4" fill="none" stroke="#000000" stroke-miterlimit="10" width="64" height="64"/>
<rect x="-411.9" y="8.4" fill="none" stroke="#000000" stroke-miterlimit="10" width="64" height="64"/>
<rect x="-411.9" y="8.4" fill="none" stroke="#000000" stroke-miterlimit="10" width="64" height="64"/>
<rect x="-411.9" y="8.4" fill="none" stroke="#000000" stroke-miterlimit="10" width="64" height="64"/>
<rect x="-411.9" y="8.4" fill="none" stroke="#000000" stroke-miterlimit="10" width="64" height="64"/>
<rect x="-411.9" y="8.4" fill="none" stroke="#000000" stroke-miterlimit="10" width="64" height="64"/>
<rect x="-411.9" y="8.4" fill="none" stroke="#000000" stroke-miterlimit="10" width="64" height="64"/>
<rect x="-411.9" y="8.4" fill="none" stroke="#000000" stroke-miterlimit="10" width="64" height="64"/>
<rect x="-411.9" y="8.4" fill="none" stroke="#000000" stroke-miterlimit="10" width="64" height="64"/>
<rect x="-411.9" y="8.4" fill="none" stroke="#000000" stroke-miterlimit="10" width="64" height="64"/>
<rect x="-411.9" y="8.4" fill="none" stroke="#000000" stroke-miterlimit="10" width="64" height="64"/>
<rect x="-411.9" y="8.4" fill="none" stroke="#000000" stroke-miterlimit="10" width="64" height="64"/>
<rect x="-411.9" y="8.4" fill="none" stroke="#000000" stroke-miterlimit="10" width="64" height="64"/>
<rect x="-411.9" y="8.4" fill="none" stroke="#000000" stroke-miterlimit="10" width="64" height="64"/>
<rect x="-411.9" y="8.4" fill="none" stroke="#000000" stroke-miterlimit="10" width="64" height="64"/>
<rect x="-411.9" y="8.4" fill="none" stroke="#000000" stroke-miterlimit="10" width="64" height="64"/>
<rect x="-411.9" y="8.4" fill="none" stroke="#000000" stroke-miterlimit="10" width="64" height="64"/>
<rect x="-411.9" y="8.4" fill="none" stroke="#000000" stroke-miterlimit="10" width="64" height="64"/>
<rect x="-411.9" y="8.4" fill="none" stroke="#000000" stroke-miterlimit="10" width="64" height="64"/>
<rect x="-411.9" y="8.4" fill="none" stroke="#000000" stroke-miterlimit="10" width="64" height="64"/>
<rect x="-411.9" y="8.4" fill="none" stroke="#000000" stroke-miterlimit="10" width="64" height="64"/>
<rect x="-411.9" y="8.4" fill="none" stroke="#000000" stroke-miterlimit="10" width="64" height="64"/>
<rect x="-411.9" y="8.4" fill="none" stroke="#000000" stroke-miterlimit="10" width="64" height="64"/>
<rect x="-411.9" y="8.4" fill="none" stroke="#000000" stroke-miterlimit="10" width="64" height="64"/>
<rect x="-411.9" y="8.4" fill="none" stroke="#000000" stroke-miterlimit="10" width="64" height="64"/>
<rect x="-411.9" y="8.4" fill="none" stroke="#000000" stroke-miterlimit="10" width="64" height="64"/>
<rect x="-411.9" y="8.4" fill="none" stroke="#000000" stroke-miterlimit="10" width="64" height="64"/>
<rect x="-411.9" y="8.4" fill="none" stroke="#000000" stroke-miterlimit="10" width="64" height="64"/>
<rect x="-411.9" y="8.4" fill="none" stroke="#000000" stroke-miterlimit="10" width="64" height="64"/>
<rect x="-411.9" y="8.4" fill="none" stroke="#000000" stroke-miterlimit="10" width="64" height="64"/>
<rect x="-411.9" y="8.4" fill="none" stroke="#000000" stroke-miterlimit="10" width="64" height="64"/>
<rect x="-411.9" y="8.4" fill="none" stroke="#000000" stroke-miterlimit="10" width="64" height="64"/>
<rect x="-411.9" y="8.4" fill="none" stroke="#000000" stroke-miterlimit="10" width="64" height="64"/>
<rect x="-411.9" y="8.4" fill="none" stroke="#000000" stroke-miterlimit="10" width="64" height="64"/>
<rect x="-411.9" y="8.4" fill="none" stroke="#000000" stroke-miterlimit="10" width="64" height="64"/>
<rect x="-411.9" y="8.4" fill="none" stroke="#000000" stroke-miterlimit="10" width="64" height="64"/>
<rect x="-411.9" y="8.4" fill="none" stroke="#000000" stroke-miterlimit="10" width="64" height="64"/>
<rect x="-411.9" y="8.4" fill="none" stroke="#000000" stroke-miterlimit="10" width="64" height="64"/>
<rect x="-411.9" y="8.4" fill="none" stroke="#000000" stroke-miterlimit="10" width="64" height="64"/>
<rect x="-411.9" y="8.4" fill="none" stroke="#000000" stroke-miterlimit="10" width="64" height="64"/>
<rect x="-411.9" y="8.4" fill="none" stroke="#000000" stroke-miterlimit="10" width="64" height="64"/>
<rect x="-411.9" y="8.4" fill="none" stroke="#000000" stroke-miterlimit="10" width="64" height="64"/>
<rect x="-411.9" y="8.4" fill="none" stroke="#000000" stroke-miterlimit="10" width="64" height="64"/>
<rect x="-411.9" y="8.4" fill="none" stroke="#000000" stroke-miterlimit="10" width="64" height="64"/>
<rect x="-411.9" y="8.4" fill="none" stroke="#000000" stroke-miterlimit="10" width="64" height="64"/>
<rect x="-411.9" y="8.4" fill="none" stroke="#000000" stroke-miterlimit="10" width="64" height="64"/>
<rect x="-411.9" y="8.4" fill="none" stroke="#000000" stroke-miterlimit="10" width="64" height="64"/>
<rect x="-411.9" y="8.4" fill="none" stroke="#000000" stroke-miterlimit="10" width="64" height="64"/>
<rect x="-411.9" y="8.4" fill="none" stroke="#000000" stroke-miterlimit="10" width="64" height="64"/>
<rect x="-411.9" y="8.4" fill="none" stroke="#000000" stroke-miterlimit="10" width="64" height="64"/>
<rect x="-411.9" y="8.4" fill="none" stroke="#000000" stroke-miterlimit="10" width="64" height="64"/>
<rect x="-411.9" y="8.4" fill="none" stroke="#000000" stroke-miterlimit="10" width="64" height="64"/>
<rect x="-411.9" y="8.4" fill="none" stroke="#000000" stroke-miterlimit="10" width="64" height="64"/>
<rect x="-411.9" y="8.4" fill="none" stroke="#000000" stroke-miterlimit="10" width="64" height="64"/>
<rect x="-411.9" y="8.4" fill="none" stroke="#000000" stroke-miterlimit="10" width="64" height="64"/>
<rect x="-411.9" y="8.4" fill="none" stroke="#000000" stroke-miterlimit="10" width="64" height="64"/>
<rect x="-411.9" y="8.4" fill="none" stroke="#000000" stroke-miterlimit="10" width="64" height="64"/>
<rect x="-411.9" y="8.4" fill="none" stroke="#000000" stroke-miterlimit="10" width="64" height="64"/>
<rect x="-411.9" y="8.4" fill="none" stroke="#000000" stroke-miterlimit="10" width="64" height="64"/>
<rect x="-411.9" y="8.4" fill="none" stroke="#000000" stroke-miterlimit="10" width="64" height="64"/>
<rect x="-411.9" y="8.4" fill="none" stroke="#000000" stroke-miterlimit="10" width="64" height="64"/>
<rect x="-411.9" y="8.4" fill="none" stroke="#000000" stroke-miterlimit="10" width="64" height="64"/>
<rect x="-411.9" y="8.4" fill="none" stroke="#000000" stroke-miterlimit="10" width="64" height="64"/>
<rect x="-411.9" y="8.4" fill="none" stroke="#000000" stroke-miterlimit="10" width="64" height="64"/>
<rect x="-411.9" y="8.4" fill="none" stroke="#000000" stroke-miterlimit="10" width="64" height="64"/>
<rect x="-411.9" y="8.4" fill="none" stroke="#000000" stroke-miterlimit="10" width="64" height="64"/>
<rect x="-411.9" y="8.4" fill="none" stroke="#000000" stroke-miterlimit="10" width="64" height="64"/>
<path fill="none" stroke="#050000" stroke-width="3" stroke-miterlimit="10" d="M-1.3,476.8l-7.6-7.7c-3.5,2.9-7.8,4.5-12.4,4.5
	c-10.6,0-19.3-8.7-19.3-19.3c0-10.6,8.7-19.3,19.3-19.3c10.6,0,19.3,8.7,19.3,19.3c0,2.6-0.5,5.1-1.5,7.4"/>
<polygon fill="#00A0E9" points="-204.8,328.5 -212.6,318 -197.1,318 "/>
<path fill="#00A0E9" d="M-178.2,295.7V324h-3.1v-28.3c0-6-4.8-10.8-10.8-10.8h-0.4c-6,0-10.8,4.8-10.8,10.8v22.5h-3.1v-22.5
	c0-7.7,6.2-13.9,13.9-13.9h0.4C-184.5,281.8-178.2,288-178.2,295.7z"/>
<g>
	<rect x="27" y="16.3" fill="#E60012" width="10" height="20"/>
	<polygon fill="#E60012" points="43.3,36.3 32,47.7 20.7,36.3 	"/>
</g>
<g>
	<rect x="137.9" y="148.6" fill="#E60012" width="20" height="10"/>
	<polygon fill="#E60012" points="157.9,142.3 169.2,153.6 157.9,164.9 	"/>
</g>
<g>
	<rect x="325.2" y="148.6" fill="#207DC2" width="20" height="10"/>
	<polygon fill="#207DC2" points="325.2,164.9 313.9,153.6 325.2,142.3 	"/>
</g>
<g>
	<rect x="-25.5" y="149.3" fill="#207DC2" width="10" height="20"/>
	<polygon fill="#207DC2" points="-31.8,149.3 -20.5,137.9 -9.2,149.3 	"/>
</g>
<line fill="#FFFFFF" stroke="#000000" stroke-width="3" stroke-miterlimit="10" x1="-36.1" y1="304.6" x2="-4.1" y2="304.6"/>
<line fill="#FFFFFF" stroke="#000000" stroke-width="3" stroke-miterlimit="10" x1="-20.1" y1="288.6" x2="-20.1" y2="320.6"/>
<line fill="#FFFFFF" stroke="#000000" stroke-width="3" stroke-miterlimit="10" x1="136.9" y1="304.6" x2="168.9" y2="304.6"/>
<polygon points="152.4,445.6 167.4,465.6 137.4,465.6 "/>
<polygon points="327.4,467.6 312.4,447.6 342.4,447.6 "/>
<polygon points="-183.1,608.1 -203.1,623.1 -203.1,593.1 "/>
<polygon points="-32.1,608.1 -12.1,593.1 -12.1,623.1 "/>
<g>
	<rect x="137.9" y="589.6" width="30" height="3"/>
	<rect x="164.9" y="589.6" width="3" height="12"/>
	<rect x="137.9" y="624.6" width="30" height="3"/>
	<rect x="164.9" y="615.6" width="3" height="12"/>
	<polygon points="151.8,608.6 147.9,608.6 137.9,592.6 141.8,592.6 	"/>
	<polygon points="151.8,608.6 147.9,608.6 137.9,624.6 141.8,624.6 	"/>
</g>
<path fill="#040000" d="M328,629.1c-2.4,0-4.8-0.4-7-1.3l-1.1-0.4l1.6-4.7l2.4,0.8l-0.8,2.3c1.7,0.5,3.3,0.7,5,0.7
	c0.2,0,0.3,0,0.5,0l0.3-3.9l6.5-1.3l1.5,3c1.7-0.9,3.1-2.1,4.4-3.4l-2.5-2.9l3.7-5.5l3,1c0.5-1.6,0.7-3.3,0.7-5c0-0.2,0-0.3,0-0.5
	l-3.7-0.3l-1.3-6.5l2.8-1.4c-0.9-1.6-2-3.1-3.4-4.4l-2.8,2.4l-5.5-3.7l1-3c-1.8-0.5-3.7-0.8-5.5-0.8l-0.2,3.7l-6.5,1.3l-1.4-2.9
	c-1.6,0.9-3.2,2-4.5,3.4l2.5,2.9l-3.7,5.5l-3.2-1.1c-0.5,1.7-0.8,3.5-0.8,5.2c0,0.1,0,0.2,0,0.3l3.9,0.3l1.3,6.5l-4.2,2.1l-1.1-2.2
	l2.5-1.2l-0.6-2.8l-4.2-0.3l-0.1-1.1c0-0.5-0.1-1.1-0.1-1.6c0-2.5,0.4-4.9,1.3-7.2l0.4-1.1l3.7,1.2l1.6-2.3l-2.7-3.1l0.7-0.8
	c1.9-2.3,4.4-4.1,7.1-5.3l1.1-0.5l1.7,3.4l2.8-0.6l0.3-4l1.1-0.1c2.9-0.2,5.9,0.2,8.8,1.2l1.1,0.4l-1.2,3.5l2.3,1.6l3-2.6l0.8,0.7
	c2.3,1.9,4.1,4.4,5.4,7.1l0.5,1.1l-3.3,1.6l0.6,2.8l4,0.3l0.1,1.1c0,0.5,0.1,1.1,0.1,1.8c0,2.4-0.4,4.7-1.2,7l-0.4,1.1l-3.6-1.2
	l-1.6,2.3l2.7,3.1l-0.7,0.8c-1.9,2.3-4.3,4.1-7.1,5.4l-1.1,0.5l-1.7-3.5l-2.8,0.6l-0.3,4.2l-1.1,0.1
	C329.2,629,328.6,629.1,328,629.1z"/>
<g>
	<g>
		<polygon fill="#040000" points="-20.3,741.1 -15,748.3 -25.6,748.3 		"/>
		<polygon fill="#040000" points="-20.3,777 -25.6,769.9 -15,769.9 		"/>
		<rect x="-21.4" y="744.7" fill="#040000" width="2.2" height="28.5"/>
		<polygon fill="#040000" points="-2.3,759.1 -9.5,764.4 -9.5,753.8 		"/>
		<polygon fill="#040000" points="-38.2,759.1 -31.1,753.8 -31.1,764.4 		"/>
		<rect x="-34.4" y="758" fill="#040000" width="28.5" height="2.2"/>
	</g>
	<circle fill="none" stroke="#050000" stroke-width="3" stroke-miterlimit="10" cx="-20.3" cy="759.1" r="22"/>
</g>
<g>
	<circle fill="none" stroke="#050000" stroke-width="3" stroke-miterlimit="10" cx="327.7" cy="304.7" r="22"/>
	<polyline fill="none" stroke="#000000" stroke-width="3" stroke-miterlimit="10" points="338.2,314.6 327.7,306.1 327.7,292.1 	"/>
</g>
<g>
	<rect x="-214.3" y="430.7" fill="none" stroke="#050000" stroke-width="3" stroke-miterlimit="10" width="40" height="8"/>
	<rect x="-214.3" y="474.7" fill="none" stroke="#050000" stroke-width="3" stroke-miterlimit="10" width="40" height="8"/>
	<polyline fill="none" stroke="#050000" stroke-width="3" stroke-miterlimit="10" points="-214.3,474.7 -200.3,459.7 -200.3,453.7 
		-214.3,438.7 	"/>
	<polyline fill="none" stroke="#050000" stroke-width="3" stroke-miterlimit="10" points="-174.3,438.7 -188.3,453.7 -188.3,459.7 
		-174.3,474.7 	"/>
	<polygon fill="#050000" points="-193.3,451.7 -189,447.1 -199.6,447.1 -195.3,451.7 -195.3,461.7 -202.8,469.7 -185.8,469.7 
		-193.3,461.7 	"/>
</g>
<g>
	<g>
		<path fill="none" stroke="#050000" stroke-width="3" stroke-miterlimit="10" d="M177.5,759.1c0-7.2-10.7-13.1-23.8-13.1
			c-13.1,0-23.8,5.9-23.8,13.1c0,7.2,10.7,13.1,23.8,13.1C166.8,772.1,177.5,766.3,177.5,759.1z"/>
		<path fill="none" stroke="#050000" stroke-width="3.7133" stroke-miterlimit="10" d="M153.7,769.1c-5.5,0-10-4.5-10-10
			s4.5-10,10-10c5.5,0,10,4.5,10,10S159.2,769.1,153.7,769.1z"/>
	</g>
	<circle fill="#050000" cx="153.7" cy="759.1" r="3"/>
</g>
<g>
	<path fill="#040000" stroke="#000000" stroke-miterlimit="10" d="M328.9,762.7c-1.5,0-3-0.3-4.4-0.8l-0.7-0.3l1-2.9l1.5,0.5
		l-0.5,1.4c1,0.3,2.1,0.5,3.1,0.5c0.1,0,0.2,0,0.3,0l0.2-2.5l4.1-0.8l0.9,1.8c1-0.6,2-1.3,2.8-2.1l-1.6-1.8l2.3-3.4l1.9,0.6
		c0.3-1,0.4-2.1,0.4-3.1c0-0.1,0-0.2,0-0.3l-2.3-0.2l-0.8-4.1l1.8-0.9c-0.6-1-1.3-2-2.1-2.8l-1.7,1.5l-3.4-2.3l0.6-1.9
		c-1.1-0.3-2.3-0.5-3.4-0.5l-0.2,2.3l-4.1,0.8l-0.9-1.8c-1,0.6-2,1.3-2.8,2.1l1.6,1.8l-2.3,3.4l-2-0.7c-0.3,1.1-0.5,2.2-0.5,3.3
		c0,0.1,0,0.1,0,0.2l2.5,0.2l0.8,4.1l-2.6,1.3l-0.7-1.4l1.5-0.8l-0.3-1.7l-2.6-0.2l-0.1-0.7c0-0.3,0-0.7,0-1c0-1.5,0.3-3.1,0.8-4.5
		l0.3-0.7l2.3,0.8l1-1.5l-1.7-1.9l0.4-0.5c1.2-1.4,2.8-2.6,4.5-3.3l0.7-0.3l1.1,2.1l1.7-0.3l0.2-2.5l0.7-0.1
		c1.8-0.1,3.7,0.1,5.5,0.8l0.7,0.3l-0.7,2.2l1.5,1l1.9-1.6l0.5,0.4c1.4,1.2,2.6,2.7,3.4,4.4l0.3,0.7l-2.1,1l0.3,1.7l2.5,0.2l0.1,0.7
		c0,0.3,0.1,0.7,0.1,1.1c0,1.5-0.3,2.9-0.8,4.4l-0.3,0.7l-2.2-0.7l-1,1.5l1.7,1.9l-0.4,0.5c-1.2,1.4-2.7,2.6-4.4,3.4l-0.7,0.3
		l-1.1-2.2l-1.7,0.3l-0.2,2.6l-0.7,0.1C329.6,762.6,329.2,762.7,328.9,762.7z"/>
	<path fill="#040000" d="M303.1,774.9l-1.7-1.9l11.2-10.2h6.9l3.8,3h8.8l0.2,0.1c0.2,0.1,1.8,0.6,2.6,2.3c0.5,1.2,0.4,2.5-0.2,3.9
		l-2.3-1c0.4-0.8,0.4-1.4,0.2-1.9c-0.2-0.5-0.7-0.7-0.9-0.9h-9.2l-3.8-3h-5.1L303.1,774.9z"/>
	<path fill="#040000" d="M334.7,781.8H316v-2.5h17.8l14-12.8c0.3-1.3-0.2-1.8-0.2-1.8c-0.7-0.5-2-0.2-2.5,0L333,774h-11v-2.5h10.2
		l11.8-9c0.3-0.1,3-1.2,5,0.1c0.8,0.5,2,2.2,1.1,4.9l-0.1,0.3L334.7,781.8z"/>
</g>
<g>
	<g>
		<path fill="#040000" d="M-201,932.2c-1.7,0-3.5-0.3-5.1-0.9l-1.1-0.4l1.2-3.6l2.2,0.7l-0.5,1.4c1.1,0.3,2.2,0.4,3.3,0.4l0.2-2.8
			l5.1-1l1,2c1-0.6,1.9-1.3,2.6-2.1l-1.8-2l2.9-4.3l2.1,0.7c0.3-1.1,0.4-2.1,0.4-3.2c0,0,0-0.1,0-0.1l-2.6-0.2l-1-5.1l1.9-1
			c-0.6-1-1.2-1.8-2-2.6l-1.9,1.7l-4.3-2.9l0.7-2.1c-1.1-0.3-2.2-0.5-3.3-0.5l-0.2,2.6l-5.1,1l-1-2c-1,0.5-1.9,1.2-2.7,2l1.8,2
			l-2.9,4.3l-2.2-0.7c-0.3,1.1-0.5,2.2-0.5,3.3l2.8,0.2l1,5.1l-3.2,1.6l-1.1-2.1l1.6-0.8l-0.3-1.5l-3-0.2l-0.1-1
			c0-0.4-0.1-0.8-0.1-1.2c0-1.8,0.3-3.6,1-5.3l0.4-1.1l2.7,0.9l0.9-1.3l-2-2.2l0.7-0.8c1.4-1.7,3.2-3,5.2-3.9l1-0.5l1.2,2.5l1.5-0.3
			l0.2-2.9l1-0.1c2.1-0.2,4.3,0.1,6.4,0.9l1.1,0.4l-0.9,2.6l1.3,0.9l2.2-1.9l0.8,0.7c1.7,1.4,3,3.2,3.9,5.1l0.5,1l-2.4,1.2l0.3,1.5
			l2.9,0.2l0.1,1c0,0.4,0.1,0.9,0.1,1.3c0,1.7-0.3,3.4-0.9,5.1l-0.4,1.1l-2.6-0.9l-0.9,1.3l1.9,2.2l-0.6,0.8c-1.4,1.7-3.1,3-5.1,4
			l-1,0.5l-1.3-2.5l-1.5,0.3l-0.2,3l-1,0.1C-200.1,932.2-200.5,932.2-201,932.2z"/>
		<path fill="#040000" d="M-201,924.3c-3.9,0-7.1-3.2-7.1-7.1c0-3.9,3.2-7.1,7.1-7.1c3.9,0,7.1,3.2,7.1,7.1
			C-193.9,921.1-197.1,924.3-201,924.3z M-201,912.5c-2.6,0-4.7,2.1-4.7,4.7c0,2.6,2.1,4.7,4.7,4.7c2.6,0,4.7-2.1,4.7-4.7
			C-196.2,914.6-198.4,912.5-201,912.5z"/>
	</g>
	<path fill="none" stroke="#040000" stroke-width="3" stroke-miterlimit="10" d="M-195.3,900.2c0-6.2,5.1-11.3,11.3-11.3
		c6.2,0,11.3,5.1,11.3,11.3c0,6.2-5.1,11.3-11.3,11.3"/>
	<circle fill="#040000" cx="-184" cy="900.2" r="3"/>
	<line fill="none" stroke="#040000" stroke-width="2" stroke-miterlimit="10" x1="-183" y1="899.2" x2="-177.5" y2="893.7"/>
</g>
<g>
	<g>
		<path fill="none" stroke="#050000" stroke-width="3" stroke-miterlimit="10" d="M-181.7,759.4c0-3.6-5.3-6.5-11.8-6.5
			c-6.5,0-11.8,2.9-11.8,6.5c0,3.6,5.3,6.5,11.8,6.5C-187,765.9-181.7,762.9-181.7,759.4z"/>
		<path fill="none" stroke="#050000" stroke-width="3" stroke-miterlimit="10" d="M-193.5,764.3c-2.7,0-5-2.2-5-5c0-2.7,2.2-5,5-5
			c2.7,0,5,2.2,5,5C-188.5,762.1-190.8,764.3-193.5,764.3z"/>
	</g>
	<polygon fill="#040000" points="-173.7,774.4 -215.3,774.4 -215.3,744.3 -172.5,744.3 -172.5,767 -175,767 -175,746.8 
		-212.8,746.8 -212.8,771.9 -173.7,771.9 	"/>
	<rect x="-203.9" y="777.3" fill="#040000" width="20.6" height="2.5"/>
	
		<rect x="-202.1" y="774.6" transform="matrix(0.4 -0.9165 0.9165 0.4 -830.5067 283.0153)" fill="#040000" width="6" height="2.5"/>
	
		<rect x="-189.4" y="772.9" transform="matrix(0.9165 -0.4001 0.4001 0.9165 -326.1426 -10.4846)" fill="#040000" width="2.5" height="6"/>
</g>
<g>
	<path fill="#040000" d="M-21.4,916.2c-7.4,0-13.3-6-13.3-13.3c0-7.4,6-13.3,13.3-13.3c7.4,0,13.3,6,13.3,13.3
		C-8.1,910.2-14,916.2-21.4,916.2z M-21.4,892c-6,0-10.8,4.9-10.8,10.8c0,6,4.9,10.8,10.8,10.8c6,0,10.8-4.9,10.8-10.8
		C-10.6,896.8-15.4,892-21.4,892z"/>
	<path fill="#040000" d="M-21.4,911.6c-4.8,0-8.8-3.9-8.8-8.8c0-4.8,3.9-8.8,8.8-8.8c1.8,0,3.6,0.6,5.1,1.6l-1.2,1.6
		c-1.2-0.8-2.5-1.3-3.9-1.3c-3.7,0-6.8,3-6.8,6.8c0,3.7,3,6.8,6.8,6.8c3.7,0,6.8-3,6.8-6.8c0-0.9-0.2-1.7-0.5-2.5l1.9-0.7
		c0.4,1,0.6,2.1,0.6,3.2C-12.6,907.7-16.6,911.6-21.4,911.6z"/>
	<polygon fill="#040000" points="-14.1,931.6 -21.2,927.5 -28.7,931.6 -28.7,916.8 -26.7,916.8 -26.7,928.2 -21.2,925.2 
		-16.1,928.1 -16.1,916.8 -14.1,916.8 	"/>
	<rect x="-22.1" y="917.4" fill="#040000" width="1.5" height="5.2"/>
</g>
<g>
	<polygon fill="#040000" points="166.1,932.9 138.7,932.9 138.7,930 163.3,930 163.3,891.1 131.9,891.1 131.9,931.4 129,931.4 
		129,888.2 166.1,888.2 	"/>
	<rect x="140.1" y="897.8" fill="#040000" width="15.9" height="2.9"/>
	<rect x="140.1" y="904.9" fill="#040000" width="15.9" height="2.9"/>
	<rect x="140.1" y="912.1" fill="#040000" width="15.9" height="2.9"/>
	<rect x="140.1" y="919.4" fill="#040000" width="15.9" height="2.9"/>
	<path fill="#040000" d="M178.4,932.4h-9.1v-30.5h9.1V932.4z M172.2,929.6h3.3v-24.8h-3.3V929.6z"/>
	<path fill="#040000" d="M177,904.5h-6v-7.3h6V904.5z M173.3,902.2h1.4v-2.7h-1.4V902.2z"/>
	<rect x="172.7" y="893.2" fill="#040000" width="2.3" height="4"/>
</g>
<g>
	<path fill="#040000" d="M331.6,925.9h-10.7l-0.1-1.1c0,0-0.5-4.3-3-7.3c-3-2.6-4.7-6.4-4.7-10.3c0-7.6,6.2-13.8,13.8-13.8
		c7.6,0,13.8,6.2,13.8,13.8c0,4.1-1.8,8-5,10.6c-0.5,0.7-1,1.5-1.5,2.5l-2.3-1c0.5-1.2,1.2-2.2,1.9-3.1l0.2-0.2
		c2.7-2.2,4.2-5.3,4.2-8.8c0-6.2-5-11.3-11.3-11.3c-6.2,0-11.3,5-11.3,11.3c0,3.3,1.4,6.4,3.9,8.5l0.1,0.1c2.2,2.6,3.1,5.9,3.4,7.5
		h8.5V925.9z"/>
	<rect x="306.5" y="905.3" fill="#040000" width="3.1" height="2.5"/>
	<rect x="325.9" y="887.4" fill="#040000" width="2.5" height="3.1"/>
	
		<rect x="312.6" y="892.6" transform="matrix(0.7071 -0.7071 0.7071 0.7071 -540.299 483.8371)" fill="#040000" width="2.5" height="3.1"/>
	<rect x="344.3" y="905.3" fill="#040000" width="3.1" height="2.5"/>
	
		<rect x="338.4" y="892.9" transform="matrix(0.7073 -0.7069 0.7069 0.7073 -532.5726 502.0282)" fill="#040000" width="3.1" height="2.5"/>
	<rect x="321.1" y="927.4" fill="#040000" width="11.3" height="2.5"/>
	<rect x="323.3" y="931.2" fill="#040000" width="6.5" height="2.5"/>
</g>
</svg>
