<?xml version="1.0" encoding="utf-8"?>
<!-- Generator: Adobe Illustrator 26.0.3, SVG Export Plug-In . SVG Version: 6.00 Build 0)  -->
<svg version="1.1" xmlns="http://www.w3.org/2000/svg" xmlns:xlink="http://www.w3.org/1999/xlink" x="0px" y="0px"
	 viewBox="0 0 64 64" style="enable-background:new 0 0 64 64;" xml:space="preserve">
<style type="text/css">
	.st0{display:none;}
	.st1{fill:#010101;}
	.st2{clip-path:url(#SVGID_00000000911787010634148260000010725984602281758396_);}
	.st3{clip-path:url(#SVGID_00000012465872693507520430000015615899002964692658_);}
</style>
<g id="레이어_3" class="st0">
</g>
<g id="레이어_1">
</g>
<g id="레이어_2">
</g>
<g id="레이어_4">
</g>
<g id="레이어_5">
	<g>
		<path fill="#FFFFFF" d="M54.86,36.321H54v-8.718l-2.974-5.245h-6.298l-2.974,5.245v8.718H30.069v-8.718l-2.974-5.245h-6.298l-2.974,5.245v8.718
			h-1.561v-8.718l-1.138-2.008h1.138V15.326l-2.974-5.246H6.992l-2.974,5.246v10.268h1.138l-1.138,2.008v10.269h1.138l-1.138,2.008
			v6.304L0,53.919h64L54.86,36.321z M49.79,24.479l1.328,2.343h-6.484l1.328-2.343H49.79z M51.119,39.098h-6.484l0.137-0.242
			l0.559-0.985h5.092l0.559,0.985L51.119,39.098z M43.875,41.219h8.004v6.807h-8.004V41.219z M51.879,28.943v6.807h-0.22h-1.219
			h-5.125h-1.219h-0.22v-6.807H51.879z M25.86,24.479l1.328,2.343h-6.484l1.328-2.343H25.86z M27.188,39.098h-6.484l0.137-0.242
			l0.559-0.985h5.092l0.559,0.985L27.188,39.098z M19.945,41.219h8.004v6.807h-8.004V41.219z M27.948,28.943v6.807h-0.22h-1.219
			h-5.125h-1.219h-0.22v-6.807H27.948z M6.139,35.75v-6.807h8.004v6.807h-0.22h-1.219H7.578H6.359H6.139z M6.139,23.473v-6.807
			h8.004v6.807h-0.22h-1.219H7.578H6.359H6.139z M12.054,12.202l1.328,2.343H6.899l1.328-2.343H12.054z M7.594,25.594h5.092
			l0.696,1.227H6.899L7.594,25.594z M7.594,37.871h0.741h4.352l0.559,0.985l0.137,0.242h-2.827H7.698H6.899L7.594,37.871z
			 M6.139,41.219h0.458h2.857h4.689v6.807H6.139v-0.425V42.1V41.219z M4.816,50.147h11.447V39.879l-0.58-1.023h2.72l-0.58,1.023
			v10.268h12.245V39.879l-0.58-1.023h12.845l-0.58,1.023v10.268H54v-9.982l5.827,11.218H4.174L4.816,50.147z"/>
		<rect fill="#FFFFFF" x="34.88" y="40.577" width="2.535" height="9.204" />
	</g>
</g>
</svg>
