<?xml version="1.0" encoding="utf-8"?>
<!-- Generator: Adobe Illustrator 22.0.1, SVG Export Plug-In . SVG Version: 6.00 Build 0)  -->
<svg version="1.2" baseProfile="tiny" id="레이어_1"
	 xmlns="http://www.w3.org/2000/svg" xmlns:xlink="http://www.w3.org/1999/xlink" x="0px" y="0px" viewBox="0 0 64 64"
	 xml:space="preserve">
<rect x="-176.6" y="2.8" fill="none" stroke="#ffffff" stroke-miterlimit="10" width="64" height="64"/>
<rect x="-350.6" y="2.8" fill="none" stroke="#ffffff" stroke-miterlimit="10" width="64" height="64"/>
<rect x="-524.6" y="2.8" fill="none" stroke="#ffffff" stroke-miterlimit="10" width="64" height="64"/>
<rect x="-698.6" y="154.3" fill="none" stroke="#ffffff" stroke-miterlimit="10" width="64" height="64"/>
<rect x="-176.6" y="154.3" fill="none" stroke="#ffffff" stroke-miterlimit="10" width="64" height="64"/>
<rect x="-350.6" y="154.3" fill="none" stroke="#ffffff" stroke-miterlimit="10" width="64" height="64"/>
<rect x="-524.6" y="154.3" fill="none" stroke="#ffffff" stroke-miterlimit="10" width="64" height="64"/>
<rect x="-698.6" y="305.7" fill="none" stroke="#ffffff" stroke-miterlimit="10" width="64" height="64"/>
<rect x="-176.6" y="305.7" fill="none" stroke="#ffffff" stroke-miterlimit="10" width="64" height="64"/>
<rect x="-350.6" y="305.7" fill="none" stroke="#ffffff" stroke-miterlimit="10" width="64" height="64"/>
<rect x="-524.6" y="305.7" fill="none" stroke="#ffffff" stroke-miterlimit="10" width="64" height="64"/>
<rect x="-698.6" y="457.2" fill="none" stroke="#ffffff" stroke-miterlimit="10" width="64" height="64"/>
<rect x="-698.6" y="-95.8" fill="#ffffff" width="186.4" height="2.3"/>
<g>
	<path stroke="#ffffff" stroke-width="1.0912" stroke-miterlimit="10" d="M-692.5-123.9c0,1.2-0.9,2.3-2.4,2.3c-1.4,0-2.4-1-2.4-2.3
		c0-1.3,1-2.3,2.4-2.3C-693.4-126.2-692.5-125.2-692.5-123.9z M-697-102.3v-16.9h4.3v16.9H-697z"/>
	<path stroke="#ffffff" stroke-width="1.0912" stroke-miterlimit="10" d="M-672.2-110.9c0,6.2-4.4,9-8.7,9c-4.7,0-8.4-3.3-8.4-8.7
		c0-5.5,3.6-8.9,8.7-8.9C-675.5-119.6-672.2-116-672.2-110.9z M-684.9-110.8c0,3.3,1.6,5.7,4.2,5.7c2.4,0,4.1-2.4,4.1-5.8
		c0-2.6-1.2-5.7-4.1-5.7C-683.7-116.5-684.9-113.6-684.9-110.8z"/>
	<path stroke="#ffffff" stroke-width="1.0912" stroke-miterlimit="10" d="M-665.6-122.1h-6.6v-3.6h17.6v3.6h-6.7v19.8h-4.3V-122.1z"
		/>
	<path stroke="#ffffff" stroke-width="1.0912" stroke-miterlimit="10" d="M-632.2-114.2c0,7.8-4.7,12.3-11.1,12.3
		c-6.6,0-10.8-5.1-10.8-11.9c0-7.2,4.5-12.3,11.1-12.3C-636.2-126.1-632.2-120.9-632.2-114.2z M-649.6-113.9c0,4.8,2.4,8.5,6.5,8.5
		c4.1,0,6.4-3.8,6.4-8.7c0-4.4-2.2-8.5-6.4-8.5C-647.3-122.7-649.6-118.7-649.6-113.9z"/>
	<path stroke="#ffffff" stroke-width="1.0912" stroke-miterlimit="10" d="M-628.6-107c1.4,0.8,3.5,1.5,5.6,1.5
		c2.7,0,4.2-1.3,4.2-3.2c0-1.8-1.2-2.8-4.1-3.9c-3.9-1.4-6.3-3.4-6.3-6.8c0-3.8,3.2-6.7,8.3-6.7c2.5,0,4.4,0.6,5.6,1.2l-1,3.4
		c-0.9-0.4-2.5-1.1-4.7-1.1c-2.7,0-3.8,1.4-3.8,2.8c0,1.8,1.3,2.6,4.5,3.8c4,1.5,6,3.6,6,6.9c0,3.8-2.8,7-8.8,7
		c-2.5,0-5.1-0.7-6.3-1.5L-628.6-107z"/>
	<path stroke="#ffffff" stroke-width="1.0912" stroke-miterlimit="10" d="M-599.1-125.7v23.3h-4.3v-23.3H-599.1z"/>
	<path stroke="#ffffff" stroke-width="1.0912" stroke-miterlimit="10" d="M-577.5-103c-1,0.5-3.2,1-6.1,1c-7.4,0-11.9-4.6-11.9-11.8
		c0-7.7,5.4-12.3,12.5-12.3c2.8,0,4.8,0.6,5.6,1l-0.9,3.4c-1.1-0.5-2.7-0.9-4.6-0.9c-4.7,0-8.2,3-8.2,8.6c0,5.2,3,8.4,8.1,8.4
		c1.7,0,3.5-0.3,4.6-0.8L-577.5-103z"/>
	<path stroke="#ffffff" stroke-width="1.0912" stroke-miterlimit="10" d="M-554.1-114.2c0,7.8-4.7,12.3-11.1,12.3
		c-6.6,0-10.8-5.1-10.8-11.9c0-7.2,4.5-12.3,11.1-12.3C-558.1-126.1-554.1-120.9-554.1-114.2z M-571.5-113.9c0,4.8,2.4,8.5,6.5,8.5
		c4.1,0,6.4-3.8,6.4-8.7c0-4.4-2.2-8.5-6.4-8.5C-569.3-122.7-571.5-118.7-571.5-113.9z"/>
	<path stroke="#ffffff" stroke-width="1.0912" stroke-miterlimit="10" d="M-550.5-102.3v-23.3h4.9l6,10c1.5,2.6,2.9,5.3,4,7.8h0.1
		c-0.3-3.1-0.4-6.1-0.4-9.7v-8.1h3.9v23.3h-4.4l-6.1-10.3c-1.5-2.6-3-5.4-4.2-8l-0.1,0c0.2,3,0.2,6.1,0.2,9.9v8.3H-550.5z"/>
	<path stroke="#ffffff" stroke-width="1.0912" stroke-miterlimit="10" d="M-527.1-107c1.3,0.8,3.5,1.5,5.6,1.5
		c2.7,0,4.2-1.3,4.2-3.2c0-1.8-1.2-2.8-4.1-3.9c-3.9-1.4-6.3-3.4-6.3-6.8c0-3.8,3.2-6.7,8.3-6.7c2.5,0,4.4,0.6,5.6,1.2l-1,3.4
		c-0.9-0.4-2.5-1.1-4.7-1.1c-2.7,0-3.8,1.4-3.8,2.8c0,1.8,1.3,2.6,4.5,3.8c4,1.5,6,3.6,6,6.9c0,3.8-2.8,7-8.8,7
		c-2.5,0-5.1-0.7-6.3-1.5L-527.1-107z"/>
</g>
<g>
	<path fill="#ffffff" d="M-688-71.3h-6.8v6.4h7.6v1.9h-9.9v-17.6h9.6v1.9h-7.3v5.6h6.8V-71.3z"/>
	<path fill="#ffffff" d="M-675.8-65L-675.8-65c-0.8,1.2-2.1,2.2-4.2,2.2c-3,0-5.4-2.5-5.4-6.4c0-4.8,3.1-6.8,5.7-6.8c2,0,3.3,1,3.9,2.2h0.1l0.1-1.9
		h2.2c-0.1,1-0.1,2.2-0.1,3.5v14.4h-2.3V-65z M-675.8-70.6c0-0.3,0-0.7-0.1-0.9c-0.4-1.4-1.6-2.6-3.3-2.6c-2.4,0-3.8,2-3.8,4.8
		c0,2.5,1.2,4.7,3.7,4.7c1.5,0,2.8-0.9,3.3-2.5c0.1-0.3,0.2-0.8,0.2-1.1V-70.6z"/>
	<path fill="#ffffff" d="M-659.1-66.5c0,1.3,0,2.5,0.1,3.5h-2l-0.1-2.1h-0.1c-0.6,1-1.9,2.4-4.2,2.4c-2,0-4.4-1.1-4.4-5.6v-7.4h2.3v7
		c0,2.4,0.8,4.1,2.8,4.1c1.5,0,2.6-1.1,3-2.1c0.1-0.3,0.2-0.7,0.2-1.2v-7.8h2.3V-66.5z"/>
	<path fill="#ffffff" d="M-652.7-79.3c0,0.8-0.5,1.4-1.5,1.4c-0.8,0-1.4-0.6-1.4-1.4c0-0.8,0.6-1.4,1.4-1.4C-653.3-80.7-652.7-80.1-652.7-79.3z
		 M-655.3-63.1v-12.7h2.3v12.7H-655.3z"/>
	<path fill="#ffffff" d="M-649.1-71.6c0-1.6-0.1-2.9-0.1-4.1h2l0.1,2.2h0.1c0.9-1.5,2.4-2.4,4.5-2.4c3.1,0,5.4,2.6,5.4,6.4c0,4.6-2.8,6.8-5.8,6.8
		c-1.7,0-3.1-0.7-3.9-2h-0.1v6.9h-2.3V-71.6z M-646.9-68.2c0,0.3,0,0.7,0.1,0.9c0.4,1.6,1.8,2.7,3.5,2.7c2.4,0,3.8-2,3.8-4.9
		c0-2.5-1.3-4.7-3.8-4.7c-1.6,0-3.1,1.1-3.5,2.8c-0.1,0.3-0.2,0.6-0.2,0.9V-68.2z"/>
	<path fill="#ffffff" d="M-634.2-72.3c0-1.3-0.1-2.4-0.1-3.4h2l0.1,2.1h0.1c0.7-1.2,1.9-2.3,4-2.3c1.7,0,3,1,3.6,2.5h0.1c0.4-0.7,0.9-1.3,1.4-1.6
		c0.8-0.6,1.6-0.9,2.8-0.9c1.7,0,4.2,1.1,4.2,5.5v7.4h-2.3v-7.1c0-2.5-0.9-3.9-2.7-3.9c-1.3,0-2.3,1-2.7,2.1
		c-0.1,0.3-0.2,0.7-0.2,1.2v7.8h-2.3v-7.6c0-2-0.9-3.5-2.6-3.5c-1.4,0-2.5,1.2-2.9,2.3c-0.1,0.3-0.2,0.7-0.2,1.1v7.6h-2.3V-72.3z"/>
	<path fill="#ffffff" d="M-611.1-69c0.1,3.1,2,4.4,4.3,4.4c1.6,0,2.7-0.3,3.5-0.7l0.4,1.6c-0.8,0.4-2.2,0.8-4.2,0.8c-3.9,0-6.2-2.6-6.2-6.4
		c0-3.8,2.3-6.8,5.9-6.8c4.2,0,5.2,3.6,5.2,5.9c0,0.5,0,0.8-0.1,1.1H-611.1z M-604.4-70.6c0-1.4-0.6-3.7-3.2-3.7
		c-2.4,0-3.4,2.1-3.5,3.7H-604.4z"/>
	<path fill="#ffffff" d="M-599.3-72.3c0-1.3,0-2.4-0.1-3.4h2l0.1,2.1h0.1c0.6-1.2,2.1-2.4,4.2-2.4c1.8,0,4.5,1,4.5,5.4v7.5h-2.3v-7.3
		c0-2-0.8-3.7-2.9-3.7c-1.5,0-2.7,1.1-3.1,2.4c-0.1,0.3-0.2,0.7-0.2,1.1v7.6h-2.3V-72.3z"/>
	<path fill="#ffffff" d="M-582.1-78.8v3h3.3v1.8h-3.3v6.8c0,1.6,0.4,2.5,1.7,2.5c0.6,0,1-0.1,1.3-0.2l0.1,1.8c-0.4,0.2-1.2,0.3-2,0.3
		c-1.1,0-1.9-0.4-2.5-1c-0.6-0.7-0.9-1.8-0.9-3.3V-74h-2v-1.8h2v-2.4L-582.1-78.8z"/>
	<path fill="#ffffff" d="M-559.4-61.1v1.3h-13.1v-1.3H-559.4z"/>
	<path fill="#ffffff" d="M-543-78.5c-0.5,0-1.1,0-1.7,0.1c-3.6,0.6-5.5,3.2-5.9,6h0.1c0.8-1.1,2.3-2,4.1-2c3,0,5.1,2.2,5.1,5.5c0,3.1-2.1,6-5.7,6
		c-3.6,0-6-2.8-6-7.3c0-3.4,1.2-6,2.9-7.7c1.4-1.4,3.3-2.3,5.4-2.5c0.7-0.1,1.3-0.1,1.7-0.1V-78.5z M-543.7-68.6
		c0-2.4-1.4-3.9-3.5-3.9c-1.4,0-2.7,0.8-3.3,2.1c-0.1,0.3-0.2,0.6-0.2,1c0,2.8,1.3,4.9,3.8,4.9C-545-64.6-543.7-66.2-543.7-68.6z"/>
	<path fill="#ffffff" d="M-532.2-63.1v-4.7h-7.9v-1.5l7.6-10.9h2.5v10.6h2.4v1.8h-2.4v4.7H-532.2z M-532.2-69.5v-5.7c0-0.9,0-1.8,0.1-2.7h-0.1
		c-0.5,1-0.9,1.7-1.4,2.5l-4.2,5.8v0.1H-532.2z"/>
	<path fill="#ffffff" d="M-525.1-71.6c0-1.6-0.1-2.9-0.1-4.1h2l0.1,2.2h0.1c0.9-1.5,2.4-2.4,4.5-2.4c3.1,0,5.4,2.6,5.4,6.4c0,4.6-2.8,6.8-5.8,6.8
		c-1.7,0-3.1-0.7-3.9-2h-0.1v6.9h-2.3V-71.6z M-522.8-68.2c0,0.3,0,0.7,0.1,0.9c0.4,1.6,1.8,2.7,3.5,2.7c2.4,0,3.8-2,3.8-4.9
		c0-2.5-1.3-4.7-3.8-4.7c-1.6,0-3.1,1.1-3.5,2.8c-0.1,0.3-0.2,0.6-0.2,0.9V-68.2z"/>
	<path fill="#ffffff" d="M-509.5-75.7l1.8,2.7c0.5,0.7,0.9,1.3,1.3,2h0.1c0.4-0.7,0.8-1.4,1.3-2.1l1.8-2.7h2.5l-4.3,6.1l4.4,6.5h-2.6l-1.9-2.9
		c-0.5-0.7-0.9-1.4-1.4-2.2h-0.1c-0.4,0.8-0.8,1.4-1.3,2.2l-1.8,2.9h-2.5l4.5-6.5l-4.3-6.2H-509.5z"/>
</g>
<g>
	<path fill="#ffffff" d="M-705.1,85c0.7,0.8,1.1,1.9,1.1,3.2c0,0.7-0.1,1.3-0.3,1.8c-0.2,0.5-0.4,1-0.8,1.4l1.1,0.9l-0.6,0.7l-1.2-1
		c-0.3,0.2-0.7,0.4-1,0.5c-0.4,0.1-0.8,0.2-1.2,0.2c-1.2,0-2.2-0.4-2.9-1.2c-0.7-0.8-1.1-1.9-1.1-3.3c0-1.3,0.4-2.4,1.1-3.2
		c0.7-0.8,1.7-1.2,2.9-1.2S-705.8,84.2-705.1,85z M-705.4,89.5c0.1-0.4,0.2-0.8,0.2-1.3c0-1-0.2-1.9-0.7-2.5c-0.5-0.6-1.2-0.9-2-0.9
		c-0.9,0-1.5,0.3-2,0.9c-0.5,0.6-0.7,1.5-0.7,2.5c0,1,0.2,1.9,0.7,2.5c0.5,0.7,1.1,1,2,1c0.2,0,0.5,0,0.7-0.1
		c0.2-0.1,0.5-0.2,0.7-0.3l-1.1-0.9l0.6-0.7l1.2,1C-705.6,90.3-705.5,89.9-705.4,89.5z"/>
	<path fill="#ffffff" d="M-696.8,86.5c-0.1-0.4-0.4-0.8-0.8-1.1c-0.4-0.4-0.9-0.6-1.7-0.6c-0.8,0-1.5,0.3-2,0.9c-0.5,0.6-0.7,1.5-0.7,2.5
		c0,1.1,0.2,1.9,0.7,2.6c0.5,0.6,1.1,1,2,1c0.7,0,1.3-0.2,1.7-0.6c0.4-0.4,0.6-0.8,0.8-1.3l1.2,0c-0.2,0.6-0.5,1.3-1.1,1.9
		c-0.6,0.7-1.4,1-2.6,1c-1.2,0-2.2-0.4-2.9-1.2c-0.7-0.8-1-1.9-1-3.3c0-1.3,0.3-2.4,1-3.2c0.7-0.8,1.7-1.2,2.9-1.2
		c1.1,0,2,0.3,2.6,0.9s0.9,1.2,1.1,1.8H-696.8z"/>
	<path fill="#ffffff" d="M-692.5,94c-0.4-0.6-0.9-1.4-1.4-2.4c-0.5-1-0.7-2.1-0.7-3.4c0-1.3,0.2-2.5,0.7-3.4c0.5-1,0.9-1.8,1.4-2.4h0.9
		c-0.6,1.1-1.1,2.1-1.4,3c-0.3,0.9-0.4,1.9-0.4,2.8c0,0.9,0.1,1.8,0.4,2.8c0.3,0.9,0.7,2,1.4,3H-692.5z"/>
	<path fill="#ffffff" d="M-684.1,85c0.7,0.8,1.1,1.9,1.1,3.2c0,0.7-0.1,1.3-0.3,1.8c-0.2,0.5-0.4,1-0.8,1.4l1.1,0.9l-0.6,0.7l-1.2-1
		c-0.3,0.2-0.7,0.4-1,0.5c-0.4,0.1-0.8,0.2-1.2,0.2c-1.2,0-2.2-0.4-2.9-1.2c-0.7-0.8-1.1-1.9-1.1-3.3c0-1.3,0.4-2.4,1.1-3.2
		c0.7-0.8,1.7-1.2,2.9-1.2S-684.8,84.2-684.1,85z M-684.4,89.5c0.1-0.4,0.2-0.8,0.2-1.3c0-1-0.2-1.9-0.7-2.5c-0.5-0.6-1.2-0.9-2-0.9
		c-0.9,0-1.5,0.3-2,0.9c-0.5,0.6-0.7,1.5-0.7,2.5c0,1,0.2,1.9,0.7,2.5c0.5,0.7,1.1,1,2,1c0.2,0,0.5,0,0.7-0.1
		c0.2-0.1,0.5-0.2,0.7-0.3l-1.1-0.9l0.6-0.7l1.2,1C-684.6,90.3-684.5,89.9-684.4,89.5z"/>
	<path fill="#ffffff" d="M-677.6,92.5v-0.8c-0.2,0.3-0.5,0.5-0.8,0.7c-0.4,0.2-0.8,0.3-1.3,0.3c-0.5,0-1-0.2-1.5-0.6c-0.5-0.4-0.7-1-0.7-1.7v-4.1
		h1.1V90c0,0.6,0.1,1,0.4,1.2c0.3,0.3,0.6,0.4,1.1,0.4c0.5,0,0.9-0.2,1.2-0.5c0.3-0.3,0.5-0.8,0.5-1.3v-3.5h1.1v6.2H-677.6z"/>
	<path fill="#ffffff" d="M-670.6,92.5c-0.1-0.1-0.1-0.3-0.1-0.4c0-0.2,0-0.3-0.1-0.5c-0.2,0.3-0.6,0.5-1,0.7c-0.4,0.2-0.8,0.3-1.3,0.4
		c-0.6,0-1.2-0.1-1.6-0.3c-0.5-0.2-0.7-0.7-0.8-1.2c-0.1-0.6,0-1,0.3-1.3c0.3-0.3,0.7-0.5,1.1-0.7c0.4-0.1,0.8-0.2,1.2-0.2
		c0.4,0,0.8-0.1,1.2-0.1c0.2,0,0.4-0.1,0.6-0.1c0.2-0.1,0.3-0.2,0.3-0.5c0-0.3-0.1-0.5-0.4-0.8c-0.2-0.2-0.7-0.4-1.2-0.4
		c-0.6,0-1,0.1-1.3,0.3c-0.3,0.2-0.4,0.5-0.3,0.8h-1.1c-0.1-0.7,0.2-1.2,0.7-1.5c0.6-0.4,1.2-0.5,2-0.5c0.7,0,1.3,0.2,1.9,0.5
		c0.6,0.4,0.8,0.9,0.8,1.5v3.4c0,0.3,0,0.5,0.1,0.7c0.1,0.2,0.1,0.3,0.1,0.3H-670.6z M-670.8,89.3c-0.1,0.1-0.2,0.1-0.3,0.2
		c-0.1,0.1-0.2,0.1-0.4,0.1c-0.2,0.1-0.6,0.1-1,0.1c-0.4,0-0.7,0.1-0.9,0.1c-0.4,0.1-0.6,0.3-0.8,0.4c-0.2,0.2-0.3,0.4-0.2,0.7
		c0,0.3,0.2,0.5,0.5,0.7c0.3,0.1,0.6,0.2,0.9,0.1c0.7,0,1.3-0.3,1.6-0.6c0.4-0.4,0.6-0.7,0.6-1V89.3z"/>
	<path fill="#ffffff" d="M-665.9,93.1c-0.1,0.2-0.2,0.4-0.3,0.5c-0.1,0.1-0.3,0.3-0.4,0.4c-0.2,0.1-0.4,0.2-0.5,0.2c-0.2,0-0.4,0-0.5,0h-0.4v-0.9
		h0.6c0.2,0,0.3-0.1,0.4-0.2c0.1-0.1,0.2-0.2,0.3-0.3l0.3-0.6l-2.5-5.9l1.1,0l1.9,4.5l1.9-4.5h1.1L-665.9,93.1z"/>
	<path fill="#ffffff" d="M-652,86.5c-0.1-0.4-0.4-0.8-0.8-1.1c-0.4-0.4-0.9-0.6-1.7-0.6c-0.8,0-1.5,0.3-2,0.9c-0.5,0.6-0.7,1.5-0.7,2.5
		c0,1.1,0.2,1.9,0.7,2.6c0.5,0.6,1.1,1,2,1c0.7,0,1.3-0.2,1.7-0.6c0.4-0.4,0.6-0.8,0.8-1.3l1.2,0c-0.2,0.6-0.5,1.3-1.1,1.9
		c-0.6,0.7-1.4,1-2.6,1c-1.2,0-2.2-0.4-2.9-1.2c-0.7-0.8-1-1.9-1-3.3c0-1.3,0.3-2.4,1-3.2c0.7-0.8,1.7-1.2,2.9-1.2
		c1.1,0,2,0.3,2.6,0.9c0.6,0.6,0.9,1.2,1.1,1.8H-652z"/>
	<path fill="#ffffff" d="M-646.3,87.2c-0.2,0-0.4,0-0.6,0c-0.2,0-0.3,0.1-0.5,0.1c-0.4,0.2-0.6,0.4-0.8,0.8c-0.2,0.3-0.3,0.8-0.3,1.4v2.9h-1.1v-6.1
		h1.1v0.9l0.1,0c0.1-0.2,0.3-0.4,0.5-0.6c0.2-0.1,0.4-0.3,0.6-0.4c0.2-0.1,0.4-0.1,0.6-0.1c0.2,0,0.3,0,0.3,0V87.2z"/>
	<path fill="#ffffff" d="M-641.4,92.5c-0.1-0.1-0.1-0.3-0.1-0.4c0-0.2,0-0.3-0.1-0.5c-0.2,0.3-0.6,0.5-1,0.7c-0.4,0.2-0.8,0.3-1.3,0.4
		c-0.6,0-1.2-0.1-1.6-0.3c-0.5-0.2-0.7-0.7-0.8-1.2c-0.1-0.6,0-1,0.3-1.3c0.3-0.3,0.7-0.5,1.1-0.7c0.4-0.1,0.8-0.2,1.2-0.2
		c0.4,0,0.8-0.1,1.2-0.1c0.2,0,0.4-0.1,0.6-0.1c0.2-0.1,0.3-0.2,0.3-0.5c0-0.3-0.1-0.5-0.4-0.8c-0.2-0.2-0.7-0.4-1.2-0.4
		c-0.6,0-1,0.1-1.3,0.3c-0.3,0.2-0.4,0.5-0.3,0.8h-1.1c-0.1-0.7,0.2-1.2,0.7-1.5c0.6-0.4,1.2-0.5,2-0.5c0.7,0,1.3,0.2,1.9,0.5
		c0.6,0.4,0.8,0.9,0.8,1.5v3.4c0,0.3,0,0.5,0.1,0.7c0.1,0.2,0.1,0.3,0.1,0.3H-641.4z M-641.6,89.3c-0.1,0.1-0.2,0.1-0.3,0.2
		c-0.1,0.1-0.2,0.1-0.4,0.1c-0.2,0.1-0.6,0.1-1,0.1c-0.4,0-0.7,0.1-0.9,0.1c-0.4,0.1-0.6,0.3-0.8,0.4c-0.2,0.2-0.3,0.4-0.2,0.7
		c0,0.3,0.2,0.5,0.5,0.7c0.3,0.1,0.6,0.2,0.9,0.1c0.7,0,1.3-0.3,1.6-0.6c0.4-0.4,0.6-0.7,0.6-1V89.3z"/>
	<path fill="#ffffff" d="M-634.8,92.5v-3.7c0-0.6-0.1-1-0.4-1.2c-0.2-0.2-0.6-0.4-1.1-0.4c-0.5,0-0.9,0.2-1.3,0.5c-0.3,0.3-0.5,0.8-0.5,1.3v3.5
		h-1.1v-6.2h1.1V87c0.3-0.3,0.6-0.5,1-0.7s0.9-0.3,1.4-0.2c0.7,0.1,1.1,0.4,1.4,0.8c0.3,0.5,0.4,0.9,0.4,1.3v4.2H-634.8z"/>
	<path fill="#ffffff" d="M-631.6,89.7c0,0.6,0.2,1.1,0.6,1.5c0.4,0.4,0.8,0.6,1.4,0.6c0.5,0,0.9-0.1,1.2-0.3c0.3-0.2,0.4-0.4,0.5-0.6h1.2
		c-0.1,0.4-0.4,0.8-0.9,1.2c-0.4,0.4-1.1,0.6-1.9,0.6c-0.9,0-1.6-0.3-2.2-0.9c-0.6-0.6-0.9-1.4-0.9-2.3c0-0.9,0.3-1.7,0.8-2.3
		c0.6-0.6,1.3-0.9,2.2-0.9c0.8,0,1.6,0.3,2.2,0.8c0.6,0.6,0.9,1.5,0.9,2.7H-631.6z M-627.8,88.9c0-0.6-0.2-1-0.6-1.4
		c-0.3-0.3-0.8-0.5-1.4-0.5c-0.5,0-1,0.2-1.3,0.5c-0.3,0.3-0.6,0.8-0.6,1.4H-627.8z"/>
	<path fill="#ffffff" d="M-624.7,91c0.3-0.9,0.4-1.9,0.4-2.8c0-0.9-0.1-1.8-0.4-2.8c-0.3-0.9-0.7-2-1.4-3h0.9c0.4,0.6,0.9,1.4,1.4,2.4
		c0.5,1,0.7,2.1,0.7,3.4c0,1.3-0.2,2.5-0.7,3.4c-0.5,1-0.9,1.8-1.4,2.4h-0.9C-625.4,92.9-625,91.9-624.7,91z"/>
</g>
<g>
	<path fill="#ffffff" d="M-165.7,89v3.5h-1.1V89l-3.2-5h1.3l2.4,3.9l2.4-3.9h1.3L-165.7,89z"/>
	<path fill="#ffffff" d="M-156.6,86.5c-0.1-0.4-0.4-0.8-0.8-1.1c-0.4-0.4-0.9-0.6-1.7-0.6c-0.8,0-1.5,0.3-2,0.9c-0.5,0.6-0.7,1.5-0.7,2.5
		c0,1.1,0.2,1.9,0.7,2.6c0.5,0.6,1.1,1,2,1c0.7,0,1.3-0.2,1.7-0.6c0.4-0.4,0.6-0.8,0.8-1.3l1.2,0c-0.2,0.6-0.5,1.3-1.1,1.9
		c-0.6,0.7-1.4,1-2.6,1c-1.2,0-2.2-0.4-2.9-1.2c-0.7-0.8-1-1.9-1-3.3c0-1.3,0.3-2.4,1-3.2c0.7-0.8,1.7-1.2,2.9-1.2
		c1.1,0,2,0.3,2.6,0.9c0.6,0.6,0.9,1.2,1.1,1.8H-156.6z"/>
	<path fill="#ffffff" d="M-152.4,94c-0.4-0.6-0.9-1.4-1.4-2.4c-0.5-1-0.7-2.1-0.7-3.4c0-1.3,0.2-2.5,0.7-3.4c0.5-1,0.9-1.8,1.4-2.4h0.9
		c-0.6,1.1-1.1,2.1-1.4,3c-0.3,0.9-0.4,1.9-0.4,2.8c0,0.9,0.1,1.8,0.4,2.8c0.3,0.9,0.7,2,1.4,3H-152.4z"/>
	<path fill="#ffffff" d="M-144.9,92.5l-2.5-3.6h-1.9v3.5h-1.1V84h3.5c0.8,0,1.5,0.2,2.1,0.7c0.6,0.4,0.8,1,0.8,1.8c0,0.6-0.2,1.1-0.6,1.5
		c-0.4,0.4-0.9,0.7-1.5,0.9l2.5,3.7H-144.9z M-145.7,87.5c0.4-0.3,0.6-0.6,0.6-1.1c0-0.5-0.2-0.9-0.5-1.1c-0.3-0.2-0.7-0.3-1.1-0.3
		h-2.4v2.9h2.4C-146.5,87.9-146.1,87.8-145.7,87.5z"/>
	<path fill="#ffffff" d="M-140,85v7.5h-1.1V85h-2.8v-1h6.8v1H-140z"/>
	<path fill="#ffffff" d="M-130.7,92.5l0-1.1c-0.2,0.3-0.6,0.6-1.1,0.9c-0.5,0.3-1,0.4-1.6,0.4c-1.2,0-2.2-0.4-2.9-1.2c-0.7-0.8-1-1.9-1-3.3
		c0-1.3,0.3-2.4,1-3.2c0.7-0.8,1.7-1.2,2.9-1.2c1.1,0,2,0.3,2.6,0.9c0.6,0.6,0.9,1.2,1.1,1.8l-1.2,0c-0.1-0.4-0.4-0.8-0.8-1.1
		c-0.4-0.4-0.9-0.6-1.7-0.6c-0.9,0-1.6,0.3-2,0.9c-0.5,0.6-0.7,1.5-0.7,2.5c0,1,0.2,1.9,0.7,2.5c0.5,0.7,1.1,1,2,1
		c0.8,0,1.4-0.3,1.9-0.8c0.5-0.5,0.7-1.1,0.8-1.8l-2.5,0v-0.9h3.6v4.3H-130.7z"/>
	<path fill="#ffffff" d="M-122.2,86.5c-0.1-0.4-0.4-0.8-0.8-1.1c-0.4-0.4-0.9-0.6-1.7-0.6c-0.8,0-1.5,0.3-2,0.9c-0.5,0.6-0.7,1.5-0.7,2.5
		c0,1.1,0.2,1.9,0.7,2.6c0.5,0.6,1.1,1,2,1c0.7,0,1.3-0.2,1.7-0.6c0.4-0.4,0.6-0.8,0.8-1.3l1.2,0c-0.2,0.6-0.5,1.3-1.1,1.9
		c-0.6,0.7-1.4,1-2.6,1c-1.2,0-2.2-0.4-2.9-1.2c-0.7-0.8-1-1.9-1-3.3c0-1.3,0.3-2.4,1-3.2c0.7-0.8,1.7-1.2,2.9-1.2
		c1.1,0,2,0.3,2.6,0.9s0.9,1.2,1.1,1.8H-122.2z"/>
	<path fill="#ffffff" d="M-118.8,91c0.3-0.9,0.4-1.9,0.4-2.8c0-0.9-0.1-1.8-0.4-2.8c-0.3-0.9-0.7-2-1.4-3h0.9c0.4,0.6,0.9,1.4,1.4,2.4
		c0.5,1,0.7,2.1,0.7,3.4c0,1.3-0.2,2.5-0.7,3.4c-0.5,1-0.9,1.8-1.4,2.4h-0.9C-119.5,92.9-119.1,91.9-118.8,91z"/>
</g>
<g>
	<path fill="#ffffff" d="M-343.6,89v3.5h-1.1V89l-3.2-5h1.3l2.4,3.9l2.4-3.9h1.3L-343.6,89z"/>
	<path fill="#ffffff" d="M-334.5,86.5c-0.1-0.4-0.4-0.8-0.8-1.1c-0.4-0.4-0.9-0.6-1.7-0.6c-0.8,0-1.5,0.3-2,0.9c-0.5,0.6-0.7,1.5-0.7,2.5
		c0,1.1,0.2,1.9,0.7,2.6c0.5,0.6,1.1,1,2,1c0.7,0,1.3-0.2,1.7-0.6c0.4-0.4,0.6-0.8,0.8-1.3l1.2,0c-0.2,0.6-0.5,1.3-1.1,1.9
		c-0.6,0.7-1.4,1-2.6,1c-1.2,0-2.2-0.4-2.9-1.2c-0.7-0.8-1-1.9-1-3.3c0-1.3,0.3-2.4,1-3.2c0.7-0.8,1.7-1.2,2.9-1.2
		c1.1,0,2,0.3,2.6,0.9c0.6,0.6,0.9,1.2,1.1,1.8H-334.5z"/>
	<path fill="#ffffff" d="M-330.2,94c-0.4-0.6-0.9-1.4-1.4-2.4c-0.5-1-0.7-2.1-0.7-3.4c0-1.3,0.2-2.5,0.7-3.4c0.5-1,0.9-1.8,1.4-2.4h0.9
		c-0.6,1.1-1.1,2.1-1.4,3c-0.3,0.9-0.4,1.9-0.4,2.8c0,0.9,0.1,1.8,0.4,2.8c0.3,0.9,0.7,2,1.4,3H-330.2z"/>
	<path fill="#ffffff" d="M-322.8,92.5l-2.5-3.6h-1.9v3.5h-1.1V84h3.5c0.8,0,1.5,0.2,2.1,0.7c0.6,0.4,0.8,1,0.8,1.8c0,0.6-0.2,1.1-0.6,1.5
		c-0.4,0.4-0.9,0.7-1.5,0.9l2.5,3.7H-322.8z M-323.6,87.5c0.4-0.3,0.6-0.6,0.6-1.1c0-0.5-0.2-0.9-0.5-1.1c-0.3-0.2-0.7-0.3-1.1-0.3
		h-2.4v2.9h2.4C-324.3,87.9-323.9,87.8-323.6,87.5z"/>
	<path fill="#ffffff" d="M-313.8,92.4v-6.1l-0.1,0l-2.2,6.1h-1.3l-2.2-6.1l-0.1,0v6.1h-1V84h1.2l2.7,7.3l2.7-7.3h1.2v8.4H-313.8z"/>
	<path fill="#ffffff" d="M-305,92.5l0-1.1c-0.2,0.3-0.6,0.6-1.1,0.9s-1,0.4-1.6,0.4c-1.2,0-2.2-0.4-2.9-1.2c-0.7-0.8-1-1.9-1-3.3
		c0-1.3,0.3-2.4,1-3.2c0.7-0.8,1.7-1.2,2.9-1.2c1.1,0,2,0.3,2.6,0.9c0.6,0.6,0.9,1.2,1.1,1.8l-1.2,0c-0.1-0.4-0.4-0.8-0.8-1.1
		c-0.4-0.4-0.9-0.6-1.7-0.6c-0.9,0-1.6,0.3-2,0.9c-0.5,0.6-0.7,1.5-0.7,2.5c0,1,0.2,1.9,0.7,2.5c0.5,0.7,1.1,1,2,1
		c0.8,0,1.4-0.3,1.9-0.8c0.5-0.5,0.7-1.1,0.8-1.8l-2.5,0v-0.9h3.6v4.3H-305z"/>
	<path fill="#ffffff" d="M-296.5,86.5c-0.1-0.4-0.4-0.8-0.8-1.1c-0.4-0.4-0.9-0.6-1.7-0.6c-0.8,0-1.5,0.3-2,0.9c-0.5,0.6-0.7,1.5-0.7,2.5
		c0,1.1,0.2,1.9,0.7,2.6c0.5,0.6,1.1,1,2,1c0.7,0,1.3-0.2,1.7-0.6c0.4-0.4,0.6-0.8,0.8-1.3l1.2,0c-0.2,0.6-0.5,1.3-1.1,1.9
		c-0.6,0.7-1.4,1-2.6,1c-1.2,0-2.2-0.4-2.9-1.2c-0.7-0.8-1-1.9-1-3.3c0-1.3,0.3-2.4,1-3.2c0.7-0.8,1.7-1.2,2.9-1.2
		c1.1,0,2,0.3,2.6,0.9c0.6,0.6,0.9,1.2,1.1,1.8H-296.5z"/>
	<path fill="#ffffff" d="M-293.1,91c0.3-0.9,0.4-1.9,0.4-2.8c0-0.9-0.1-1.8-0.4-2.8c-0.3-0.9-0.7-2-1.4-3h0.9c0.4,0.6,0.9,1.4,1.4,2.4
		c0.5,1,0.7,2.1,0.7,3.4c0,1.3-0.2,2.5-0.7,3.4c-0.5,1-0.9,1.8-1.4,2.4h-0.9C-293.9,92.9-293.4,91.9-293.1,91z"/>
</g>
<g>
	<path fill="#ffffff" d="M-529.1,89v3.5h-1.1V89l-3.2-5h1.3l2.4,3.9l2.4-3.9h1.3L-529.1,89z"/>
	<path fill="#ffffff" d="M-521.7,85v7.5h-1.1V85h-2.8v-1h6.8v1H-521.7z"/>
	<path fill="#ffffff" d="M-516.3,94c-0.4-0.6-0.9-1.4-1.4-2.4c-0.5-1-0.7-2.1-0.7-3.4c0-1.3,0.2-2.5,0.7-3.4c0.5-1,0.9-1.8,1.4-2.4h0.9
		c-0.6,1.1-1.1,2.1-1.4,3c-0.3,0.9-0.4,1.9-0.4,2.8c0,0.9,0.1,1.8,0.4,2.8c0.3,0.9,0.7,2,1.4,3H-516.3z"/>
	<path fill="#ffffff" d="M-510.8,89v3.5h-1.1V89l-3.2-5h1.3l2.4,3.9l2.4-3.9h1.3L-510.8,89z"/>
	<path fill="#ffffff" d="M-504,92.5c-0.1-0.1-0.1-0.3-0.1-0.4c0-0.2,0-0.3-0.1-0.5c-0.2,0.3-0.6,0.5-1,0.7c-0.4,0.2-0.8,0.3-1.3,0.4
		c-0.6,0-1.2-0.1-1.6-0.3c-0.5-0.2-0.7-0.7-0.8-1.2c-0.1-0.6,0-1,0.3-1.3c0.3-0.3,0.7-0.5,1.1-0.7c0.4-0.1,0.8-0.2,1.2-0.2
		c0.4,0,0.8-0.1,1.2-0.1c0.2,0,0.4-0.1,0.6-0.1c0.2-0.1,0.3-0.2,0.3-0.5c0-0.3-0.1-0.5-0.4-0.8c-0.2-0.2-0.7-0.4-1.2-0.4
		c-0.6,0-1,0.1-1.3,0.3c-0.3,0.2-0.4,0.5-0.3,0.8h-1.1c-0.1-0.7,0.2-1.2,0.7-1.5c0.6-0.4,1.2-0.5,2-0.5c0.7,0,1.3,0.2,1.9,0.5
		c0.6,0.4,0.8,0.9,0.8,1.5v3.4c0,0.3,0,0.5,0.1,0.7c0.1,0.2,0.1,0.3,0.1,0.3H-504z M-504.2,89.3c-0.1,0.1-0.2,0.1-0.3,0.2
		c-0.1,0.1-0.2,0.1-0.4,0.1c-0.2,0.1-0.6,0.1-1,0.1c-0.4,0-0.7,0.1-0.9,0.1c-0.4,0.1-0.6,0.3-0.8,0.4c-0.2,0.2-0.3,0.4-0.2,0.7
		c0,0.3,0.2,0.5,0.5,0.7c0.3,0.1,0.6,0.2,0.9,0.1c0.7,0,1.3-0.3,1.6-0.6c0.4-0.4,0.6-0.7,0.6-1V89.3z"/>
	<path fill="#ffffff" d="M-498.5,87.2c-0.2,0-0.4,0-0.6,0c-0.2,0-0.3,0.1-0.5,0.1c-0.4,0.2-0.6,0.4-0.8,0.8c-0.2,0.3-0.3,0.8-0.3,1.4v2.9h-1.1v-6.1
		h1.1v0.9l0.1,0c0.1-0.2,0.3-0.4,0.5-0.6c0.2-0.1,0.4-0.3,0.6-0.4c0.2-0.1,0.4-0.1,0.6-0.1c0.2,0,0.3,0,0.3,0V87.2z"/>
	<path fill="#ffffff" d="M-493.4,92.5v-0.7c-0.3,0.3-0.6,0.5-0.9,0.7c-0.4,0.2-0.7,0.2-1.1,0.2c-0.9,0-1.6-0.3-2.2-0.9c-0.5-0.6-0.8-1.4-0.8-2.4
		c0-1,0.3-1.8,0.8-2.4c0.5-0.6,1.3-0.9,2.2-0.9c0.4,0,0.8,0.1,1.1,0.2c0.4,0.2,0.7,0.4,0.9,0.7v-3h1.1v8.5H-493.4z M-493.9,91.1
		c0.3-0.4,0.5-1,0.5-1.7c0-0.7-0.2-1.3-0.5-1.7c-0.3-0.4-0.8-0.6-1.4-0.6c-0.6,0-1.1,0.2-1.4,0.6c-0.3,0.4-0.5,1-0.5,1.6
		s0.2,1.2,0.5,1.7c0.3,0.4,0.8,0.6,1.4,0.6C-494.7,91.7-494.2,91.5-493.9,91.1z"/>
	<path fill="#ffffff" d="M-483.3,85v7.5h-1.1V85h-2.8v-1h6.8v1H-483.3z"/>
	<path fill="#ffffff" d="M-477.3,87.2c-0.2,0-0.4,0-0.6,0c-0.2,0-0.3,0.1-0.5,0.1c-0.4,0.2-0.6,0.4-0.8,0.8c-0.2,0.3-0.3,0.8-0.3,1.4v2.9h-1.1v-6.1
		h1.1v0.9l0.1,0c0.1-0.2,0.3-0.4,0.5-0.6c0.2-0.1,0.4-0.3,0.6-0.4c0.2-0.1,0.4-0.1,0.6-0.1c0.2,0,0.3,0,0.3,0V87.2z"/>
	<path fill="#ffffff" d="M-472.1,92.5v-0.8c-0.2,0.3-0.5,0.5-0.8,0.7c-0.4,0.2-0.8,0.3-1.3,0.3c-0.5,0-1-0.2-1.5-0.6c-0.5-0.4-0.7-1-0.7-1.7v-4.1
		h1.1V90c0,0.6,0.1,1,0.4,1.2c0.3,0.3,0.6,0.4,1.1,0.4c0.5,0,0.9-0.2,1.2-0.5c0.3-0.3,0.5-0.8,0.5-1.3v-3.5h1.1v6.2H-472.1z"/>
	<path fill="#ffffff" d="M-464.1,90.5c-0.1,0.6-0.5,1.1-0.9,1.5c-0.5,0.4-1.1,0.7-2,0.7c-1,0-1.7-0.3-2.3-0.9c-0.6-0.6-0.8-1.4-0.8-2.4
		c0-1,0.3-1.7,0.8-2.4c0.6-0.6,1.3-0.9,2.3-0.9c0.8,0,1.5,0.2,2,0.7c0.5,0.5,0.8,1,0.9,1.5h-1.2c-0.1-0.3-0.2-0.5-0.5-0.8
		c-0.3-0.3-0.7-0.4-1.2-0.4c-0.6,0-1.1,0.2-1.4,0.7c-0.3,0.4-0.5,1-0.5,1.7c0,0.7,0.2,1.3,0.5,1.7c0.3,0.4,0.8,0.7,1.4,0.7
		c0.5,0,0.8-0.1,1.1-0.4c0.3-0.2,0.5-0.5,0.6-0.8H-464.1z"/>
	<path fill="#ffffff" d="M-458.5,92.5l-2.6-3.1l-0.9,0.7v2.4h-1.1V84h1.1v4.9l2.8-2.6h1.4l-2.6,2.5l3.2,3.7H-458.5z"/>
	<path fill="#ffffff" d="M-455.6,91c0.3-0.9,0.4-1.9,0.4-2.8c0-0.9-0.1-1.8-0.4-2.8c-0.3-0.9-0.7-2-1.4-3h0.9c0.4,0.6,0.9,1.4,1.4,2.4
		c0.5,1,0.7,2.1,0.7,3.4c0,1.3-0.2,2.5-0.7,3.4c-0.5,1-0.9,1.8-1.4,2.4h-0.9C-456.3,92.9-455.9,91.9-455.6,91z"/>
</g>
<g>
	<path fill="#ffffff" d="M-715.1,240.5c0.3,0.4,0.4,0.9,0.3,1.4c-0.1,0.7-0.4,1.2-0.9,1.7c-0.5,0.5-1.3,0.7-2.4,0.7c-1.1,0-2-0.3-2.5-1
		c-0.5-0.7-0.8-1.4-0.9-2.1h1.2c0,0.7,0.3,1.2,0.7,1.6c0.4,0.4,0.9,0.6,1.6,0.6c0.6,0,1.1-0.1,1.5-0.4c0.3-0.3,0.5-0.6,0.6-1.1
		c0.1-0.3,0-0.6-0.2-0.8c-0.2-0.2-0.4-0.4-0.8-0.6c-0.4-0.2-0.8-0.3-1.2-0.3c-0.4,0-0.9-0.1-1.3-0.3c-0.6-0.2-1-0.5-1.3-0.8
		s-0.4-0.8-0.4-1.4c0-0.6,0.3-1.1,0.8-1.6c0.5-0.5,1.3-0.8,2.3-0.8c1.2,0,2,0.3,2.4,1c0.4,0.7,0.7,1.2,0.7,1.7l-1.2,0
		c0-0.5-0.2-0.9-0.5-1.2c-0.3-0.3-0.8-0.5-1.5-0.5c-0.6,0-1.1,0.2-1.4,0.5c-0.3,0.3-0.4,0.6-0.4,1c0,0.4,0.1,0.7,0.3,0.8
		c0.2,0.2,0.5,0.3,0.7,0.4c0.3,0.1,0.7,0.2,1.2,0.3c0.5,0.1,1,0.2,1.4,0.4C-715.7,239.7-715.4,240-715.1,240.5z"/>
	<path fill="#ffffff" d="M-707.8,237.9c-0.1-0.4-0.4-0.8-0.8-1.1c-0.4-0.4-0.9-0.6-1.7-0.6c-0.8,0-1.5,0.3-2,0.9c-0.5,0.6-0.7,1.5-0.7,2.5
		c0,1.1,0.2,1.9,0.7,2.6c0.5,0.6,1.1,1,2,1c0.7,0,1.3-0.2,1.7-0.6c0.4-0.4,0.6-0.8,0.8-1.3l1.2,0c-0.2,0.6-0.5,1.3-1.1,1.9
		c-0.6,0.7-1.4,1-2.6,1c-1.2,0-2.2-0.4-2.9-1.2c-0.7-0.8-1-1.9-1-3.3c0-1.3,0.3-2.4,1-3.2c0.7-0.8,1.7-1.2,2.9-1.2
		c1.1,0,2,0.3,2.6,0.9c0.6,0.6,0.9,1.2,1.1,1.8H-707.8z"/>
	<path fill="#ffffff" d="M-703.6,245.5c-0.4-0.6-0.9-1.4-1.4-2.4c-0.5-1-0.7-2.1-0.7-3.4c0-1.3,0.2-2.5,0.7-3.4c0.5-1,0.9-1.8,1.4-2.4h0.9
		c-0.6,1.1-1.1,2.1-1.4,3c-0.3,0.9-0.4,1.9-0.4,2.8c0,0.9,0.1,1.8,0.4,2.8c0.3,0.9,0.7,2,1.4,3H-703.6z"/>
	<path fill="#ffffff" d="M-695.7,240.5c0.3,0.4,0.4,0.9,0.3,1.4c-0.1,0.7-0.4,1.2-0.9,1.7c-0.5,0.5-1.3,0.7-2.4,0.7c-1.1,0-2-0.3-2.5-1
		c-0.5-0.7-0.8-1.4-0.9-2.1h1.2c0,0.7,0.3,1.2,0.7,1.6c0.4,0.4,0.9,0.6,1.6,0.6c0.6,0,1.1-0.1,1.5-0.4c0.3-0.3,0.5-0.6,0.6-1.1
		c0.1-0.3,0-0.6-0.2-0.8c-0.2-0.2-0.4-0.4-0.8-0.6c-0.4-0.2-0.8-0.3-1.2-0.3c-0.4,0-0.9-0.1-1.3-0.3c-0.6-0.2-1-0.5-1.3-0.8
		s-0.4-0.8-0.4-1.4c0-0.6,0.3-1.1,0.8-1.6c0.5-0.5,1.3-0.8,2.3-0.8c1.2,0,2,0.3,2.4,1c0.4,0.7,0.7,1.2,0.7,1.7l-1.2,0
		c0-0.5-0.2-0.9-0.5-1.2c-0.3-0.3-0.8-0.5-1.5-0.5c-0.6,0-1.1,0.2-1.4,0.5c-0.3,0.3-0.4,0.6-0.4,1c0,0.4,0.1,0.7,0.3,0.8
		c0.2,0.2,0.5,0.3,0.7,0.4c0.3,0.1,0.7,0.2,1.2,0.3c0.5,0.1,1,0.2,1.4,0.4C-696.4,239.7-696,240-695.7,240.5z"/>
	<path fill="#ffffff" d="M-693.1,243.9c-0.2,0-0.4-0.1-0.6-0.2c-0.2-0.1-0.3-0.2-0.4-0.4c-0.1-0.1-0.2-0.3-0.2-0.4c0-0.2-0.1-0.4-0.1-0.7v-3.5h-0.8
		v-0.9l0.8,0v-1.9h1.1v1.9l0.9,0v0.9h-0.9v3.4c0,0.1,0,0.3,0,0.4c0,0.1,0.1,0.2,0.2,0.3c0.1,0.1,0.2,0.1,0.4,0.2c0.1,0,0.3,0,0.4,0
		l0,0.9H-693.1z"/>
	<path fill="#ffffff" d="M-688.1,238.7c-0.2,0-0.4,0-0.6,0c-0.2,0-0.3,0.1-0.5,0.1c-0.4,0.2-0.6,0.4-0.8,0.8c-0.2,0.3-0.3,0.8-0.3,1.4v2.9h-1.1
		v-6.1h1.1v0.9l0.1,0c0.1-0.2,0.3-0.4,0.5-0.6c0.2-0.1,0.4-0.3,0.6-0.4c0.2-0.1,0.4-0.1,0.6-0.1c0.2,0,0.3,0,0.3,0V238.7z"/>
	<path fill="#ffffff" d="M-683.2,243.9c-0.1-0.1-0.1-0.3-0.1-0.4c0-0.2,0-0.3-0.1-0.5c-0.2,0.3-0.6,0.5-1,0.7c-0.4,0.2-0.8,0.3-1.3,0.4
		c-0.6,0-1.2-0.1-1.6-0.3c-0.5-0.2-0.7-0.7-0.8-1.2c-0.1-0.6,0-1,0.3-1.3c0.3-0.3,0.7-0.5,1.1-0.7c0.4-0.1,0.8-0.2,1.2-0.2
		c0.4,0,0.8-0.1,1.2-0.1c0.2,0,0.4-0.1,0.6-0.1c0.2-0.1,0.3-0.2,0.3-0.5c0-0.3-0.1-0.5-0.4-0.8c-0.2-0.2-0.7-0.4-1.2-0.4
		c-0.6,0-1,0.1-1.3,0.3c-0.3,0.2-0.4,0.5-0.3,0.8h-1.1c-0.1-0.7,0.2-1.2,0.7-1.5c0.6-0.4,1.2-0.5,2-0.5c0.7,0,1.3,0.2,1.9,0.5
		c0.6,0.4,0.8,0.9,0.8,1.5v3.4c0,0.3,0,0.5,0.1,0.7c0.1,0.2,0.1,0.3,0.1,0.3H-683.2z M-683.4,240.7c-0.1,0.1-0.2,0.1-0.3,0.2
		c-0.1,0.1-0.2,0.1-0.4,0.1c-0.2,0.1-0.6,0.1-1,0.1c-0.4,0-0.7,0.1-0.9,0.1c-0.4,0.1-0.6,0.3-0.8,0.4c-0.2,0.2-0.3,0.4-0.2,0.7
		c0,0.3,0.2,0.5,0.5,0.7c0.3,0.1,0.6,0.2,0.9,0.1c0.7,0,1.3-0.3,1.6-0.6c0.4-0.4,0.6-0.7,0.6-1V240.7z"/>
	<path fill="#ffffff" d="M-676.3,243.9v-0.7c-0.3,0.3-0.6,0.5-0.9,0.7c-0.4,0.2-0.7,0.2-1.1,0.2c-0.9,0-1.6-0.3-2.2-0.9c-0.5-0.6-0.8-1.4-0.8-2.4
		c0-1,0.3-1.8,0.8-2.4c0.5-0.6,1.3-0.9,2.2-0.9c0.4,0,0.8,0.1,1.1,0.2c0.4,0.2,0.7,0.4,0.9,0.7v-3h1.1v8.5H-676.3z M-676.8,242.6
		c0.3-0.4,0.5-1,0.5-1.7c0-0.7-0.2-1.3-0.5-1.7c-0.3-0.4-0.8-0.6-1.4-0.6c-0.6,0-1.1,0.2-1.4,0.6c-0.3,0.4-0.5,1-0.5,1.6
		c0,0.7,0.2,1.2,0.5,1.7c0.3,0.4,0.8,0.6,1.4,0.6C-677.6,243.2-677.1,243-676.8,242.6z"/>
	<path fill="#ffffff" d="M-669,243.9v-0.7c-0.3,0.3-0.6,0.5-0.9,0.7c-0.4,0.2-0.7,0.2-1.1,0.2c-0.9,0-1.6-0.3-2.2-0.9c-0.5-0.6-0.8-1.4-0.8-2.4
		c0-1,0.3-1.8,0.8-2.4c0.5-0.6,1.3-0.9,2.2-0.9c0.4,0,0.8,0.1,1.1,0.2c0.4,0.2,0.7,0.4,0.9,0.7v-3h1.1v8.5H-669z M-669.5,242.6
		c0.3-0.4,0.5-1,0.5-1.7c0-0.7-0.2-1.3-0.5-1.7c-0.3-0.4-0.8-0.6-1.4-0.6c-0.6,0-1.1,0.2-1.4,0.6c-0.3,0.4-0.5,1-0.5,1.6
		c0,0.7,0.2,1.2,0.5,1.7c0.3,0.4,0.8,0.6,1.4,0.6C-670.3,243.2-669.9,243-669.5,242.6z"/>
	<path fill="#ffffff" d="M-666.4,243.9v-8.5h1.1v8.5H-666.4z"/>
	<path fill="#ffffff" d="M-663.2,241.2c0,0.6,0.2,1.1,0.6,1.5c0.4,0.4,0.8,0.6,1.4,0.6c0.5,0,0.9-0.1,1.2-0.3c0.3-0.2,0.4-0.4,0.5-0.6h1.2
		c-0.1,0.4-0.4,0.8-0.9,1.2c-0.4,0.4-1.1,0.6-1.9,0.6c-0.9,0-1.6-0.3-2.2-0.9c-0.6-0.6-0.9-1.4-0.9-2.3c0-0.9,0.3-1.7,0.8-2.3
		c0.6-0.6,1.3-0.9,2.2-0.9c0.8,0,1.6,0.3,2.2,0.8c0.6,0.6,0.9,1.5,0.9,2.7H-663.2z M-659.3,240.3c0-0.6-0.2-1-0.6-1.4
		c-0.3-0.3-0.8-0.5-1.4-0.5c-0.5,0-1,0.2-1.3,0.5c-0.3,0.3-0.6,0.8-0.6,1.4H-659.3z"/>
	<path fill="#ffffff" d="M-647,237.9c-0.1-0.4-0.4-0.8-0.8-1.1c-0.4-0.4-0.9-0.6-1.7-0.6c-0.8,0-1.5,0.3-2,0.9c-0.5,0.6-0.7,1.5-0.7,2.5
		c0,1.1,0.2,1.9,0.7,2.6c0.5,0.6,1.1,1,2,1c0.7,0,1.3-0.2,1.7-0.6c0.4-0.4,0.6-0.8,0.8-1.3l1.2,0c-0.2,0.6-0.5,1.3-1.1,1.9
		c-0.6,0.7-1.4,1-2.6,1c-1.2,0-2.2-0.4-2.9-1.2c-0.7-0.8-1-1.9-1-3.3c0-1.3,0.3-2.4,1-3.2c0.7-0.8,1.7-1.2,2.9-1.2
		c1.1,0,2,0.3,2.6,0.9c0.6,0.6,0.9,1.2,1.1,1.8H-647z"/>
	<path fill="#ffffff" d="M-640.1,243.9c-0.1-0.1-0.1-0.3-0.1-0.4c0-0.2,0-0.3-0.1-0.5c-0.2,0.3-0.6,0.5-1,0.7c-0.4,0.2-0.8,0.3-1.3,0.4
		c-0.6,0-1.2-0.1-1.6-0.3c-0.5-0.2-0.7-0.7-0.8-1.2c-0.1-0.6,0-1,0.3-1.3c0.3-0.3,0.7-0.5,1.1-0.7c0.4-0.1,0.8-0.2,1.2-0.2
		c0.4,0,0.8-0.1,1.2-0.1c0.2,0,0.4-0.1,0.6-0.1c0.2-0.1,0.3-0.2,0.3-0.5c0-0.3-0.1-0.5-0.4-0.8c-0.2-0.2-0.7-0.4-1.2-0.4
		c-0.6,0-1,0.1-1.3,0.3c-0.3,0.2-0.4,0.5-0.3,0.8h-1.1c-0.1-0.7,0.2-1.2,0.7-1.5c0.6-0.4,1.2-0.5,2-0.5c0.7,0,1.3,0.2,1.9,0.5
		c0.6,0.4,0.8,0.9,0.8,1.5v3.4c0,0.3,0,0.5,0.1,0.7c0.1,0.2,0.1,0.3,0.1,0.3H-640.1z M-640.3,240.7c-0.1,0.1-0.2,0.1-0.3,0.2
		c-0.1,0.1-0.2,0.1-0.4,0.1c-0.2,0.1-0.6,0.1-1,0.1c-0.4,0-0.7,0.1-0.9,0.1c-0.4,0.1-0.6,0.3-0.8,0.4c-0.2,0.2-0.3,0.4-0.2,0.7
		c0,0.3,0.2,0.5,0.5,0.7c0.3,0.1,0.6,0.2,0.9,0.1c0.7,0,1.3-0.3,1.6-0.6c0.4-0.4,0.6-0.7,0.6-1V240.7z"/>
	<path fill="#ffffff" d="M-634.6,238.7c-0.2,0-0.4,0-0.6,0c-0.2,0-0.3,0.1-0.5,0.1c-0.4,0.2-0.6,0.4-0.8,0.8c-0.2,0.3-0.3,0.8-0.3,1.4v2.9h-1.1
		v-6.1h1.1v0.9l0.1,0c0.1-0.2,0.3-0.4,0.5-0.6c0.2-0.1,0.4-0.3,0.6-0.4c0.2-0.1,0.4-0.1,0.6-0.1c0.2,0,0.3,0,0.3,0V238.7z"/>
	<path fill="#ffffff" d="M-630.5,238.7c-0.2,0-0.4,0-0.6,0c-0.2,0-0.3,0.1-0.5,0.1c-0.4,0.2-0.6,0.4-0.8,0.8c-0.2,0.3-0.3,0.8-0.3,1.4v2.9h-1.1
		v-6.1h1.1v0.9l0.1,0c0.1-0.2,0.3-0.4,0.5-0.6c0.2-0.1,0.4-0.3,0.6-0.4c0.2-0.1,0.4-0.1,0.6-0.1c0.2,0,0.3,0,0.3,0V238.7z"/>
	<path fill="#ffffff" d="M-629.6,236.4v-1.1h1.1v1.1H-629.6z M-629.6,243.9v-6.2h1.1v6.2H-629.6z"/>
	<path fill="#ffffff" d="M-626.4,241.2c0,0.6,0.2,1.1,0.6,1.5c0.4,0.4,0.8,0.6,1.4,0.6c0.5,0,0.9-0.1,1.2-0.3c0.3-0.2,0.4-0.4,0.5-0.6h1.2
		c-0.1,0.4-0.4,0.8-0.9,1.2c-0.4,0.4-1.1,0.6-1.9,0.6c-0.9,0-1.6-0.3-2.2-0.9c-0.6-0.6-0.9-1.4-0.9-2.3c0-0.9,0.3-1.7,0.8-2.3
		c0.6-0.6,1.3-0.9,2.2-0.9c0.8,0,1.6,0.3,2.2,0.8c0.6,0.6,0.9,1.5,0.9,2.7H-626.4z M-622.5,240.3c0-0.6-0.2-1-0.6-1.4
		c-0.3-0.3-0.8-0.5-1.4-0.5c-0.5,0-1,0.2-1.3,0.5c-0.3,0.3-0.6,0.8-0.6,1.4H-622.5z"/>
	<path fill="#ffffff" d="M-617.1,238.7c-0.2,0-0.4,0-0.6,0c-0.2,0-0.3,0.1-0.5,0.1c-0.4,0.2-0.6,0.4-0.8,0.8c-0.2,0.3-0.3,0.8-0.3,1.4v2.9h-1.1
		v-6.1h1.1v0.9l0.1,0c0.1-0.2,0.3-0.4,0.5-0.6c0.2-0.1,0.4-0.3,0.6-0.4c0.2-0.1,0.4-0.1,0.6-0.1c0.2,0,0.3,0,0.3,0V238.7z"/>
	<path fill="#ffffff" d="M-615.3,242.4c0.3-0.9,0.4-1.9,0.4-2.8c0-0.9-0.1-1.8-0.4-2.8c-0.3-0.9-0.7-2-1.4-3h0.9c0.4,0.6,0.9,1.4,1.4,2.4
		c0.5,1,0.7,2.1,0.7,3.4c0,1.3-0.2,2.5-0.7,3.4c-0.5,1-0.9,1.8-1.4,2.4h-0.9C-616,244.4-615.5,243.4-615.3,242.4z"/>
</g>
<g>
	<path fill="#ffffff" d="M-189.5,243.9l-2.5-3.6h-1.9v3.5h-1.1v-8.5h3.5c0.8,0,1.5,0.2,2.1,0.7c0.6,0.4,0.8,1,0.8,1.8c0,0.6-0.2,1.1-0.6,1.5
		c-0.4,0.4-0.9,0.7-1.5,0.9l2.5,3.7H-189.5z M-190.3,239c0.4-0.3,0.6-0.6,0.6-1.1c0-0.5-0.2-0.9-0.5-1.1c-0.3-0.2-0.7-0.3-1.1-0.3
		h-2.4v2.9h2.4C-191,239.4-190.6,239.2-190.3,239z"/>
	<path fill="#ffffff" d="M-181.7,240.5c0.3,0.4,0.4,0.9,0.3,1.4c-0.1,0.7-0.4,1.2-0.9,1.7c-0.5,0.5-1.3,0.7-2.4,0.7c-1.1,0-2-0.3-2.5-1
		c-0.5-0.7-0.8-1.4-0.9-2.1h1.2c0,0.7,0.3,1.2,0.7,1.6c0.4,0.4,0.9,0.6,1.6,0.6c0.6,0,1.1-0.1,1.5-0.4c0.3-0.3,0.5-0.6,0.6-1.1
		c0.1-0.3,0-0.6-0.2-0.8c-0.2-0.2-0.4-0.4-0.8-0.6c-0.4-0.2-0.8-0.3-1.2-0.3c-0.4,0-0.9-0.1-1.3-0.3c-0.6-0.2-1-0.5-1.3-0.8
		s-0.4-0.8-0.4-1.4c0-0.6,0.3-1.1,0.8-1.6c0.5-0.5,1.3-0.8,2.3-0.8c1.2,0,2,0.3,2.4,1c0.4,0.7,0.7,1.2,0.7,1.7l-1.2,0
		c0-0.5-0.2-0.9-0.5-1.2c-0.3-0.3-0.8-0.5-1.5-0.5c-0.6,0-1.1,0.2-1.4,0.5c-0.3,0.3-0.4,0.6-0.4,1c0,0.4,0.1,0.7,0.3,0.8
		c0.2,0.2,0.5,0.3,0.7,0.4c0.3,0.1,0.7,0.2,1.2,0.3c0.5,0.1,1,0.2,1.4,0.4C-182.3,239.7-181.9,240-181.7,240.5z"/>
	<path fill="#ffffff" d="M-178.6,245.5c-0.4-0.6-0.9-1.4-1.4-2.4c-0.5-1-0.7-2.1-0.7-3.4c0-1.3,0.2-2.5,0.7-3.4c0.5-1,0.9-1.8,1.4-2.4h0.9
		c-0.6,1.1-1.1,2.1-1.4,3c-0.3,0.9-0.4,1.9-0.4,2.8c0,0.9,0.1,1.8,0.4,2.8c0.3,0.9,0.7,2,1.4,3H-178.6z"/>
	<path fill="#ffffff" d="M-171.1,243.9l-2.5-3.6h-1.9v3.5h-1.1v-8.5h3.5c0.8,0,1.5,0.2,2.1,0.7c0.6,0.4,0.8,1,0.8,1.8c0,0.6-0.2,1.1-0.6,1.5
		c-0.4,0.4-0.9,0.7-1.5,0.9l2.5,3.7H-171.1z M-171.9,239c0.4-0.3,0.6-0.6,0.6-1.1c0-0.5-0.2-0.9-0.5-1.1c-0.3-0.2-0.7-0.3-1.1-0.3
		h-2.4v2.9h2.4C-172.7,239.4-172.3,239.2-171.9,239z"/>
	<path fill="#ffffff" d="M-168.5,241.2c0,0.6,0.2,1.1,0.6,1.5c0.4,0.4,0.8,0.6,1.4,0.6c0.5,0,0.9-0.1,1.2-0.3c0.3-0.2,0.4-0.4,0.5-0.6h1.2
		c-0.1,0.4-0.4,0.8-0.9,1.2c-0.4,0.4-1.1,0.6-1.9,0.6c-0.9,0-1.6-0.3-2.2-0.9c-0.6-0.6-0.9-1.4-0.9-2.3c0-0.9,0.3-1.7,0.8-2.3
		c0.6-0.6,1.3-0.9,2.2-0.9c0.8,0,1.6,0.3,2.2,0.8c0.6,0.6,0.9,1.5,0.9,2.7H-168.5z M-164.7,240.3c0-0.6-0.2-1-0.6-1.4
		c-0.3-0.3-0.8-0.5-1.4-0.5c-0.5,0-1,0.2-1.3,0.5c-0.3,0.3-0.6,0.8-0.6,1.4H-164.7z"/>
	<path fill="#ffffff" d="M-158.1,243.9c-0.1-0.1-0.1-0.3-0.1-0.4c0-0.2,0-0.3-0.1-0.5c-0.2,0.3-0.6,0.5-1,0.7c-0.4,0.2-0.8,0.3-1.3,0.4
		c-0.6,0-1.2-0.1-1.6-0.3c-0.5-0.2-0.7-0.7-0.8-1.2c-0.1-0.6,0-1,0.3-1.3c0.3-0.3,0.7-0.5,1.1-0.7c0.4-0.1,0.8-0.2,1.2-0.2
		c0.4,0,0.8-0.1,1.2-0.1c0.2,0,0.4-0.1,0.6-0.1c0.2-0.1,0.3-0.2,0.3-0.5c0-0.3-0.1-0.5-0.4-0.8c-0.2-0.2-0.7-0.4-1.2-0.4
		c-0.6,0-1,0.1-1.3,0.3c-0.3,0.2-0.4,0.5-0.3,0.8h-1.1c-0.1-0.7,0.2-1.2,0.7-1.5c0.6-0.4,1.2-0.5,2-0.5c0.7,0,1.3,0.2,1.9,0.5
		c0.6,0.4,0.8,0.9,0.8,1.5v3.4c0,0.3,0,0.5,0.1,0.7c0.1,0.2,0.1,0.3,0.1,0.3H-158.1z M-158.3,240.7c-0.1,0.1-0.2,0.1-0.3,0.2
		c-0.1,0.1-0.2,0.1-0.4,0.1c-0.2,0.1-0.6,0.1-1,0.1c-0.4,0-0.7,0.1-0.9,0.1c-0.4,0.1-0.6,0.3-0.8,0.4c-0.2,0.2-0.3,0.4-0.2,0.7
		c0,0.3,0.2,0.5,0.5,0.7c0.3,0.1,0.6,0.2,0.9,0.1c0.7,0,1.3-0.3,1.6-0.6c0.4-0.4,0.6-0.7,0.6-1V240.7z"/>
	<path fill="#ffffff" d="M-150.3,242c-0.1,0.6-0.5,1.1-0.9,1.5c-0.5,0.4-1.1,0.7-2,0.7c-1,0-1.7-0.3-2.3-0.9c-0.6-0.6-0.8-1.4-0.8-2.4
		c0-1,0.3-1.7,0.8-2.4c0.6-0.6,1.3-0.9,2.3-0.9c0.8,0,1.5,0.2,2,0.7c0.5,0.5,0.8,1,0.9,1.5h-1.2c-0.1-0.3-0.2-0.5-0.5-0.8
		c-0.3-0.3-0.7-0.4-1.2-0.4c-0.6,0-1.1,0.2-1.4,0.7c-0.3,0.4-0.5,1-0.5,1.7c0,0.7,0.2,1.3,0.5,1.7c0.3,0.4,0.8,0.7,1.4,0.7
		c0.5,0,0.8-0.1,1.1-0.4c0.3-0.2,0.5-0.5,0.6-0.8H-150.3z"/>
	<path fill="#ffffff" d="M-145.1,243.9v-3.7c0-0.6-0.1-1-0.4-1.2c-0.2-0.2-0.6-0.4-1.1-0.4c-0.5,0-0.9,0.2-1.3,0.5c-0.3,0.3-0.5,0.8-0.5,1.3v3.5
		h-1.1v-8.5h1.1v3c0.3-0.3,0.6-0.5,1-0.7c0.4-0.2,0.9-0.3,1.4-0.2c0.7,0.1,1.1,0.4,1.4,0.8c0.3,0.5,0.4,0.9,0.4,1.3v4.2H-145.1z"/>
	<path fill="#ffffff" d="M-132.4,240.5c0.3,0.4,0.4,0.9,0.3,1.4c-0.1,0.7-0.4,1.2-0.9,1.7c-0.5,0.5-1.3,0.7-2.4,0.7c-1.1,0-2-0.3-2.5-1
		c-0.5-0.7-0.8-1.4-0.9-2.1h1.2c0,0.7,0.3,1.2,0.7,1.6c0.4,0.4,0.9,0.6,1.6,0.6c0.6,0,1.1-0.1,1.5-0.4c0.3-0.3,0.5-0.6,0.6-1.1
		c0.1-0.3,0-0.6-0.2-0.8c-0.2-0.2-0.4-0.4-0.8-0.6c-0.4-0.2-0.8-0.3-1.2-0.3c-0.4,0-0.9-0.1-1.3-0.3c-0.6-0.2-1-0.5-1.3-0.8
		c-0.3-0.3-0.4-0.8-0.4-1.4c0-0.6,0.3-1.1,0.8-1.6c0.5-0.5,1.3-0.8,2.3-0.8c1.2,0,2,0.3,2.4,1c0.4,0.7,0.7,1.2,0.7,1.7l-1.2,0
		c0-0.5-0.2-0.9-0.5-1.2c-0.3-0.3-0.8-0.5-1.5-0.5c-0.6,0-1.1,0.2-1.4,0.5c-0.3,0.3-0.4,0.6-0.4,1c0,0.4,0.1,0.7,0.3,0.8
		c0.2,0.2,0.5,0.3,0.7,0.4c0.3,0.1,0.7,0.2,1.2,0.3c0.5,0.1,1,0.2,1.4,0.4C-133.1,239.7-132.7,240-132.4,240.5z"/>
	<path fill="#ffffff" d="M-129.8,243.9c-0.2,0-0.4-0.1-0.6-0.2c-0.2-0.1-0.3-0.2-0.4-0.4c-0.1-0.1-0.2-0.3-0.2-0.4c0-0.2-0.1-0.4-0.1-0.7v-3.5h-0.8
		v-0.9l0.8,0v-1.9h1.1v1.9l0.9,0v0.9h-0.9v3.4c0,0.1,0,0.3,0,0.4c0,0.1,0.1,0.2,0.2,0.3c0.1,0.1,0.2,0.1,0.4,0.2c0.1,0,0.3,0,0.4,0
		l0,0.9H-129.8z"/>
	<path fill="#ffffff" d="M-123.6,243.9c-0.1-0.1-0.1-0.3-0.1-0.4c0-0.2,0-0.3-0.1-0.5c-0.2,0.3-0.6,0.5-1,0.7c-0.4,0.2-0.8,0.3-1.3,0.4
		c-0.6,0-1.2-0.1-1.6-0.3c-0.5-0.2-0.7-0.7-0.8-1.2c-0.1-0.6,0-1,0.3-1.3c0.3-0.3,0.7-0.5,1.1-0.7c0.4-0.1,0.8-0.2,1.2-0.2
		c0.4,0,0.8-0.1,1.2-0.1c0.2,0,0.4-0.1,0.6-0.1c0.2-0.1,0.3-0.2,0.3-0.5c0-0.3-0.1-0.5-0.4-0.8c-0.2-0.2-0.7-0.4-1.2-0.4
		c-0.6,0-1,0.1-1.3,0.3c-0.3,0.2-0.4,0.5-0.3,0.8h-1.1c-0.1-0.7,0.2-1.2,0.7-1.5c0.6-0.4,1.2-0.5,2-0.5c0.7,0,1.3,0.2,1.9,0.5
		c0.6,0.4,0.8,0.9,0.8,1.5v3.4c0,0.3,0,0.5,0.1,0.7c0.1,0.2,0.1,0.3,0.1,0.3H-123.6z M-123.8,240.7c-0.1,0.1-0.2,0.1-0.3,0.2
		c-0.1,0.1-0.2,0.1-0.4,0.1c-0.2,0.1-0.6,0.1-1,0.1c-0.4,0-0.7,0.1-0.9,0.1c-0.4,0.1-0.6,0.3-0.8,0.4c-0.2,0.2-0.3,0.4-0.2,0.7
		c0,0.3,0.2,0.5,0.5,0.7c0.3,0.1,0.6,0.2,0.9,0.1c0.7,0,1.3-0.3,1.6-0.6c0.4-0.4,0.6-0.7,0.6-1V240.7z"/>
	<path fill="#ffffff" d="M-115.8,242c-0.1,0.6-0.5,1.1-0.9,1.5c-0.5,0.4-1.1,0.7-2,0.7c-1,0-1.7-0.3-2.3-0.9c-0.6-0.6-0.8-1.4-0.8-2.4
		c0-1,0.3-1.7,0.8-2.4c0.6-0.6,1.3-0.9,2.3-0.9c0.8,0,1.5,0.2,2,0.7c0.5,0.5,0.8,1,0.9,1.5h-1.2c-0.1-0.3-0.2-0.5-0.5-0.8
		c-0.3-0.3-0.7-0.4-1.2-0.4c-0.6,0-1.1,0.2-1.4,0.7c-0.3,0.4-0.5,1-0.5,1.7c0,0.7,0.2,1.3,0.5,1.7c0.3,0.4,0.8,0.7,1.4,0.7
		c0.5,0,0.8-0.1,1.1-0.4c0.3-0.2,0.5-0.5,0.6-0.8H-115.8z"/>
	<path fill="#ffffff" d="M-110.3,243.9l-2.6-3.1l-0.9,0.7v2.4h-1.1v-8.5h1.1v4.9l2.8-2.6h1.4l-2.6,2.5l3.2,3.7H-110.3z"/>
	<path fill="#ffffff" d="M-108.3,241.2c0,0.6,0.2,1.1,0.6,1.5c0.4,0.4,0.8,0.6,1.4,0.6c0.5,0,0.9-0.1,1.2-0.3c0.3-0.2,0.4-0.4,0.5-0.6h1.2
		c-0.1,0.4-0.4,0.8-0.9,1.2c-0.4,0.4-1.1,0.6-1.9,0.6c-0.9,0-1.6-0.3-2.2-0.9c-0.6-0.6-0.9-1.4-0.9-2.3c0-0.9,0.3-1.7,0.8-2.3
		c0.6-0.6,1.3-0.9,2.2-0.9c0.8,0,1.6,0.3,2.2,0.8c0.6,0.6,0.9,1.5,0.9,2.7H-108.3z M-104.4,240.3c0-0.6-0.2-1-0.6-1.4
		c-0.3-0.3-0.8-0.5-1.4-0.5c-0.5,0-1,0.2-1.3,0.5c-0.3,0.3-0.6,0.8-0.6,1.4H-104.4z"/>
	<path fill="#ffffff" d="M-99.1,238.7c-0.2,0-0.4,0-0.6,0c-0.2,0-0.3,0.1-0.5,0.1c-0.4,0.2-0.6,0.4-0.8,0.8c-0.2,0.3-0.3,0.8-0.3,1.4v2.9h-1.1v-6.1
		h1.1v0.9l0.1,0c0.1-0.2,0.3-0.4,0.5-0.6c0.2-0.1,0.4-0.3,0.6-0.4c0.2-0.1,0.4-0.1,0.6-0.1c0.2,0,0.3,0,0.3,0V238.7z"/>
	<path fill="#ffffff" d="M-97.2,242.4c0.3-0.9,0.4-1.9,0.4-2.8c0-0.9-0.1-1.8-0.4-2.8c-0.3-0.9-0.7-2-1.4-3h0.9c0.4,0.6,0.9,1.4,1.4,2.4
		c0.5,1,0.7,2.1,0.7,3.4c0,1.3-0.2,2.5-0.7,3.4c-0.5,1-0.9,1.8-1.4,2.4h-0.9C-97.9,244.4-97.5,243.4-97.2,242.4z"/>
</g>
<g>
	<path fill="#ffffff" d="M-350.8,236.4v7.5h-1.1v-7.5h-2.8v-1h6.8v1H-350.8z"/>
	<path fill="#ffffff" d="M-347.2,243.9v-8.5h1.1v7.5h4.5v1H-347.2z"/>
	<path fill="#ffffff" d="M-339,245.5c-0.4-0.6-0.9-1.4-1.4-2.4c-0.5-1-0.7-2.1-0.7-3.4c0-1.3,0.2-2.5,0.7-3.4c0.5-1,0.9-1.8,1.4-2.4h0.9
		c-0.6,1.1-1.1,2.1-1.4,3c-0.3,0.9-0.4,1.9-0.4,2.8c0,0.9,0.1,1.8,0.4,2.8c0.3,0.9,0.7,2,1.4,3H-339z"/>
	<path fill="#ffffff" d="M-333.7,236.4v7.5h-1.1v-7.5h-2.8v-1h6.8v1H-333.7z"/>
	<path fill="#ffffff" d="M-326.6,238.5c0.6,0.6,0.8,1.4,0.8,2.4c0,1-0.3,1.7-0.8,2.4c-0.6,0.6-1.3,0.9-2.3,0.9c-1,0-1.7-0.3-2.3-0.9
		c-0.6-0.6-0.8-1.4-0.8-2.4c0-1,0.3-1.7,0.8-2.4c0.6-0.6,1.3-0.9,2.3-0.9C-327.9,237.5-327.1,237.8-326.6,238.5z M-327.4,242.6
		c0.4-0.4,0.6-1,0.6-1.8c0-0.7-0.2-1.3-0.6-1.7c-0.4-0.4-0.8-0.7-1.4-0.7c-0.6,0-1.1,0.2-1.5,0.7c-0.4,0.4-0.5,1-0.5,1.7
		c0,0.7,0.2,1.3,0.5,1.8c0.4,0.4,0.8,0.7,1.5,0.7C-328.3,243.3-327.8,243-327.4,242.6z"/>
	<path fill="#ffffff" d="M-319.5,238.4c0.6,0.6,0.8,1.4,0.8,2.4c0,1-0.3,1.8-0.8,2.4c-0.6,0.6-1.3,0.9-2.1,0.9c-0.4,0-0.8-0.1-1.1-0.2
		c-0.4-0.2-0.7-0.4-1-0.7v2.4h-1.1v-7.9h1.1v0.6c0.3-0.3,0.6-0.5,1-0.6c0.4-0.2,0.7-0.2,1.1-0.2C-320.7,237.5-320,237.8-319.5,238.4
		z M-320.3,242.6c0.4-0.4,0.5-1,0.5-1.8c0-0.8-0.2-1.3-0.5-1.7c-0.4-0.4-0.8-0.6-1.5-0.6c-0.6,0-1.1,0.2-1.5,0.6
		c-0.3,0.4-0.5,1-0.5,1.7c0,0.8,0.2,1.3,0.5,1.8c0.3,0.4,0.8,0.6,1.5,0.6C-321.2,243.2-320.7,243-320.3,242.6z"/>
	<path fill="#ffffff" d="M-313.4,243.9v-8.5h1.1v7.5h4.5v1H-313.4z"/>
	<path fill="#ffffff" d="M-307,236.4v-1.1h1.1v1.1H-307z M-307,243.9v-6.2h1.1v6.2H-307z"/>
	<path fill="#ffffff" d="M-303.2,238.7v5.2h-1.1v-5.2l-0.8,0v-0.9l0.8,0v-0.7c0-0.3,0-0.6,0.1-0.7c0-0.2,0.1-0.3,0.2-0.5c0.1-0.1,0.2-0.3,0.4-0.4
		c0.2-0.1,0.4-0.1,0.6-0.1h0.8v0.9c-0.1,0-0.2,0-0.3,0c-0.1,0-0.3,0-0.4,0.1c-0.1,0.1-0.2,0.2-0.2,0.3c0,0.1,0,0.3,0,0.4v0.6l0.9,0
		v0.9H-303.2z"/>
	<path fill="#ffffff" d="M-299.7,243.9c-0.2,0-0.4-0.1-0.6-0.2c-0.2-0.1-0.3-0.2-0.4-0.4c-0.1-0.1-0.2-0.3-0.2-0.4c0-0.2-0.1-0.4-0.1-0.7v-3.5h-0.8
		v-0.9l0.8,0v-1.9h1.1v1.9l0.9,0v0.9h-0.9v3.4c0,0.1,0,0.3,0,0.4c0,0.1,0.1,0.2,0.2,0.3c0.1,0.1,0.2,0.1,0.4,0.2c0.1,0,0.3,0,0.4,0
		l0,0.9H-299.7z"/>
	<path fill="#ffffff" d="M-297.3,241.2c0,0.6,0.2,1.1,0.6,1.5c0.4,0.4,0.8,0.6,1.4,0.6c0.5,0,0.9-0.1,1.2-0.3c0.3-0.2,0.4-0.4,0.5-0.6h1.2
		c-0.1,0.4-0.4,0.8-0.9,1.2c-0.4,0.4-1.1,0.6-1.9,0.6c-0.9,0-1.6-0.3-2.2-0.9c-0.6-0.6-0.9-1.4-0.9-2.3c0-0.9,0.3-1.7,0.8-2.3
		c0.6-0.6,1.3-0.9,2.2-0.9c0.8,0,1.6,0.3,2.2,0.8c0.6,0.6,0.9,1.5,0.9,2.7H-297.3z M-293.4,240.3c0-0.6-0.2-1-0.6-1.4
		c-0.3-0.3-0.8-0.5-1.4-0.5c-0.5,0-1,0.2-1.3,0.5c-0.3,0.3-0.6,0.8-0.6,1.4H-293.4z"/>
	<path fill="#ffffff" d="M-288,238.7c-0.2,0-0.4,0-0.6,0c-0.2,0-0.3,0.1-0.5,0.1c-0.4,0.2-0.6,0.4-0.8,0.8c-0.2,0.3-0.3,0.8-0.3,1.4v2.9h-1.1v-6.1
		h1.1v0.9l0.1,0c0.1-0.2,0.3-0.4,0.5-0.6c0.2-0.1,0.4-0.3,0.6-0.4c0.2-0.1,0.4-0.1,0.6-0.1c0.2,0,0.3,0,0.3,0V238.7z"/>
	<path fill="#ffffff" d="M-286.2,242.4c0.3-0.9,0.4-1.9,0.4-2.8c0-0.9-0.1-1.8-0.4-2.8c-0.3-0.9-0.7-2-1.4-3h0.9c0.4,0.6,0.9,1.4,1.4,2.4
		c0.5,1,0.7,2.1,0.7,3.4c0,1.3-0.2,2.5-0.7,3.4c-0.5,1-0.9,1.8-1.4,2.4h-0.9C-286.9,244.4-286.4,243.4-286.2,242.4z"/>
</g>
<g>
	<path fill="#ffffff" d="M-529.1,236.4v2.7l4.2,0v1h-4.2v3.7h-1.1v-8.5h5.9v1H-529.1z"/>
	<path fill="#ffffff" d="M-523.4,243.9v-8.5h1.1v7.5h4.5v1H-523.4z"/>
	<path fill="#ffffff" d="M-515.3,245.5c-0.4-0.6-0.9-1.4-1.4-2.4c-0.5-1-0.7-2.1-0.7-3.4c0-1.3,0.2-2.5,0.7-3.4c0.5-1,0.9-1.8,1.4-2.4h0.9
		c-0.6,1.1-1.1,2.1-1.4,3c-0.3,0.9-0.4,1.9-0.4,2.8c0,0.9,0.1,1.8,0.4,2.8c0.3,0.9,0.7,2,1.4,3H-515.3z"/>
	<path fill="#ffffff" d="M-512.1,236.4v2.7l4.2,0v1h-4.2v3.7h-1.1v-8.5h5.9v1H-512.1z"/>
	<path fill="#ffffff" d="M-501.9,238.5c0.6,0.6,0.8,1.4,0.8,2.4c0,1-0.3,1.7-0.8,2.4c-0.6,0.6-1.3,0.9-2.3,0.9c-1,0-1.7-0.3-2.3-0.9
		c-0.6-0.6-0.8-1.4-0.8-2.4c0-1,0.3-1.7,0.8-2.4c0.6-0.6,1.3-0.9,2.3-0.9C-503.2,237.5-502.5,237.8-501.9,238.5z M-502.8,242.6
		c0.4-0.4,0.6-1,0.6-1.8c0-0.7-0.2-1.3-0.6-1.7c-0.4-0.4-0.8-0.7-1.4-0.7c-0.6,0-1.1,0.2-1.5,0.7c-0.4,0.4-0.5,1-0.5,1.7
		c0,0.7,0.2,1.3,0.5,1.8c0.4,0.4,0.8,0.7,1.5,0.7C-503.6,243.3-503.2,243-502.8,242.6z"/>
	<path fill="#ffffff" d="M-496.9,238.7c-0.2,0-0.4,0-0.6,0c-0.2,0-0.3,0.1-0.5,0.1c-0.4,0.2-0.6,0.4-0.8,0.8c-0.2,0.3-0.3,0.8-0.3,1.4v2.9h-1.1
		v-6.1h1.1v0.9l0.1,0c0.1-0.2,0.3-0.4,0.5-0.6c0.2-0.1,0.4-0.3,0.6-0.4c0.2-0.1,0.4-0.1,0.6-0.1c0.2,0,0.3,0,0.3,0V238.7z"/>
	<path fill="#ffffff" d="M-491.4,243.9l-2.6-3.1l-0.9,0.7v2.4h-1.1v-8.5h1.1v4.9l2.8-2.6h1.4l-2.6,2.5l3.2,3.7H-491.4z"/>
	<path fill="#ffffff" d="M-485.3,243.9v-8.5h1.1v7.5h4.5v1H-485.3z"/>
	<path fill="#ffffff" d="M-478.9,236.4v-1.1h1.1v1.1H-478.9z M-478.9,243.9v-6.2h1.1v6.2H-478.9z"/>
	<path fill="#ffffff" d="M-475.1,238.7v5.2h-1.1v-5.2l-0.8,0v-0.9l0.8,0v-0.7c0-0.3,0-0.6,0.1-0.7c0-0.2,0.1-0.3,0.2-0.5c0.1-0.1,0.2-0.3,0.4-0.4
		c0.2-0.1,0.4-0.1,0.6-0.1h0.8v0.9c-0.1,0-0.2,0-0.3,0c-0.1,0-0.3,0-0.4,0.1c-0.1,0.1-0.2,0.2-0.2,0.3c0,0.1,0,0.3,0,0.4v0.6l0.9,0
		v0.9H-475.1z"/>
	<path fill="#ffffff" d="M-471.5,243.9c-0.2,0-0.4-0.1-0.6-0.2c-0.2-0.1-0.3-0.2-0.4-0.4c-0.1-0.1-0.2-0.3-0.2-0.4c0-0.2-0.1-0.4-0.1-0.7v-3.5h-0.8
		v-0.9l0.8,0v-1.9h1.1v1.9l0.9,0v0.9h-0.9v3.4c0,0.1,0,0.3,0,0.4c0,0.1,0.1,0.2,0.2,0.3c0.1,0.1,0.2,0.1,0.4,0.2c0.1,0,0.3,0,0.4,0
		l0,0.9H-471.5z"/>
	<path fill="#ffffff" d="M-469.1,241.2c0,0.6,0.2,1.1,0.6,1.5c0.4,0.4,0.8,0.6,1.4,0.6c0.5,0,0.9-0.1,1.2-0.3c0.3-0.2,0.4-0.4,0.5-0.6h1.2
		c-0.1,0.4-0.4,0.8-0.9,1.2c-0.4,0.4-1.1,0.6-1.9,0.6c-0.9,0-1.6-0.3-2.2-0.9c-0.6-0.6-0.9-1.4-0.9-2.3c0-0.9,0.3-1.7,0.8-2.3
		c0.6-0.6,1.3-0.9,2.2-0.9c0.8,0,1.6,0.3,2.2,0.8c0.6,0.6,0.9,1.5,0.9,2.7H-469.1z M-465.2,240.3c0-0.6-0.2-1-0.6-1.4
		c-0.3-0.3-0.8-0.5-1.4-0.5c-0.5,0-1,0.2-1.3,0.5c-0.3,0.3-0.6,0.8-0.6,1.4H-465.2z"/>
	<path fill="#ffffff" d="M-459.9,238.7c-0.2,0-0.4,0-0.6,0c-0.2,0-0.3,0.1-0.5,0.1c-0.4,0.2-0.6,0.4-0.8,0.8c-0.2,0.3-0.3,0.8-0.3,1.4v2.9h-1.1
		v-6.1h1.1v0.9l0.1,0c0.1-0.2,0.3-0.4,0.5-0.6c0.2-0.1,0.4-0.3,0.6-0.4c0.2-0.1,0.4-0.1,0.6-0.1c0.2,0,0.3,0,0.3,0V238.7z"/>
	<path fill="#ffffff" d="M-458,242.4c0.3-0.9,0.4-1.9,0.4-2.8c0-0.9-0.1-1.8-0.4-2.8c-0.3-0.9-0.7-2-1.4-3h0.9c0.4,0.6,0.9,1.4,1.4,2.4
		c0.5,1,0.7,2.1,0.7,3.4c0,1.3-0.2,2.5-0.7,3.4c-0.5,1-0.9,1.8-1.4,2.4h-0.9C-458.7,244.4-458.3,243.4-458,242.4z"/>
</g>
<g>
	<path fill="#ffffff" d="M-699.2,392.7v3.7h-1.2v-3.7h-4.7v-1h10.6v1H-699.2z M-703.7,390.5v-4.2h7.7v4.2H-703.7z M-697.2,387.3h-5.3v2.1h5.3V387.3
		z"/>
	<path fill="#ffffff" d="M-688.5,390.8c-0.5,0.5-1.3,0.8-2.1,0.8c-0.8,0-1.5-0.3-2.1-0.8c-0.5-0.5-0.8-1.2-0.8-1.9c0-0.7,0.3-1.4,0.8-1.9
		c0.5-0.5,1.2-0.8,2.1-0.8c0.9,0,1.6,0.3,2.1,0.8c0.5,0.5,0.8,1.2,0.8,1.9C-687.7,389.6-688,390.3-688.5,390.8z M-689.4,387.7
		c-0.3-0.3-0.7-0.5-1.3-0.5c-0.5,0-1,0.2-1.2,0.5c-0.3,0.3-0.4,0.7-0.4,1.2c0,0.4,0.1,0.8,0.4,1.2c0.3,0.3,0.7,0.5,1.2,0.5
		c0.5,0,1-0.2,1.3-0.5c0.3-0.3,0.4-0.7,0.4-1.2C-688.9,388.4-689.1,388-689.4,387.7z M-691.9,396.2v-3.3h1.2v2.3h6.6v1H-691.9z
		 M-685.5,393.5v-7.6h1.2v7.6H-685.5z"/>
	<path fill="#ffffff" d="M-683,394.9v-1h10.6v1H-683z M-681.6,392.5v-5.6h7.8v1h-6.6v1.3h6.5v1h-6.5v1.3h6.6v1H-681.6z"/>
	<path fill="#ffffff" d="M-666.6,391.9c-0.7,0.1-1.4,0.1-2.1,0.1l-2.5,0v-3.3h3.9v-1.4h-3.9v-1h5.1v3.3h-3.9v1.3l1.7,0c0.5,0,1.1,0,1.8-0.1
		c0.7,0,1.2-0.1,1.5-0.1v1C-665.3,391.8-665.8,391.9-666.6,391.9z M-663.6,396.4V394h-6.6v-1h7.8v3.4H-663.6z M-663.6,392.4v-3h-1.9
		v-1h1.9v-2.5h1.2v6.6H-663.6z"/>
	<path fill="#ffffff" d="M-658.6,396.9c-0.4-0.6-0.9-1.4-1.4-2.4c-0.5-1-0.7-2.1-0.7-3.4c0-1.3,0.2-2.5,0.7-3.4c0.5-1,0.9-1.8,1.4-2.4h0.9
		c-0.6,1.1-1.1,2.1-1.4,3c-0.3,0.9-0.4,1.9-0.4,2.8c0,0.9,0.1,1.8,0.4,2.8c0.3,0.9,0.7,2,1.4,3H-658.6z"/>
	<path fill="#ffffff" d="M-650.3,395.4l-0.9-2.1h-4.3l-0.9,2.1h-1.2l3.5-8.5h1.3l3.5,8.5H-650.3z M-653.3,388l-1.7,4.2h3.4L-653.3,388z"/>
	<path fill="#ffffff" d="M-642.9,395.4l0-1.1c-0.2,0.3-0.6,0.6-1.1,0.9c-0.5,0.3-1,0.4-1.6,0.4c-1.2,0-2.2-0.4-2.9-1.2c-0.7-0.8-1-1.9-1-3.3
		c0-1.3,0.3-2.4,1-3.2c0.7-0.8,1.7-1.2,2.9-1.2c1.1,0,2,0.3,2.6,0.9c0.6,0.6,0.9,1.2,1.1,1.8l-1.2,0c-0.1-0.4-0.4-0.8-0.8-1.1
		c-0.4-0.4-0.9-0.6-1.7-0.6c-0.9,0-1.6,0.3-2,0.9c-0.5,0.6-0.7,1.5-0.7,2.5c0,1,0.2,1.9,0.7,2.5c0.5,0.7,1.1,1,2,1
		c0.8,0,1.4-0.3,1.9-0.8c0.5-0.5,0.7-1.1,0.8-1.8l-2.5,0v-0.9h3.6v4.3H-642.9z"/>
	<path fill="#ffffff" d="M-636.7,395.4h-1.3l-3.4-8.5h1.2l2.9,7.2l2.9-7.2h1.1L-636.7,395.4z"/>
	<path fill="#ffffff" d="M-631.6,393.9c0.3-0.9,0.4-1.9,0.4-2.8c0-0.9-0.1-1.8-0.4-2.8c-0.3-0.9-0.7-2-1.4-3h0.9c0.4,0.6,0.9,1.4,1.4,2.4
		c0.5,1,0.7,2.1,0.7,3.4c0,1.3-0.2,2.5-0.7,3.4c-0.5,1-0.9,1.8-1.4,2.4h-0.9C-632.3,395.9-631.9,394.8-631.6,393.9z"/>
</g>
<g>
	<path fill="#ffffff" d="M-198.9,394.9v-1h10.6v1H-198.9z M-197.5,392.5v-5.6h7.8v1h-6.6v1.3h6.5v1h-6.5v1.3h6.6v1H-197.5z"/>
	<path fill="#ffffff" d="M-181.4,391.3c-0.8,0.1-1.5,0.1-2.1,0.1v1.6h-1.2v-1.6h-2.8v-1h3.7c0.6,0,1.4,0,2.3-0.1c1-0.1,1.6-0.2,1.8-0.2v1
		C-180,391.1-180.6,391.2-181.4,391.3z M-181.7,386.3c0.5,0.4,0.7,0.8,0.7,1.4c0,0.5-0.2,1-0.7,1.4c-0.5,0.4-1.2,0.6-2.1,0.6
		c-0.9,0-1.6-0.2-2.1-0.6c-0.5-0.4-0.7-0.8-0.7-1.4c0-0.5,0.2-1,0.7-1.3c0.5-0.4,1.2-0.6,2.1-0.6
		C-182.8,385.7-182.1,385.9-181.7,386.3z M-185.7,396.2v-2.7h1.2v1.7h6.8v1H-185.7z M-185,387c-0.3,0.2-0.4,0.4-0.4,0.6
		c0,0.2,0.1,0.4,0.4,0.6c0.3,0.2,0.7,0.3,1.3,0.3c0.6,0,1-0.1,1.3-0.3c0.3-0.2,0.4-0.4,0.4-0.6c0-0.2-0.1-0.4-0.4-0.6
		c-0.3-0.2-0.7-0.3-1.3-0.3C-184.4,386.7-184.8,386.8-185,387z M-179.2,393.9v-8.1h1.2v8.1H-179.2z"/>
	<path fill="#ffffff" d="M-174.5,396.9c-0.4-0.6-0.9-1.4-1.4-2.4c-0.5-1-0.7-2.1-0.7-3.4c0-1.3,0.2-2.5,0.7-3.4c0.5-1,0.9-1.8,1.4-2.4h0.9
		c-0.6,1.1-1.1,2.1-1.4,3c-0.3,0.9-0.4,1.9-0.4,2.8c0,0.9,0.1,1.8,0.4,2.8c0.3,0.9,0.7,2,1.4,3H-174.5z"/>
	<path fill="#ffffff" d="M-169.3,387.9v7.5h-1.1v-7.5h-2.8v-1h6.8v1H-169.3z"/>
	<path fill="#ffffff" d="M-160.3,395.4h-1.2l-1.2-4.3h-0.1l-1.2,4.3h-1.2l-1.8-6.2h1.1l1.3,4.6h0.1l1.2-4.6h1.2l1.2,4.6h0.1l1.3-4.6h1.1
		L-160.3,395.4z"/>
	<path fill="#ffffff" d="M-157.7,387.9v-1.1h1.1v1.1H-157.7z M-157.7,395.4v-6.2h1.1v6.2H-157.7z"/>
	<path fill="#ffffff" d="M-150.8,395.4v-3.7c0-0.6-0.1-1-0.4-1.2c-0.2-0.2-0.6-0.4-1.1-0.4c-0.5,0-0.9,0.2-1.3,0.5c-0.3,0.3-0.5,0.8-0.5,1.3v3.5
		h-1.1v-6.2h1.1v0.7c0.3-0.3,0.6-0.5,1-0.7c0.4-0.2,0.9-0.3,1.4-0.2c0.7,0.1,1.1,0.4,1.4,0.8c0.3,0.5,0.4,0.9,0.4,1.3v4.2H-150.8z"
		/>
	<path fill="#ffffff" d="M-138.2,391.9c0.3,0.4,0.4,0.9,0.3,1.4c-0.1,0.7-0.4,1.2-0.9,1.7c-0.5,0.5-1.3,0.7-2.4,0.7c-1.1,0-2-0.3-2.5-1
		c-0.5-0.7-0.8-1.4-0.9-2.1h1.2c0,0.7,0.3,1.2,0.7,1.6c0.4,0.4,0.9,0.6,1.6,0.6c0.6,0,1.1-0.1,1.5-0.4c0.3-0.3,0.5-0.6,0.6-1.1
		c0.1-0.3,0-0.6-0.2-0.8c-0.2-0.2-0.4-0.4-0.8-0.6c-0.4-0.2-0.8-0.3-1.2-0.3c-0.4,0-0.9-0.1-1.3-0.3c-0.6-0.2-1-0.5-1.3-0.8
		c-0.3-0.3-0.4-0.8-0.4-1.4c0-0.6,0.3-1.1,0.8-1.6c0.5-0.5,1.3-0.8,2.3-0.8c1.2,0,2,0.3,2.4,1c0.4,0.7,0.7,1.2,0.7,1.7l-1.2,0
		c0-0.5-0.2-0.9-0.5-1.2c-0.3-0.3-0.8-0.5-1.5-0.5c-0.6,0-1.1,0.2-1.4,0.5c-0.3,0.3-0.4,0.6-0.4,1c0,0.4,0.1,0.7,0.3,0.8
		c0.2,0.2,0.5,0.3,0.7,0.4c0.3,0.1,0.7,0.2,1.2,0.3c0.5,0.1,1,0.2,1.4,0.4C-138.8,391.2-138.4,391.5-138.2,391.9z"/>
	<path fill="#ffffff" d="M-131.6,389.9c0.6,0.6,0.8,1.4,0.8,2.4c0,1-0.3,1.8-0.8,2.4c-0.6,0.6-1.3,0.9-2.1,0.9c-0.4,0-0.8-0.1-1.1-0.2
		c-0.4-0.2-0.7-0.4-1-0.7v2.4h-1.1v-7.9h1.1v0.6c0.3-0.3,0.6-0.5,1-0.6c0.4-0.2,0.7-0.2,1.1-0.2C-132.8,389-132.1,389.3-131.6,389.9
		z M-132.4,394c0.4-0.4,0.5-1,0.5-1.8c0-0.8-0.2-1.3-0.5-1.7c-0.4-0.4-0.8-0.6-1.5-0.6c-0.6,0-1.1,0.2-1.5,0.6
		c-0.3,0.4-0.5,1-0.5,1.7c0,0.8,0.2,1.3,0.5,1.8c0.3,0.4,0.8,0.6,1.5,0.6C-133.3,394.7-132.8,394.5-132.4,394z"/>
	<path fill="#ffffff" d="M-126.5,390.1c-0.2,0-0.4,0-0.6,0c-0.2,0-0.3,0.1-0.5,0.1c-0.4,0.2-0.6,0.4-0.8,0.8c-0.2,0.3-0.3,0.8-0.3,1.4v2.9h-1.1
		v-6.1h1.1v0.9l0.1,0c0.1-0.2,0.3-0.4,0.5-0.6c0.2-0.1,0.4-0.3,0.6-0.4c0.2-0.1,0.4-0.1,0.6-0.1c0.2,0,0.3,0,0.3,0V390.1z"/>
	<path fill="#ffffff" d="M-125.4,392.6c0,0.6,0.2,1.1,0.6,1.5c0.4,0.4,0.8,0.6,1.4,0.6c0.5,0,0.9-0.1,1.2-0.3c0.3-0.2,0.4-0.4,0.5-0.6h1.2
		c-0.1,0.4-0.4,0.8-0.9,1.2c-0.4,0.4-1.1,0.6-1.9,0.6c-0.9,0-1.6-0.3-2.2-0.9c-0.6-0.6-0.9-1.4-0.9-2.3c0-0.9,0.3-1.7,0.8-2.3
		c0.6-0.6,1.3-0.9,2.2-0.9c0.8,0,1.6,0.3,2.2,0.8c0.6,0.6,0.9,1.5,0.9,2.7H-125.4z M-121.5,391.8c0-0.6-0.2-1-0.6-1.4
		c-0.3-0.3-0.8-0.5-1.4-0.5c-0.5,0-1,0.2-1.3,0.5c-0.3,0.3-0.6,0.8-0.6,1.4H-121.5z"/>
	<path fill="#ffffff" d="M-115,395.4c-0.1-0.1-0.1-0.3-0.1-0.4c0-0.2,0-0.3-0.1-0.5c-0.2,0.3-0.6,0.5-1,0.7c-0.4,0.2-0.8,0.3-1.3,0.4
		c-0.6,0-1.2-0.1-1.6-0.3c-0.5-0.2-0.7-0.7-0.8-1.2c-0.1-0.6,0-1,0.3-1.3s0.7-0.5,1.1-0.7c0.4-0.1,0.8-0.2,1.2-0.2
		c0.4,0,0.8-0.1,1.2-0.1c0.2,0,0.4-0.1,0.6-0.1c0.2-0.1,0.3-0.2,0.3-0.5c0-0.3-0.1-0.5-0.4-0.8c-0.2-0.2-0.7-0.4-1.2-0.4
		c-0.6,0-1,0.1-1.3,0.3c-0.3,0.2-0.4,0.5-0.3,0.8h-1.1c-0.1-0.7,0.2-1.2,0.7-1.5c0.6-0.4,1.2-0.5,2-0.5c0.7,0,1.3,0.2,1.9,0.5
		c0.6,0.4,0.8,0.9,0.8,1.5v3.4c0,0.3,0,0.5,0.1,0.7c0.1,0.2,0.1,0.3,0.1,0.3H-115z M-115.2,392.2c-0.1,0.1-0.2,0.1-0.3,0.2
		c-0.1,0.1-0.2,0.1-0.4,0.1c-0.2,0.1-0.6,0.1-1,0.1c-0.4,0-0.7,0.1-0.9,0.1c-0.4,0.1-0.6,0.3-0.8,0.4c-0.2,0.2-0.3,0.4-0.2,0.7
		c0,0.3,0.2,0.5,0.5,0.7c0.3,0.1,0.6,0.2,0.9,0.1c0.7,0,1.3-0.3,1.6-0.6c0.4-0.4,0.6-0.7,0.6-1V392.2z"/>
	<path fill="#ffffff" d="M-108.1,395.4v-0.7c-0.3,0.3-0.6,0.5-0.9,0.7c-0.4,0.2-0.7,0.2-1.1,0.2c-0.9,0-1.6-0.3-2.2-0.9c-0.5-0.6-0.8-1.4-0.8-2.4
		c0-1,0.3-1.8,0.8-2.4c0.5-0.6,1.3-0.9,2.2-0.9c0.4,0,0.8,0.1,1.1,0.2c0.4,0.2,0.7,0.4,0.9,0.7v-3h1.1v8.5H-108.1z M-108.6,394
		c0.3-0.4,0.5-1,0.5-1.7c0-0.7-0.2-1.3-0.5-1.7c-0.3-0.4-0.8-0.6-1.4-0.6c-0.6,0-1.1,0.2-1.4,0.6c-0.3,0.4-0.5,1-0.5,1.6
		c0,0.7,0.2,1.2,0.5,1.7c0.3,0.4,0.8,0.6,1.4,0.6C-109.4,394.6-108.9,394.4-108.6,394z"/>
	<path fill="#ffffff" d="M-104.8,392.6c0,0.6,0.2,1.1,0.6,1.5c0.4,0.4,0.8,0.6,1.4,0.6c0.5,0,0.9-0.1,1.2-0.3c0.3-0.2,0.4-0.4,0.5-0.6h1.2
		c-0.1,0.4-0.4,0.8-0.9,1.2c-0.4,0.4-1.1,0.6-1.9,0.6c-0.9,0-1.6-0.3-2.2-0.9c-0.6-0.6-0.9-1.4-0.9-2.3c0-0.9,0.3-1.7,0.8-2.3
		c0.6-0.6,1.3-0.9,2.2-0.9c0.8,0,1.6,0.3,2.2,0.8c0.6,0.6,0.9,1.5,0.9,2.7H-104.8z M-101,391.8c0-0.6-0.2-1-0.6-1.4
		c-0.3-0.3-0.8-0.5-1.4-0.5c-0.5,0-1,0.2-1.3,0.5c-0.3,0.3-0.6,0.8-0.6,1.4H-101z"/>
	<path fill="#ffffff" d="M-95.6,390.1c-0.2,0-0.4,0-0.6,0c-0.2,0-0.3,0.1-0.5,0.1c-0.4,0.2-0.6,0.4-0.8,0.8c-0.2,0.3-0.3,0.8-0.3,1.4v2.9h-1.1v-6.1
		h1.1v0.9l0.1,0c0.1-0.2,0.3-0.4,0.5-0.6c0.2-0.1,0.4-0.3,0.6-0.4c0.2-0.1,0.4-0.1,0.6-0.1c0.2,0,0.3,0,0.3,0V390.1z"/>
	<path fill="#ffffff" d="M-93.8,393.9c0.3-0.9,0.4-1.9,0.4-2.8c0-0.9-0.1-1.8-0.4-2.8c-0.3-0.9-0.7-2-1.4-3h0.9c0.4,0.6,0.9,1.4,1.4,2.4
		c0.5,1,0.7,2.1,0.7,3.4c0,1.3-0.2,2.5-0.7,3.4c-0.5,1-0.9,1.8-1.4,2.4h-0.9C-94.5,395.9-94,394.8-93.8,393.9z"/>
</g>
<g>
	<path fill="#ffffff" d="M-353.7,394.5c-0.8,0.1-1.6,0.1-2.3,0.1h-3.6v-1h3.2v-2.1c-0.7-0.1-1.3-0.4-1.8-0.9c-0.4-0.5-0.7-1-0.7-1.7
		c0-0.7,0.3-1.3,0.8-1.8c0.6-0.5,1.3-0.8,2.2-0.8c0.9,0,1.6,0.3,2.2,0.8c0.6,0.5,0.8,1.1,0.8,1.8c0,0.6-0.2,1.2-0.7,1.6
		c-0.4,0.5-1,0.8-1.7,0.9v2c0.3,0,0.9,0,1.6-0.1c0.7,0,1.3-0.1,1.8-0.2v1.1C-352.3,394.4-352.9,394.5-353.7,394.5z M-354.5,387.9
		c-0.3-0.3-0.8-0.5-1.4-0.5c-0.6,0-1,0.2-1.3,0.5c-0.3,0.3-0.5,0.7-0.5,1.1c0,0.4,0.2,0.8,0.5,1.1c0.3,0.3,0.8,0.5,1.3,0.5
		c0.6,0,1-0.2,1.3-0.5c0.3-0.3,0.5-0.7,0.5-1.1C-354.1,388.6-354.2,388.2-354.5,387.9z M-351.5,396.4v-10.6h1.2v10.6H-351.5z"/>
	<path fill="#ffffff" d="M-343.1,392.9v3.5h-1.2v-3.5h-4.7v-1h10.6v1H-343.1z M-347.6,390.8v-4.7h1.2v1.3h5.4v-1.3h1.2v4.7H-347.6z M-341,388.4
		h-5.4v1.4h5.4V388.4z"/>
	<path fill="#ffffff" d="M-338,394.9v-1h10.6v1H-338z M-336.5,392.5v-5.6h7.8v1h-6.6v1.3h6.5v1h-6.5v1.3h6.6v1H-336.5z"/>
	<path fill="#ffffff" d="M-321.5,391.9c-0.7,0.1-1.4,0.1-2.1,0.1l-2.5,0v-3.3h3.9v-1.4h-3.9v-1h5.1v3.3h-3.9v1.3l1.7,0c0.5,0,1.1,0,1.8-0.1
		c0.7,0,1.2-0.1,1.5-0.1v1C-320.2,391.8-320.8,391.9-321.5,391.9z M-318.6,396.4V394h-6.6v-1h7.8v3.4H-318.6z M-318.5,392.4v-3h-1.9
		v-1h1.9v-2.5h1.2v6.6H-318.5z"/>
	<path fill="#ffffff" d="M-313.6,396.9c-0.4-0.6-0.9-1.4-1.4-2.4c-0.5-1-0.7-2.1-0.7-3.4c0-1.3,0.2-2.5,0.7-3.4c0.5-1,0.9-1.8,1.4-2.4h0.9
		c-0.6,1.1-1.1,2.1-1.4,3c-0.3,0.9-0.4,1.9-0.4,2.8c0,0.9,0.1,1.8,0.4,2.8c0.3,0.9,0.7,2,1.4,3H-313.6z"/>
	<path fill="#ffffff" d="M-308.3,387.9v7.5h-1.1v-7.5h-2.8v-1h6.8v1H-308.3z"/>
	<path fill="#ffffff" d="M-302.3,390.1c-0.2,0-0.4,0-0.6,0c-0.2,0-0.3,0.1-0.5,0.1c-0.4,0.2-0.6,0.4-0.8,0.8c-0.2,0.3-0.3,0.8-0.3,1.4v2.9h-1.1
		v-6.1h1.1v0.9l0.1,0c0.1-0.2,0.3-0.4,0.5-0.6c0.2-0.1,0.4-0.3,0.6-0.4c0.2-0.1,0.4-0.1,0.6-0.1c0.2,0,0.3,0,0.3,0V390.1z"/>
	<path fill="#ffffff" d="M-297.2,395.4v-0.8c-0.2,0.3-0.5,0.5-0.8,0.7c-0.4,0.2-0.8,0.3-1.3,0.3c-0.5,0-1-0.2-1.5-0.6c-0.5-0.4-0.7-1-0.7-1.7v-4.1
		h1.1v3.7c0,0.6,0.1,1,0.4,1.2c0.3,0.3,0.6,0.4,1.1,0.4c0.5,0,0.9-0.2,1.2-0.5c0.3-0.3,0.5-0.8,0.5-1.3v-3.5h1.1v6.2H-297.2z"/>
	<path fill="#ffffff" d="M-289.1,393.5c-0.1,0.6-0.5,1.1-0.9,1.5c-0.5,0.4-1.1,0.7-2,0.7c-1,0-1.7-0.3-2.3-0.9c-0.6-0.6-0.8-1.4-0.8-2.4
		c0-1,0.3-1.7,0.8-2.4c0.6-0.6,1.3-0.9,2.3-0.9c0.8,0,1.5,0.2,2,0.7c0.5,0.5,0.8,1,0.9,1.5h-1.2c-0.1-0.3-0.2-0.5-0.5-0.8
		c-0.3-0.3-0.7-0.4-1.2-0.4c-0.6,0-1.1,0.2-1.4,0.7c-0.3,0.4-0.5,1-0.5,1.7c0,0.7,0.2,1.3,0.5,1.7c0.3,0.4,0.8,0.7,1.4,0.7
		c0.5,0,0.8-0.1,1.1-0.4c0.3-0.2,0.5-0.5,0.6-0.8H-289.1z"/>
	<path fill="#ffffff" d="M-283.5,395.4l-2.6-3.1l-0.9,0.7v2.4h-1.1v-8.5h1.1v4.9l2.8-2.6h1.4l-2.6,2.5l3.2,3.7H-283.5z"/>
	<path fill="#ffffff" d="M-280.6,393.9c0.3-0.9,0.4-1.9,0.4-2.8c0-0.9-0.1-1.8-0.4-2.8c-0.3-0.9-0.7-2-1.4-3h0.9c0.4,0.6,0.9,1.4,1.4,2.4
		c0.5,1,0.7,2.1,0.7,3.4c0,1.3-0.2,2.5-0.7,3.4c-0.5,1-0.9,1.8-1.4,2.4h-0.9C-281.4,395.9-280.9,394.8-280.6,393.9z"/>
</g>
<g>
	<path fill="#ffffff" d="M-551,394.4c-0.5-0.2-1-0.6-1.6-1.3c-0.6-0.6-1-1.3-1.3-1.9c-0.2,0.6-0.6,1.2-1.2,1.9c-0.6,0.7-1.2,1.2-1.7,1.5l-1-0.8
		c1.1-0.6,1.9-1.4,2.4-2.4c0.5-1,0.7-2.1,0.7-3.4v-1.7h1.3v1.7c0,1.3,0.3,2.4,0.8,3.2c0.5,0.8,1.3,1.6,2.3,2.2L-551,394.4z
		 M-548.1,392.5v3.9h-1.2v-10.6h1.2v2.6h1.6v1.1h-1.6v2h1.6v1.1H-548.1z"/>
	<path fill="#ffffff" d="M-539.7,394.4c-0.5-0.2-1-0.6-1.6-1.3c-0.6-0.6-1-1.3-1.3-1.9c-0.2,0.6-0.6,1.2-1.2,1.9c-0.6,0.7-1.2,1.2-1.7,1.5l-1-0.8
		c1.1-0.6,1.9-1.4,2.4-2.4c0.5-1,0.7-2.1,0.7-3.4v-1.7h1.3v1.7c0,1.3,0.3,2.4,0.8,3.2c0.5,0.8,1.3,1.6,2.3,2.2L-539.7,394.4z
		 M-537.8,396.4v-10.6h1.2v10.6H-537.8z"/>
	<path fill="#ffffff" d="M-533,396.9c-0.4-0.6-0.9-1.4-1.4-2.4c-0.5-1-0.7-2.1-0.7-3.4c0-1.3,0.2-2.5,0.7-3.4c0.5-1,0.9-1.8,1.4-2.4h0.9
		c-0.6,1.1-1.1,2.1-1.4,3c-0.3,0.9-0.4,1.9-0.4,2.8c0,0.9,0.1,1.8,0.4,2.8c0.3,0.9,0.7,2,1.4,3H-533z"/>
	<path fill="#ffffff" d="M-525,389.4c-0.1-0.4-0.4-0.8-0.8-1.1c-0.4-0.4-0.9-0.6-1.7-0.6c-0.8,0-1.5,0.3-2,0.9c-0.5,0.6-0.7,1.5-0.7,2.5
		c0,1.1,0.2,1.9,0.7,2.6c0.5,0.6,1.1,1,2,1c0.7,0,1.3-0.2,1.7-0.6c0.4-0.4,0.6-0.8,0.8-1.3l1.2,0c-0.2,0.6-0.5,1.3-1.1,1.9
		c-0.6,0.7-1.4,1-2.6,1c-1.2,0-2.2-0.4-2.9-1.2c-0.7-0.8-1-1.9-1-3.3c0-1.3,0.3-2.4,1-3.2c0.7-0.8,1.7-1.2,2.9-1.2
		c1.1,0,2,0.3,2.6,0.9c0.6,0.6,0.9,1.2,1.1,1.8H-525z"/>
	<path fill="#ffffff" d="M-517.7,389.9c0.6,0.6,0.8,1.4,0.8,2.4c0,1-0.3,1.7-0.8,2.4c-0.6,0.6-1.3,0.9-2.3,0.9c-1,0-1.7-0.3-2.3-0.9
		c-0.6-0.6-0.8-1.4-0.8-2.4c0-1,0.3-1.7,0.8-2.4s1.3-0.9,2.3-0.9C-519,389-518.2,389.3-517.7,389.9z M-518.5,394
		c0.4-0.4,0.6-1,0.6-1.8c0-0.7-0.2-1.3-0.6-1.7c-0.4-0.4-0.8-0.7-1.4-0.7c-0.6,0-1.1,0.2-1.5,0.7c-0.4,0.4-0.5,1-0.5,1.7
		c0,0.7,0.2,1.3,0.5,1.8c0.4,0.4,0.8,0.7,1.5,0.7C-519.4,394.7-518.9,394.5-518.5,394z"/>
	<path fill="#ffffff" d="M-511.6,395.4v-3.7c0-0.6-0.1-1-0.4-1.2c-0.2-0.2-0.6-0.4-1.1-0.4c-0.5,0-0.9,0.2-1.3,0.5c-0.3,0.3-0.5,0.8-0.5,1.3v3.5
		h-1.1v-6.2h1.1v0.7c0.3-0.3,0.6-0.5,1-0.7s0.9-0.3,1.4-0.2c0.7,0.1,1.1,0.4,1.4,0.8c0.3,0.5,0.4,0.9,0.4,1.3v4.2H-511.6z"/>
	<path fill="#ffffff" d="M-507.6,395.4c-0.2,0-0.4-0.1-0.6-0.2s-0.3-0.2-0.4-0.4c-0.1-0.1-0.2-0.3-0.2-0.4c0-0.2-0.1-0.4-0.1-0.7v-3.5h-0.8v-0.9
		l0.8,0v-1.9h1.1v1.9l0.9,0v0.9h-0.9v3.4c0,0.1,0,0.3,0,0.4c0,0.1,0.1,0.2,0.2,0.3c0.1,0.1,0.2,0.1,0.4,0.2c0.1,0,0.3,0,0.4,0l0,0.9
		H-507.6z"/>
	<path fill="#ffffff" d="M-501.5,395.4c-0.1-0.1-0.1-0.3-0.1-0.4c0-0.2,0-0.3-0.1-0.5c-0.2,0.3-0.6,0.5-1,0.7c-0.4,0.2-0.8,0.3-1.3,0.4
		c-0.6,0-1.2-0.1-1.6-0.3c-0.5-0.2-0.7-0.7-0.8-1.2c-0.1-0.6,0-1,0.3-1.3c0.3-0.3,0.7-0.5,1.1-0.7c0.4-0.1,0.8-0.2,1.2-0.2
		c0.4,0,0.8-0.1,1.2-0.1c0.2,0,0.4-0.1,0.6-0.1c0.2-0.1,0.3-0.2,0.3-0.5c0-0.3-0.1-0.5-0.4-0.8c-0.2-0.2-0.7-0.4-1.2-0.4
		c-0.6,0-1,0.1-1.3,0.3c-0.3,0.2-0.4,0.5-0.3,0.8h-1.1c-0.1-0.7,0.2-1.2,0.7-1.5c0.6-0.4,1.2-0.5,2-0.5c0.7,0,1.3,0.2,1.9,0.5
		c0.6,0.4,0.8,0.9,0.8,1.5v3.4c0,0.3,0,0.5,0.1,0.7c0.1,0.2,0.1,0.3,0.1,0.3H-501.5z M-501.7,392.2c-0.1,0.1-0.2,0.1-0.3,0.2
		c-0.1,0.1-0.2,0.1-0.4,0.1c-0.2,0.1-0.6,0.1-1,0.1c-0.4,0-0.7,0.1-0.9,0.1c-0.4,0.1-0.6,0.3-0.8,0.4c-0.2,0.2-0.3,0.4-0.2,0.7
		c0,0.3,0.2,0.5,0.5,0.7c0.3,0.1,0.6,0.2,0.9,0.1c0.7,0,1.3-0.3,1.6-0.6c0.4-0.4,0.6-0.7,0.6-1V392.2z"/>
	<path fill="#ffffff" d="M-499.2,387.9v-1.1h1.1v1.1H-499.2z M-499.2,395.4v-6.2h1.1v6.2H-499.2z"/>
	<path fill="#ffffff" d="M-492.3,395.4v-3.7c0-0.6-0.1-1-0.4-1.2c-0.2-0.2-0.6-0.4-1.1-0.4c-0.5,0-0.9,0.2-1.3,0.5c-0.3,0.3-0.5,0.8-0.5,1.3v3.5
		h-1.1v-6.2h1.1v0.7c0.3-0.3,0.6-0.5,1-0.7s0.9-0.3,1.4-0.2c0.7,0.1,1.1,0.4,1.4,0.8c0.3,0.5,0.4,0.9,0.4,1.3v4.2H-492.3z"/>
	<path fill="#ffffff" d="M-489.1,392.6c0,0.6,0.2,1.1,0.6,1.5c0.4,0.4,0.8,0.6,1.4,0.6c0.5,0,0.9-0.1,1.2-0.3c0.3-0.2,0.4-0.4,0.5-0.6h1.2
		c-0.1,0.4-0.4,0.8-0.9,1.2c-0.4,0.4-1.1,0.6-1.9,0.6c-0.9,0-1.6-0.3-2.2-0.9c-0.6-0.6-0.9-1.4-0.9-2.3c0-0.9,0.3-1.7,0.8-2.3
		c0.6-0.6,1.3-0.9,2.2-0.9c0.8,0,1.6,0.3,2.2,0.8c0.6,0.6,0.9,1.5,0.9,2.7H-489.1z M-485.2,391.8c0-0.6-0.2-1-0.6-1.4
		c-0.3-0.3-0.8-0.5-1.4-0.5c-0.5,0-1,0.2-1.3,0.5c-0.3,0.3-0.6,0.8-0.6,1.4H-485.2z"/>
	<path fill="#ffffff" d="M-479.8,390.1c-0.2,0-0.4,0-0.6,0c-0.2,0-0.3,0.1-0.5,0.1c-0.4,0.2-0.6,0.4-0.8,0.8c-0.2,0.3-0.3,0.8-0.3,1.4v2.9h-1.1
		v-6.1h1.1v0.9l0.1,0c0.1-0.2,0.3-0.4,0.5-0.6c0.2-0.1,0.4-0.3,0.6-0.4c0.2-0.1,0.4-0.1,0.6-0.1c0.2,0,0.3,0,0.3,0V390.1z"/>
	<path fill="#ffffff" d="M-468.7,389.4c-0.1-0.4-0.4-0.8-0.8-1.1c-0.4-0.4-0.9-0.6-1.7-0.6c-0.8,0-1.5,0.3-2,0.9c-0.5,0.6-0.7,1.5-0.7,2.5
		c0,1.1,0.2,1.9,0.7,2.6c0.5,0.6,1.1,1,2,1c0.7,0,1.3-0.2,1.7-0.6c0.4-0.4,0.6-0.8,0.8-1.3l1.2,0c-0.2,0.6-0.5,1.3-1.1,1.9
		c-0.6,0.7-1.4,1-2.6,1c-1.2,0-2.2-0.4-2.9-1.2c-0.7-0.8-1-1.9-1-3.3c0-1.3,0.3-2.4,1-3.2c0.7-0.8,1.7-1.2,2.9-1.2
		c1.1,0,2,0.3,2.6,0.9c0.6,0.6,0.9,1.2,1.1,1.8H-468.7z"/>
	<path fill="#ffffff" d="M-461.9,395.4v-3.7c0-0.6-0.1-1-0.4-1.2c-0.2-0.2-0.6-0.4-1.1-0.4c-0.5,0-0.9,0.2-1.3,0.5c-0.3,0.3-0.5,0.8-0.5,1.3v3.5
		h-1.1v-8.5h1.1v3c0.3-0.3,0.6-0.5,1-0.7s0.9-0.3,1.4-0.2c0.7,0.1,1.1,0.4,1.4,0.8c0.3,0.5,0.4,0.9,0.4,1.3v4.2H-461.9z"/>
	<path fill="#ffffff" d="M-455,395.4c-0.1-0.1-0.1-0.3-0.1-0.4c0-0.2,0-0.3-0.1-0.5c-0.2,0.3-0.6,0.5-1,0.7c-0.4,0.2-0.8,0.3-1.3,0.4
		c-0.6,0-1.2-0.1-1.6-0.3c-0.5-0.2-0.7-0.7-0.8-1.2c-0.1-0.6,0-1,0.3-1.3s0.7-0.5,1.1-0.7c0.4-0.1,0.8-0.2,1.2-0.2
		c0.4,0,0.8-0.1,1.2-0.1c0.2,0,0.4-0.1,0.6-0.1c0.2-0.1,0.3-0.2,0.3-0.5c0-0.3-0.1-0.5-0.4-0.8c-0.2-0.2-0.7-0.4-1.2-0.4
		c-0.6,0-1,0.1-1.3,0.3c-0.3,0.2-0.4,0.5-0.3,0.8h-1.1c-0.1-0.7,0.2-1.2,0.7-1.5c0.6-0.4,1.2-0.5,2-0.5c0.7,0,1.3,0.2,1.9,0.5
		c0.6,0.4,0.8,0.9,0.8,1.5v3.4c0,0.3,0,0.5,0.1,0.7c0.1,0.2,0.1,0.3,0.1,0.3H-455z M-455.2,392.2c-0.1,0.1-0.2,0.1-0.3,0.2
		c-0.1,0.1-0.2,0.1-0.4,0.1c-0.2,0.1-0.6,0.1-1,0.1c-0.4,0-0.7,0.1-0.9,0.1c-0.4,0.1-0.6,0.3-0.8,0.4c-0.2,0.2-0.3,0.4-0.2,0.7
		c0,0.3,0.2,0.5,0.5,0.7c0.3,0.1,0.6,0.2,0.9,0.1c0.7,0,1.3-0.3,1.6-0.6c0.4-0.4,0.6-0.7,0.6-1V392.2z"/>
	<path fill="#ffffff" d="M-448.1,392.7c0.2,0.2,0.3,0.5,0.3,0.9c0,0.6-0.3,1-0.8,1.4c-0.5,0.4-1.1,0.5-1.8,0.5c-1.1,0-1.8-0.3-2.2-0.8
		c-0.4-0.5-0.6-1-0.6-1.4h1.1c0,0.3,0.2,0.6,0.5,0.9c0.3,0.2,0.7,0.3,1.2,0.3c0.4,0,0.8-0.1,1-0.2c0.3-0.1,0.4-0.4,0.5-0.6
		c0-0.2,0-0.4-0.1-0.5c-0.1-0.1-0.3-0.3-0.5-0.4c-0.3-0.2-0.7-0.3-1.1-0.3c-0.4-0.1-0.7-0.1-1-0.2c-0.4-0.1-0.7-0.3-0.9-0.6
		c-0.2-0.3-0.4-0.6-0.3-1c0-0.5,0.3-0.9,0.7-1.2c0.4-0.4,1-0.6,1.8-0.6c0.9,0,1.5,0.2,1.9,0.7c0.4,0.5,0.6,0.9,0.6,1.3h-1.1
		c0-0.2-0.1-0.4-0.3-0.6c-0.2-0.2-0.6-0.4-1.2-0.4c-0.5,0-0.8,0.1-1,0.3c-0.2,0.2-0.3,0.4-0.3,0.6c0,0.3,0.1,0.5,0.3,0.6
		c0.2,0.1,0.4,0.2,0.6,0.3c0.3,0.1,0.6,0.1,1,0.2c0.4,0.1,0.7,0.2,1,0.3C-448.6,392.3-448.3,392.5-448.1,392.7z"/>
	<path fill="#ffffff" d="M-442.1,392.7c0.2,0.2,0.3,0.5,0.3,0.9c0,0.6-0.3,1-0.8,1.4c-0.5,0.4-1.1,0.5-1.8,0.5c-1.1,0-1.8-0.3-2.2-0.8
		c-0.4-0.5-0.6-1-0.6-1.4h1.1c0,0.3,0.2,0.6,0.5,0.9c0.3,0.2,0.7,0.3,1.2,0.3c0.4,0,0.8-0.1,1-0.2c0.3-0.1,0.4-0.4,0.5-0.6
		c0-0.2,0-0.4-0.1-0.5c-0.1-0.1-0.3-0.3-0.5-0.4c-0.3-0.2-0.7-0.3-1.1-0.3c-0.4-0.1-0.7-0.1-1-0.2c-0.4-0.1-0.7-0.3-0.9-0.6
		c-0.2-0.3-0.4-0.6-0.3-1c0-0.5,0.3-0.9,0.7-1.2c0.4-0.4,1-0.6,1.8-0.6c0.9,0,1.5,0.2,1.9,0.7c0.4,0.5,0.6,0.9,0.6,1.3h-1.1
		c0-0.2-0.1-0.4-0.3-0.6c-0.2-0.2-0.6-0.4-1.2-0.4c-0.5,0-0.8,0.1-1,0.3c-0.2,0.2-0.3,0.4-0.3,0.6c0,0.3,0.1,0.5,0.3,0.6
		c0.2,0.1,0.4,0.2,0.6,0.3c0.3,0.1,0.6,0.1,1,0.2c0.4,0.1,0.7,0.2,1,0.3C-442.6,392.3-442.4,392.5-442.1,392.7z"/>
	<path fill="#ffffff" d="M-440.8,387.9v-1.1h1.1v1.1H-440.8z M-440.8,395.4v-6.2h1.1v6.2H-440.8z"/>
	<path fill="#ffffff" d="M-433.6,392.7c0.2,0.2,0.3,0.5,0.3,0.9c0,0.6-0.3,1-0.8,1.4c-0.5,0.4-1.1,0.5-1.8,0.5c-1.1,0-1.8-0.3-2.2-0.8
		c-0.4-0.5-0.6-1-0.6-1.4h1.1c0,0.3,0.2,0.6,0.5,0.9c0.3,0.2,0.7,0.3,1.2,0.3c0.4,0,0.8-0.1,1-0.2c0.3-0.1,0.4-0.4,0.5-0.6
		c0-0.2,0-0.4-0.1-0.5c-0.1-0.1-0.3-0.3-0.5-0.4c-0.3-0.2-0.7-0.3-1.1-0.3c-0.4-0.1-0.7-0.1-1-0.2c-0.4-0.1-0.7-0.3-0.9-0.6
		c-0.2-0.3-0.4-0.6-0.3-1c0-0.5,0.3-0.9,0.7-1.2c0.4-0.4,1-0.6,1.8-0.6c0.9,0,1.5,0.2,1.9,0.7c0.4,0.5,0.6,0.9,0.6,1.3h-1.1
		c0-0.2-0.1-0.4-0.3-0.6c-0.2-0.2-0.6-0.4-1.2-0.4c-0.5,0-0.8,0.1-1,0.3c-0.2,0.2-0.3,0.4-0.3,0.6c0,0.3,0.1,0.5,0.3,0.6
		c0.2,0.1,0.4,0.2,0.6,0.3c0.3,0.1,0.6,0.1,1,0.2c0.4,0.1,0.7,0.2,1,0.3C-434.1,392.3-433.8,392.5-433.6,392.7z"/>
	<path fill="#ffffff" d="M-431.3,393.9c0.3-0.9,0.4-1.9,0.4-2.8c0-0.9-0.1-1.8-0.4-2.8c-0.3-0.9-0.7-2-1.4-3h0.9c0.4,0.6,0.9,1.4,1.4,2.4
		c0.5,1,0.7,2.1,0.7,3.4c0,1.3-0.2,2.5-0.7,3.4c-0.5,1-0.9,1.8-1.4,2.4h-0.9C-432,395.9-431.6,394.8-431.3,393.9z"/>
</g>
<g>
	<path fill="#ffffff" d="M-727.8,543.6c-0.4,0-0.8,0.1-1.2,0.1l-2.5,0V538h3.9v1h-2.7v1.4h2.6v1h-2.6v1.4l1.1,0c0.4,0,0.8,0,1.3-0.1
		c0.5,0,0.9-0.1,1.1-0.1v0.9C-727.1,543.5-727.4,543.5-727.8,543.6z M-730.3,547.6v-3.2h1.2v2.2h6.8v1H-730.3z M-725.9,544.9v-3.8
		h-1.4v-1h1.4v-2.6h1.2v7.4H-725.9z M-723.7,545.1v-7.8h1.2v7.8H-723.7z"/>
	<path fill="#ffffff" d="M-715.6,542.8c-0.7,0.1-1.5,0.1-2.4,0.1l-2.3,0V538h5.3v1h-4.1v2.9l1.9,0c0.5,0,1.1,0,1.7-0.1c0.7,0,1.1-0.1,1.4-0.1v1
		C-714.4,542.7-714.9,542.7-715.6,542.8z M-719.2,547.7v-3.9h7.5v3.9H-719.2z M-712.9,544.8h-5.1v1.9h5.1V544.8z M-712.8,543.3v-2.4
		h-2.9v-1h2.9v-2.5h1.2v6H-712.8z"/>
	<path fill="#ffffff" d="M-707.8,548.4c-0.4-0.6-0.9-1.4-1.4-2.4c-0.5-1-0.7-2.1-0.7-3.4c0-1.3,0.2-2.5,0.7-3.4c0.5-1,0.9-1.8,1.4-2.4h0.9
		c-0.6,1.1-1.1,2.1-1.4,3c-0.3,0.9-0.4,1.9-0.4,2.8c0,0.9,0.1,1.8,0.4,2.8c0.3,0.9,0.7,2,1.4,3H-707.8z"/>
	<path fill="#ffffff" d="M-702.6,539.3v7.5h-1.1v-7.5h-2.8v-1h6.8v1H-702.6z"/>
	<path fill="#ffffff" d="M-699.7,544.1c0,0.6,0.2,1.1,0.6,1.5c0.4,0.4,0.8,0.6,1.4,0.6c0.5,0,0.9-0.1,1.2-0.3c0.3-0.2,0.4-0.4,0.5-0.6h1.2
		c-0.1,0.4-0.4,0.8-0.9,1.2c-0.4,0.4-1.1,0.6-1.9,0.6c-0.9,0-1.6-0.3-2.2-0.9c-0.6-0.6-0.9-1.4-0.9-2.3c0-0.9,0.3-1.7,0.8-2.3
		c0.6-0.6,1.3-0.9,2.2-0.9c0.8,0,1.6,0.3,2.2,0.8c0.6,0.6,0.9,1.5,0.9,2.7H-699.7z M-695.8,543.2c0-0.6-0.2-1-0.6-1.4
		c-0.3-0.3-0.8-0.5-1.4-0.5c-0.5,0-1,0.2-1.3,0.5c-0.3,0.3-0.6,0.8-0.6,1.4H-695.8z"/>
	<path fill="#ffffff" d="M-689.4,546.8v-3.7c0-0.6-0.1-1-0.4-1.2c-0.2-0.2-0.6-0.4-1.1-0.4c-0.5,0-0.9,0.2-1.3,0.5c-0.3,0.3-0.5,0.8-0.5,1.3v3.5
		h-1.1v-6.2h1.1v0.7c0.3-0.3,0.6-0.5,1-0.7c0.4-0.2,0.9-0.3,1.4-0.2c0.7,0.1,1.1,0.4,1.4,0.8c0.3,0.5,0.4,0.9,0.4,1.3v4.2H-689.4z"
		/>
	<path fill="#ffffff" d="M-682.2,546.8v-0.7c-0.3,0.3-0.6,0.5-0.9,0.7c-0.4,0.2-0.7,0.2-1.1,0.2c-0.9,0-1.6-0.3-2.2-0.9c-0.5-0.6-0.8-1.4-0.8-2.4
		c0-1,0.3-1.8,0.8-2.4c0.5-0.6,1.3-0.9,2.2-0.9c0.4,0,0.8,0.1,1.1,0.2c0.4,0.2,0.7,0.4,0.9,0.7v-3h1.1v8.5H-682.2z M-682.7,545.5
		c0.3-0.4,0.5-1,0.5-1.7c0-0.7-0.2-1.3-0.5-1.7c-0.3-0.4-0.8-0.6-1.4-0.6c-0.6,0-1.1,0.2-1.4,0.6c-0.3,0.4-0.5,1-0.5,1.6
		c0,0.7,0.2,1.2,0.5,1.7c0.3,0.4,0.8,0.6,1.4,0.6C-683.5,546.1-683,545.9-682.7,545.5z"/>
	<path fill="#ffffff" d="M-678.9,544.1c0,0.6,0.2,1.1,0.6,1.5c0.4,0.4,0.8,0.6,1.4,0.6c0.5,0,0.9-0.1,1.2-0.3c0.3-0.2,0.4-0.4,0.5-0.6h1.2
		c-0.1,0.4-0.4,0.8-0.9,1.2c-0.4,0.4-1.1,0.6-1.9,0.6c-0.9,0-1.6-0.3-2.2-0.9c-0.6-0.6-0.9-1.4-0.9-2.3c0-0.9,0.3-1.7,0.8-2.3
		c0.6-0.6,1.3-0.9,2.2-0.9c0.8,0,1.6,0.3,2.2,0.8c0.6,0.6,0.9,1.5,0.9,2.7H-678.9z M-675,543.2c0-0.6-0.2-1-0.6-1.4
		c-0.3-0.3-0.8-0.5-1.4-0.5c-0.5,0-1,0.2-1.3,0.5c-0.3,0.3-0.6,0.8-0.6,1.4H-675z"/>
	<path fill="#ffffff" d="M-669.7,541.6c-0.2,0-0.4,0-0.6,0c-0.2,0-0.3,0.1-0.5,0.1c-0.4,0.2-0.6,0.4-0.8,0.8c-0.2,0.3-0.3,0.8-0.3,1.4v2.9h-1.1
		v-6.1h1.1v0.9l0.1,0c0.1-0.2,0.3-0.4,0.5-0.6c0.2-0.1,0.4-0.3,0.6-0.4c0.2-0.1,0.4-0.1,0.6-0.1c0.2,0,0.3,0,0.3,0V541.6z"/>
	<path fill="#ffffff" d="M-661.5,546.8l0-3.9c0-0.5-0.1-0.9-0.2-1.1c-0.1-0.3-0.5-0.4-1-0.3c-0.4,0-0.7,0.2-1,0.5c-0.2,0.3-0.4,0.7-0.4,1.2v3.7
		h-1.1v-3.9c0-0.5-0.1-0.9-0.2-1.1c-0.1-0.3-0.5-0.4-0.9-0.3c-0.4,0-0.8,0.2-1,0.5c-0.2,0.3-0.4,0.7-0.4,1.2v3.7h-1.1v-6.2h1.1v0.7
		c0.2-0.2,0.5-0.5,0.8-0.7c0.3-0.2,0.8-0.3,1.3-0.3c0.3,0,0.5,0.1,0.8,0.3c0.2,0.2,0.4,0.4,0.6,0.8c0.2-0.2,0.4-0.4,0.8-0.7
		c0.4-0.3,0.9-0.4,1.5-0.3c0.6,0.1,1,0.3,1.2,0.8c0.2,0.4,0.3,0.9,0.3,1.4v4.2H-661.5z"/>
	<path fill="#ffffff" d="M-648.9,543.4c0.3,0.4,0.4,0.9,0.3,1.4c-0.1,0.7-0.4,1.2-0.9,1.7c-0.5,0.5-1.3,0.7-2.4,0.7c-1.1,0-2-0.3-2.5-1
		c-0.5-0.7-0.8-1.4-0.9-2.1h1.2c0,0.7,0.3,1.2,0.7,1.6c0.4,0.4,0.9,0.6,1.6,0.6c0.6,0,1.1-0.1,1.5-0.4c0.3-0.3,0.5-0.6,0.6-1.1
		c0.1-0.3,0-0.6-0.2-0.8c-0.2-0.2-0.4-0.4-0.8-0.6c-0.4-0.2-0.8-0.3-1.2-0.3c-0.4,0-0.9-0.1-1.3-0.3c-0.6-0.2-1-0.5-1.3-0.8
		c-0.3-0.3-0.4-0.8-0.4-1.4c0-0.6,0.3-1.1,0.8-1.6c0.5-0.5,1.3-0.8,2.3-0.8c1.2,0,2,0.3,2.4,1c0.4,0.7,0.7,1.2,0.7,1.7l-1.2,0
		c0-0.5-0.2-0.9-0.5-1.2c-0.3-0.3-0.8-0.5-1.5-0.5c-0.6,0-1.1,0.2-1.4,0.5c-0.3,0.3-0.4,0.6-0.4,1c0,0.4,0.1,0.7,0.3,0.8
		c0.2,0.2,0.5,0.3,0.7,0.4c0.3,0.1,0.7,0.2,1.2,0.3c0.5,0.1,1,0.2,1.4,0.4C-649.5,542.6-649.2,543-648.9,543.4z"/>
	<path fill="#ffffff" d="M-642.3,541.3c0.6,0.6,0.8,1.4,0.8,2.4c0,1-0.3,1.8-0.8,2.4c-0.6,0.6-1.3,0.9-2.1,0.9c-0.4,0-0.8-0.1-1.1-0.2
		c-0.4-0.2-0.7-0.4-1-0.7v2.4h-1.1v-7.9h1.1v0.6c0.3-0.3,0.6-0.5,1-0.6c0.4-0.2,0.7-0.2,1.1-0.2
		C-643.6,540.4-642.9,540.7-642.3,541.3z M-643.2,545.5c0.4-0.4,0.5-1,0.5-1.8c0-0.8-0.2-1.3-0.5-1.7s-0.8-0.6-1.5-0.6
		c-0.6,0-1.1,0.2-1.5,0.6c-0.3,0.4-0.5,1-0.5,1.7c0,0.8,0.2,1.3,0.5,1.8c0.3,0.4,0.8,0.6,1.5,0.6
		C-644,546.1-643.5,545.9-643.2,545.5z"/>
	<path fill="#ffffff" d="M-637.2,541.6c-0.2,0-0.4,0-0.6,0c-0.2,0-0.3,0.1-0.5,0.1c-0.4,0.2-0.6,0.4-0.8,0.8c-0.2,0.3-0.3,0.8-0.3,1.4v2.9h-1.1
		v-6.1h1.1v0.9l0.1,0c0.1-0.2,0.3-0.4,0.5-0.6c0.2-0.1,0.4-0.3,0.6-0.4c0.2-0.1,0.4-0.1,0.6-0.1c0.2,0,0.3,0,0.3,0V541.6z"/>
	<path fill="#ffffff" d="M-636.1,544.1c0,0.6,0.2,1.1,0.6,1.5c0.4,0.4,0.8,0.6,1.4,0.6c0.5,0,0.9-0.1,1.2-0.3c0.3-0.2,0.4-0.4,0.5-0.6h1.2
		c-0.1,0.4-0.4,0.8-0.9,1.2c-0.4,0.4-1.1,0.6-1.9,0.6c-0.9,0-1.6-0.3-2.2-0.9c-0.6-0.6-0.9-1.4-0.9-2.3c0-0.9,0.3-1.7,0.8-2.3
		c0.6-0.6,1.3-0.9,2.2-0.9c0.8,0,1.6,0.3,2.2,0.8c0.6,0.6,0.9,1.5,0.9,2.7H-636.1z M-632.2,543.2c0-0.6-0.2-1-0.6-1.4
		c-0.3-0.3-0.8-0.5-1.4-0.5c-0.5,0-1,0.2-1.3,0.5c-0.3,0.3-0.6,0.8-0.6,1.4H-632.2z"/>
	<path fill="#ffffff" d="M-625.7,546.9c-0.1-0.1-0.1-0.3-0.1-0.4c0-0.2,0-0.3-0.1-0.5c-0.2,0.3-0.6,0.5-1,0.7c-0.4,0.2-0.8,0.3-1.3,0.4
		c-0.6,0-1.2-0.1-1.6-0.3c-0.5-0.2-0.7-0.7-0.8-1.2c-0.1-0.6,0-1,0.3-1.3c0.3-0.3,0.7-0.5,1.1-0.7c0.4-0.1,0.8-0.2,1.2-0.2
		c0.4,0,0.8-0.1,1.2-0.1c0.2,0,0.4-0.1,0.6-0.1c0.2-0.1,0.3-0.2,0.3-0.5c0-0.3-0.1-0.5-0.4-0.8c-0.2-0.2-0.7-0.4-1.2-0.4
		c-0.6,0-1,0.1-1.3,0.3c-0.3,0.2-0.4,0.5-0.3,0.8h-1.1c-0.1-0.7,0.2-1.2,0.7-1.5c0.6-0.4,1.2-0.5,2-0.5c0.7,0,1.3,0.2,1.9,0.5
		c0.6,0.4,0.8,0.9,0.8,1.5v3.4c0,0.3,0,0.5,0.1,0.7c0.1,0.2,0.1,0.3,0.1,0.3H-625.7z M-625.9,543.6c-0.1,0.1-0.2,0.1-0.3,0.2
		c-0.1,0.1-0.2,0.1-0.4,0.1c-0.2,0.1-0.6,0.1-1,0.1c-0.4,0-0.7,0.1-0.9,0.1c-0.4,0.1-0.6,0.3-0.8,0.4c-0.2,0.2-0.3,0.4-0.2,0.7
		c0,0.3,0.2,0.5,0.5,0.7c0.3,0.1,0.6,0.2,0.9,0.1c0.7,0,1.3-0.3,1.6-0.6c0.4-0.4,0.6-0.7,0.6-1V543.6z"/>
	<path fill="#ffffff" d="M-618.8,546.8v-0.7c-0.3,0.3-0.6,0.5-0.9,0.7c-0.4,0.2-0.7,0.2-1.1,0.2c-0.9,0-1.6-0.3-2.2-0.9c-0.5-0.6-0.8-1.4-0.8-2.4
		c0-1,0.3-1.8,0.8-2.4c0.5-0.6,1.3-0.9,2.2-0.9c0.4,0,0.8,0.1,1.1,0.2c0.4,0.2,0.7,0.4,0.9,0.7v-3h1.1v8.5H-618.8z M-619.3,545.5
		c0.3-0.4,0.5-1,0.5-1.7c0-0.7-0.2-1.3-0.5-1.7c-0.3-0.4-0.8-0.6-1.4-0.6c-0.6,0-1.1,0.2-1.4,0.6c-0.3,0.4-0.5,1-0.5,1.6
		c0,0.7,0.2,1.2,0.5,1.7c0.3,0.4,0.8,0.6,1.4,0.6C-620.1,546.1-619.7,545.9-619.3,545.5z"/>
	<path fill="#ffffff" d="M-615.6,544.1c0,0.6,0.2,1.1,0.6,1.5c0.4,0.4,0.8,0.6,1.4,0.6c0.5,0,0.9-0.1,1.2-0.3c0.3-0.2,0.4-0.4,0.5-0.6h1.2
		c-0.1,0.4-0.4,0.8-0.9,1.2c-0.4,0.4-1.1,0.6-1.9,0.6c-0.9,0-1.6-0.3-2.2-0.9c-0.6-0.6-0.9-1.4-0.9-2.3c0-0.9,0.3-1.7,0.8-2.3
		c0.6-0.6,1.3-0.9,2.2-0.9c0.8,0,1.6,0.3,2.2,0.8c0.6,0.6,0.9,1.5,0.9,2.7H-615.6z M-611.7,543.2c0-0.6-0.2-1-0.6-1.4
		c-0.3-0.3-0.8-0.5-1.4-0.5c-0.5,0-1,0.2-1.3,0.5c-0.3,0.3-0.6,0.8-0.6,1.4H-611.7z"/>
	<path fill="#ffffff" d="M-606.3,541.6c-0.2,0-0.4,0-0.6,0c-0.2,0-0.3,0.1-0.5,0.1c-0.4,0.2-0.6,0.4-0.8,0.8c-0.2,0.3-0.3,0.8-0.3,1.4v2.9h-1.1
		v-6.1h1.1v0.9l0.1,0c0.1-0.2,0.3-0.4,0.5-0.6c0.2-0.1,0.4-0.3,0.6-0.4c0.2-0.1,0.4-0.1,0.6-0.1c0.2,0,0.3,0,0.3,0V541.6z"/>
	<path fill="#ffffff" d="M-604.5,545.4c0.3-0.9,0.4-1.9,0.4-2.8c0-0.9-0.1-1.8-0.4-2.8c-0.3-0.9-0.7-2-1.4-3h0.9c0.4,0.6,0.9,1.4,1.4,2.4
		c0.5,1,0.7,2.1,0.7,3.4c0,1.3-0.2,2.5-0.7,3.4c-0.5,1-0.9,1.8-1.4,2.4h-0.9C-605.2,547.3-604.8,546.3-604.5,545.4z"/>
</g>
<g>
	<path fill="#ffffff" d="M-347,15.8v7l6,6h44l6-6v-7H-347z M-294,21.5l-4.2,4.2h-41.5l-4.2-4.2v-2.8h50V21.5z"/>
	<rect fill="#ffffff" x="-339" y="26.8" width="4" height="26"/>
	<rect fill="#ffffff" x="-303" y="26.8" width="4" height="26"/>
	<polygon fill="#ffffff" points="-335.4,50.8 -338.7,50.8 -342,53.8 -342,56.8 -332,56.8 -332,53.8 	"/>
	<polygon fill="#ffffff" points="-299.4,50.8 -302.7,50.8 -306,53.8 -306,56.8 -296,56.8 -296,53.8 	"/>
	<polygon fill="#ffffff" points="-311.4,46.8 -314.7,46.8 -314.7,43.4 -323.4,43.4 -323.4,46.8 -326.7,46.8 -326.7,40.1 -311.4,40.1 	"/>
	<path fill="#ffffff" d="M-315,38.8h-8l-3.2-8h14.4L-315,38.8z M-321,35.8h4l0.8-2h-5.6L-321,35.8z"/>
	<rect x="-339" y="57.8" width="4" height="5"/>
	<rect x="-303" y="57.8" width="4" height="5"/>
</g>
<g>
	<rect x="-168.6" y="26" width="4" height="26"/>
	<rect x="-124.6" y="26" width="4" height="26"/>
	<polygon fill="#ffffff" points="-164.9,49 -168.2,49 -171.6,52 -171.6,55 -161.6,55 -161.6,52 	"/>
	<polygon fill="#ffffff" points="-120.9,49 -124.2,49 -127.6,52 -127.6,55 -117.6,55 -117.6,52 	"/>
	<polygon fill="#ffffff" points="-136.9,46 -140.2,46 -140.2,42.6 -148.9,42.6 -148.9,46 -152.2,46 -152.2,39.4 -136.9,39.4 	"/>
	<path fill="#ffffff" d="M-140.6,38h-8l-3.2-8h14.4L-140.6,38z M-146.6,35h4l0.8-2h-5.6L-146.6,35z"/>
	<rect x="-168.6" y="57" width="4" height="5"/>
	<rect x="-124.6" y="57" width="4" height="5"/>
	<path fill="#ffffff" d="M-120.6,27.5h-48v-13h48V27.5z M-165.6,24.5h42v-7h-42V24.5z"/>
</g>
<g>
	<path fill="#ffffff" d="M-499,207.5c-3,0-5.5-2.5-5.5-5.5s2.5-5.5,5.5-5.5c3,0,5.5,2.5,5.5,5.5S-496,207.5-499,207.5z M-499,199.5
		c-1.4,0-2.5,1.1-2.5,2.5s1.1,2.5,2.5,2.5c1.4,0,2.5-1.1,2.5-2.5S-497.6,199.5-499,199.5z"/>
	<path fill="#ffffff" d="M-473,207.5c-3,0-5.5-2.5-5.5-5.5s2.5-5.5,5.5-5.5c3,0,5.5,2.5,5.5,5.5S-470,207.5-473,207.5z M-473,199.5
		c-1.4,0-2.5,1.1-2.5,2.5s1.1,2.5,2.5,2.5c1.4,0,2.5-1.1,2.5-2.5S-471.6,199.5-473,199.5z"/>
	<polygon fill="#ffffff" points="-481.5,191.5 -484.5,191.5 -484.5,174.5 -492.9,174.5 -503.5,185.2 -503.5,191.5 -506.5,191.5 -506.5,183.9 
		-494.1,171.5 -481.5,171.5 	"/>
	<polygon fill="#ffffff" points="-509.5,202.5 -518,202.5 -518,199.5 -512.5,199.5 -512.5,162 -509.5,162 	"/>
	<polygon fill="#ffffff" points="-487.3,198.5 -506,198.5 -506,195.5 -488.7,195.5 -478.2,182.5 -467.5,182.5 -467.5,197 -470.5,197 -470.5,185.5 
		-476.8,185.5 	"/>
	<polygon fill="#ffffff" points="-487.5,189.5 -497,189.5 -497,186.5 -490.5,186.5 -490.5,180 -487.5,180 	"/>
</g>
<g>
	<path fill="#ffffff" d="M-163,212.7c-3,0-5.5-2.5-5.5-5.5c0-3,2.5-5.5,5.5-5.5c3,0,5.5,2.5,5.5,5.5C-157.5,210.2-160,212.7-163,212.7z M-163,204.7
		c-1.4,0-2.5,1.1-2.5,2.5c0,1.4,1.1,2.5,2.5,2.5c1.4,0,2.5-1.1,2.5-2.5C-160.5,205.8-161.7,204.7-163,204.7z"/>
	<path fill="#ffffff" d="M-126,212.7c-3,0-5.5-2.5-5.5-5.5c0-3,2.5-5.5,5.5-5.5c3,0,5.5,2.5,5.5,5.5C-120.5,210.2-123,212.7-126,212.7z M-126,204.7
		c-1.4,0-2.5,1.1-2.5,2.5c0,1.4,1.1,2.5,2.5,2.5s2.5-1.1,2.5-2.5C-123.5,205.8-124.7,204.7-126,204.7z"/>
	<polygon fill="#ffffff" points="-116,203.2 -119,203.2 -119,199.2 -169,199.2 -169,203.2 -172,203.2 -172,196.2 -116,196.2 	"/>
	<path fill="#ffffff" d="M-132.5,209.7h-24v-9h24V209.7z M-153.5,206.7h18v-3h-18V206.7z"/>
	<path fill="#ffffff" d="M-125,199.2h-25V190l12.4-12.4h12.6V199.2z M-147,196.2h19v-15.5h-8.4l-10.6,10.6V196.2z"/>
	<polygon fill="#ffffff" points="-117,191.7 -120,191.7 -120,176.6 -153.3,162.4 -163.6,170.8 -165.5,168.5 -153.8,158.9 -117,174.7 	"/>
	<rect x="-164.2" y="178.7" transform="matrix(0.7219 -0.6919 0.6919 0.7219 -165.6834 -51.9978)" width="33.2" height="3"/>
	<polygon fill="#ffffff" points="-155,175.7 -158,175.7 -158,171.2 -171,171.2 -171,175.7 -174,175.7 -174,168.2 -155,168.2 	"/>
	<polygon fill="#ffffff" points="-132,193.2 -141.5,193.2 -141.5,190.2 -135,190.2 -135,183.7 -132,183.7 	"/>
</g>
<g>
	<path fill="#ffffff" d="M-334.6,358.9c-3,0-5.5-2.5-5.5-5.5c0-3,2.5-5.5,5.5-5.5c3,0,5.5,2.5,5.5,5.5C-329.1,356.4-331.6,358.9-334.6,358.9z
		 M-334.6,350.9c-1.4,0-2.5,1.1-2.5,2.5s1.1,2.5,2.5,2.5c1.4,0,2.5-1.1,2.5-2.5S-333.3,350.9-334.6,350.9z"/>
	<path fill="#ffffff" d="M-302.6,358.9c-3,0-5.5-2.5-5.5-5.5c0-3,2.5-5.5,5.5-5.5c3,0,5.5,2.5,5.5,5.5C-297.1,356.4-299.6,358.9-302.6,358.9z
		 M-302.6,350.9c-1.4,0-2.5,1.1-2.5,2.5s1.1,2.5,2.5,2.5c1.4,0,2.5-1.1,2.5-2.5S-301.3,350.9-302.6,350.9z"/>
	<polygon fill="#ffffff" points="-306.6,354.9 -325.1,354.9 -325.1,325.9 -340.6,325.9 -344.1,336.2 -344.1,352.9 -347.1,352.9 -347.1,335.6 
		-342.7,322.9 -322.1,322.9 -322.1,351.9 -306.6,351.9 	"/>
	<polygon fill="#ffffff" points="-328.1,340.9 -337.6,340.9 -337.6,337.9 -331.1,337.9 -331.1,331.4 -328.1,331.4 	"/>
	<rect x="-345.1" y="349.9" width="3" height="3"/>
	<polygon fill="#ffffff" points="-291.1,354.9 -298.6,354.9 -298.6,351.9 -294.1,351.9 -294.1,345.4 -323.6,345.4 -323.6,342.4 -291.1,342.4 	"/>
</g>
<path fill="#ffffff" d="M-685.6,354.1c-3,0-5.5-2.5-5.5-5.5c0-3,2.5-5.5,5.5-5.5c3,0,5.5,2.5,5.5,5.5C-680.1,351.7-682.5,354.1-685.6,354.1z
	 M-685.6,346.1c-1.4,0-2.5,1.1-2.5,2.5s1.1,2.5,2.5,2.5c1.4,0,2.5-1.1,2.5-2.5S-684.2,346.1-685.6,346.1z"/>
<path fill="#ffffff" d="M-648.6,354.1c-3,0-5.5-2.5-5.5-5.5c0-3,2.5-5.5,5.5-5.5c3,0,5.5,2.5,5.5,5.5C-643.1,351.7-645.5,354.1-648.6,354.1z
	 M-648.6,346.1c-1.4,0-2.5,1.1-2.5,2.5s1.1,2.5,2.5,2.5c1.4,0,2.5-1.1,2.5-2.5S-647.2,346.1-648.6,346.1z"/>
<polygon fill="#ffffff" points="-638.6,344.6 -641.6,344.6 -641.6,340.6 -691.6,340.6 -691.6,344.6 -694.6,344.6 -694.6,337.6 -638.6,337.6 "/>
<polygon fill="#ffffff" points="-655.1,350.1 -679.1,350.1 -679.1,342.6 -676.1,342.6 -676.1,347.1 -658.1,347.1 -658.1,342.6 -655.1,342.6 "/>
<polygon fill="#ffffff" points="-643.6,335.1 -646.6,335.1 -646.6,324.6 -686.6,324.6 -686.6,335.1 -689.6,335.1 -689.6,321.6 -643.6,321.6 "/>
<rect x="-678.6" y="323.6" width="3" height="12"/>
<rect x="-667.6" y="323.6" width="3" height="12"/>
<rect x="-656.6" y="323.6" width="3" height="12"/>
<g>
	<g>
		<path fill="#ffffff" d="M-487.7,357.1c-3,0-5.5-2.5-5.5-5.5c0-3,2.5-5.5,5.5-5.5c3,0,5.5,2.5,5.5,5.5C-482.2,354.7-484.7,357.1-487.7,357.1z
			 M-487.7,349.1c-1.4,0-2.5,1.1-2.5,2.5s1.1,2.5,2.5,2.5c1.4,0,2.5-1.1,2.5-2.5S-486.4,349.1-487.7,349.1z"/>
		<path fill="#ffffff" d="M-475.7,357.1c-3,0-5.5-2.5-5.5-5.5c0-3,2.5-5.5,5.5-5.5c3,0,5.5,2.5,5.5,5.5C-470.2,354.7-472.7,357.1-475.7,357.1z
			 M-475.7,349.1c-1.4,0-2.5,1.1-2.5,2.5s1.1,2.5,2.5,2.5c1.4,0,2.5-1.1,2.5-2.5S-474.4,349.1-475.7,349.1z"/>
		<polygon fill="#ffffff" points="-465.7,347.6 -468.7,347.6 -468.7,343.6 -518.7,343.6 -518.7,347.6 -521.7,347.6 -521.7,340.6 -465.7,340.6 		"/>
		<rect x="-516.7" y="345.6" width="22" height="3"/>
		<rect x="-514.7" y="347.1" width="3" height="8"/>
	</g>
	<polygon fill="#ffffff" points="-465.6,339.1 -468.6,339.1 -468.6,328.6 -497.6,328.6 -497.6,339.1 -500.6,339.1 -500.6,325.6 -465.6,325.6 	"/>
	<rect fill="#ffffff" x="-500.6" y="327.6" width="3" height="12"/>
	<rect fill="#ffffff" x="-489.6" y="327.6" width="3" height="12"/>
	<rect fill="#ffffff" x="-478.6" y="327.6" width="3" height="12"/>
</g>
<polygon fill="#ffffff" points="30.6,49.6 26.3,49.6 23,52.6 23,55.6 34,55.6 34,52.6 "/>
<polygon fill="#ffffff" points="52.6,49.6 48.3,49.6 45,52.6 45,55.6 56,55.6 56,52.6 "/>
<rect fill="#ffffff" x="4" y="22.1" width="57" height="4"/>
<rect fill="#ffffff" x="27" y="11.6" width="3" height="40"/>
<rect fill="#ffffff" x="49" y="28.6" width="3" height="22.5"/>
<polygon fill="#ffffff" points="56.8,25.4 28.6,12.8 9.1,25.3 7.5,22.8 28.3,9.3 58.1,22.7 "/>
<rect fill="#ffffff" x="38" y="22.9" transform="matrix(0.4299 -0.9029 0.9029 0.4299 -8.7013 55.3217)" width="3" height="23.3"/>
<rect fill="#ffffff" x="28.5" y="44.6" width="22" height="3"/>
<rect fill="#ffffff" x="6.5" y="29.1" width="5.5" height="7.5"/>
<g>
	<polygon fill="#ffffff" points="-141.8,325.6 -146.5,325.6 -151.1,329.8 -151.1,334 -137.1,334 -137.1,329.8 	"/>
	<path fill="#ffffff" d="M-145.1,354.8h-24v-14h24V354.8z M-166.1,351.8h18v-8h-18V351.8z"/>
	<path fill="#ffffff" d="M-119.1,354.8h-25v-14h25V354.8z M-141.1,351.8h19v-8h-19V351.8z"/>
	<polygon fill="#ffffff" points="-115.1,347.3 -118.1,347.3 -118.1,338.8 -170.1,338.8 -170.1,347.3 -173.1,347.3 -173.1,335.8 -115.1,335.8 	"/>
	<rect fill="#ffffff" x="-164.6" y="345.8" width="2" height="4.5"/>
	<rect fill="#ffffff" x="-151.6" y="345.8" width="2" height="4.5"/>
	<rect fill="#ffffff" x="-157.6" y="345.8" width="2" height="4.5"/>
	<rect fill="#ffffff" x="-139.6" y="345.8" width="2" height="4.5"/>
	<rect fill="#ffffff" x="-126.6" y="345.8" width="2" height="4.5"/>
	<rect fill="#ffffff" x="-132.6" y="345.8" width="2" height="4.5"/>
	<rect fill="#ffffff" x="-145.1" y="314.8" width="2" height="12"/>
</g>
<path fill="#ffffff" d="M-330.8,212.8c-3,0-5.5-2.5-5.5-5.5s2.5-5.5,5.5-5.5c3,0,5.5,2.5,5.5,5.5S-327.8,212.8-330.8,212.8z M-330.8,204.8
	c-1.4,0-2.5,1.1-2.5,2.5s1.1,2.5,2.5,2.5c1.4,0,2.5-1.1,2.5-2.5S-329.5,204.8-330.8,204.8z"/>
<path fill="#ffffff" d="M-298.8,212.8c-3,0-5.5-2.5-5.5-5.5s2.5-5.5,5.5-5.5c3,0,5.5,2.5,5.5,5.5S-295.8,212.8-298.8,212.8z M-298.8,204.8
	c-1.4,0-2.5,1.1-2.5,2.5s1.1,2.5,2.5,2.5c1.4,0,2.5-1.1,2.5-2.5S-297.5,204.8-298.8,204.8z"/>
<polygon fill="#ffffff" points="-293.3,192.8 -296.3,192.8 -296.3,175.8 -304.7,175.8 -315.3,186.4 -315.3,192.8 -318.3,192.8 -318.3,185.2 
	-306,172.8 -293.3,172.8 "/>
<rect fill="#ffffff" x="-337.3" y="164.8" width="3" height="39"/>
<polygon fill="#ffffff" points="-323.7,203.8 -334.3,203.8 -334.3,200.8 -326,200.8 -323.5,190.8 -293.3,190.8 -293.3,202.3 -296.3,202.3 
	-296.3,193.8 -321.2,193.8 "/>
<polygon fill="#ffffff" points="-299.3,190.8 -308.8,190.8 -308.8,187.8 -302.3,187.8 -302.3,181.3 -299.3,181.3 "/>
<rect fill="#ffffff" x="-316.8" y="200.8" width="22" height="3"/>
<rect fill="#ffffff" x="-334.3" y="187.7" transform="matrix(0.9285 -0.3714 0.3714 0.9285 -96.519 -109.6075)" width="3" height="16.2"/>
<polygon fill="#ffffff" points="-338.3,182.8 -345.8,182.8 -345.8,179.8 -341.3,179.8 -341.3,167.8 -345.8,167.8 -345.8,164.8 -338.3,164.8 "/>
<g>
	<path fill="#ffffff" d="M-509.2,48.7c-3,0-5.5-2.5-5.5-5.5s2.5-5.5,5.5-5.5c3,0,5.5,2.5,5.5,5.5S-506.2,48.7-509.2,48.7z M-509.2,40.7
		c-1.4,0-2.5,1.1-2.5,2.5c0,1.4,1.1,2.5,2.5,2.5c1.4,0,2.5-1.1,2.5-2.5C-506.7,41.9-507.8,40.7-509.2,40.7z"/>
	<path fill="#ffffff" d="M-477.2,48.7c-3,0-5.5-2.5-5.5-5.5s2.5-5.5,5.5-5.5c3,0,5.5,2.5,5.5,5.5S-474.2,48.7-477.2,48.7z M-477.2,40.7
		c-1.4,0-2.5,1.1-2.5,2.5c0,1.4,1.1,2.5,2.5,2.5c1.4,0,2.5-1.1,2.5-2.5C-474.7,41.9-475.8,40.7-477.2,40.7z"/>
	<polygon fill="#ffffff" points="-481.2,44.7 -499.7,44.7 -499.7,15.7 -507.9,15.7 -518.7,33.7 -518.7,42.7 -521.7,42.7 -521.7,32.8 -509.5,12.7 
		-496.7,12.7 -496.7,41.7 -481.2,41.7 	"/>
	<polygon fill="#ffffff" points="-502.7,30.7 -512.2,30.7 -512.2,27.7 -505.7,27.7 -505.7,21.2 -502.7,21.2 	"/>
	<rect fill="#ffffff" x="-519.7" y="39.7" width="3" height="3"/>
	<polygon fill="#ffffff" points="-465.7,44.7 -473.2,44.7 -473.2,41.7 -468.7,41.7 -468.7,35.2 -498.2,35.2 -498.2,32.2 -465.7,32.2 	"/>
</g>
<polygon fill="#ffffff" points="-658.1,174.3 -660.4,174.3 -660.4,172 -666.3,172 -666.3,174.3 -668.6,174.3 -668.6,169.7 -658.1,169.7 "/>
<path fill="#ffffff" d="M-660.6,168.8h-5.5l-2.2-5.5h9.8L-660.6,168.8z M-664.7,166.8h2.7l0.5-1.4h-3.8L-664.7,166.8z"/>
<g>
	<path fill="#ffffff" d="M-684.3,210.6c-3,0-5.5-2.5-5.5-5.5s2.5-5.5,5.5-5.5c3,0,5.5,2.5,5.5,5.5S-681.3,210.6-684.3,210.6z M-684.3,202.6
		c-1.4,0-2.5,1.1-2.5,2.5c0,1.4,1.1,2.5,2.5,2.5c1.4,0,2.5-1.1,2.5-2.5C-681.8,203.7-683,202.6-684.3,202.6z"/>
	<path fill="#ffffff" d="M-671.3,210.6c-3,0-5.5-2.5-5.5-5.5s2.5-5.5,5.5-5.5c3,0,5.5,2.5,5.5,5.5S-668.3,210.6-671.3,210.6z M-671.3,202.6
		c-1.4,0-2.5,1.1-2.5,2.5c0,1.4,1.1,2.5,2.5,2.5c1.4,0,2.5-1.1,2.5-2.5C-668.8,203.7-670,202.6-671.3,202.6z"/>
	<path fill="#ffffff" d="M-654.3,210.6c-3,0-5.5-2.5-5.5-5.5s2.5-5.5,5.5-5.5c3,0,5.5,2.5,5.5,5.5S-651.3,210.6-654.3,210.6z M-654.3,202.6
		c-1.4,0-2.5,1.1-2.5,2.5c0,1.4,1.1,2.5,2.5,2.5c1.4,0,2.5-1.1,2.5-2.5C-651.8,203.7-653,202.6-654.3,202.6z"/>
	<path fill="#ffffff" d="M-642.3,210.6c-3,0-5.5-2.5-5.5-5.5s2.5-5.5,5.5-5.5c3,0,5.5,2.5,5.5,5.5S-639.3,210.6-642.3,210.6z M-642.3,202.6
		c-1.4,0-2.5,1.1-2.5,2.5c0,1.4,1.1,2.5,2.5,2.5c1.4,0,2.5-1.1,2.5-2.5C-639.8,203.7-641,202.6-642.3,202.6z"/>
	<polygon fill="#ffffff" points="-635.3,201.1 -638.3,201.1 -638.3,197.1 -688.3,197.1 -688.3,201.1 -691.3,201.1 -691.3,194.1 -635.3,194.1 	"/>
	<polygon fill="#ffffff" points="-650.7,192.3 -654,192.3 -654,161.2 -672.7,161.2 -672.7,192.3 -676,192.3 -676,157.9 -650.7,157.9 	"/>
	<rect fill="#ffffff" x="-683.3" y="158.1" width="6" height="8"/>
	<rect fill="#ffffff" x="-666.8" y="196.1" width="7" height="2.9"/>
</g>
<g>
	<polygon fill="#ffffff" points="-663.5,449.7 -668.2,449.7 -672.8,453.9 -672.8,458.1 -658.8,458.1 -658.8,453.9 	"/>
	<rect fill="#ffffff" x="-666.8" y="443.2" width="2" height="7.7"/>
</g>
<g>
	<path fill="#ffffff" d="M-668.8,506h-19v-23h19V506z M-684.8,503h13v-17h-13V503z"/>
	<rect fill="#ffffff" x="-676.3" y="490" width="2" height="10"/>
	<rect fill="#ffffff" x="-682.3" y="490" width="2" height="10"/>
	<path fill="#ffffff" d="M-643.8,506h-19v-23h19V506z M-659.8,503h13v-17h-13V503z"/>
	<rect fill="#ffffff" x="-651.3" y="490" width="2" height="10"/>
	<rect fill="#ffffff" x="-657.3" y="490" width="2" height="10"/>
	<polygon fill="#ffffff" points="-673.8,478 -673.8,476 -682.8,476 -682.8,478 -687.8,478 -687.8,482 -682.8,482 -673.8,482 -668.8,482 -668.8,478 
			"/>
	<polygon fill="#ffffff" points="-648.8,478 -648.8,476 -657.8,476 -657.8,478 -662.8,478 -662.8,482 -657.8,482 -648.8,482 -643.8,482 -643.8,478 
			"/>
	<polygon fill="#ffffff" points="-651.3,475 -654.3,475 -654.3,464.5 -677.3,464.5 -677.3,475 -680.3,475 -680.3,461.5 -651.3,461.5 	"/>
	<rect fill="#ffffff" x="-675.3" y="466.5" width="19" height="3.5"/>
</g>
<text transform="matrix(1 0 0 1 -488.8389 25.9868)" font-family="'MyriadPro-Semibold'" font-size="14px">Y</text>
<text transform="matrix(1 0 0 1 -480.5654 25.9868)" font-family="'MyriadPro-Semibold'" font-size="14px">T</text>
</svg>
