<?xml version="1.0" encoding="utf-8"?>
<!-- Generator: Adobe Illustrator 22.0.1, SVG Export Plug-In . SVG Version: 6.00 Build 0)  -->
<svg version="1.2" baseProfile="tiny" id="레이어_1"
	 xmlns="http://www.w3.org/2000/svg" xmlns:xlink="http://www.w3.org/1999/xlink" x="0px" y="0px" viewBox="0 0 64 64"
	 xml:space="preserve">
<rect x="-121.4" y="113.5" fill="none" stroke="#000000" stroke-miterlimit="10" width="64" height="64"/>
<rect x="-643.5" y="264.9" fill="none" stroke="#000000" stroke-miterlimit="10" width="64" height="64"/>
<g>
	<path d="M-644.1,200.4v3.7h-1.2v-3.7h-4.7v-1h10.6v1H-644.1z M-648.5,198.2V194h7.7v4.2H-648.5z M-642,195.1h-5.3v2.1h5.3V195.1z"
		/>
	<path d="M-633.4,198.5c-0.5,0.5-1.3,0.8-2.1,0.8c-0.8,0-1.5-0.3-2.1-0.8c-0.5-0.5-0.8-1.2-0.8-1.9c0-0.7,0.3-1.4,0.8-1.9
		c0.5-0.5,1.2-0.8,2.1-0.8c0.9,0,1.6,0.3,2.1,0.8c0.5,0.5,0.8,1.2,0.8,1.9C-632.5,197.4-632.8,198-633.4,198.5z M-634.2,195.5
		c-0.3-0.3-0.7-0.5-1.3-0.5c-0.5,0-1,0.2-1.2,0.5c-0.3,0.3-0.4,0.7-0.4,1.2c0,0.4,0.1,0.8,0.4,1.2c0.3,0.3,0.7,0.5,1.2,0.5
		c0.5,0,1-0.2,1.3-0.5c0.3-0.3,0.4-0.7,0.4-1.2C-633.8,196.2-633.9,195.8-634.2,195.5z M-636.7,203.9v-3.3h1.2v2.3h6.6v1H-636.7z
		 M-630.4,201.2v-7.6h1.2v7.6H-630.4z"/>
	<path d="M-627.9,202.7v-1h10.6v1H-627.9z M-626.4,200.3v-5.6h7.8v1h-6.6v1.3h6.5v1h-6.5v1.3h6.6v1H-626.4z"/>
	<path d="M-611.4,199.7c-0.7,0.1-1.4,0.1-2.1,0.1l-2.5,0v-3.3h3.9v-1.4h-3.9v-1h5.1v3.3h-3.9v1.3l1.7,0c0.5,0,1.1,0,1.8-0.1
		c0.7,0,1.2-0.1,1.5-0.1v1C-610.2,199.6-610.7,199.6-611.4,199.7z M-608.5,204.1v-2.4h-6.6v-1h7.8v3.4H-608.5z M-608.4,200.1v-3
		h-1.9v-1h1.9v-2.5h1.2v6.6H-608.4z"/>
	<path d="M-603.5,204.7c-0.4-0.6-0.9-1.4-1.4-2.4c-0.5-1-0.7-2.1-0.7-3.4c0-1.3,0.2-2.5,0.7-3.4c0.5-1,0.9-1.8,1.4-2.4h0.9
		c-0.6,1.1-1.1,2.1-1.4,3c-0.3,0.9-0.4,1.9-0.4,2.8c0,0.9,0.1,1.8,0.4,2.8c0.3,0.9,0.7,2,1.4,3H-603.5z"/>
	<path d="M-595.2,203.1l-0.9-2.1h-4.3l-0.9,2.1h-1.2l3.5-8.5h1.3l3.5,8.5H-595.2z M-598.2,195.7l-1.7,4.2h3.4L-598.2,195.7z"/>
	<path d="M-587.7,203.1l0-1.1c-0.2,0.3-0.6,0.6-1.1,0.9c-0.5,0.3-1,0.4-1.6,0.4c-1.2,0-2.2-0.4-2.9-1.2c-0.7-0.8-1-1.9-1-3.3
		c0-1.3,0.3-2.4,1-3.2c0.7-0.8,1.7-1.2,2.9-1.2c1.1,0,2,0.3,2.6,0.9s0.9,1.2,1.1,1.8l-1.2,0c-0.1-0.4-0.4-0.8-0.8-1.1
		c-0.4-0.4-0.9-0.6-1.7-0.6c-0.9,0-1.6,0.3-2,0.9c-0.5,0.6-0.7,1.5-0.7,2.5c0,1,0.2,1.9,0.7,2.5c0.5,0.7,1.1,1,2,1
		c0.8,0,1.4-0.3,1.9-0.8c0.5-0.5,0.7-1.1,0.8-1.8l-2.5,0v-0.9h3.6v4.3H-587.7z"/>
	<path d="M-581.5,203.1h-1.3l-3.4-8.5h1.2l2.9,7.2l2.9-7.2h1.1L-581.5,203.1z"/>
	<path d="M-576.5,201.6c0.3-0.9,0.4-1.9,0.4-2.8c0-0.9-0.1-1.8-0.4-2.8c-0.3-0.9-0.7-2-1.4-3h0.9c0.4,0.6,0.9,1.4,1.4,2.4
		c0.5,1,0.7,2.1,0.7,3.4c0,1.3-0.2,2.5-0.7,3.4c-0.5,1-0.9,1.8-1.4,2.4h-0.9C-577.2,203.6-576.7,202.6-576.5,201.6z"/>
</g>
<g>
	<path d="M-143.8,202.7v-1h10.6v1H-143.8z M-142.3,200.3v-5.6h7.8v1h-6.6v1.3h6.5v1h-6.5v1.3h6.6v1H-142.3z"/>
	<path d="M-126.3,199c-0.8,0.1-1.5,0.1-2.1,0.1v1.6h-1.2v-1.6h-2.8v-1h3.7c0.6,0,1.4,0,2.3-0.1c1-0.1,1.6-0.2,1.8-0.2v1
		C-124.9,198.9-125.5,198.9-126.3,199z M-126.5,194c0.5,0.4,0.7,0.8,0.7,1.4c0,0.5-0.2,1-0.7,1.4c-0.5,0.4-1.2,0.6-2.1,0.6
		c-0.9,0-1.6-0.2-2.1-0.6c-0.5-0.4-0.7-0.8-0.7-1.4c0-0.5,0.2-1,0.7-1.3c0.5-0.4,1.2-0.6,2.1-0.6C-127.7,193.5-127,193.7-126.5,194z
		 M-130.6,203.9v-2.7h1.2v1.7h6.8v1H-130.6z M-129.9,194.7c-0.3,0.2-0.4,0.4-0.4,0.6c0,0.2,0.1,0.4,0.4,0.6c0.3,0.2,0.7,0.3,1.3,0.3
		c0.6,0,1-0.1,1.3-0.3c0.3-0.2,0.4-0.4,0.4-0.6c0-0.2-0.1-0.4-0.4-0.6c-0.3-0.2-0.7-0.3-1.3-0.3
		C-129.2,194.4-129.6,194.5-129.9,194.7z M-124.1,201.6v-8.1h1.2v8.1H-124.1z"/>
	<path d="M-119.4,204.7c-0.4-0.6-0.9-1.4-1.4-2.4c-0.5-1-0.7-2.1-0.7-3.4c0-1.3,0.2-2.5,0.7-3.4c0.5-1,0.9-1.8,1.4-2.4h0.9
		c-0.6,1.1-1.1,2.1-1.4,3c-0.3,0.9-0.4,1.9-0.4,2.8c0,0.9,0.1,1.8,0.4,2.8c0.3,0.9,0.7,2,1.4,3H-119.4z"/>
	<path d="M-114.1,195.6v7.5h-1.1v-7.5h-2.8v-1h6.8v1H-114.1z"/>
	<path d="M-105.2,203.1h-1.2l-1.2-4.3h-0.1l-1.2,4.3h-1.2l-1.8-6.2h1.1l1.3,4.6h0.1l1.2-4.6h1.2l1.2,4.6h0.1l1.3-4.6h1.1
		L-105.2,203.1z"/>
	<path d="M-102.5,195.6v-1.1h1.1v1.1H-102.5z M-102.5,203.1v-6.2h1.1v6.2H-102.5z"/>
	<path d="M-95.6,203.1v-3.7c0-0.6-0.1-1-0.4-1.2c-0.2-0.2-0.6-0.4-1.1-0.4c-0.5,0-0.9,0.2-1.3,0.5c-0.3,0.3-0.5,0.8-0.5,1.3v3.5
		h-1.1V197h1.1v0.7c0.3-0.3,0.6-0.5,1-0.7c0.4-0.2,0.9-0.3,1.4-0.2c0.7,0.1,1.1,0.4,1.4,0.8c0.3,0.5,0.4,0.9,0.4,1.3v4.2H-95.6z"/>
	<path d="M-83,199.7c0.3,0.4,0.4,0.9,0.3,1.4c-0.1,0.7-0.4,1.2-0.9,1.7c-0.5,0.5-1.3,0.7-2.4,0.7c-1.1,0-2-0.3-2.5-1
		c-0.5-0.7-0.8-1.4-0.9-2.1h1.2c0,0.7,0.3,1.2,0.7,1.6c0.4,0.4,0.9,0.6,1.6,0.6c0.6,0,1.1-0.1,1.5-0.4c0.3-0.3,0.5-0.6,0.6-1.1
		c0.1-0.3,0-0.6-0.2-0.8c-0.2-0.2-0.4-0.4-0.8-0.6c-0.4-0.2-0.8-0.3-1.2-0.3c-0.4,0-0.9-0.1-1.3-0.3c-0.6-0.2-1-0.5-1.3-0.8
		c-0.3-0.3-0.4-0.8-0.4-1.4c0-0.6,0.3-1.1,0.8-1.6c0.5-0.5,1.3-0.8,2.3-0.8c1.2,0,2,0.3,2.4,1c0.4,0.7,0.7,1.2,0.7,1.7l-1.2,0
		c0-0.5-0.2-0.9-0.5-1.2c-0.3-0.3-0.8-0.5-1.5-0.5c-0.6,0-1.1,0.2-1.4,0.5c-0.3,0.3-0.4,0.6-0.4,1c0,0.4,0.1,0.7,0.3,0.8
		c0.2,0.2,0.5,0.3,0.7,0.4c0.3,0.1,0.7,0.2,1.2,0.3c0.5,0.1,1,0.2,1.4,0.4C-83.7,198.9-83.3,199.2-83,199.7z"/>
	<path d="M-76.4,197.6c0.6,0.6,0.8,1.4,0.8,2.4c0,1-0.3,1.8-0.8,2.4c-0.6,0.6-1.3,0.9-2.1,0.9c-0.4,0-0.8-0.1-1.1-0.2
		c-0.4-0.2-0.7-0.4-1-0.7v2.4h-1.1V197h1.1v0.6c0.3-0.3,0.6-0.5,1-0.6c0.4-0.2,0.7-0.2,1.1-0.2C-77.7,196.7-77,197-76.4,197.6z
		 M-77.3,201.8c0.4-0.4,0.5-1,0.5-1.8c0-0.8-0.2-1.3-0.5-1.7c-0.4-0.4-0.8-0.6-1.5-0.6c-0.6,0-1.1,0.2-1.5,0.6
		c-0.3,0.4-0.5,1-0.5,1.7c0,0.8,0.2,1.3,0.5,1.8c0.3,0.4,0.8,0.6,1.5,0.6C-78.1,202.4-77.6,202.2-77.3,201.8z"/>
	<path d="M-71.4,197.9c-0.2,0-0.4,0-0.6,0c-0.2,0-0.3,0.1-0.5,0.1c-0.4,0.2-0.6,0.4-0.8,0.8c-0.2,0.3-0.3,0.8-0.3,1.4v2.9h-1.1V197
		h1.1v0.9l0.1,0c0.1-0.2,0.3-0.4,0.5-0.6c0.2-0.1,0.4-0.3,0.6-0.4c0.2-0.1,0.4-0.1,0.6-0.1c0.2,0,0.3,0,0.3,0V197.9z"/>
	<path d="M-70.3,200.4c0,0.6,0.2,1.1,0.6,1.5c0.4,0.4,0.8,0.6,1.4,0.6c0.5,0,0.9-0.1,1.2-0.3c0.3-0.2,0.4-0.4,0.5-0.6h1.2
		c-0.1,0.4-0.4,0.8-0.9,1.2c-0.4,0.4-1.1,0.6-1.9,0.6c-0.9,0-1.6-0.3-2.2-0.9c-0.6-0.6-0.9-1.4-0.9-2.3c0-0.9,0.3-1.7,0.8-2.3
		c0.6-0.6,1.3-0.9,2.2-0.9c0.8,0,1.6,0.3,2.2,0.8c0.6,0.6,0.9,1.5,0.9,2.7H-70.3z M-66.4,199.5c0-0.6-0.2-1-0.6-1.4
		c-0.3-0.3-0.8-0.5-1.4-0.5c-0.5,0-1,0.2-1.3,0.5c-0.3,0.3-0.6,0.8-0.6,1.4H-66.4z"/>
	<path d="M-59.9,203.1c-0.1-0.1-0.1-0.3-0.1-0.4c0-0.2,0-0.3-0.1-0.5c-0.2,0.3-0.6,0.5-1,0.7c-0.4,0.2-0.8,0.3-1.3,0.4
		c-0.6,0-1.2-0.1-1.6-0.3c-0.5-0.2-0.7-0.7-0.8-1.2c-0.1-0.6,0-1,0.3-1.3c0.3-0.3,0.7-0.5,1.1-0.7c0.4-0.1,0.8-0.2,1.2-0.2
		c0.4,0,0.8-0.1,1.2-0.1c0.2,0,0.4-0.1,0.6-0.1c0.2-0.1,0.3-0.2,0.3-0.5c0-0.3-0.1-0.5-0.4-0.8c-0.2-0.2-0.7-0.4-1.2-0.4
		c-0.6,0-1,0.1-1.3,0.3c-0.3,0.2-0.4,0.5-0.3,0.8h-1.1c-0.1-0.7,0.2-1.2,0.7-1.5c0.6-0.4,1.2-0.5,2-0.5c0.7,0,1.3,0.2,1.9,0.5
		c0.6,0.4,0.8,0.9,0.8,1.5v3.4c0,0.3,0,0.5,0.1,0.7c0.1,0.2,0.1,0.3,0.1,0.3H-59.9z M-60.1,199.9c-0.1,0.1-0.2,0.1-0.3,0.2
		c-0.1,0.1-0.2,0.1-0.4,0.1c-0.2,0.1-0.6,0.1-1,0.1c-0.4,0-0.7,0.1-0.9,0.1c-0.4,0.1-0.6,0.3-0.8,0.4c-0.2,0.2-0.3,0.4-0.2,0.7
		c0,0.3,0.2,0.5,0.5,0.7c0.3,0.1,0.6,0.2,0.9,0.1c0.7,0,1.3-0.3,1.6-0.6c0.4-0.4,0.6-0.7,0.6-1V199.9z"/>
	<path d="M-52.9,203.1v-0.7c-0.3,0.3-0.6,0.5-0.9,0.7c-0.4,0.2-0.7,0.2-1.1,0.2c-0.9,0-1.6-0.3-2.2-0.9c-0.5-0.6-0.8-1.4-0.8-2.4
		c0-1,0.3-1.8,0.8-2.4c0.5-0.6,1.3-0.9,2.2-0.9c0.4,0,0.8,0.1,1.1,0.2c0.4,0.2,0.7,0.4,0.9,0.7v-3h1.1v8.5H-52.9z M-53.4,201.7
		c0.3-0.4,0.5-1,0.5-1.7s-0.2-1.3-0.5-1.7c-0.3-0.4-0.8-0.6-1.4-0.6c-0.6,0-1.1,0.2-1.4,0.6c-0.3,0.4-0.5,1-0.5,1.6
		c0,0.7,0.2,1.2,0.5,1.7c0.3,0.4,0.8,0.6,1.4,0.6C-54.3,202.3-53.8,202.1-53.4,201.7z"/>
	<path d="M-49.7,200.4c0,0.6,0.2,1.1,0.6,1.5c0.4,0.4,0.8,0.6,1.4,0.6c0.5,0,0.9-0.1,1.2-0.3c0.3-0.2,0.4-0.4,0.5-0.6h1.2
		c-0.1,0.4-0.4,0.8-0.9,1.2c-0.4,0.4-1.1,0.6-1.9,0.6c-0.9,0-1.6-0.3-2.2-0.9c-0.6-0.6-0.9-1.4-0.9-2.3c0-0.9,0.3-1.7,0.8-2.3
		c0.6-0.6,1.3-0.9,2.2-0.9c0.8,0,1.6,0.3,2.2,0.8c0.6,0.6,0.9,1.5,0.9,2.7H-49.7z M-45.8,199.5c0-0.6-0.2-1-0.6-1.4
		c-0.3-0.3-0.8-0.5-1.4-0.5c-0.5,0-1,0.2-1.3,0.5c-0.3,0.3-0.6,0.8-0.6,1.4H-45.8z"/>
	<path d="M-40.5,197.9c-0.2,0-0.4,0-0.6,0c-0.2,0-0.3,0.1-0.5,0.1c-0.4,0.2-0.6,0.4-0.8,0.8c-0.2,0.3-0.3,0.8-0.3,1.4v2.9h-1.1V197
		h1.1v0.9l0.1,0c0.1-0.2,0.3-0.4,0.5-0.6c0.2-0.1,0.4-0.3,0.6-0.4c0.2-0.1,0.4-0.1,0.6-0.1c0.2,0,0.3,0,0.3,0V197.9z"/>
	<path d="M-38.6,201.6c0.3-0.9,0.4-1.9,0.4-2.8c0-0.9-0.1-1.8-0.4-2.8c-0.3-0.9-0.7-2-1.4-3h0.9c0.4,0.6,0.9,1.4,1.4,2.4
		c0.5,1,0.7,2.1,0.7,3.4c0,1.3-0.2,2.5-0.7,3.4c-0.5,1-0.9,1.8-1.4,2.4H-40C-39.3,203.6-38.9,202.6-38.6,201.6z"/>
</g>
<g>
	<path d="M-298.6,202.3c-0.8,0.1-1.6,0.1-2.3,0.1h-3.6v-1h3.2v-2.1c-0.7-0.1-1.3-0.4-1.8-0.9c-0.4-0.5-0.7-1-0.7-1.7
		c0-0.7,0.3-1.3,0.8-1.8c0.6-0.5,1.3-0.8,2.2-0.8c0.9,0,1.6,0.3,2.2,0.8c0.6,0.5,0.8,1.1,0.8,1.8c0,0.6-0.2,1.2-0.7,1.6
		c-0.4,0.5-1,0.8-1.7,0.9v2c0.3,0,0.9,0,1.6-0.1c0.7,0,1.3-0.1,1.8-0.2v1.1C-297.2,202.1-297.8,202.2-298.6,202.3z M-299.4,195.6
		c-0.3-0.3-0.8-0.5-1.4-0.5c-0.6,0-1,0.2-1.3,0.5c-0.3,0.3-0.5,0.7-0.5,1.1c0,0.4,0.2,0.8,0.5,1.1c0.3,0.3,0.8,0.5,1.3,0.5
		c0.6,0,1-0.2,1.3-0.5c0.3-0.3,0.5-0.7,0.5-1.1C-298.9,196.3-299.1,195.9-299.4,195.6z M-296.3,204.1v-10.6h1.2v10.6H-296.3z"/>
	<path d="M-288,200.7v3.5h-1.2v-3.5h-4.7v-1h10.6v1H-288z M-292.5,198.5v-4.7h1.2v1.3h5.4v-1.3h1.2v4.7H-292.5z M-285.9,196.1h-5.4
		v1.4h5.4V196.1z"/>
	<path d="M-282.8,202.7v-1h10.6v1H-282.8z M-281.4,200.3v-5.6h7.8v1h-6.6v1.3h6.5v1h-6.5v1.3h6.6v1H-281.4z"/>
	<path d="M-266.4,199.7c-0.7,0.1-1.4,0.1-2.1,0.1l-2.5,0v-3.3h3.9v-1.4h-3.9v-1h5.1v3.3h-3.9v1.3l1.7,0c0.5,0,1.1,0,1.8-0.1
		c0.7,0,1.2-0.1,1.5-0.1v1C-265.1,199.6-265.7,199.6-266.4,199.7z M-263.4,204.1v-2.4h-6.6v-1h7.8v3.4H-263.4z M-263.4,200.1v-3
		h-1.9v-1h1.9v-2.5h1.2v6.6H-263.4z"/>
	<path d="M-258.4,204.7c-0.4-0.6-0.9-1.4-1.4-2.4c-0.5-1-0.7-2.1-0.7-3.4c0-1.3,0.2-2.5,0.7-3.4c0.5-1,0.9-1.8,1.4-2.4h0.9
		c-0.6,1.1-1.1,2.1-1.4,3c-0.3,0.9-0.4,1.9-0.4,2.8c0,0.9,0.1,1.8,0.4,2.8c0.3,0.9,0.7,2,1.4,3H-258.4z"/>
	<path d="M-253.2,195.6v7.5h-1.1v-7.5h-2.8v-1h6.8v1H-253.2z"/>
	<path d="M-247.1,197.9c-0.2,0-0.4,0-0.6,0c-0.2,0-0.3,0.1-0.5,0.1c-0.4,0.2-0.6,0.4-0.8,0.8c-0.2,0.3-0.3,0.8-0.3,1.4v2.9h-1.1V197
		h1.1v0.9l0.1,0c0.1-0.2,0.3-0.4,0.5-0.6c0.2-0.1,0.4-0.3,0.6-0.4c0.2-0.1,0.4-0.1,0.6-0.1c0.2,0,0.3,0,0.3,0V197.9z"/>
	<path d="M-242,203.1v-0.8c-0.2,0.3-0.5,0.5-0.8,0.7c-0.4,0.2-0.8,0.3-1.3,0.3c-0.5,0-1-0.2-1.5-0.6c-0.5-0.4-0.7-1-0.7-1.7V197h1.1
		v3.7c0,0.6,0.1,1,0.4,1.2c0.3,0.3,0.6,0.4,1.1,0.4c0.5,0,0.9-0.2,1.2-0.5s0.5-0.8,0.5-1.3V197h1.1v6.2H-242z"/>
	<path d="M-233.9,201.2c-0.1,0.6-0.5,1.1-0.9,1.5c-0.5,0.4-1.1,0.7-2,0.7c-1,0-1.7-0.3-2.3-0.9c-0.6-0.6-0.8-1.4-0.8-2.4
		c0-1,0.3-1.7,0.8-2.4c0.6-0.6,1.3-0.9,2.3-0.9c0.8,0,1.5,0.2,2,0.7c0.5,0.5,0.8,1,0.9,1.5h-1.2c-0.1-0.3-0.2-0.5-0.5-0.8
		c-0.3-0.3-0.7-0.4-1.2-0.4c-0.6,0-1.1,0.2-1.4,0.7c-0.3,0.4-0.5,1-0.5,1.7c0,0.7,0.2,1.3,0.5,1.7c0.3,0.4,0.8,0.7,1.4,0.7
		c0.5,0,0.8-0.1,1.1-0.4c0.3-0.2,0.5-0.5,0.6-0.8H-233.9z"/>
	<path d="M-228.4,203.1l-2.6-3.1l-0.9,0.7v2.4h-1.1v-8.5h1.1v4.9l2.8-2.6h1.4l-2.6,2.5l3.2,3.7H-228.4z"/>
	<path d="M-225.5,201.6c0.3-0.9,0.4-1.9,0.4-2.8c0-0.9-0.1-1.8-0.4-2.8c-0.3-0.9-0.7-2-1.4-3h0.9c0.4,0.6,0.9,1.4,1.4,2.4
		c0.5,1,0.7,2.1,0.7,3.4c0,1.3-0.2,2.5-0.7,3.4c-0.5,1-0.9,1.8-1.4,2.4h-0.9C-226.2,203.6-225.8,202.6-225.5,201.6z"/>
</g>
<g>
	<path d="M-495.9,202.1c-0.5-0.2-1-0.6-1.6-1.3c-0.6-0.6-1-1.3-1.3-1.9c-0.2,0.6-0.6,1.2-1.2,1.9c-0.6,0.7-1.2,1.2-1.7,1.5l-1-0.8
		c1.1-0.6,1.9-1.4,2.4-2.4c0.5-1,0.7-2.1,0.7-3.4v-1.7h1.3v1.7c0,1.3,0.3,2.4,0.8,3.2c0.5,0.8,1.3,1.6,2.3,2.2L-495.9,202.1z
		 M-493,200.3v3.9h-1.2v-10.6h1.2v2.6h1.6v1.1h-1.6v2h1.6v1.1H-493z"/>
	<path d="M-484.6,202.1c-0.5-0.2-1-0.6-1.6-1.3c-0.6-0.6-1-1.3-1.3-1.9c-0.2,0.6-0.6,1.2-1.2,1.9c-0.6,0.7-1.2,1.2-1.7,1.5l-1-0.8
		c1.1-0.6,1.9-1.4,2.4-2.4c0.5-1,0.7-2.1,0.7-3.4v-1.7h1.3v1.7c0,1.3,0.3,2.4,0.8,3.2c0.5,0.8,1.3,1.6,2.3,2.2L-484.6,202.1z
		 M-482.7,204.1v-10.6h1.2v10.6H-482.7z"/>
	<path d="M-477.9,204.7c-0.4-0.6-0.9-1.4-1.4-2.4c-0.5-1-0.7-2.1-0.7-3.4c0-1.3,0.2-2.5,0.7-3.4c0.5-1,0.9-1.8,1.4-2.4h0.9
		c-0.6,1.1-1.1,2.1-1.4,3c-0.3,0.9-0.4,1.9-0.4,2.8c0,0.9,0.1,1.8,0.4,2.8c0.3,0.9,0.7,2,1.4,3H-477.9z"/>
	<path d="M-469.9,197.1c-0.1-0.4-0.4-0.8-0.8-1.1c-0.4-0.4-0.9-0.6-1.7-0.6c-0.8,0-1.5,0.3-2,0.9c-0.5,0.6-0.7,1.5-0.7,2.5
		c0,1.1,0.2,1.9,0.7,2.6c0.5,0.6,1.1,1,2,1c0.7,0,1.3-0.2,1.7-0.6c0.4-0.4,0.6-0.8,0.8-1.3l1.2,0c-0.2,0.6-0.5,1.3-1.1,1.9
		c-0.6,0.7-1.4,1-2.6,1c-1.2,0-2.2-0.4-2.9-1.2c-0.7-0.8-1-1.9-1-3.3c0-1.3,0.3-2.4,1-3.2c0.7-0.8,1.7-1.2,2.9-1.2
		c1.1,0,2,0.3,2.6,0.9c0.6,0.6,0.9,1.2,1.1,1.8H-469.9z"/>
	<path d="M-462.5,197.7c0.6,0.6,0.8,1.4,0.8,2.4c0,1-0.3,1.7-0.8,2.4c-0.6,0.6-1.3,0.9-2.3,0.9c-1,0-1.7-0.3-2.3-0.9
		c-0.6-0.6-0.8-1.4-0.8-2.4c0-1,0.3-1.7,0.8-2.4c0.6-0.6,1.3-0.9,2.3-0.9C-463.9,196.7-463.1,197-462.5,197.7z M-463.4,201.8
		c0.4-0.4,0.6-1,0.6-1.8c0-0.7-0.2-1.3-0.6-1.7c-0.4-0.4-0.8-0.7-1.4-0.7c-0.6,0-1.1,0.2-1.5,0.7c-0.4,0.4-0.5,1-0.5,1.7
		c0,0.7,0.2,1.3,0.5,1.8c0.4,0.4,0.8,0.7,1.5,0.7C-464.2,202.5-463.8,202.2-463.4,201.8z"/>
	<path d="M-456.5,203.1v-3.7c0-0.6-0.1-1-0.4-1.2c-0.2-0.2-0.6-0.4-1.1-0.4c-0.5,0-0.9,0.2-1.3,0.5c-0.3,0.3-0.5,0.8-0.5,1.3v3.5
		h-1.1V197h1.1v0.7c0.3-0.3,0.6-0.5,1-0.7c0.4-0.2,0.9-0.3,1.4-0.2c0.7,0.1,1.1,0.4,1.4,0.8c0.3,0.5,0.4,0.9,0.4,1.3v4.2H-456.5z"/>
	<path d="M-452.5,203.1c-0.2,0-0.4-0.1-0.6-0.2c-0.2-0.1-0.3-0.2-0.4-0.4c-0.1-0.1-0.2-0.3-0.2-0.4c0-0.2-0.1-0.4-0.1-0.7v-3.5h-0.8
		V197l0.8,0v-1.9h1.1v1.9l0.9,0v0.9h-0.9v3.4c0,0.1,0,0.3,0,0.4c0,0.1,0.1,0.2,0.2,0.3c0.1,0.1,0.2,0.1,0.4,0.2c0.1,0,0.3,0,0.4,0
		l0,0.9H-452.5z"/>
	<path d="M-446.3,203.1c-0.1-0.1-0.1-0.3-0.1-0.4c0-0.2,0-0.3-0.1-0.5c-0.2,0.3-0.6,0.5-1,0.7c-0.4,0.2-0.8,0.3-1.3,0.4
		c-0.6,0-1.2-0.1-1.6-0.3c-0.5-0.2-0.7-0.7-0.8-1.2c-0.1-0.6,0-1,0.3-1.3c0.3-0.3,0.7-0.5,1.1-0.7c0.4-0.1,0.8-0.2,1.2-0.2
		c0.4,0,0.8-0.1,1.2-0.1c0.2,0,0.4-0.1,0.6-0.1c0.2-0.1,0.3-0.2,0.3-0.5c0-0.3-0.1-0.5-0.4-0.8c-0.2-0.2-0.7-0.4-1.2-0.4
		c-0.6,0-1,0.1-1.3,0.3c-0.3,0.2-0.4,0.5-0.3,0.8h-1.1c-0.1-0.7,0.2-1.2,0.7-1.5c0.6-0.4,1.2-0.5,2-0.5c0.7,0,1.3,0.2,1.9,0.5
		c0.6,0.4,0.8,0.9,0.8,1.5v3.4c0,0.3,0,0.5,0.1,0.7c0.1,0.2,0.1,0.3,0.1,0.3H-446.3z M-446.5,199.9c-0.1,0.1-0.2,0.1-0.3,0.2
		c-0.1,0.1-0.2,0.1-0.4,0.1c-0.2,0.1-0.6,0.1-1,0.1c-0.4,0-0.7,0.1-0.9,0.1c-0.4,0.1-0.6,0.3-0.8,0.4c-0.2,0.2-0.3,0.4-0.2,0.7
		c0,0.3,0.2,0.5,0.5,0.7c0.3,0.1,0.6,0.2,0.9,0.1c0.7,0,1.3-0.3,1.6-0.6c0.4-0.4,0.6-0.7,0.6-1V199.9z"/>
	<path d="M-444,195.6v-1.1h1.1v1.1H-444z M-444,203.1v-6.2h1.1v6.2H-444z"/>
	<path d="M-437.1,203.1v-3.7c0-0.6-0.1-1-0.4-1.2c-0.2-0.2-0.6-0.4-1.1-0.4c-0.5,0-0.9,0.2-1.3,0.5c-0.3,0.3-0.5,0.8-0.5,1.3v3.5
		h-1.1V197h1.1v0.7c0.3-0.3,0.6-0.5,1-0.7c0.4-0.2,0.9-0.3,1.4-0.2c0.7,0.1,1.1,0.4,1.4,0.8c0.3,0.5,0.4,0.9,0.4,1.3v4.2H-437.1z"/>
	<path d="M-433.9,200.4c0,0.6,0.2,1.1,0.6,1.5c0.4,0.4,0.8,0.6,1.4,0.6c0.5,0,0.9-0.1,1.2-0.3c0.3-0.2,0.4-0.4,0.5-0.6h1.2
		c-0.1,0.4-0.4,0.8-0.9,1.2c-0.4,0.4-1.1,0.6-1.9,0.6c-0.9,0-1.6-0.3-2.2-0.9c-0.6-0.6-0.9-1.4-0.9-2.3c0-0.9,0.3-1.7,0.8-2.3
		c0.6-0.6,1.3-0.9,2.2-0.9c0.8,0,1.6,0.3,2.2,0.8c0.6,0.6,0.9,1.5,0.9,2.7H-433.9z M-430.1,199.5c0-0.6-0.2-1-0.6-1.4
		c-0.3-0.3-0.8-0.5-1.4-0.5c-0.5,0-1,0.2-1.3,0.5c-0.3,0.3-0.6,0.8-0.6,1.4H-430.1z"/>
	<path d="M-424.7,197.9c-0.2,0-0.4,0-0.6,0c-0.2,0-0.3,0.1-0.5,0.1c-0.4,0.2-0.6,0.4-0.8,0.8c-0.2,0.3-0.3,0.8-0.3,1.4v2.9h-1.1V197
		h1.1v0.9l0.1,0c0.1-0.2,0.3-0.4,0.5-0.6c0.2-0.1,0.4-0.3,0.6-0.4c0.2-0.1,0.4-0.1,0.6-0.1c0.2,0,0.3,0,0.3,0V197.9z"/>
	<path d="M-413.6,197.1c-0.1-0.4-0.4-0.8-0.8-1.1c-0.4-0.4-0.9-0.6-1.7-0.6c-0.8,0-1.5,0.3-2,0.9c-0.5,0.6-0.7,1.5-0.7,2.5
		c0,1.1,0.2,1.9,0.7,2.6c0.5,0.6,1.1,1,2,1c0.7,0,1.3-0.2,1.7-0.6c0.4-0.4,0.6-0.8,0.8-1.3l1.2,0c-0.2,0.6-0.5,1.3-1.1,1.9
		c-0.6,0.7-1.4,1-2.6,1c-1.2,0-2.2-0.4-2.9-1.2c-0.7-0.8-1-1.9-1-3.3c0-1.3,0.3-2.4,1-3.2c0.7-0.8,1.7-1.2,2.9-1.2
		c1.1,0,2,0.3,2.6,0.9c0.6,0.6,0.9,1.2,1.1,1.8H-413.6z"/>
	<path d="M-406.8,203.1v-3.7c0-0.6-0.1-1-0.4-1.2c-0.2-0.2-0.6-0.4-1.1-0.4c-0.5,0-0.9,0.2-1.3,0.5c-0.3,0.3-0.5,0.8-0.5,1.3v3.5
		h-1.1v-8.5h1.1v3c0.3-0.3,0.6-0.5,1-0.7c0.4-0.2,0.9-0.3,1.4-0.2c0.7,0.1,1.1,0.4,1.4,0.8c0.3,0.5,0.4,0.9,0.4,1.3v4.2H-406.8z"/>
	<path d="M-399.8,203.1c-0.1-0.1-0.1-0.3-0.1-0.4c0-0.2,0-0.3-0.1-0.5c-0.2,0.3-0.6,0.5-1,0.7c-0.4,0.2-0.8,0.3-1.3,0.4
		c-0.6,0-1.2-0.1-1.6-0.3c-0.5-0.2-0.7-0.7-0.8-1.2c-0.1-0.6,0-1,0.3-1.3c0.3-0.3,0.7-0.5,1.1-0.7c0.4-0.1,0.8-0.2,1.2-0.2
		c0.4,0,0.8-0.1,1.2-0.1c0.2,0,0.4-0.1,0.6-0.1c0.2-0.1,0.3-0.2,0.3-0.5c0-0.3-0.1-0.5-0.4-0.8c-0.2-0.2-0.7-0.4-1.2-0.4
		c-0.6,0-1,0.1-1.3,0.3c-0.3,0.2-0.4,0.5-0.3,0.8h-1.1c-0.1-0.7,0.2-1.2,0.7-1.5c0.6-0.4,1.2-0.5,2-0.5c0.7,0,1.3,0.2,1.9,0.5
		c0.6,0.4,0.8,0.9,0.8,1.5v3.4c0,0.3,0,0.5,0.1,0.7c0.1,0.2,0.1,0.3,0.1,0.3H-399.8z M-400,199.9c-0.1,0.1-0.2,0.1-0.3,0.2
		c-0.1,0.1-0.2,0.1-0.4,0.1c-0.2,0.1-0.6,0.1-1,0.1c-0.4,0-0.7,0.1-0.9,0.1c-0.4,0.1-0.6,0.3-0.8,0.4c-0.2,0.2-0.3,0.4-0.2,0.7
		c0,0.3,0.2,0.5,0.5,0.7c0.3,0.1,0.6,0.2,0.9,0.1c0.7,0,1.3-0.3,1.6-0.6c0.4-0.4,0.6-0.7,0.6-1V199.9z"/>
	<path d="M-393,200.5c0.2,0.2,0.3,0.5,0.3,0.9c0,0.6-0.3,1-0.8,1.4c-0.5,0.4-1.1,0.5-1.8,0.5c-1.1,0-1.8-0.3-2.2-0.8
		c-0.4-0.5-0.6-1-0.6-1.4h1.1c0,0.3,0.2,0.6,0.5,0.9c0.3,0.2,0.7,0.3,1.2,0.3c0.4,0,0.8-0.1,1-0.2c0.3-0.1,0.4-0.4,0.5-0.6
		c0-0.2,0-0.4-0.1-0.5c-0.1-0.1-0.3-0.3-0.5-0.4c-0.3-0.2-0.7-0.3-1.1-0.3c-0.4-0.1-0.7-0.1-1-0.2c-0.4-0.1-0.7-0.3-0.9-0.6
		c-0.2-0.3-0.4-0.6-0.3-1c0-0.5,0.3-0.9,0.7-1.2c0.4-0.4,1-0.6,1.8-0.6c0.9,0,1.5,0.2,1.9,0.7c0.4,0.5,0.6,0.9,0.6,1.3h-1.1
		c0-0.2-0.1-0.4-0.3-0.6c-0.2-0.2-0.6-0.4-1.2-0.4c-0.5,0-0.8,0.1-1,0.3c-0.2,0.2-0.3,0.4-0.3,0.6c0,0.3,0.1,0.5,0.3,0.6
		c0.2,0.1,0.4,0.2,0.6,0.3c0.3,0.1,0.6,0.1,1,0.2c0.4,0.1,0.7,0.2,1,0.3C-393.5,200.1-393.2,200.3-393,200.5z"/>
	<path d="M-387,200.5c0.2,0.2,0.3,0.5,0.3,0.9c0,0.6-0.3,1-0.8,1.4c-0.5,0.4-1.1,0.5-1.8,0.5c-1.1,0-1.8-0.3-2.2-0.8
		c-0.4-0.5-0.6-1-0.6-1.4h1.1c0,0.3,0.2,0.6,0.5,0.9c0.3,0.2,0.7,0.3,1.2,0.3c0.4,0,0.8-0.1,1-0.2c0.3-0.1,0.4-0.4,0.5-0.6
		c0-0.2,0-0.4-0.1-0.5c-0.1-0.1-0.3-0.3-0.5-0.4c-0.3-0.2-0.7-0.3-1.1-0.3c-0.4-0.1-0.7-0.1-1-0.2c-0.4-0.1-0.7-0.3-0.9-0.6
		c-0.2-0.3-0.4-0.6-0.3-1c0-0.5,0.3-0.9,0.7-1.2c0.4-0.4,1-0.6,1.8-0.6c0.9,0,1.5,0.2,1.9,0.7c0.4,0.5,0.6,0.9,0.6,1.3h-1.1
		c0-0.2-0.1-0.4-0.3-0.6c-0.2-0.2-0.6-0.4-1.2-0.4c-0.5,0-0.8,0.1-1,0.3c-0.2,0.2-0.3,0.4-0.3,0.6c0,0.3,0.1,0.5,0.3,0.6
		c0.2,0.1,0.4,0.2,0.6,0.3c0.3,0.1,0.6,0.1,1,0.2c0.4,0.1,0.7,0.2,1,0.3C-387.5,200.1-387.2,200.3-387,200.5z"/>
	<path d="M-385.6,195.6v-1.1h1.1v1.1H-385.6z M-385.6,203.1v-6.2h1.1v6.2H-385.6z"/>
	<path d="M-378.4,200.5c0.2,0.2,0.3,0.5,0.3,0.9c0,0.6-0.3,1-0.8,1.4c-0.5,0.4-1.1,0.5-1.8,0.5c-1.1,0-1.8-0.3-2.2-0.8
		c-0.4-0.5-0.6-1-0.6-1.4h1.1c0,0.3,0.2,0.6,0.5,0.9c0.3,0.2,0.7,0.3,1.2,0.3c0.4,0,0.8-0.1,1-0.2c0.3-0.1,0.4-0.4,0.5-0.6
		c0-0.2,0-0.4-0.1-0.5c-0.1-0.1-0.3-0.3-0.5-0.4c-0.3-0.2-0.7-0.3-1.1-0.3c-0.4-0.1-0.7-0.1-1-0.2c-0.4-0.1-0.7-0.3-0.9-0.6
		c-0.2-0.3-0.4-0.6-0.3-1c0-0.5,0.3-0.9,0.7-1.2c0.4-0.4,1-0.6,1.8-0.6c0.9,0,1.5,0.2,1.9,0.7c0.4,0.5,0.6,0.9,0.6,1.3h-1.1
		c0-0.2-0.1-0.4-0.3-0.6c-0.2-0.2-0.6-0.4-1.2-0.4c-0.5,0-0.8,0.1-1,0.3c-0.2,0.2-0.3,0.4-0.3,0.6c0,0.3,0.1,0.5,0.3,0.6
		c0.2,0.1,0.4,0.2,0.6,0.3c0.3,0.1,0.6,0.1,1,0.2c0.4,0.1,0.7,0.2,1,0.3C-378.9,200.1-378.7,200.3-378.4,200.5z"/>
	<path d="M-376.1,201.6c0.3-0.9,0.4-1.9,0.4-2.8c0-0.9-0.1-1.8-0.4-2.8c-0.3-0.9-0.7-2-1.4-3h0.9c0.4,0.6,0.9,1.4,1.4,2.4
		c0.5,1,0.7,2.1,0.7,3.4c0,1.3-0.2,2.5-0.7,3.4c-0.5,1-0.9,1.8-1.4,2.4h-0.9C-376.9,203.6-376.4,202.6-376.1,201.6z"/>
</g>
<g>
	<path d="M-672.7,351.3c-0.4,0-0.8,0.1-1.2,0.1l-2.5,0v-5.7h3.9v1h-2.7v1.4h2.6v1h-2.6v1.4l1.1,0c0.4,0,0.8,0,1.3-0.1
		c0.5,0,0.9-0.1,1.1-0.1v0.9C-672,351.2-672.3,351.3-672.7,351.3z M-675.2,355.4v-3.2h1.2v2.2h6.8v1H-675.2z M-670.7,352.6v-3.8
		h-1.4v-1h1.4v-2.6h1.2v7.4H-670.7z M-668.5,352.8V345h1.2v7.8H-668.5z"/>
	<path d="M-660.5,350.5c-0.7,0.1-1.5,0.1-2.4,0.1l-2.3,0v-4.9h5.3v1h-4.1v2.9l1.9,0c0.5,0,1.1,0,1.7-0.1c0.7,0,1.1-0.1,1.4-0.1v1
		C-659.3,350.4-659.8,350.5-660.5,350.5z M-664.1,355.5v-3.9h7.5v3.9H-664.1z M-657.7,352.6h-5.1v1.9h5.1V352.6z M-657.7,351v-2.4
		h-2.9v-1h2.9V345h1.2v6H-657.7z"/>
	<path d="M-652.7,356.1c-0.4-0.6-0.9-1.4-1.4-2.4c-0.5-1-0.7-2.1-0.7-3.4c0-1.3,0.2-2.5,0.7-3.4c0.5-1,0.9-1.8,1.4-2.4h0.9
		c-0.6,1.1-1.1,2.1-1.4,3c-0.3,0.9-0.4,1.9-0.4,2.8c0,0.9,0.1,1.8,0.4,2.8c0.3,0.9,0.7,2,1.4,3H-652.7z"/>
	<path d="M-647.5,347.1v7.5h-1.1v-7.5h-2.8v-1h6.8v1H-647.5z"/>
	<path d="M-644.6,351.8c0,0.6,0.2,1.1,0.6,1.5c0.4,0.4,0.8,0.6,1.4,0.6c0.5,0,0.9-0.1,1.2-0.3c0.3-0.2,0.4-0.4,0.5-0.6h1.2
		c-0.1,0.4-0.4,0.8-0.9,1.2c-0.4,0.4-1.1,0.6-1.9,0.6c-0.9,0-1.6-0.3-2.2-0.9c-0.6-0.6-0.9-1.4-0.9-2.3c0-0.9,0.3-1.7,0.8-2.3
		s1.3-0.9,2.2-0.9c0.8,0,1.6,0.3,2.2,0.8c0.6,0.6,0.9,1.5,0.9,2.7H-644.6z M-640.7,351c0-0.6-0.2-1-0.6-1.4
		c-0.3-0.3-0.8-0.5-1.4-0.5c-0.5,0-1,0.2-1.3,0.5c-0.3,0.3-0.6,0.8-0.6,1.4H-640.7z"/>
	<path d="M-634.2,354.6v-3.7c0-0.6-0.1-1-0.4-1.2c-0.2-0.2-0.6-0.4-1.1-0.4c-0.5,0-0.9,0.2-1.3,0.5c-0.3,0.3-0.5,0.8-0.5,1.3v3.5
		h-1.1v-6.2h1.1v0.7c0.3-0.3,0.6-0.5,1-0.7c0.4-0.2,0.9-0.3,1.4-0.2c0.7,0.1,1.1,0.4,1.4,0.8c0.3,0.5,0.4,0.9,0.4,1.3v4.2H-634.2z"
		/>
	<path d="M-627,354.6v-0.7c-0.3,0.3-0.6,0.5-0.9,0.7c-0.4,0.2-0.7,0.2-1.1,0.2c-0.9,0-1.6-0.3-2.2-0.9c-0.5-0.6-0.8-1.4-0.8-2.4
		c0-1,0.3-1.8,0.8-2.4c0.5-0.6,1.3-0.9,2.2-0.9c0.4,0,0.8,0.1,1.1,0.2c0.4,0.2,0.7,0.4,0.9,0.7v-3h1.1v8.5H-627z M-627.5,353.2
		c0.3-0.4,0.5-1,0.5-1.7c0-0.7-0.2-1.3-0.5-1.7c-0.3-0.4-0.8-0.6-1.4-0.6c-0.6,0-1.1,0.2-1.4,0.6c-0.3,0.4-0.5,1-0.5,1.6
		c0,0.7,0.2,1.2,0.5,1.7c0.3,0.4,0.8,0.6,1.4,0.6C-628.3,353.8-627.8,353.6-627.5,353.2z"/>
	<path d="M-623.8,351.8c0,0.6,0.2,1.1,0.6,1.5c0.4,0.4,0.8,0.6,1.4,0.6c0.5,0,0.9-0.1,1.2-0.3c0.3-0.2,0.4-0.4,0.5-0.6h1.2
		c-0.1,0.4-0.4,0.8-0.9,1.2c-0.4,0.4-1.1,0.6-1.9,0.6c-0.9,0-1.6-0.3-2.2-0.9c-0.6-0.6-0.9-1.4-0.9-2.3c0-0.9,0.3-1.7,0.8-2.3
		c0.6-0.6,1.3-0.9,2.2-0.9c0.8,0,1.6,0.3,2.2,0.8c0.6,0.6,0.9,1.5,0.9,2.7H-623.8z M-619.9,351c0-0.6-0.2-1-0.6-1.4
		c-0.3-0.3-0.8-0.5-1.4-0.5c-0.5,0-1,0.2-1.3,0.5c-0.3,0.3-0.6,0.8-0.6,1.4H-619.9z"/>
	<path d="M-614.5,349.3c-0.2,0-0.4,0-0.6,0c-0.2,0-0.3,0.1-0.5,0.1c-0.4,0.2-0.6,0.4-0.8,0.8c-0.2,0.3-0.3,0.8-0.3,1.4v2.9h-1.1
		v-6.1h1.1v0.9l0.1,0c0.1-0.2,0.3-0.4,0.5-0.6c0.2-0.1,0.4-0.3,0.6-0.4c0.2-0.1,0.4-0.1,0.6-0.1c0.2,0,0.3,0,0.3,0V349.3z"/>
	<path d="M-606.3,354.6l0-3.9c0-0.5-0.1-0.9-0.2-1.1c-0.1-0.3-0.5-0.4-1-0.3c-0.4,0-0.7,0.2-1,0.5c-0.2,0.3-0.4,0.7-0.4,1.2v3.7
		h-1.1v-3.9c0-0.5-0.1-0.9-0.2-1.1c-0.1-0.3-0.5-0.4-0.9-0.3c-0.4,0-0.8,0.2-1,0.5c-0.2,0.3-0.4,0.7-0.4,1.2v3.7h-1.1v-6.2h1.1v0.7
		c0.2-0.2,0.5-0.5,0.8-0.7c0.3-0.2,0.8-0.3,1.3-0.3c0.3,0,0.5,0.1,0.8,0.3c0.2,0.2,0.4,0.4,0.6,0.8c0.2-0.2,0.4-0.4,0.8-0.7
		c0.4-0.3,0.9-0.4,1.5-0.3c0.6,0.1,1,0.3,1.2,0.8c0.2,0.4,0.3,0.9,0.3,1.4v4.2H-606.3z"/>
	<path d="M-593.8,351.1c0.3,0.4,0.4,0.9,0.3,1.4c-0.1,0.7-0.4,1.2-0.9,1.7c-0.5,0.5-1.3,0.7-2.4,0.7c-1.1,0-2-0.3-2.5-1
		c-0.5-0.7-0.8-1.4-0.9-2.1h1.2c0,0.7,0.3,1.2,0.7,1.6c0.4,0.4,0.9,0.6,1.6,0.6c0.6,0,1.1-0.1,1.5-0.4c0.3-0.3,0.5-0.6,0.6-1.1
		c0.1-0.3,0-0.6-0.2-0.8c-0.2-0.2-0.4-0.4-0.8-0.6c-0.4-0.2-0.8-0.3-1.2-0.3c-0.4,0-0.9-0.1-1.3-0.3c-0.6-0.2-1-0.5-1.3-0.8
		c-0.3-0.3-0.4-0.8-0.4-1.4c0-0.6,0.3-1.1,0.8-1.6c0.5-0.5,1.3-0.8,2.3-0.8c1.2,0,2,0.3,2.4,1c0.4,0.7,0.7,1.2,0.7,1.7l-1.2,0
		c0-0.5-0.2-0.9-0.5-1.2c-0.3-0.3-0.8-0.5-1.5-0.5c-0.6,0-1.1,0.2-1.4,0.5c-0.3,0.3-0.4,0.6-0.4,1c0,0.4,0.1,0.7,0.3,0.8
		c0.2,0.2,0.5,0.3,0.7,0.4c0.3,0.1,0.7,0.2,1.2,0.3c0.5,0.1,1,0.2,1.4,0.4C-594.4,350.4-594,350.7-593.8,351.1z"/>
	<path d="M-587.2,349.1c0.6,0.6,0.8,1.4,0.8,2.4c0,1-0.3,1.8-0.8,2.4c-0.6,0.6-1.3,0.9-2.1,0.9c-0.4,0-0.8-0.1-1.1-0.2
		c-0.4-0.2-0.7-0.4-1-0.7v2.4h-1.1v-7.9h1.1v0.6c0.3-0.3,0.6-0.5,1-0.6c0.4-0.2,0.7-0.2,1.1-0.2
		C-588.4,348.2-587.7,348.5-587.2,349.1z M-588,353.2c0.4-0.4,0.5-1,0.5-1.8c0-0.8-0.2-1.3-0.5-1.7c-0.4-0.4-0.8-0.6-1.5-0.6
		c-0.6,0-1.1,0.2-1.5,0.6c-0.3,0.4-0.5,1-0.5,1.7c0,0.8,0.2,1.3,0.5,1.8c0.3,0.4,0.8,0.6,1.5,0.6
		C-588.9,353.9-588.4,353.7-588,353.2z"/>
	<path d="M-582.1,349.3c-0.2,0-0.4,0-0.6,0c-0.2,0-0.3,0.1-0.5,0.1c-0.4,0.2-0.6,0.4-0.8,0.8c-0.2,0.3-0.3,0.8-0.3,1.4v2.9h-1.1
		v-6.1h1.1v0.9l0.1,0c0.1-0.2,0.3-0.4,0.5-0.6c0.2-0.1,0.4-0.3,0.6-0.4c0.2-0.1,0.4-0.1,0.6-0.1c0.2,0,0.3,0,0.3,0V349.3z"/>
	<path d="M-581,351.8c0,0.6,0.2,1.1,0.6,1.5c0.4,0.4,0.8,0.6,1.4,0.6c0.5,0,0.9-0.1,1.2-0.3c0.3-0.2,0.4-0.4,0.5-0.6h1.2
		c-0.1,0.4-0.4,0.8-0.9,1.2c-0.4,0.4-1.1,0.6-1.9,0.6c-0.9,0-1.6-0.3-2.2-0.9c-0.6-0.6-0.9-1.4-0.9-2.3c0-0.9,0.3-1.7,0.8-2.3
		s1.3-0.9,2.2-0.9c0.8,0,1.6,0.3,2.2,0.8c0.6,0.6,0.9,1.5,0.9,2.7H-581z M-577.1,351c0-0.6-0.2-1-0.6-1.4c-0.3-0.3-0.8-0.5-1.4-0.5
		c-0.5,0-1,0.2-1.3,0.5c-0.3,0.3-0.6,0.8-0.6,1.4H-577.1z"/>
	<path d="M-570.6,354.6c-0.1-0.1-0.1-0.3-0.1-0.4c0-0.2,0-0.3-0.1-0.5c-0.2,0.3-0.6,0.5-1,0.7c-0.4,0.2-0.8,0.3-1.3,0.4
		c-0.6,0-1.2-0.1-1.6-0.3c-0.5-0.2-0.7-0.7-0.8-1.2c-0.1-0.6,0-1,0.3-1.3c0.3-0.3,0.7-0.5,1.1-0.7c0.4-0.1,0.8-0.2,1.2-0.2
		c0.4,0,0.8-0.1,1.2-0.1c0.2,0,0.4-0.1,0.6-0.1c0.2-0.1,0.3-0.2,0.3-0.5c0-0.3-0.1-0.5-0.4-0.8c-0.2-0.2-0.7-0.4-1.2-0.4
		c-0.6,0-1,0.1-1.3,0.3c-0.3,0.2-0.4,0.5-0.3,0.8h-1.1c-0.1-0.7,0.2-1.2,0.7-1.5c0.6-0.4,1.2-0.5,2-0.5c0.7,0,1.3,0.2,1.9,0.5
		c0.6,0.4,0.8,0.9,0.8,1.5v3.4c0,0.3,0,0.5,0.1,0.7c0.1,0.2,0.1,0.3,0.1,0.3H-570.6z M-570.8,351.4c-0.1,0.1-0.2,0.1-0.3,0.2
		c-0.1,0.1-0.2,0.1-0.4,0.1c-0.2,0.1-0.6,0.1-1,0.1c-0.4,0-0.7,0.1-0.9,0.1c-0.4,0.1-0.6,0.3-0.8,0.4c-0.2,0.2-0.3,0.4-0.2,0.7
		c0,0.3,0.2,0.5,0.5,0.7c0.3,0.1,0.6,0.2,0.9,0.1c0.7,0,1.3-0.3,1.6-0.6c0.4-0.4,0.6-0.7,0.6-1V351.4z"/>
	<path d="M-563.7,354.6v-0.7c-0.3,0.3-0.6,0.5-0.9,0.7c-0.4,0.2-0.7,0.2-1.1,0.2c-0.9,0-1.6-0.3-2.2-0.9c-0.5-0.6-0.8-1.4-0.8-2.4
		c0-1,0.3-1.8,0.8-2.4c0.5-0.6,1.3-0.9,2.2-0.9c0.4,0,0.8,0.1,1.1,0.2c0.4,0.2,0.7,0.4,0.9,0.7v-3h1.1v8.5H-563.7z M-564.2,353.2
		c0.3-0.4,0.5-1,0.5-1.7c0-0.7-0.2-1.3-0.5-1.7c-0.3-0.4-0.8-0.6-1.4-0.6c-0.6,0-1.1,0.2-1.4,0.6c-0.3,0.4-0.5,1-0.5,1.6
		c0,0.7,0.2,1.2,0.5,1.7c0.3,0.4,0.8,0.6,1.4,0.6C-565,353.8-564.5,353.6-564.2,353.2z"/>
	<path d="M-560.4,351.8c0,0.6,0.2,1.1,0.6,1.5c0.4,0.4,0.8,0.6,1.4,0.6c0.5,0,0.9-0.1,1.2-0.3c0.3-0.2,0.4-0.4,0.5-0.6h1.2
		c-0.1,0.4-0.4,0.8-0.9,1.2c-0.4,0.4-1.1,0.6-1.9,0.6c-0.9,0-1.6-0.3-2.2-0.9c-0.6-0.6-0.9-1.4-0.9-2.3c0-0.9,0.3-1.7,0.8-2.3
		s1.3-0.9,2.2-0.9c0.8,0,1.6,0.3,2.2,0.8c0.6,0.6,0.9,1.5,0.9,2.7H-560.4z M-556.6,351c0-0.6-0.2-1-0.6-1.4
		c-0.3-0.3-0.8-0.5-1.4-0.5c-0.5,0-1,0.2-1.3,0.5c-0.3,0.3-0.6,0.8-0.6,1.4H-556.6z"/>
	<path d="M-551.2,349.3c-0.2,0-0.4,0-0.6,0c-0.2,0-0.3,0.1-0.5,0.1c-0.4,0.2-0.6,0.4-0.8,0.8c-0.2,0.3-0.3,0.8-0.3,1.4v2.9h-1.1
		v-6.1h1.1v0.9l0.1,0c0.1-0.2,0.3-0.4,0.5-0.6c0.2-0.1,0.4-0.3,0.6-0.4c0.2-0.1,0.4-0.1,0.6-0.1c0.2,0,0.3,0,0.3,0V349.3z"/>
	<path d="M-549.3,353.1c0.3-0.9,0.4-1.9,0.4-2.8c0-0.9-0.1-1.8-0.4-2.8c-0.3-0.9-0.7-2-1.4-3h0.9c0.4,0.6,0.9,1.4,1.4,2.4
		c0.5,1,0.7,2.1,0.7,3.4c0,1.3-0.2,2.5-0.7,3.4c-0.5,1-0.9,1.8-1.4,2.4h-0.9C-550.1,355.1-549.6,354-549.3,353.1z"/>
</g>
<g>
	<path d="M15.9,53.2c-3,0-5.5-2.5-5.5-5.5c0-3,2.5-5.5,5.5-5.5c3,0,5.5,2.5,5.5,5.5C21.4,50.7,19,53.2,15.9,53.2z M15.9,45.2
		c-1.4,0-2.5,1.1-2.5,2.5c0,1.4,1.1,2.5,2.5,2.5s2.5-1.1,2.5-2.5C18.4,46.3,17.3,45.2,15.9,45.2z"/>
	<path d="M47.9,53.2c-3,0-5.5-2.5-5.5-5.5c0-3,2.5-5.5,5.5-5.5c3,0,5.5,2.5,5.5,5.5C53.4,50.7,51,53.2,47.9,53.2z M47.9,45.2
		c-1.4,0-2.5,1.1-2.5,2.5c0,1.4,1.1,2.5,2.5,2.5c1.4,0,2.5-1.1,2.5-2.5C50.4,46.3,49.3,45.2,47.9,45.2z"/>
	<polygon points="43.9,49.2 25.4,49.2 25.4,20.2 10,20.2 6.4,30.4 6.4,47.2 3.4,47.2 3.4,29.9 7.9,17.2 28.4,17.2 28.4,46.2 
		43.9,46.2 	"/>
	<polygon points="22.4,35.2 12.9,35.2 12.9,32.2 19.4,32.2 19.4,25.7 22.4,25.7 	"/>
	<rect x="5.4" y="44.2" width="3" height="3"/>
	<polygon points="59.4,49.2 51.9,49.2 51.9,46.2 56.4,46.2 56.4,39.7 26.9,39.7 26.9,36.7 59.4,36.7 	"/>
</g>
<g>
	<polygon points="-86.7,133.3 -91.3,133.3 -96,137.5 -96,141.7 -82,141.7 -82,137.5 	"/>
	<path d="M-90,162.5h-24v-14h24V162.5z M-111,159.5h18v-8h-18V159.5z"/>
	<path d="M-64,162.5h-25v-14h25V162.5z M-86,159.5h19v-8h-19V159.5z"/>
	<polygon points="-60,155 -63,155 -63,146.5 -115,146.5 -115,155 -118,155 -118,143.5 -60,143.5 	"/>
	<rect x="-109.5" y="153.5" width="2" height="4.5"/>
	<rect x="-96.5" y="153.5" width="2" height="4.5"/>
	<rect x="-102.5" y="153.5" width="2" height="4.5"/>
	<rect x="-84.5" y="153.5" width="2" height="4.5"/>
	<rect x="-71.5" y="153.5" width="2" height="4.5"/>
	<rect x="-77.5" y="153.5" width="2" height="4.5"/>
	<rect x="-90" y="122.5" width="2" height="12"/>
</g>
<g>
	<polygon points="-608.4,257.5 -613,257.5 -617.7,261.7 -617.7,265.9 -603.7,265.9 -603.7,261.7 	"/>
	<rect x="-611.7" y="251" width="2" height="7.7"/>
</g>
<g>
	<path d="M-613.7,313.7h-19v-23h19V313.7z M-629.7,310.7h13v-17h-13V310.7z"/>
	<rect x="-621.2" y="297.7" width="2" height="10"/>
	<rect x="-627.2" y="297.7" width="2" height="10"/>
	<path d="M-588.7,313.7h-19v-23h19V313.7z M-604.7,310.7h13v-17h-13V310.7z"/>
	<rect x="-596.2" y="297.7" width="2" height="10"/>
	<rect x="-602.2" y="297.7" width="2" height="10"/>
	<polygon points="-618.7,285.7 -618.7,283.7 -627.7,283.7 -627.7,285.7 -632.7,285.7 -632.7,289.7 -627.7,289.7 -618.7,289.7 
		-613.7,289.7 -613.7,285.7 	"/>
	<polygon points="-593.7,285.7 -593.7,283.7 -602.7,283.7 -602.7,285.7 -607.7,285.7 -607.7,289.7 -602.7,289.7 -593.7,289.7 
		-588.7,289.7 -588.7,285.7 	"/>
	<polygon points="-596.2,282.7 -599.2,282.7 -599.2,272.2 -622.2,272.2 -622.2,282.7 -625.2,282.7 -625.2,269.2 -596.2,269.2 	"/>
	<rect x="-620.2" y="274.2" width="19" height="3.5"/>
</g>
</svg>
