<?xml version="1.0" encoding="utf-8"?>
<!-- Generator: Adobe Illustrator 22.0.1, SVG Export Plug-In . SVG Version: 6.00 Build 0)  -->
<svg version="1.1" baseProfile="tiny" id="레이어_1"
	 xmlns="http://www.w3.org/2000/svg" xmlns:xlink="http://www.w3.org/1999/xlink" x="0px" y="0px" viewBox="0 0 64 64"
	 xml:space="preserve">
<g>
	<path fill="none" d="M708.2,825.5l-2.8-2.7l2.2-2.2l-0.6-0.6l4.1-4.2v-12.5h-18.9v25.4H711V824l-0.7-0.7L708.2,825.5z M705.6,826.6
		l-1.1-1l1.8-1.8l1.1,1L705.6,826.6z"/>
	<polygon fill="none" points="711,821.4 711,818.4 709.5,819.9 	"/>
	<polygon fill="none" points="722.4,809.9 720.8,808.4 712.9,816.4 712.9,819.6 	"/>
	
		<rect x="707.6" y="822" transform="matrix(0.6992 -0.7149 0.7149 0.6992 -374.9573 753.8705)" fill="none" width="1.6" height="0.9"/>
	<polygon fill="#040000" points="707.5,820.6 708.7,819.4 711,821.6 711,821.4 709.5,819.9 711,818.4 711,815.7 706.9,819.9 	"/>
	<polygon fill="#040000" points="710.3,823.3 711,824 711,822.6 	"/>
	
		<rect x="708.9" y="821.4" transform="matrix(0.6992 -0.7149 0.7149 0.6992 -374.3165 754.1118)" fill="#040000" width="0.2" height="0.9"/>
	<polygon fill="#040000" points="720.8,808.4 722.4,809.9 712.9,819.6 712.9,822.2 725,809.9 720.8,805.8 712.9,813.8 712.9,816.4 	
		"/>
	<polygon fill="#040000" points="708.2,823.4 707.5,822.8 708.6,821.6 707.5,820.6 705.4,822.8 708.2,825.5 710.3,823.3 
		709.3,822.3 	"/>
	<polygon fill="#040000" points="707.5,820.6 708.6,821.6 708.7,821.5 709.4,822.1 709.3,822.3 710.3,823.3 711,822.6 711,821.6 
		708.7,819.4 	"/>
	
		<rect x="704.6" y="824.4" transform="matrix(0.6992 -0.715 0.715 0.6992 -377.5812 752.9448)" fill="#040000" width="2.6" height="1.5"/>
	<polygon fill="#050000" points="711.1,824.1 711,824 711,828.6 692.1,828.6 692.1,803.2 711,803.2 711,815.7 712.9,813.8 
		712.9,801.3 690.2,801.3 690.2,830.6 712.9,830.6 712.9,822.2 	"/>
	<polygon fill="#050000" points="711,818.4 712.9,816.4 712.9,813.8 711,815.7 	"/>
	<polygon fill="#050000" points="711.1,821.4 711,821.4 711,821.6 711.5,822.1 711,822.6 711,824 711.1,824.1 712.9,822.2 
		712.9,819.6 	"/>
	<polygon fill="#050000" points="711.5,822.1 711,821.6 711,822.6 	"/>
	<rect x="694.4" y="805.9" fill="#050000" width="5.9" height="1.9"/>
	<rect x="694.4" y="810.4" fill="#050000" width="5.9" height="1.9"/>
	<rect x="694.4" y="815" fill="#050000" width="5.9" height="1.9"/>
	<rect x="694.4" y="819.5" fill="#050000" width="5.9" height="1.9"/>
	<rect x="694.4" y="824.1" fill="#050000" width="5.9" height="1.9"/>
	<polygon fill="#050000" points="705.1,809.7 703.5,808.1 702.2,809.4 705.1,812.4 710.1,807.5 708.7,806.1 	"/>
	<polygon fill="#050000" points="705.1,814.9 703.5,813.3 702.2,814.7 705.1,817.6 710.1,812.7 708.7,811.3 	"/>
	<rect x="657.4" y="778.1" fill="#040000" width="5.8" height="5.8"/>
	<rect x="665.5" y="778.1" fill="#040000" width="5.8" height="5.8"/>
	<rect x="673.6" y="778.1" fill="#040000" width="5.8" height="5.8"/>
	<rect x="689.7" y="778.1" fill="#040000" width="5.8" height="5.8"/>
	<rect x="697.8" y="778.1" fill="#040000" width="5.8" height="5.8"/>
	<rect x="657.4" y="786.2" fill="#040000" width="5.8" height="5.8"/>
	<rect x="665.5" y="786.2" fill="#040000" width="5.8" height="5.8"/>
	<rect x="673.6" y="786.2" fill="#040000" width="5.8" height="5.8"/>
	<rect x="689.7" y="786.2" fill="#040000" width="5.8" height="5.8"/>
	<rect x="697.8" y="786.2" fill="#040000" width="5.8" height="5.8"/>
	<rect x="657.4" y="801.2" fill="#040000" width="5.8" height="5.8"/>
	<rect x="665.5" y="801.2" fill="#040000" width="5.8" height="5.8"/>
	<rect x="673.6" y="801.2" fill="#040000" width="5.8" height="5.8"/>
	<rect x="665.5" y="810.4" fill="#040000" width="5.8" height="5.8"/>
	<rect x="673.6" y="810.4" fill="#040000" width="5.8" height="5.8"/>
	<rect x="673.6" y="818.5" fill="#040000" width="5.8" height="5.8"/>
	<rect x="681.7" y="778.1" fill="#040000" width="5.8" height="5.8"/>
	<rect x="681.7" y="786.2" fill="#040000" width="5.8" height="5.8"/>
	<rect x="681.7" y="801.2" fill="#040000" width="5.8" height="5.8"/>
	<rect x="681.7" y="810.4" fill="#040000" width="5.8" height="5.8"/>
	<rect x="681.7" y="818.5" fill="#040000" width="5.8" height="5.8"/>
	<polygon fill="#040000" points="664.6,795.4 662.7,795.4 660.9,795.4 657.1,795.4 657.1,797.7 660.9,797.7 662.7,797.7 
		664.6,797.7 665.3,797.7 666.5,797.7 666.5,795.4 665.3,795.4 	"/>
	<polygon fill="#040000" points="677.1,795.4 675.2,795.4 673.3,795.4 669.6,795.4 669.6,797.7 673.3,797.7 675.2,797.7 
		677.1,797.7 677.8,797.7 679,797.7 679,795.4 677.8,795.4 	"/>
	<polygon fill="#040000" points="689.6,795.4 687.7,795.4 685.8,795.4 682.1,795.4 682.1,797.7 685.8,797.7 687.7,797.7 
		689.6,797.7 690.2,797.7 691.5,797.7 691.5,795.4 690.2,795.4 	"/>
	<polygon fill="#040000" points="702.1,795.4 700.2,795.4 698.3,795.4 694.6,795.4 694.6,797.7 698.3,797.7 700.2,797.7 
		702.1,797.7 702.7,797.7 703.9,797.7 703.9,795.4 702.7,795.4 	"/>
</g>
<g>
	<path d="M366.6-9.6c-0.4-0.1-0.9-0.4-1.5-0.8s-1-0.8-1.3-1.2c-0.2,0.5-0.6,0.9-1.1,1.3c-0.5,0.4-1.1,0.7-1.7,1l-0.8-0.8
		c1.1-0.5,1.9-1,2.3-1.6c0.4-0.6,0.6-1.2,0.6-1.9v-0.3h-2.2v-1h5.8v1h-2.2v0.3c0,0.6,0.2,1.2,0.7,1.8c0.4,0.6,1.2,1,2.1,1.3
		L366.6-9.6z M368.3-5v-2.6h-6.4v-1h7.6V-5H368.3z M369.5-12v2.7h-1.2v-6.3h1.2v2.5h1.5v1.1H369.5z"/>
	<path d="M379.5-13.4v-2.2h1.2v5.6h-1.2v-2.4h-2.3c-0.1,0.6-0.5,1.1-1,1.5c-0.5,0.4-1.1,0.6-1.8,0.6c-0.7,0-1.4-0.2-2-0.7
		c-0.6-0.5-0.9-1-0.9-1.8c0-0.7,0.3-1.3,0.9-1.8c0.6-0.4,1.2-0.7,2-0.7c0.6,0,1.2,0.2,1.8,0.5c0.5,0.3,0.9,0.8,1,1.4H379.5z
		 M375.6-13.8c-0.3-0.3-0.7-0.4-1.1-0.4s-0.8,0.1-1.1,0.4c-0.3,0.3-0.5,0.6-0.5,1c0,0.4,0.2,0.7,0.5,1c0.3,0.3,0.7,0.4,1.1,0.4
		s0.8-0.1,1.1-0.4c0.3-0.3,0.5-0.6,0.5-1C376-13.2,375.9-13.5,375.6-13.8z M373.2-5.1v-4.3h1.2v1.1h5.2v-1.1h1.2v4.3H373.2z
		 M379.5-7.3h-5.2v1.2h5.2V-7.3z"/>
	<path d="M391-7.4c-0.4,0-0.9,0.1-1.6,0.1l-2.1,0v-6.9h3.8v1h-2.6v4.8l1.4,0c0.4,0,0.7,0,1.1-0.1c0.4,0,0.6-0.1,0.8-0.1v1
		C391.6-7.5,391.3-7.5,391-7.4z M394.9-5v-5.5h-1.4v5h-1.2v-9.8h1.2v3.7h1.4v-4h1.2V-5H394.9z"/>
	<path d="M402.4-10.2c-0.8,1.5-2,2.6-3.7,3.4l-0.9-0.7c1.6-0.7,2.7-1.7,3.3-2.8c0.7-1.2,1-2.2,1.1-3h-3.8v-1h5.2
		C403.6-13.1,403.2-11.8,402.4-10.2z M405.9-5v-10.6h1.2V-5H405.9z"/>
	<path d="M416.9-14.2v-1.3h1.2v5.6h-1.2v-1.3h-2.8c-0.3,0.3-0.6,0.5-1,0.7c-0.4,0.2-0.8,0.3-1.3,0.3c-0.7,0-1.4-0.2-2-0.7
		c-0.6-0.5-0.9-1-0.9-1.8c0-0.7,0.3-1.3,0.9-1.8s1.2-0.7,2-0.7c0.5,0,0.9,0.1,1.3,0.3c0.4,0.2,0.7,0.4,1,0.7H416.9z M413-13.8
		c-0.3-0.3-0.7-0.4-1.1-0.4s-0.8,0.1-1.1,0.4c-0.3,0.3-0.5,0.6-0.5,1c0,0.4,0.2,0.7,0.5,1c0.3,0.3,0.7,0.4,1.1,0.4s0.8-0.1,1.1-0.4
		c0.3-0.3,0.5-0.6,0.5-1C413.5-13.2,413.3-13.5,413-13.8z M410.6-5.1v-2.6h6.3v-0.9h-6.3v-0.9h7.6v2.7h-6.3V-6h6.5v0.9H410.6z
		 M416.9-12.3v-1h-2.3c0,0.1,0,0.2,0,0.2s0,0.2,0,0.2c0,0.1,0,0.2,0,0.3s0,0.2,0,0.3H416.9z"/>
	<path d="M430.2-10.3c-0.4-0.1-0.9-0.4-1.5-0.8c-0.6-0.4-1-0.8-1.3-1.3c-0.2,0.5-0.5,0.9-1.1,1.3s-1.1,0.8-1.7,1l-0.8-0.9
		c1.2-0.4,2-1,2.4-1.7s0.6-1.3,0.6-1.8v-0.9h1.3v0.9c0,0.4,0.2,0.9,0.5,1.5c0.4,0.6,1.1,1.1,2.3,1.6L430.2-10.3z M425.9-5.1v-2.6
		h6.2v-0.9h-6.2v-0.9h7.5v2.7h-6.2V-6h6.5v0.9H425.9z M432.3-10v-2.8H430v-1h2.2v-1.8h1.2v5.5H432.3z"/>
	<path d="M441.3-9.6c-0.4-0.1-0.9-0.4-1.4-0.7c-0.5-0.4-1-0.8-1.4-1.3c-0.2,0.5-0.6,0.9-1.2,1.4c-0.6,0.5-1.1,0.8-1.6,0.9l-0.8-0.8
		c1.3-0.5,2.1-1.1,2.5-1.8c0.3-0.7,0.5-1.2,0.5-1.6v-0.3h-2.2v-1h5.8v1h-2.2v0.3c0,0.4,0.2,0.9,0.5,1.6c0.3,0.6,1.1,1.1,2.3,1.5
		L441.3-9.6z M443.7-5.4c-0.7,0.4-1.7,0.6-3,0.6c-1.3,0-2.3-0.2-3-0.6c-0.7-0.4-1-0.9-1-1.5c0-0.6,0.3-1.1,1-1.5
		c0.7-0.4,1.7-0.6,3-0.6c1.3,0,2.3,0.2,3,0.6c0.7,0.4,1,0.9,1,1.5C444.8-6.3,444.4-5.8,443.7-5.4z M442.7-7.7
		c-0.5-0.2-1.1-0.3-1.9-0.3c-0.8,0-1.5,0.1-2,0.3S438-7.3,438-6.9c0,0.3,0.3,0.6,0.8,0.8c0.5,0.2,1.2,0.3,2,0.3
		c0.8,0,1.5-0.1,1.9-0.3c0.5-0.2,0.7-0.5,0.7-0.8C443.5-7.2,443.2-7.5,442.7-7.7z M443.4-9.2v-2.9h-2.1v-1h2.1v-2.4h1.2v6.4H443.4z"
		/>
	<path d="M345.8,9.9c-0.4-0.6-0.9-1.4-1.4-2.4c-0.5-1-0.7-2.1-0.7-3.4c0-1.3,0.2-2.5,0.7-3.4c0.5-1,0.9-1.8,1.4-2.4h0.9
		c-0.6,1.1-1.1,2.1-1.3,3s-0.4,1.9-0.4,2.8c0,0.9,0.1,1.8,0.4,2.8s0.7,2,1.3,3H345.8z"/>
	<path d="M354.3,0.9c0.7,0.8,1.1,1.9,1.1,3.2c0,0.7-0.1,1.3-0.3,1.8s-0.4,1-0.8,1.4l1.1,0.9L354.8,9l-1.2-1c-0.3,0.2-0.7,0.4-1,0.5
		c-0.4,0.1-0.8,0.2-1.2,0.2c-1.2,0-2.2-0.4-2.9-1.2c-0.7-0.8-1.1-1.9-1.1-3.3c0-1.3,0.4-2.4,1.1-3.2c0.7-0.8,1.7-1.2,2.9-1.2
		S353.6,0.1,354.3,0.9z M354,5.4c0.1-0.4,0.2-0.8,0.2-1.3c0-1-0.2-1.9-0.7-2.5c-0.5-0.6-1.2-0.9-2-0.9c-0.9,0-1.5,0.3-2,0.9
		c-0.5,0.6-0.7,1.5-0.7,2.5c0,1,0.2,1.9,0.7,2.5c0.5,0.7,1.1,1,2,1c0.2,0,0.5,0,0.7-0.1c0.2-0.1,0.5-0.2,0.7-0.3l-1.1-0.9l0.6-0.7
		l1.2,1C353.7,6.2,353.9,5.8,354,5.4z"/>
	<path d="M360.7,8.4V7.6c-0.2,0.3-0.5,0.5-0.8,0.7c-0.4,0.2-0.8,0.3-1.3,0.3c-0.5,0-1-0.2-1.5-0.6c-0.5-0.4-0.7-1-0.7-1.7V2.2h1.1
		v3.7c0,0.6,0.1,1,0.4,1.2c0.3,0.3,0.6,0.4,1.1,0.4c0.5,0,0.9-0.2,1.2-0.5c0.3-0.3,0.5-0.8,0.5-1.3V2.2h1.1v6.2H360.7z"/>
	<path d="M363.9,5.6c0,0.6,0.2,1.1,0.6,1.5s0.8,0.6,1.4,0.6c0.5,0,0.9-0.1,1.2-0.3c0.3-0.2,0.4-0.4,0.5-0.6h1.2
		c-0.1,0.4-0.4,0.8-0.9,1.2c-0.4,0.4-1.1,0.6-1.9,0.6c-0.9,0-1.6-0.3-2.2-0.9c-0.6-0.6-0.9-1.4-0.9-2.3c0-0.9,0.3-1.7,0.8-2.3
		c0.6-0.6,1.3-0.9,2.2-0.9c0.8,0,1.6,0.3,2.2,0.8c0.6,0.6,0.9,1.5,0.9,2.7H363.9z M367.8,4.8c0-0.6-0.2-1-0.6-1.4
		c-0.3-0.3-0.8-0.5-1.4-0.5c-0.5,0-1,0.2-1.3,0.5c-0.3,0.3-0.6,0.8-0.6,1.4H367.8z"/>
	<path d="M374.2,8.4V7.6c-0.2,0.3-0.5,0.5-0.8,0.7c-0.4,0.2-0.8,0.3-1.3,0.3c-0.5,0-1-0.2-1.5-0.6c-0.5-0.4-0.7-1-0.7-1.7V2.2h1.1
		v3.7c0,0.6,0.1,1,0.4,1.2c0.3,0.3,0.6,0.4,1.1,0.4c0.5,0,0.9-0.2,1.2-0.5c0.3-0.3,0.5-0.8,0.5-1.3V2.2h1.1v6.2H374.2z"/>
	<path d="M377.3,5.6c0,0.6,0.2,1.1,0.6,1.5c0.4,0.4,0.8,0.6,1.4,0.6c0.5,0,0.9-0.1,1.2-0.3c0.3-0.2,0.4-0.4,0.5-0.6h1.2
		c-0.1,0.4-0.4,0.8-0.9,1.2c-0.4,0.4-1.1,0.6-1.9,0.6c-0.9,0-1.6-0.3-2.2-0.9c-0.6-0.6-0.9-1.4-0.9-2.3c0-0.9,0.3-1.7,0.8-2.3
		c0.6-0.6,1.3-0.9,2.2-0.9c0.8,0,1.6,0.3,2.2,0.8c0.6,0.6,0.9,1.5,0.9,2.7H377.3z M381.2,4.8c0-0.6-0.2-1-0.6-1.4
		c-0.3-0.3-0.8-0.5-1.4-0.5c-0.5,0-1,0.2-1.3,0.5c-0.3,0.3-0.6,0.8-0.6,1.4H381.2z"/>
	<path d="M393.6,2.4c-0.1-0.4-0.4-0.8-0.8-1.1c-0.4-0.4-0.9-0.6-1.7-0.6c-0.8,0-1.5,0.3-2,0.9c-0.5,0.6-0.7,1.5-0.7,2.5
		c0,1.1,0.2,1.9,0.7,2.6c0.5,0.6,1.1,1,2,1c0.7,0,1.3-0.2,1.7-0.6c0.4-0.4,0.6-0.8,0.8-1.3l1.2,0c-0.2,0.6-0.5,1.3-1.1,1.9
		c-0.6,0.7-1.4,1-2.5,1c-1.2,0-2.2-0.4-2.9-1.2c-0.7-0.8-1-1.9-1-3.3c0-1.3,0.3-2.4,1-3.2c0.7-0.8,1.7-1.2,2.9-1.2
		c1.1,0,2,0.3,2.6,0.9s0.9,1.2,1.1,1.8H393.6z"/>
	<path d="M400.9,2.9c0.6,0.6,0.8,1.4,0.8,2.4s-0.3,1.7-0.8,2.4c-0.6,0.6-1.3,0.9-2.3,0.9s-1.7-0.3-2.3-0.9s-0.8-1.4-0.8-2.4
		s0.3-1.7,0.8-2.4s1.3-0.9,2.3-0.9S400.3,2.3,400.9,2.9z M400,7c0.4-0.4,0.6-1,0.6-1.8c0-0.7-0.2-1.3-0.6-1.7
		c-0.4-0.4-0.8-0.7-1.4-0.7c-0.6,0-1.1,0.2-1.5,0.7c-0.4,0.4-0.5,1-0.5,1.7c0,0.7,0.2,1.3,0.5,1.8c0.4,0.4,0.8,0.7,1.5,0.7
		C399.2,7.7,399.7,7.5,400,7z"/>
	<path d="M407,8.4V4.7c0-0.6-0.1-1-0.4-1.2c-0.2-0.2-0.6-0.4-1.1-0.4c-0.5,0-0.9,0.2-1.3,0.5s-0.5,0.8-0.5,1.3v3.5h-1.1V2.2h1.1v0.7
		c0.3-0.3,0.6-0.5,1-0.7c0.4-0.2,0.9-0.3,1.4-0.2c0.7,0.1,1.1,0.4,1.4,0.8c0.3,0.5,0.4,0.9,0.4,1.3v4.2H407z"/>
	<path d="M410.8,3.2v5.2h-1.1V3.2l-0.8,0V2.3l0.8,0V1.5c0-0.3,0-0.6,0.1-0.7c0-0.2,0.1-0.3,0.2-0.5c0.1-0.1,0.2-0.3,0.4-0.4
		c0.2-0.1,0.4-0.1,0.6-0.1h0.8v0.9c-0.1,0-0.2,0-0.3,0c-0.1,0-0.3,0-0.4,0.1c-0.1,0.1-0.2,0.2-0.2,0.3c0,0.1,0,0.3,0,0.4v0.6l0.9,0
		v0.9H410.8z"/>
	<path d="M412.8,0.9v-1.1h1.1v1.1H412.8z M412.8,8.4V2.2h1.1v6.2H412.8z"/>
	<path d="M421,7.5c0,1-0.3,1.7-0.9,2.1c-0.6,0.4-1.3,0.6-2,0.6c-0.9,0-1.6-0.2-2.1-0.6s-0.8-0.9-0.8-1.4h1.1c0,0.3,0.2,0.5,0.5,0.8
		c0.3,0.2,0.8,0.3,1.4,0.3c0.6,0,1.1-0.1,1.4-0.4c0.3-0.3,0.4-0.7,0.4-1.2V6.9c-0.3,0.3-0.6,0.5-1,0.7c-0.4,0.2-0.7,0.2-1.1,0.2
		c-0.8,0-1.5-0.3-2.1-0.8c-0.6-0.6-0.9-1.3-0.9-2.1s0.3-1.6,0.8-2.1c0.6-0.5,1.3-0.8,2.1-0.8c0.4,0,0.8,0.1,1.1,0.2s0.7,0.4,1,0.7
		V2.2h1.1V7.5z M419.5,6.4c0.4-0.3,0.6-0.8,0.6-1.5c0-0.7-0.2-1.2-0.6-1.5c-0.4-0.3-0.8-0.5-1.4-0.5c-0.6,0-1.1,0.2-1.4,0.5
		c-0.4,0.3-0.5,0.8-0.5,1.5c0,0.7,0.2,1.2,0.5,1.5c0.4,0.3,0.8,0.5,1.4,0.5C418.6,6.9,419.1,6.7,419.5,6.4z"/>
	<path d="M426.8,8.4V7.6c-0.2,0.3-0.5,0.5-0.8,0.7s-0.8,0.3-1.3,0.3c-0.5,0-1-0.2-1.5-0.6s-0.7-1-0.7-1.7V2.2h1.1v3.7
		c0,0.6,0.1,1,0.4,1.2c0.3,0.3,0.6,0.4,1.1,0.4c0.5,0,0.9-0.2,1.2-0.5c0.3-0.3,0.5-0.8,0.5-1.3V2.2h1.1v6.2H426.8z"/>
	<path d="M432.6,3.1c-0.2,0-0.4,0-0.6,0c-0.2,0-0.3,0.1-0.5,0.1c-0.4,0.2-0.6,0.4-0.8,0.8c-0.2,0.3-0.3,0.8-0.3,1.4v2.9h-1.1V2.2
		h1.1v0.9l0.1,0c0.1-0.2,0.3-0.4,0.5-0.6c0.2-0.1,0.4-0.3,0.6-0.4c0.2-0.1,0.4-0.1,0.6-0.1c0.2,0,0.3,0,0.3,0V3.1z"/>
	<path d="M437.5,8.4c-0.1-0.1-0.1-0.3-0.2-0.4c0-0.2,0-0.3-0.1-0.5c-0.2,0.3-0.6,0.5-1,0.7s-0.8,0.3-1.3,0.4c-0.6,0-1.2-0.1-1.6-0.3
		s-0.7-0.7-0.8-1.2c-0.1-0.6,0-1,0.3-1.3c0.3-0.3,0.7-0.5,1.1-0.7c0.4-0.1,0.8-0.2,1.2-0.2c0.4,0,0.8-0.1,1.2-0.1
		c0.2,0,0.4-0.1,0.6-0.2c0.2-0.1,0.3-0.2,0.3-0.5c0-0.3-0.1-0.5-0.4-0.8s-0.7-0.4-1.2-0.4s-1,0.1-1.3,0.3c-0.3,0.2-0.4,0.5-0.3,0.8
		h-1.1c-0.1-0.7,0.2-1.2,0.7-1.5c0.6-0.4,1.2-0.5,2-0.5c0.7,0,1.3,0.2,1.9,0.5c0.6,0.4,0.8,0.9,0.8,1.5v3.4c0,0.3,0,0.5,0.1,0.7
		s0.1,0.3,0.1,0.3H437.5z M437.3,5.2c-0.1,0.1-0.2,0.1-0.3,0.2s-0.2,0.1-0.4,0.1c-0.2,0.1-0.6,0.1-1,0.1s-0.7,0.1-0.9,0.2
		c-0.4,0.1-0.6,0.3-0.8,0.4c-0.2,0.2-0.3,0.4-0.2,0.7c0,0.3,0.2,0.5,0.5,0.7c0.3,0.1,0.6,0.2,0.9,0.1c0.7,0,1.3-0.3,1.6-0.6
		c0.4-0.4,0.6-0.7,0.6-1V5.2z"/>
	<path d="M441.1,8.4c-0.2,0-0.4-0.1-0.6-0.2c-0.2-0.1-0.3-0.2-0.4-0.4c-0.1-0.1-0.2-0.3-0.2-0.4s-0.1-0.4-0.1-0.7V3.2h-0.8V2.3
		l0.8,0V0.3h1.1v1.9l0.9,0v0.9h-0.9v3.4c0,0.1,0,0.3,0,0.4s0.1,0.2,0.2,0.3c0.1,0.1,0.2,0.1,0.4,0.2c0.1,0,0.3,0,0.4,0l0,0.9H441.1z
		"/>
	<path d="M442.9,0.9v-1.1h1.1v1.1H442.9z M442.9,8.4V2.2h1.1v6.2H442.9z"/>
	<path d="M450.4,2.9c0.6,0.6,0.8,1.4,0.8,2.4s-0.3,1.7-0.8,2.4c-0.6,0.6-1.3,0.9-2.3,0.9c-1,0-1.7-0.3-2.3-0.9
		c-0.6-0.6-0.8-1.4-0.8-2.4s0.3-1.7,0.8-2.4c0.6-0.6,1.3-0.9,2.3-0.9C449.1,2,449.8,2.3,450.4,2.9z M449.5,7c0.4-0.4,0.6-1,0.6-1.8
		c0-0.7-0.2-1.3-0.6-1.7c-0.4-0.4-0.8-0.7-1.4-0.7c-0.6,0-1.1,0.2-1.5,0.7c-0.4,0.4-0.5,1-0.5,1.7c0,0.7,0.2,1.3,0.5,1.8
		c0.4,0.4,0.8,0.7,1.5,0.7C448.7,7.7,449.1,7.5,449.5,7z"/>
	<path d="M456.5,8.4V4.7c0-0.6-0.1-1-0.4-1.2c-0.2-0.2-0.6-0.4-1.1-0.4c-0.5,0-0.9,0.2-1.3,0.5c-0.3,0.3-0.5,0.8-0.5,1.3v3.5h-1.1
		V2.2h1.1v0.7c0.3-0.3,0.6-0.5,1-0.7s0.9-0.3,1.4-0.2c0.7,0.1,1.1,0.4,1.4,0.8s0.4,0.9,0.4,1.3v4.2H456.5z"/>
	<path d="M460,6.9c0.3-0.9,0.4-1.9,0.4-2.8c0-0.9-0.1-1.8-0.4-2.8s-0.7-2-1.4-3h0.9c0.4,0.6,0.9,1.4,1.4,2.4c0.5,1,0.7,2.1,0.7,3.4
		c0,1.3-0.2,2.5-0.7,3.4c-0.5,1-0.9,1.8-1.4,2.4h-0.9C459.3,8.9,459.7,7.8,460,6.9z"/>
</g>
<g>
	<path d="M334.5,131.6c-0.4-0.1-0.9-0.4-1.4-0.7c-0.5-0.4-1-0.8-1.4-1.3c-0.2,0.5-0.6,0.9-1.2,1.4c-0.6,0.5-1.1,0.8-1.6,0.9
		l-0.8-0.8c1.2-0.4,1.9-0.9,2.4-1.5c0.4-0.6,0.6-1.2,0.6-2h-2.2v-1h5.8v1h-2.2c0,0.7,0.2,1.4,0.7,1.9c0.4,0.5,1.2,0.9,2.2,1.2
		L334.5,131.6z M336.8,136c-0.7,0.4-1.7,0.6-3,0.6c-1.3,0-2.3-0.2-3-0.6s-1-0.9-1-1.5s0.3-1.1,1-1.5c0.7-0.4,1.7-0.6,3-0.6
		c1.3,0,2.3,0.2,3,0.6c0.7,0.4,1,0.9,1,1.5S337.4,135.7,336.8,136z M335.7,133.8c-0.5-0.2-1.1-0.3-1.9-0.3c-0.8,0-1.5,0.1-2,0.3
		c-0.5,0.2-0.7,0.5-0.7,0.8c0,0.3,0.2,0.6,0.7,0.8c0.5,0.2,1.1,0.3,2,0.3c0.8,0,1.4-0.1,1.9-0.3s0.7-0.5,0.7-0.8
		C336.5,134.3,336.2,134,335.7,133.8z M337.5,129.3v3h-1.2v-6.4h1.2v2.4h1.5v1.1H337.5z"/>
	<path d="M345.6,134.6c-0.3-0.2-0.8-0.5-1.4-1c-0.6-0.5-1-1-1.2-1.5c-0.2,0.5-0.6,1.1-1.1,1.6c-0.6,0.6-1.1,0.9-1.6,1.1l-0.9-0.9
		c1.3-0.6,2.2-1.4,2.5-2.2s0.5-1.4,0.5-1.8v-0.4H340v-1h6v1h-2.4v0.4c0,0.5,0.2,1.1,0.5,1.7s1.1,1.3,2.3,2L345.6,134.6z
		 M341.3,127.4v-1h3.4v1H341.3z M347.7,136.5v-10.6h1.2v10.6H347.7z"/>
	<path d="M356,132.9v3.6h-1.2v-3.6h-4.7v-1h10.6v1H356z M358.4,130c-0.7,0.4-1.7,0.7-3,0.7c-1.3,0-2.3-0.2-3-0.7
		c-0.7-0.4-1.1-1-1.1-1.7c0-0.7,0.4-1.2,1.1-1.7c0.7-0.4,1.7-0.7,3-0.7c1.3,0,2.3,0.2,3,0.7s1.1,1,1.1,1.7
		C359.5,129,359.2,129.5,358.4,130z M353.3,127.3c-0.5,0.3-0.8,0.6-0.8,1c0,0.4,0.3,0.7,0.8,1s1.2,0.4,2,0.4c0.8,0,1.5-0.1,2-0.4
		c0.5-0.3,0.8-0.6,0.8-1c0-0.4-0.3-0.8-0.8-1c-0.5-0.3-1.2-0.4-2-0.4C354.6,126.9,353.9,127,353.3,127.3z"/>
	<path d="M367.6,132.1c-0.5-0.2-1.1-0.6-1.6-1.1c-0.6-0.5-1-1-1.2-1.5c-0.2,0.6-0.6,1.1-1.1,1.6c-0.5,0.5-1.1,0.9-1.7,1.3l-0.8-0.8
		c1.5-0.7,2.3-1.5,2.6-2.4c0.3-0.9,0.4-1.6,0.4-2.1v-0.9h1.3v0.9c0,0.5,0.2,1.1,0.5,2s1.1,1.6,2.4,2.1L367.6,132.1z M363.4,136.2
		v-3.3h1.2v2.3h6.6v1H363.4z M369.7,133.5v-4.3h-2.2v-1.1h2.2v-2.3h1.2v7.6H369.7z"/>
	<path d="M378.2,132.1v2.2H377v-2.2h-4.8v-1h10.6v1H378.2z M376,129.4c-0.7,0.5-1.5,0.8-2.4,0.9l-0.7-0.8c1.7-0.3,2.8-0.8,3.3-1.6
		c0.5-0.7,0.7-1.3,0.7-1.7v-0.4h1.3v0.4c0,0.4,0.3,0.9,0.8,1.6c0.5,0.7,1.6,1.2,3.3,1.6l-0.7,0.8c-0.8-0.2-1.6-0.5-2.4-1
		c-0.8-0.5-1.3-1-1.5-1.6C377.2,128.4,376.7,128.9,376,129.4z M373.6,136.2v-3h1.2v2h6.9v1H373.6z"/>
	<path d="M389.6,132.6c-0.8,0.1-1.4,0.1-1.8,0.1v3.5h-1.2v-3.5h-2.9v-1h3.2c0.6,0,1.4,0,2.5-0.1c1.1-0.1,1.8-0.1,2.1-0.2v1
		C391,132.5,390.4,132.5,389.6,132.6z M389.4,126.8c0.5,0.5,0.8,1,0.8,1.6c0,0.6-0.3,1.1-0.8,1.6c-0.5,0.4-1.2,0.7-2,0.7
		c-0.8,0-1.5-0.2-2-0.7c-0.5-0.4-0.8-1-0.8-1.6c0-0.6,0.3-1.1,0.8-1.6s1.2-0.7,2-0.7C388.2,126.1,388.9,126.3,389.4,126.8z
		 M386.2,127.5c-0.3,0.3-0.4,0.6-0.4,0.9s0.1,0.6,0.4,0.9c0.3,0.3,0.7,0.4,1.2,0.4c0.5,0,0.9-0.1,1.2-0.4c0.3-0.3,0.4-0.6,0.4-0.9
		s-0.1-0.6-0.4-0.9c-0.3-0.3-0.7-0.4-1.2-0.4C386.8,127.1,386.4,127.2,386.2,127.5z M391.9,136.5v-10.6h1.2v10.6H391.9z"/>
	<path d="M396.6,137c-0.4-0.6-0.9-1.4-1.4-2.4c-0.5-1-0.7-2.1-0.7-3.4c0-1.3,0.2-2.5,0.7-3.4c0.5-1,0.9-1.8,1.4-2.4h0.9
		c-0.6,1.1-1.1,2.1-1.4,3c-0.3,0.9-0.4,1.9-0.4,2.8c0,0.9,0.1,1.8,0.4,2.8s0.7,2,1.4,3H396.6z"/>
	<path d="M404.4,132c0.3,0.4,0.4,0.9,0.3,1.4c-0.1,0.7-0.4,1.2-0.9,1.7c-0.5,0.5-1.3,0.7-2.4,0.7c-1.1,0-2-0.3-2.5-1
		c-0.5-0.7-0.8-1.4-0.9-2.1h1.2c0,0.7,0.3,1.2,0.7,1.6c0.4,0.4,0.9,0.6,1.6,0.6c0.6,0,1.1-0.1,1.5-0.4c0.3-0.3,0.5-0.6,0.6-1.1
		c0.1-0.3,0-0.6-0.2-0.8s-0.4-0.4-0.8-0.6c-0.4-0.2-0.8-0.3-1.2-0.3c-0.4,0-0.9-0.1-1.3-0.3c-0.6-0.2-1-0.5-1.3-0.8
		s-0.4-0.8-0.4-1.4c0-0.6,0.3-1.1,0.8-1.6s1.3-0.8,2.3-0.8c1.2,0,2,0.3,2.4,1c0.4,0.7,0.7,1.2,0.7,1.7l-1.2,0c0-0.5-0.2-0.9-0.5-1.2
		c-0.3-0.3-0.8-0.5-1.5-0.5c-0.6,0-1.1,0.2-1.4,0.5c-0.3,0.3-0.4,0.6-0.4,1c0,0.4,0.1,0.7,0.3,0.8s0.5,0.3,0.7,0.4
		c0.3,0.1,0.7,0.2,1.2,0.3c0.5,0.1,1,0.2,1.4,0.4S404.2,131.6,404.4,132z"/>
	<path d="M407.1,135.4c-0.2,0-0.4-0.1-0.6-0.2c-0.2-0.1-0.3-0.2-0.4-0.4c-0.1-0.1-0.2-0.3-0.2-0.4c0-0.2-0.1-0.4-0.1-0.7v-3.5H405
		v-0.9l0.8,0v-1.9h1.1v1.9l0.9,0v0.9h-0.9v3.4c0,0.1,0,0.3,0,0.4s0.1,0.2,0.2,0.3c0.1,0.1,0.2,0.1,0.4,0.2c0.1,0,0.3,0,0.4,0l0,0.9
		H407.1z"/>
	<path d="M413.2,135.5c-0.1-0.1-0.1-0.3-0.1-0.4s0-0.3-0.1-0.5c-0.2,0.3-0.6,0.5-1,0.7c-0.4,0.2-0.8,0.3-1.3,0.4
		c-0.6,0-1.2-0.1-1.6-0.3c-0.5-0.2-0.7-0.7-0.8-1.2c-0.1-0.6,0-1,0.3-1.3c0.3-0.3,0.7-0.5,1.1-0.7c0.4-0.1,0.8-0.2,1.2-0.2
		c0.4,0,0.8-0.1,1.2-0.1c0.2,0,0.4-0.1,0.6-0.2c0.2-0.1,0.3-0.2,0.3-0.5c0-0.3-0.1-0.5-0.4-0.8c-0.2-0.2-0.7-0.4-1.2-0.4
		c-0.6,0-1,0.1-1.3,0.3c-0.3,0.2-0.4,0.5-0.3,0.8h-1.1c-0.1-0.7,0.2-1.2,0.7-1.5c0.6-0.4,1.2-0.5,2-0.5c0.7,0,1.3,0.2,1.9,0.5
		c0.6,0.4,0.8,0.9,0.8,1.5v3.4c0,0.3,0,0.5,0.1,0.7s0.1,0.3,0.1,0.3H413.2z M413,132.2c-0.1,0.1-0.2,0.1-0.3,0.2
		c-0.1,0.1-0.2,0.1-0.4,0.1c-0.2,0.1-0.6,0.1-1,0.1c-0.4,0-0.7,0.1-0.9,0.2c-0.4,0.1-0.6,0.3-0.8,0.4s-0.3,0.4-0.2,0.7
		c0,0.3,0.2,0.5,0.5,0.7c0.3,0.1,0.6,0.2,0.9,0.1c0.7,0,1.3-0.3,1.6-0.6c0.4-0.4,0.6-0.7,0.6-1V132.2z"/>
	<path d="M421,133.5c-0.1,0.6-0.5,1.1-0.9,1.5c-0.5,0.4-1.1,0.7-2,0.7c-1,0-1.7-0.3-2.3-0.9c-0.6-0.6-0.8-1.4-0.8-2.4
		s0.3-1.7,0.8-2.4c0.6-0.6,1.3-0.9,2.3-0.9c0.8,0,1.5,0.2,2,0.7c0.5,0.5,0.8,1,0.9,1.5h-1.2c-0.1-0.3-0.2-0.5-0.5-0.8
		c-0.3-0.3-0.7-0.4-1.2-0.4c-0.6,0-1.1,0.2-1.4,0.7c-0.3,0.4-0.5,1-0.5,1.7s0.2,1.3,0.5,1.7c0.3,0.4,0.8,0.7,1.4,0.7
		c0.5,0,0.8-0.1,1.1-0.4c0.3-0.2,0.5-0.5,0.6-0.8H421z"/>
	<path d="M426.6,135.4l-2.6-3.1l-0.9,0.7v2.4H422v-8.5h1.1v4.9l2.8-2.6h1.4l-2.6,2.5l3.2,3.7H426.6z"/>
	<path d="M428.6,128v-1.1h1.1v1.1H428.6z M428.6,135.4v-6.2h1.1v6.2H428.6z"/>
	<path d="M435.5,135.4v-3.7c0-0.6-0.1-1-0.4-1.2s-0.6-0.4-1.1-0.4c-0.5,0-0.9,0.2-1.3,0.5s-0.5,0.8-0.5,1.3v3.5h-1.1v-6.2h1.1v0.7
		c0.3-0.3,0.6-0.5,1-0.7s0.9-0.3,1.4-0.2c0.7,0.1,1.1,0.4,1.4,0.8s0.4,0.9,0.4,1.3v4.2H435.5z"/>
	<path d="M443.7,134.5c0,1-0.3,1.7-0.9,2.1c-0.6,0.4-1.3,0.6-2,0.6c-0.9,0-1.6-0.2-2.1-0.6c-0.5-0.4-0.8-0.9-0.8-1.4h1.1
		c0,0.3,0.2,0.5,0.5,0.8c0.3,0.2,0.8,0.3,1.4,0.3c0.6,0,1.1-0.1,1.4-0.4c0.3-0.3,0.4-0.7,0.4-1.2v-0.6c-0.3,0.3-0.6,0.5-1,0.7
		c-0.4,0.2-0.7,0.2-1.1,0.2c-0.8,0-1.5-0.3-2.1-0.8c-0.6-0.6-0.9-1.3-0.9-2.1s0.3-1.6,0.8-2.1c0.6-0.5,1.3-0.8,2.1-0.8
		c0.4,0,0.8,0.1,1.1,0.2s0.7,0.4,1,0.7v-0.6h1.1V134.5z M442.2,133.4c0.4-0.3,0.6-0.8,0.6-1.5c0-0.7-0.2-1.2-0.6-1.5
		c-0.4-0.3-0.8-0.5-1.4-0.5c-0.6,0-1.1,0.2-1.4,0.5c-0.4,0.3-0.5,0.8-0.5,1.5c0,0.7,0.2,1.2,0.5,1.5c0.4,0.3,0.8,0.5,1.4,0.5
		C441.3,133.9,441.8,133.8,442.2,133.4z"/>
	<path d="M455,127.6c0.6,0.5,0.8,1.1,0.8,1.9c0,0.8-0.3,1.4-0.8,1.9c-0.6,0.5-1.2,0.7-2.1,0.7h-2.4v3.3h-1.1v-8.5h3.5
		C453.8,126.9,454.4,127.2,455,127.6z M454.1,130.7c0.4-0.3,0.5-0.7,0.5-1.2c0-0.6-0.2-1-0.5-1.2c-0.4-0.2-0.8-0.3-1.2-0.3h-2.4v3.1
		h2.4C453.4,131.1,453.8,130.9,454.1,130.7z"/>
	<path d="M460,130.2c-0.2,0-0.4,0-0.6,0c-0.2,0-0.3,0.1-0.5,0.1c-0.4,0.2-0.6,0.4-0.8,0.8c-0.2,0.3-0.3,0.8-0.3,1.4v2.9h-1.1v-6.1
		h1.1v0.9l0.1,0c0.1-0.2,0.3-0.4,0.5-0.6c0.2-0.1,0.4-0.3,0.6-0.4c0.2-0.1,0.4-0.1,0.6-0.1c0.2,0,0.3,0,0.3,0V130.2z"/>
	<path d="M460.9,128v-1.1h1.1v1.1H460.9z M460.9,135.4v-6.2h1.1v6.2H460.9z"/>
	<path d="M468.3,130c0.6,0.6,0.8,1.4,0.8,2.4s-0.3,1.7-0.8,2.4s-1.3,0.9-2.3,0.9c-1,0-1.7-0.3-2.3-0.9c-0.6-0.6-0.8-1.4-0.8-2.4
		s0.3-1.7,0.8-2.4c0.6-0.6,1.3-0.9,2.3-0.9C467,129,467.8,129.4,468.3,130z M467.5,134.1c0.4-0.4,0.6-1,0.6-1.8
		c0-0.7-0.2-1.3-0.6-1.7c-0.4-0.4-0.8-0.7-1.4-0.7c-0.6,0-1.1,0.2-1.5,0.7c-0.4,0.4-0.5,1-0.5,1.7c0,0.7,0.2,1.3,0.5,1.8
		s0.8,0.7,1.5,0.7C466.6,134.8,467.1,134.5,467.5,134.1z"/>
	<path d="M473.3,130.2c-0.2,0-0.4,0-0.6,0c-0.2,0-0.3,0.1-0.5,0.1c-0.4,0.2-0.6,0.4-0.8,0.8s-0.3,0.8-0.3,1.4v2.9h-1.1v-6.1h1.1v0.9
		l0.1,0c0.1-0.2,0.3-0.4,0.5-0.6c0.2-0.1,0.4-0.3,0.6-0.4c0.2-0.1,0.4-0.1,0.6-0.1s0.3,0,0.3,0V130.2z"/>
	<path d="M474.3,128v-1.1h1.1v1.1H474.3z M474.3,135.4v-6.2h1.1v6.2H474.3z"/>
	<path d="M478.2,135.4c-0.2,0-0.4-0.1-0.6-0.2c-0.2-0.1-0.3-0.2-0.4-0.4c-0.1-0.1-0.2-0.3-0.2-0.4s-0.1-0.4-0.1-0.7v-3.5h-0.8v-0.9
		l0.8,0v-1.9h1.1v1.9l0.9,0v0.9H478v3.4c0,0.1,0,0.3,0,0.4s0.1,0.2,0.2,0.3c0.1,0.1,0.2,0.1,0.4,0.2c0.1,0,0.3,0,0.4,0l0,0.9H478.2z
		"/>
	<path d="M482.8,136.1c-0.1,0.2-0.2,0.4-0.3,0.5c-0.1,0.1-0.3,0.3-0.4,0.4c-0.2,0.1-0.4,0.2-0.5,0.2c-0.2,0-0.4,0-0.5,0h-0.4v-0.9
		h0.6c0.2,0,0.3-0.1,0.4-0.2c0.1-0.1,0.2-0.2,0.3-0.3l0.3-0.6l-2.5-5.9l1.1,0l1.9,4.5l1.9-4.5h1.1L482.8,136.1z"/>
	<path d="M487.4,133.9c0.3-0.9,0.4-1.9,0.4-2.8c0-0.9-0.1-1.8-0.4-2.8c-0.3-0.9-0.7-2-1.4-3h0.9c0.4,0.6,0.9,1.4,1.4,2.4
		c0.5,1,0.7,2.1,0.7,3.4c0,1.3-0.2,2.5-0.7,3.4c-0.5,1-0.9,1.8-1.4,2.4h-0.9C486.7,135.9,487.1,134.9,487.4,133.9z"/>
	<path d="M378.8,148.8c-0.5-0.3-1-0.7-1.5-1.3c-0.6-0.6-0.9-1.1-1.1-1.7c-0.2,0.7-0.6,1.3-1.2,1.9s-1.1,1-1.6,1.4l-1-0.8
		c1.2-0.7,2-1.5,2.5-2.4c0.4-0.9,0.6-1.8,0.6-2.6v-0.8h-2.4v-1h6.1v1h-2.4v0.8c0,0.8,0.2,1.7,0.6,2.5s1.1,1.5,2.1,2.1L378.8,148.8z
		 M380.9,150.9v-10.6h1.2v10.6H380.9z"/>
	<path d="M383.2,149.3v-1h7.2c0.1-0.5,0.2-1.4,0.4-2.6s0.3-2.2,0.3-2.9h-6.9v-1h8.2c0,0.9-0.1,2-0.3,3.4c-0.2,1.4-0.4,2.5-0.6,3.2
		h2.1v1H383.2z"/>
	<path d="M394.9,142.6v-1h4.9v1H398v0.4c0,0.5,0.1,1.3,0.4,2.4c0.2,1,0.9,2,2,2.8l-0.9,0.8c-0.4-0.3-0.8-0.7-1.2-1.3
		c-0.5-0.6-0.8-1.1-0.9-1.6c-0.1,0.5-0.4,1.1-0.9,1.7c-0.4,0.6-0.9,1.1-1.3,1.5l-1-0.7c1.2-0.9,1.9-1.9,2.2-3s0.4-1.9,0.4-2.4v-0.4
		H394.9z M400.9,150.4v-5.2h-1.8v-1.1h1.8v-3.6h1.2v9.8H400.9z M403.2,150.9v-10.6h1.2v10.6H403.2z"/>
	<path d="M405.3,149.3v-1h7.2c0.1-0.5,0.2-1.4,0.4-2.6s0.3-2.2,0.3-2.9h-6.9v-1h8.2c0,0.9-0.1,2-0.3,3.4c-0.2,1.4-0.4,2.5-0.6,3.2
		h2.1v1H405.3z"/>
	<path d="M416.3,149.5v-1h4.7v-2.3h-3.2v-4.9h7.6v4.9h-3.2v2.3h4.7v1H416.3z M424.2,142.3H419v2.9h5.2V142.3z"/>
	<path d="M432.7,145c-0.5,0.5-1.2,0.8-2.1,0.8c-0.8,0-1.5-0.3-2.1-0.8c-0.6-0.5-0.8-1.1-0.8-1.8c0-0.7,0.3-1.3,0.8-1.8
		c0.6-0.5,1.3-0.8,2.1-0.8c0.9,0,1.6,0.3,2.1,0.8s0.8,1.1,0.8,1.8C433.5,143.9,433.2,144.5,432.7,145z M431.8,142.1
		c-0.3-0.3-0.7-0.5-1.2-0.5c-0.5,0-1,0.2-1.2,0.5c-0.3,0.3-0.4,0.7-0.4,1.1c0,0.4,0.1,0.8,0.4,1.1c0.3,0.3,0.7,0.5,1.2,0.5
		c0.5,0,1-0.2,1.2-0.5c0.3-0.3,0.4-0.7,0.4-1.1C432.3,142.8,432.1,142.4,431.8,142.1z M435.9,150.4c-0.7,0.4-1.7,0.6-3,0.6
		c-1.3,0-2.3-0.2-3-0.6c-0.7-0.4-1-0.9-1-1.5s0.3-1.1,1-1.5c0.7-0.4,1.7-0.6,3-0.6c1.3,0,2.3,0.2,3,0.6c0.7,0.4,1,0.9,1,1.5
		S436.5,150,435.9,150.4z M434.8,148c-0.5-0.2-1.1-0.3-1.9-0.3s-1.5,0.1-2,0.3s-0.7,0.5-0.7,0.9c0,0.3,0.2,0.6,0.7,0.9
		c0.5,0.2,1.1,0.4,2,0.4s1.5-0.1,1.9-0.3c0.5-0.2,0.7-0.5,0.7-0.9C435.5,148.6,435.3,148.3,434.8,148z M436.5,144.9v1.6h-1.2v-6.3
		h1.2v1.4h1.5v1h-1.5v1.2h1.5v1H436.5z"/>
	<path d="M439.4,141.2c0.5-0.6,1.3-0.9,2.4-0.9c0.9,0,1.7,0.3,2.3,0.9c0.6,0.6,0.8,1.3,0.6,2.1c-0.2,0.9-0.6,1.6-1.3,1.9
		s-1.1,0.9-1.1,1.8v1.2h-1.2V147c0-1,0.3-1.8,1-2.2c0.7-0.4,1.1-0.9,1.2-1.6c0.1-0.5,0-0.9-0.3-1.3c-0.3-0.4-0.8-0.6-1.4-0.6
		c-0.6,0-1.1,0.2-1.4,0.5c-0.3,0.4-0.4,0.8-0.4,1.3h-1.2C438.7,142.5,438.9,141.8,439.4,141.2z M442.6,149.3v1.5H441v-1.5H442.6z"/>
</g>
<g>
	<g>
		<path d="M428.3,81.5v-6.1h-1.8v-1.1c0.3,0,0.5,0,0.8-0.1c0.2-0.1,0.5-0.2,0.7-0.3c0.1-0.1,0.3-0.3,0.4-0.5
			c0.1-0.2,0.2-0.4,0.2-0.6h1v8.8H428.3z"/>
	</g>
	<g>
		<g>
			<path d="M411.7,62.4c0.5,0.5,0.7,1.2,0.7,1.8c0,0.7-0.2,1.3-0.6,1.7c-0.4,0.4-0.8,0.8-1.1,1l-1.5,1.1c-0.2,0.2-0.4,0.3-0.6,0.6
				c-0.2,0.2-0.4,0.5-0.5,0.8l4.3,0v1.1h-5.8c0-0.6,0.1-1.2,0.4-1.8c0.2-0.6,0.8-1.2,1.6-1.8l1.4-1c0.3-0.2,0.5-0.4,0.8-0.7
				c0.2-0.3,0.3-0.6,0.3-1c0-0.4-0.1-0.8-0.4-1.1c-0.2-0.3-0.6-0.4-1.1-0.4c-0.6,0-1,0.2-1.2,0.5c-0.2,0.4-0.4,0.7-0.4,1.2h-1.2
				c0-0.7,0.2-1.3,0.7-1.9c0.5-0.6,1.2-0.9,2.1-0.9C410.5,61.6,411.2,61.8,411.7,62.4z"/>
		</g>
	</g>
	<g>
		<g>
			<path d="M392.1,56.9c0.2,0.4,0.4,0.8,0.4,1.2c0,0.8-0.3,1.4-0.9,1.9c-0.6,0.5-1.3,0.8-2.2,0.8c-0.8,0-1.6-0.3-2.1-0.8
				c-0.6-0.6-0.8-1.2-0.8-2h1.2c0,0.4,0.1,0.8,0.4,1.1c0.3,0.3,0.7,0.5,1.3,0.5c0.5,0,0.9-0.2,1.2-0.5c0.3-0.3,0.4-0.7,0.4-1.1
				c0-0.3-0.1-0.6-0.3-0.9c-0.2-0.2-0.5-0.4-0.8-0.5c-0.2-0.1-0.4-0.1-0.6-0.1c-0.2,0-0.4,0-0.6,0v-1.1c0.2,0,0.4,0,0.6,0
				c0.2,0,0.4-0.1,0.5-0.1c0.3-0.1,0.5-0.3,0.6-0.5c0.1-0.2,0.2-0.5,0.2-0.8c0-0.3-0.1-0.6-0.4-0.9c-0.2-0.3-0.6-0.4-1.1-0.4
				c-0.5,0-0.9,0.2-1.1,0.5c-0.2,0.3-0.4,0.6-0.4,1h-1.2c0-0.8,0.2-1.4,0.8-1.9c0.5-0.5,1.2-0.7,1.9-0.7c0.8,0,1.4,0.2,1.9,0.7
				c0.5,0.5,0.8,1.1,0.8,1.7c0,0.5-0.1,0.9-0.3,1.2c-0.2,0.3-0.5,0.5-0.8,0.7C391.5,56.2,391.9,56.5,392.1,56.9z"/>
		</g>
	</g>
	<g>
		<rect x="382.5" y="95.9" fill="none" stroke="#040000" stroke-width="2.3717" stroke-miterlimit="10" width="15" height="6"/>
		<line fill="none" stroke="#000000" stroke-miterlimit="10" x1="386" y1="98.4" x2="386" y2="99.4"/>
		<line fill="none" stroke="#000000" stroke-miterlimit="10" x1="394" y1="98.4" x2="394" y2="99.4"/>
		<line fill="none" stroke="#000000" stroke-miterlimit="10" x1="390" y1="98.4" x2="390" y2="99.4"/>
		<rect x="402" y="95.9" fill="none" stroke="#040000" stroke-width="2.3717" stroke-miterlimit="10" width="15" height="6"/>
		<line fill="none" stroke="#000000" stroke-miterlimit="10" x1="405.5" y1="98.4" x2="405.5" y2="99.4"/>
		<line fill="none" stroke="#000000" stroke-miterlimit="10" x1="413.5" y1="98.4" x2="413.5" y2="99.4"/>
		<line fill="none" stroke="#000000" stroke-miterlimit="10" x1="409.5" y1="98.4" x2="409.5" y2="99.4"/>
		<rect x="421.5" y="95.9" fill="none" stroke="#040000" stroke-width="2.3717" stroke-miterlimit="10" width="15" height="6"/>
		<line fill="none" stroke="#000000" stroke-miterlimit="10" x1="425" y1="98.4" x2="425" y2="99.4"/>
		<line fill="none" stroke="#000000" stroke-miterlimit="10" x1="433" y1="98.4" x2="433" y2="99.4"/>
		<line fill="none" stroke="#000000" stroke-miterlimit="10" x1="429" y1="98.4" x2="429" y2="99.4"/>
		<rect x="382.5" y="85.9" fill="none" stroke="#040000" stroke-width="2.3717" stroke-miterlimit="10" width="15" height="6"/>
		<line fill="none" stroke="#000000" stroke-miterlimit="10" x1="386" y1="88.4" x2="386" y2="89.4"/>
		<line fill="none" stroke="#000000" stroke-miterlimit="10" x1="394" y1="88.4" x2="394" y2="89.4"/>
		<line fill="none" stroke="#000000" stroke-miterlimit="10" x1="390" y1="88.4" x2="390" y2="89.4"/>
		<rect x="402" y="85.9" fill="none" stroke="#040000" stroke-width="2.3717" stroke-miterlimit="10" width="15" height="6"/>
		<line fill="none" stroke="#000000" stroke-miterlimit="10" x1="405.5" y1="88.4" x2="405.5" y2="89.4"/>
		<line fill="none" stroke="#000000" stroke-miterlimit="10" x1="413.5" y1="88.4" x2="413.5" y2="89.4"/>
		<line fill="none" stroke="#000000" stroke-miterlimit="10" x1="409.5" y1="88.4" x2="409.5" y2="89.4"/>
		<rect x="421.5" y="85.9" fill="none" stroke="#040000" stroke-width="2.3717" stroke-miterlimit="10" width="15" height="6"/>
		<line fill="none" stroke="#000000" stroke-miterlimit="10" x1="425" y1="88.4" x2="425" y2="89.4"/>
		<line fill="none" stroke="#000000" stroke-miterlimit="10" x1="433" y1="88.4" x2="433" y2="89.4"/>
		<line fill="none" stroke="#000000" stroke-miterlimit="10" x1="429" y1="88.4" x2="429" y2="89.4"/>
		<rect x="382.5" y="75.9" fill="none" stroke="#040000" stroke-width="2.3717" stroke-miterlimit="10" width="15" height="6"/>
		<line fill="none" stroke="#000000" stroke-miterlimit="10" x1="386" y1="78.4" x2="386" y2="79.4"/>
		<line fill="none" stroke="#000000" stroke-miterlimit="10" x1="394" y1="78.4" x2="394" y2="79.4"/>
		<line fill="none" stroke="#000000" stroke-miterlimit="10" x1="390" y1="78.4" x2="390" y2="79.4"/>
		<rect x="402" y="75.9" fill="none" stroke="#040000" stroke-width="2.3717" stroke-miterlimit="10" width="15" height="6"/>
		<line fill="none" stroke="#000000" stroke-miterlimit="10" x1="405.5" y1="78.4" x2="405.5" y2="79.4"/>
		<line fill="none" stroke="#000000" stroke-miterlimit="10" x1="413.5" y1="78.4" x2="413.5" y2="79.4"/>
		<line fill="none" stroke="#000000" stroke-miterlimit="10" x1="409.5" y1="78.4" x2="409.5" y2="79.4"/>
		<rect x="382.5" y="65.9" fill="none" stroke="#040000" stroke-width="2.3717" stroke-miterlimit="10" width="15" height="6"/>
		<line fill="none" stroke="#000000" stroke-miterlimit="10" x1="386" y1="68.4" x2="386" y2="69.4"/>
		<line fill="none" stroke="#000000" stroke-miterlimit="10" x1="394" y1="68.4" x2="394" y2="69.4"/>
		<line fill="none" stroke="#000000" stroke-miterlimit="10" x1="390" y1="68.4" x2="390" y2="69.4"/>
	</g>
</g>
<g>
	<path d="M339.4-113.1v-0.9H350v0.9H339.4z M340.4-115.8h1.6l-0.1-1.6h-1.2v-0.9h8.2v0.9h-1.2l-0.1,1.6h1.6v0.9h-8.7V-115.8z
		 M340.8-108.1v-2.5h6.5v-0.8h-6.6v-0.9h7.8v2.5h-6.5v0.7h6.9v0.9H340.8z M343-117.4l0.2,1.6h3l0.2-1.6H343z"/>
	<path d="M354.9-110.3c-0.5,0-1,0.1-1.6,0.1l-2.2,0v-4.2h2.8v-2h-2.8v-1h4v4h-2.8v2.1l1.4,0c0.4,0,0.8,0,1.3-0.1s0.8-0.1,1.1-0.1v1
		C355.8-110.4,355.4-110.3,354.9-110.3z M359-108v-5.4h-1.2v4.9h-1.2v-9.8h1.2v3.8h1.2v-4.1h1.2v10.6H359z"/>
	<path d="M367.3-113.5c-0.7,0.1-1.4,0.1-2.2,0.2l-2.7,0v-4.7h1.2v3.7l1.5,0c0.7,0,1.4-0.1,2.1-0.1c0.7-0.1,1.3-0.2,1.7-0.2v1
		C368.5-113.7,368-113.6,367.3-113.5z M370.1-108.4c-0.7,0.4-1.7,0.6-3,0.6c-1.3,0-2.3-0.2-3-0.6c-0.7-0.4-1-1-1-1.6s0.3-1.2,1-1.6
		c0.7-0.4,1.7-0.6,3-0.6c1.3,0,2.3,0.2,3,0.6c0.7,0.4,1,1,1,1.6C371.2-109.4,370.8-108.8,370.1-108.4z M369.1-110.9
		c-0.5-0.2-1.2-0.3-2-0.3c-0.8,0-1.5,0.1-2,0.3c-0.5,0.2-0.8,0.5-0.8,0.9c0,0.4,0.3,0.7,0.8,0.9c0.5,0.2,1.2,0.3,2,0.3
		c0.8,0,1.5-0.1,2-0.3c0.5-0.2,0.8-0.5,0.8-0.9C369.9-110.4,369.6-110.7,369.1-110.9z M369.8-112.4v-6.1h1.2v6.1H369.8z"/>
	<path d="M381.6-110.3c-0.3,0-0.7,0-1.2,0.1l-3.4,0v-1h1.2l-0.2-4.5h1.2l0.2,4.5c0.4,0,0.6,0,0.6,0s0.1,0,0.4,0l0.2-4.5h1.2
		l-0.2,4.4c0.2,0,0.4,0,0.6,0c0.2,0,0.4,0,0.6-0.1v1C382.3-110.4,381.9-110.4,381.6-110.3z M377.2-116.2v-1h5.1v1H377.2z M385.6-108
		v-5.5h-1.3v5h-1.1v-9.8h1.1v3.7h1.3v-4h1.1v10.6H385.6z"/>
	<path d="M393.7-112.4c-0.6,0.1-1.1,0.1-1.6,0.1c-0.7,0-1.4,0-2.2,0c-0.8,0-1.2,0-1.2,0v-5.7h5.2v1h-4v1.4h3.9v1h-3.9v1.4l2.1,0
		c0.5,0,1.1,0,1.7-0.1s1-0.1,1.4-0.2v0.9C394.7-112.5,394.2-112.4,393.7-112.4z M389.7-108.2v-3.2h1.2v2.2h6.7v1H389.7z
		 M396.2-110.8v-4.1h-1.9v-1h1.9v-2.6h1.2v7.8H396.2z"/>
	<path d="M401.1-107.4c-0.4-0.6-0.9-1.4-1.4-2.4c-0.5-1-0.7-2.1-0.7-3.4c0-1.3,0.2-2.5,0.7-3.4c0.5-1,0.9-1.8,1.4-2.4h0.9
		c-0.6,1.1-1.1,2.1-1.4,3c-0.3,0.9-0.4,1.9-0.4,2.8c0,0.9,0.1,1.8,0.4,2.8c0.3,0.9,0.7,2,1.4,3H401.1z"/>
	<path d="M408.7-116.8c0.6,0.5,0.8,1.1,0.8,1.9c0,0.8-0.3,1.4-0.8,1.9c-0.6,0.5-1.2,0.7-2.1,0.7h-2.4v3.3h-1.1v-8.5h3.5
		C407.5-117.5,408.1-117.3,408.7-116.8z M407.8-113.7c0.4-0.3,0.5-0.7,0.5-1.2c0-0.6-0.2-1-0.5-1.2c-0.4-0.2-0.8-0.3-1.2-0.3h-2.4
		v3.1h2.4C407.1-113.4,407.5-113.5,407.8-113.7z"/>
	<path d="M410.4-109v-8.5h1.1v8.5H410.4z"/>
	<path d="M417.4-109c-0.1-0.1-0.1-0.3-0.2-0.4c0-0.2,0-0.3-0.1-0.5c-0.2,0.3-0.6,0.5-1,0.7s-0.8,0.3-1.3,0.4c-0.6,0-1.2-0.1-1.6-0.3
		s-0.7-0.7-0.8-1.2c-0.1-0.6,0-1,0.3-1.3c0.3-0.3,0.7-0.5,1.1-0.7c0.4-0.1,0.8-0.2,1.2-0.2c0.4,0,0.8-0.1,1.2-0.1
		c0.2,0,0.4-0.1,0.6-0.2c0.2-0.1,0.3-0.2,0.3-0.5c0-0.3-0.1-0.5-0.4-0.8s-0.7-0.4-1.2-0.4s-1,0.1-1.3,0.3c-0.3,0.2-0.4,0.5-0.3,0.8
		h-1.1c-0.1-0.7,0.2-1.2,0.7-1.5c0.6-0.4,1.2-0.5,2-0.5c0.7,0,1.3,0.2,1.9,0.5c0.6,0.4,0.8,0.9,0.8,1.5v3.4c0,0.3,0,0.5,0.1,0.7
		s0.1,0.3,0.1,0.3H417.4z M417.2-112.2c-0.1,0.1-0.2,0.1-0.3,0.2s-0.2,0.1-0.4,0.1c-0.2,0.1-0.6,0.1-1,0.1s-0.7,0.1-0.9,0.2
		c-0.4,0.1-0.6,0.3-0.8,0.4c-0.2,0.2-0.3,0.4-0.2,0.7c0,0.3,0.2,0.5,0.5,0.7c0.3,0.1,0.6,0.2,0.9,0.1c0.7,0,1.3-0.3,1.6-0.6
		c0.4-0.4,0.6-0.7,0.6-1V-112.2z"/>
	<path d="M424-109v-3.7c0-0.6-0.1-1-0.4-1.2c-0.2-0.2-0.6-0.4-1.1-0.4c-0.5,0-0.9,0.2-1.3,0.5c-0.3,0.3-0.5,0.8-0.5,1.3v3.5h-1.1
		v-6.2h1.1v0.7c0.3-0.3,0.6-0.5,1-0.7s0.9-0.3,1.4-0.2c0.7,0.1,1.1,0.4,1.4,0.8s0.4,0.9,0.4,1.3v4.2H424z"/>
	<path d="M430.9-109v-3.7c0-0.6-0.1-1-0.4-1.2c-0.2-0.2-0.6-0.4-1.1-0.4c-0.5,0-0.9,0.2-1.3,0.5s-0.5,0.8-0.5,1.3v3.5h-1.1v-6.2h1.1
		v0.7c0.3-0.3,0.6-0.5,1-0.7c0.4-0.2,0.9-0.3,1.4-0.2c0.7,0.1,1.1,0.4,1.4,0.8c0.3,0.5,0.4,0.9,0.4,1.3v4.2H430.9z"/>
	<path d="M433.5-116.5v-1.1h1.1v1.1H433.5z M433.5-109v-6.2h1.1v6.2H433.5z"/>
	<path d="M440.4-109v-3.7c0-0.6-0.1-1-0.4-1.2c-0.2-0.2-0.6-0.4-1.1-0.4c-0.5,0-0.9,0.2-1.3,0.5s-0.5,0.8-0.5,1.3v3.5h-1.1v-6.2h1.1
		v0.7c0.3-0.3,0.6-0.5,1-0.7c0.4-0.2,0.9-0.3,1.4-0.2c0.7,0.1,1.1,0.4,1.4,0.8c0.3,0.5,0.4,0.9,0.4,1.3v4.2H440.4z"/>
	<path d="M448.7-109.9c0,1-0.3,1.7-0.9,2.1c-0.6,0.4-1.3,0.6-2,0.6c-0.9,0-1.6-0.2-2.1-0.6c-0.5-0.4-0.8-0.9-0.8-1.4h1.1
		c0,0.3,0.2,0.5,0.5,0.8c0.3,0.2,0.8,0.3,1.4,0.3c0.6,0,1.1-0.1,1.4-0.4s0.4-0.7,0.4-1.2v-0.6c-0.3,0.3-0.6,0.5-1,0.7
		c-0.4,0.2-0.7,0.2-1.1,0.2c-0.8,0-1.5-0.3-2.1-0.8c-0.6-0.6-0.9-1.3-0.9-2.1s0.3-1.6,0.8-2.1c0.6-0.5,1.3-0.8,2.1-0.8
		c0.4,0,0.8,0.1,1.1,0.2c0.4,0.2,0.7,0.4,1,0.7v-0.6h1.1V-109.9z M447.1-111c0.4-0.3,0.6-0.8,0.6-1.5c0-0.7-0.2-1.2-0.6-1.5
		c-0.4-0.3-0.8-0.5-1.4-0.5c-0.6,0-1.1,0.2-1.4,0.5c-0.4,0.3-0.5,0.8-0.5,1.5c0,0.7,0.2,1.2,0.5,1.5c0.4,0.3,0.8,0.5,1.4,0.5
		C446.2-110.5,446.7-110.7,447.1-111z"/>
	<path d="M459.7-114.5c0.6,0.6,0.8,1.4,0.8,2.4c0,1-0.3,1.8-0.8,2.4c-0.6,0.6-1.3,0.9-2.1,0.9c-0.4,0-0.8-0.1-1.1-0.2
		c-0.4-0.2-0.7-0.4-1-0.7v2.4h-1.1v-7.9h1.1v0.6c0.3-0.3,0.6-0.5,1-0.6c0.4-0.2,0.7-0.2,1.1-0.2
		C458.5-115.4,459.2-115.1,459.7-114.5z M458.9-110.3c0.4-0.4,0.5-1,0.5-1.8s-0.2-1.3-0.5-1.7c-0.4-0.4-0.8-0.6-1.5-0.6
		c-0.6,0-1.1,0.2-1.5,0.6c-0.3,0.4-0.5,1-0.5,1.7s0.2,1.3,0.5,1.8c0.3,0.4,0.8,0.6,1.5,0.6C458-109.7,458.5-109.9,458.9-110.3z"/>
	<path d="M465.9-109c-0.1-0.1-0.1-0.3-0.1-0.4s0-0.3-0.1-0.5c-0.2,0.3-0.6,0.5-1,0.7c-0.4,0.2-0.8,0.3-1.3,0.4
		c-0.6,0-1.2-0.1-1.6-0.3c-0.5-0.2-0.7-0.7-0.8-1.2c-0.1-0.6,0-1,0.3-1.3c0.3-0.3,0.7-0.5,1.1-0.7c0.4-0.1,0.8-0.2,1.2-0.2
		c0.4,0,0.8-0.1,1.2-0.1c0.2,0,0.4-0.1,0.6-0.2c0.2-0.1,0.3-0.2,0.3-0.5c0-0.3-0.1-0.5-0.4-0.8c-0.2-0.2-0.7-0.4-1.2-0.4
		c-0.6,0-1,0.1-1.3,0.3c-0.3,0.2-0.4,0.5-0.3,0.8h-1.1c-0.1-0.7,0.2-1.2,0.7-1.5c0.6-0.4,1.2-0.5,2-0.5c0.7,0,1.3,0.2,1.9,0.5
		c0.6,0.4,0.8,0.9,0.8,1.5v3.4c0,0.3,0,0.5,0.1,0.7s0.1,0.3,0.1,0.3H465.9z M465.7-112.2c-0.1,0.1-0.2,0.1-0.3,0.2
		c-0.1,0.1-0.2,0.1-0.4,0.1c-0.2,0.1-0.6,0.1-1,0.1c-0.4,0-0.7,0.1-0.9,0.2c-0.4,0.1-0.6,0.3-0.8,0.4s-0.3,0.4-0.2,0.7
		c0,0.3,0.2,0.5,0.5,0.7c0.3,0.1,0.6,0.2,0.9,0.1c0.7,0,1.3-0.3,1.6-0.6c0.4-0.4,0.6-0.7,0.6-1V-112.2z"/>
	<path d="M469.6-109c-0.2,0-0.4-0.1-0.6-0.2c-0.2-0.1-0.3-0.2-0.4-0.4c-0.1-0.1-0.2-0.3-0.2-0.4s-0.1-0.4-0.1-0.7v-3.5h-0.8v-0.9
		l0.8,0v-1.9h1.1v1.9l0.9,0v0.9h-0.9v3.4c0,0.1,0,0.3,0,0.4s0.1,0.2,0.2,0.3c0.1,0.1,0.2,0.1,0.4,0.2c0.1,0,0.3,0,0.4,0l0,0.9H469.6
		z"/>
	<path d="M473-109c-0.2,0-0.4-0.1-0.6-0.2c-0.2-0.1-0.3-0.2-0.4-0.4c-0.1-0.1-0.2-0.3-0.2-0.4c0-0.2-0.1-0.4-0.1-0.7v-3.5H471v-0.9
		l0.8,0v-1.9h1.1v1.9l0.9,0v0.9h-0.9v3.4c0,0.1,0,0.3,0,0.4c0,0.1,0.1,0.2,0.2,0.3c0.1,0.1,0.2,0.1,0.4,0.2c0.1,0,0.3,0,0.4,0l0,0.9
		H473z"/>
	<path d="M475.5-111.7c0,0.6,0.2,1.1,0.6,1.5c0.4,0.4,0.8,0.6,1.4,0.6c0.5,0,0.9-0.1,1.2-0.3c0.3-0.2,0.4-0.4,0.5-0.6h1.2
		c-0.1,0.4-0.4,0.8-0.9,1.2c-0.4,0.4-1.1,0.6-1.9,0.6c-0.9,0-1.6-0.3-2.2-0.9c-0.6-0.6-0.9-1.4-0.9-2.3c0-0.9,0.3-1.7,0.8-2.3
		c0.6-0.6,1.3-0.9,2.2-0.9c0.8,0,1.6,0.3,2.2,0.8c0.6,0.6,0.9,1.5,0.9,2.7H475.5z M479.3-112.6c0-0.6-0.2-1-0.6-1.4
		c-0.3-0.3-0.8-0.5-1.4-0.5c-0.5,0-1,0.2-1.3,0.5c-0.3,0.3-0.6,0.8-0.6,1.4H479.3z"/>
	<path d="M484.7-114.2c-0.2,0-0.4,0-0.6,0c-0.2,0-0.3,0.1-0.5,0.1c-0.4,0.2-0.6,0.4-0.8,0.8s-0.3,0.8-0.3,1.4v2.9h-1.1v-6.1h1.1v0.9
		l0.1,0c0.1-0.2,0.3-0.4,0.5-0.6c0.2-0.1,0.4-0.3,0.6-0.4c0.2-0.1,0.4-0.1,0.6-0.1s0.3,0,0.3,0V-114.2z"/>
	<path d="M489.9-109v-3.7c0-0.6-0.1-1-0.4-1.2c-0.2-0.2-0.6-0.4-1.1-0.4c-0.5,0-0.9,0.2-1.3,0.5c-0.3,0.3-0.5,0.8-0.5,1.3v3.5h-1.1
		v-6.2h1.1v0.7c0.3-0.3,0.6-0.5,1-0.7s0.9-0.3,1.4-0.2c0.7,0.1,1.1,0.4,1.4,0.8s0.4,0.9,0.4,1.3v4.2H489.9z"/>
	<path d="M493.5-110.5c0.3-0.9,0.4-1.9,0.4-2.8c0-0.9-0.1-1.8-0.4-2.8s-0.7-2-1.4-3h0.9c0.4,0.6,0.9,1.4,1.4,2.4
		c0.5,1,0.7,2.1,0.7,3.4c0,1.3-0.2,2.5-0.7,3.4c-0.5,1-0.9,1.8-1.4,2.4h-0.9C492.7-108.5,493.2-109.5,493.5-110.5z"/>
</g>
<line fill="none" stroke="#000000" stroke-width="2" stroke-miterlimit="10" x1="391.4" y1="-75.9" x2="400.4" y2="-75.9"/>
<g>
	<rect x="387.4" y="-79.9" fill="none" stroke="#000000" stroke-width="3" stroke-miterlimit="10" width="17" height="13.6"/>
	<polygon fill="none" stroke="#000000" stroke-width="3" stroke-miterlimit="10" points="421.5,-48.9 387.4,-48.9 387.4,-65.9 
		404.4,-65.9 410.9,-61.7 415.1,-58.9 421.5,-58.9 	"/>
	<rect x="390.9" y="-46.6" fill="none" stroke="#000000" stroke-width="2.4875" stroke-miterlimit="10" width="5" height="5.5"/>
	<rect x="412.9" y="-46.6" fill="none" stroke="#000000" stroke-width="2.4875" stroke-miterlimit="10" width="5" height="5.5"/>
	<line fill="none" stroke="#000000" stroke-width="3" stroke-miterlimit="10" x1="390.7" y1="-53.7" x2="394.7" y2="-53.7"/>
	<line fill="none" stroke="#000000" stroke-width="3" stroke-miterlimit="10" x1="413.4" y1="-53.4" x2="417.4" y2="-53.4"/>
	<line fill="none" stroke="#000000" stroke-width="2" stroke-miterlimit="10" x1="383.4" y1="-75.9" x2="383.4" y2="-70.9"/>
	<line fill="none" stroke="#000000" stroke-width="3.0706" stroke-miterlimit="10" x1="427.9" y1="-69.4" x2="427.9" y2="-47.4"/>
	<line fill="none" stroke="#000000" stroke-width="3.0706" stroke-miterlimit="10" x1="432.9" y1="-69.4" x2="432.9" y2="-47.4"/>
	<line fill="none" stroke="#000000" stroke-width="3" stroke-miterlimit="10" x1="382.9" y1="-72.4" x2="386.9" y2="-72.4"/>
	<line fill="none" stroke="#000000" stroke-width="3" stroke-miterlimit="10" x1="421.5" y1="-59.4" x2="421.5" y2="-69.4"/>
</g>
<rect fill="none" width="64" height="64"/>
<g>
	<path d="M-965-171.6c0.4,0.4,0.5,0.9,0.5,1.5c0,0.7-0.4,1.3-0.9,1.7c-0.6,0.4-1.3,0.6-2.1,0.6h-3.5v-8.5h3.6c0.8,0,1.3,0.2,1.8,0.5
		c0.4,0.4,0.7,0.8,0.8,1.3c0.1,0.5,0,0.9-0.2,1.3c-0.2,0.4-0.5,0.6-0.8,0.8C-965.7-172.2-965.4-171.9-965-171.6z M-966.5-173.1
		c0.3-0.2,0.4-0.6,0.4-1c0-0.4-0.1-0.7-0.4-0.9c-0.3-0.2-0.7-0.3-1.2-0.3h-2.3v2.6h2.3C-967.2-172.8-966.8-172.9-966.5-173.1z
		 M-966.2-169.2c0.3-0.3,0.4-0.6,0.5-1.1c0-0.5-0.1-0.8-0.5-1.1c-0.3-0.2-0.8-0.4-1.3-0.4h-2.4v2.9h2.4
		C-967-168.8-966.5-168.9-966.2-169.2z"/>
	<path d="M-958.4-173.3c0.6,0.6,0.8,1.4,0.8,2.4c0,1-0.3,1.7-0.8,2.4c-0.6,0.6-1.3,0.9-2.3,0.9c-1,0-1.7-0.3-2.3-0.9
		c-0.6-0.6-0.8-1.4-0.8-2.4c0-1,0.3-1.7,0.8-2.4c0.6-0.6,1.3-0.9,2.3-0.9C-959.8-174.2-959-173.9-958.4-173.3z M-959.3-169.1
		c0.4-0.4,0.6-1,0.6-1.8c0-0.7-0.2-1.3-0.6-1.7c-0.4-0.4-0.8-0.7-1.4-0.7c-0.6,0-1.1,0.2-1.5,0.7c-0.4,0.4-0.5,1-0.5,1.7
		c0,0.7,0.2,1.3,0.5,1.8c0.4,0.4,0.8,0.7,1.5,0.7C-960.2-168.5-959.7-168.7-959.3-169.1z"/>
	<path d="M-951.7-173.3c0.6,0.6,0.8,1.4,0.8,2.4c0,1-0.3,1.7-0.8,2.4c-0.6,0.6-1.3,0.9-2.3,0.9c-1,0-1.7-0.3-2.3-0.9
		c-0.6-0.6-0.8-1.4-0.8-2.4c0-1,0.3-1.7,0.8-2.4c0.6-0.6,1.3-0.9,2.3-0.9C-953-174.2-952.2-173.9-951.7-173.3z M-952.5-169.1
		c0.4-0.4,0.6-1,0.6-1.8c0-0.7-0.2-1.3-0.6-1.7c-0.4-0.4-0.8-0.7-1.4-0.7c-0.6,0-1.1,0.2-1.5,0.7c-0.4,0.4-0.5,1-0.5,1.7
		c0,0.7,0.2,1.3,0.5,1.8c0.4,0.4,0.8,0.7,1.5,0.7C-953.4-168.5-952.9-168.7-952.5-169.1z"/>
	<path d="M-945.3-167.8l-2.6-3.1l-0.9,0.7v2.4h-1.1v-8.5h1.1v4.9l2.8-2.6h1.4l-2.6,2.5l3.2,3.7H-945.3z"/>
	<path d="M-943.4-175.3v-1.1h1.1v1.1H-943.4z M-943.4-167.8v-6.2h1.1v6.2H-943.4z"/>
	<path d="M-936.5-167.8v-3.7c0-0.6-0.1-1-0.4-1.2c-0.2-0.2-0.6-0.4-1.1-0.4c-0.5,0-0.9,0.2-1.3,0.5c-0.3,0.3-0.5,0.8-0.5,1.3v3.5
		h-1.1v-6.2h1.1v0.7c0.3-0.3,0.6-0.5,1-0.7c0.4-0.2,0.9-0.3,1.4-0.2c0.7,0.1,1.1,0.4,1.4,0.8c0.3,0.5,0.4,0.9,0.4,1.3v4.2H-936.5z"
		/>
	<path d="M-928.2-168.7c0,1-0.3,1.7-0.9,2.1c-0.6,0.4-1.3,0.6-2,0.6c-0.9,0-1.6-0.2-2.1-0.6c-0.5-0.4-0.8-0.9-0.8-1.4h1.1
		c0,0.3,0.2,0.5,0.5,0.8s0.8,0.3,1.4,0.3c0.6,0,1.1-0.1,1.4-0.4c0.3-0.3,0.4-0.7,0.4-1.2v-0.6c-0.3,0.3-0.6,0.5-1,0.7
		c-0.4,0.2-0.7,0.2-1.1,0.2c-0.8,0-1.5-0.3-2.1-0.8c-0.6-0.6-0.9-1.3-0.9-2.1c0-0.9,0.3-1.6,0.8-2.1c0.6-0.5,1.3-0.8,2.1-0.8
		c0.4,0,0.8,0.1,1.1,0.2c0.4,0.2,0.7,0.4,1,0.7v-0.6h1.1V-168.7z M-929.8-169.8c0.4-0.3,0.6-0.8,0.6-1.5c0-0.7-0.2-1.2-0.6-1.5
		c-0.4-0.3-0.8-0.5-1.4-0.5c-0.6,0-1.1,0.2-1.4,0.5c-0.4,0.3-0.5,0.8-0.5,1.5c0,0.7,0.2,1.2,0.5,1.5c0.4,0.3,0.8,0.5,1.4,0.5
		C-930.6-169.3-930.1-169.5-929.8-169.8z"/>
	<path d="M-922.4-167.8v-8.5h1.1v7.5h4.5v1H-922.4z"/>
	<path d="M-916-175.3v-1.1h1.1v1.1H-916z M-916-167.8v-6.2h1.1v6.2H-916z"/>
	<path d="M-908.9-170.4c0.2,0.2,0.3,0.5,0.3,0.9c0,0.6-0.3,1-0.8,1.4c-0.5,0.4-1.1,0.5-1.8,0.5c-1.1,0-1.8-0.3-2.2-0.8
		c-0.4-0.5-0.6-1-0.6-1.4h1.1c0,0.3,0.2,0.6,0.5,0.9c0.3,0.2,0.7,0.3,1.2,0.3c0.4,0,0.8-0.1,1-0.2c0.3-0.1,0.4-0.4,0.5-0.6
		c0-0.2,0-0.4-0.2-0.5c-0.1-0.1-0.3-0.3-0.5-0.4c-0.3-0.2-0.7-0.3-1.1-0.3c-0.4-0.1-0.7-0.1-1-0.2c-0.4-0.1-0.7-0.3-0.9-0.6
		c-0.2-0.3-0.4-0.6-0.3-1c0-0.5,0.3-0.9,0.7-1.2c0.4-0.4,1-0.6,1.8-0.6c0.9,0,1.5,0.2,1.9,0.7c0.4,0.5,0.6,0.9,0.6,1.3h-1.1
		c0-0.2-0.1-0.4-0.3-0.6c-0.2-0.2-0.6-0.4-1.2-0.4c-0.5,0-0.8,0.1-1,0.3c-0.2,0.2-0.3,0.4-0.3,0.6c0,0.3,0.1,0.5,0.3,0.6
		c0.2,0.1,0.4,0.2,0.6,0.3c0.3,0.1,0.6,0.1,1,0.2c0.4,0.1,0.7,0.2,1,0.3C-909.4-170.9-909.1-170.7-908.9-170.4z"/>
	<path d="M-906.1-167.8c-0.2,0-0.4-0.1-0.6-0.2c-0.2-0.1-0.3-0.2-0.4-0.4c-0.1-0.1-0.2-0.3-0.2-0.4c0-0.2-0.1-0.4-0.1-0.7v-3.5h-0.8
		v-0.9l0.8,0v-1.9h1.1v1.9l0.9,0v0.9h-0.9v3.4c0,0.1,0,0.3,0,0.4c0,0.1,0.1,0.2,0.2,0.3c0.1,0.1,0.2,0.1,0.4,0.2c0.1,0,0.3,0,0.4,0
		l0,0.9H-906.1z"/>
</g>
<g>
	<path d="M-615.8-167.9v-6.1l-0.1,0l-2.2,6.1h-1.3l-2.2-6.1l-0.1,0v6.1h-1v-8.4h1.2l2.7,7.3l2.7-7.3h1.2v8.4H-615.8z"/>
	<path d="M-606.8-175.3c0.7,0.8,1.1,1.9,1.1,3.2c0,1.4-0.4,2.5-1.1,3.3c-0.7,0.8-1.7,1.2-2.9,1.2c-1.2,0-2.2-0.4-2.9-1.2
		c-0.7-0.8-1.1-1.9-1.1-3.3c0-1.3,0.4-2.4,1.1-3.2c0.7-0.8,1.7-1.2,2.9-1.2C-608.5-176.5-607.5-176.1-606.8-175.3z M-607.7-169.5
		c0.5-0.6,0.7-1.5,0.7-2.6c0-1-0.2-1.9-0.7-2.5c-0.5-0.6-1.2-0.9-2-0.9c-0.9,0-1.5,0.3-2,0.9c-0.5,0.6-0.7,1.5-0.7,2.5
		c0,1.1,0.2,1.9,0.7,2.6c0.5,0.6,1.1,1,2,1C-608.8-168.6-608.2-168.9-607.7-169.5z"/>
	<path d="M-600.9-167.8h-1.3l-3.4-8.5h1.2l2.9,7.2l2.9-7.2h1.1L-600.9-167.8z"/>
	<path d="M-596.8-167.8v-8.5h1.1v8.5H-596.8z"/>
	<path d="M-588.8-167.8l-4.2-6.7l-0.1,0v6.7h-1.1v-8.5h1.3l4.2,6.7l0.1,0v-6.7h1.1v8.5H-588.8z"/>
	<path d="M-580.2-171.3c0.3,0.4,0.4,0.9,0.3,1.4c-0.1,0.7-0.4,1.2-0.9,1.7c-0.5,0.5-1.3,0.7-2.4,0.7c-1.1,0-2-0.3-2.5-1
		c-0.5-0.7-0.8-1.4-0.9-2.1h1.2c0,0.7,0.3,1.2,0.7,1.6c0.4,0.4,0.9,0.6,1.6,0.6c0.6,0,1.1-0.1,1.5-0.4c0.3-0.3,0.5-0.6,0.6-1.1
		c0.1-0.3,0-0.6-0.2-0.8c-0.2-0.2-0.4-0.4-0.8-0.6c-0.4-0.2-0.8-0.3-1.2-0.3c-0.4,0-0.9-0.1-1.3-0.3c-0.6-0.2-1-0.5-1.3-0.8
		c-0.3-0.3-0.4-0.8-0.4-1.4c0-0.6,0.3-1.1,0.8-1.6c0.5-0.5,1.3-0.8,2.3-0.8c1.2,0,2,0.3,2.4,1c0.4,0.7,0.7,1.2,0.7,1.7l-1.2,0
		c0-0.5-0.2-0.9-0.5-1.2c-0.3-0.3-0.8-0.5-1.5-0.5c-0.6,0-1.1,0.2-1.4,0.5c-0.3,0.3-0.4,0.6-0.4,1c0,0.4,0.1,0.7,0.3,0.8
		c0.2,0.2,0.5,0.3,0.7,0.4c0.3,0.1,0.7,0.2,1.2,0.3c0.5,0.1,1,0.2,1.4,0.4C-580.8-172-580.4-171.7-580.2-171.3z"/>
	<path d="M-574.7-167.8v-8.5h1.1v7.5h4.5v1H-574.7z"/>
	<path d="M-568.3-175.3v-1.1h1.1v1.1H-568.3z M-568.3-167.8v-6.2h1.1v6.2H-568.3z"/>
	<path d="M-561.1-170.4c0.2,0.2,0.3,0.5,0.3,0.9c0,0.6-0.3,1-0.8,1.4c-0.5,0.4-1.1,0.5-1.8,0.5c-1.1,0-1.8-0.3-2.2-0.8
		c-0.4-0.5-0.6-1-0.6-1.4h1.1c0,0.3,0.2,0.6,0.5,0.9c0.3,0.2,0.7,0.3,1.2,0.3c0.4,0,0.8-0.1,1-0.2c0.3-0.1,0.4-0.4,0.5-0.6
		c0-0.2,0-0.4-0.2-0.5c-0.1-0.1-0.3-0.3-0.5-0.4c-0.3-0.2-0.7-0.3-1.1-0.3c-0.4-0.1-0.7-0.1-1-0.2c-0.4-0.1-0.7-0.3-0.9-0.6
		c-0.2-0.3-0.4-0.6-0.3-1c0-0.5,0.3-0.9,0.7-1.2c0.4-0.4,1-0.6,1.8-0.6c0.9,0,1.5,0.2,1.9,0.7c0.4,0.5,0.6,0.9,0.6,1.3h-1.1
		c0-0.2-0.1-0.4-0.3-0.6c-0.2-0.2-0.6-0.4-1.2-0.4c-0.5,0-0.8,0.1-1,0.3c-0.2,0.2-0.3,0.4-0.3,0.6c0,0.3,0.1,0.5,0.3,0.6
		c0.2,0.1,0.4,0.2,0.6,0.3c0.3,0.1,0.6,0.1,1,0.2c0.4,0.1,0.7,0.2,1,0.3C-561.6-170.9-561.3-170.7-561.1-170.4z"/>
	<path d="M-558.4-167.8c-0.2,0-0.4-0.1-0.6-0.2c-0.2-0.1-0.3-0.2-0.4-0.4c-0.1-0.1-0.2-0.3-0.2-0.4c0-0.2-0.1-0.4-0.1-0.7v-3.5h-0.8
		v-0.9l0.8,0v-1.9h1.1v1.9l0.9,0v0.9h-0.9v3.4c0,0.1,0,0.3,0,0.4c0,0.1,0.1,0.2,0.2,0.3c0.1,0.1,0.2,0.1,0.4,0.2c0.1,0,0.3,0,0.4,0
		l0,0.9H-558.4z"/>
</g>
<g>
	<path d="M-792.7-173.8c-0.1-0.4-0.4-0.8-0.8-1.1c-0.4-0.4-0.9-0.6-1.7-0.6c-0.8,0-1.5,0.3-2,0.9c-0.5,0.6-0.7,1.5-0.7,2.5
		c0,1.1,0.2,1.9,0.7,2.6c0.5,0.6,1.1,1,2,1c0.7,0,1.3-0.2,1.7-0.6c0.4-0.4,0.6-0.8,0.8-1.3l1.2,0c-0.2,0.6-0.5,1.3-1.1,1.9
		c-0.6,0.7-1.4,1-2.6,1c-1.2,0-2.2-0.4-2.9-1.2c-0.7-0.8-1-1.9-1-3.3c0-1.3,0.3-2.4,1-3.2c0.7-0.8,1.7-1.2,2.9-1.2
		c1.1,0,2,0.3,2.6,0.9c0.6,0.6,0.9,1.2,1.1,1.8H-792.7z"/>
	<path d="M-783.8-175.3c0.7,0.8,1.1,1.9,1.1,3.2c0,1.4-0.4,2.5-1.1,3.3c-0.7,0.8-1.7,1.2-2.9,1.2c-1.2,0-2.2-0.4-2.9-1.2
		c-0.7-0.8-1.1-1.9-1.1-3.3c0-1.3,0.4-2.4,1.1-3.2c0.7-0.8,1.7-1.2,2.9-1.2C-785.4-176.5-784.5-176.1-783.8-175.3z M-784.6-169.5
		c0.5-0.6,0.7-1.5,0.7-2.6c0-1-0.2-1.9-0.7-2.5c-0.5-0.6-1.2-0.9-2-0.9c-0.9,0-1.5,0.3-2,0.9c-0.5,0.6-0.7,1.5-0.7,2.5
		c0,1.1,0.2,1.9,0.7,2.6c0.5,0.6,1.1,1,2,1C-785.8-168.6-785.1-168.9-784.6-169.5z"/>
	<path d="M-775.9-175.6c0.6,0.5,0.8,1.1,0.8,1.9c0,0.8-0.3,1.4-0.8,1.9c-0.6,0.5-1.2,0.7-2.1,0.7h-2.4v3.3h-1.1v-8.5h3.5
		C-777.2-176.3-776.5-176.1-775.9-175.6z M-776.8-172.6c0.4-0.3,0.5-0.7,0.5-1.2c0-0.6-0.2-1-0.5-1.2c-0.4-0.2-0.8-0.3-1.2-0.3h-2.4
		v3.1h2.4C-777.6-172.2-777.2-172.3-776.8-172.6z"/>
	<path d="M-768.8-167.8l-2.5-3.6h-1.9v3.5h-1.1v-8.5h3.5c0.8,0,1.5,0.2,2.1,0.7c0.6,0.4,0.8,1,0.8,1.8c0,0.6-0.2,1.1-0.6,1.5
		c-0.4,0.4-0.9,0.7-1.5,0.9l2.5,3.7H-768.8z M-769.6-172.8c0.4-0.3,0.6-0.6,0.6-1.1c0-0.5-0.2-0.9-0.5-1.1c-0.3-0.2-0.7-0.3-1.1-0.3
		h-2.4v2.9h2.4C-770.3-172.4-769.9-172.5-769.6-172.8z"/>
	<path d="M-760.2-167.8l-0.9-2.1h-4.3l-0.9,2.1h-1.2l3.5-8.5h1.3l3.5,8.5H-760.2z M-763.2-175.2l-1.7,4.2h3.4L-763.2-175.2z"/>
	<path d="M-753.1-167.8l-2.5-3.6h-1.9v3.5h-1.1v-8.5h3.5c0.8,0,1.5,0.2,2.1,0.7c0.6,0.4,0.8,1,0.8,1.8c0,0.6-0.2,1.1-0.6,1.5
		c-0.4,0.4-0.9,0.7-1.5,0.9l2.5,3.7H-753.1z M-753.9-172.8c0.4-0.3,0.6-0.6,0.6-1.1c0-0.5-0.2-0.9-0.5-1.1c-0.3-0.2-0.7-0.3-1.1-0.3
		h-2.4v2.9h2.4C-754.6-172.4-754.2-172.5-753.9-172.8z"/>
	<path d="M-746.9-167.8v-8.5h1.1v7.5h4.5v1H-746.9z"/>
	<path d="M-740.4-175.3v-1.1h1.1v1.1H-740.4z M-740.4-167.8v-6.2h1.1v6.2H-740.4z"/>
	<path d="M-733.3-170.4c0.2,0.2,0.3,0.5,0.3,0.9c0,0.6-0.3,1-0.8,1.4c-0.5,0.4-1.1,0.5-1.8,0.5c-1.1,0-1.8-0.3-2.2-0.8
		c-0.4-0.5-0.6-1-0.6-1.4h1.1c0,0.3,0.2,0.6,0.5,0.9c0.3,0.2,0.7,0.3,1.2,0.3c0.4,0,0.8-0.1,1-0.2c0.3-0.1,0.4-0.4,0.5-0.6
		c0-0.2,0-0.4-0.2-0.5c-0.1-0.1-0.3-0.3-0.5-0.4c-0.3-0.2-0.7-0.3-1.1-0.3c-0.4-0.1-0.7-0.1-1-0.2c-0.4-0.1-0.7-0.3-0.9-0.6
		c-0.2-0.3-0.4-0.6-0.3-1c0-0.5,0.3-0.9,0.7-1.2c0.4-0.4,1-0.6,1.8-0.6c0.9,0,1.5,0.2,1.9,0.7c0.4,0.5,0.6,0.9,0.6,1.3h-1.1
		c0-0.2-0.1-0.4-0.3-0.6c-0.2-0.2-0.6-0.4-1.2-0.4c-0.5,0-0.8,0.1-1,0.3c-0.2,0.2-0.3,0.4-0.3,0.6c0,0.3,0.1,0.5,0.3,0.6
		c0.2,0.1,0.4,0.2,0.6,0.3c0.3,0.1,0.6,0.1,1,0.2c0.4,0.1,0.7,0.2,1,0.3C-733.8-170.9-733.5-170.7-733.3-170.4z"/>
	<path d="M-730.5-167.8c-0.2,0-0.4-0.1-0.6-0.2c-0.2-0.1-0.3-0.2-0.4-0.4c-0.1-0.1-0.2-0.3-0.2-0.4c0-0.2-0.1-0.4-0.1-0.7v-3.5h-0.8
		v-0.9l0.8,0v-1.9h1.1v1.9l0.9,0v0.9h-0.9v3.4c0,0.1,0,0.3,0,0.4c0,0.1,0.1,0.2,0.2,0.3c0.1,0.1,0.2,0.1,0.4,0.2c0.1,0,0.3,0,0.4,0
		l0,0.9H-730.5z"/>
</g>
<g>
	<path d="M-991.1-20c-0.4-0.1-0.9-0.4-1.4-0.7c-0.5-0.4-1-0.8-1.4-1.3c-0.2,0.5-0.6,0.9-1.2,1.4c-0.6,0.5-1.1,0.8-1.6,0.9l-0.8-0.8
		c1.3-0.5,2.1-1.1,2.5-1.8c0.3-0.7,0.5-1.2,0.5-1.6v-0.3h-2.2v-1h5.8v1h-2.2v0.3c0,0.4,0.2,0.9,0.5,1.6c0.3,0.6,1.1,1.1,2.3,1.5
		L-991.1-20z M-988.9-15.3V-18h-6.6v-1h7.8v3.6H-988.9z M-988.9-19.6v-2.8h-2.1v-1.1h2.1v-2.4h1.2v6.3H-988.9z"/>
	<path d="M-986-23.6v-1h4.9v1h-1.8v0.4c0,0.9,0.2,1.8,0.5,2.7c0.3,0.9,0.9,1.7,1.9,2.4l-0.9,0.8c-0.4-0.3-0.8-0.7-1.2-1.3
		c-0.5-0.6-0.8-1.1-0.9-1.6c-0.1,0.5-0.4,1.1-0.9,1.7c-0.4,0.6-0.9,1.1-1.3,1.5l-1-0.7c1.1-0.8,1.8-1.7,2.1-2.7
		c0.3-1,0.5-1.9,0.5-2.8v-0.4H-986z M-977.7-15.3v-5.3h-1.2v4.8h-1.2v-9.8h1.2v3.8h1.2v-4.1h1.2v10.6H-977.7z"/>
	<path d="M-965-15.8v-5h-1.3v3.2h-4.2v-7.2h1.2v2.5h1.8v-2.5h1.2v2.9h1.3v-3.8h1.2v9.8H-965z M-967.5-21.3h-1.8v2.6h1.8V-21.3z
		 M-962.8-15.3v-10.6h1.2v10.6H-962.8z"/>
	<path d="M-954.7-18.4c-0.5,0.7-1.2,1.1-2.1,1.1c-0.9,0-1.6-0.4-2.1-1.1c-0.5-0.7-0.8-1.7-0.8-2.8c0-1.2,0.3-2.1,0.8-2.8
		c0.5-0.7,1.2-1.1,2.1-1.1c0.9,0,1.6,0.4,2.1,1.1c0.5,0.7,0.8,1.7,0.8,2.8C-953.9-20-954.2-19.1-954.7-18.4z M-955.5-23.2
		c-0.3-0.6-0.7-0.8-1.2-0.8c-0.5,0-1,0.3-1.3,0.9c-0.3,0.6-0.4,1.2-0.4,2c0,0.8,0.1,1.4,0.4,2c0.3,0.6,0.7,0.8,1.3,0.8
		c0.5,0,0.9-0.3,1.2-0.8c0.3-0.6,0.4-1.2,0.4-2C-955.1-22-955.2-22.6-955.5-23.2z M-951.8-15.3v-10.6h1.2v10.6H-951.8z"/>
	<path d="M-945.1-20.4v-0.9h10.6v0.9H-945.1z M-944.1-23.1h1.6l-0.1-1.6h-1.2v-0.9h8.2v0.9h-1.2l-0.1,1.6h1.6v0.9h-8.7V-23.1z
		 M-943.7-15.5V-18h6.5v-0.8h-6.6v-0.9h7.8v2.5h-6.5v0.7h6.9v0.9H-943.7z M-941.5-24.7l0.2,1.6h3l0.2-1.6H-941.5z"/>
	<path d="M-929.7-19.4c-0.6,0-1.1,0.1-1.5,0.1l-2.2,0v-3.4h2.9v-1.6h-2.9v-1h4.1v3.6h-2.9v1.4l1.4,0c0.4,0,0.9,0,1.3-0.1
		c0.5,0,0.8-0.1,1.1-0.1v1C-928.7-19.5-929.1-19.4-929.7-19.4z M-932.1-15.6v-3.1h1.2v2.1h6.8v1H-932.1z M-925.4-18.1v-3.6h-1.2v3.4
		h-1.2v-7.4h1.2v3h1.2v-3.1h1.2v7.8H-925.4z"/>
	<path d="M-922.1-15h-1.2l4.2-11.1h1.2L-922.1-15z"/>
	<path d="M-911.1-20.1c0.4,0.4,0.5,0.9,0.5,1.5c0,0.7-0.4,1.3-0.9,1.7c-0.6,0.4-1.3,0.6-2.1,0.6h-3.5v-8.5h3.6
		c0.8,0,1.3,0.2,1.8,0.5c0.4,0.4,0.7,0.8,0.8,1.3c0.1,0.5,0,0.9-0.2,1.3c-0.2,0.4-0.5,0.6-0.8,0.8
		C-911.8-20.8-911.4-20.5-911.1-20.1z M-912.6-21.7c0.3-0.2,0.4-0.6,0.4-1c0-0.4-0.1-0.7-0.4-0.9c-0.3-0.2-0.7-0.3-1.2-0.3h-2.3v2.6
		h2.3C-913.2-21.3-912.9-21.4-912.6-21.7z M-912.3-17.7c0.3-0.3,0.4-0.6,0.5-1.1c0-0.5-0.1-0.8-0.5-1.1c-0.3-0.2-0.8-0.4-1.3-0.4
		h-2.4v2.9h2.4C-913-17.3-912.6-17.5-912.3-17.7z"/>
	<path d="M-903.3-16.3l-0.9-2.1h-4.3l-0.9,2.1h-1.2l3.5-8.5h1.3l3.5,8.5H-903.3z M-906.3-23.7l-1.7,4.2h3.4L-906.3-23.7z"/>
	<path d="M-896.1-24.2c0.6,0.5,0.8,1.1,0.8,1.9c0,0.8-0.3,1.4-0.8,1.9c-0.6,0.5-1.2,0.7-2.1,0.7h-2.4v3.3h-1.1v-8.5h3.5
		C-897.3-24.9-896.6-24.6-896.1-24.2z M-897-21.1c0.4-0.3,0.5-0.7,0.5-1.2c0-0.6-0.2-1-0.5-1.2c-0.4-0.2-0.8-0.3-1.2-0.3h-2.4v3.1
		h2.4C-897.7-20.7-897.3-20.8-897-21.1z"/>
	<path d="M-894.3-16.4v-8.5h1.1v7.5h4.5v1H-894.3z"/>
	<path d="M-887.9-16.4v-8.5h1.1v8.5H-887.9z"/>
	<path d="M-885.3-16.4v-8.5h5.9v1h-4.8v2.6h4.6v1l-4.6,0v2.9h5v1H-885.3z"/>
	<path d="M-1000.1-0.4c-0.4-0.6-0.9-1.4-1.4-2.4c-0.5-1-0.7-2.1-0.7-3.4c0-1.3,0.2-2.5,0.7-3.4c0.5-1,0.9-1.8,1.4-2.4h0.9
		c-0.6,1.1-1.1,2.1-1.4,3c-0.3,0.9-0.4,1.9-0.4,2.8c0,0.9,0.1,1.8,0.4,2.8c0.3,0.9,0.7,2,1.4,3H-1000.1z"/>
	<path d="M-992.3-5.4C-992-5-991.9-4.5-992-4c-0.1,0.7-0.4,1.2-0.9,1.7c-0.5,0.5-1.3,0.7-2.4,0.7c-1.1,0-2-0.3-2.5-1
		c-0.5-0.7-0.8-1.4-0.9-2.1h1.2c0,0.7,0.3,1.2,0.7,1.6c0.4,0.4,0.9,0.6,1.6,0.6c0.6,0,1.1-0.1,1.5-0.4c0.3-0.3,0.5-0.6,0.6-1.1
		c0.1-0.3,0-0.6-0.2-0.8c-0.2-0.2-0.4-0.4-0.8-0.6c-0.4-0.2-0.8-0.3-1.2-0.3c-0.4,0-0.9-0.1-1.3-0.3c-0.6-0.2-1-0.5-1.3-0.8
		c-0.3-0.3-0.4-0.8-0.4-1.4c0-0.6,0.3-1.1,0.8-1.6c0.5-0.5,1.3-0.8,2.3-0.8c1.2,0,2,0.3,2.4,1c0.4,0.7,0.7,1.2,0.7,1.7l-1.2,0
		c0-0.5-0.2-0.9-0.5-1.2c-0.3-0.3-0.8-0.5-1.5-0.5c-0.6,0-1.1,0.2-1.4,0.5c-0.3,0.3-0.4,0.6-0.4,1c0,0.4,0.1,0.7,0.3,0.8
		c0.2,0.2,0.5,0.3,0.7,0.4c0.3,0.1,0.7,0.2,1.2,0.3c0.5,0.1,1,0.2,1.4,0.4C-992.9-6.1-992.6-5.8-992.3-5.4z"/>
	<path d="M-989.7-1.9c-0.2,0-0.4-0.1-0.6-0.2c-0.2-0.1-0.3-0.2-0.4-0.4c-0.1-0.1-0.2-0.3-0.2-0.4c0-0.2-0.1-0.4-0.1-0.7v-3.5h-0.8
		V-8l0.8,0V-10h1.1v1.9l0.9,0v0.9h-0.9v3.4c0,0.1,0,0.3,0,0.4c0,0.1,0.1,0.2,0.2,0.3c0.1,0.1,0.2,0.1,0.4,0.2c0.1,0,0.3,0,0.4,0
		l0,0.9H-989.7z"/>
	<path d="M-983-7.4c0.6,0.6,0.8,1.4,0.8,2.4c0,1-0.3,1.7-0.8,2.4c-0.6,0.6-1.3,0.9-2.3,0.9s-1.7-0.3-2.3-0.9
		c-0.6-0.6-0.8-1.4-0.8-2.4c0-1,0.3-1.7,0.8-2.4c0.6-0.6,1.3-0.9,2.3-0.9S-983.5-8-983-7.4z M-983.8-3.3c0.4-0.4,0.6-1,0.6-1.8
		c0-0.7-0.2-1.3-0.6-1.7c-0.4-0.4-0.8-0.7-1.4-0.7c-0.6,0-1.1,0.2-1.5,0.7c-0.4,0.4-0.5,1-0.5,1.7c0,0.7,0.2,1.3,0.5,1.8
		c0.4,0.4,0.8,0.7,1.5,0.7C-984.7-2.6-984.2-2.8-983.8-3.3z"/>
	<path d="M-975.1-2h-1.2l-1.2-4.3h-0.1l-1.2,4.3h-1.2l-1.8-6.2h1.1l1.3,4.6h0.1l1.2-4.6h1.2l1.2,4.6h0.1l1.3-4.6h1.1L-975.1-2z"/>
	<path d="M-968.1-1.9c-0.1-0.1-0.1-0.3-0.1-0.4c0-0.2,0-0.3-0.1-0.5c-0.2,0.3-0.6,0.5-1,0.7c-0.4,0.2-0.8,0.3-1.3,0.4
		c-0.6,0-1.2-0.1-1.6-0.3c-0.5-0.2-0.7-0.7-0.8-1.2c-0.1-0.6,0-1,0.3-1.3c0.3-0.3,0.7-0.5,1.1-0.7c0.4-0.1,0.8-0.2,1.2-0.2
		c0.4,0,0.8-0.1,1.2-0.1c0.2,0,0.4-0.1,0.6-0.1c0.2-0.1,0.3-0.2,0.3-0.5c0-0.3-0.1-0.5-0.4-0.8c-0.2-0.2-0.7-0.4-1.2-0.4
		c-0.6,0-1,0.1-1.3,0.3c-0.3,0.2-0.4,0.5-0.3,0.8h-1.1c-0.1-0.7,0.2-1.2,0.7-1.5c0.6-0.4,1.2-0.5,2-0.5c0.7,0,1.3,0.2,1.9,0.5
		c0.6,0.4,0.8,0.9,0.8,1.5v3.4c0,0.3,0,0.5,0.1,0.7c0.1,0.2,0.1,0.3,0.1,0.3H-968.1z M-968.3-5.1c-0.1,0.1-0.2,0.1-0.3,0.2
		c-0.1,0.1-0.2,0.1-0.4,0.1c-0.2,0.1-0.6,0.1-1,0.1c-0.4,0-0.7,0.1-0.9,0.1c-0.4,0.1-0.6,0.3-0.8,0.4c-0.2,0.2-0.3,0.4-0.2,0.7
		c0,0.3,0.2,0.5,0.5,0.7c0.3,0.1,0.6,0.2,0.9,0.1c0.7,0,1.3-0.3,1.6-0.6c0.4-0.4,0.6-0.7,0.6-1V-5.1z"/>
	<path d="M-960.1-2.9c0,1-0.3,1.7-0.9,2.1c-0.6,0.4-1.3,0.6-2,0.6c-0.9,0-1.6-0.2-2.1-0.6c-0.5-0.4-0.8-0.9-0.8-1.4h1.1
		c0,0.3,0.2,0.5,0.5,0.8c0.3,0.2,0.8,0.3,1.4,0.3c0.6,0,1.1-0.1,1.4-0.4c0.3-0.3,0.4-0.7,0.4-1.2v-0.6c-0.3,0.3-0.6,0.5-1,0.7
		c-0.4,0.2-0.7,0.2-1.1,0.2c-0.8,0-1.5-0.3-2.1-0.8c-0.6-0.6-0.9-1.3-0.9-2.1c0-0.9,0.3-1.6,0.8-2.1c0.6-0.5,1.3-0.8,2.1-0.8
		c0.4,0,0.8,0.1,1.1,0.2c0.4,0.2,0.7,0.4,1,0.7v-0.6h1.1V-2.9z M-961.7-4c0.4-0.3,0.6-0.8,0.6-1.5c0-0.7-0.2-1.2-0.6-1.5
		c-0.4-0.3-0.8-0.5-1.4-0.5c-0.6,0-1.1,0.2-1.4,0.5c-0.4,0.3-0.5,0.8-0.5,1.5c0,0.7,0.2,1.2,0.5,1.5c0.4,0.3,0.8,0.5,1.4,0.5
		C-962.5-3.5-962-3.6-961.7-4z"/>
	<path d="M-958-4.7c0,0.6,0.2,1.1,0.6,1.5c0.4,0.4,0.8,0.6,1.4,0.6c0.5,0,0.9-0.1,1.2-0.3c0.3-0.2,0.4-0.4,0.5-0.6h1.2
		c-0.1,0.4-0.4,0.8-0.9,1.2c-0.4,0.4-1.1,0.6-1.9,0.6c-0.9,0-1.6-0.3-2.2-0.9c-0.6-0.6-0.9-1.4-0.9-2.3c0-0.9,0.3-1.7,0.8-2.3
		c0.6-0.6,1.3-0.9,2.2-0.9c0.8,0,1.6,0.3,2.2,0.8c0.6,0.6,0.9,1.5,0.9,2.7H-958z M-954.1-5.5c0-0.6-0.2-1-0.6-1.4
		c-0.3-0.3-0.8-0.5-1.4-0.5c-0.5,0-1,0.2-1.3,0.5c-0.3,0.3-0.5,0.8-0.6,1.4H-954.1z"/>
	<path d="M-941.7-5.7c0.4,0.4,0.5,0.9,0.5,1.5c0,0.7-0.4,1.3-0.9,1.7c-0.6,0.4-1.3,0.6-2.1,0.6h-3.5v-8.5h3.6c0.8,0,1.4,0.2,1.8,0.5
		c0.4,0.4,0.7,0.8,0.8,1.3c0.1,0.5,0,0.9-0.2,1.3c-0.2,0.4-0.5,0.6-0.8,0.8C-942.3-6.4-942-6.1-941.7-5.7z M-943.2-7.3
		c0.3-0.2,0.4-0.6,0.4-1c0-0.4-0.1-0.7-0.4-0.9c-0.3-0.2-0.7-0.3-1.2-0.3h-2.3v2.6h2.3C-943.8-6.9-943.4-7-943.2-7.3z M-942.9-3.3
		c0.3-0.3,0.4-0.6,0.5-1.1c0-0.5-0.1-0.8-0.5-1.1c-0.3-0.2-0.8-0.4-1.3-0.4h-2.4v2.9h2.4C-943.6-2.9-943.1-3.1-942.9-3.3z"/>
	<path d="M-935.7-1.9c-0.1-0.1-0.1-0.3-0.2-0.4c0-0.2,0-0.3-0.1-0.5c-0.2,0.3-0.6,0.5-1,0.7c-0.4,0.2-0.8,0.3-1.3,0.4
		c-0.6,0-1.2-0.1-1.6-0.3c-0.5-0.2-0.7-0.7-0.8-1.2c-0.1-0.6,0-1,0.3-1.3c0.3-0.3,0.7-0.5,1.1-0.7c0.4-0.1,0.8-0.2,1.2-0.2
		s0.8-0.1,1.2-0.1c0.2,0,0.4-0.1,0.6-0.1c0.2-0.1,0.3-0.2,0.3-0.5c0-0.3-0.1-0.5-0.4-0.8c-0.2-0.2-0.7-0.4-1.2-0.4s-1,0.1-1.3,0.3
		c-0.3,0.2-0.4,0.5-0.3,0.8h-1.1c-0.1-0.7,0.2-1.2,0.7-1.5c0.6-0.4,1.2-0.5,2-0.5c0.7,0,1.3,0.2,1.9,0.5c0.6,0.4,0.8,0.9,0.8,1.5
		v3.4c0,0.3,0,0.5,0.1,0.7c0.1,0.2,0.1,0.3,0.1,0.3H-935.7z M-935.9-5.1c-0.1,0.1-0.2,0.1-0.3,0.2c-0.1,0.1-0.2,0.1-0.4,0.1
		c-0.2,0.1-0.6,0.1-1,0.1s-0.7,0.1-0.9,0.1c-0.4,0.1-0.6,0.3-0.8,0.4c-0.2,0.2-0.3,0.4-0.2,0.7c0,0.3,0.2,0.5,0.5,0.7
		c0.3,0.1,0.6,0.2,0.9,0.1c0.7,0,1.3-0.3,1.6-0.6c0.4-0.4,0.6-0.7,0.6-1V-5.1z"/>
	<path d="M-930.9-1.3c-0.1,0.2-0.2,0.4-0.3,0.5c-0.1,0.1-0.3,0.3-0.4,0.4c-0.2,0.1-0.4,0.2-0.5,0.2c-0.2,0-0.4,0-0.5,0h-0.4v-0.9
		h0.6c0.2,0,0.3-0.1,0.4-0.2c0.1-0.1,0.2-0.2,0.3-0.3l0.3-0.6l-2.5-5.9l1.1,0l1.9,4.5l1.9-4.5h1.1L-930.9-1.3z"/>
	<path d="M-917.5-9.8c0.6,0.5,0.8,1.1,0.8,1.9c0,0.8-0.3,1.4-0.8,1.9c-0.6,0.5-1.2,0.7-2.1,0.7h-2.4V-2h-1.1v-8.5h3.5
		C-918.8-10.5-918.1-10.2-917.5-9.8z M-918.4-6.7c0.4-0.3,0.5-0.7,0.5-1.2c0-0.6-0.2-1-0.5-1.2c-0.4-0.2-0.8-0.3-1.2-0.3h-2.4v3.1
		h2.4C-919.1-6.3-918.7-6.4-918.4-6.7z"/>
	<path d="M-915.8-2v-8.5h1.1V-2H-915.8z"/>
	<path d="M-908.8-1.9c-0.1-0.1-0.1-0.3-0.2-0.4c0-0.2,0-0.3-0.1-0.5c-0.2,0.3-0.6,0.5-1,0.7c-0.4,0.2-0.8,0.3-1.3,0.4
		c-0.6,0-1.2-0.1-1.6-0.3c-0.5-0.2-0.7-0.7-0.8-1.2c-0.1-0.6,0-1,0.3-1.3c0.3-0.3,0.7-0.5,1.1-0.7c0.4-0.1,0.8-0.2,1.2-0.2
		s0.8-0.1,1.2-0.1c0.2,0,0.4-0.1,0.6-0.1c0.2-0.1,0.3-0.2,0.3-0.5c0-0.3-0.1-0.5-0.4-0.8c-0.2-0.2-0.7-0.4-1.2-0.4s-1,0.1-1.3,0.3
		c-0.3,0.2-0.4,0.5-0.3,0.8h-1.1c-0.1-0.7,0.2-1.2,0.7-1.5c0.6-0.4,1.2-0.5,2-0.5c0.7,0,1.3,0.2,1.9,0.5c0.6,0.4,0.8,0.9,0.8,1.5
		v3.4c0,0.3,0,0.5,0.1,0.7c0.1,0.2,0.1,0.3,0.1,0.3H-908.8z M-909-5.1c-0.1,0.1-0.2,0.1-0.3,0.2c-0.1,0.1-0.2,0.1-0.4,0.1
		c-0.2,0.1-0.6,0.1-1,0.1s-0.7,0.1-0.9,0.1c-0.4,0.1-0.6,0.3-0.8,0.4c-0.2,0.2-0.3,0.4-0.2,0.7c0,0.3,0.2,0.5,0.5,0.7
		c0.3,0.1,0.6,0.2,0.9,0.1c0.7,0,1.3-0.3,1.6-0.6c0.4-0.4,0.6-0.7,0.6-1V-5.1z"/>
	<path d="M-902.2-1.9v-3.7c0-0.6-0.1-1-0.4-1.2c-0.2-0.2-0.6-0.4-1.1-0.4c-0.5,0-0.9,0.2-1.3,0.5c-0.3,0.3-0.5,0.8-0.5,1.3v3.5h-1.1
		v-6.2h1.1v0.7c0.3-0.3,0.6-0.5,1-0.7c0.4-0.2,0.9-0.3,1.4-0.2c0.7,0.1,1.1,0.4,1.4,0.8c0.3,0.5,0.4,0.9,0.4,1.3v4.2H-902.2z"/>
	<path d="M-895.4-2v-8.5h1.1v7.5h4.5v1H-895.4z"/>
	<path d="M-889-9.4v-1.1h1.1v1.1H-889z M-889-2v-6.2h1.1V-2H-889z"/>
	<path d="M-881.8-4.6c0.2,0.2,0.3,0.5,0.3,0.9c0,0.6-0.3,1-0.8,1.4c-0.5,0.4-1.1,0.5-1.8,0.5c-1.1,0-1.8-0.3-2.2-0.8
		c-0.4-0.5-0.6-1-0.6-1.4h1.1c0,0.3,0.2,0.6,0.5,0.9c0.3,0.2,0.7,0.3,1.2,0.3c0.4,0,0.8-0.1,1-0.2c0.3-0.1,0.4-0.4,0.5-0.6
		c0-0.2,0-0.4-0.2-0.5c-0.1-0.1-0.3-0.3-0.5-0.4c-0.3-0.2-0.7-0.3-1.1-0.3c-0.4-0.1-0.7-0.1-1-0.2c-0.4-0.1-0.7-0.3-0.9-0.6
		c-0.2-0.3-0.4-0.6-0.3-1c0-0.5,0.3-0.9,0.7-1.2c0.4-0.4,1-0.6,1.8-0.6c0.9,0,1.5,0.2,1.9,0.7c0.4,0.5,0.6,0.9,0.6,1.3h-1.1
		c0-0.2-0.1-0.4-0.3-0.6c-0.2-0.2-0.6-0.4-1.2-0.4c-0.5,0-0.8,0.1-1,0.3c-0.2,0.2-0.3,0.4-0.3,0.6c0,0.3,0.1,0.5,0.3,0.6
		c0.2,0.1,0.4,0.2,0.6,0.3c0.3,0.1,0.6,0.1,1,0.2c0.4,0.1,0.7,0.2,1,0.3C-882.4-5-882.1-4.8-881.8-4.6z"/>
	<path d="M-879.1-1.9c-0.2,0-0.4-0.1-0.6-0.2c-0.2-0.1-0.3-0.2-0.4-0.4c-0.1-0.1-0.2-0.3-0.2-0.4c0-0.2-0.1-0.4-0.1-0.7v-3.5h-0.8
		V-8l0.8,0V-10h1.1v1.9l0.9,0v0.9h-0.9v3.4c0,0.1,0,0.3,0,0.4c0,0.1,0.1,0.2,0.2,0.3c0.1,0.1,0.2,0.1,0.4,0.2c0.1,0,0.3,0,0.4,0
		l0,0.9H-879.1z"/>
	<path d="M-876.4-3.4c0.3-0.9,0.4-1.9,0.4-2.8c0-0.9-0.1-1.8-0.4-2.8c-0.3-0.9-0.7-2-1.4-3h0.9c0.4,0.6,0.9,1.4,1.4,2.4
		c0.5,1,0.7,2.1,0.7,3.4c0,1.3-0.2,2.5-0.7,3.4c-0.5,1-0.9,1.8-1.4,2.4h-0.9C-877.1-1.5-876.6-2.5-876.4-3.4z"/>
</g>
<g>
	<path d="M-432.9-19.7c-0.5-0.2-1.1-0.6-1.6-1.1c-0.6-0.5-1-1-1.2-1.5c-0.2,0.6-0.6,1.1-1.1,1.6c-0.5,0.5-1.1,0.9-1.7,1.3l-0.8-0.8
		c1.5-0.7,2.3-1.5,2.6-2.4c0.3-0.9,0.4-1.6,0.4-2.1v-0.9h1.3v0.9c0,0.5,0.2,1.1,0.5,2c0.3,0.9,1.1,1.6,2.4,2.1L-432.9-19.7z
		 M-437.1-15.6v-3.3h1.2v2.3h6.6v1H-437.1z M-430.8-18.3v-4.3h-2.2v-1.1h2.2v-2.3h1.2v7.6H-430.8z"/>
	<path d="M-427.7-20.1v-5.3h1.2v1.8h2.9v-1.8h1.2v5.3H-427.7z M-420.4-15.3V-18h-6.5v-1h7.7v3.7H-420.4z M-423.6-22.6h-2.9v1.5h2.9
		V-22.6z M-419.2-22.3v2.7h-1.2v-6.3h1.2v2.6h1.5v1H-419.2z"/>
	<path d="M-404.7-24.1v-1.8h1.2v7.7h-1.2V-21h-2.4v1.2h-5.1v-5.7h1.2v1.8h2.7v-1.8h1.2v1.3H-404.7z M-408.3-22.6h-2.7v1.9h2.7V-22.6
		z M-411-15.6v-3.4h1.2v2.4h6.6v1H-411z M-404.7-21.9v-1.2h-2.4v1.2H-404.7z"/>
	<path d="M-397.1-21.9c-0.8,1.1-2.1,1.8-3.9,2.3l-0.6-0.8c1-0.2,2-0.7,2.9-1.5c0.9-0.8,1.4-1.6,1.5-2.3h-3.7v-1h5.2
		C-395.8-24.1-396.2-22.9-397.1-21.9z M-393.2-15.8c-0.7,0.4-1.7,0.6-3,0.6c-1.3,0-2.3-0.2-3-0.6c-0.7-0.4-1.1-0.9-1.1-1.6
		c0-0.6,0.4-1.2,1.1-1.6c0.7-0.4,1.7-0.6,3-0.6c1.3,0,2.3,0.2,3,0.6c0.7,0.4,1.1,0.9,1.1,1.6C-392.1-16.7-392.5-16.2-393.2-15.8z
		 M-394.2-18.2c-0.5-0.2-1.2-0.3-2-0.3c-0.8,0-1.5,0.1-2,0.3c-0.5,0.2-0.8,0.5-0.8,0.9c0,0.4,0.3,0.7,0.8,0.9c0.5,0.2,1.2,0.3,2,0.3
		c0.8,0,1.5-0.1,2-0.3c0.5-0.2,0.8-0.5,0.8-0.9C-393.4-17.7-393.7-18-394.2-18.2z M-393.5-19.6V-21h-2.1v-1h2.1v-1.2h-2v-1h2v-1.6
		h1.2v6.3H-393.5z"/>
</g>
<g>
	<rect x="-964" y="-97" width="4" height="4"/>
	<rect x="-958" y="-97" width="4" height="4"/>
	<rect x="-952" y="-97" width="4" height="4"/>
	<rect x="-946" y="-97" width="4" height="4"/>
	<rect x="-940" y="-97" width="4" height="4"/>
	<rect x="-934" y="-97" width="4" height="4"/>
	<rect x="-928" y="-97" width="4" height="4"/>
	<rect x="-922" y="-97" width="4" height="4"/>
	<rect x="-916" y="-97" width="4" height="4"/>
	<rect x="-964" y="-91" width="4" height="4"/>
	<rect x="-958" y="-91" width="4" height="4"/>
	<rect x="-952" y="-91" width="4" height="4"/>
	<rect x="-946" y="-91" width="4" height="4"/>
	<rect x="-940" y="-91" width="4" height="4"/>
	<rect x="-934" y="-91" width="4" height="4"/>
	<rect x="-928" y="-91" width="4" height="4"/>
	<rect x="-922" y="-91" width="4" height="4"/>
	<rect x="-916" y="-91" width="4" height="4"/>
	<rect x="-964" y="-79" width="4" height="4"/>
	<rect x="-958" y="-79" width="4" height="4"/>
	<rect x="-952" y="-79" width="4" height="4"/>
	<rect x="-946" y="-79" width="4" height="4"/>
	<rect x="-940" y="-79" width="4" height="4"/>
	<rect x="-934" y="-79" width="4" height="4"/>
	<rect x="-928" y="-79" width="4" height="4"/>
	<rect x="-922" y="-79" width="4" height="4"/>
	<rect x="-916" y="-79" width="4" height="4"/>
	<rect x="-964" y="-73" width="4" height="4"/>
	<rect x="-958" y="-73" width="4" height="4"/>
	<rect x="-952" y="-73" width="4" height="4"/>
	<rect x="-946" y="-73" width="4" height="4"/>
	<rect x="-940" y="-73" width="4" height="4"/>
	<rect x="-934" y="-73" width="4" height="4"/>
	<rect x="-928" y="-73" width="4" height="4"/>
	<rect x="-922" y="-73" width="4" height="4"/>
	<rect x="-916" y="-73" width="4" height="4"/>
	<rect x="-958" y="-67" width="4" height="4"/>
	<rect x="-952" y="-67" width="4" height="4"/>
	<rect x="-946" y="-67" width="4" height="4"/>
	<rect x="-940" y="-67" width="4" height="4"/>
	<rect x="-934" y="-67" width="4" height="4"/>
	<rect x="-928" y="-67" width="4" height="4"/>
	<rect x="-922" y="-67" width="4" height="4"/>
	<rect x="-952" y="-61" width="4" height="4"/>
	<rect x="-946" y="-61" width="4" height="4"/>
	<rect x="-940" y="-61" width="4" height="4"/>
	<rect x="-934" y="-61" width="4" height="4"/>
	<rect x="-928" y="-61" width="4" height="4"/>
	<rect x="-946" y="-55" width="4" height="4"/>
	<rect x="-940" y="-55" width="4" height="4"/>
	<rect x="-934" y="-55" width="4" height="4"/>
	<line fill="none" stroke="#000000" stroke-width="3" stroke-miterlimit="10" x1="-964" y1="-83" x2="-912" y2="-83"/>
</g>
<g>
	<g>
		<polygon fill="#040000" points="-412,-44.7 -418.2,-57.2 -402.2,-62.1 -385.9,-56.9 -392,-44.7 -394,-45.8 -389.1,-55.5 
			-402.2,-59.7 -415,-55.8 -409.9,-45.8 		"/>
		<polygon fill="#040000" points="-412,-60.9 -414.3,-60.9 -414.3,-68.7 -390.6,-68.7 -390.6,-61.3 -392.9,-61.3 -392.9,-66.4 
			-412,-66.4 		"/>
		<path fill="#040000" d="M-397-66.4h-11.5v-9.3h11.5V-66.4z M-406.2-68.7h6.9v-4.8h-6.9V-68.7z"/>
		<rect x="-403.2" y="-60.1" fill="#040000" width="2.3" height="14"/>
	</g>
	<g>
		<polygon fill="#040000" points="-438.5,-71.2 -444.7,-83.7 -428.7,-88.6 -412.4,-83.4 -418.5,-71.2 -420.5,-72.3 -415.6,-82 
			-428.7,-86.2 -441.5,-82.3 -436.4,-72.3 		"/>
		<polygon fill="#040000" points="-438.5,-87.4 -440.8,-87.4 -440.8,-95.2 -417.1,-95.2 -417.1,-87.8 -419.4,-87.8 -419.4,-92.9 
			-438.5,-92.9 		"/>
		<path fill="#040000" d="M-423.5-92.9H-435v-9.3h11.5V-92.9z M-432.7-95.2h6.9v-4.8h-6.9V-95.2z"/>
		<rect x="-429.7" y="-86.6" fill="#040000" width="2.3" height="14"/>
	</g>
	<g>
		<polygon fill="#050000" points="-391.4,-75.6 -394.4,-81.5 -392.7,-82.4 -390.8,-78.7 -387.6,-81.4 -386.3,-79.9 		"/>
		<path fill="none" stroke="#050000" stroke-width="1.9168" stroke-miterlimit="10" d="M-412.8-94.7c6.7-4.4,15.7-2.6,20.1,4
			c2.4,3.5,3,7.9,1.9,12"/>
	</g>
	<g>
		<polygon fill="#050000" points="-441.6,-68.3 -438.1,-62.6 -439.8,-61.6 -442,-65.2 -445,-62.3 -446.3,-63.7 		"/>
		<path fill="none" stroke="#050000" stroke-width="1.9168" stroke-miterlimit="10" d="M-418.9-50.7c-6.3,4.9-15.4,3.7-20.3-2.6
			c-2.6-3.4-3.6-7.7-2.7-11.9"/>
	</g>
</g>
<g>
	<g>
		<path d="M30.9,22.2c-0.3-0.8-0.7-1.5-1.4-2.2c-0.7-0.7-1.7-1-3.1-1c-1.6,0-2.8,0.6-3.7,1.8c-0.9,1.2-1.3,2.8-1.3,4.8
			c0,2,0.4,3.6,1.3,4.8c0.9,1.2,2.1,1.8,3.7,1.8c1.4,0,2.4-0.4,3.1-1.2c0.7-0.8,1.2-1.6,1.4-2.5h2.8c-0.3,1.4-1,2.7-2.2,4.1
			c-1.2,1.3-2.9,2-5.1,2c-2.4,0-4.3-0.8-5.7-2.5c-1.4-1.7-2.1-3.8-2.1-6.5c0-2.7,0.7-4.8,2.1-6.5c1.4-1.6,3.3-2.5,5.7-2.5
			c2.3,0,4,0.6,5.2,1.9c1.2,1.3,1.9,2.5,2.2,3.7H30.9z"/>
	</g>
	<polygon fill="#040000" points="44.4,54.3 17,54.3 17,51.5 41.5,51.5 41.5,12.5 10.2,12.5 10.2,52.9 7.3,52.9 7.3,9.7 44.4,9.7 	
		"/>
	<polyline fill="#040000" points="34.3,37.6 34.3,40.4 18.4,40.4 18.4,37.6 	"/>
	<rect x="18.4" y="44.9" fill="#040000" width="15.9" height="2.9"/>
	<path fill="#040000" d="M56.7,53.9h-9.1V23.4h9.1V53.9z M50.5,51h3.3V26.3h-3.3V51z"/>
	<path fill="#040000" d="M55.3,26h-6v-7.3h6V26z M51.6,23.7H53V21h-1.4V23.7z"/>
	<rect x="51" y="14.7" fill="#040000" width="2.3" height="4"/>
</g>
<g>
	<g>
		<path d="M-587.4-222.5v-11.4l-4,11.4h-3l-3.9-11.4v11.5h-2.6v-17.2h3.1l4.9,13.8l4.9-13.8h3.1v17.2H-587.4z"/>
	</g>
	<polygon fill="#040000" points="-574.5,-202.2 -601.9,-202.2 -601.9,-205.1 -577.4,-205.1 -577.4,-244 -608.7,-244 -608.7,-203.7 
		-611.6,-203.7 -611.6,-246.9 -574.5,-246.9 	"/>
	<polyline fill="#040000" points="-584.6,-219 -584.6,-216.1 -600.5,-216.1 -600.5,-219 	"/>
	<rect x="-600.5" y="-211.7" fill="#040000" width="15.9" height="2.9"/>
	<path fill="#040000" d="M-562.2-202.7h-9.1v-30.5h9.1V-202.7z M-568.4-205.6h3.3v-24.8h-3.3V-205.6z"/>
	<path fill="#040000" d="M-563.6-230.6h-6v-7.3h6V-230.6z M-567.3-232.9h1.4v-2.7h-1.4V-232.9z"/>
	<rect x="-567.9" y="-241.9" fill="#040000" width="2.3" height="4"/>
</g>
<g>
	<g>
		<polygon fill="#040000" points="-396,-229.6 -406.8,-229.6 -406.8,-230.8 -397.1,-230.8 -397.1,-246.2 -409.5,-246.2 
			-409.5,-230.2 -410.6,-230.2 -410.6,-247.3 -396,-247.3 		"/>
		<rect x="-406.2" y="-243.5" fill="#040000" width="6.3" height="1.1"/>
		<rect x="-406.2" y="-240.7" fill="#040000" width="6.3" height="1.1"/>
		<rect x="-406.2" y="-237.8" fill="#040000" width="6.3" height="1.1"/>
		<rect x="-406.2" y="-235" fill="#040000" width="6.3" height="1.1"/>
	</g>
	<polygon fill="#E60412" points="-400.8,-217.2 -404.2,-220.6 -404.2,-218.7 -414.7,-218.7 -414.7,-215.7 -404.2,-215.7 
		-404.2,-213.8 	"/>
	<polygon fill="#207DC2" points="-414.7,-210.2 -411.3,-206.8 -411.3,-208.7 -400.8,-208.7 -400.8,-211.7 -411.3,-211.7 
		-411.3,-213.6 	"/>
	<g>
		<polyline fill="#040000" points="-420.9,-223.2 -425.6,-224.7 -438.4,-220.8 -433.3,-210.7 -435.4,-209.7 -441.6,-222.2 
			-425.6,-227.1 -421,-225.6 		"/>
		<polygon fill="#040000" points="-434.4,-225.9 -436.7,-225.9 -436.7,-233.8 -412.9,-233.8 -412.9,-226.4 -415.2,-226.4 
			-415.2,-231.5 -434.4,-231.5 		"/>
		<path fill="#040000" d="M-419.3-231.5h-11.5v-9.3h11.5V-231.5z M-428.6-233.8h7v-4.8h-7V-233.8z"/>
		<rect x="-425.5" y="-225.2" fill="#040000" width="2.3" height="14"/>
		<path fill="#040000" d="M-435.9-202.2c-2.9,0-5.1-1.6-5.1-3.6c0-0.6,0.5-1.1,1.1-1.1s1.1,0.5,1.1,1.1c0,0.5,1.1,1.3,2.8,1.3
			c1.7,0,2.9-0.8,2.9-1.3c0-0.6,0.5-1.1,1.1-1.1c0.6,0,1.1,0.5,1.1,1.1C-430.7-203.8-433-202.2-435.9-202.2z"/>
		<path fill="#040000" d="M-427.8-202.2c-2.9,0-5.1-1.6-5.1-3.6c0-0.6,0.5-1.1,1.1-1.1c0.6,0,1.1,0.5,1.1,1.1c0,0.5,1.1,1.3,2.8,1.3
			c1.7,0,2.9-0.8,2.9-1.3c0-0.6,0.5-1.1,1.1-1.1c0.6,0,1.1,0.5,1.1,1.1C-422.7-203.8-424.9-202.2-427.8-202.2z"/>
		<polygon points="-418.1,-223.9 -395.9,-223.9 -395.9,-226.9 -421.1,-226.9 -421.1,-201.9 -395.9,-201.9 -395.9,-204.9 
			-418.1,-204.9 		"/>
	</g>
</g>
</svg>
