<?xml version="1.0" encoding="utf-8"?>
<!-- Generator: Adobe Illustrator 22.0.1, SVG Export Plug-In . SVG Version: 6.00 Build 0)  -->
<svg version="1.2" baseProfile="tiny" id="레이어_1"
	 xmlns="http://www.w3.org/2000/svg" xmlns:xlink="http://www.w3.org/1999/xlink" x="0px" y="0px" viewBox="0 0 64 64"
	 xml:space="preserve">
<rect x="-83.9" y="-158.6" fill="none" stroke="#000000" stroke-miterlimit="10" width="64" height="64"/>
<rect x="-83.9" y="-158.6" fill="none" stroke="#000000" stroke-miterlimit="10" width="64" height="64"/>
<rect x="-83.9" y="-158.6" fill="none" stroke="#000000" stroke-miterlimit="10" width="64" height="64"/>
<rect x="-83.9" y="-158.6" fill="none" stroke="#000000" stroke-miterlimit="10" width="64" height="64"/>
<rect x="-83.9" y="-158.6" fill="none" stroke="#000000" stroke-miterlimit="10" width="64" height="64"/>
<rect x="-83.9" y="-158.6" fill="none" stroke="#000000" stroke-miterlimit="10" width="64" height="64"/>
<rect x="-83.9" y="-158.6" fill="none" stroke="#000000" stroke-miterlimit="10" width="64" height="64"/>
<rect x="-83.9" y="-158.6" fill="none" stroke="#000000" stroke-miterlimit="10" width="64" height="64"/>
<rect x="-83.9" y="-158.6" fill="none" stroke="#000000" stroke-miterlimit="10" width="64" height="64"/>
<rect x="-83.9" y="-158.6" fill="none" stroke="#000000" stroke-miterlimit="10" width="64" height="64"/>
<rect x="-83.9" y="-158.6" fill="none" stroke="#000000" stroke-miterlimit="10" width="64" height="64"/>
<rect x="-83.9" y="-158.6" fill="none" stroke="#000000" stroke-miterlimit="10" width="64" height="64"/>
<rect x="-83.9" y="-158.6" fill="none" stroke="#000000" stroke-miterlimit="10" width="64" height="64"/>
<rect x="-83.9" y="-158.6" fill="none" stroke="#000000" stroke-miterlimit="10" width="64" height="64"/>
<rect x="-83.9" y="-158.6" fill="none" stroke="#000000" stroke-miterlimit="10" width="64" height="64"/>
<rect x="-83.9" y="-158.6" fill="none" stroke="#000000" stroke-miterlimit="10" width="64" height="64"/>
<rect x="-83.9" y="-158.6" fill="none" stroke="#000000" stroke-miterlimit="10" width="64" height="64"/>
<rect x="-83.9" y="-158.6" fill="none" stroke="#000000" stroke-miterlimit="10" width="64" height="64"/>
<rect x="-83.9" y="-158.6" fill="none" stroke="#000000" stroke-miterlimit="10" width="64" height="64"/>
<rect x="-83.9" y="-158.6" fill="none" stroke="#000000" stroke-miterlimit="10" width="64" height="64"/>
<rect x="-83.9" y="-158.6" fill="none" stroke="#000000" stroke-miterlimit="10" width="64" height="64"/>
<rect x="-83.9" y="-158.6" fill="none" stroke="#000000" stroke-miterlimit="10" width="64" height="64"/>
<rect x="-83.9" y="-158.6" fill="none" stroke="#000000" stroke-miterlimit="10" width="64" height="64"/>
<rect x="-83.9" y="-158.6" fill="none" stroke="#000000" stroke-miterlimit="10" width="64" height="64"/>
<rect x="-83.9" y="-158.6" fill="none" stroke="#000000" stroke-miterlimit="10" width="64" height="64"/>
<rect x="-83.9" y="-158.6" fill="none" stroke="#000000" stroke-miterlimit="10" width="64" height="64"/>
<rect x="-83.9" y="-158.6" fill="none" stroke="#000000" stroke-miterlimit="10" width="64" height="64"/>
<rect x="-83.9" y="-158.6" fill="none" stroke="#000000" stroke-miterlimit="10" width="64" height="64"/>
<rect x="-83.9" y="-158.6" fill="none" stroke="#000000" stroke-miterlimit="10" width="64" height="64"/>
<rect x="-83.9" y="-158.6" fill="none" stroke="#000000" stroke-miterlimit="10" width="64" height="64"/>
<rect x="-83.9" y="-158.6" fill="none" stroke="#000000" stroke-miterlimit="10" width="64" height="64"/>
<rect x="-83.9" y="-158.6" fill="none" stroke="#000000" stroke-miterlimit="10" width="64" height="64"/>
<rect x="-83.9" y="-158.6" fill="none" stroke="#000000" stroke-miterlimit="10" width="64" height="64"/>
<rect x="-83.9" y="-158.6" fill="none" stroke="#000000" stroke-miterlimit="10" width="64" height="64"/>
<rect x="-83.9" y="-158.6" fill="none" stroke="#000000" stroke-miterlimit="10" width="64" height="64"/>
<rect x="-83.9" y="-158.6" fill="none" stroke="#000000" stroke-miterlimit="10" width="64" height="64"/>
<rect x="-83.9" y="-158.6" fill="none" stroke="#000000" stroke-miterlimit="10" width="64" height="64"/>
<rect x="-83.9" y="-158.6" fill="none" stroke="#000000" stroke-miterlimit="10" width="64" height="64"/>
<rect x="-83.9" y="-158.6" fill="none" stroke="#000000" stroke-miterlimit="10" width="64" height="64"/>
<rect x="-83.9" y="-158.6" fill="none" stroke="#000000" stroke-miterlimit="10" width="64" height="64"/>
<rect x="-83.9" y="-158.6" fill="none" stroke="#000000" stroke-miterlimit="10" width="64" height="64"/>
<rect x="-83.9" y="-158.6" fill="none" stroke="#000000" stroke-miterlimit="10" width="64" height="64"/>
<rect x="-83.9" y="-158.6" fill="none" stroke="#000000" stroke-miterlimit="10" width="64" height="64"/>
<rect x="-83.9" y="-158.6" fill="none" stroke="#000000" stroke-miterlimit="10" width="64" height="64"/>
<rect x="-83.9" y="-158.6" fill="none" stroke="#000000" stroke-miterlimit="10" width="64" height="64"/>
<rect x="-83.9" y="-158.6" fill="none" stroke="#000000" stroke-miterlimit="10" width="64" height="64"/>
<rect x="-83.9" y="-158.6" fill="none" stroke="#000000" stroke-miterlimit="10" width="64" height="64"/>
<rect x="-83.9" y="-158.6" fill="none" stroke="#000000" stroke-miterlimit="10" width="64" height="64"/>
<rect x="-83.9" y="-158.6" fill="none" stroke="#000000" stroke-miterlimit="10" width="64" height="64"/>
<rect x="-83.9" y="-158.6" fill="none" stroke="#000000" stroke-miterlimit="10" width="64" height="64"/>
<rect x="-83.9" y="-158.6" fill="none" stroke="#000000" stroke-miterlimit="10" width="64" height="64"/>
<rect x="-83.9" y="-158.6" fill="none" stroke="#000000" stroke-miterlimit="10" width="64" height="64"/>
<rect x="-83.9" y="-158.6" fill="none" stroke="#000000" stroke-miterlimit="10" width="64" height="64"/>
<rect x="-83.9" y="-158.6" fill="none" stroke="#000000" stroke-miterlimit="10" width="64" height="64"/>
<rect x="-83.9" y="-158.6" fill="none" stroke="#000000" stroke-miterlimit="10" width="64" height="64"/>
<rect x="-83.9" y="-158.6" fill="none" stroke="#000000" stroke-miterlimit="10" width="64" height="64"/>
<rect x="-83.9" y="-158.6" fill="none" stroke="#000000" stroke-miterlimit="10" width="64" height="64"/>
<rect x="-83.9" y="-158.6" fill="none" stroke="#000000" stroke-miterlimit="10" width="64" height="64"/>
<rect x="-83.9" y="-158.6" fill="none" stroke="#000000" stroke-miterlimit="10" width="64" height="64"/>
<rect x="-83.9" y="-158.6" fill="none" stroke="#000000" stroke-miterlimit="10" width="64" height="64"/>
<rect x="-83.9" y="-158.6" fill="none" stroke="#000000" stroke-miterlimit="10" width="64" height="64"/>
<rect x="-83.9" y="-158.6" fill="none" stroke="#000000" stroke-miterlimit="10" width="64" height="64"/>
<rect x="-83.9" y="-158.6" fill="none" stroke="#000000" stroke-miterlimit="10" width="64" height="64"/>
<rect x="-83.9" y="-158.6" fill="none" stroke="#000000" stroke-miterlimit="10" width="64" height="64"/>
<g>
	<path d="M-856.9,558v-10.4h-3.1v-1.4c0.5,0,0.9-0.1,1.3-0.2c0.4-0.1,0.8-0.3,1.2-0.6c0.3-0.2,0.5-0.5,0.7-0.8s0.3-0.7,0.3-1.1h1.4
		V558H-856.9z"/>
	<path d="M-842.1,553.6c0.4,0.4,0.6,0.9,0.5,1.6c-0.1,0.9-0.5,1.7-1.3,2.3c-0.8,0.6-1.9,0.9-3,0.9c-1.8,0-3-0.5-3.7-1.4
		c-0.7-0.9-1-1.7-1-2.3h1.8c0.1,0.6,0.3,1.1,0.8,1.4c0.5,0.4,1.2,0.6,2,0.6c0.7,0,1.3-0.1,1.7-0.4c0.4-0.2,0.7-0.6,0.8-1
		c0.1-0.3,0-0.6-0.3-0.8c-0.2-0.2-0.5-0.4-0.9-0.6c-0.6-0.3-1.2-0.4-1.8-0.5c-0.6-0.1-1.2-0.2-1.6-0.3c-0.6-0.2-1.1-0.5-1.6-1
		c-0.4-0.4-0.6-1-0.6-1.7c0-0.8,0.4-1.4,1.2-2.1c0.7-0.6,1.7-0.9,3-0.9c1.4,0,2.5,0.4,3.2,1.1c0.7,0.8,1,1.5,1,2.1h-1.8
		c0-0.3-0.2-0.6-0.5-1c-0.3-0.4-1-0.6-2-0.6c-0.8,0-1.4,0.1-1.7,0.4c-0.3,0.3-0.5,0.6-0.5,0.9c0,0.5,0.2,0.8,0.5,0.9
		c0.3,0.2,0.7,0.3,1.1,0.4c0.5,0.1,1,0.3,1.7,0.3c0.6,0.1,1.2,0.3,1.7,0.5C-842.9,552.9-842.5,553.2-842.1,553.6z"/>
	<path d="M-837.5,558c-0.4,0-0.7-0.1-1-0.3c-0.3-0.2-0.5-0.4-0.7-0.6c-0.2-0.2-0.3-0.5-0.4-0.7c-0.1-0.3-0.1-0.7-0.1-1.2v-5.9h-1.3
		v-1.5l1.3,0v-3.2h1.8v3.2l1.5,0v1.5h-1.5v5.6c0,0.2,0,0.5,0,0.7c0,0.2,0.1,0.4,0.3,0.6c0.2,0.1,0.4,0.2,0.6,0.3c0.2,0,0.4,0,0.6,0
		l0,1.5H-837.5z"/>
</g>
<g>
	<path d="M-677,544.4c0.8,0.9,1.1,1.9,1.1,3c0,1.1-0.3,2.1-1,2.8c-0.7,0.7-1.3,1.3-1.9,1.7l-2.4,1.6c-0.4,0.3-0.8,0.6-1.3,1.1
		c-0.5,0.5-0.8,1-1,1.6h7.4v1.6h-9.6c0-1,0.2-1.9,0.7-2.9c0.4-1,1.3-1.9,2.7-2.9l2.4-1.7c0.5-0.4,1-0.8,1.3-1.3
		c0.4-0.5,0.5-1.1,0.5-1.7c0-0.9-0.2-1.5-0.7-2c-0.4-0.5-1.1-0.7-2-0.7c-1.1,0-1.8,0.3-2.2,0.9c-0.4,0.6-0.6,1.3-0.7,2h-1.7
		c0-1.2,0.4-2.2,1.1-3.1s1.9-1.4,3.5-1.4C-678.9,543.1-677.7,543.5-677,544.4z"/>
	<path d="M-666.1,553.6c0.4,0.4,0.6,0.9,0.5,1.6c-0.1,0.9-0.5,1.7-1.3,2.3c-0.8,0.6-1.9,0.9-3,0.9c-1.8,0-3-0.5-3.7-1.4
		c-0.7-0.9-1-1.7-1-2.3h1.8c0.1,0.6,0.3,1.1,0.8,1.4c0.5,0.4,1.2,0.6,2,0.6c0.7,0,1.3-0.1,1.7-0.4c0.4-0.2,0.7-0.6,0.8-1
		c0.1-0.3,0-0.6-0.3-0.8c-0.2-0.2-0.5-0.4-0.9-0.6c-0.6-0.3-1.2-0.4-1.8-0.5c-0.6-0.1-1.2-0.2-1.6-0.3c-0.6-0.2-1.1-0.5-1.6-1
		c-0.4-0.4-0.6-1-0.6-1.7c0-0.8,0.4-1.4,1.2-2.1c0.7-0.6,1.7-0.9,3-0.9c1.4,0,2.5,0.4,3.2,1.1c0.7,0.8,1,1.5,1,2.1h-1.8
		c0-0.3-0.2-0.6-0.5-1c-0.3-0.4-1-0.6-2-0.6c-0.8,0-1.4,0.1-1.7,0.4c-0.3,0.3-0.5,0.6-0.5,0.9c0,0.5,0.2,0.8,0.5,0.9
		c0.3,0.2,0.7,0.3,1.1,0.4c0.5,0.1,1,0.3,1.7,0.3c0.6,0.1,1.2,0.3,1.7,0.5C-666.9,552.9-666.5,553.2-666.1,553.6z"/>
	<path d="M-661.5,558c-0.4,0-0.7-0.1-1-0.3c-0.3-0.2-0.5-0.4-0.7-0.6c-0.2-0.2-0.3-0.5-0.4-0.7c-0.1-0.3-0.1-0.7-0.1-1.2v-5.9h-1.3
		v-1.5l1.3,0v-3.2h1.8v3.2l1.5,0v1.5h-1.5v5.6c0,0.2,0,0.5,0,0.7c0,0.2,0.1,0.4,0.3,0.6c0.2,0.1,0.4,0.2,0.6,0.3c0.2,0,0.4,0,0.6,0
		l0,1.5H-661.5z"/>
</g>
<g>
	<rect x="-345.5" y="228.1" fill="none" stroke="#040000" stroke-width="2.6168" stroke-miterlimit="10" width="8" height="8"/>
	
		<rect x="-310.5" y="228.1" transform="matrix(-1 -1.224647e-16 1.224647e-16 -1 -612.9878 464.2906)" fill="none" stroke="#040000" stroke-width="2.6168" stroke-miterlimit="10" width="8" height="8"/>
	
		<rect x="-345.5" y="262.1" transform="matrix(-1 -1.224647e-16 1.224647e-16 -1 -682.9878 532.2906)" fill="none" stroke="#040000" stroke-width="2.6168" stroke-miterlimit="10" width="8" height="8"/>
	<g>
		<line fill="none" stroke="#040000" stroke-width="2.6927" stroke-miterlimit="10" x1="-333" y1="231.6" x2="-315" y2="231.6"/>
		<path fill="none" stroke="#040000" stroke-width="2.6927" stroke-miterlimit="10" d="M-333,266.6"/>
	</g>
	<g>
		<path fill="none" stroke="#040000" stroke-width="2.6927" stroke-miterlimit="10" d="M-306.5,240.1"/>
		
			<line fill="none" stroke="#040000" stroke-width="2.6927" stroke-miterlimit="10" x1="-341.5" y1="240.1" x2="-341.5" y2="258.1"/>
	</g>
	<polyline fill="none" stroke="#040000" stroke-width="2.25" stroke-miterlimit="10" points="-318.5,227.4 -314.8,232.2 
		-319.5,235.9 	"/>
	<polyline fill="none" stroke="#040000" stroke-width="3" stroke-miterlimit="10" points="-346.2,244.6 -342,240.4 -337.8,244.6 	
		"/>
</g>
<g>
	<g>
		<g>
			<polyline fill="#ffffff" points="33.4,36.8 28.7,35.3 15.9,39.2 20.9,49.3 18.9,50.3 12.6,37.8 28.7,32.9 33.2,34.3 			"/>
			<polygon fill="#ffffff" points="19.9,34.1 17.6,34.1 17.6,26.2 41.4,26.2 41.4,33.6 39.1,33.6 39.1,28.5 19.9,28.5 			"/>
			<path fill="#ffffff" d="M34.9,28.5H23.4v-9.3h11.5V28.5z M25.7,26.2h7v-4.8h-7V26.2z"/>
			<rect x="28.7" y="34.8" fill="#ffffff" width="2.3" height="14"/>
			<path fill="#ffffff" d="M18.4,57.8c-2.9,0-5.1-1.6-5.1-3.6c0-0.6,0.5-1.1,1.1-1.1s1.1,0.5,1.1,1.1c0,0.5,1.1,1.3,2.9,1.3
				c1.7,0,2.9-0.8,2.9-1.3c0-0.6,0.5-1.1,1.1-1.1s1.1,0.5,1.1,1.1C23.5,56.2,21.3,57.8,18.4,57.8z"/>
			<path fill="#ffffff" d="M26.5,57.8c-2.9,0-5.1-1.6-5.1-3.6c0-0.6,0.5-1.1,1.1-1.1c0.6,0,1.1,0.5,1.1,1.1c0,0.5,1.1,1.3,2.8,1.3
				c1.7,0,2.9-0.8,2.9-1.3c0-0.6,0.5-1.1,1.1-1.1c0.6,0,1.1,0.5,1.1,1.1C31.6,56.2,29.4,57.8,26.5,57.8z"/>
			<path d="M51.4,58.1H33.2v-25h18.2V58.1z M36.2,55.1h12.2v-19H36.2V55.1z" fill="#ffffff"/>
		</g>
	</g>
	<path fill="none" stroke="#207DC2" stroke-width="4" stroke-miterlimit="10" d="M29.6,15.8c0-5.5,4.5-9.9,9.9-9.9l0,0
		c5.5,0,9.9,4.5,9.9,9.9v13.6"/>
	<polygon fill="#207DC2" points="29.6,18.5 24.3,13.2 34.9,13.2 	"/>
</g>
<g>
	<g>
		<polygon points="-830.5,400.4 -832.8,400.4 -834.6,402 -834.6,403.6 -828.7,403.6 -828.7,402 		"/>
		<polygon points="-818.7,400.4 -821,400.4 -822.8,402 -822.8,403.6 -816.9,403.6 -816.9,402 		"/>
		<rect x="-844.8" y="385.6" width="30.7" height="2.2"/>
		<rect x="-832.5" y="379.9" width="1.6" height="21.5"/>
		<rect x="-820.6" y="389.1" width="1.6" height="12.1"/>
		<polygon points="-816.4,387.4 -831.6,380.6 -842.1,387.3 -843,386 -831.7,378.7 -815.7,385.9 		"/>
		<rect x="-826.5" y="386" transform="matrix(0.4299 -0.9029 0.9029 0.4299 -824.9744 -521.8964)" width="1.6" height="12.5"/>
		<rect x="-831.7" y="397.7" width="11.8" height="1.6"/>
		<rect x="-843.5" y="389.3" width="3" height="4"/>
	</g>
	<g>
		<g>
			<path fill="#040000" d="M-862.3,406h-5.4v-5h5.4V406z M-866.1,404.4h2.2v-1.8h-2.2V404.4z"/>
			<path fill="#040000" d="M-855.8,406h-5.4v-5h5.4V406z M-859.6,404.4h2.2v-1.8h-2.2V404.4z"/>
			<path fill="#040000" d="M-849.4,406h-5.4v-5h5.4V406z M-853.2,404.4h2.2v-1.8h-2.2V404.4z"/>
			<path fill="#040000" d="M-842.9,406h-5.4v-5h5.4V406z M-846.7,404.4h2.2v-1.8h-2.2V404.4z"/>
			<path fill="#040000" d="M-836.4,406h-5.4v-5h5.4V406z M-840.3,404.4h2.2v-1.8h-2.2V404.4z"/>
			<path fill="#040000" d="M-855.8,400.1h-5.4v-5h5.4V400.1z M-859.6,398.4h2.2v-1.8h-2.2V398.4z"/>
			<path fill="#040000" d="M-849.4,400.1h-5.4v-5h5.4V400.1z M-853.2,398.4h2.2v-1.8h-2.2V398.4z"/>
			<path fill="#040000" d="M-842.9,400.1h-5.4v-5h5.4V400.1z M-846.7,398.4h2.2v-1.8h-2.2V398.4z"/>
			<path fill="#040000" d="M-836.4,400.1h-5.4v-5h5.4V400.1z M-840.3,398.4h2.2v-1.8h-2.2V398.4z"/>
		</g>
		<path d="M-836.4,415.1h-29.6l-5.6-8.2h35.3V415.1z M-865.2,413.5h27.1v-5h-30.6L-865.2,413.5z"/>
	</g>
	
		<rect x="-834.6" y="404.1" fill="none" stroke="#000000" stroke-width="1.6147" stroke-miterlimit="10" width="20.5" height="10.4"/>
</g>
<g>
	<path d="M-484.6,268.4h-40.9v-20.1h40.9V268.4z M-523.2,266.1h36.3v-15.4h-36.3V266.1z"/>
	<line fill="none" stroke="#000000" stroke-width="2.3158" stroke-miterlimit="10" x1="-518.6" y1="253" x2="-518.6" y2="263.8"/>
	<rect x="-514.4" y="253" width="2.3" height="10.8"/>
	<rect x="-509" y="253" width="2.3" height="10.8"/>
	<rect x="-503.6" y="253" width="2.3" height="10.8"/>
	<rect x="-498.2" y="253" width="2.3" height="10.8"/>
	<rect x="-492.8" y="253" width="2.3" height="10.8"/>
	<path d="M-460.7,244.5h-40.9v-20.1h40.9V244.5z M-499.3,242.2h36.3v-15.4h-36.3V242.2z"/>
	<line fill="none" stroke="#000000" stroke-width="2.3158" stroke-miterlimit="10" x1="-494.7" y1="229" x2="-494.7" y2="239.8"/>
	<rect x="-490.4" y="229" width="2.3" height="10.8"/>
	<rect x="-485" y="229" width="2.3" height="10.8"/>
	<rect x="-479.6" y="229" width="2.3" height="10.8"/>
	<rect x="-474.2" y="229" width="2.3" height="10.8"/>
	<rect x="-468.8" y="229" width="2.3" height="10.8"/>
	<polyline fill="none" stroke="#000000" stroke-width="3" stroke-miterlimit="10" points="-524.3,242 -524.3,226 -508.3,226 	"/>
	<polyline fill="none" stroke="#000000" stroke-width="3" stroke-miterlimit="10" points="-462.3,251 -462.3,267 -478.3,267 	"/>
	<polygon points="-510.1,222.5 -506.6,226 -510.1,229.5 	"/>
	<polygon points="-476.7,270.5 -480.2,267 -476.7,263.5 	"/>
</g>
<g>
	<g>
		<path d="M-688,381.7v5.7l4.9,4.9h36l4.9-4.9v-5.7H-688z M-644.6,386.4l-3.5,3.5H-682l-3.5-3.5v-2.3h40.9V386.4z"/>
		<rect x="-681.4" y="390.7" width="3.3" height="21.3"/>
		<rect x="-652" y="390.7" width="3.3" height="21.3"/>
		<polygon points="-678.4,410.3 -681.1,410.3 -683.9,412.8 -683.9,415.2 -675.7,415.2 -675.7,412.8 		"/>
		<polygon points="-649,410.3 -651.7,410.3 -654.4,412.8 -654.4,415.2 -646.3,415.2 -646.3,412.8 		"/>
		<polygon points="-658.8,407.1 -661.5,407.1 -661.5,404.3 -668.6,404.3 -668.6,407.1 -671.3,407.1 -671.3,401.6 -658.8,401.6 		"/>
		<path d="M-661.8,400.5h-6.6l-2.6-6.5h11.8L-661.8,400.5z M-666.7,398.1h3.2l0.7-1.6h-4.6L-666.7,398.1z"/>
		<rect x="-681.4" y="416" width="3.3" height="4.1"/>
		<rect x="-652" y="416" width="3.3" height="4.1"/>
	</g>
	<rect x="-667.8" y="408.7" fill="none" stroke="#000000" stroke-width="1.7943" stroke-miterlimit="10" width="5.4" height="5.4"/>
	<g>
		
			<rect x="-691.9" y="414.4" fill="none" stroke="#000000" stroke-width="1.7943" stroke-miterlimit="10" width="5.4" height="5.4"/>
		<rect x="-691.9" y="406" fill="none" stroke="#000000" stroke-width="1.7943" stroke-miterlimit="10" width="5.4" height="5.4"/>
		
			<rect x="-699.7" y="414.4" fill="none" stroke="#000000" stroke-width="1.7943" stroke-miterlimit="10" width="5.4" height="5.4"/>
		<rect x="-699.7" y="406" fill="none" stroke="#000000" stroke-width="1.7943" stroke-miterlimit="10" width="5.4" height="5.4"/>
	</g>
</g>
<g>
	<path d="M-293.9,398.8h-53v-26h53V398.8z M-343.9,395.8h47v-20h-47V395.8z"/>
	<rect x="-339.4" y="378.8" width="3" height="14"/>
	<rect x="-332.4" y="378.8" width="3" height="14"/>
	<rect x="-311.4" y="378.8" width="3" height="14"/>
	<rect x="-304.4" y="378.8" width="3" height="14"/>
	<g>
		<path d="M-320.5,389.9l-3.4-2v-4l3.4-2l3.4,2v4L-320.5,389.9z M-322.8,387.4l2.4,1.4l2.4-1.4v-2.7l-2.4-1.4l-2.4,1.4V387.4z"/>
		<rect x="-321" y="378.7" width="1.1" height="3.9"/>
		<rect x="-321" y="389" width="1.1" height="3.9"/>
		<rect x="-318.1" y="382.5" transform="matrix(0.7071 -0.7071 0.7071 0.7071 -363.429 -111.3959)" width="3.9" height="1.1"/>
		<rect x="-316.7" y="387.1" transform="matrix(0.7071 -0.7071 0.7071 0.7071 -367.6858 -109.6327)" width="1.1" height="3.9"/>
		<rect x="-326.7" y="388.5" transform="matrix(0.7071 -0.7071 0.7071 0.7071 -370.1953 -115.6913)" width="3.9" height="1.1"/>
		<rect x="-325.3" y="381" transform="matrix(0.7071 -0.7071 0.7071 0.7071 -365.9385 -117.4546)" width="1.1" height="3.9"/>
		<polygon points="-320.4,381.8 -323,379.9 -322.4,379.1 -320.5,380.5 -318.6,379.1 -318,379.9 		"/>
		<polygon points="-318.6,392.5 -320.5,391.1 -322.4,392.5 -323,391.7 -320.5,389.8 -318,391.6 		"/>
		<polygon points="-316.2,391.6 -317.2,391.4 -316.8,388.3 -313.7,387.9 -313.5,388.9 -315.9,389.3 		"/>
		<polygon points="-313.6,384 -316.7,383.6 -317.2,380.4 -316.2,380.3 -315.8,382.6 -313.5,383 		"/>
		<polygon points="-327.1,384 -327.3,383 -324.9,382.6 -324.6,380.3 -323.6,380.4 -324,383.5 		"/>
		<polygon points="-324.6,391.6 -325,389.2 -327.3,388.9 -327.2,387.9 -324.1,388.3 -323.6,391.4 		"/>
	</g>
	<path d="M-327.5,406.4v6.1c0,4.1,3.4,7.5,7.5,7.5s7.5-3.4,7.5-7.5v-6.1H-327.5z"/>
	<g>
		<line fill="none" stroke="#000000" stroke-width="2" stroke-miterlimit="10" x1="-323.5" y1="408.4" x2="-323.5" y2="400.4"/>
		<line fill="none" stroke="#000000" stroke-width="2" stroke-miterlimit="10" x1="-316.5" y1="408.4" x2="-316.5" y2="400.4"/>
	</g>
	<line fill="none" stroke="#000000" stroke-width="3" stroke-miterlimit="10" x1="-320" y1="418.4" x2="-320" y2="426.9"/>
</g>
<g>
	<g>
		<polygon stroke="#000000" stroke-width="0.75" stroke-miterlimit="10" points="-506.6,552.6 -508.8,552.6 -510.5,554.1 
			-510.5,555.6 -504.9,555.6 -504.9,554.1 		"/>
		<polygon stroke="#000000" stroke-width="0.75" stroke-miterlimit="10" points="-495.5,552.6 -497.6,552.6 -499.3,554.1 
			-499.3,555.6 -493.8,555.6 -493.8,554.1 		"/>
		<rect x="-520.1" y="538.7" stroke="#000000" stroke-width="0.75" stroke-miterlimit="10" width="28.8" height="2"/>
		<rect x="-508.4" y="533.4" stroke="#000000" stroke-width="0.75" stroke-miterlimit="10" width="1.5" height="20.2"/>
		<rect x="-497.3" y="542" stroke="#000000" stroke-width="0.75" stroke-miterlimit="10" width="1.5" height="11.4"/>
		<polygon stroke="#000000" stroke-width="0.75" stroke-miterlimit="10" points="-493.3,540.4 -507.6,534 -517.5,540.3 -518.3,539 
			-507.7,532.2 -492.7,539 		"/>
		
			<rect x="-502.9" y="539.1" transform="matrix(0.4299 -0.9029 0.9029 0.4299 -778.2825 -142.6624)" stroke="#000000" stroke-width="0.75" stroke-miterlimit="10" width="1.5" height="11.8"/>
		<rect x="-507.7" y="550" stroke="#000000" stroke-width="0.75" stroke-miterlimit="10" width="11.1" height="1.5"/>
		<rect x="-518.8" y="542.2" stroke="#000000" stroke-width="0.75" stroke-miterlimit="10" width="2.8" height="3.8"/>
	</g>
	<polygon stroke="#000000" stroke-width="0.75" stroke-miterlimit="10" points="-489.6,559.1 -489.6,559.7 -488.1,559.7 
		-488.1,559.6 -485.1,556 -477.6,556 -477.6,554.5 -485.8,554.5 	"/>
	<rect x="-471.8" y="562.7" stroke="#000000" stroke-width="0.75" stroke-miterlimit="10" width="1.5" height="11.4"/>
	<path d="M-471.7,560.1h1.2l0-2.9h-2.4v1h1.2c-0.1,0.2-0.2,0.4-0.3,0.6c-0.2,0.2-0.4,0.4-0.8,0.4c-0.4,0-0.7-0.2-1-0.5
		c-0.2-0.3-0.4-0.8-0.4-1.3c0-0.5,0.1-0.9,0.4-1.3c0.2-0.3,0.5-0.5,1-0.5c0.3,0,0.6,0.1,0.7,0.3c0.2,0.2,0.3,0.4,0.3,0.5l0,0.1
		l1.2,0l0-0.2c-0.1-0.4-0.3-0.8-0.7-1.2c-0.4-0.4-0.9-0.6-1.7-0.6c-0.8,0-1.4,0.3-1.8,0.8c-0.4,0.5-0.7,1.2-0.7,2
		c0,0.8,0.2,1.5,0.7,2c0.5,0.5,1.1,0.8,1.8,0.8c0.3,0,0.6-0.1,0.9-0.2c0.1-0.1,0.2-0.1,0.3-0.2L-471.7,560.1z"/>
	<g>
		<path stroke="#000000" stroke-width="0.75" stroke-miterlimit="10" d="M-498.5,576.2c-1.5,0-2.7-1.2-2.7-2.7
			c0-1.5,1.2-2.7,2.7-2.7c1.5,0,2.7,1.2,2.7,2.7C-495.8,575-497,576.2-498.5,576.2z M-498.5,572.3c-0.7,0-1.2,0.6-1.2,1.2
			c0,0.7,0.6,1.2,1.2,1.2c0.7,0,1.2-0.6,1.2-1.2C-497.2,572.8-497.8,572.3-498.5,572.3z"/>
		<path stroke="#000000" stroke-width="0.75" stroke-miterlimit="10" d="M-482.6,576.2c-1.5,0-2.7-1.2-2.7-2.7
			c0-1.5,1.2-2.7,2.7-2.7s2.7,1.2,2.7,2.7C-479.9,575-481.1,576.2-482.6,576.2z M-482.6,572.3c-0.7,0-1.2,0.6-1.2,1.2
			c0,0.7,0.6,1.2,1.2,1.2c0.7,0,1.2-0.6,1.2-1.2C-481.4,572.8-481.9,572.3-482.6,572.3z"/>
		<polygon stroke="#000000" stroke-width="0.75" stroke-miterlimit="10" points="-484.6,574.3 -493.8,574.3 -493.8,559.9 
			-501.4,559.9 -503.2,565 -503.2,573.3 -504.7,573.3 -504.7,564.7 -502.5,558.4 -492.3,558.4 -492.3,572.8 -484.6,572.8 		"/>
		<polygon stroke="#000000" stroke-width="0.75" stroke-miterlimit="10" points="-495.3,567.3 -500,567.3 -500,565.8 -496.8,565.8 
			-496.8,562.6 -495.3,562.6 		"/>
		<rect x="-503.7" y="571.8" stroke="#000000" stroke-width="0.75" stroke-miterlimit="10" width="1.5" height="1.5"/>
		<polygon stroke="#000000" stroke-width="0.75" stroke-miterlimit="10" points="-476.9,574.3 -480.6,574.3 -480.6,572.8 
			-478.4,572.8 -478.4,569.6 -493,569.6 -493,568.1 -476.9,568.1 		"/>
	</g>
	<rect x="-490.6" y="563.1" width="1.2" height="3.2"/>
	<rect x="-486.2" y="563.1" width="1.2" height="3.2"/>
	<rect x="-481.7" y="563.1" width="1.2" height="3.2"/>
	<rect x="-492.6" y="561.3" fill="none" stroke="#000000" stroke-width="2" stroke-miterlimit="10" width="15.5" height="6.5"/>
	<polygon fill="#E60412" points="-470.2,540.8 -473.6,537.4 -473.6,539.3 -484.1,539.3 -484.1,542.3 -473.6,542.3 -473.6,544.2 	"/>
	<polygon fill="#207DC2" points="-484.1,547.8 -480.7,551.2 -480.7,549.3 -470.2,549.3 -470.2,546.3 -480.7,546.3 -480.7,544.4 	"/>
</g>
<g>
	<polygon fill="#E60412" points="-477.8,392.7 -481.2,389.3 -481.2,391.2 -491.7,391.2 -491.7,394.2 -481.2,394.2 -481.2,396.1 	"/>
	<polygon fill="#207DC2" points="-491.7,399.7 -488.3,403.1 -488.3,401.2 -477.8,401.2 -477.8,398.2 -488.3,398.2 -488.3,396.3 	"/>
	<polygon points="-496.6,391 -496.6,401 -494.5,401 -494.5,391.7 -490.1,386.5 -476.4,386.5 -474.8,384.3 -491.1,384.3 	"/>
	<path d="M-470.7,392.5h1.7l0-4.2h-3.5v1.5h1.7c-0.1,0.3-0.3,0.6-0.5,0.9c-0.3,0.4-0.6,0.5-1.2,0.5c-0.6,0-1.1-0.2-1.4-0.7
		c-0.3-0.5-0.5-1.1-0.5-1.9c0-0.7,0.2-1.4,0.5-1.8c0.3-0.5,0.8-0.7,1.4-0.7c0.5,0,0.8,0.1,1.1,0.4c0.3,0.3,0.4,0.5,0.5,0.8l0,0.1
		l1.8,0l0-0.2c-0.1-0.5-0.4-1.1-1-1.7c-0.5-0.6-1.4-0.9-2.4-0.9c-1.1,0-2,0.4-2.6,1.1c-0.6,0.8-1,1.7-1,2.9c0,1.2,0.3,2.2,1,2.9
		c0.7,0.8,1.5,1.2,2.6,1.2c0.5,0,0.9-0.1,1.3-0.3c0.2-0.1,0.3-0.2,0.5-0.3L-470.7,392.5z"/>
	<g>
		<path d="M-509.4,415.7c-2.2,0-3.9-1.8-3.9-3.9c0-2.2,1.8-3.9,3.9-3.9c2.2,0,3.9,1.8,3.9,3.9C-505.5,414-507.2,415.7-509.4,415.7z
			 M-509.4,410c-1,0-1.8,0.8-1.8,1.8c0,1,0.8,1.8,1.8,1.8c1,0,1.8-0.8,1.8-1.8C-507.6,410.8-508.4,410-509.4,410z"/>
		<path d="M-486.5,415.7c-2.2,0-3.9-1.8-3.9-3.9c0-2.2,1.8-3.9,3.9-3.9c2.2,0,3.9,1.8,3.9,3.9C-482.6,414-484.4,415.7-486.5,415.7z
			 M-486.5,410c-1,0-1.8,0.8-1.8,1.8c0,1,0.8,1.8,1.8,1.8c1,0,1.8-0.8,1.8-1.8C-484.7,410.8-485.5,410-486.5,410z"/>
		<polygon points="-489.4,412.9 -502.6,412.9 -502.6,392.1 -513.6,392.1 -516.2,399.5 -516.2,411.4 -518.3,411.4 -518.3,399.1 
			-515.2,390 -500.5,390 -500.5,410.7 -489.4,410.7 		"/>
		<polygon points="-504.8,402.9 -511.5,402.9 -511.5,400.7 -506.9,400.7 -506.9,396.1 -504.8,396.1 		"/>
		<rect x="-516.9" y="409.3" width="2.1" height="2.1"/>
		<polygon points="-478.3,412.9 -483.7,412.9 -483.7,410.7 -480.5,410.7 -480.5,406.1 -501.5,406.1 -501.5,403.9 -478.3,403.9 		"/>
	</g>
	<path d="M-468.5,398.2c0,1-0.8,1.8-1.8,1.8s-1.8-0.8-1.8-1.8c0-1,0.8-1.8,1.8-1.8S-468.5,397.2-468.5,398.2z"/>
	<path d="M-465.7,412.6v-7.2c0-2.3-1.9-4.1-4.1-4.1h-0.9c-2.3,0-4.1,1.9-4.1,4.1v7.2h6.1"/>
</g>
</svg>
