<?xml version="1.0" encoding="utf-8"?>
<!-- Generator: Adobe Illustrator 22.0.1, SVG Export Plug-In . SVG Version: 6.00 Build 0)  -->
<svg version="1.2" baseProfile="tiny" id="레이어_1"
	 xmlns="http://www.w3.org/2000/svg" xmlns:xlink="http://www.w3.org/1999/xlink" x="0px" y="0px" viewBox="0 0 64 64"
	 xml:space="preserve">
<rect x="-137.9" y="-104.6" fill="none" stroke="#000000" stroke-miterlimit="10" width="64" height="64"/>
<rect x="-137.9" y="-104.6" fill="none" stroke="#000000" stroke-miterlimit="10" width="64" height="64"/>
<rect x="-137.9" y="-104.6" fill="none" stroke="#000000" stroke-miterlimit="10" width="64" height="64"/>
<rect x="-137.9" y="-104.6" fill="none" stroke="#000000" stroke-miterlimit="10" width="64" height="64"/>
<g>
	<path fill="#ffffff" d="M32,8.5c-5.8,0-11.2,2.1-15.3,5.7c-0.8,0.7-1.5,1.3-2.2,2.1C10.8,20.4,8.5,26,8.5,32
		C8.5,45,19,55.5,32,55.5c5.8,0,11.2-2.1,15.3-5.7c0.8-0.7,1.5-1.3,2.2-2.1c3.8-4.2,6.1-9.7,6.1-15.7C55.5,19,45,8.5,32,8.5z
		 M32,52.5c-11.3,0-20.5-9.2-20.5-20.5c0-5.2,2-9.9,5.2-13.6l28.5,29.2C41.6,50.7,37,52.5,32,52.5z M47.3,45.6L18.8,16.3
		c3.6-3,8.2-4.8,13.2-4.8c11.3,0,20.5,9.2,20.5,20.5C52.5,37.2,50.5,41.9,47.3,45.6z"/>
</g>
<g>
	<path fill="#050000" d="M-217.5,217.5h35v-45h-35V217.5z M-214.5,175.5h29v39h-29V175.5z"/>
	<polygon fill="#050000" points="-213,166.6 -213,169.6 -179.5,169.6 -179.5,214.1 -176.5,214.1 -176.5,166.6 	"/>
	<rect x="-211" y="179.6" fill="#050000" width="9" height="3"/>
	<rect x="-211" y="186.6" fill="#050000" width="9" height="3"/>
	<rect x="-211" y="193.6" fill="#050000" width="9" height="3"/>
	<rect x="-211" y="200.6" fill="#050000" width="9" height="3"/>
	<rect x="-211" y="207.6" fill="#050000" width="9" height="3"/>
	<polygon fill="#050000" points="-194.5,185.5 -197,183 -199.1,185.1 -194.5,189.6 -187,182.1 -189.1,180 	"/>
	<polygon fill="#050000" points="-194.5,193.5 -197,191 -199.1,193.1 -194.5,197.6 -187,190.1 -189.1,188 	"/>
	<polygon fill="#050000" points="-190.1,201 -193,203.9 -196,201 -198.1,203.1 -195.1,206 -198.1,209 -196,211.1 -193,208.2 
		-190.1,211.1 -188,209 -190.9,206 -188,203.1 	"/>
</g>
<g>
	<g>
		<path fill="#040000" d="M-287,213.1c-1.7,0-3.5-0.3-5.1-0.9l-1.1-0.4l1.2-3.6l2.2,0.7l-0.5,1.4c1.1,0.3,2.2,0.4,3.3,0.4l0.2-2.8
			l5.1-1l1,2c1-0.6,1.9-1.3,2.6-2.1l-1.8-2l2.9-4.3l2.1,0.7c0.3-1.1,0.4-2.1,0.4-3.2c0,0,0-0.1,0-0.1l-2.6-0.2l-1-5.1l1.9-1
			c-0.6-1-1.2-1.8-2-2.6l-1.9,1.7l-4.3-2.9l0.7-2.1c-1.1-0.3-2.2-0.5-3.3-0.5l-0.2,2.6l-5.1,1l-1-2c-1,0.6-1.9,1.2-2.7,2l1.8,2
			l-2.9,4.3l-2.2-0.7c-0.3,1.1-0.5,2.2-0.5,3.3l2.8,0.2l1,5.1l-3.2,1.6l-1.1-2.1l1.6-0.8l-0.3-1.5l-3-0.2l-0.1-1
			c0-0.4-0.1-0.8-0.1-1.2c0-1.8,0.3-3.6,1-5.3l0.4-1.1l2.7,0.9l0.9-1.3l-2-2.2l0.7-0.8c1.4-1.7,3.2-3,5.2-3.9l1-0.5l1.2,2.5l1.5-0.3
			l0.2-2.9l1-0.1c2.1-0.2,4.3,0.1,6.4,0.9l1.1,0.4l-0.9,2.6l1.3,0.9l2.2-1.9l0.8,0.7c1.7,1.4,3,3.2,3.9,5.1l0.5,1l-2.4,1.2l0.3,1.5
			l2.9,0.2l0.1,1c0,0.4,0.1,0.9,0.1,1.3c0,1.7-0.3,3.4-0.9,5.1l-0.4,1.1l-2.6-0.9l-0.9,1.3l1.9,2.2l-0.6,0.8c-1.4,1.7-3.1,3-5.1,4
			l-1,0.5l-1.3-2.5l-1.5,0.3l-0.2,3l-1,0.1C-286.1,213.1-286.6,213.1-287,213.1z"/>
		<path fill="#040000" d="M-287,205.2c-3.9,0-7.1-3.2-7.1-7.1c0-3.9,3.2-7.1,7.1-7.1c3.9,0,7.1,3.2,7.1,7.1
			C-279.9,202-283.1,205.2-287,205.2z M-287,193.4c-2.6,0-4.7,2.1-4.7,4.7c0,2.6,2.1,4.7,4.7,4.7c2.6,0,4.7-2.1,4.7-4.7
			C-282.3,195.5-284.4,193.4-287,193.4z"/>
	</g>
	<g>
		<polygon fill="none" points="-281,174 -281.8,170.9 -284.9,170.1 -287.1,172.3 -286.3,175.4 -283.2,176.2 		"/>
		<path fill="#050000" d="M-263.5,198.2l-1.6-1.6c-0.6,2.1,0,4.5,1.6,6.1c2,2,5.1,2.4,7.5,1.1l-4.6-4.6l2.6-2.6l4.6,4.6
			c1.3-2.4,0.9-5.5-1.1-7.5c-1.7-1.7-4-2.2-6.1-1.6l1.6,1.6L-263.5,198.2z"/>
		<path fill="#050000" d="M-282.4,179.3l-1-1l4.5-4.5l1,1c0.6-2.1,0-4.5-1.6-6.1c-2.5-2.5-6.5-2.5-9,0c-2.5,2.5-2.5,6.5,0,9
			C-286.9,179.3-284.5,179.8-282.4,179.3z M-287.1,172.3l2.2-2.2l3,0.8l0.8,3l-2.2,2.2l-3-0.8L-287.1,172.3z"/>
		<path fill="#050000" d="M-281.1,178.8c-0.4,0.2-0.9,0.4-1.4,0.5l17.3,17.3c0.1-0.5,0.3-0.9,0.5-1.4L-281.1,178.8z"/>
		<path fill="#050000" d="M-262,192.6c0.4-0.2,0.9-0.4,1.4-0.5l-17.3-17.3c-0.1,0.5-0.3,0.9-0.5,1.4L-262,192.6z"/>
		<path fill="#050000" d="M-283.4,178.3l1,1c0.5-0.1,0.9-0.3,1.4-0.5l16.5,16.5c-0.2,0.4-0.4,0.9-0.5,1.4l1.6,1.6l4.5-4.5l-1.6-1.6
			c-0.5,0.1-0.9,0.3-1.4,0.5l-16.5-16.5c0.2-0.4,0.4-0.9,0.5-1.4l-1-1L-283.4,178.3z"/>
	</g>
</g>
</svg>
