<?xml version="1.0" encoding="utf-8"?>
<!-- Generator: Adobe Illustrator 22.0.1, SVG Export Plug-In . SVG Version: 6.00 Build 0)  -->
<svg version="1.1" baseProfile="tiny" id="레이어_1"
	 xmlns="http://www.w3.org/2000/svg" xmlns:xlink="http://www.w3.org/1999/xlink" x="0px" y="0px" viewBox="0 0 64 64"
	 xml:space="preserve">
<g>
	<path fill="none" d="M708.2,825.5l-2.8-2.7l2.2-2.2l-0.6-0.6l4.1-4.2v-12.5h-18.9v25.4H711V824l-0.7-0.7L708.2,825.5z M705.6,826.6
		l-1.1-1l1.8-1.8l1.1,1L705.6,826.6z"/>
	<polygon fill="none" points="711,821.4 711,818.4 709.5,819.9 	"/>
	<polygon fill="none" points="722.4,809.9 720.8,808.4 712.9,816.4 712.9,819.6 	"/>
	
		<rect x="707.6" y="822" transform="matrix(0.6992 -0.7149 0.7149 0.6992 -374.9573 753.8705)" fill="none" width="1.6" height="0.9"/>
	<polygon fill="#040000" points="707.5,820.6 708.7,819.4 711,821.6 711,821.4 709.5,819.9 711,818.4 711,815.7 706.9,819.9 	"/>
	<polygon fill="#040000" points="710.3,823.3 711,824 711,822.6 	"/>
	
		<rect x="708.9" y="821.4" transform="matrix(0.6992 -0.7149 0.7149 0.6992 -374.3165 754.1118)" fill="#040000" width="0.2" height="0.9"/>
	<polygon fill="#040000" points="720.8,808.4 722.4,809.9 712.9,819.6 712.9,822.2 725,809.9 720.8,805.8 712.9,813.8 712.9,816.4 	
		"/>
	<polygon fill="#040000" points="708.2,823.4 707.5,822.8 708.6,821.6 707.5,820.6 705.4,822.8 708.2,825.5 710.3,823.3 
		709.3,822.3 	"/>
	<polygon fill="#040000" points="707.5,820.6 708.6,821.6 708.7,821.5 709.4,822.1 709.3,822.3 710.3,823.3 711,822.6 711,821.6 
		708.7,819.4 	"/>
	
		<rect x="704.6" y="824.4" transform="matrix(0.6992 -0.715 0.715 0.6992 -377.5812 752.9448)" fill="#040000" width="2.6" height="1.5"/>
	<polygon fill="#050000" points="711.1,824.1 711,824 711,828.6 692.1,828.6 692.1,803.2 711,803.2 711,815.7 712.9,813.8 
		712.9,801.3 690.2,801.3 690.2,830.6 712.9,830.6 712.9,822.2 	"/>
	<polygon fill="#050000" points="711,818.4 712.9,816.4 712.9,813.8 711,815.7 	"/>
	<polygon fill="#050000" points="711.1,821.4 711,821.4 711,821.6 711.5,822.1 711,822.6 711,824 711.1,824.1 712.9,822.2 
		712.9,819.6 	"/>
	<polygon fill="#050000" points="711.5,822.1 711,821.6 711,822.6 	"/>
	<rect x="694.4" y="805.9" fill="#050000" width="5.9" height="1.9"/>
	<rect x="694.4" y="810.4" fill="#050000" width="5.9" height="1.9"/>
	<rect x="694.4" y="815" fill="#050000" width="5.9" height="1.9"/>
	<rect x="694.4" y="819.5" fill="#050000" width="5.9" height="1.9"/>
	<rect x="694.4" y="824.1" fill="#050000" width="5.9" height="1.9"/>
	<polygon fill="#050000" points="705.1,809.7 703.5,808.1 702.2,809.4 705.1,812.4 710.1,807.5 708.7,806.1 	"/>
	<polygon fill="#050000" points="705.1,814.9 703.5,813.3 702.2,814.7 705.1,817.6 710.1,812.7 708.7,811.3 	"/>
	<rect x="657.4" y="778.1" fill="#040000" width="5.8" height="5.8"/>
	<rect x="665.5" y="778.1" fill="#040000" width="5.8" height="5.8"/>
	<rect x="673.6" y="778.1" fill="#040000" width="5.8" height="5.8"/>
	<rect x="689.7" y="778.1" fill="#040000" width="5.8" height="5.8"/>
	<rect x="697.8" y="778.1" fill="#040000" width="5.8" height="5.8"/>
	<rect x="657.4" y="786.2" fill="#040000" width="5.8" height="5.8"/>
	<rect x="665.5" y="786.2" fill="#040000" width="5.8" height="5.8"/>
	<rect x="673.6" y="786.2" fill="#040000" width="5.8" height="5.8"/>
	<rect x="689.7" y="786.2" fill="#040000" width="5.8" height="5.8"/>
	<rect x="697.8" y="786.2" fill="#040000" width="5.8" height="5.8"/>
	<rect x="657.4" y="801.2" fill="#040000" width="5.8" height="5.8"/>
	<rect x="665.5" y="801.2" fill="#040000" width="5.8" height="5.8"/>
	<rect x="673.6" y="801.2" fill="#040000" width="5.8" height="5.8"/>
	<rect x="665.5" y="810.4" fill="#040000" width="5.8" height="5.8"/>
	<rect x="673.6" y="810.4" fill="#040000" width="5.8" height="5.8"/>
	<rect x="673.6" y="818.5" fill="#040000" width="5.8" height="5.8"/>
	<rect x="681.7" y="778.1" fill="#040000" width="5.8" height="5.8"/>
	<rect x="681.7" y="786.2" fill="#040000" width="5.8" height="5.8"/>
	<rect x="681.7" y="801.2" fill="#040000" width="5.8" height="5.8"/>
	<rect x="681.7" y="810.4" fill="#040000" width="5.8" height="5.8"/>
	<rect x="681.7" y="818.5" fill="#040000" width="5.8" height="5.8"/>
	<polygon fill="#040000" points="664.6,795.4 662.7,795.4 660.9,795.4 657.1,795.4 657.1,797.7 660.9,797.7 662.7,797.7 
		664.6,797.7 665.3,797.7 666.5,797.7 666.5,795.4 665.3,795.4 	"/>
	<polygon fill="#040000" points="677.1,795.4 675.2,795.4 673.3,795.4 669.6,795.4 669.6,797.7 673.3,797.7 675.2,797.7 
		677.1,797.7 677.8,797.7 679,797.7 679,795.4 677.8,795.4 	"/>
	<polygon fill="#040000" points="689.6,795.4 687.7,795.4 685.8,795.4 682.1,795.4 682.1,797.7 685.8,797.7 687.7,797.7 
		689.6,797.7 690.2,797.7 691.5,797.7 691.5,795.4 690.2,795.4 	"/>
	<polygon fill="#040000" points="702.1,795.4 700.2,795.4 698.3,795.4 694.6,795.4 694.6,797.7 698.3,797.7 700.2,797.7 
		702.1,797.7 702.7,797.7 703.9,797.7 703.9,795.4 702.7,795.4 	"/>
</g>
<g>
	<path d="M366.6-9.6c-0.4-0.1-0.9-0.4-1.5-0.8s-1-0.8-1.3-1.2c-0.2,0.5-0.6,0.9-1.1,1.3c-0.5,0.4-1.1,0.7-1.7,1l-0.8-0.8
		c1.1-0.5,1.9-1,2.3-1.6c0.4-0.6,0.6-1.2,0.6-1.9v-0.3h-2.2v-1h5.8v1h-2.2v0.3c0,0.6,0.2,1.2,0.7,1.8c0.4,0.6,1.2,1,2.1,1.3
		L366.6-9.6z M368.3-5v-2.6h-6.4v-1h7.6V-5H368.3z M369.5-12v2.7h-1.2v-6.3h1.2v2.5h1.5v1.1H369.5z"/>
	<path d="M379.5-13.4v-2.2h1.2v5.6h-1.2v-2.4h-2.3c-0.1,0.6-0.5,1.1-1,1.5c-0.5,0.4-1.1,0.6-1.8,0.6c-0.7,0-1.4-0.2-2-0.7
		c-0.6-0.5-0.9-1-0.9-1.8c0-0.7,0.3-1.3,0.9-1.8c0.6-0.4,1.2-0.7,2-0.7c0.6,0,1.2,0.2,1.8,0.5c0.5,0.3,0.9,0.8,1,1.4H379.5z
		 M375.6-13.8c-0.3-0.3-0.7-0.4-1.1-0.4s-0.8,0.1-1.1,0.4c-0.3,0.3-0.5,0.6-0.5,1c0,0.4,0.2,0.7,0.5,1c0.3,0.3,0.7,0.4,1.1,0.4
		s0.8-0.1,1.1-0.4c0.3-0.3,0.5-0.6,0.5-1C376-13.2,375.9-13.5,375.6-13.8z M373.2-5.1v-4.3h1.2v1.1h5.2v-1.1h1.2v4.3H373.2z
		 M379.5-7.3h-5.2v1.2h5.2V-7.3z"/>
	<path d="M391-7.4c-0.4,0-0.9,0.1-1.6,0.1l-2.1,0v-6.9h3.8v1h-2.6v4.8l1.4,0c0.4,0,0.7,0,1.1-0.1c0.4,0,0.6-0.1,0.8-0.1v1
		C391.6-7.5,391.3-7.5,391-7.4z M394.9-5v-5.5h-1.4v5h-1.2v-9.8h1.2v3.7h1.4v-4h1.2V-5H394.9z"/>
	<path d="M402.4-10.2c-0.8,1.5-2,2.6-3.7,3.4l-0.9-0.7c1.6-0.7,2.7-1.7,3.3-2.8c0.7-1.2,1-2.2,1.1-3h-3.8v-1h5.2
		C403.6-13.1,403.2-11.8,402.4-10.2z M405.9-5v-10.6h1.2V-5H405.9z"/>
	<path d="M416.9-14.2v-1.3h1.2v5.6h-1.2v-1.3h-2.8c-0.3,0.3-0.6,0.5-1,0.7c-0.4,0.2-0.8,0.3-1.3,0.3c-0.7,0-1.4-0.2-2-0.7
		c-0.6-0.5-0.9-1-0.9-1.8c0-0.7,0.3-1.3,0.9-1.8s1.2-0.7,2-0.7c0.5,0,0.9,0.1,1.3,0.3c0.4,0.2,0.7,0.4,1,0.7H416.9z M413-13.8
		c-0.3-0.3-0.7-0.4-1.1-0.4s-0.8,0.1-1.1,0.4c-0.3,0.3-0.5,0.6-0.5,1c0,0.4,0.2,0.7,0.5,1c0.3,0.3,0.7,0.4,1.1,0.4s0.8-0.1,1.1-0.4
		c0.3-0.3,0.5-0.6,0.5-1C413.5-13.2,413.3-13.5,413-13.8z M410.6-5.1v-2.6h6.3v-0.9h-6.3v-0.9h7.6v2.7h-6.3V-6h6.5v0.9H410.6z
		 M416.9-12.3v-1h-2.3c0,0.1,0,0.2,0,0.2s0,0.2,0,0.2c0,0.1,0,0.2,0,0.3s0,0.2,0,0.3H416.9z"/>
	<path d="M430.2-10.3c-0.4-0.1-0.9-0.4-1.5-0.8c-0.6-0.4-1-0.8-1.3-1.3c-0.2,0.5-0.5,0.9-1.1,1.3s-1.1,0.8-1.7,1l-0.8-0.9
		c1.2-0.4,2-1,2.4-1.7s0.6-1.3,0.6-1.8v-0.9h1.3v0.9c0,0.4,0.2,0.9,0.5,1.5c0.4,0.6,1.1,1.1,2.3,1.6L430.2-10.3z M425.9-5.1v-2.6
		h6.2v-0.9h-6.2v-0.9h7.5v2.7h-6.2V-6h6.5v0.9H425.9z M432.3-10v-2.8H430v-1h2.2v-1.8h1.2v5.5H432.3z"/>
	<path d="M441.3-9.6c-0.4-0.1-0.9-0.4-1.4-0.7c-0.5-0.4-1-0.8-1.4-1.3c-0.2,0.5-0.6,0.9-1.2,1.4c-0.6,0.5-1.1,0.8-1.6,0.9l-0.8-0.8
		c1.3-0.5,2.1-1.1,2.5-1.8c0.3-0.7,0.5-1.2,0.5-1.6v-0.3h-2.2v-1h5.8v1h-2.2v0.3c0,0.4,0.2,0.9,0.5,1.6c0.3,0.6,1.1,1.1,2.3,1.5
		L441.3-9.6z M443.7-5.4c-0.7,0.4-1.7,0.6-3,0.6c-1.3,0-2.3-0.2-3-0.6c-0.7-0.4-1-0.9-1-1.5c0-0.6,0.3-1.1,1-1.5
		c0.7-0.4,1.7-0.6,3-0.6c1.3,0,2.3,0.2,3,0.6c0.7,0.4,1,0.9,1,1.5C444.8-6.3,444.4-5.8,443.7-5.4z M442.7-7.7
		c-0.5-0.2-1.1-0.3-1.9-0.3c-0.8,0-1.5,0.1-2,0.3S438-7.3,438-6.9c0,0.3,0.3,0.6,0.8,0.8c0.5,0.2,1.2,0.3,2,0.3
		c0.8,0,1.5-0.1,1.9-0.3c0.5-0.2,0.7-0.5,0.7-0.8C443.5-7.2,443.2-7.5,442.7-7.7z M443.4-9.2v-2.9h-2.1v-1h2.1v-2.4h1.2v6.4H443.4z"
		/>
	<path d="M345.8,9.9c-0.4-0.6-0.9-1.4-1.4-2.4c-0.5-1-0.7-2.1-0.7-3.4c0-1.3,0.2-2.5,0.7-3.4c0.5-1,0.9-1.8,1.4-2.4h0.9
		c-0.6,1.1-1.1,2.1-1.3,3s-0.4,1.9-0.4,2.8c0,0.9,0.1,1.8,0.4,2.8s0.7,2,1.3,3H345.8z"/>
	<path d="M354.3,0.9c0.7,0.8,1.1,1.9,1.1,3.2c0,0.7-0.1,1.3-0.3,1.8s-0.4,1-0.8,1.4l1.1,0.9L354.8,9l-1.2-1c-0.3,0.2-0.7,0.4-1,0.5
		c-0.4,0.1-0.8,0.2-1.2,0.2c-1.2,0-2.2-0.4-2.9-1.2c-0.7-0.8-1.1-1.9-1.1-3.3c0-1.3,0.4-2.4,1.1-3.2c0.7-0.8,1.7-1.2,2.9-1.2
		S353.6,0.1,354.3,0.9z M354,5.4c0.1-0.4,0.2-0.8,0.2-1.3c0-1-0.2-1.9-0.7-2.5c-0.5-0.6-1.2-0.9-2-0.9c-0.9,0-1.5,0.3-2,0.9
		c-0.5,0.6-0.7,1.5-0.7,2.5c0,1,0.2,1.9,0.7,2.5c0.5,0.7,1.1,1,2,1c0.2,0,0.5,0,0.7-0.1c0.2-0.1,0.5-0.2,0.7-0.3l-1.1-0.9l0.6-0.7
		l1.2,1C353.7,6.2,353.9,5.8,354,5.4z"/>
	<path d="M360.7,8.4V7.6c-0.2,0.3-0.5,0.5-0.8,0.7c-0.4,0.2-0.8,0.3-1.3,0.3c-0.5,0-1-0.2-1.5-0.6c-0.5-0.4-0.7-1-0.7-1.7V2.2h1.1
		v3.7c0,0.6,0.1,1,0.4,1.2c0.3,0.3,0.6,0.4,1.1,0.4c0.5,0,0.9-0.2,1.2-0.5c0.3-0.3,0.5-0.8,0.5-1.3V2.2h1.1v6.2H360.7z"/>
	<path d="M363.9,5.6c0,0.6,0.2,1.1,0.6,1.5s0.8,0.6,1.4,0.6c0.5,0,0.9-0.1,1.2-0.3c0.3-0.2,0.4-0.4,0.5-0.6h1.2
		c-0.1,0.4-0.4,0.8-0.9,1.2c-0.4,0.4-1.1,0.6-1.9,0.6c-0.9,0-1.6-0.3-2.2-0.9c-0.6-0.6-0.9-1.4-0.9-2.3c0-0.9,0.3-1.7,0.8-2.3
		c0.6-0.6,1.3-0.9,2.2-0.9c0.8,0,1.6,0.3,2.2,0.8c0.6,0.6,0.9,1.5,0.9,2.7H363.9z M367.8,4.8c0-0.6-0.2-1-0.6-1.4
		c-0.3-0.3-0.8-0.5-1.4-0.5c-0.5,0-1,0.2-1.3,0.5c-0.3,0.3-0.6,0.8-0.6,1.4H367.8z"/>
	<path d="M374.2,8.4V7.6c-0.2,0.3-0.5,0.5-0.8,0.7c-0.4,0.2-0.8,0.3-1.3,0.3c-0.5,0-1-0.2-1.5-0.6c-0.5-0.4-0.7-1-0.7-1.7V2.2h1.1
		v3.7c0,0.6,0.1,1,0.4,1.2c0.3,0.3,0.6,0.4,1.1,0.4c0.5,0,0.9-0.2,1.2-0.5c0.3-0.3,0.5-0.8,0.5-1.3V2.2h1.1v6.2H374.2z"/>
	<path d="M377.3,5.6c0,0.6,0.2,1.1,0.6,1.5c0.4,0.4,0.8,0.6,1.4,0.6c0.5,0,0.9-0.1,1.2-0.3c0.3-0.2,0.4-0.4,0.5-0.6h1.2
		c-0.1,0.4-0.4,0.8-0.9,1.2c-0.4,0.4-1.1,0.6-1.9,0.6c-0.9,0-1.6-0.3-2.2-0.9c-0.6-0.6-0.9-1.4-0.9-2.3c0-0.9,0.3-1.7,0.8-2.3
		c0.6-0.6,1.3-0.9,2.2-0.9c0.8,0,1.6,0.3,2.2,0.8c0.6,0.6,0.9,1.5,0.9,2.7H377.3z M381.2,4.8c0-0.6-0.2-1-0.6-1.4
		c-0.3-0.3-0.8-0.5-1.4-0.5c-0.5,0-1,0.2-1.3,0.5c-0.3,0.3-0.6,0.8-0.6,1.4H381.2z"/>
	<path d="M393.6,2.4c-0.1-0.4-0.4-0.8-0.8-1.1c-0.4-0.4-0.9-0.6-1.7-0.6c-0.8,0-1.5,0.3-2,0.9c-0.5,0.6-0.7,1.5-0.7,2.5
		c0,1.1,0.2,1.9,0.7,2.6c0.5,0.6,1.1,1,2,1c0.7,0,1.3-0.2,1.7-0.6c0.4-0.4,0.6-0.8,0.8-1.3l1.2,0c-0.2,0.6-0.5,1.3-1.1,1.9
		c-0.6,0.7-1.4,1-2.5,1c-1.2,0-2.2-0.4-2.9-1.2c-0.7-0.8-1-1.9-1-3.3c0-1.3,0.3-2.4,1-3.2c0.7-0.8,1.7-1.2,2.9-1.2
		c1.1,0,2,0.3,2.6,0.9s0.9,1.2,1.1,1.8H393.6z"/>
	<path d="M400.9,2.9c0.6,0.6,0.8,1.4,0.8,2.4s-0.3,1.7-0.8,2.4c-0.6,0.6-1.3,0.9-2.3,0.9s-1.7-0.3-2.3-0.9s-0.8-1.4-0.8-2.4
		s0.3-1.7,0.8-2.4s1.3-0.9,2.3-0.9S400.3,2.3,400.9,2.9z M400,7c0.4-0.4,0.6-1,0.6-1.8c0-0.7-0.2-1.3-0.6-1.7
		c-0.4-0.4-0.8-0.7-1.4-0.7c-0.6,0-1.1,0.2-1.5,0.7c-0.4,0.4-0.5,1-0.5,1.7c0,0.7,0.2,1.3,0.5,1.8c0.4,0.4,0.8,0.7,1.5,0.7
		C399.2,7.7,399.7,7.5,400,7z"/>
	<path d="M407,8.4V4.7c0-0.6-0.1-1-0.4-1.2c-0.2-0.2-0.6-0.4-1.1-0.4c-0.5,0-0.9,0.2-1.3,0.5s-0.5,0.8-0.5,1.3v3.5h-1.1V2.2h1.1v0.7
		c0.3-0.3,0.6-0.5,1-0.7c0.4-0.2,0.9-0.3,1.4-0.2c0.7,0.1,1.1,0.4,1.4,0.8c0.3,0.5,0.4,0.9,0.4,1.3v4.2H407z"/>
	<path d="M410.8,3.2v5.2h-1.1V3.2l-0.8,0V2.3l0.8,0V1.5c0-0.3,0-0.6,0.1-0.7c0-0.2,0.1-0.3,0.2-0.5c0.1-0.1,0.2-0.3,0.4-0.4
		c0.2-0.1,0.4-0.1,0.6-0.1h0.8v0.9c-0.1,0-0.2,0-0.3,0c-0.1,0-0.3,0-0.4,0.1c-0.1,0.1-0.2,0.2-0.2,0.3c0,0.1,0,0.3,0,0.4v0.6l0.9,0
		v0.9H410.8z"/>
	<path d="M412.8,0.9v-1.1h1.1v1.1H412.8z M412.8,8.4V2.2h1.1v6.2H412.8z"/>
	<path d="M421,7.5c0,1-0.3,1.7-0.9,2.1c-0.6,0.4-1.3,0.6-2,0.6c-0.9,0-1.6-0.2-2.1-0.6s-0.8-0.9-0.8-1.4h1.1c0,0.3,0.2,0.5,0.5,0.8
		c0.3,0.2,0.8,0.3,1.4,0.3c0.6,0,1.1-0.1,1.4-0.4c0.3-0.3,0.4-0.7,0.4-1.2V6.9c-0.3,0.3-0.6,0.5-1,0.7c-0.4,0.2-0.7,0.2-1.1,0.2
		c-0.8,0-1.5-0.3-2.1-0.8c-0.6-0.6-0.9-1.3-0.9-2.1s0.3-1.6,0.8-2.1c0.6-0.5,1.3-0.8,2.1-0.8c0.4,0,0.8,0.1,1.1,0.2s0.7,0.4,1,0.7
		V2.2h1.1V7.5z M419.5,6.4c0.4-0.3,0.6-0.8,0.6-1.5c0-0.7-0.2-1.2-0.6-1.5c-0.4-0.3-0.8-0.5-1.4-0.5c-0.6,0-1.1,0.2-1.4,0.5
		c-0.4,0.3-0.5,0.8-0.5,1.5c0,0.7,0.2,1.2,0.5,1.5c0.4,0.3,0.8,0.5,1.4,0.5C418.6,6.9,419.1,6.7,419.5,6.4z"/>
	<path d="M426.8,8.4V7.6c-0.2,0.3-0.5,0.5-0.8,0.7s-0.8,0.3-1.3,0.3c-0.5,0-1-0.2-1.5-0.6s-0.7-1-0.7-1.7V2.2h1.1v3.7
		c0,0.6,0.1,1,0.4,1.2c0.3,0.3,0.6,0.4,1.1,0.4c0.5,0,0.9-0.2,1.2-0.5c0.3-0.3,0.5-0.8,0.5-1.3V2.2h1.1v6.2H426.8z"/>
	<path d="M432.6,3.1c-0.2,0-0.4,0-0.6,0c-0.2,0-0.3,0.1-0.5,0.1c-0.4,0.2-0.6,0.4-0.8,0.8c-0.2,0.3-0.3,0.8-0.3,1.4v2.9h-1.1V2.2
		h1.1v0.9l0.1,0c0.1-0.2,0.3-0.4,0.5-0.6c0.2-0.1,0.4-0.3,0.6-0.4c0.2-0.1,0.4-0.1,0.6-0.1c0.2,0,0.3,0,0.3,0V3.1z"/>
	<path d="M437.5,8.4c-0.1-0.1-0.1-0.3-0.2-0.4c0-0.2,0-0.3-0.1-0.5c-0.2,0.3-0.6,0.5-1,0.7s-0.8,0.3-1.3,0.4c-0.6,0-1.2-0.1-1.6-0.3
		s-0.7-0.7-0.8-1.2c-0.1-0.6,0-1,0.3-1.3c0.3-0.3,0.7-0.5,1.1-0.7c0.4-0.1,0.8-0.2,1.2-0.2c0.4,0,0.8-0.1,1.2-0.1
		c0.2,0,0.4-0.1,0.6-0.2c0.2-0.1,0.3-0.2,0.3-0.5c0-0.3-0.1-0.5-0.4-0.8s-0.7-0.4-1.2-0.4s-1,0.1-1.3,0.3c-0.3,0.2-0.4,0.5-0.3,0.8
		h-1.1c-0.1-0.7,0.2-1.2,0.7-1.5c0.6-0.4,1.2-0.5,2-0.5c0.7,0,1.3,0.2,1.9,0.5c0.6,0.4,0.8,0.9,0.8,1.5v3.4c0,0.3,0,0.5,0.1,0.7
		s0.1,0.3,0.1,0.3H437.5z M437.3,5.2c-0.1,0.1-0.2,0.1-0.3,0.2s-0.2,0.1-0.4,0.1c-0.2,0.1-0.6,0.1-1,0.1s-0.7,0.1-0.9,0.2
		c-0.4,0.1-0.6,0.3-0.8,0.4c-0.2,0.2-0.3,0.4-0.2,0.7c0,0.3,0.2,0.5,0.5,0.7c0.3,0.1,0.6,0.2,0.9,0.1c0.7,0,1.3-0.3,1.6-0.6
		c0.4-0.4,0.6-0.7,0.6-1V5.2z"/>
	<path d="M441.1,8.4c-0.2,0-0.4-0.1-0.6-0.2c-0.2-0.1-0.3-0.2-0.4-0.4c-0.1-0.1-0.2-0.3-0.2-0.4s-0.1-0.4-0.1-0.7V3.2h-0.8V2.3
		l0.8,0V0.3h1.1v1.9l0.9,0v0.9h-0.9v3.4c0,0.1,0,0.3,0,0.4s0.1,0.2,0.2,0.3c0.1,0.1,0.2,0.1,0.4,0.2c0.1,0,0.3,0,0.4,0l0,0.9H441.1z
		"/>
	<path d="M442.9,0.9v-1.1h1.1v1.1H442.9z M442.9,8.4V2.2h1.1v6.2H442.9z"/>
	<path d="M450.4,2.9c0.6,0.6,0.8,1.4,0.8,2.4s-0.3,1.7-0.8,2.4c-0.6,0.6-1.3,0.9-2.3,0.9c-1,0-1.7-0.3-2.3-0.9
		c-0.6-0.6-0.8-1.4-0.8-2.4s0.3-1.7,0.8-2.4c0.6-0.6,1.3-0.9,2.3-0.9C449.1,2,449.8,2.3,450.4,2.9z M449.5,7c0.4-0.4,0.6-1,0.6-1.8
		c0-0.7-0.2-1.3-0.6-1.7c-0.4-0.4-0.8-0.7-1.4-0.7c-0.6,0-1.1,0.2-1.5,0.7c-0.4,0.4-0.5,1-0.5,1.7c0,0.7,0.2,1.3,0.5,1.8
		c0.4,0.4,0.8,0.7,1.5,0.7C448.7,7.7,449.1,7.5,449.5,7z"/>
	<path d="M456.5,8.4V4.7c0-0.6-0.1-1-0.4-1.2c-0.2-0.2-0.6-0.4-1.1-0.4c-0.5,0-0.9,0.2-1.3,0.5c-0.3,0.3-0.5,0.8-0.5,1.3v3.5h-1.1
		V2.2h1.1v0.7c0.3-0.3,0.6-0.5,1-0.7s0.9-0.3,1.4-0.2c0.7,0.1,1.1,0.4,1.4,0.8s0.4,0.9,0.4,1.3v4.2H456.5z"/>
	<path d="M460,6.9c0.3-0.9,0.4-1.9,0.4-2.8c0-0.9-0.1-1.8-0.4-2.8s-0.7-2-1.4-3h0.9c0.4,0.6,0.9,1.4,1.4,2.4c0.5,1,0.7,2.1,0.7,3.4
		c0,1.3-0.2,2.5-0.7,3.4c-0.5,1-0.9,1.8-1.4,2.4h-0.9C459.3,8.9,459.7,7.8,460,6.9z"/>
</g>
<g>
	<path d="M334.5,131.6c-0.4-0.1-0.9-0.4-1.4-0.7c-0.5-0.4-1-0.8-1.4-1.3c-0.2,0.5-0.6,0.9-1.2,1.4c-0.6,0.5-1.1,0.8-1.6,0.9
		l-0.8-0.8c1.2-0.4,1.9-0.9,2.4-1.5c0.4-0.6,0.6-1.2,0.6-2h-2.2v-1h5.8v1h-2.2c0,0.7,0.2,1.4,0.7,1.9c0.4,0.5,1.2,0.9,2.2,1.2
		L334.5,131.6z M336.8,136c-0.7,0.4-1.7,0.6-3,0.6c-1.3,0-2.3-0.2-3-0.6s-1-0.9-1-1.5s0.3-1.1,1-1.5c0.7-0.4,1.7-0.6,3-0.6
		c1.3,0,2.3,0.2,3,0.6c0.7,0.4,1,0.9,1,1.5S337.4,135.7,336.8,136z M335.7,133.8c-0.5-0.2-1.1-0.3-1.9-0.3c-0.8,0-1.5,0.1-2,0.3
		c-0.5,0.2-0.7,0.5-0.7,0.8c0,0.3,0.2,0.6,0.7,0.8c0.5,0.2,1.1,0.3,2,0.3c0.8,0,1.4-0.1,1.9-0.3s0.7-0.5,0.7-0.8
		C336.5,134.3,336.2,134,335.7,133.8z M337.5,129.3v3h-1.2v-6.4h1.2v2.4h1.5v1.1H337.5z"/>
	<path d="M345.6,134.6c-0.3-0.2-0.8-0.5-1.4-1c-0.6-0.5-1-1-1.2-1.5c-0.2,0.5-0.6,1.1-1.1,1.6c-0.6,0.6-1.1,0.9-1.6,1.1l-0.9-0.9
		c1.3-0.6,2.2-1.4,2.5-2.2s0.5-1.4,0.5-1.8v-0.4H340v-1h6v1h-2.4v0.4c0,0.5,0.2,1.1,0.5,1.7s1.1,1.3,2.3,2L345.6,134.6z
		 M341.3,127.4v-1h3.4v1H341.3z M347.7,136.5v-10.6h1.2v10.6H347.7z"/>
	<path d="M356,132.9v3.6h-1.2v-3.6h-4.7v-1h10.6v1H356z M358.4,130c-0.7,0.4-1.7,0.7-3,0.7c-1.3,0-2.3-0.2-3-0.7
		c-0.7-0.4-1.1-1-1.1-1.7c0-0.7,0.4-1.2,1.1-1.7c0.7-0.4,1.7-0.7,3-0.7c1.3,0,2.3,0.2,3,0.7s1.1,1,1.1,1.7
		C359.5,129,359.2,129.5,358.4,130z M353.3,127.3c-0.5,0.3-0.8,0.6-0.8,1c0,0.4,0.3,0.7,0.8,1s1.2,0.4,2,0.4c0.8,0,1.5-0.1,2-0.4
		c0.5-0.3,0.8-0.6,0.8-1c0-0.4-0.3-0.8-0.8-1c-0.5-0.3-1.2-0.4-2-0.4C354.6,126.9,353.9,127,353.3,127.3z"/>
	<path d="M367.6,132.1c-0.5-0.2-1.1-0.6-1.6-1.1c-0.6-0.5-1-1-1.2-1.5c-0.2,0.6-0.6,1.1-1.1,1.6c-0.5,0.5-1.1,0.9-1.7,1.3l-0.8-0.8
		c1.5-0.7,2.3-1.5,2.6-2.4c0.3-0.9,0.4-1.6,0.4-2.1v-0.9h1.3v0.9c0,0.5,0.2,1.1,0.5,2s1.1,1.6,2.4,2.1L367.6,132.1z M363.4,136.2
		v-3.3h1.2v2.3h6.6v1H363.4z M369.7,133.5v-4.3h-2.2v-1.1h2.2v-2.3h1.2v7.6H369.7z"/>
	<path d="M378.2,132.1v2.2H377v-2.2h-4.8v-1h10.6v1H378.2z M376,129.4c-0.7,0.5-1.5,0.8-2.4,0.9l-0.7-0.8c1.7-0.3,2.8-0.8,3.3-1.6
		c0.5-0.7,0.7-1.3,0.7-1.7v-0.4h1.3v0.4c0,0.4,0.3,0.9,0.8,1.6c0.5,0.7,1.6,1.2,3.3,1.6l-0.7,0.8c-0.8-0.2-1.6-0.5-2.4-1
		c-0.8-0.5-1.3-1-1.5-1.6C377.2,128.4,376.7,128.9,376,129.4z M373.6,136.2v-3h1.2v2h6.9v1H373.6z"/>
	<path d="M389.6,132.6c-0.8,0.1-1.4,0.1-1.8,0.1v3.5h-1.2v-3.5h-2.9v-1h3.2c0.6,0,1.4,0,2.5-0.1c1.1-0.1,1.8-0.1,2.1-0.2v1
		C391,132.5,390.4,132.5,389.6,132.6z M389.4,126.8c0.5,0.5,0.8,1,0.8,1.6c0,0.6-0.3,1.1-0.8,1.6c-0.5,0.4-1.2,0.7-2,0.7
		c-0.8,0-1.5-0.2-2-0.7c-0.5-0.4-0.8-1-0.8-1.6c0-0.6,0.3-1.1,0.8-1.6s1.2-0.7,2-0.7C388.2,126.1,388.9,126.3,389.4,126.8z
		 M386.2,127.5c-0.3,0.3-0.4,0.6-0.4,0.9s0.1,0.6,0.4,0.9c0.3,0.3,0.7,0.4,1.2,0.4c0.5,0,0.9-0.1,1.2-0.4c0.3-0.3,0.4-0.6,0.4-0.9
		s-0.1-0.6-0.4-0.9c-0.3-0.3-0.7-0.4-1.2-0.4C386.8,127.1,386.4,127.2,386.2,127.5z M391.9,136.5v-10.6h1.2v10.6H391.9z"/>
	<path d="M396.6,137c-0.4-0.6-0.9-1.4-1.4-2.4c-0.5-1-0.7-2.1-0.7-3.4c0-1.3,0.2-2.5,0.7-3.4c0.5-1,0.9-1.8,1.4-2.4h0.9
		c-0.6,1.1-1.1,2.1-1.4,3c-0.3,0.9-0.4,1.9-0.4,2.8c0,0.9,0.1,1.8,0.4,2.8s0.7,2,1.4,3H396.6z"/>
	<path d="M404.4,132c0.3,0.4,0.4,0.9,0.3,1.4c-0.1,0.7-0.4,1.2-0.9,1.7c-0.5,0.5-1.3,0.7-2.4,0.7c-1.1,0-2-0.3-2.5-1
		c-0.5-0.7-0.8-1.4-0.9-2.1h1.2c0,0.7,0.3,1.2,0.7,1.6c0.4,0.4,0.9,0.6,1.6,0.6c0.6,0,1.1-0.1,1.5-0.4c0.3-0.3,0.5-0.6,0.6-1.1
		c0.1-0.3,0-0.6-0.2-0.8s-0.4-0.4-0.8-0.6c-0.4-0.2-0.8-0.3-1.2-0.3c-0.4,0-0.9-0.1-1.3-0.3c-0.6-0.2-1-0.5-1.3-0.8
		s-0.4-0.8-0.4-1.4c0-0.6,0.3-1.1,0.8-1.6s1.3-0.8,2.3-0.8c1.2,0,2,0.3,2.4,1c0.4,0.7,0.7,1.2,0.7,1.7l-1.2,0c0-0.5-0.2-0.9-0.5-1.2
		c-0.3-0.3-0.8-0.5-1.5-0.5c-0.6,0-1.1,0.2-1.4,0.5c-0.3,0.3-0.4,0.6-0.4,1c0,0.4,0.1,0.7,0.3,0.8s0.5,0.3,0.7,0.4
		c0.3,0.1,0.7,0.2,1.2,0.3c0.5,0.1,1,0.2,1.4,0.4S404.2,131.6,404.4,132z"/>
	<path d="M407.1,135.4c-0.2,0-0.4-0.1-0.6-0.2c-0.2-0.1-0.3-0.2-0.4-0.4c-0.1-0.1-0.2-0.3-0.2-0.4c0-0.2-0.1-0.4-0.1-0.7v-3.5H405
		v-0.9l0.8,0v-1.9h1.1v1.9l0.9,0v0.9h-0.9v3.4c0,0.1,0,0.3,0,0.4s0.1,0.2,0.2,0.3c0.1,0.1,0.2,0.1,0.4,0.2c0.1,0,0.3,0,0.4,0l0,0.9
		H407.1z"/>
	<path d="M413.2,135.5c-0.1-0.1-0.1-0.3-0.1-0.4s0-0.3-0.1-0.5c-0.2,0.3-0.6,0.5-1,0.7c-0.4,0.2-0.8,0.3-1.3,0.4
		c-0.6,0-1.2-0.1-1.6-0.3c-0.5-0.2-0.7-0.7-0.8-1.2c-0.1-0.6,0-1,0.3-1.3c0.3-0.3,0.7-0.5,1.1-0.7c0.4-0.1,0.8-0.2,1.2-0.2
		c0.4,0,0.8-0.1,1.2-0.1c0.2,0,0.4-0.1,0.6-0.2c0.2-0.1,0.3-0.2,0.3-0.5c0-0.3-0.1-0.5-0.4-0.8c-0.2-0.2-0.7-0.4-1.2-0.4
		c-0.6,0-1,0.1-1.3,0.3c-0.3,0.2-0.4,0.5-0.3,0.8h-1.1c-0.1-0.7,0.2-1.2,0.7-1.5c0.6-0.4,1.2-0.5,2-0.5c0.7,0,1.3,0.2,1.9,0.5
		c0.6,0.4,0.8,0.9,0.8,1.5v3.4c0,0.3,0,0.5,0.1,0.7s0.1,0.3,0.1,0.3H413.2z M413,132.2c-0.1,0.1-0.2,0.1-0.3,0.2
		c-0.1,0.1-0.2,0.1-0.4,0.1c-0.2,0.1-0.6,0.1-1,0.1c-0.4,0-0.7,0.1-0.9,0.2c-0.4,0.1-0.6,0.3-0.8,0.4s-0.3,0.4-0.2,0.7
		c0,0.3,0.2,0.5,0.5,0.7c0.3,0.1,0.6,0.2,0.9,0.1c0.7,0,1.3-0.3,1.6-0.6c0.4-0.4,0.6-0.7,0.6-1V132.2z"/>
	<path d="M421,133.5c-0.1,0.6-0.5,1.1-0.9,1.5c-0.5,0.4-1.1,0.7-2,0.7c-1,0-1.7-0.3-2.3-0.9c-0.6-0.6-0.8-1.4-0.8-2.4
		s0.3-1.7,0.8-2.4c0.6-0.6,1.3-0.9,2.3-0.9c0.8,0,1.5,0.2,2,0.7c0.5,0.5,0.8,1,0.9,1.5h-1.2c-0.1-0.3-0.2-0.5-0.5-0.8
		c-0.3-0.3-0.7-0.4-1.2-0.4c-0.6,0-1.1,0.2-1.4,0.7c-0.3,0.4-0.5,1-0.5,1.7s0.2,1.3,0.5,1.7c0.3,0.4,0.8,0.7,1.4,0.7
		c0.5,0,0.8-0.1,1.1-0.4c0.3-0.2,0.5-0.5,0.6-0.8H421z"/>
	<path d="M426.6,135.4l-2.6-3.1l-0.9,0.7v2.4H422v-8.5h1.1v4.9l2.8-2.6h1.4l-2.6,2.5l3.2,3.7H426.6z"/>
	<path d="M428.6,128v-1.1h1.1v1.1H428.6z M428.6,135.4v-6.2h1.1v6.2H428.6z"/>
	<path d="M435.5,135.4v-3.7c0-0.6-0.1-1-0.4-1.2s-0.6-0.4-1.1-0.4c-0.5,0-0.9,0.2-1.3,0.5s-0.5,0.8-0.5,1.3v3.5h-1.1v-6.2h1.1v0.7
		c0.3-0.3,0.6-0.5,1-0.7s0.9-0.3,1.4-0.2c0.7,0.1,1.1,0.4,1.4,0.8s0.4,0.9,0.4,1.3v4.2H435.5z"/>
	<path d="M443.7,134.5c0,1-0.3,1.7-0.9,2.1c-0.6,0.4-1.3,0.6-2,0.6c-0.9,0-1.6-0.2-2.1-0.6c-0.5-0.4-0.8-0.9-0.8-1.4h1.1
		c0,0.3,0.2,0.5,0.5,0.8c0.3,0.2,0.8,0.3,1.4,0.3c0.6,0,1.1-0.1,1.4-0.4c0.3-0.3,0.4-0.7,0.4-1.2v-0.6c-0.3,0.3-0.6,0.5-1,0.7
		c-0.4,0.2-0.7,0.2-1.1,0.2c-0.8,0-1.5-0.3-2.1-0.8c-0.6-0.6-0.9-1.3-0.9-2.1s0.3-1.6,0.8-2.1c0.6-0.5,1.3-0.8,2.1-0.8
		c0.4,0,0.8,0.1,1.1,0.2s0.7,0.4,1,0.7v-0.6h1.1V134.5z M442.2,133.4c0.4-0.3,0.6-0.8,0.6-1.5c0-0.7-0.2-1.2-0.6-1.5
		c-0.4-0.3-0.8-0.5-1.4-0.5c-0.6,0-1.1,0.2-1.4,0.5c-0.4,0.3-0.5,0.8-0.5,1.5c0,0.7,0.2,1.2,0.5,1.5c0.4,0.3,0.8,0.5,1.4,0.5
		C441.3,133.9,441.8,133.8,442.2,133.4z"/>
	<path d="M455,127.6c0.6,0.5,0.8,1.1,0.8,1.9c0,0.8-0.3,1.4-0.8,1.9c-0.6,0.5-1.2,0.7-2.1,0.7h-2.4v3.3h-1.1v-8.5h3.5
		C453.8,126.9,454.4,127.2,455,127.6z M454.1,130.7c0.4-0.3,0.5-0.7,0.5-1.2c0-0.6-0.2-1-0.5-1.2c-0.4-0.2-0.8-0.3-1.2-0.3h-2.4v3.1
		h2.4C453.4,131.1,453.8,130.9,454.1,130.7z"/>
	<path d="M460,130.2c-0.2,0-0.4,0-0.6,0c-0.2,0-0.3,0.1-0.5,0.1c-0.4,0.2-0.6,0.4-0.8,0.8c-0.2,0.3-0.3,0.8-0.3,1.4v2.9h-1.1v-6.1
		h1.1v0.9l0.1,0c0.1-0.2,0.3-0.4,0.5-0.6c0.2-0.1,0.4-0.3,0.6-0.4c0.2-0.1,0.4-0.1,0.6-0.1c0.2,0,0.3,0,0.3,0V130.2z"/>
	<path d="M460.9,128v-1.1h1.1v1.1H460.9z M460.9,135.4v-6.2h1.1v6.2H460.9z"/>
	<path d="M468.3,130c0.6,0.6,0.8,1.4,0.8,2.4s-0.3,1.7-0.8,2.4s-1.3,0.9-2.3,0.9c-1,0-1.7-0.3-2.3-0.9c-0.6-0.6-0.8-1.4-0.8-2.4
		s0.3-1.7,0.8-2.4c0.6-0.6,1.3-0.9,2.3-0.9C467,129,467.8,129.4,468.3,130z M467.5,134.1c0.4-0.4,0.6-1,0.6-1.8
		c0-0.7-0.2-1.3-0.6-1.7c-0.4-0.4-0.8-0.7-1.4-0.7c-0.6,0-1.1,0.2-1.5,0.7c-0.4,0.4-0.5,1-0.5,1.7c0,0.7,0.2,1.3,0.5,1.8
		s0.8,0.7,1.5,0.7C466.6,134.8,467.1,134.5,467.5,134.1z"/>
	<path d="M473.3,130.2c-0.2,0-0.4,0-0.6,0c-0.2,0-0.3,0.1-0.5,0.1c-0.4,0.2-0.6,0.4-0.8,0.8s-0.3,0.8-0.3,1.4v2.9h-1.1v-6.1h1.1v0.9
		l0.1,0c0.1-0.2,0.3-0.4,0.5-0.6c0.2-0.1,0.4-0.3,0.6-0.4c0.2-0.1,0.4-0.1,0.6-0.1s0.3,0,0.3,0V130.2z"/>
	<path d="M474.3,128v-1.1h1.1v1.1H474.3z M474.3,135.4v-6.2h1.1v6.2H474.3z"/>
	<path d="M478.2,135.4c-0.2,0-0.4-0.1-0.6-0.2c-0.2-0.1-0.3-0.2-0.4-0.4c-0.1-0.1-0.2-0.3-0.2-0.4s-0.1-0.4-0.1-0.7v-3.5h-0.8v-0.9
		l0.8,0v-1.9h1.1v1.9l0.9,0v0.9H478v3.4c0,0.1,0,0.3,0,0.4s0.1,0.2,0.2,0.3c0.1,0.1,0.2,0.1,0.4,0.2c0.1,0,0.3,0,0.4,0l0,0.9H478.2z
		"/>
	<path d="M482.8,136.1c-0.1,0.2-0.2,0.4-0.3,0.5c-0.1,0.1-0.3,0.3-0.4,0.4c-0.2,0.1-0.4,0.2-0.5,0.2c-0.2,0-0.4,0-0.5,0h-0.4v-0.9
		h0.6c0.2,0,0.3-0.1,0.4-0.2c0.1-0.1,0.2-0.2,0.3-0.3l0.3-0.6l-2.5-5.9l1.1,0l1.9,4.5l1.9-4.5h1.1L482.8,136.1z"/>
	<path d="M487.4,133.9c0.3-0.9,0.4-1.9,0.4-2.8c0-0.9-0.1-1.8-0.4-2.8c-0.3-0.9-0.7-2-1.4-3h0.9c0.4,0.6,0.9,1.4,1.4,2.4
		c0.5,1,0.7,2.1,0.7,3.4c0,1.3-0.2,2.5-0.7,3.4c-0.5,1-0.9,1.8-1.4,2.4h-0.9C486.7,135.9,487.1,134.9,487.4,133.9z"/>
	<path d="M378.8,148.8c-0.5-0.3-1-0.7-1.5-1.3c-0.6-0.6-0.9-1.1-1.1-1.7c-0.2,0.7-0.6,1.3-1.2,1.9s-1.1,1-1.6,1.4l-1-0.8
		c1.2-0.7,2-1.5,2.5-2.4c0.4-0.9,0.6-1.8,0.6-2.6v-0.8h-2.4v-1h6.1v1h-2.4v0.8c0,0.8,0.2,1.7,0.6,2.5s1.1,1.5,2.1,2.1L378.8,148.8z
		 M380.9,150.9v-10.6h1.2v10.6H380.9z"/>
	<path d="M383.2,149.3v-1h7.2c0.1-0.5,0.2-1.4,0.4-2.6s0.3-2.2,0.3-2.9h-6.9v-1h8.2c0,0.9-0.1,2-0.3,3.4c-0.2,1.4-0.4,2.5-0.6,3.2
		h2.1v1H383.2z"/>
	<path d="M394.9,142.6v-1h4.9v1H398v0.4c0,0.5,0.1,1.3,0.4,2.4c0.2,1,0.9,2,2,2.8l-0.9,0.8c-0.4-0.3-0.8-0.7-1.2-1.3
		c-0.5-0.6-0.8-1.1-0.9-1.6c-0.1,0.5-0.4,1.1-0.9,1.7c-0.4,0.6-0.9,1.1-1.3,1.5l-1-0.7c1.2-0.9,1.9-1.9,2.2-3s0.4-1.9,0.4-2.4v-0.4
		H394.9z M400.9,150.4v-5.2h-1.8v-1.1h1.8v-3.6h1.2v9.8H400.9z M403.2,150.9v-10.6h1.2v10.6H403.2z"/>
	<path d="M405.3,149.3v-1h7.2c0.1-0.5,0.2-1.4,0.4-2.6s0.3-2.2,0.3-2.9h-6.9v-1h8.2c0,0.9-0.1,2-0.3,3.4c-0.2,1.4-0.4,2.5-0.6,3.2
		h2.1v1H405.3z"/>
	<path d="M416.3,149.5v-1h4.7v-2.3h-3.2v-4.9h7.6v4.9h-3.2v2.3h4.7v1H416.3z M424.2,142.3H419v2.9h5.2V142.3z"/>
	<path d="M432.7,145c-0.5,0.5-1.2,0.8-2.1,0.8c-0.8,0-1.5-0.3-2.1-0.8c-0.6-0.5-0.8-1.1-0.8-1.8c0-0.7,0.3-1.3,0.8-1.8
		c0.6-0.5,1.3-0.8,2.1-0.8c0.9,0,1.6,0.3,2.1,0.8s0.8,1.1,0.8,1.8C433.5,143.9,433.2,144.5,432.7,145z M431.8,142.1
		c-0.3-0.3-0.7-0.5-1.2-0.5c-0.5,0-1,0.2-1.2,0.5c-0.3,0.3-0.4,0.7-0.4,1.1c0,0.4,0.1,0.8,0.4,1.1c0.3,0.3,0.7,0.5,1.2,0.5
		c0.5,0,1-0.2,1.2-0.5c0.3-0.3,0.4-0.7,0.4-1.1C432.3,142.8,432.1,142.4,431.8,142.1z M435.9,150.4c-0.7,0.4-1.7,0.6-3,0.6
		c-1.3,0-2.3-0.2-3-0.6c-0.7-0.4-1-0.9-1-1.5s0.3-1.1,1-1.5c0.7-0.4,1.7-0.6,3-0.6c1.3,0,2.3,0.2,3,0.6c0.7,0.4,1,0.9,1,1.5
		S436.5,150,435.9,150.4z M434.8,148c-0.5-0.2-1.1-0.3-1.9-0.3s-1.5,0.1-2,0.3s-0.7,0.5-0.7,0.9c0,0.3,0.2,0.6,0.7,0.9
		c0.5,0.2,1.1,0.4,2,0.4s1.5-0.1,1.9-0.3c0.5-0.2,0.7-0.5,0.7-0.9C435.5,148.6,435.3,148.3,434.8,148z M436.5,144.9v1.6h-1.2v-6.3
		h1.2v1.4h1.5v1h-1.5v1.2h1.5v1H436.5z"/>
	<path d="M439.4,141.2c0.5-0.6,1.3-0.9,2.4-0.9c0.9,0,1.7,0.3,2.3,0.9c0.6,0.6,0.8,1.3,0.6,2.1c-0.2,0.9-0.6,1.6-1.3,1.9
		s-1.1,0.9-1.1,1.8v1.2h-1.2V147c0-1,0.3-1.8,1-2.2c0.7-0.4,1.1-0.9,1.2-1.6c0.1-0.5,0-0.9-0.3-1.3c-0.3-0.4-0.8-0.6-1.4-0.6
		c-0.6,0-1.1,0.2-1.4,0.5c-0.3,0.4-0.4,0.8-0.4,1.3h-1.2C438.7,142.5,438.9,141.8,439.4,141.2z M442.6,149.3v1.5H441v-1.5H442.6z"/>
</g>
<g>
	<g>
		<path d="M428.3,81.5v-6.1h-1.8v-1.1c0.3,0,0.5,0,0.8-0.1c0.2-0.1,0.5-0.2,0.7-0.3c0.1-0.1,0.3-0.3,0.4-0.5
			c0.1-0.2,0.2-0.4,0.2-0.6h1v8.8H428.3z"/>
	</g>
	<g>
		<g>
			<path d="M411.7,62.4c0.5,0.5,0.7,1.2,0.7,1.8c0,0.7-0.2,1.3-0.6,1.7c-0.4,0.4-0.8,0.8-1.1,1l-1.5,1.1c-0.2,0.2-0.4,0.3-0.6,0.6
				c-0.2,0.2-0.4,0.5-0.5,0.8l4.3,0v1.1h-5.8c0-0.6,0.1-1.2,0.4-1.8c0.2-0.6,0.8-1.2,1.6-1.8l1.4-1c0.3-0.2,0.5-0.4,0.8-0.7
				c0.2-0.3,0.3-0.6,0.3-1c0-0.4-0.1-0.8-0.4-1.1c-0.2-0.3-0.6-0.4-1.1-0.4c-0.6,0-1,0.2-1.2,0.5c-0.2,0.4-0.4,0.7-0.4,1.2h-1.2
				c0-0.7,0.2-1.3,0.7-1.9c0.5-0.6,1.2-0.9,2.1-0.9C410.5,61.6,411.2,61.8,411.7,62.4z"/>
		</g>
	</g>
	<g>
		<g>
			<path d="M392.1,56.9c0.2,0.4,0.4,0.8,0.4,1.2c0,0.8-0.3,1.4-0.9,1.9c-0.6,0.5-1.3,0.8-2.2,0.8c-0.8,0-1.6-0.3-2.1-0.8
				c-0.6-0.6-0.8-1.2-0.8-2h1.2c0,0.4,0.1,0.8,0.4,1.1c0.3,0.3,0.7,0.5,1.3,0.5c0.5,0,0.9-0.2,1.2-0.5c0.3-0.3,0.4-0.7,0.4-1.1
				c0-0.3-0.1-0.6-0.3-0.9c-0.2-0.2-0.5-0.4-0.8-0.5c-0.2-0.1-0.4-0.1-0.6-0.1c-0.2,0-0.4,0-0.6,0v-1.1c0.2,0,0.4,0,0.6,0
				c0.2,0,0.4-0.1,0.5-0.1c0.3-0.1,0.5-0.3,0.6-0.5c0.1-0.2,0.2-0.5,0.2-0.8c0-0.3-0.1-0.6-0.4-0.9c-0.2-0.3-0.6-0.4-1.1-0.4
				c-0.5,0-0.9,0.2-1.1,0.5c-0.2,0.3-0.4,0.6-0.4,1h-1.2c0-0.8,0.2-1.4,0.8-1.9c0.5-0.5,1.2-0.7,1.9-0.7c0.8,0,1.4,0.2,1.9,0.7
				c0.5,0.5,0.8,1.1,0.8,1.7c0,0.5-0.1,0.9-0.3,1.2c-0.2,0.3-0.5,0.5-0.8,0.7C391.5,56.2,391.9,56.5,392.1,56.9z"/>
		</g>
	</g>
	<g>
		<rect x="382.5" y="95.9" fill="none" stroke="#040000" stroke-width="2.3717" stroke-miterlimit="10" width="15" height="6"/>
		<line fill="none" stroke="#000000" stroke-miterlimit="10" x1="386" y1="98.4" x2="386" y2="99.4"/>
		<line fill="none" stroke="#000000" stroke-miterlimit="10" x1="394" y1="98.4" x2="394" y2="99.4"/>
		<line fill="none" stroke="#000000" stroke-miterlimit="10" x1="390" y1="98.4" x2="390" y2="99.4"/>
		<rect x="402" y="95.9" fill="none" stroke="#040000" stroke-width="2.3717" stroke-miterlimit="10" width="15" height="6"/>
		<line fill="none" stroke="#000000" stroke-miterlimit="10" x1="405.5" y1="98.4" x2="405.5" y2="99.4"/>
		<line fill="none" stroke="#000000" stroke-miterlimit="10" x1="413.5" y1="98.4" x2="413.5" y2="99.4"/>
		<line fill="none" stroke="#000000" stroke-miterlimit="10" x1="409.5" y1="98.4" x2="409.5" y2="99.4"/>
		<rect x="421.5" y="95.9" fill="none" stroke="#040000" stroke-width="2.3717" stroke-miterlimit="10" width="15" height="6"/>
		<line fill="none" stroke="#000000" stroke-miterlimit="10" x1="425" y1="98.4" x2="425" y2="99.4"/>
		<line fill="none" stroke="#000000" stroke-miterlimit="10" x1="433" y1="98.4" x2="433" y2="99.4"/>
		<line fill="none" stroke="#000000" stroke-miterlimit="10" x1="429" y1="98.4" x2="429" y2="99.4"/>
		<rect x="382.5" y="85.9" fill="none" stroke="#040000" stroke-width="2.3717" stroke-miterlimit="10" width="15" height="6"/>
		<line fill="none" stroke="#000000" stroke-miterlimit="10" x1="386" y1="88.4" x2="386" y2="89.4"/>
		<line fill="none" stroke="#000000" stroke-miterlimit="10" x1="394" y1="88.4" x2="394" y2="89.4"/>
		<line fill="none" stroke="#000000" stroke-miterlimit="10" x1="390" y1="88.4" x2="390" y2="89.4"/>
		<rect x="402" y="85.9" fill="none" stroke="#040000" stroke-width="2.3717" stroke-miterlimit="10" width="15" height="6"/>
		<line fill="none" stroke="#000000" stroke-miterlimit="10" x1="405.5" y1="88.4" x2="405.5" y2="89.4"/>
		<line fill="none" stroke="#000000" stroke-miterlimit="10" x1="413.5" y1="88.4" x2="413.5" y2="89.4"/>
		<line fill="none" stroke="#000000" stroke-miterlimit="10" x1="409.5" y1="88.4" x2="409.5" y2="89.4"/>
		<rect x="421.5" y="85.9" fill="none" stroke="#040000" stroke-width="2.3717" stroke-miterlimit="10" width="15" height="6"/>
		<line fill="none" stroke="#000000" stroke-miterlimit="10" x1="425" y1="88.4" x2="425" y2="89.4"/>
		<line fill="none" stroke="#000000" stroke-miterlimit="10" x1="433" y1="88.4" x2="433" y2="89.4"/>
		<line fill="none" stroke="#000000" stroke-miterlimit="10" x1="429" y1="88.4" x2="429" y2="89.4"/>
		<rect x="382.5" y="75.9" fill="none" stroke="#040000" stroke-width="2.3717" stroke-miterlimit="10" width="15" height="6"/>
		<line fill="none" stroke="#000000" stroke-miterlimit="10" x1="386" y1="78.4" x2="386" y2="79.4"/>
		<line fill="none" stroke="#000000" stroke-miterlimit="10" x1="394" y1="78.4" x2="394" y2="79.4"/>
		<line fill="none" stroke="#000000" stroke-miterlimit="10" x1="390" y1="78.4" x2="390" y2="79.4"/>
		<rect x="402" y="75.9" fill="none" stroke="#040000" stroke-width="2.3717" stroke-miterlimit="10" width="15" height="6"/>
		<line fill="none" stroke="#000000" stroke-miterlimit="10" x1="405.5" y1="78.4" x2="405.5" y2="79.4"/>
		<line fill="none" stroke="#000000" stroke-miterlimit="10" x1="413.5" y1="78.4" x2="413.5" y2="79.4"/>
		<line fill="none" stroke="#000000" stroke-miterlimit="10" x1="409.5" y1="78.4" x2="409.5" y2="79.4"/>
		<rect x="382.5" y="65.9" fill="none" stroke="#040000" stroke-width="2.3717" stroke-miterlimit="10" width="15" height="6"/>
		<line fill="none" stroke="#000000" stroke-miterlimit="10" x1="386" y1="68.4" x2="386" y2="69.4"/>
		<line fill="none" stroke="#000000" stroke-miterlimit="10" x1="394" y1="68.4" x2="394" y2="69.4"/>
		<line fill="none" stroke="#000000" stroke-miterlimit="10" x1="390" y1="68.4" x2="390" y2="69.4"/>
	</g>
</g>
<g>
	<path d="M174.4,324.4c0.7,0.8,1.1,1.9,1.1,3.2c0,1.4-0.4,2.5-1.1,3.3c-0.7,0.8-1.7,1.2-2.9,1.2s-2.2-0.4-2.9-1.2
		c-0.7-0.8-1.1-1.9-1.1-3.3c0-1.3,0.4-2.4,1.1-3.2c0.7-0.8,1.7-1.2,2.9-1.2S173.7,323.6,174.4,324.4z M173.5,330.1
		c0.5-0.6,0.7-1.5,0.7-2.6c0-1-0.2-1.9-0.7-2.5c-0.5-0.6-1.2-0.9-2-0.9c-0.9,0-1.5,0.3-2,0.9c-0.5,0.6-0.7,1.5-0.7,2.5
		c0,1.1,0.2,1.9,0.7,2.6c0.5,0.6,1.1,1,2,1C172.3,331.1,173,330.8,173.5,330.1z"/>
	<path d="M182,326.3c0.6,0.6,0.8,1.4,0.8,2.4c0,1-0.3,1.8-0.8,2.4s-1.3,0.9-2.1,0.9c-0.4,0-0.8-0.1-1.1-0.2c-0.4-0.2-0.7-0.4-1-0.7
		v2.4h-1.1v-7.9h1.1v0.6c0.3-0.3,0.6-0.5,1-0.6c0.4-0.2,0.7-0.2,1.1-0.2C180.7,325.4,181.4,325.7,182,326.3z M181.1,330.5
		c0.4-0.4,0.5-1,0.5-1.8s-0.2-1.3-0.5-1.7c-0.4-0.4-0.8-0.6-1.5-0.6c-0.6,0-1.1,0.2-1.5,0.6c-0.3,0.4-0.5,1-0.5,1.7s0.2,1.3,0.5,1.8
		c0.3,0.4,0.8,0.6,1.5,0.6C180.3,331.1,180.8,330.9,181.1,330.5z"/>
	<path d="M184.6,329.1c0,0.6,0.2,1.1,0.6,1.5s0.8,0.6,1.4,0.6c0.5,0,0.9-0.1,1.2-0.3c0.3-0.2,0.4-0.4,0.5-0.6h1.2
		c-0.1,0.4-0.4,0.8-0.9,1.2c-0.4,0.4-1.1,0.6-1.9,0.6c-0.9,0-1.6-0.3-2.2-0.9c-0.6-0.6-0.9-1.4-0.9-2.3c0-0.9,0.3-1.7,0.8-2.3
		c0.6-0.6,1.3-0.9,2.2-0.9c0.8,0,1.6,0.3,2.2,0.8c0.6,0.6,0.9,1.5,0.9,2.7H184.6z M188.4,328.3c0-0.6-0.2-1-0.6-1.4
		c-0.3-0.3-0.8-0.5-1.4-0.5c-0.5,0-1,0.2-1.3,0.5c-0.3,0.3-0.6,0.8-0.6,1.4H188.4z"/>
	<path d="M193.8,326.6c-0.2,0-0.4,0-0.6,0c-0.2,0-0.3,0.1-0.5,0.1c-0.4,0.2-0.6,0.4-0.8,0.8c-0.2,0.3-0.3,0.8-0.3,1.4v2.9h-1.1v-6.1
		h1.1v0.9l0.1,0c0.1-0.2,0.3-0.4,0.5-0.6c0.2-0.1,0.4-0.3,0.6-0.4c0.2-0.1,0.4-0.1,0.6-0.1s0.3,0,0.3,0V326.6z"/>
	<path d="M198.7,331.9c-0.1-0.1-0.1-0.3-0.2-0.4s0-0.3-0.1-0.5c-0.2,0.3-0.6,0.5-1,0.7c-0.4,0.2-0.8,0.3-1.3,0.4
		c-0.6,0-1.2-0.1-1.6-0.3c-0.5-0.2-0.7-0.7-0.8-1.2c-0.1-0.6,0-1,0.3-1.3c0.3-0.3,0.7-0.5,1.1-0.7c0.4-0.1,0.8-0.2,1.2-0.2
		c0.4,0,0.8-0.1,1.2-0.1c0.2,0,0.4-0.1,0.6-0.2c0.2-0.1,0.3-0.2,0.3-0.5c0-0.3-0.1-0.5-0.4-0.8s-0.7-0.4-1.2-0.4s-1,0.1-1.3,0.3
		c-0.3,0.2-0.4,0.5-0.3,0.8h-1.1c-0.1-0.7,0.2-1.2,0.7-1.5c0.6-0.4,1.2-0.5,2-0.5c0.7,0,1.3,0.2,1.9,0.5c0.6,0.4,0.8,0.9,0.8,1.5
		v3.4c0,0.3,0,0.5,0.1,0.7s0.1,0.3,0.1,0.3H198.7z M198.5,328.7c-0.1,0.1-0.2,0.1-0.3,0.2s-0.2,0.1-0.4,0.1c-0.2,0.1-0.6,0.1-1,0.1
		c-0.4,0-0.7,0.1-0.9,0.2c-0.4,0.1-0.6,0.3-0.8,0.4c-0.2,0.2-0.3,0.4-0.2,0.7c0,0.3,0.2,0.5,0.5,0.7c0.3,0.1,0.6,0.2,0.9,0.1
		c0.7,0,1.3-0.3,1.6-0.6c0.4-0.4,0.6-0.7,0.6-1V328.7z"/>
	<path d="M202.3,331.9c-0.2,0-0.4-0.1-0.6-0.2c-0.2-0.1-0.3-0.2-0.4-0.4c-0.1-0.1-0.2-0.3-0.2-0.4c0-0.2-0.1-0.4-0.1-0.7v-3.5h-0.8
		v-0.9l0.8,0v-1.9h1.1v1.9l0.9,0v0.9h-0.9v3.4c0,0.1,0,0.3,0,0.4c0,0.1,0.1,0.2,0.2,0.3c0.1,0.1,0.2,0.1,0.4,0.2c0.1,0,0.3,0,0.4,0
		l0,0.9H202.3z"/>
	<path d="M204.2,324.4v-1.1h1.1v1.1H204.2z M204.2,331.8v-6.2h1.1v6.2H204.2z"/>
	<path d="M211.6,326.4c0.6,0.6,0.8,1.4,0.8,2.4s-0.3,1.7-0.8,2.4c-0.6,0.6-1.3,0.9-2.3,0.9c-1,0-1.7-0.3-2.3-0.9
		c-0.6-0.6-0.8-1.4-0.8-2.4s0.3-1.7,0.8-2.4c0.6-0.6,1.3-0.9,2.3-0.9C210.3,325.5,211.1,325.8,211.6,326.4z M210.8,330.5
		c0.4-0.4,0.6-1,0.6-1.8c0-0.7-0.2-1.3-0.6-1.7c-0.4-0.4-0.8-0.7-1.4-0.7c-0.6,0-1.1,0.2-1.5,0.7c-0.4,0.4-0.5,1-0.5,1.7
		c0,0.7,0.2,1.3,0.5,1.8c0.4,0.4,0.8,0.7,1.5,0.7C209.9,331.2,210.4,331,210.8,330.5z"/>
	<path d="M217.7,331.9v-3.7c0-0.6-0.1-1-0.4-1.2s-0.6-0.4-1.1-0.4c-0.5,0-0.9,0.2-1.3,0.5c-0.3,0.3-0.5,0.8-0.5,1.3v3.5h-1.1v-6.2
		h1.1v0.7c0.3-0.3,0.6-0.5,1-0.7c0.4-0.2,0.9-0.3,1.4-0.2c0.7,0.1,1.1,0.4,1.4,0.8s0.4,0.9,0.4,1.3v4.2H217.7z"/>
	<path d="M230.3,331.9l-0.8-0.9c-0.4,0.4-0.9,0.7-1.3,0.9c-0.5,0.2-0.9,0.3-1.4,0.3c-0.7,0-1.3-0.2-1.9-0.7s-0.8-1.1-0.8-1.9
		c0-0.6,0.2-1.1,0.6-1.5c0.4-0.4,0.9-0.8,1.5-1.1c-0.1-0.2-0.3-0.4-0.6-0.8c-0.2-0.3-0.4-0.7-0.5-1c-0.1-0.6,0.1-1.2,0.5-1.6
		c0.5-0.4,1-0.7,1.7-0.7c0.7,0,1.2,0.2,1.7,0.6c0.5,0.4,0.7,0.9,0.6,1.5c0,0.6-0.3,1-0.7,1.4s-0.8,0.7-1.3,0.9l1.8,2.2
		c0.1-0.2,0.3-0.5,0.4-0.9c0.1-0.3,0.2-0.6,0.2-0.8h1c-0.1,0.4-0.2,0.8-0.3,1.3c-0.1,0.4-0.3,0.9-0.6,1.2l1.4,1.8H230.3z
		 M226.9,327.6c-0.4,0.2-0.8,0.5-1.1,0.8c-0.4,0.3-0.6,0.7-0.6,1.1c0,0.4,0.1,0.8,0.5,1.1c0.3,0.3,0.7,0.5,1.2,0.5
		c0.3,0,0.7-0.1,1.1-0.2s0.7-0.4,1-0.7L226.9,327.6z M228.1,325.8c0.3-0.2,0.5-0.5,0.6-0.9c0.1-0.3,0-0.6-0.3-0.9
		c-0.2-0.3-0.6-0.4-1-0.4c-0.4,0-0.7,0.1-0.9,0.3c-0.2,0.2-0.3,0.5-0.3,0.8c0,0.3,0.2,0.6,0.4,0.8c0.2,0.3,0.4,0.5,0.6,0.7
		C227.5,326.3,227.8,326.1,228.1,325.8z"/>
	<path d="M243.8,331.8v-6.1l-0.1,0l-2.2,6.1h-1.3l-2.2-6.1l-0.1,0v6.1h-1v-8.4h1.2l2.7,7.3l2.7-7.3h1.2v8.4H243.8z"/>
	<path d="M250.7,331.9c-0.1-0.1-0.1-0.3-0.2-0.4s0-0.3-0.1-0.5c-0.2,0.3-0.6,0.5-1,0.7c-0.4,0.2-0.8,0.3-1.3,0.4
		c-0.6,0-1.2-0.1-1.6-0.3c-0.5-0.2-0.7-0.7-0.8-1.2c-0.1-0.6,0-1,0.3-1.3c0.3-0.3,0.7-0.5,1.1-0.7c0.4-0.1,0.8-0.2,1.2-0.2
		c0.4,0,0.8-0.1,1.2-0.1c0.2,0,0.4-0.1,0.6-0.2c0.2-0.1,0.3-0.2,0.3-0.5c0-0.3-0.1-0.5-0.4-0.8s-0.7-0.4-1.2-0.4s-1,0.1-1.3,0.3
		c-0.3,0.2-0.4,0.5-0.3,0.8h-1.1c-0.1-0.7,0.2-1.2,0.7-1.5c0.6-0.4,1.2-0.5,2-0.5c0.7,0,1.3,0.2,1.9,0.5c0.6,0.4,0.8,0.9,0.8,1.5
		v3.4c0,0.3,0,0.5,0.1,0.7s0.1,0.3,0.1,0.3H250.7z M250.5,328.7c-0.1,0.1-0.2,0.1-0.3,0.2s-0.2,0.1-0.4,0.1c-0.2,0.1-0.6,0.1-1,0.1
		c-0.4,0-0.7,0.1-0.9,0.2c-0.4,0.1-0.6,0.3-0.8,0.4c-0.2,0.2-0.3,0.4-0.2,0.7c0,0.3,0.2,0.5,0.5,0.7c0.3,0.1,0.6,0.2,0.9,0.1
		c0.7,0,1.3-0.3,1.6-0.6c0.4-0.4,0.6-0.7,0.6-1V328.7z"/>
	<path d="M257.3,331.9v-3.7c0-0.6-0.1-1-0.4-1.2c-0.2-0.2-0.6-0.4-1.1-0.4c-0.5,0-0.9,0.2-1.3,0.5s-0.5,0.8-0.5,1.3v3.5H253v-6.2
		h1.1v0.7c0.3-0.3,0.6-0.5,1-0.7c0.4-0.2,0.9-0.3,1.4-0.2c0.7,0.1,1.1,0.4,1.4,0.8s0.4,0.9,0.4,1.3v4.2H257.3z"/>
	<path d="M264.3,331.9c-0.1-0.1-0.1-0.3-0.2-0.4s0-0.3-0.1-0.5c-0.2,0.3-0.6,0.5-1,0.7c-0.4,0.2-0.8,0.3-1.3,0.4
		c-0.6,0-1.2-0.1-1.6-0.3c-0.5-0.2-0.7-0.7-0.8-1.2c-0.1-0.6,0-1,0.3-1.3c0.3-0.3,0.7-0.5,1.1-0.7c0.4-0.1,0.8-0.2,1.2-0.2
		c0.4,0,0.8-0.1,1.2-0.1c0.2,0,0.4-0.1,0.6-0.2c0.2-0.1,0.3-0.2,0.3-0.5c0-0.3-0.1-0.5-0.4-0.8s-0.7-0.4-1.2-0.4s-1,0.1-1.3,0.3
		c-0.3,0.2-0.4,0.5-0.3,0.8h-1.1c-0.1-0.7,0.2-1.2,0.7-1.5c0.6-0.4,1.2-0.5,2-0.5c0.7,0,1.3,0.2,1.9,0.5c0.6,0.4,0.8,0.9,0.8,1.5
		v3.4c0,0.3,0,0.5,0.1,0.7s0.1,0.3,0.1,0.3H264.3z M264.1,328.7c-0.1,0.1-0.2,0.1-0.3,0.2s-0.2,0.1-0.4,0.1c-0.2,0.1-0.6,0.1-1,0.1
		c-0.4,0-0.7,0.1-0.9,0.2c-0.4,0.1-0.6,0.3-0.8,0.4c-0.2,0.2-0.3,0.4-0.2,0.7c0,0.3,0.2,0.5,0.5,0.7c0.3,0.1,0.6,0.2,0.9,0.1
		c0.7,0,1.3-0.3,1.6-0.6c0.4-0.4,0.6-0.7,0.6-1V328.7z"/>
	<path d="M272.3,330.9c0,1-0.3,1.7-0.9,2.1c-0.6,0.4-1.3,0.6-2,0.6c-0.9,0-1.6-0.2-2.1-0.6c-0.5-0.4-0.8-0.9-0.8-1.4h1.1
		c0,0.3,0.2,0.5,0.5,0.8c0.3,0.2,0.8,0.3,1.4,0.3c0.6,0,1.1-0.1,1.4-0.4s0.4-0.7,0.4-1.2v-0.6c-0.3,0.3-0.6,0.5-1,0.7
		c-0.4,0.2-0.7,0.2-1.1,0.2c-0.8,0-1.5-0.3-2.1-0.8c-0.6-0.6-0.9-1.3-0.9-2.1s0.3-1.6,0.8-2.1c0.6-0.5,1.3-0.8,2.1-0.8
		c0.4,0,0.8,0.1,1.1,0.2c0.4,0.2,0.7,0.4,1,0.7v-0.6h1.1V330.9z M270.7,329.8c0.4-0.3,0.6-0.8,0.6-1.5c0-0.7-0.2-1.2-0.6-1.5
		c-0.4-0.3-0.8-0.5-1.4-0.5c-0.6,0-1.1,0.2-1.4,0.5c-0.4,0.3-0.5,0.8-0.5,1.5c0,0.7,0.2,1.2,0.5,1.5c0.4,0.3,0.8,0.5,1.4,0.5
		C269.8,330.3,270.3,330.2,270.7,329.8z"/>
	<path d="M274.4,329.1c0,0.6,0.2,1.1,0.6,1.5s0.8,0.6,1.4,0.6c0.5,0,0.9-0.1,1.2-0.3c0.3-0.2,0.4-0.4,0.5-0.6h1.2
		c-0.1,0.4-0.4,0.8-0.9,1.2c-0.4,0.4-1.1,0.6-1.9,0.6c-0.9,0-1.6-0.3-2.2-0.9c-0.6-0.6-0.9-1.4-0.9-2.3c0-0.9,0.3-1.7,0.8-2.3
		c0.6-0.6,1.3-0.9,2.2-0.9c0.8,0,1.6,0.3,2.2,0.8c0.6,0.6,0.9,1.5,0.9,2.7H274.4z M278.3,328.3c0-0.6-0.2-1-0.6-1.4
		c-0.3-0.3-0.8-0.5-1.4-0.5c-0.5,0-1,0.2-1.3,0.5c-0.3,0.3-0.6,0.8-0.6,1.4H278.3z"/>
	<path d="M287.7,331.9l0-3.9c0-0.5-0.1-0.9-0.2-1.1c-0.1-0.3-0.5-0.4-1-0.3c-0.4,0-0.7,0.2-1,0.5c-0.2,0.3-0.4,0.7-0.4,1.2v3.7h-1.1
		V328c0-0.5-0.1-0.9-0.2-1.1s-0.5-0.4-0.9-0.3c-0.4,0-0.8,0.2-1,0.5s-0.4,0.7-0.4,1.2v3.7h-1.1v-6.2h1.1v0.7
		c0.2-0.2,0.5-0.5,0.8-0.7c0.3-0.2,0.8-0.3,1.3-0.3c0.3,0,0.5,0.1,0.8,0.3c0.2,0.2,0.4,0.4,0.6,0.8c0.2-0.2,0.4-0.4,0.8-0.7
		s0.9-0.4,1.5-0.3c0.6,0.1,1,0.3,1.2,0.8c0.2,0.4,0.3,0.9,0.3,1.4v4.2H287.7z"/>
	<path d="M290.9,329.1c0,0.6,0.2,1.1,0.6,1.5c0.4,0.4,0.8,0.6,1.4,0.6c0.5,0,0.9-0.1,1.2-0.3c0.3-0.2,0.4-0.4,0.5-0.6h1.2
		c-0.1,0.4-0.4,0.8-0.9,1.2c-0.4,0.4-1.1,0.6-1.9,0.6c-0.9,0-1.6-0.3-2.2-0.9c-0.6-0.6-0.9-1.4-0.9-2.3c0-0.9,0.3-1.7,0.8-2.3
		c0.6-0.6,1.3-0.9,2.2-0.9c0.8,0,1.6,0.3,2.2,0.8c0.6,0.6,0.9,1.5,0.9,2.7H290.9z M294.7,328.3c0-0.6-0.2-1-0.6-1.4
		c-0.3-0.3-0.8-0.5-1.4-0.5c-0.5,0-1,0.2-1.3,0.5c-0.3,0.3-0.5,0.8-0.6,1.4H294.7z"/>
	<path d="M301.2,331.9v-3.7c0-0.6-0.1-1-0.4-1.2s-0.6-0.4-1.1-0.4c-0.5,0-0.9,0.2-1.3,0.5c-0.3,0.3-0.5,0.8-0.5,1.3v3.5h-1.1v-6.2
		h1.1v0.7c0.3-0.3,0.6-0.5,1-0.7c0.4-0.2,0.9-0.3,1.4-0.2c0.7,0.1,1.1,0.4,1.4,0.8s0.4,0.9,0.4,1.3v4.2H301.2z"/>
	<path d="M305.2,331.9c-0.2,0-0.4-0.1-0.6-0.2c-0.2-0.1-0.3-0.2-0.4-0.4c-0.1-0.1-0.2-0.3-0.2-0.4c0-0.2-0.1-0.4-0.1-0.7v-3.5h-0.8
		v-0.9l0.8,0v-1.9h1.1v1.9l0.9,0v0.9H305v3.4c0,0.1,0,0.3,0,0.4c0,0.1,0.1,0.2,0.2,0.3c0.1,0.1,0.2,0.1,0.4,0.2c0.1,0,0.3,0,0.4,0
		l0,0.9H305.2z"/>
</g>
<g>
	<path d="M348.4,324.4c0.7,0.8,1.1,1.9,1.1,3.2c0,1.4-0.4,2.5-1.1,3.3c-0.7,0.8-1.7,1.2-2.9,1.2c-1.2,0-2.2-0.4-2.9-1.2
		c-0.7-0.8-1.1-1.9-1.1-3.3c0-1.3,0.4-2.4,1.1-3.2c0.7-0.8,1.7-1.2,2.9-1.2C346.7,323.1,347.7,323.6,348.4,324.4z M347.5,330.1
		c0.5-0.6,0.7-1.5,0.7-2.6c0-1-0.2-1.9-0.7-2.5c-0.5-0.6-1.2-0.9-2-0.9c-0.9,0-1.5,0.3-2,0.9c-0.5,0.6-0.7,1.5-0.7,2.5
		c0,1.1,0.2,1.9,0.7,2.6c0.5,0.6,1.1,1,2,1C346.3,331.1,347,330.8,347.5,330.1z"/>
	<path d="M356,326.3c0.6,0.6,0.8,1.4,0.8,2.4c0,1-0.3,1.8-0.8,2.4c-0.6,0.6-1.3,0.9-2.1,0.9c-0.4,0-0.8-0.1-1.1-0.2
		c-0.4-0.2-0.7-0.4-1-0.7v2.4h-1.1v-7.9h1.1v0.6c0.3-0.3,0.6-0.5,1-0.6c0.4-0.2,0.7-0.2,1.1-0.2C354.7,325.4,355.4,325.7,356,326.3z
		 M355.1,330.5c0.4-0.4,0.5-1,0.5-1.8s-0.2-1.3-0.5-1.7c-0.4-0.4-0.8-0.6-1.5-0.6c-0.6,0-1.1,0.2-1.5,0.6s-0.5,1-0.5,1.7
		s0.2,1.3,0.5,1.8s0.8,0.6,1.5,0.6C354.3,331.1,354.8,330.9,355.1,330.5z"/>
	<path d="M358.6,329.1c0,0.6,0.2,1.1,0.6,1.5c0.4,0.4,0.8,0.6,1.4,0.6c0.5,0,0.9-0.1,1.2-0.3c0.3-0.2,0.4-0.4,0.5-0.6h1.2
		c-0.1,0.4-0.4,0.8-0.9,1.2c-0.4,0.4-1.1,0.6-1.9,0.6c-0.9,0-1.6-0.3-2.2-0.9c-0.6-0.6-0.9-1.4-0.9-2.3c0-0.9,0.3-1.7,0.8-2.3
		c0.6-0.6,1.3-0.9,2.2-0.9c0.8,0,1.6,0.3,2.2,0.8c0.6,0.6,0.9,1.5,0.9,2.7H358.6z M362.4,328.3c0-0.6-0.2-1-0.6-1.4
		c-0.3-0.3-0.8-0.5-1.4-0.5c-0.5,0-1,0.2-1.3,0.5c-0.3,0.3-0.5,0.8-0.6,1.4H362.4z"/>
	<path d="M367.8,326.6c-0.2,0-0.4,0-0.6,0c-0.2,0-0.3,0.1-0.5,0.1c-0.4,0.2-0.6,0.4-0.8,0.8s-0.3,0.8-0.3,1.4v2.9h-1.1v-6.1h1.1v0.9
		l0.1,0c0.1-0.2,0.3-0.4,0.5-0.6c0.2-0.1,0.4-0.3,0.6-0.4c0.2-0.1,0.4-0.1,0.6-0.1s0.3,0,0.3,0V326.6z"/>
	<path d="M372.7,331.9c-0.1-0.1-0.1-0.3-0.1-0.4c0-0.2,0-0.3-0.1-0.5c-0.2,0.3-0.6,0.5-1,0.7s-0.8,0.3-1.3,0.4
		c-0.6,0-1.2-0.1-1.6-0.3c-0.5-0.2-0.7-0.7-0.8-1.2c-0.1-0.6,0-1,0.3-1.3c0.3-0.3,0.7-0.5,1.1-0.7c0.4-0.1,0.8-0.2,1.2-0.2
		c0.4,0,0.8-0.1,1.2-0.1c0.2,0,0.4-0.1,0.6-0.2c0.2-0.1,0.3-0.2,0.3-0.5c0-0.3-0.1-0.5-0.4-0.8c-0.2-0.2-0.7-0.4-1.2-0.4
		c-0.6,0-1,0.1-1.3,0.3c-0.3,0.2-0.4,0.5-0.3,0.8h-1.1c-0.1-0.7,0.2-1.2,0.7-1.5c0.6-0.4,1.2-0.5,2-0.5c0.7,0,1.3,0.2,1.9,0.5
		c0.6,0.4,0.8,0.9,0.8,1.5v3.4c0,0.3,0,0.5,0.1,0.7s0.1,0.3,0.1,0.3H372.7z M372.5,328.7c-0.1,0.1-0.2,0.1-0.3,0.2s-0.2,0.1-0.4,0.1
		c-0.2,0.1-0.6,0.1-1,0.1s-0.7,0.1-0.9,0.2c-0.4,0.1-0.6,0.3-0.8,0.4c-0.2,0.2-0.3,0.4-0.2,0.7c0,0.3,0.2,0.5,0.5,0.7
		c0.3,0.1,0.6,0.2,0.9,0.1c0.7,0,1.3-0.3,1.6-0.6c0.4-0.4,0.6-0.7,0.6-1V328.7z"/>
	<path d="M376.4,331.9c-0.2,0-0.4-0.1-0.6-0.2c-0.2-0.1-0.3-0.2-0.4-0.4c-0.1-0.1-0.2-0.3-0.2-0.4c0-0.2-0.1-0.4-0.1-0.7v-3.5h-0.8
		v-0.9l0.8,0v-1.9h1.1v1.9l0.9,0v0.9h-0.9v3.4c0,0.1,0,0.3,0,0.4c0,0.1,0.1,0.2,0.2,0.3c0.1,0.1,0.2,0.1,0.4,0.2c0.1,0,0.3,0,0.4,0
		l0,0.9H376.4z"/>
	<path d="M378.2,324.4v-1.1h1.1v1.1H378.2z M378.2,331.8v-6.2h1.1v6.2H378.2z"/>
	<path d="M385.6,326.4c0.6,0.6,0.8,1.4,0.8,2.4s-0.3,1.7-0.8,2.4s-1.3,0.9-2.3,0.9c-1,0-1.7-0.3-2.3-0.9c-0.6-0.6-0.8-1.4-0.8-2.4
		s0.3-1.7,0.8-2.4c0.6-0.6,1.3-0.9,2.3-0.9C384.3,325.5,385.1,325.8,385.6,326.4z M384.8,330.5c0.4-0.4,0.6-1,0.6-1.8
		c0-0.7-0.2-1.3-0.6-1.7c-0.4-0.4-0.8-0.7-1.4-0.7c-0.6,0-1.1,0.2-1.5,0.7c-0.4,0.4-0.5,1-0.5,1.7c0,0.7,0.2,1.3,0.5,1.8
		s0.8,0.7,1.5,0.7C383.9,331.2,384.4,331,384.8,330.5z"/>
	<path d="M391.7,331.9v-3.7c0-0.6-0.1-1-0.4-1.2s-0.6-0.4-1.1-0.4c-0.5,0-0.9,0.2-1.3,0.5s-0.5,0.8-0.5,1.3v3.5h-1.1v-6.2h1.1v0.7
		c0.3-0.3,0.6-0.5,1-0.7s0.9-0.3,1.4-0.2c0.7,0.1,1.1,0.4,1.4,0.8s0.4,0.9,0.4,1.3v4.2H391.7z"/>
	<path d="M404.3,331.9l-0.8-0.9c-0.4,0.4-0.9,0.7-1.3,0.9c-0.5,0.2-0.9,0.3-1.4,0.3c-0.7,0-1.3-0.2-1.9-0.7
		c-0.6-0.5-0.8-1.1-0.8-1.9c0-0.6,0.2-1.1,0.6-1.5c0.4-0.4,0.9-0.8,1.5-1.1c-0.1-0.2-0.3-0.4-0.6-0.8c-0.2-0.3-0.4-0.7-0.5-1
		c-0.1-0.6,0.1-1.2,0.5-1.6c0.5-0.4,1-0.7,1.7-0.7c0.7,0,1.2,0.2,1.7,0.6c0.5,0.4,0.7,0.9,0.6,1.5c0,0.6-0.3,1-0.7,1.4
		s-0.8,0.7-1.3,0.9l1.8,2.2c0.1-0.2,0.3-0.5,0.4-0.9s0.2-0.6,0.2-0.8h1c-0.1,0.4-0.2,0.8-0.3,1.3c-0.1,0.4-0.3,0.9-0.6,1.2l1.4,1.8
		H404.3z M400.9,327.6c-0.4,0.2-0.8,0.5-1.1,0.8c-0.4,0.3-0.6,0.7-0.6,1.1c0,0.4,0.1,0.8,0.5,1.1c0.3,0.3,0.7,0.5,1.2,0.5
		c0.3,0,0.7-0.1,1.1-0.2c0.4-0.2,0.7-0.4,1-0.7L400.9,327.6z M402.1,325.8c0.3-0.2,0.5-0.5,0.6-0.9c0.1-0.3,0-0.6-0.3-0.9
		c-0.2-0.3-0.6-0.4-1-0.4c-0.4,0-0.7,0.1-0.9,0.3c-0.2,0.2-0.3,0.5-0.3,0.8c0,0.3,0.2,0.6,0.4,0.8c0.2,0.3,0.4,0.5,0.6,0.7
		C401.5,326.3,401.8,326.1,402.1,325.8z"/>
	<path d="M417.8,331.8v-6.1l-0.1,0l-2.2,6.1h-1.3l-2.2-6.1l-0.1,0v6.1h-1v-8.4h1.2l2.7,7.3l2.7-7.3h1.2v8.4H417.8z"/>
	<path d="M424.7,331.9c-0.1-0.1-0.1-0.3-0.1-0.4c0-0.2,0-0.3-0.1-0.5c-0.2,0.3-0.6,0.5-1,0.7s-0.8,0.3-1.3,0.4
		c-0.6,0-1.2-0.1-1.6-0.3c-0.5-0.2-0.7-0.7-0.8-1.2c-0.1-0.6,0-1,0.3-1.3c0.3-0.3,0.7-0.5,1.1-0.7c0.4-0.1,0.8-0.2,1.2-0.2
		c0.4,0,0.8-0.1,1.2-0.1c0.2,0,0.4-0.1,0.6-0.2c0.2-0.1,0.3-0.2,0.3-0.5c0-0.3-0.1-0.5-0.4-0.8c-0.2-0.2-0.7-0.4-1.2-0.4
		c-0.6,0-1,0.1-1.3,0.3c-0.3,0.2-0.4,0.5-0.3,0.8h-1.1c-0.1-0.7,0.2-1.2,0.7-1.5c0.6-0.4,1.2-0.5,2-0.5c0.7,0,1.3,0.2,1.9,0.5
		c0.6,0.4,0.8,0.9,0.8,1.5v3.4c0,0.3,0,0.5,0.1,0.7s0.1,0.3,0.1,0.3H424.7z M424.5,328.7c-0.1,0.1-0.2,0.1-0.3,0.2s-0.2,0.1-0.4,0.1
		c-0.2,0.1-0.6,0.1-1,0.1s-0.7,0.1-0.9,0.2c-0.4,0.1-0.6,0.3-0.8,0.4c-0.2,0.2-0.3,0.4-0.2,0.7c0,0.3,0.2,0.5,0.5,0.7
		c0.3,0.1,0.6,0.2,0.9,0.1c0.7,0,1.3-0.3,1.6-0.6c0.4-0.4,0.6-0.7,0.6-1V328.7z"/>
	<path d="M431.3,331.9v-3.7c0-0.6-0.1-1-0.4-1.2c-0.2-0.2-0.6-0.4-1.1-0.4c-0.5,0-0.9,0.2-1.3,0.5s-0.5,0.8-0.5,1.3v3.5H427v-6.2
		h1.1v0.7c0.3-0.3,0.6-0.5,1-0.7c0.4-0.2,0.9-0.3,1.4-0.2c0.7,0.1,1.1,0.4,1.4,0.8c0.3,0.5,0.4,0.9,0.4,1.3v4.2H431.3z"/>
	<path d="M438.3,331.9c-0.1-0.1-0.1-0.3-0.2-0.4c0-0.2,0-0.3-0.1-0.5c-0.2,0.3-0.6,0.5-1,0.7s-0.8,0.3-1.3,0.4
		c-0.6,0-1.2-0.1-1.6-0.3s-0.7-0.7-0.8-1.2c-0.1-0.6,0-1,0.3-1.3c0.3-0.3,0.7-0.5,1.1-0.7c0.4-0.1,0.8-0.2,1.2-0.2
		c0.4,0,0.8-0.1,1.2-0.1c0.2,0,0.4-0.1,0.6-0.2c0.2-0.1,0.3-0.2,0.3-0.5c0-0.3-0.1-0.5-0.4-0.8s-0.7-0.4-1.2-0.4s-1,0.1-1.3,0.3
		c-0.3,0.2-0.4,0.5-0.3,0.8h-1.1c-0.1-0.7,0.2-1.2,0.7-1.5c0.6-0.4,1.2-0.5,2-0.5c0.7,0,1.3,0.2,1.9,0.5c0.6,0.4,0.8,0.9,0.8,1.5
		v3.4c0,0.3,0,0.5,0.1,0.7s0.1,0.3,0.1,0.3H438.3z M438.1,328.7c-0.1,0.1-0.2,0.1-0.3,0.2s-0.2,0.1-0.4,0.1c-0.2,0.1-0.6,0.1-1,0.1
		s-0.7,0.1-0.9,0.2c-0.4,0.1-0.6,0.3-0.8,0.4c-0.2,0.2-0.3,0.4-0.2,0.7c0,0.3,0.2,0.5,0.5,0.7c0.3,0.1,0.6,0.2,0.9,0.1
		c0.7,0,1.3-0.3,1.6-0.6c0.4-0.4,0.6-0.7,0.6-1V328.7z"/>
	<path d="M446.3,330.9c0,1-0.3,1.7-0.9,2.1c-0.6,0.4-1.3,0.6-2,0.6c-0.9,0-1.6-0.2-2.1-0.6c-0.5-0.4-0.8-0.9-0.8-1.4h1.1
		c0,0.3,0.2,0.5,0.5,0.8c0.3,0.2,0.8,0.3,1.4,0.3c0.6,0,1.1-0.1,1.4-0.4c0.3-0.3,0.4-0.7,0.4-1.2v-0.6c-0.3,0.3-0.6,0.5-1,0.7
		c-0.4,0.2-0.7,0.2-1.1,0.2c-0.8,0-1.5-0.3-2.1-0.8c-0.6-0.6-0.9-1.3-0.9-2.1s0.3-1.6,0.8-2.1c0.6-0.5,1.3-0.8,2.1-0.8
		c0.4,0,0.8,0.1,1.1,0.2s0.7,0.4,1,0.7v-0.6h1.1V330.9z M444.7,329.8c0.4-0.3,0.6-0.8,0.6-1.5c0-0.7-0.2-1.2-0.6-1.5
		c-0.4-0.3-0.8-0.5-1.4-0.5c-0.6,0-1.1,0.2-1.4,0.5c-0.4,0.3-0.5,0.8-0.5,1.5c0,0.7,0.2,1.2,0.5,1.5c0.4,0.3,0.8,0.5,1.4,0.5
		C443.8,330.3,444.3,330.2,444.7,329.8z"/>
	<path d="M448.4,329.1c0,0.6,0.2,1.1,0.6,1.5s0.8,0.6,1.4,0.6c0.5,0,0.9-0.1,1.2-0.3c0.3-0.2,0.4-0.4,0.5-0.6h1.2
		c-0.1,0.4-0.4,0.8-0.9,1.2c-0.4,0.4-1.1,0.6-1.9,0.6c-0.9,0-1.6-0.3-2.2-0.9c-0.6-0.6-0.9-1.4-0.9-2.3c0-0.9,0.3-1.7,0.8-2.3
		c0.6-0.6,1.3-0.9,2.2-0.9c0.8,0,1.6,0.3,2.2,0.8c0.6,0.6,0.9,1.5,0.9,2.7H448.4z M452.3,328.3c0-0.6-0.2-1-0.6-1.4
		c-0.3-0.3-0.8-0.5-1.4-0.5c-0.5,0-1,0.2-1.3,0.5c-0.3,0.3-0.6,0.8-0.6,1.4H452.3z"/>
	<path d="M461.7,331.9l0-3.9c0-0.5-0.1-0.9-0.2-1.1c-0.1-0.3-0.5-0.4-1-0.3c-0.4,0-0.7,0.2-1,0.5s-0.4,0.7-0.4,1.2v3.7h-1.1V328
		c0-0.5-0.1-0.9-0.2-1.1c-0.1-0.3-0.5-0.4-0.9-0.3c-0.4,0-0.8,0.2-1,0.5s-0.4,0.7-0.4,1.2v3.7h-1.1v-6.2h1.1v0.7
		c0.2-0.2,0.5-0.5,0.8-0.7c0.3-0.2,0.8-0.3,1.3-0.3c0.3,0,0.5,0.1,0.8,0.3c0.2,0.2,0.4,0.4,0.6,0.8c0.2-0.2,0.4-0.4,0.8-0.7
		c0.4-0.3,0.9-0.4,1.5-0.3c0.6,0.1,1,0.3,1.2,0.8c0.2,0.4,0.3,0.9,0.3,1.4v4.2H461.7z"/>
	<path d="M464.9,329.1c0,0.6,0.2,1.1,0.6,1.5c0.4,0.4,0.8,0.6,1.4,0.6c0.5,0,0.9-0.1,1.2-0.3c0.3-0.2,0.4-0.4,0.5-0.6h1.2
		c-0.1,0.4-0.4,0.8-0.9,1.2c-0.4,0.4-1.1,0.6-1.9,0.6c-0.9,0-1.6-0.3-2.2-0.9c-0.6-0.6-0.9-1.4-0.9-2.3c0-0.9,0.3-1.7,0.8-2.3
		c0.6-0.6,1.3-0.9,2.2-0.9c0.8,0,1.6,0.3,2.2,0.8c0.6,0.6,0.9,1.5,0.9,2.7H464.9z M468.7,328.3c0-0.6-0.2-1-0.6-1.4
		c-0.3-0.3-0.8-0.5-1.4-0.5c-0.5,0-1,0.2-1.3,0.5c-0.3,0.3-0.5,0.8-0.6,1.4H468.7z"/>
	<path d="M475.2,331.9v-3.7c0-0.6-0.1-1-0.4-1.2c-0.2-0.2-0.6-0.4-1.1-0.4c-0.5,0-0.9,0.2-1.3,0.5c-0.3,0.3-0.5,0.8-0.5,1.3v3.5
		h-1.1v-6.2h1.1v0.7c0.3-0.3,0.6-0.5,1-0.7s0.9-0.3,1.4-0.2c0.7,0.1,1.1,0.4,1.4,0.8s0.4,0.9,0.4,1.3v4.2H475.2z"/>
	<path d="M479.2,331.9c-0.2,0-0.4-0.1-0.6-0.2c-0.2-0.1-0.3-0.2-0.4-0.4c-0.1-0.1-0.2-0.3-0.2-0.4c0-0.2-0.1-0.4-0.1-0.7v-3.5h-0.8
		v-0.9l0.8,0v-1.9h1.1v1.9l0.9,0v0.9H479v3.4c0,0.1,0,0.3,0,0.4c0,0.1,0.1,0.2,0.2,0.3c0.1,0.1,0.2,0.1,0.4,0.2c0.1,0,0.3,0,0.4,0
		l0,0.9H479.2z"/>
</g>
<polygon fill="#E60012" points="346.8,269.2 339.6,262.1 339.6,266.8 302.2,266.8 302.2,271.6 339.6,271.6 339.6,276.3 "/>
<g>
	<path fill="#040000" d="M243.3,272c-3.8,0-6.9-3.1-6.9-6.9c0-3.8,3.1-6.9,6.9-6.9v2.5c-2.4,0-4.4,2-4.4,4.4c0,2.4,2,4.4,4.4,4.4
		c2.4,0,4.4-2,4.4-4.4h2.5C250.2,268.9,247.1,272,243.3,272z"/>
	<path fill="#040000" d="M244.6,279h-1.3c-1.3,0-2.7-0.2-4-0.6l-1.3-0.4l0.4-1.2c0.1-0.2,0.1-0.4,0.1-0.6c0-1.1-0.9-1.9-1.9-1.9
		c-0.5,0-1,0.2-1.4,0.6l-0.9,1l-0.9-0.9c-1-1-1.8-2-2.4-3.2l-0.6-1.2l1.2-0.6c0.2-0.1,0.4-0.2,0.5-0.4c0.8-0.8,0.8-2,0-2.7
		c-0.4-0.4-0.8-0.6-1.4-0.6l-1.3,0.1l-0.1-1.3c0-1.3,0.2-2.7,0.6-4l0.4-1.3l1.2,0.4c0.2,0.1,0.4,0.1,0.6,0.1c1.1,0,1.9-0.9,1.9-1.9
		c0-0.5-0.2-1.1-0.6-1.4l-1-0.9l0.9-0.9c1-1,2-1.8,3.2-2.4l1.2-0.6l0.6,1.2c0.1,0.2,0.2,0.4,0.4,0.5c0.7,0.7,2,0.7,2.7,0
		c0.4-0.4,0.6-0.9,0.6-1.5l-0.1-1.3l1.3,0c1.3,0,2.7,0.2,4,0.6l1.2,0.4l-0.4,1.2c-0.1,0.2-0.1,0.4-0.1,0.6c0,1.1,0.9,1.9,1.9,1.9
		c0.5,0,1-0.2,1.4-0.6l0.9-1l0.9,0.9c0.9,1,1.7,2,2.4,3.2l0.6,1.2l-1.2,0.6c-0.2,0.1-0.4,0.2-0.5,0.4c-0.8,0.8-0.8,2,0,2.8
		c0.4,0.4,0.8,0.6,1.4,0.6l1.3-0.1l0.1,1.3c0,1.3-0.2,2.7-0.6,4l-0.4,1.3l-1.2-0.4c-0.2-0.1-0.4-0.1-0.6-0.1c-1.1,0-1.9,0.9-1.9,1.9
		c0,0.5,0.2,1,0.6,1.4l1,0.9l-0.9,0.9c-0.9,0.9-2,1.8-3.2,2.4l-1.1,0.6l-0.6-1.2c-0.1-0.2-0.2-0.4-0.4-0.5c-0.7-0.7-2-0.7-2.8,0
		c-0.4,0.4-0.6,0.9-0.6,1.5L244.6,279z M241.1,276.3c0.4,0.1,0.7,0.1,1.1,0.2c0.2-0.7,0.6-1.4,1.1-2c0.8-0.8,2-1.3,3.1-1.3
		c1.2,0,2.3,0.5,3.1,1.3c0,0,0.1,0.1,0.1,0.1c0.3-0.2,0.6-0.4,0.9-0.6c-0.4-0.7-0.6-1.4-0.6-2.2c0-2.5,2.1-4.5,4.6-4.4
		c0.1-0.4,0.1-0.7,0.2-1.1c-0.7-0.2-1.4-0.6-2-1.1c-1.7-1.7-1.7-4.6,0-6.3c0,0,0.1-0.1,0.1-0.1c-0.2-0.3-0.4-0.6-0.6-0.9
		c-0.7,0.4-1.4,0.6-2.2,0.6c-2.5,0-4.4-2-4.4-4.4c0,0,0-0.1,0-0.1c-0.4-0.1-0.7-0.1-1.1-0.2c-0.2,0.7-0.6,1.4-1.1,2
		c-0.8,0.8-2,1.3-3.1,1.3s-2.3-0.5-3.1-1.3c0,0-0.1-0.1-0.1-0.1c-0.3,0.2-0.6,0.4-0.9,0.6c0.4,0.7,0.6,1.4,0.6,2.2
		c0,2.5-2.1,4.5-4.5,4.4c-0.1,0.4-0.1,0.7-0.2,1.1c0.7,0.2,1.4,0.6,2,1.1c1.7,1.7,1.7,4.6,0,6.3c0,0-0.1,0.1-0.1,0.1
		c0.2,0.3,0.4,0.6,0.6,0.9c0.7-0.4,1.4-0.6,2.2-0.6c2.5,0,4.4,2,4.4,4.4C241.2,276.2,241.2,276.2,241.1,276.3z"/>
	<path fill="#040000" d="M229.9,276.1c0,0.9-0.7,1.6-1.6,1.6c-0.9,0-1.6-0.7-1.6-1.6c0-0.9,0.7-1.6,1.6-1.6
		C229.1,274.5,229.9,275.2,229.9,276.1z"/>
	<polygon fill="#040000" points="234,297.2 220.7,297.2 220.7,286.3 215.4,283.4 220.7,275.1 220.7,264.1 223.2,264.1 223.2,275.8 
		219,282.5 223.2,284.8 223.2,294.7 234,294.7 	"/>
	<rect x="250.3" y="282.4" fill="#040000" width="2.5" height="13.6"/>
</g>
<g>
	<g>
		<path fill="#040000" d="M430.7,268.5c-1.2,0-2.4-0.2-3.6-0.6l-0.8-0.3l0.8-2.5l1.6,0.5l-0.3,1c0.8,0.2,1.6,0.3,2.3,0.3l0.1-1.9
			l3.6-0.7l0.7,1.4c0.7-0.4,1.3-0.9,1.9-1.4l-1.2-1.4l2-3l1.5,0.5c0.2-0.7,0.3-1.5,0.3-2.2c0,0,0-0.1,0-0.1l-1.8-0.1l-0.7-3.6
			l1.4-0.7c-0.4-0.7-0.9-1.3-1.4-1.8l-1.4,1.2l-3-2l0.5-1.4c-0.8-0.2-1.5-0.3-2.3-0.3l-0.1,1.8l-3.6,0.7l-0.7-1.4
			c-0.7,0.4-1.3,0.9-1.9,1.4l1.2,1.4l-2,3l-1.5-0.5c-0.2,0.8-0.3,1.6-0.3,2.3l1.9,0.1l0.7,3.6l-2.2,1.1l-0.7-1.5l1.1-0.5l-0.2-1.1
			l-2.1-0.1l-0.1-0.7c0-0.3,0-0.5,0-0.8c0-1.3,0.2-2.5,0.7-3.7l0.3-0.7l1.9,0.6l0.6-0.9l-1.4-1.6l0.5-0.5c1-1.2,2.3-2.1,3.6-2.7
			l0.7-0.3l0.9,1.7l1.1-0.2l0.1-2l0.7-0.1c1.5-0.1,3,0.1,4.5,0.6l0.7,0.3l-0.6,1.8l0.9,0.6l1.5-1.3l0.5,0.5c1.2,1,2.1,2.2,2.8,3.6
			l0.3,0.7l-1.7,0.8l0.2,1.1l2,0.1l0.1,0.7c0,0.3,0,0.6,0,0.9c0,1.2-0.2,2.4-0.6,3.6l-0.3,0.8l-1.8-0.6l-0.6,0.9l1.4,1.6l-0.5,0.5
			c-1,1.2-2.2,2.1-3.6,2.8l-0.7,0.3l-0.9-1.8l-1.1,0.2l-0.1,2.1l-0.7,0.1C431.3,268.5,431,268.5,430.7,268.5z"/>
		<path fill="#040000" d="M430.7,262.9c-2.7,0-5-2.2-5-5c0-2.7,2.2-5,5-5c2.7,0,5,2.2,5,5C435.7,260.7,433.4,262.9,430.7,262.9z
			 M430.7,254.6c-1.8,0-3.3,1.5-3.3,3.3c0,1.8,1.5,3.3,3.3,3.3c1.8,0,3.3-1.5,3.3-3.3C434,256.1,432.5,254.6,430.7,254.6z"/>
	</g>
	<polygon fill="#040000" points="423.3,293.7 381.8,293.7 381.8,263.6 424.5,263.6 424.5,286.3 422,286.3 422,266.1 384.3,266.1 
		384.3,291.2 423.3,291.2 	"/>
	<rect x="393.1" y="296.6" fill="#040000" width="20.6" height="2.5"/>
	<rect x="394.9" y="293.9" transform="matrix(0.4 -0.9165 0.9165 0.4 -31.7638 541.7772)" fill="#040000" width="6" height="2.5"/>
	
		<rect x="407.6" y="292.2" transform="matrix(0.9165 -0.4001 0.4001 0.9165 -83.9412 188.2317)" fill="#040000" width="2.5" height="6"/>
	<polygon fill="#040000" points="409.9,289 399.3,289 399.3,287.9 408.8,287.9 408.8,272.9 396.7,272.9 396.7,288.5 395.6,288.5 
		395.6,271.8 409.9,271.8 	"/>
	<rect x="399.8" y="275.5" fill="#040000" width="6.1" height="1.1"/>
	<rect x="399.8" y="278.3" fill="#040000" width="6.1" height="1.1"/>
	<rect x="399.8" y="281" fill="#040000" width="6.1" height="1.1"/>
	<rect x="399.8" y="283.8" fill="#040000" width="6.1" height="1.1"/>
	<polygon fill="#040000" points="411.9,269.5 397.9,269.5 397.9,270.5 410.9,270.5 410.9,286.3 411.9,286.3 	"/>
</g>
<g>
	<path d="M339.4-113.1v-0.9H350v0.9H339.4z M340.4-115.8h1.6l-0.1-1.6h-1.2v-0.9h8.2v0.9h-1.2l-0.1,1.6h1.6v0.9h-8.7V-115.8z
		 M340.8-108.1v-2.5h6.5v-0.8h-6.6v-0.9h7.8v2.5h-6.5v0.7h6.9v0.9H340.8z M343-117.4l0.2,1.6h3l0.2-1.6H343z"/>
	<path d="M354.9-110.3c-0.5,0-1,0.1-1.6,0.1l-2.2,0v-4.2h2.8v-2h-2.8v-1h4v4h-2.8v2.1l1.4,0c0.4,0,0.8,0,1.3-0.1s0.8-0.1,1.1-0.1v1
		C355.8-110.4,355.4-110.3,354.9-110.3z M359-108v-5.4h-1.2v4.9h-1.2v-9.8h1.2v3.8h1.2v-4.1h1.2v10.6H359z"/>
	<path d="M367.3-113.5c-0.7,0.1-1.4,0.1-2.2,0.2l-2.7,0v-4.7h1.2v3.7l1.5,0c0.7,0,1.4-0.1,2.1-0.1c0.7-0.1,1.3-0.2,1.7-0.2v1
		C368.5-113.7,368-113.6,367.3-113.5z M370.1-108.4c-0.7,0.4-1.7,0.6-3,0.6c-1.3,0-2.3-0.2-3-0.6c-0.7-0.4-1-1-1-1.6s0.3-1.2,1-1.6
		c0.7-0.4,1.7-0.6,3-0.6c1.3,0,2.3,0.2,3,0.6c0.7,0.4,1,1,1,1.6C371.2-109.4,370.8-108.8,370.1-108.4z M369.1-110.9
		c-0.5-0.2-1.2-0.3-2-0.3c-0.8,0-1.5,0.1-2,0.3c-0.5,0.2-0.8,0.5-0.8,0.9c0,0.4,0.3,0.7,0.8,0.9c0.5,0.2,1.2,0.3,2,0.3
		c0.8,0,1.5-0.1,2-0.3c0.5-0.2,0.8-0.5,0.8-0.9C369.9-110.4,369.6-110.7,369.1-110.9z M369.8-112.4v-6.1h1.2v6.1H369.8z"/>
	<path d="M381.6-110.3c-0.3,0-0.7,0-1.2,0.1l-3.4,0v-1h1.2l-0.2-4.5h1.2l0.2,4.5c0.4,0,0.6,0,0.6,0s0.1,0,0.4,0l0.2-4.5h1.2
		l-0.2,4.4c0.2,0,0.4,0,0.6,0c0.2,0,0.4,0,0.6-0.1v1C382.3-110.4,381.9-110.4,381.6-110.3z M377.2-116.2v-1h5.1v1H377.2z M385.6-108
		v-5.5h-1.3v5h-1.1v-9.8h1.1v3.7h1.3v-4h1.1v10.6H385.6z"/>
	<path d="M393.7-112.4c-0.6,0.1-1.1,0.1-1.6,0.1c-0.7,0-1.4,0-2.2,0c-0.8,0-1.2,0-1.2,0v-5.7h5.2v1h-4v1.4h3.9v1h-3.9v1.4l2.1,0
		c0.5,0,1.1,0,1.7-0.1s1-0.1,1.4-0.2v0.9C394.7-112.5,394.2-112.4,393.7-112.4z M389.7-108.2v-3.2h1.2v2.2h6.7v1H389.7z
		 M396.2-110.8v-4.1h-1.9v-1h1.9v-2.6h1.2v7.8H396.2z"/>
	<path d="M401.1-107.4c-0.4-0.6-0.9-1.4-1.4-2.4c-0.5-1-0.7-2.1-0.7-3.4c0-1.3,0.2-2.5,0.7-3.4c0.5-1,0.9-1.8,1.4-2.4h0.9
		c-0.6,1.1-1.1,2.1-1.4,3c-0.3,0.9-0.4,1.9-0.4,2.8c0,0.9,0.1,1.8,0.4,2.8c0.3,0.9,0.7,2,1.4,3H401.1z"/>
	<path d="M408.7-116.8c0.6,0.5,0.8,1.1,0.8,1.9c0,0.8-0.3,1.4-0.8,1.9c-0.6,0.5-1.2,0.7-2.1,0.7h-2.4v3.3h-1.1v-8.5h3.5
		C407.5-117.5,408.1-117.3,408.7-116.8z M407.8-113.7c0.4-0.3,0.5-0.7,0.5-1.2c0-0.6-0.2-1-0.5-1.2c-0.4-0.2-0.8-0.3-1.2-0.3h-2.4
		v3.1h2.4C407.1-113.4,407.5-113.5,407.8-113.7z"/>
	<path d="M410.4-109v-8.5h1.1v8.5H410.4z"/>
	<path d="M417.4-109c-0.1-0.1-0.1-0.3-0.2-0.4c0-0.2,0-0.3-0.1-0.5c-0.2,0.3-0.6,0.5-1,0.7s-0.8,0.3-1.3,0.4c-0.6,0-1.2-0.1-1.6-0.3
		s-0.7-0.7-0.8-1.2c-0.1-0.6,0-1,0.3-1.3c0.3-0.3,0.7-0.5,1.1-0.7c0.4-0.1,0.8-0.2,1.2-0.2c0.4,0,0.8-0.1,1.2-0.1
		c0.2,0,0.4-0.1,0.6-0.2c0.2-0.1,0.3-0.2,0.3-0.5c0-0.3-0.1-0.5-0.4-0.8s-0.7-0.4-1.2-0.4s-1,0.1-1.3,0.3c-0.3,0.2-0.4,0.5-0.3,0.8
		h-1.1c-0.1-0.7,0.2-1.2,0.7-1.5c0.6-0.4,1.2-0.5,2-0.5c0.7,0,1.3,0.2,1.9,0.5c0.6,0.4,0.8,0.9,0.8,1.5v3.4c0,0.3,0,0.5,0.1,0.7
		s0.1,0.3,0.1,0.3H417.4z M417.2-112.2c-0.1,0.1-0.2,0.1-0.3,0.2s-0.2,0.1-0.4,0.1c-0.2,0.1-0.6,0.1-1,0.1s-0.7,0.1-0.9,0.2
		c-0.4,0.1-0.6,0.3-0.8,0.4c-0.2,0.2-0.3,0.4-0.2,0.7c0,0.3,0.2,0.5,0.5,0.7c0.3,0.1,0.6,0.2,0.9,0.1c0.7,0,1.3-0.3,1.6-0.6
		c0.4-0.4,0.6-0.7,0.6-1V-112.2z"/>
	<path d="M424-109v-3.7c0-0.6-0.1-1-0.4-1.2c-0.2-0.2-0.6-0.4-1.1-0.4c-0.5,0-0.9,0.2-1.3,0.5c-0.3,0.3-0.5,0.8-0.5,1.3v3.5h-1.1
		v-6.2h1.1v0.7c0.3-0.3,0.6-0.5,1-0.7s0.9-0.3,1.4-0.2c0.7,0.1,1.1,0.4,1.4,0.8s0.4,0.9,0.4,1.3v4.2H424z"/>
	<path d="M430.9-109v-3.7c0-0.6-0.1-1-0.4-1.2c-0.2-0.2-0.6-0.4-1.1-0.4c-0.5,0-0.9,0.2-1.3,0.5s-0.5,0.8-0.5,1.3v3.5h-1.1v-6.2h1.1
		v0.7c0.3-0.3,0.6-0.5,1-0.7c0.4-0.2,0.9-0.3,1.4-0.2c0.7,0.1,1.1,0.4,1.4,0.8c0.3,0.5,0.4,0.9,0.4,1.3v4.2H430.9z"/>
	<path d="M433.5-116.5v-1.1h1.1v1.1H433.5z M433.5-109v-6.2h1.1v6.2H433.5z"/>
	<path d="M440.4-109v-3.7c0-0.6-0.1-1-0.4-1.2c-0.2-0.2-0.6-0.4-1.1-0.4c-0.5,0-0.9,0.2-1.3,0.5s-0.5,0.8-0.5,1.3v3.5h-1.1v-6.2h1.1
		v0.7c0.3-0.3,0.6-0.5,1-0.7c0.4-0.2,0.9-0.3,1.4-0.2c0.7,0.1,1.1,0.4,1.4,0.8c0.3,0.5,0.4,0.9,0.4,1.3v4.2H440.4z"/>
	<path d="M448.7-109.9c0,1-0.3,1.7-0.9,2.1c-0.6,0.4-1.3,0.6-2,0.6c-0.9,0-1.6-0.2-2.1-0.6c-0.5-0.4-0.8-0.9-0.8-1.4h1.1
		c0,0.3,0.2,0.5,0.5,0.8c0.3,0.2,0.8,0.3,1.4,0.3c0.6,0,1.1-0.1,1.4-0.4s0.4-0.7,0.4-1.2v-0.6c-0.3,0.3-0.6,0.5-1,0.7
		c-0.4,0.2-0.7,0.2-1.1,0.2c-0.8,0-1.5-0.3-2.1-0.8c-0.6-0.6-0.9-1.3-0.9-2.1s0.3-1.6,0.8-2.1c0.6-0.5,1.3-0.8,2.1-0.8
		c0.4,0,0.8,0.1,1.1,0.2c0.4,0.2,0.7,0.4,1,0.7v-0.6h1.1V-109.9z M447.1-111c0.4-0.3,0.6-0.8,0.6-1.5c0-0.7-0.2-1.2-0.6-1.5
		c-0.4-0.3-0.8-0.5-1.4-0.5c-0.6,0-1.1,0.2-1.4,0.5c-0.4,0.3-0.5,0.8-0.5,1.5c0,0.7,0.2,1.2,0.5,1.5c0.4,0.3,0.8,0.5,1.4,0.5
		C446.2-110.5,446.7-110.7,447.1-111z"/>
	<path d="M459.7-114.5c0.6,0.6,0.8,1.4,0.8,2.4c0,1-0.3,1.8-0.8,2.4c-0.6,0.6-1.3,0.9-2.1,0.9c-0.4,0-0.8-0.1-1.1-0.2
		c-0.4-0.2-0.7-0.4-1-0.7v2.4h-1.1v-7.9h1.1v0.6c0.3-0.3,0.6-0.5,1-0.6c0.4-0.2,0.7-0.2,1.1-0.2
		C458.5-115.4,459.2-115.1,459.7-114.5z M458.9-110.3c0.4-0.4,0.5-1,0.5-1.8s-0.2-1.3-0.5-1.7c-0.4-0.4-0.8-0.6-1.5-0.6
		c-0.6,0-1.1,0.2-1.5,0.6c-0.3,0.4-0.5,1-0.5,1.7s0.2,1.3,0.5,1.8c0.3,0.4,0.8,0.6,1.5,0.6C458-109.7,458.5-109.9,458.9-110.3z"/>
	<path d="M465.9-109c-0.1-0.1-0.1-0.3-0.1-0.4s0-0.3-0.1-0.5c-0.2,0.3-0.6,0.5-1,0.7c-0.4,0.2-0.8,0.3-1.3,0.4
		c-0.6,0-1.2-0.1-1.6-0.3c-0.5-0.2-0.7-0.7-0.8-1.2c-0.1-0.6,0-1,0.3-1.3c0.3-0.3,0.7-0.5,1.1-0.7c0.4-0.1,0.8-0.2,1.2-0.2
		c0.4,0,0.8-0.1,1.2-0.1c0.2,0,0.4-0.1,0.6-0.2c0.2-0.1,0.3-0.2,0.3-0.5c0-0.3-0.1-0.5-0.4-0.8c-0.2-0.2-0.7-0.4-1.2-0.4
		c-0.6,0-1,0.1-1.3,0.3c-0.3,0.2-0.4,0.5-0.3,0.8h-1.1c-0.1-0.7,0.2-1.2,0.7-1.5c0.6-0.4,1.2-0.5,2-0.5c0.7,0,1.3,0.2,1.9,0.5
		c0.6,0.4,0.8,0.9,0.8,1.5v3.4c0,0.3,0,0.5,0.1,0.7s0.1,0.3,0.1,0.3H465.9z M465.7-112.2c-0.1,0.1-0.2,0.1-0.3,0.2
		c-0.1,0.1-0.2,0.1-0.4,0.1c-0.2,0.1-0.6,0.1-1,0.1c-0.4,0-0.7,0.1-0.9,0.2c-0.4,0.1-0.6,0.3-0.8,0.4s-0.3,0.4-0.2,0.7
		c0,0.3,0.2,0.5,0.5,0.7c0.3,0.1,0.6,0.2,0.9,0.1c0.7,0,1.3-0.3,1.6-0.6c0.4-0.4,0.6-0.7,0.6-1V-112.2z"/>
	<path d="M469.6-109c-0.2,0-0.4-0.1-0.6-0.2c-0.2-0.1-0.3-0.2-0.4-0.4c-0.1-0.1-0.2-0.3-0.2-0.4s-0.1-0.4-0.1-0.7v-3.5h-0.8v-0.9
		l0.8,0v-1.9h1.1v1.9l0.9,0v0.9h-0.9v3.4c0,0.1,0,0.3,0,0.4s0.1,0.2,0.2,0.3c0.1,0.1,0.2,0.1,0.4,0.2c0.1,0,0.3,0,0.4,0l0,0.9H469.6
		z"/>
	<path d="M473-109c-0.2,0-0.4-0.1-0.6-0.2c-0.2-0.1-0.3-0.2-0.4-0.4c-0.1-0.1-0.2-0.3-0.2-0.4c0-0.2-0.1-0.4-0.1-0.7v-3.5H471v-0.9
		l0.8,0v-1.9h1.1v1.9l0.9,0v0.9h-0.9v3.4c0,0.1,0,0.3,0,0.4c0,0.1,0.1,0.2,0.2,0.3c0.1,0.1,0.2,0.1,0.4,0.2c0.1,0,0.3,0,0.4,0l0,0.9
		H473z"/>
	<path d="M475.5-111.7c0,0.6,0.2,1.1,0.6,1.5c0.4,0.4,0.8,0.6,1.4,0.6c0.5,0,0.9-0.1,1.2-0.3c0.3-0.2,0.4-0.4,0.5-0.6h1.2
		c-0.1,0.4-0.4,0.8-0.9,1.2c-0.4,0.4-1.1,0.6-1.9,0.6c-0.9,0-1.6-0.3-2.2-0.9c-0.6-0.6-0.9-1.4-0.9-2.3c0-0.9,0.3-1.7,0.8-2.3
		c0.6-0.6,1.3-0.9,2.2-0.9c0.8,0,1.6,0.3,2.2,0.8c0.6,0.6,0.9,1.5,0.9,2.7H475.5z M479.3-112.6c0-0.6-0.2-1-0.6-1.4
		c-0.3-0.3-0.8-0.5-1.4-0.5c-0.5,0-1,0.2-1.3,0.5c-0.3,0.3-0.6,0.8-0.6,1.4H479.3z"/>
	<path d="M484.7-114.2c-0.2,0-0.4,0-0.6,0c-0.2,0-0.3,0.1-0.5,0.1c-0.4,0.2-0.6,0.4-0.8,0.8s-0.3,0.8-0.3,1.4v2.9h-1.1v-6.1h1.1v0.9
		l0.1,0c0.1-0.2,0.3-0.4,0.5-0.6c0.2-0.1,0.4-0.3,0.6-0.4c0.2-0.1,0.4-0.1,0.6-0.1s0.3,0,0.3,0V-114.2z"/>
	<path d="M489.9-109v-3.7c0-0.6-0.1-1-0.4-1.2c-0.2-0.2-0.6-0.4-1.1-0.4c-0.5,0-0.9,0.2-1.3,0.5c-0.3,0.3-0.5,0.8-0.5,1.3v3.5h-1.1
		v-6.2h1.1v0.7c0.3-0.3,0.6-0.5,1-0.7s0.9-0.3,1.4-0.2c0.7,0.1,1.1,0.4,1.4,0.8s0.4,0.9,0.4,1.3v4.2H489.9z"/>
	<path d="M493.5-110.5c0.3-0.9,0.4-1.9,0.4-2.8c0-0.9-0.1-1.8-0.4-2.8s-0.7-2-1.4-3h0.9c0.4,0.6,0.9,1.4,1.4,2.4
		c0.5,1,0.7,2.1,0.7,3.4c0,1.3-0.2,2.5-0.7,3.4c-0.5,1-0.9,1.8-1.4,2.4h-0.9C492.7-108.5,493.2-109.5,493.5-110.5z"/>
</g>
<rect x="148.9" y="222.6" fill="none" stroke="#E60012" stroke-miterlimit="10" width="350" height="132"/>
<g>
	<polygon fill="none" points="41.3,16.8 32.5,12.5 22.8,16.8 32,21 	"/>
	<path fill="none" d="M32.3,36.1C32.2,36.1,32.2,36.1,32.3,36.1c-0.1,0-0.2,0-0.3,0c-0.1,0-0.1,0-0.2,0c0,0,0,0-0.1,0
		c0,0-0.1,0-0.1,0l-6.7-3.3l-2.2,1L32,38l9.3-4.2l-2.1-1L32.3,36.1C32.3,36.1,32.3,36.1,32.3,36.1z"/>
	<path fill="#040000" d="M43.9,47V33.8c0,0,0,0,0,0c0,0,0,0,0,0v-0.2l0,0c-0.1-0.2-0.2-0.4-0.4-0.5L41,31.9l-1.8,0.9l2.1,1L32,38
		l-9.2-4.2l2.2-1l-1.9-0.9l-2.6,1.1c0,0,0,0,0,0c0,0,0,0-0.1,0c0,0,0,0,0,0c0,0,0,0-0.1,0.1c0,0-0.1,0.1-0.1,0.1c0,0,0,0,0,0.1
		c0,0,0,0.1-0.1,0.1c0,0,0,0,0,0.1c0,0.1,0,0.1,0,0.2c0,0,0,0,0,0c0,0,0,0,0,0c0,0,0,0,0,0V47c0,0.3,0.2,0.6,0.4,0.7l1.9,0.9
		l1.9-0.8l-2.7-1.3V35l9.6,4.3v5.3l1-0.4c0.2-0.1,0.4-0.1,0.6,0v-4.9l9.6-4.3v11.5l-2.5,1.2l1.8,0.9l1.8-0.9
		C43.8,47.5,43.9,47.3,43.9,47z"/>
	<path fill="#040000" d="M32.8,46l-0.3-0.1l-1.3,0.6v4.7l-5.1-2.5l-1.9,0.8l7.4,3.6c0,0,0.1,0,0.1,0c0,0,0,0,0.1,0
		c0.1,0,0.1,0,0.2,0c0.1,0,0.1,0,0.2,0c0,0,0,0,0.1,0c0,0,0.1,0,0.1,0l7.5-3.6l-1.8-0.9l-5.3,2.6V46z"/>
	<polygon fill="#040000" points="38.1,48.6 39.9,49.4 41.7,48.6 39.9,47.7 	"/>
	<path fill="#040000" d="M32.5,45.8l0.3,0.1v-1.7c-0.2-0.1-0.4-0.1-0.6,0l-1,0.4v1.7L32.5,45.8z"/>
	<polygon fill="#040000" points="26.1,48.7 24.3,47.8 22.4,48.6 24.3,49.5 	"/>
	<path fill="#040000" d="M21.6,29.5V18l9.6,4.3v5.9l1-0.4c0.2-0.1,0.4-0.1,0.6,0v-5.5l9.6-4.3v11.5L39.2,31l1.8,0.9l2.5-1.2
		c0.3-0.1,0.4-0.4,0.4-0.7V16.8c0,0,0,0,0,0c0,0,0,0,0,0v-0.2l0,0c-0.1-0.2-0.2-0.4-0.4-0.5l-10.6-5.2c-0.2-0.1-0.5-0.1-0.7,0
		l-11.6,5.2c0,0,0,0,0,0c0,0,0,0-0.1,0c0,0,0,0,0,0c0,0,0,0-0.1,0.1c0,0-0.1,0.1-0.1,0.1c0,0,0,0,0,0.1c0,0,0,0.1-0.1,0.1
		c0,0,0,0,0,0.1c0,0.1,0,0.1,0,0.2c0,0,0,0,0,0c0,0,0,0,0,0c0,0,0,0,0,0V30c0,0.3,0.2,0.6,0.4,0.7l2.6,1.2l1.9-0.8L21.6,29.5z
		 M32.5,12.5l8.8,4.3L32,21l-9.2-4.2L32.5,12.5z"/>
	<path fill="#040000" d="M32.8,34.1v-4.5l-0.3-0.1l-1.3,0.6v4.1L26.8,32l-1.9,0.8l6.7,3.3c0,0,0.1,0,0.1,0c0,0,0,0,0.1,0
		c0.1,0,0.1,0,0.2,0c0.1,0,0.1,0,0.2,0c0,0,0,0,0.1,0c0,0,0.1,0,0.1,0l6.9-3.3l-1.8-0.9L32.8,34.1z"/>
	<polygon fill="#040000" points="37.4,31.9 39.2,32.8 41,31.9 39.2,31 	"/>
	<polygon fill="#040000" points="26.8,32 25,31.1 23.1,31.9 24.9,32.8 	"/>
	<path fill="#040000" d="M32.5,29.5l0.3,0.1v-1.7c-0.2-0.1-0.4-0.1-0.6,0l-1,0.4v1.7L32.5,29.5z"/>
	<path fill="none" stroke="#040000" stroke-width="2.5" stroke-miterlimit="10" d="M17.5,17.4C9.9,17,4.3,18.7,2.9,22.4
		C1.7,25.7,4,29.9,8.7,34.1c2.3-2.4,5.3-4.8,8.8-7.1"/>
	<path fill="none" stroke="#040000" stroke-width="2.5" stroke-miterlimit="10" d="M46.5,49c7.6,0.4,13.2-1.3,14.6-5.1
		c1.2-3.3-1.1-7.5-5.7-11.7c-2.3,2.4-5.3,4.8-8.8,7.1"/>
	<path fill="none" stroke="#040000" stroke-width="2.5" stroke-miterlimit="10" d="M17.5,40.2c-3.5-1.9-6.5-4-8.8-6.1
		c-4.3,4.5-6.3,8.9-4.8,12.1c1.6,3.4,6.8,4.7,13.7,4.1"/>
	<path fill="none" stroke="#040000" stroke-width="2.5" stroke-miterlimit="10" d="M46.5,26.2c3.5,1.9,6.5,4,8.8,6.1
		c4.3-4.5,6.3-8.9,4.8-12.1c-1.6-3.4-6.8-4.7-13.7-4.1"/>
	<path fill="none" stroke="#040000" stroke-width="2.5" stroke-miterlimit="10" d="M17.5,27c-3.5,2.3-6.5,4.7-8.8,7.1
		c2.4,2.1,5.4,4.2,8.8,6.1"/>
	<path fill="none" stroke="#040000" stroke-width="2.5" stroke-miterlimit="10" d="M46.5,39.4c3.5-2.3,6.5-4.7,8.8-7.1
		c-2.4-2.1-5.4-4.2-8.8-6.1"/>
	<path fill="none" stroke="#040000" stroke-width="2.5" stroke-miterlimit="10" d="M46.5,39.4c-2.8,1.8-5.9,3.5-9.3,5.1
		c-1.6,0.7-3.1,1.4-4.7,2c5,1.5,9.8,2.3,14,2.5"/>
	<path fill="none" stroke="#040000" stroke-width="2.5" stroke-miterlimit="10" d="M17.5,50.2c4.4-0.4,9.6-1.7,15-3.7
		c-1.6-0.5-3.2-1-4.8-1.6c-3.7-1.4-7.1-3-10.2-4.7"/>
</g>
<g>
	<path fill="#E60012" d="M153.8,206.1v0.7h4.2v3.9h-8.1v0.6h8.5v1.7h-11.2v-3.9h8.2v-0.6h-8.2v-1.7h4.1v-0.7h-5.8v-1.8h14.2v1.8
		H153.8z M147.1,203.8v-4.5H158v1.8h-8.4v0.8h8.6v1.8H147.1z"/>
	<path fill="#E60012" d="M167.5,210c-1.2,0.2-2.4,0.2-3.8,0.2h-2.7v-9.8h7v2.1h-4.6v5.6h1.4c0.7,0,1.6-0.1,2.7-0.2
		c1.1-0.1,1.7-0.2,1.8-0.2v2C169.3,209.7,168.7,209.8,167.5,210z M172.6,206.7v6.6h-2.4V199h2.4v5.5h1.8v2.2H172.6z"/>
	<path fill="#E60012" d="M183.1,210.7c-0.6-0.4-1.3-0.8-2-1.4s-1.2-1.2-1.5-1.9c-0.3,0.7-0.8,1.4-1.5,2c-0.7,0.6-1.3,1.1-1.9,1.6
		l-1.7-1.6c1.2-0.8,2.2-1.6,2.8-2.6c0.6-0.9,1-2.1,1-3.6v-3.5h2.5v3.5c0,1.5,0.4,2.7,1.1,3.6c0.7,0.9,1.6,1.6,2.6,2.2L183.1,210.7z
		 M187.5,206.8v6.4h-2.4V199h2.4v5.6h2v2.3H187.5z"/>
	<path fill="#E60012" d="M189.6,207.4v-2h3.5v-1.5c-0.7-0.2-1.2-0.6-1.6-0.9c-0.4-0.4-0.6-0.8-0.6-1.3c0-0.8,0.5-1.4,1.6-1.9
		c1.1-0.5,2.4-0.8,4.1-0.8c1.7,0,3.1,0.3,4.2,0.8c1.1,0.5,1.6,1.2,1.6,1.9c0,0.5-0.2,0.9-0.6,1.3c-0.4,0.4-0.9,0.7-1.6,0.9v1.5h3.5
		v2H189.6z M201.1,212.7c-1,0.5-2.4,0.8-4.4,0.8c-1.9,0-3.3-0.3-4.3-0.8c-1-0.5-1.5-1.2-1.5-2c0-0.8,0.5-1.5,1.5-2
		c1-0.5,2.4-0.8,4.3-0.8s3.4,0.3,4.4,0.8s1.5,1.2,1.5,2C202.6,211.5,202.1,212.1,201.1,212.7z M199,210c-0.5-0.2-1.3-0.3-2.3-0.3
		c-1,0-1.7,0.1-2.3,0.3c-0.5,0.2-0.8,0.4-0.8,0.7c0,0.3,0.3,0.5,0.8,0.7s1.3,0.3,2.3,0.3c1,0,1.7-0.1,2.3-0.3
		c0.5-0.2,0.8-0.4,0.8-0.7C199.8,210.5,199.5,210.2,199,210z M198.9,201c-0.6-0.1-1.3-0.2-2.1-0.2c-0.9,0-1.6,0.1-2.1,0.2
		c-0.6,0.1-0.8,0.4-0.8,0.6c0,0.3,0.3,0.5,0.8,0.7c0.6,0.2,1.3,0.3,2.1,0.3c0.9,0,1.6-0.1,2.1-0.2c0.6-0.2,0.9-0.4,0.9-0.7
		C199.7,201.3,199.5,201.1,198.9,201z M197.9,204.3c-0.2,0-0.4,0-0.6,0c-0.2,0-0.4,0-0.6,0c-0.2,0-0.4,0-0.6,0c-0.2,0-0.4,0-0.6,0v1
		h2.4V204.3z"/>
</g>
<line fill="none" stroke="#000000" stroke-width="2" stroke-miterlimit="10" x1="391.4" y1="-75.9" x2="400.4" y2="-75.9"/>
<g>
	<rect x="387.4" y="-79.9" fill="none" stroke="#000000" stroke-width="3" stroke-miterlimit="10" width="17" height="13.6"/>
	<polygon fill="none" stroke="#000000" stroke-width="3" stroke-miterlimit="10" points="421.5,-48.9 387.4,-48.9 387.4,-65.9 
		404.4,-65.9 410.9,-61.7 415.1,-58.9 421.5,-58.9 	"/>
	<rect x="390.9" y="-46.6" fill="none" stroke="#000000" stroke-width="2.4875" stroke-miterlimit="10" width="5" height="5.5"/>
	<rect x="412.9" y="-46.6" fill="none" stroke="#000000" stroke-width="2.4875" stroke-miterlimit="10" width="5" height="5.5"/>
	<line fill="none" stroke="#000000" stroke-width="3" stroke-miterlimit="10" x1="390.7" y1="-53.7" x2="394.7" y2="-53.7"/>
	<line fill="none" stroke="#000000" stroke-width="3" stroke-miterlimit="10" x1="413.4" y1="-53.4" x2="417.4" y2="-53.4"/>
	<line fill="none" stroke="#000000" stroke-width="2" stroke-miterlimit="10" x1="383.4" y1="-75.9" x2="383.4" y2="-70.9"/>
	<line fill="none" stroke="#000000" stroke-width="3.0706" stroke-miterlimit="10" x1="427.9" y1="-69.4" x2="427.9" y2="-47.4"/>
	<line fill="none" stroke="#000000" stroke-width="3.0706" stroke-miterlimit="10" x1="432.9" y1="-69.4" x2="432.9" y2="-47.4"/>
	<line fill="none" stroke="#000000" stroke-width="3" stroke-miterlimit="10" x1="382.9" y1="-72.4" x2="386.9" y2="-72.4"/>
	<line fill="none" stroke="#000000" stroke-width="3" stroke-miterlimit="10" x1="421.5" y1="-59.4" x2="421.5" y2="-69.4"/>
</g>
<rect x="0" fill="none" width="64" height="64"/>
</svg>
