<?xml version="1.0" encoding="utf-8"?>
<!-- Generator: Adobe Illustrator 22.0.1, SVG Export Plug-In . SVG Version: 6.00 Build 0)  -->
<svg version="1.1" baseProfile="tiny" id="레이어_1"
	 xmlns="http://www.w3.org/2000/svg" xmlns:xlink="http://www.w3.org/1999/xlink" x="0px" y="0px" viewBox="0 0 64 64"
	 xml:space="preserve">
<rect x="0" fill="none" width="64" height="64"/>
<g>
	<path fill="#221F20" d="M928.6,173.5c-0.5-0.2-1.1-0.6-1.6-1.1c-0.6-0.5-1-1-1.2-1.5c-0.2,0.6-0.6,1.1-1.1,1.6
		c-0.5,0.5-1.1,0.9-1.7,1.3l-0.8-0.8c1.5-0.7,2.3-1.5,2.6-2.4c0.3-0.9,0.4-1.6,0.4-2.1v-0.9h1.3v0.9c0,0.5,0.2,1.1,0.5,2
		c0.3,0.9,1.1,1.6,2.4,2.1L928.6,173.5z M924.4,177.7v-3.3h1.2v2.3h6.6v1H924.4z M930.7,175v-4.3h-2.2v-1.1h2.2v-2.3h1.2v7.6H930.7z
		"/>
	<path fill="#221F20" d="M933.8,173.2v-5.3h1.2v1.8h2.9v-1.8h1.2v5.3H933.8z M941.1,177.9v-2.7h-6.5v-1h7.7v3.7H941.1z M937.9,170.6
		H935v1.5h2.9V170.6z M942.3,170.9v2.7h-1.2v-6.3h1.2v2.6h1.5v1H942.3z"/>
	<path fill="#221F20" d="M948.4,173.7v-0.9h4.6v-0.6c-0.9,0-1.6-0.2-2.2-0.4c-0.6-0.2-0.9-0.5-0.9-0.8c0-0.4,0.4-0.7,1.1-0.9
		c0.7-0.2,1.6-0.3,2.7-0.3c1.1,0,2,0.1,2.7,0.3c0.7,0.2,1.1,0.5,1.1,0.9c0,0.3-0.3,0.6-0.9,0.8c-0.6,0.2-1.3,0.3-2.2,0.4v0.6h4.6
		v0.9H948.4z M949.3,169.4v-0.8h8.9v0.8H949.3z M949.8,177.8v-2.2h6.5V175h-6.6v-0.8h7.8v2.2h-6.5v0.6h6.8v0.8H949.8z M952.1,171.3
		c0.5,0.1,1,0.1,1.6,0.1s1.1,0,1.6-0.1c0.5,0,0.7-0.2,0.7-0.3c0-0.2-0.2-0.3-0.7-0.3c-0.5-0.1-1-0.1-1.6-0.1s-1.1,0-1.6,0.1
		c-0.5,0.1-0.7,0.2-0.7,0.3C951.4,171.1,951.6,171.2,952.1,171.3z M951.5,168.1v-0.8h4.5v0.8H951.5z"/>
	<path fill="#221F20" d="M959.5,176.4v-1H970v1H959.5z M960.9,173.4v-5h7.8v1h-6.6v3h6.6v1H960.9z"/>
	<path fill="#221F20" d="M972.8,178.5c-0.4-0.6-0.9-1.4-1.4-2.4c-0.5-1-0.7-2.1-0.7-3.4c0-1.3,0.2-2.5,0.7-3.4
		c0.5-1,0.9-1.8,1.4-2.4h0.9c-0.6,1.1-1.1,2.1-1.4,3c-0.3,0.9-0.4,1.9-0.4,2.8c0,0.9,0.1,1.8,0.4,2.8c0.3,0.9,0.7,2,1.4,3H972.8z"/>
	<path fill="#221F20" d="M978.8,176.9h-1.3l-3.4-8.5h1.2l2.9,7.2l2.9-7.2h1.1L978.8,176.9z"/>
	<path fill="#221F20" d="M982.4,174.1c0,0.6,0.2,1.1,0.6,1.5c0.4,0.4,0.8,0.6,1.4,0.6c0.5,0,0.9-0.1,1.2-0.3
		c0.3-0.2,0.4-0.4,0.5-0.6h1.2c-0.1,0.4-0.4,0.8-0.9,1.2c-0.4,0.4-1.1,0.6-1.9,0.6c-0.9,0-1.6-0.3-2.2-0.9c-0.6-0.6-0.9-1.4-0.9-2.3
		c0-0.9,0.3-1.7,0.8-2.3c0.6-0.6,1.3-0.9,2.2-0.9c0.8,0,1.6,0.3,2.2,0.8c0.6,0.6,0.9,1.5,0.9,2.7H982.4z M986.3,173.3
		c0-0.6-0.2-1-0.6-1.4c-0.3-0.3-0.8-0.5-1.4-0.5c-0.5,0-1,0.2-1.3,0.5c-0.3,0.3-0.6,0.8-0.6,1.4H986.3z"/>
	<path fill="#221F20" d="M993,174.3c0.2,0.2,0.3,0.5,0.3,0.9c0,0.6-0.3,1-0.8,1.4c-0.5,0.4-1.1,0.5-1.8,0.5c-1.1,0-1.8-0.3-2.2-0.8
		c-0.4-0.5-0.6-1-0.6-1.4h1.1c0,0.3,0.2,0.6,0.5,0.9c0.3,0.2,0.7,0.3,1.2,0.3c0.4,0,0.8-0.1,1-0.2c0.3-0.1,0.4-0.4,0.5-0.6
		c0-0.2,0-0.4-0.1-0.5c-0.1-0.1-0.3-0.3-0.5-0.4c-0.3-0.2-0.7-0.3-1.1-0.3c-0.4-0.1-0.7-0.1-1-0.2c-0.4-0.1-0.7-0.3-0.9-0.6
		c-0.2-0.3-0.4-0.6-0.3-1c0-0.5,0.3-0.9,0.7-1.2c0.4-0.4,1-0.6,1.8-0.6c0.9,0,1.5,0.2,1.9,0.7c0.4,0.5,0.6,0.9,0.6,1.3h-1.1
		c0-0.2-0.1-0.4-0.3-0.6c-0.2-0.2-0.6-0.4-1.2-0.4c-0.5,0-0.8,0.1-1,0.3c-0.2,0.2-0.3,0.4-0.3,0.6c0,0.3,0.1,0.5,0.3,0.6
		c0.2,0.1,0.4,0.2,0.6,0.3c0.3,0.1,0.6,0.1,1,0.2c0.4,0.1,0.7,0.2,1,0.3C992.5,173.9,992.8,174,993,174.3z"/>
	<path fill="#221F20" d="M999,174.3c0.2,0.2,0.3,0.5,0.3,0.9c0,0.6-0.3,1-0.8,1.4c-0.5,0.4-1.1,0.5-1.8,0.5c-1.1,0-1.8-0.3-2.2-0.8
		c-0.4-0.5-0.6-1-0.6-1.4h1.1c0,0.3,0.2,0.6,0.5,0.9c0.3,0.2,0.7,0.3,1.2,0.3c0.4,0,0.8-0.1,1-0.2c0.3-0.1,0.4-0.4,0.5-0.6
		c0-0.2,0-0.4-0.1-0.5c-0.1-0.1-0.3-0.3-0.5-0.4c-0.3-0.2-0.7-0.3-1.1-0.3c-0.4-0.1-0.7-0.1-1-0.2c-0.4-0.1-0.7-0.3-0.9-0.6
		c-0.2-0.3-0.4-0.6-0.3-1c0-0.5,0.3-0.9,0.7-1.2c0.4-0.4,1-0.6,1.8-0.6c0.9,0,1.5,0.2,1.9,0.7c0.4,0.5,0.6,0.9,0.6,1.3H998
		c0-0.2-0.1-0.4-0.3-0.6c-0.2-0.2-0.6-0.4-1.2-0.4c-0.5,0-0.8,0.1-1,0.3c-0.2,0.2-0.3,0.4-0.3,0.6c0,0.3,0.1,0.5,0.3,0.6
		c0.2,0.1,0.4,0.2,0.6,0.3c0.3,0.1,0.6,0.1,1,0.2c0.4,0.1,0.7,0.2,1,0.3C998.5,173.9,998.8,174,999,174.3z"/>
	<path fill="#221F20" d="M1001,174.1c0,0.6,0.2,1.1,0.6,1.5c0.4,0.4,0.8,0.6,1.4,0.6c0.5,0,0.9-0.1,1.2-0.3c0.3-0.2,0.4-0.4,0.5-0.6
		h1.2c-0.1,0.4-0.4,0.8-0.9,1.2c-0.4,0.4-1.1,0.6-1.9,0.6c-0.9,0-1.6-0.3-2.2-0.9c-0.6-0.6-0.9-1.4-0.9-2.3c0-0.9,0.3-1.7,0.8-2.3
		c0.6-0.6,1.3-0.9,2.2-0.9c0.8,0,1.6,0.3,2.2,0.8c0.6,0.6,0.9,1.5,0.9,2.7H1001z M1004.9,173.3c0-0.6-0.2-1-0.6-1.4
		c-0.3-0.3-0.8-0.5-1.4-0.5c-0.5,0-1,0.2-1.3,0.5c-0.3,0.3-0.6,0.8-0.6,1.4H1004.9z"/>
	<path fill="#221F20" d="M1007,176.9v-8.5h1.1v8.5H1007z"/>
	<path fill="#221F20" d="M1010,178.3h-1.2l4.2-11.1h1.2L1010,178.3z"/>
	<path fill="#221F20" d="M1020.4,176.9v-3.9h-4.4v3.9h-1.1v-8.5h1.1v3.5h4.4v-3.5h1.1v8.5H1020.4z"/>
	<path fill="#221F20" d="M1027.9,171.5c0.6,0.6,0.8,1.4,0.8,2.4c0,1-0.3,1.7-0.8,2.4c-0.6,0.6-1.3,0.9-2.3,0.9c-1,0-1.7-0.3-2.3-0.9
		c-0.6-0.6-0.8-1.4-0.8-2.4c0-1,0.3-1.7,0.8-2.4c0.6-0.6,1.3-0.9,2.3-0.9C1026.6,170.5,1027.3,170.8,1027.9,171.5z M1027,175.6
		c0.4-0.4,0.6-1,0.6-1.8c0-0.7-0.2-1.3-0.6-1.7c-0.4-0.4-0.8-0.7-1.4-0.7c-0.6,0-1.1,0.2-1.5,0.7c-0.4,0.4-0.5,1-0.5,1.7
		c0,0.7,0.2,1.3,0.5,1.8c0.4,0.4,0.8,0.7,1.5,0.7C1026.2,176.2,1026.7,176,1027,175.6z"/>
	<path fill="#221F20" d="M1029.7,176.9v-8.5h1.1v8.5H1029.7z"/>
	<path fill="#221F20" d="M1036.9,176.9v-0.7c-0.3,0.3-0.6,0.5-0.9,0.7c-0.4,0.2-0.7,0.2-1.1,0.2c-0.9,0-1.6-0.3-2.2-0.9
		c-0.5-0.6-0.8-1.4-0.8-2.4c0-1,0.3-1.8,0.8-2.4c0.5-0.6,1.3-0.9,2.2-0.9c0.4,0,0.8,0.1,1.1,0.2c0.4,0.2,0.7,0.4,0.9,0.7v-3h1.1v8.5
		H1036.9z M1036.4,175.5c0.3-0.4,0.5-1,0.5-1.7c0-0.7-0.2-1.3-0.5-1.7c-0.3-0.4-0.8-0.6-1.4-0.6c-0.6,0-1.1,0.2-1.4,0.6
		c-0.3,0.4-0.5,1-0.5,1.6c0,0.7,0.2,1.2,0.5,1.7c0.3,0.4,0.8,0.6,1.4,0.6C1035.6,176.1,1036.1,175.9,1036.4,175.5z"/>
	<path fill="#221F20" d="M1040.4,175.4c0.3-0.9,0.4-1.9,0.4-2.8c0-0.9-0.1-1.8-0.4-2.8c-0.3-0.9-0.7-2-1.4-3h0.9
		c0.4,0.6,0.9,1.4,1.4,2.4c0.5,1,0.7,2.1,0.7,3.4c0,1.3-0.2,2.5-0.7,3.4c-0.5,1-0.9,1.8-1.4,2.4h-0.9
		C1039.7,177.4,1040.2,176.4,1040.4,175.4z"/>
</g>
<g>
	<path fill="#221F20" d="M489.9,292.6c-0.5-0.2-1.1-0.6-1.6-1.1c-0.6-0.5-1-1-1.2-1.5c-0.2,0.6-0.6,1.1-1.1,1.6
		c-0.5,0.5-1.1,0.9-1.7,1.3l-0.8-0.8c1.5-0.7,2.3-1.5,2.6-2.4c0.3-0.9,0.4-1.6,0.4-2.1v-0.9h1.3v0.9c0,0.5,0.2,1.1,0.5,2
		c0.3,0.9,1.1,1.6,2.4,2.1L489.9,292.6z M485.7,296.7v-3.3h1.2v2.3h6.6v1H485.7z M492,294.1v-4.3h-2.2v-1.1h2.2v-2.3h1.2v7.6H492z"
		/>
	<path fill="#221F20" d="M495.1,292.2v-5.3h1.2v1.8h2.9v-1.8h1.2v5.3H495.1z M502.4,297v-2.7h-6.5v-1h7.7v3.7H502.4z M499.2,289.7
		h-2.9v1.5h2.9V289.7z M503.6,290v2.7h-1.2v-6.3h1.2v2.6h1.5v1H503.6z"/>
	<path fill="#221F20" d="M509.9,290.1v-1h5.5v1H509.9z M514.4,294.7c-0.5,0.4-1,0.6-1.8,0.6c-0.7,0-1.2-0.2-1.7-0.6
		c-0.5-0.4-0.7-0.9-0.7-1.6c0-0.7,0.2-1.2,0.7-1.6c0.5-0.4,1.1-0.6,1.7-0.6c0.7,0,1.3,0.2,1.7,0.6c0.5,0.4,0.7,0.9,0.7,1.6
		C515.1,293.7,514.8,294.2,514.4,294.7z M511.1,288.2v-0.9h3v0.9H511.1z M511.7,294c0.2,0.2,0.6,0.3,0.9,0.3c0.4,0,0.7-0.1,0.9-0.3
		c0.2-0.2,0.3-0.5,0.3-0.9c0-0.4-0.1-0.7-0.3-0.9c-0.2-0.2-0.5-0.3-0.9-0.3c-0.4,0-0.7,0.1-0.9,0.3c-0.2,0.2-0.4,0.5-0.4,0.9
		C511.3,293.4,511.5,293.7,511.7,294z M518.5,297v-5.1h-1.2v4.7h-1.2v-9.8h1.2v4h1.2v-4.3h1.2V297H518.5z"/>
	<path fill="#221F20" d="M527.2,295.1c-0.3-0.2-0.8-0.5-1.4-1c-0.6-0.5-1-1-1.2-1.5c-0.2,0.5-0.6,1.1-1.1,1.6
		c-0.6,0.6-1.1,0.9-1.6,1.1l-0.9-0.9c1.3-0.6,2.2-1.4,2.5-2.2c0.3-0.8,0.5-1.4,0.5-1.8V290h-2.4v-1h6v1h-2.4v0.4
		c0,0.5,0.2,1.1,0.5,1.7c0.3,0.7,1.1,1.3,2.3,2L527.2,295.1z M522.9,287.9v-1h3.4v1H522.9z M529.3,297v-10.6h1.2V297H529.3z"/>
	<path fill="#221F20" d="M534.1,297.5c-0.4-0.6-0.9-1.4-1.4-2.4c-0.5-1-0.7-2.1-0.7-3.4c0-1.3,0.2-2.5,0.7-3.4
		c0.5-1,0.9-1.8,1.4-2.4h0.9c-0.6,1.1-1.1,2.1-1.4,3c-0.3,0.9-0.4,1.9-0.4,2.8c0,0.9,0.1,1.8,0.4,2.8c0.3,0.9,0.7,2,1.4,3H534.1z"/>
	<path fill="#221F20" d="M541.6,295.9V292h-4.4v3.9h-1.1v-8.5h1.1v3.5h4.4v-3.5h1.1v8.5H541.6z"/>
	<path fill="#221F20" d="M548.5,296c-0.1-0.1-0.1-0.3-0.1-0.4c0-0.2,0-0.3-0.1-0.5c-0.2,0.3-0.6,0.5-1,0.7c-0.4,0.2-0.8,0.3-1.3,0.4
		c-0.6,0-1.2-0.1-1.6-0.3c-0.5-0.2-0.7-0.7-0.8-1.2c-0.1-0.6,0-1,0.3-1.3c0.3-0.3,0.7-0.5,1.1-0.7c0.4-0.1,0.8-0.2,1.2-0.2
		c0.4,0,0.8-0.1,1.2-0.1c0.2,0,0.4-0.1,0.6-0.1c0.2-0.1,0.3-0.2,0.3-0.5c0-0.3-0.1-0.5-0.4-0.8c-0.2-0.2-0.7-0.4-1.2-0.4
		c-0.6,0-1,0.1-1.3,0.3c-0.3,0.2-0.4,0.5-0.3,0.8H544c-0.1-0.7,0.2-1.2,0.7-1.5c0.6-0.4,1.2-0.5,2-0.5c0.7,0,1.3,0.2,1.9,0.5
		c0.6,0.4,0.8,0.9,0.8,1.5v3.4c0,0.3,0,0.5,0.1,0.7c0.1,0.2,0.1,0.3,0.1,0.3H548.5z M548.3,292.8c-0.1,0.1-0.2,0.1-0.3,0.2
		c-0.1,0.1-0.2,0.1-0.4,0.1c-0.2,0.1-0.6,0.1-1,0.1c-0.4,0-0.7,0.1-0.9,0.1c-0.4,0.1-0.6,0.3-0.8,0.4c-0.2,0.2-0.3,0.4-0.2,0.7
		c0,0.3,0.2,0.5,0.5,0.7c0.3,0.1,0.6,0.2,0.9,0.1c0.7,0,1.3-0.3,1.6-0.6c0.4-0.4,0.6-0.7,0.6-1V292.8z"/>
	<path fill="#221F20" d="M552.2,296c-0.2,0-0.4-0.1-0.6-0.2c-0.2-0.1-0.3-0.2-0.4-0.4c-0.1-0.1-0.2-0.3-0.2-0.4
		c0-0.2-0.1-0.4-0.1-0.7v-3.5h-0.8v-0.9l0.8,0v-1.9h1.1v1.9l0.9,0v0.9H552v3.4c0,0.1,0,0.3,0,0.4c0,0.1,0.1,0.2,0.2,0.3
		c0.1,0.1,0.2,0.1,0.4,0.2c0.1,0,0.3,0,0.4,0l0,0.9H552.2z"/>
	<path fill="#221F20" d="M559.5,294c-0.1,0.6-0.5,1.1-0.9,1.5c-0.5,0.4-1.1,0.7-2,0.7c-1,0-1.7-0.3-2.3-0.9
		c-0.6-0.6-0.8-1.4-0.8-2.4c0-1,0.3-1.7,0.8-2.4c0.6-0.6,1.3-0.9,2.3-0.9c0.8,0,1.5,0.2,2,0.7c0.5,0.5,0.8,1,0.9,1.5h-1.2
		c-0.1-0.3-0.2-0.5-0.5-0.8c-0.3-0.3-0.7-0.4-1.2-0.4c-0.6,0-1.1,0.2-1.4,0.7c-0.3,0.4-0.5,1-0.5,1.7c0,0.7,0.2,1.3,0.5,1.7
		c0.3,0.4,0.8,0.7,1.4,0.7c0.5,0,0.8-0.1,1.1-0.4c0.3-0.2,0.5-0.5,0.6-0.8H559.5z"/>
	<path fill="#221F20" d="M564.8,296v-3.7c0-0.6-0.1-1-0.4-1.2c-0.2-0.2-0.6-0.4-1.1-0.4c-0.5,0-0.9,0.2-1.3,0.5
		c-0.3,0.3-0.5,0.8-0.5,1.3v3.5h-1.1v-8.5h1.1v3c0.3-0.3,0.6-0.5,1-0.7c0.4-0.2,0.9-0.3,1.4-0.2c0.7,0.1,1.1,0.4,1.4,0.8
		c0.3,0.5,0.4,0.9,0.4,1.3v4.2H564.8z"/>
	<path fill="#221F20" d="M568.3,294.5c0.3-0.9,0.4-1.9,0.4-2.8c0-0.9-0.1-1.8-0.4-2.8c-0.3-0.9-0.7-2-1.4-3h0.9
		c0.4,0.6,0.9,1.4,1.4,2.4c0.5,1,0.7,2.1,0.7,3.4c0,1.3-0.2,2.5-0.7,3.4c-0.5,1-0.9,1.8-1.4,2.4H567
		C567.6,296.4,568.1,295.4,568.3,294.5z"/>
</g>
<g>
	<path fill="#221F20" d="M725.9,291c-0.5,0.1-1.1,0.1-1.5,0.1l-2,0v-4.7h1.2v3.6l0.9,0c0.3,0,0.8,0,1.4-0.1c0.6-0.1,1-0.1,1.2-0.2v1
		C726.8,290.9,726.4,290.9,725.9,291z M730.4,296c-0.7,0.4-1.7,0.6-3.1,0.6c-1.3,0-2.4-0.2-3.1-0.6c-0.7-0.4-1.1-0.9-1.1-1.6
		c0-0.6,0.4-1.2,1.1-1.6c0.7-0.4,1.7-0.6,3.1-0.6c1.4,0,2.4,0.2,3.1,0.6c0.7,0.4,1,0.9,1,1.6C731.4,295.1,731.1,295.6,730.4,296z
		 M729.3,293.5c-0.5-0.2-1.2-0.3-2-0.3c-0.8,0-1.5,0.1-2,0.3c-0.5,0.2-0.8,0.5-0.8,0.9s0.3,0.7,0.8,0.9c0.5,0.2,1.2,0.3,2,0.3
		c0.8,0,1.5-0.1,2-0.3c0.5-0.2,0.8-0.5,0.8-0.9C730.1,294.1,729.8,293.8,729.3,293.5z M730.2,292.1v-2.6h-1.4v2.3h-1.2v-5.7h1.2v2.3
		h1.4v-2.5h1.2v6.2H730.2z"/>
	<path fill="#221F20" d="M732.6,291.9v-1h4.6v-1.2h-3.3v-3.5h7.8v1h-6.6v1.5h6.7v1h-3.4v1.2h4.7v1H732.6z M741,296.1
		c-0.7,0.4-1.8,0.6-3.1,0.6c-1.3,0-2.4-0.2-3.1-0.6c-0.7-0.4-1.1-0.9-1.1-1.5c0-0.6,0.4-1.1,1.1-1.5c0.7-0.4,1.8-0.6,3.1-0.6
		c1.4,0,2.4,0.2,3.1,0.6c0.7,0.4,1.1,0.9,1.1,1.5C742.1,295.2,741.7,295.7,741,296.1z M735.8,293.8c-0.5,0.2-0.8,0.5-0.8,0.8
		c0,0.3,0.3,0.6,0.8,0.8c0.5,0.2,1.2,0.3,2.1,0.3c0.8,0,1.5-0.1,2-0.3c0.5-0.2,0.8-0.5,0.8-0.8c0-0.3-0.3-0.6-0.8-0.8
		c-0.5-0.2-1.2-0.3-2-0.3C737,293.5,736.3,293.6,735.8,293.8z"/>
	<path fill="#221F20" d="M748.5,288.1c0.1-0.2,0.1-0.4,0.1-0.5h-3.8v-1h5.3c0,1.3-0.5,2.5-1.4,3.7c-0.9,1.1-2.2,1.9-4,2.4l-0.7-0.8
		c0.6-0.2,1.3-0.5,2.1-0.9c0.8-0.4,1.4-0.9,1.6-1.4c-0.2,0-0.4,0.1-0.7,0.1c-0.2,0-0.5,0-0.7,0l-1.9,0v-0.9l2.4,0c0.3,0,0.5,0,0.8,0
		c0.3,0,0.5,0,0.7-0.1C748.4,288.5,748.5,288.3,748.5,288.1z M745.8,296.2V293h1.2v2.2h6.6v1H745.8z M752.2,293.5V290h-2.3v-1h2.3
		v-3h1.2v7.6H752.2z"/>
	<path fill="#221F20" d="M759.4,294.2c-0.3,0-0.6,0-0.9,0.1c-0.6,0-1.3,0-1.9,0c-0.6,0-1,0-1,0V287h3.9v1h-2.7v2h2.5v1h-2.5v2.2
		l1.7,0c0.3,0,0.6,0,0.9-0.1c0.3,0,0.5-0.1,0.8-0.1v1C759.9,294.1,759.7,294.2,759.4,294.2z M761,296v-5.2h-1.3v-1h1.3v-3.6h1.2v9.8
		H761z M763.3,296.4v-10.6h1.2v10.6H763.3z"/>
	<path fill="#221F20" d="M771.4,293.4c-0.5,0.7-1.2,1.1-2.1,1.1c-0.9,0-1.6-0.4-2.1-1.1c-0.5-0.7-0.8-1.7-0.8-2.8
		c0-1.2,0.3-2.1,0.8-2.8c0.5-0.7,1.2-1.1,2.1-1.1c0.9,0,1.6,0.4,2.1,1.1c0.5,0.7,0.8,1.7,0.8,2.8
		C772.1,291.8,771.9,292.7,771.4,293.4z M770.5,288.6c-0.3-0.6-0.7-0.8-1.2-0.8c-0.5,0-1,0.3-1.3,0.9c-0.3,0.6-0.4,1.2-0.4,2
		c0,0.8,0.1,1.4,0.4,2c0.3,0.6,0.7,0.8,1.3,0.8c0.5,0,0.9-0.3,1.2-0.8c0.3-0.6,0.4-1.2,0.4-2C771,289.8,770.8,289.1,770.5,288.6z
		 M774.2,296.4v-10.6h1.2v10.6H774.2z"/>
	<path fill="#221F20" d="M782.4,293.8c-0.7,0.1-1.4,0.1-2.1,0.2l-2.5,0v-7.1h1.2v6.1l1.4,0c0.6,0,1.2-0.1,1.9-0.1
		c0.7-0.1,1.3-0.2,1.7-0.3v1C783.6,293.6,783.1,293.7,782.4,293.8z M785.1,296.4v-6.4H782v-1h3.1v-3.1h1.2v10.6H785.1z"/>
	<path fill="#221F20" d="M707.8,311.4c-0.4-0.6-0.9-1.4-1.4-2.4c-0.5-1-0.7-2.1-0.7-3.4c0-1.3,0.2-2.5,0.7-3.4
		c0.5-1,0.9-1.8,1.4-2.4h0.9c-0.6,1.1-1.1,2.1-1.4,3c-0.3,0.9-0.4,1.9-0.4,2.8c0,0.9,0.1,1.8,0.4,2.8c0.3,0.9,0.7,2,1.4,3H707.8z"/>
	<path fill="#221F20" d="M715.3,309.8l-2.5-3.6h-1.9v3.5h-1.1v-8.5h3.5c0.8,0,1.5,0.2,2.1,0.7c0.6,0.4,0.8,1,0.8,1.8
		c0,0.6-0.2,1.1-0.6,1.5c-0.4,0.4-0.9,0.7-1.5,0.9l2.5,3.7H715.3z M714.5,304.9c0.4-0.3,0.6-0.6,0.6-1.1c0-0.5-0.2-0.9-0.5-1.1
		c-0.3-0.2-0.7-0.3-1.1-0.3h-2.4v2.9h2.4C713.7,305.3,714.1,305.1,714.5,304.9z"/>
	<path fill="#221F20" d="M717.9,307.1c0,0.6,0.2,1.1,0.6,1.5c0.4,0.4,0.8,0.6,1.4,0.6c0.5,0,0.9-0.1,1.2-0.3
		c0.3-0.2,0.4-0.4,0.5-0.6h1.2c-0.1,0.4-0.4,0.8-0.9,1.2c-0.4,0.4-1.1,0.6-1.9,0.6c-0.9,0-1.6-0.3-2.2-0.9c-0.6-0.6-0.9-1.4-0.9-2.3
		c0-0.9,0.3-1.7,0.8-2.3s1.3-0.9,2.2-0.9c0.8,0,1.6,0.3,2.2,0.8c0.6,0.6,0.9,1.5,0.9,2.7H717.9z M721.8,306.2c0-0.6-0.2-1-0.6-1.4
		c-0.3-0.3-0.8-0.5-1.4-0.5c-0.5,0-1,0.2-1.3,0.5c-0.3,0.3-0.6,0.8-0.6,1.4H721.8z"/>
	<path fill="#221F20" d="M724.7,307.1c0,0.6,0.2,1.1,0.6,1.5c0.4,0.4,0.8,0.6,1.4,0.6c0.5,0,0.9-0.1,1.2-0.3
		c0.3-0.2,0.4-0.4,0.5-0.6h1.2c-0.1,0.4-0.4,0.8-0.9,1.2c-0.4,0.4-1.1,0.6-1.9,0.6c-0.9,0-1.6-0.3-2.2-0.9c-0.6-0.6-0.9-1.4-0.9-2.3
		c0-0.9,0.3-1.7,0.8-2.3s1.3-0.9,2.2-0.9c0.8,0,1.6,0.3,2.2,0.8c0.6,0.6,0.9,1.5,0.9,2.7H724.7z M728.5,306.2c0-0.6-0.2-1-0.6-1.4
		c-0.3-0.3-0.8-0.5-1.4-0.5c-0.5,0-1,0.2-1.3,0.5c-0.3,0.3-0.6,0.8-0.6,1.4H728.5z"/>
	<path fill="#221F20" d="M731.9,304.6v5.2h-1.1v-5.2l-0.8,0v-0.9l0.8,0V303c0-0.3,0-0.6,0.1-0.7c0-0.2,0.1-0.3,0.2-0.5
		c0.1-0.1,0.2-0.3,0.4-0.4c0.2-0.1,0.4-0.1,0.6-0.1h0.8v0.9c-0.1,0-0.2,0-0.3,0c-0.1,0-0.3,0-0.4,0.1c-0.1,0.1-0.2,0.2-0.2,0.3
		c0,0.1,0,0.3,0,0.4v0.6l0.9,0v0.9H731.9z"/>
	<path fill="#221F20" d="M734.1,307.1c0,0.6,0.2,1.1,0.6,1.5c0.4,0.4,0.8,0.6,1.4,0.6c0.5,0,0.9-0.1,1.2-0.3
		c0.3-0.2,0.4-0.4,0.5-0.6h1.2c-0.1,0.4-0.4,0.8-0.9,1.2c-0.4,0.4-1.1,0.6-1.9,0.6c-0.9,0-1.6-0.3-2.2-0.9c-0.6-0.6-0.9-1.4-0.9-2.3
		c0-0.9,0.3-1.7,0.8-2.3c0.6-0.6,1.3-0.9,2.2-0.9c0.8,0,1.6,0.3,2.2,0.8c0.6,0.6,0.9,1.5,0.9,2.7H734.1z M738,306.2
		c0-0.6-0.2-1-0.6-1.4c-0.3-0.3-0.8-0.5-1.4-0.5c-0.5,0-1,0.2-1.3,0.5c-0.3,0.3-0.6,0.8-0.6,1.4H738z"/>
	<path fill="#221F20" d="M743.4,304.6c-0.2,0-0.4,0-0.6,0c-0.2,0-0.3,0.1-0.5,0.1c-0.4,0.2-0.6,0.4-0.8,0.8
		c-0.2,0.3-0.3,0.8-0.3,1.4v2.9h-1.1v-6.1h1.1v0.9l0.1,0c0.1-0.2,0.3-0.4,0.5-0.6c0.2-0.1,0.4-0.3,0.6-0.4c0.2-0.1,0.4-0.1,0.6-0.1
		c0.2,0,0.3,0,0.3,0V304.6z"/>
	<path fill="#221F20" d="M754.5,303.8c-0.1-0.4-0.4-0.8-0.8-1.1c-0.4-0.4-0.9-0.6-1.7-0.6c-0.8,0-1.5,0.3-2,0.9
		c-0.5,0.6-0.7,1.5-0.7,2.5c0,1.1,0.2,1.9,0.7,2.6c0.5,0.6,1.1,1,2,1c0.7,0,1.3-0.2,1.7-0.6c0.4-0.4,0.6-0.8,0.8-1.3l1.2,0
		c-0.2,0.6-0.5,1.3-1.1,1.9c-0.6,0.7-1.4,1-2.6,1c-1.2,0-2.2-0.4-2.9-1.2c-0.7-0.8-1-1.9-1-3.3c0-1.3,0.3-2.4,1-3.2
		c0.7-0.8,1.7-1.2,2.9-1.2c1.1,0,2,0.3,2.6,0.9c0.6,0.6,0.9,1.2,1.1,1.8H754.5z"/>
	<path fill="#221F20" d="M761.8,304.4c0.6,0.6,0.8,1.4,0.8,2.4c0,1-0.3,1.7-0.8,2.4c-0.6,0.6-1.3,0.9-2.3,0.9c-1,0-1.7-0.3-2.3-0.9
		c-0.6-0.6-0.8-1.4-0.8-2.4c0-1,0.3-1.7,0.8-2.4c0.6-0.6,1.3-0.9,2.3-0.9C760.5,303.4,761.3,303.8,761.8,304.4z M761,308.5
		c0.4-0.4,0.6-1,0.6-1.8c0-0.7-0.2-1.3-0.6-1.7c-0.4-0.4-0.8-0.7-1.4-0.7c-0.6,0-1.1,0.2-1.5,0.7c-0.4,0.4-0.5,1-0.5,1.7
		c0,0.7,0.2,1.3,0.5,1.8c0.4,0.4,0.8,0.7,1.5,0.7C760.1,309.2,760.6,308.9,761,308.5z"/>
	<path fill="#221F20" d="M767.9,309.8v-3.7c0-0.6-0.1-1-0.4-1.2c-0.2-0.2-0.6-0.4-1.1-0.4c-0.5,0-0.9,0.2-1.3,0.5
		c-0.3,0.3-0.5,0.8-0.5,1.3v3.5h-1.1v-6.2h1.1v0.7c0.3-0.3,0.6-0.5,1-0.7s0.9-0.3,1.4-0.2c0.7,0.1,1.1,0.4,1.4,0.8
		c0.3,0.5,0.4,0.9,0.4,1.3v4.2H767.9z"/>
	<path fill="#221F20" d="M771.8,309.8c-0.2,0-0.4-0.1-0.6-0.2s-0.3-0.2-0.4-0.4c-0.1-0.1-0.2-0.3-0.2-0.4c0-0.2-0.1-0.4-0.1-0.7
		v-3.5h-0.8v-0.9l0.8,0v-1.9h1.1v1.9l0.9,0v0.9h-0.9v3.4c0,0.1,0,0.3,0,0.4c0,0.1,0.1,0.2,0.2,0.3c0.1,0.1,0.2,0.1,0.4,0.2
		c0.1,0,0.3,0,0.4,0l0,0.9H771.8z"/>
	<path fill="#221F20" d="M778,309.8c-0.1-0.1-0.1-0.3-0.1-0.4c0-0.2,0-0.3-0.1-0.5c-0.2,0.3-0.6,0.5-1,0.7c-0.4,0.2-0.8,0.3-1.3,0.4
		c-0.6,0-1.2-0.1-1.6-0.3c-0.5-0.2-0.7-0.7-0.8-1.2c-0.1-0.6,0-1,0.3-1.3c0.3-0.3,0.7-0.5,1.1-0.7c0.4-0.1,0.8-0.2,1.2-0.2
		c0.4,0,0.8-0.1,1.2-0.1c0.2,0,0.4-0.1,0.6-0.1c0.2-0.1,0.3-0.2,0.3-0.5c0-0.3-0.1-0.5-0.4-0.8c-0.2-0.2-0.7-0.4-1.2-0.4
		c-0.6,0-1,0.1-1.3,0.3c-0.3,0.2-0.4,0.5-0.3,0.8h-1.1c-0.1-0.7,0.2-1.2,0.7-1.5c0.6-0.4,1.2-0.5,2-0.5c0.7,0,1.3,0.2,1.9,0.5
		c0.6,0.4,0.8,0.9,0.8,1.5v3.4c0,0.3,0,0.5,0.1,0.7c0.1,0.2,0.1,0.3,0.1,0.3H778z M777.8,306.6c-0.1,0.1-0.2,0.1-0.3,0.2
		c-0.1,0.1-0.2,0.1-0.4,0.1c-0.2,0.1-0.6,0.1-1,0.1c-0.4,0-0.7,0.1-0.9,0.1c-0.4,0.1-0.6,0.3-0.8,0.4c-0.2,0.2-0.3,0.4-0.2,0.7
		c0,0.3,0.2,0.5,0.5,0.7c0.3,0.1,0.6,0.2,0.9,0.1c0.7,0,1.3-0.3,1.6-0.6c0.4-0.4,0.6-0.7,0.6-1V306.6z"/>
	<path fill="#221F20" d="M780.3,302.3v-1.1h1.1v1.1H780.3z M780.3,309.8v-6.2h1.1v6.2H780.3z"/>
	<path fill="#221F20" d="M787.2,309.8v-3.7c0-0.6-0.1-1-0.4-1.2c-0.2-0.2-0.6-0.4-1.1-0.4c-0.5,0-0.9,0.2-1.3,0.5
		c-0.3,0.3-0.5,0.8-0.5,1.3v3.5h-1.1v-6.2h1.1v0.7c0.3-0.3,0.6-0.5,1-0.7s0.9-0.3,1.4-0.2c0.7,0.1,1.1,0.4,1.4,0.8
		c0.3,0.5,0.4,0.9,0.4,1.3v4.2H787.2z"/>
	<path fill="#221F20" d="M790.4,307.1c0,0.6,0.2,1.1,0.6,1.5c0.4,0.4,0.8,0.6,1.4,0.6c0.5,0,0.9-0.1,1.2-0.3
		c0.3-0.2,0.4-0.4,0.5-0.6h1.2c-0.1,0.4-0.4,0.8-0.9,1.2c-0.4,0.4-1.1,0.6-1.9,0.6c-0.9,0-1.6-0.3-2.2-0.9c-0.6-0.6-0.9-1.4-0.9-2.3
		c0-0.9,0.3-1.7,0.8-2.3c0.6-0.6,1.3-0.9,2.2-0.9c0.8,0,1.6,0.3,2.2,0.8c0.6,0.6,0.9,1.5,0.9,2.7H790.4z M794.3,306.2
		c0-0.6-0.2-1-0.6-1.4c-0.3-0.3-0.8-0.5-1.4-0.5c-0.5,0-1,0.2-1.3,0.5c-0.3,0.3-0.6,0.8-0.6,1.4H794.3z"/>
	<path fill="#221F20" d="M799.7,304.6c-0.2,0-0.4,0-0.6,0c-0.2,0-0.3,0.1-0.5,0.1c-0.4,0.2-0.6,0.4-0.8,0.8
		c-0.2,0.3-0.3,0.8-0.3,1.4v2.9h-1.1v-6.1h1.1v0.9l0.1,0c0.1-0.2,0.3-0.4,0.5-0.6c0.2-0.1,0.4-0.3,0.6-0.4c0.2-0.1,0.4-0.1,0.6-0.1
		c0.2,0,0.3,0,0.3,0V304.6z"/>
	<path fill="#221F20" d="M801.5,308.3c0.3-0.9,0.4-1.9,0.4-2.8c0-0.9-0.1-1.8-0.4-2.8c-0.3-0.9-0.7-2-1.4-3h0.9
		c0.4,0.6,0.9,1.4,1.4,2.4c0.5,1,0.7,2.1,0.7,3.4c0,1.3-0.2,2.5-0.7,3.4c-0.5,1-0.9,1.8-1.4,2.4h-0.9
		C800.8,310.3,801.2,309.3,801.5,308.3z"/>
</g>
<g>
	<path fill="#221F20" d="M955.4,293.3v3.7h-1.2v-3.7h-4.7v-1h10.6v1H955.4z M950.9,291v-4.2h7.7v4.2H950.9z M957.4,287.9h-5.3v2.1
		h5.3V287.9z"/>
	<path fill="#221F20" d="M964.8,291.7c-0.6,1.4-1.6,2.5-3.1,3.4l-0.9-0.7c1.2-0.6,2.1-1.5,2.7-2.6c0.6-1.1,0.9-2.1,0.9-3h-2.9v-1
		h4.2C965.7,289,965.4,290.3,964.8,291.7z M967,296.5v-4.9h-1.5v-1.1h1.5v-3.8h1.2v9.8H967z M969.2,297v-10.6h1.2V297H969.2z"/>
	<path fill="#221F20" d="M973.9,297.5c-0.4-0.6-0.9-1.4-1.4-2.4c-0.5-1-0.7-2.1-0.7-3.4c0-1.3,0.2-2.5,0.7-3.4
		c0.5-1,0.9-1.8,1.4-2.4h0.9c-0.6,1.1-1.1,2.1-1.4,3c-0.3,0.9-0.4,1.9-0.4,2.8c0,0.9,0.1,1.8,0.4,2.8c0.3,0.9,0.7,2,1.4,3H973.9z"/>
	<path fill="#221F20" d="M983.2,296H982l-1.7-6.7h-0.1l-1.7,6.7h-1.2l-2.2-8.5h1.1l1.7,6.7h0.1l1.7-6.7h1.3l1.7,6.7h0.1l1.7-6.7h1.1
		L983.2,296z"/>
	<path fill="#221F20" d="M986.3,293.2c0,0.6,0.2,1.1,0.6,1.5c0.4,0.4,0.8,0.6,1.4,0.6c0.5,0,0.9-0.1,1.2-0.3
		c0.3-0.2,0.4-0.4,0.5-0.6h1.2c-0.1,0.4-0.4,0.8-0.9,1.2c-0.4,0.4-1.1,0.6-1.9,0.6c-0.9,0-1.6-0.3-2.2-0.9c-0.6-0.6-0.9-1.4-0.9-2.3
		c0-0.9,0.3-1.7,0.8-2.3c0.6-0.6,1.3-0.9,2.2-0.9c0.8,0,1.6,0.3,2.2,0.8c0.6,0.6,0.9,1.5,0.9,2.7H986.3z M990.1,292.4
		c0-0.6-0.2-1-0.6-1.4c-0.3-0.3-0.8-0.5-1.4-0.5c-0.5,0-1,0.2-1.3,0.5c-0.3,0.3-0.5,0.8-0.6,1.4H990.1z"/>
	<path fill="#221F20" d="M992.3,288.5v-1.1h1.1v1.1H992.3z M992.3,295.9v-6.2h1.1v6.2H992.3z"/>
	<path fill="#221F20" d="M1000.6,295.1c0,1-0.3,1.7-0.9,2.1c-0.6,0.4-1.3,0.6-2,0.6c-0.9,0-1.6-0.2-2.1-0.6
		c-0.5-0.4-0.8-0.9-0.8-1.4h1.1c0,0.3,0.2,0.5,0.5,0.8c0.3,0.2,0.8,0.3,1.4,0.3s1.1-0.1,1.4-0.4c0.3-0.3,0.4-0.7,0.4-1.2v-0.6
		c-0.3,0.3-0.6,0.5-1,0.7c-0.4,0.2-0.7,0.2-1.1,0.2c-0.8,0-1.5-0.3-2.1-0.8c-0.6-0.6-0.9-1.3-0.9-2.1c0-0.9,0.3-1.6,0.8-2.1
		c0.6-0.5,1.3-0.8,2.1-0.8c0.4,0,0.8,0.1,1.1,0.2c0.4,0.2,0.7,0.4,1,0.7v-0.6h1.1V295.1z M999,294c0.4-0.3,0.6-0.8,0.6-1.5
		c0-0.7-0.2-1.2-0.6-1.5c-0.4-0.3-0.8-0.5-1.4-0.5c-0.6,0-1.1,0.2-1.4,0.5c-0.4,0.3-0.5,0.8-0.5,1.5c0,0.7,0.2,1.2,0.5,1.5
		c0.4,0.3,0.8,0.5,1.4,0.5C998.2,294.5,998.6,294.3,999,294z"/>
	<path fill="#221F20" d="M1006.4,296v-3.7c0-0.6-0.1-1-0.4-1.2c-0.2-0.2-0.6-0.4-1.1-0.4c-0.5,0-0.9,0.2-1.3,0.5
		c-0.3,0.3-0.5,0.8-0.5,1.3v3.5h-1.1v-8.5h1.1v3c0.3-0.3,0.6-0.5,1-0.7c0.4-0.2,0.9-0.3,1.4-0.2c0.7,0.1,1.1,0.4,1.4,0.8
		c0.3,0.5,0.4,0.9,0.4,1.3v4.2H1006.4z"/>
	<path fill="#221F20" d="M1010.4,296c-0.2,0-0.4-0.1-0.6-0.2c-0.2-0.1-0.3-0.2-0.4-0.4c-0.1-0.1-0.2-0.3-0.2-0.4
		c0-0.2-0.1-0.4-0.1-0.7v-3.5h-0.8v-0.9l0.8,0v-1.9h1.1v1.9l0.9,0v0.9h-0.9v3.4c0,0.1,0,0.3,0,0.4c0,0.1,0.1,0.2,0.2,0.3
		c0.1,0.1,0.2,0.1,0.4,0.2c0.1,0,0.3,0,0.4,0l0,0.9H1010.4z"/>
	<path fill="#221F20" d="M1013.1,294.5c0.3-0.9,0.4-1.9,0.4-2.8c0-0.9-0.1-1.8-0.4-2.8c-0.3-0.9-0.7-2-1.4-3h0.9
		c0.4,0.6,0.9,1.4,1.4,2.4c0.5,1,0.7,2.1,0.7,3.4c0,1.3-0.2,2.5-0.7,3.4c-0.5,1-0.9,1.8-1.4,2.4h-0.9
		C1012.4,296.4,1012.9,295.4,1013.1,294.5z"/>
</g>
<g>
	<path fill="#221F20" d="M243.8,292.6c-0.5-0.2-1.1-0.6-1.6-1.1c-0.6-0.5-1-1-1.2-1.5c-0.2,0.6-0.6,1.1-1.1,1.6
		c-0.5,0.5-1.1,0.9-1.7,1.3l-0.8-0.8c1.5-0.7,2.3-1.5,2.6-2.4c0.3-0.9,0.4-1.6,0.4-2.1v-0.9h1.3v0.9c0,0.5,0.2,1.1,0.5,2
		c0.3,0.9,1.1,1.6,2.4,2.1L243.8,292.6z M239.6,296.7v-3.3h1.2v2.3h6.6v1H239.6z M245.9,294.1v-4.3h-2.2v-1.1h2.2v-2.3h1.2v7.6
		H245.9z"/>
	<path fill="#221F20" d="M249,292.2v-5.3h1.2v1.8h2.9v-1.8h1.2v5.3H249z M256.3,297v-2.7h-6.5v-1h7.7v3.7H256.3z M253.1,289.7h-2.9
		v1.5h2.9V289.7z M257.5,290v2.7h-1.2v-6.3h1.2v2.6h1.5v1H257.5z"/>
	<path fill="#221F20" d="M268.2,294.6c-0.4,0-0.9,0.1-1.6,0.1l-2.1,0v-6.9h3.8v1h-2.6v4.8l1.4,0c0.4,0,0.7,0,1.1-0.1
		c0.4,0,0.6-0.1,0.8-0.1v1C268.9,294.5,268.6,294.5,268.2,294.6z M269.8,296.5v-5h-2v-1.1h2v-3.7h1.2v9.8H269.8z M272.2,297v-10.6
		h1.2V297H272.2z"/>
	<path fill="#221F20" d="M274.7,295.4v-1h7.1c0.1-0.3,0.1-0.7,0.2-1.2c0.1-0.5,0.2-1,0.3-1.6c-0.3,0-0.7,0.1-1.1,0.1
		c-0.4,0-0.8,0-1.2,0.1c-0.7,0-1.5,0-2.5,0c-1,0-1.6,0-1.7,0v-1c0.1,0,0.7,0,1.8,0c1.1,0,1.9,0,2.5,0c0.4,0,0.9-0.1,1.3-0.1
		c0.4,0,0.8-0.1,1.2-0.1c0.1-0.5,0.1-0.9,0.1-1.1c0-0.3,0.1-0.5,0.1-0.8h-6.7v-1h8c0,0.5-0.1,1.5-0.3,3.1c-0.2,1.6-0.4,2.8-0.6,3.6
		h2.2v1H274.7z"/>
	<path fill="#221F20" d="M288,297.5c-0.4-0.6-0.9-1.4-1.4-2.4c-0.5-1-0.7-2.1-0.7-3.4c0-1.3,0.2-2.5,0.7-3.4c0.5-1,0.9-1.8,1.4-2.4
		h0.9c-0.6,1.1-1.1,2.1-1.4,3c-0.3,0.9-0.4,1.9-0.4,2.8c0,0.9,0.1,1.8,0.4,2.8c0.3,0.9,0.7,2,1.4,3H288z"/>
	<path fill="#221F20" d="M294,296h-1.3l-3.4-8.5h1.2l2.9,7.2l2.9-7.2h1.1L294,296z"/>
	<path fill="#221F20" d="M297.6,293.2c0,0.6,0.2,1.1,0.6,1.5c0.4,0.4,0.8,0.6,1.4,0.6c0.5,0,0.9-0.1,1.2-0.3
		c0.3-0.2,0.4-0.4,0.5-0.6h1.2c-0.1,0.4-0.4,0.8-0.9,1.2c-0.4,0.4-1.1,0.6-1.9,0.6c-0.9,0-1.6-0.3-2.2-0.9c-0.6-0.6-0.9-1.4-0.9-2.3
		c0-0.9,0.3-1.7,0.8-2.3c0.6-0.6,1.3-0.9,2.2-0.9c0.8,0,1.6,0.3,2.2,0.8c0.6,0.6,0.9,1.5,0.9,2.7H297.6z M301.5,292.4
		c0-0.6-0.2-1-0.6-1.4c-0.3-0.3-0.8-0.5-1.4-0.5c-0.5,0-1,0.2-1.3,0.5c-0.3,0.3-0.6,0.8-0.6,1.4H301.5z"/>
	<path fill="#221F20" d="M308.2,293.3c0.2,0.2,0.3,0.5,0.3,0.9c0,0.6-0.3,1-0.8,1.4c-0.5,0.4-1.1,0.5-1.8,0.5
		c-1.1,0-1.8-0.3-2.2-0.8c-0.4-0.5-0.6-1-0.6-1.4h1.1c0,0.3,0.2,0.6,0.5,0.9c0.3,0.2,0.7,0.3,1.2,0.3c0.4,0,0.8-0.1,1-0.2
		c0.3-0.1,0.4-0.4,0.5-0.6c0-0.2,0-0.4-0.1-0.5c-0.1-0.1-0.3-0.3-0.5-0.4c-0.3-0.2-0.7-0.3-1.1-0.3c-0.4-0.1-0.7-0.1-1-0.2
		c-0.4-0.1-0.7-0.3-0.9-0.6c-0.2-0.3-0.4-0.6-0.3-1c0-0.5,0.3-0.9,0.7-1.2c0.4-0.4,1-0.6,1.8-0.6c0.9,0,1.5,0.2,1.9,0.7
		c0.4,0.5,0.6,0.9,0.6,1.3h-1.1c0-0.2-0.1-0.4-0.3-0.6c-0.2-0.2-0.6-0.4-1.2-0.4c-0.5,0-0.8,0.1-1,0.3c-0.2,0.2-0.3,0.4-0.3,0.6
		c0,0.3,0.1,0.5,0.3,0.6s0.4,0.2,0.6,0.3c0.3,0.1,0.6,0.1,1,0.2c0.4,0.1,0.7,0.2,1,0.3C307.7,292.9,308,293.1,308.2,293.3z"/>
	<path fill="#221F20" d="M314.2,293.3c0.2,0.2,0.3,0.5,0.3,0.9c0,0.6-0.3,1-0.8,1.4c-0.5,0.4-1.1,0.5-1.8,0.5
		c-1.1,0-1.8-0.3-2.2-0.8c-0.4-0.5-0.6-1-0.6-1.4h1.1c0,0.3,0.2,0.6,0.5,0.9c0.3,0.2,0.7,0.3,1.2,0.3c0.4,0,0.8-0.1,1-0.2
		c0.3-0.1,0.4-0.4,0.5-0.6c0-0.2,0-0.4-0.1-0.5c-0.1-0.1-0.3-0.3-0.5-0.4c-0.3-0.2-0.7-0.3-1.1-0.3c-0.4-0.1-0.7-0.1-1-0.2
		c-0.4-0.1-0.7-0.3-0.9-0.6c-0.2-0.3-0.4-0.6-0.3-1c0-0.5,0.3-0.9,0.7-1.2c0.4-0.4,1-0.6,1.8-0.6c0.9,0,1.5,0.2,1.9,0.7
		c0.4,0.5,0.6,0.9,0.6,1.3h-1.1c0-0.2-0.1-0.4-0.3-0.6c-0.2-0.2-0.6-0.4-1.2-0.4c-0.5,0-0.8,0.1-1,0.3c-0.2,0.2-0.3,0.4-0.3,0.6
		c0,0.3,0.1,0.5,0.3,0.6s0.4,0.2,0.6,0.3c0.3,0.1,0.6,0.1,1,0.2c0.4,0.1,0.7,0.2,1,0.3C313.7,292.9,314,293.1,314.2,293.3z"/>
	<path fill="#221F20" d="M316.2,293.2c0,0.6,0.2,1.1,0.6,1.5c0.4,0.4,0.8,0.6,1.4,0.6c0.5,0,0.9-0.1,1.2-0.3
		c0.3-0.2,0.4-0.4,0.5-0.6h1.2c-0.1,0.4-0.4,0.8-0.9,1.2c-0.4,0.4-1.1,0.6-1.9,0.6c-0.9,0-1.6-0.3-2.2-0.9c-0.6-0.6-0.9-1.4-0.9-2.3
		c0-0.9,0.3-1.7,0.8-2.3c0.6-0.6,1.3-0.9,2.2-0.9c0.8,0,1.6,0.3,2.2,0.8c0.6,0.6,0.9,1.5,0.9,2.7H316.2z M320.1,292.4
		c0-0.6-0.2-1-0.6-1.4c-0.3-0.3-0.8-0.5-1.4-0.5c-0.5,0-1,0.2-1.3,0.5c-0.3,0.3-0.6,0.8-0.6,1.4H320.1z"/>
	<path fill="#221F20" d="M322.2,296v-8.5h1.1v8.5H322.2z"/>
	<path fill="#221F20" d="M325.2,297.3H324l4.2-11.1h1.2L325.2,297.3z"/>
	<path fill="#221F20" d="M335.9,288.6c0.7,0.8,1.1,1.8,1.1,3c0,1.2-0.4,2.3-1.1,3.1c-0.7,0.8-1.7,1.2-2.9,1.2h-2.9v-8.5h2.9
		C334.2,287.4,335.2,287.8,335.9,288.6z M335,294c0.5-0.6,0.7-1.4,0.7-2.3c0-0.9-0.2-1.7-0.7-2.3c-0.5-0.6-1.2-0.9-2.2-0.9h-1.5v6.5
		h1.5C333.8,295,334.5,294.7,335,294z"/>
	<path fill="#221F20" d="M338.9,293.2c0,0.6,0.2,1.1,0.6,1.5c0.4,0.4,0.8,0.6,1.4,0.6c0.5,0,0.9-0.1,1.2-0.3
		c0.3-0.2,0.4-0.4,0.5-0.6h1.2c-0.1,0.4-0.4,0.8-0.9,1.2c-0.4,0.4-1.1,0.6-1.9,0.6c-0.9,0-1.6-0.3-2.2-0.9c-0.6-0.6-0.9-1.4-0.9-2.3
		c0-0.9,0.3-1.7,0.8-2.3c0.6-0.6,1.3-0.9,2.2-0.9c0.8,0,1.6,0.3,2.2,0.8c0.6,0.6,0.9,1.5,0.9,2.7H338.9z M342.7,292.4
		c0-0.6-0.2-1-0.6-1.4c-0.3-0.3-0.8-0.5-1.4-0.5c-0.5,0-1,0.2-1.3,0.5c-0.3,0.3-0.6,0.8-0.6,1.4H342.7z"/>
	<path fill="#221F20" d="M350.5,294c-0.1,0.6-0.5,1.1-0.9,1.5c-0.5,0.4-1.1,0.7-2,0.7c-1,0-1.7-0.3-2.3-0.9
		c-0.6-0.6-0.8-1.4-0.8-2.4c0-1,0.3-1.7,0.8-2.4c0.6-0.6,1.3-0.9,2.3-0.9c0.8,0,1.5,0.2,2,0.7c0.5,0.5,0.8,1,0.9,1.5h-1.2
		c-0.1-0.3-0.2-0.5-0.5-0.8c-0.3-0.3-0.7-0.4-1.2-0.4c-0.6,0-1.1,0.2-1.4,0.7c-0.3,0.4-0.5,1-0.5,1.7c0,0.7,0.2,1.3,0.5,1.7
		c0.3,0.4,0.8,0.7,1.4,0.7c0.5,0,0.8-0.1,1.1-0.4c0.3-0.2,0.5-0.5,0.6-0.8H350.5z"/>
	<path fill="#221F20" d="M356.1,296l-2.6-3.1l-0.9,0.7v2.4h-1.1v-8.5h1.1v4.9l2.8-2.6h1.4l-2.6,2.5l3.2,3.7H356.1z"/>
	<path fill="#221F20" d="M359,294.5c0.3-0.9,0.4-1.9,0.4-2.8c0-0.9-0.1-1.8-0.4-2.8c-0.3-0.9-0.7-2-1.4-3h0.9
		c0.4,0.6,0.9,1.4,1.4,2.4c0.5,1,0.7,2.1,0.7,3.4c0,1.3-0.2,2.5-0.7,3.4c-0.5,1-0.9,1.8-1.4,2.4h-0.9
		C358.2,296.4,358.7,295.4,359,294.5z"/>
</g>
<g>
	<path d="M544.3,413.1h-35.2v-35.2h35.2V413.1z M512.3,409.9h28.8v-28.8h-28.8V409.9z"/>
	<polygon points="526.7,397 513.7,361 539.7,361 	"/>
</g>
<g>
	<path d="M789.2,399.6h-69.5l9.9-19.1h49.7L789.2,399.6z M724.2,396.8h60.5l-7.1-13.6h-46.3L724.2,396.8z"/>
	<polygon fill="#FFFFFF" points="733.4,379.8 727.9,379.8 725.2,384.6 725.2,394.3 736.2,394.3 736.2,384.6 	"/>
	<path d="M737.3,395.5H724v-11.2l3.2-5.7h6.8l3.2,5.7V395.5z M726.3,393.2h8.7v-8.2l-2.3-4h-4.2l-2.3,4V393.2z"/>
	<line fill="#FFFFFF" x1="725.2" y1="384.6" x2="736.2" y2="384.6"/>
	<rect x="725.2" y="383.5" width="11" height="2.3"/>
	<polygon fill="#FFFFFF" points="733.4,366.4 727.9,366.4 725.2,371.3 725.2,381 736.2,381 736.2,371.3 	"/>
	<path d="M737.3,382.1H724V371l3.2-5.7h6.8l3.2,5.7V382.1z M726.3,379.8h8.7v-8.2l-2.3-4h-4.2l-2.3,4V379.8z"/>
	<line fill="#FFFFFF" x1="725.2" y1="371.3" x2="736.2" y2="371.3"/>
	<rect x="725.2" y="370.1" width="11" height="2.3"/>
	<polygon fill="#FFFFFF" points="780.4,379.8 774.9,379.8 772.2,384.6 772.2,394.3 783.2,394.3 783.2,384.6 	"/>
	<path d="M784.3,395.5H771v-11.2l3.2-5.7h6.8l3.2,5.7V395.5z M773.3,393.2h8.7v-8.2l-2.3-4h-4.2l-2.3,4V393.2z"/>
	<line fill="#FFFFFF" x1="772.2" y1="384.6" x2="783.2" y2="384.6"/>
	<rect x="772.2" y="383.5" width="11" height="2.3"/>
	<polygon fill="#FFFFFF" points="780.4,366.4 774.9,366.4 772.2,371.3 772.2,381 783.2,381 783.2,371.3 	"/>
	<path d="M784.3,382.1H771V371l3.2-5.7h6.8l3.2,5.7V382.1z M773.3,379.8h8.7v-8.2l-2.3-4h-4.2l-2.3,4V379.8z"/>
	<line fill="#FFFFFF" x1="772.2" y1="371.3" x2="783.2" y2="371.3"/>
	<rect x="772.2" y="370.1" width="11" height="2.3"/>
	<g>
		<polygon points="750.1,366.8 747,366.8 746.5,368.8 749.6,368.8 		"/>
		<polygon points="745.2,373.8 748.3,373.8 748.8,371.8 745.7,371.8 		"/>
		<polygon points="743.9,378.8 747,378.8 747.5,376.8 744.4,376.8 		"/>
		<polygon points="742.6,383.8 745.7,383.8 746.2,381.8 743.1,381.8 		"/>
		<polygon points="741.2,388.8 744.3,388.8 744.9,386.8 741.8,386.8 		"/>
		<polygon points="739.9,393.8 743,393.8 743.6,391.8 740.5,391.8 		"/>
		<polygon points="738.6,398.8 741.7,398.8 742.2,396.8 739.1,396.8 		"/>
		<polygon points="737.3,403.8 740.4,403.8 740.9,401.8 737.8,401.8 		"/>
		<polygon points="736,408.8 739.1,408.8 739.6,406.8 736.5,406.8 		"/>
	</g>
	<g>
		<polygon points="772.1,408.8 769,408.8 768.5,406.8 771.6,406.8 		"/>
		<polygon points="767.2,401.8 770.3,401.8 770.8,403.8 767.7,403.8 		"/>
		<polygon points="765.9,396.8 769,396.8 769.5,398.8 766.4,398.8 		"/>
		<polygon points="764.6,391.8 767.7,391.8 768.2,393.8 765.1,393.8 		"/>
		<polygon points="763.2,386.8 766.3,386.8 766.9,388.8 763.8,388.8 		"/>
		<polygon points="761.9,381.8 765,381.8 765.6,383.8 762.5,383.8 		"/>
		<polygon points="760.6,376.8 763.7,376.8 764.2,378.8 761.1,378.8 		"/>
		<polygon points="759.3,371.8 762.4,371.8 762.9,373.8 759.8,373.8 		"/>
		<polygon points="758,366.8 761.1,366.8 761.6,368.8 758.5,368.8 		"/>
	</g>
</g>
<g>
	<path d="M991.5,394.1c-3,0-5.5,2.5-5.5,5.5s2.5,5.5,5.5,5.5c3,0,5.5-2.5,5.5-5.5S994.5,394.1,991.5,394.1z M991.5,402.1
		c-1.4,0-2.5-1.1-2.5-2.5c0-1.4,1.1-2.5,2.5-2.5s2.5,1.1,2.5,2.5C994,400.9,992.8,402.1,991.5,402.1z"/>
	<polygon points="995,384.1 988.5,384.1 988.5,387.1 998,387.1 998,377.6 995,377.6 	"/>
	<path d="M952.1,388.6v3H972v6.5h-3.2c-0.7-2.3-2.8-4-5.3-4c-2.5,0-4.6,1.7-5.3,4h-6.1v3h6.1c0.7,2.3,2.8,4,5.3,4
		c2.5,0,4.6-1.7,5.3-4h6.2v-12.5H952.1z M963.5,402.1c-1.4,0-2.5-1.1-2.5-2.5c0-1.4,1.1-2.5,2.5-2.5s2.5,1.1,2.5,2.5
		C966,400.9,964.8,402.1,963.5,402.1z"/>
	<polygon points="1008.1,398.1 1004,398.1 1004,391.6 1008.1,391.6 1012.1,391.6 1012.1,388.6 1008.1,388.6 1004,388.6 1004,369.1 
		991.1,369.1 979,389.1 979,399.1 981,399.1 982,399.1 984,399.1 984,396.1 982,396.1 982,390 992.8,372.1 1001,372.1 1001,401.1 
		1008.1,401.1 1012.1,401.1 1012.1,398.1 	"/>
</g>
<rect x="23" y="23" fill="#00A0E9" width="18" height="18"/>
<path d="M43,21V8H8v35h13v13h35V21H43z M37.4,40l2.6-2.6V40H37.4z M34.6,40h-3.2l8.6-8.6v3.2L34.6,40z M28.6,40h-3.2L40,25.4v3.2
	L28.6,40z M26.6,24L24,26.6V24H26.6z M29.4,24h3.2L24,32.6v-3.2L29.4,24z M35.4,24h3.2L24,38.6v-3.2L35.4,24z M11,40V11h29v10h-1.6
	h-2.8h-3.2h-2.8H21v8.6v2.8v3.2v2.8V40H11z M53,53H24V43h1.6h2.8h3.2h2.8H43v-8.6v-2.8v-3.2v-2.8V24h10V53z"/>
<g>
	<path fill="#221F20" d="M452.2,423.3c-0.5,0.5-1.2,0.8-2.1,0.8c-0.8,0-1.5-0.3-2.1-0.8c-0.6-0.5-0.8-1.1-0.8-1.8
		c0-0.7,0.3-1.3,0.8-1.8c0.6-0.5,1.3-0.8,2.1-0.8c0.9,0,1.6,0.3,2.1,0.8c0.5,0.5,0.8,1.1,0.8,1.8C453,422.2,452.7,422.8,452.2,423.3
		z M451.3,420.4c-0.3-0.3-0.7-0.5-1.2-0.5c-0.5,0-1,0.2-1.2,0.5s-0.4,0.7-0.4,1.1c0,0.4,0.1,0.8,0.4,1.1c0.3,0.3,0.7,0.5,1.2,0.5
		c0.5,0,1-0.2,1.2-0.5c0.3-0.3,0.4-0.7,0.4-1.1C451.8,421,451.6,420.7,451.3,420.4z M455.4,428.7c-0.7,0.4-1.7,0.6-3,0.6
		c-1.3,0-2.3-0.2-3-0.6c-0.7-0.4-1-0.9-1-1.5c0-0.6,0.3-1.1,1-1.5c0.7-0.4,1.7-0.6,3-0.6c1.3,0,2.3,0.2,3,0.6c0.7,0.4,1,0.9,1,1.5
		C456.4,427.8,456.1,428.3,455.4,428.7z M454.3,426.3c-0.5-0.2-1.1-0.3-1.9-0.3c-0.8,0-1.5,0.1-1.9,0.3c-0.5,0.2-0.7,0.5-0.7,0.9
		c0,0.3,0.2,0.6,0.7,0.9c0.5,0.2,1.1,0.4,1.9,0.4c0.8,0,1.5-0.1,1.9-0.3c0.5-0.2,0.7-0.5,0.7-0.9
		C455.1,426.8,454.8,426.5,454.3,426.3z M456.1,423.2v1.6h-1.2v-6.3h1.2v1.4h1.5v1h-1.5v1.2h1.5v1H456.1z"/>
	<path fill="#221F20" d="M458.2,422v-1h6.6v1H458.2z M463.6,426.9c-0.5,0.5-1.2,0.8-2.1,0.8c-0.9,0-1.6-0.3-2.1-0.8
		c-0.5-0.5-0.8-1.1-0.8-1.7c0-0.6,0.3-1.2,0.8-1.7c0.5-0.5,1.3-0.7,2.1-0.7c0.8,0,1.5,0.2,2.1,0.7c0.5,0.5,0.8,1,0.8,1.7
		C464.4,425.8,464.2,426.4,463.6,426.9z M459.8,420.1v-1h3.5v1H459.8z M462.8,424.2c-0.3-0.3-0.7-0.4-1.2-0.4c-0.5,0-1,0.1-1.2,0.4
		c-0.3,0.3-0.4,0.6-0.4,1c0,0.4,0.1,0.7,0.4,1c0.3,0.3,0.7,0.4,1.2,0.4c0.5,0,0.9-0.1,1.2-0.4c0.3-0.3,0.4-0.6,0.4-1
		C463.2,424.8,463.1,424.5,462.8,424.2z M467.2,418.5v4.3h1.6v1.1h-1.6v5.2H466v-10.6H467.2z"/>
	<path fill="#221F20" d="M478,420.7c0.1-0.2,0.1-0.4,0.1-0.5h-3.8v-1h5.3c0,1.3-0.5,2.5-1.4,3.7c-0.9,1.1-2.2,1.9-4,2.4l-0.7-0.8
		c0.6-0.2,1.3-0.5,2.1-0.9c0.8-0.4,1.4-0.9,1.6-1.4c-0.2,0-0.4,0.1-0.7,0.1c-0.2,0-0.5,0-0.7,0l-1.9,0v-0.9l2.4,0c0.3,0,0.5,0,0.8,0
		c0.3,0,0.5,0,0.7-0.1C477.9,421.1,478,420.9,478,420.7z M475.4,428.9v-3.2h1.2v2.2h6.6v1H475.4z M481.7,426.2v-3.6h-2.3v-1h2.3v-3
		h1.2v7.6H481.7z"/>
	<path fill="#221F20" d="M488.9,426.8c-0.3,0-0.6,0-0.9,0.1c-0.6,0-1.3,0-1.9,0c-0.6,0-1,0-1,0v-7.3h3.9v1h-2.7v2h2.5v1h-2.5v2.2
		l1.7,0c0.3,0,0.6,0,0.9-0.1c0.3,0,0.5-0.1,0.8-0.1v1C489.5,426.8,489.2,426.8,488.9,426.8z M490.6,428.6v-5.2h-1.3v-1h1.3v-3.6h1.2
		v9.8H490.6z M492.8,429.1v-10.6h1.2v10.6H492.8z"/>
	<path fill="#221F20" d="M500.9,426.1c-0.5,0.7-1.2,1.1-2.1,1.1c-0.9,0-1.6-0.4-2.1-1.1c-0.5-0.7-0.8-1.7-0.8-2.8
		c0-1.2,0.3-2.1,0.8-2.8c0.5-0.7,1.2-1.1,2.1-1.1c0.9,0,1.6,0.4,2.1,1.1c0.5,0.7,0.8,1.7,0.8,2.8
		C501.7,424.4,501.4,425.4,500.9,426.1z M500.1,421.2c-0.3-0.6-0.7-0.8-1.2-0.8c-0.5,0-1,0.3-1.3,0.9c-0.3,0.6-0.4,1.2-0.4,2
		c0,0.8,0.1,1.4,0.4,2c0.3,0.6,0.7,0.8,1.3,0.8c0.5,0,0.9-0.3,1.2-0.8c0.3-0.6,0.4-1.2,0.4-2C500.5,422.5,500.3,421.8,500.1,421.2z
		 M503.8,429.1v-10.6h1.2v10.6H503.8z"/>
	<path fill="#221F20" d="M511.9,426.5c-0.7,0.1-1.4,0.1-2.1,0.2l-2.5,0v-7.1h1.2v6.1l1.4,0c0.6,0,1.2-0.1,1.9-0.1
		c0.7-0.1,1.3-0.2,1.7-0.3v1C513.2,426.3,512.6,426.4,511.9,426.5z M514.6,429.1v-6.4h-3.1v-1h3.1v-3.1h1.2v10.6H514.6z"/>
	<path fill="#221F20" d="M526.9,423.1c-0.6,0.5-1.2,0.7-2,0.7c-0.7,0-1.4-0.2-2-0.7c-0.6-0.5-0.9-1-0.9-1.8c0-0.7,0.3-1.3,0.9-1.8
		c0.6-0.4,1.2-0.7,2-0.7c0.7,0,1.4,0.2,2,0.7c0.6,0.4,0.9,1,0.9,1.8C527.8,422,527.5,422.6,526.9,423.1z M526.1,420.3
		c-0.3-0.3-0.7-0.4-1.1-0.4c-0.4,0-0.8,0.1-1.1,0.4c-0.3,0.3-0.5,0.6-0.5,1c0,0.4,0.2,0.7,0.5,1c0.3,0.3,0.7,0.4,1.1,0.4
		c0.4,0,0.8-0.1,1.1-0.4c0.3-0.3,0.5-0.6,0.5-1C526.6,420.9,526.4,420.6,526.1,420.3z M523.7,429v-2.7h6.3v-0.8h-6.3v-0.9h7.6v2.7
		H525v0.8h6.6v0.9H523.7z M530.1,424.1v-5.6h1.2v5.6H530.1z"/>
	<path fill="#221F20" d="M537.2,426.7c-0.4,0-0.9,0.1-1.6,0.1l-2.1,0v-6.9h3.8v1h-2.6v4.8l1.4,0c0.4,0,0.7,0,1.1-0.1
		c0.4,0,0.6-0.1,0.8-0.1v1C537.8,426.6,537.5,426.6,537.2,426.7z M541.1,429.1v-5.5h-1.4v5h-1.2v-9.8h1.2v3.7h1.4v-4h1.2v10.6H541.1
		z"/>
	<path fill="#221F20" d="M549,423.1c-0.6,0.5-1.2,0.7-2,0.7c-0.7,0-1.4-0.2-2-0.7c-0.6-0.5-0.9-1-0.9-1.8c0-0.7,0.3-1.3,0.9-1.8
		c0.6-0.4,1.2-0.7,2-0.7c0.7,0,1.4,0.2,2,0.7c0.6,0.4,0.9,1,0.9,1.8C549.9,422,549.6,422.6,549,423.1z M548.2,420.3
		c-0.3-0.3-0.7-0.4-1.1-0.4c-0.4,0-0.8,0.1-1.1,0.4c-0.3,0.3-0.5,0.6-0.5,1c0,0.4,0.2,0.7,0.5,1c0.3,0.3,0.7,0.4,1.1,0.4
		c0.4,0,0.8-0.1,1.1-0.4c0.3-0.3,0.5-0.6,0.5-1C548.7,420.9,548.5,420.6,548.2,420.3z M545.7,429v-2.7h6.3v-0.8h-6.3v-0.9h7.6v2.7
		h-6.3v0.8h6.6v0.9H545.7z M552.2,424.1v-5.6h1.2v5.6H552.2z"/>
	<path fill="#221F20" d="M565.2,425.2c-0.8,0.1-1.4,0.1-1.8,0.1v3.5h-1.2v-3.5h-2.9v-1h3.2c0.6,0,1.4,0,2.5-0.1
		c1.1-0.1,1.8-0.1,2.1-0.2v1C566.6,425.1,566,425.2,565.2,425.2z M565,419.4c0.5,0.5,0.8,1,0.8,1.6c0,0.6-0.3,1.1-0.8,1.6
		c-0.5,0.4-1.2,0.7-2,0.7c-0.8,0-1.5-0.2-2-0.7c-0.5-0.4-0.8-1-0.8-1.6c0-0.6,0.3-1.1,0.8-1.6c0.5-0.5,1.2-0.7,2-0.7
		C563.8,418.8,564.5,419,565,419.4z M561.8,420.1c-0.3,0.3-0.4,0.6-0.4,0.9c0,0.3,0.1,0.6,0.4,0.9c0.3,0.3,0.7,0.4,1.2,0.4
		c0.5,0,0.9-0.1,1.2-0.4c0.3-0.3,0.4-0.6,0.4-0.9c0-0.3-0.1-0.6-0.4-0.9c-0.3-0.3-0.7-0.4-1.2-0.4
		C562.4,419.7,562,419.9,561.8,420.1z M567.5,429.1v-10.6h1.2v10.6H567.5z"/>
	<path fill="#221F20" d="M576.4,427.2c-0.3-0.2-0.8-0.5-1.4-1c-0.6-0.5-1-1-1.2-1.5c-0.2,0.5-0.6,1.1-1.1,1.6
		c-0.6,0.6-1.1,0.9-1.6,1.1l-0.9-0.9c1.3-0.6,2.2-1.4,2.5-2.2c0.3-0.8,0.5-1.4,0.5-1.8v-0.4h-2.4v-1h6v1h-2.4v0.4
		c0,0.5,0.2,1.1,0.5,1.7c0.3,0.7,1.1,1.3,2.3,2L576.4,427.2z M572.1,420.1v-1h3.4v1H572.1z M578.5,429.1v-10.6h1.2v10.6H578.5z"/>
	<path fill="#221F20" d="M591.7,427c-0.5-0.3-1-0.7-1.5-1.3c-0.6-0.6-0.9-1.1-1.1-1.7c-0.2,0.7-0.6,1.3-1.2,1.9
		c-0.5,0.6-1.1,1-1.6,1.4l-1-0.8c1.2-0.7,2-1.5,2.5-2.4c0.4-0.9,0.6-1.8,0.6-2.6v-0.8h-2.4v-1h6.1v1h-2.4v0.8c0,0.8,0.2,1.7,0.6,2.5
		c0.4,0.8,1.1,1.5,2.1,2.1L591.7,427z M593.9,429.1v-10.6h1.2v10.6H593.9z"/>
	<path fill="#221F20" d="M602.8,424.5c-0.4-0.1-0.9-0.4-1.4-0.7c-0.5-0.4-1-0.8-1.4-1.3c-0.2,0.5-0.6,0.9-1.2,1.4
		c-0.6,0.5-1.1,0.8-1.6,0.9l-0.8-0.8c1.3-0.5,2.1-1.1,2.5-1.8c0.3-0.7,0.5-1.2,0.5-1.6v-0.3h-2.2v-1h5.8v1h-2.2v0.3
		c0,0.4,0.2,0.9,0.5,1.6c0.3,0.6,1.1,1.1,2.3,1.5L602.8,424.5z M605.2,428.7c-0.7,0.4-1.7,0.6-3,0.6c-1.3,0-2.3-0.2-3-0.6
		c-0.7-0.4-1-0.9-1-1.5c0-0.6,0.3-1.1,1-1.5c0.7-0.4,1.7-0.6,3-0.6c1.3,0,2.3,0.2,3,0.6c0.7,0.4,1,0.9,1,1.5
		C606.2,427.8,605.9,428.3,605.2,428.7z M604.2,426.4c-0.5-0.2-1.1-0.3-1.9-0.3c-0.8,0-1.5,0.1-2,0.3s-0.8,0.5-0.8,0.8
		c0,0.3,0.3,0.6,0.8,0.8c0.5,0.2,1.2,0.3,2,0.3c0.8,0,1.5-0.1,1.9-0.3c0.5-0.2,0.7-0.5,0.7-0.8C604.9,426.9,604.7,426.6,604.2,426.4
		z M604.9,424.9V422h-2.1v-1h2.1v-2.4h1.2v6.4H604.9z"/>
	<path fill="#221F20" d="M474.9,444c-0.4-0.6-0.9-1.4-1.4-2.4c-0.5-1-0.7-2.1-0.7-3.4c0-1.3,0.2-2.5,0.7-3.4c0.5-1,0.9-1.8,1.4-2.4
		h0.9c-0.6,1.1-1.1,2.1-1.4,3c-0.3,0.9-0.4,1.9-0.4,2.8c0,0.9,0.1,1.8,0.4,2.8c0.3,0.9,0.7,2,1.4,3H474.9z"/>
	<path fill="#221F20" d="M476.9,442.5V434h1.1v8.5H476.9z"/>
	<path fill="#221F20" d="M486.8,442.5l0-3.9c0-0.5-0.1-0.9-0.2-1.1c-0.1-0.3-0.5-0.4-1-0.3c-0.4,0-0.7,0.2-1,0.5
		c-0.2,0.3-0.4,0.7-0.4,1.2v3.7h-1.1v-3.9c0-0.5-0.1-0.9-0.2-1.1c-0.1-0.3-0.5-0.4-0.9-0.3c-0.4,0-0.8,0.2-1,0.5
		c-0.2,0.3-0.4,0.7-0.4,1.2v3.7h-1.1v-6.2h1.1v0.7c0.2-0.2,0.5-0.5,0.8-0.7c0.3-0.2,0.8-0.3,1.3-0.3c0.3,0,0.5,0.1,0.8,0.3
		c0.2,0.2,0.4,0.4,0.6,0.8c0.2-0.2,0.4-0.4,0.8-0.7c0.4-0.3,0.9-0.4,1.5-0.3c0.6,0.1,1,0.3,1.2,0.8c0.2,0.4,0.3,0.9,0.3,1.4v4.2
		H486.8z"/>
	<path fill="#221F20" d="M494.6,437c0.6,0.6,0.8,1.4,0.8,2.4c0,1-0.3,1.8-0.8,2.4c-0.6,0.6-1.3,0.9-2.1,0.9c-0.4,0-0.8-0.1-1.1-0.2
		c-0.4-0.2-0.7-0.4-1-0.7v2.4h-1.1v-7.9h1.1v0.6c0.3-0.3,0.6-0.5,1-0.6c0.4-0.2,0.7-0.2,1.1-0.2C493.4,436.1,494.1,436.4,494.6,437z
		 M493.8,441.1c0.4-0.4,0.5-1,0.5-1.8c0-0.8-0.2-1.3-0.5-1.7c-0.4-0.4-0.8-0.6-1.5-0.6c-0.6,0-1.1,0.2-1.5,0.6
		c-0.3,0.4-0.5,1-0.5,1.7c0,0.8,0.2,1.3,0.5,1.8c0.3,0.4,0.8,0.6,1.5,0.6C492.9,441.8,493.4,441.6,493.8,441.1z"/>
	<path fill="#221F20" d="M501.5,437c0.6,0.6,0.8,1.4,0.8,2.4c0,1-0.3,1.7-0.8,2.4c-0.6,0.6-1.3,0.9-2.3,0.9c-1,0-1.7-0.3-2.3-0.9
		c-0.6-0.6-0.8-1.4-0.8-2.4c0-1,0.3-1.7,0.8-2.4c0.6-0.6,1.3-0.9,2.3-0.9C500.2,436.1,500.9,436.4,501.5,437z M500.6,441.1
		c0.4-0.4,0.6-1,0.6-1.8c0-0.7-0.2-1.3-0.6-1.7c-0.4-0.4-0.8-0.7-1.4-0.7c-0.6,0-1.1,0.2-1.5,0.7c-0.4,0.4-0.5,1-0.5,1.7
		c0,0.7,0.2,1.3,0.5,1.8c0.4,0.4,0.8,0.7,1.5,0.7C499.8,441.8,500.3,441.6,500.6,441.1z"/>
	<path fill="#221F20" d="M506.5,437.2c-0.2,0-0.4,0-0.6,0c-0.2,0-0.3,0.1-0.5,0.1c-0.4,0.2-0.6,0.4-0.8,0.8
		c-0.2,0.3-0.3,0.8-0.3,1.4v2.9h-1.1v-6.1h1.1v0.9l0.1,0c0.1-0.2,0.3-0.4,0.5-0.6c0.2-0.1,0.4-0.3,0.6-0.4c0.2-0.1,0.4-0.1,0.6-0.1
		c0.2,0,0.3,0,0.3,0V437.2z"/>
	<path fill="#221F20" d="M509.1,442.5c-0.2,0-0.4-0.1-0.6-0.2c-0.2-0.1-0.3-0.2-0.4-0.4c-0.1-0.1-0.2-0.3-0.2-0.4
		c0-0.2-0.1-0.4-0.1-0.7v-3.5h-0.8v-0.9l0.8,0v-1.9h1.1v1.9l0.9,0v0.9h-0.9v3.4c0,0.1,0,0.3,0,0.4c0,0.1,0.1,0.2,0.2,0.3
		c0.1,0.1,0.2,0.1,0.4,0.2c0.1,0,0.3,0,0.4,0l0,0.9H509.1z"/>
	<path fill="#221F20" d="M521.4,442.5l-0.9-2.1h-4.3l-0.9,2.1h-1.2l3.5-8.5h1.3l3.5,8.5H521.4z M518.4,435.1l-1.7,4.2h3.4
		L518.4,435.1z"/>
	<path fill="#221F20" d="M527.7,439.9c0.2,0.2,0.3,0.5,0.3,0.9c0,0.6-0.3,1-0.8,1.4c-0.5,0.4-1.1,0.5-1.8,0.5
		c-1.1,0-1.8-0.3-2.2-0.8c-0.4-0.5-0.6-1-0.6-1.4h1.1c0,0.3,0.2,0.6,0.5,0.9c0.3,0.2,0.7,0.3,1.2,0.3c0.4,0,0.8-0.1,1-0.2
		c0.3-0.1,0.4-0.4,0.5-0.6c0-0.2,0-0.4-0.1-0.5c-0.1-0.1-0.3-0.3-0.5-0.4c-0.3-0.2-0.7-0.3-1.1-0.3c-0.4-0.1-0.7-0.1-1-0.2
		c-0.4-0.1-0.7-0.3-0.9-0.6c-0.2-0.3-0.4-0.6-0.3-1c0-0.5,0.3-0.9,0.7-1.2c0.4-0.4,1-0.6,1.8-0.6c0.9,0,1.5,0.2,1.9,0.7
		c0.4,0.5,0.6,0.9,0.6,1.3h-1.1c0-0.2-0.1-0.4-0.3-0.6c-0.2-0.2-0.6-0.4-1.2-0.4c-0.5,0-0.8,0.1-1,0.3c-0.2,0.2-0.3,0.4-0.3,0.6
		c0,0.3,0.1,0.5,0.3,0.6c0.2,0.1,0.4,0.2,0.6,0.3c0.3,0.1,0.6,0.1,1,0.2c0.4,0.1,0.7,0.2,1,0.3C527.1,439.4,527.4,439.6,527.7,439.9
		z"/>
	<path fill="#221F20" d="M533.6,439.9c0.2,0.2,0.3,0.5,0.3,0.9c0,0.6-0.3,1-0.8,1.4c-0.5,0.4-1.1,0.5-1.8,0.5
		c-1.1,0-1.8-0.3-2.2-0.8c-0.4-0.5-0.6-1-0.6-1.4h1.1c0,0.3,0.2,0.6,0.5,0.9c0.3,0.2,0.7,0.3,1.2,0.3c0.4,0,0.8-0.1,1-0.2
		c0.3-0.1,0.4-0.4,0.5-0.6c0-0.2,0-0.4-0.1-0.5c-0.1-0.1-0.3-0.3-0.5-0.4c-0.3-0.2-0.7-0.3-1.1-0.3c-0.4-0.1-0.7-0.1-1-0.2
		c-0.4-0.1-0.7-0.3-0.9-0.6c-0.2-0.3-0.4-0.6-0.3-1c0-0.5,0.3-0.9,0.7-1.2c0.4-0.4,1-0.6,1.8-0.6c0.9,0,1.5,0.2,1.9,0.7
		c0.4,0.5,0.6,0.9,0.6,1.3h-1.1c0-0.2-0.1-0.4-0.3-0.6c-0.2-0.2-0.6-0.4-1.2-0.4c-0.5,0-0.8,0.1-1,0.3c-0.2,0.2-0.3,0.4-0.3,0.6
		c0,0.3,0.1,0.5,0.3,0.6s0.4,0.2,0.6,0.3c0.3,0.1,0.6,0.1,1,0.2c0.4,0.1,0.7,0.2,1,0.3C533.1,439.4,533.4,439.6,533.6,439.9z"/>
	<path fill="#221F20" d="M535,435v-1.1h1.1v1.1H535z M535,442.5v-6.2h1.1v6.2H535z"/>
	<path fill="#221F20" d="M543.3,441.6c0,1-0.3,1.7-0.9,2.1c-0.6,0.4-1.3,0.6-2,0.6c-0.9,0-1.6-0.2-2.1-0.6c-0.5-0.4-0.8-0.9-0.8-1.4
		h1.1c0,0.3,0.2,0.5,0.5,0.8c0.3,0.2,0.8,0.3,1.4,0.3s1.1-0.1,1.4-0.4c0.3-0.3,0.4-0.7,0.4-1.2V441c-0.3,0.3-0.6,0.5-1,0.7
		c-0.4,0.2-0.7,0.2-1.1,0.2c-0.8,0-1.5-0.3-2.1-0.8c-0.6-0.6-0.9-1.3-0.9-2.1c0-0.9,0.3-1.6,0.8-2.1c0.6-0.5,1.3-0.8,2.1-0.8
		c0.4,0,0.8,0.1,1.1,0.2c0.4,0.2,0.7,0.4,1,0.7v-0.6h1.1V441.6z M541.7,440.5c0.4-0.3,0.6-0.8,0.6-1.5c0-0.7-0.2-1.2-0.6-1.5
		c-0.4-0.3-0.8-0.5-1.4-0.5c-0.6,0-1.1,0.2-1.4,0.5c-0.4,0.3-0.5,0.8-0.5,1.5c0,0.7,0.2,1.2,0.5,1.5c0.4,0.3,0.8,0.5,1.4,0.5
		C540.8,441,541.3,440.8,541.7,440.5z"/>
	<path fill="#221F20" d="M549.1,442.5v-3.7c0-0.6-0.1-1-0.4-1.2c-0.2-0.2-0.6-0.4-1.1-0.4c-0.5,0-0.9,0.2-1.3,0.5
		c-0.3,0.3-0.5,0.8-0.5,1.3v3.5h-1.1v-6.2h1.1v0.7c0.3-0.3,0.6-0.5,1-0.7c0.4-0.2,0.9-0.3,1.4-0.2c0.7,0.1,1.1,0.4,1.4,0.8
		c0.3,0.5,0.4,0.9,0.4,1.3v4.2H549.1z"/>
	<path fill="#221F20" d="M559,442.5l0-3.9c0-0.5-0.1-0.9-0.2-1.1c-0.1-0.3-0.5-0.4-1-0.3c-0.4,0-0.7,0.2-1,0.5
		c-0.2,0.3-0.4,0.7-0.4,1.2v3.7h-1.1v-3.9c0-0.5-0.1-0.9-0.2-1.1c-0.1-0.3-0.5-0.4-0.9-0.3c-0.4,0-0.8,0.2-1,0.5
		c-0.2,0.3-0.4,0.7-0.4,1.2v3.7h-1.1v-6.2h1.1v0.7c0.2-0.2,0.5-0.5,0.8-0.7c0.3-0.2,0.8-0.3,1.3-0.3c0.3,0,0.5,0.1,0.8,0.3
		c0.2,0.2,0.4,0.4,0.6,0.8c0.2-0.2,0.4-0.4,0.8-0.7c0.4-0.3,0.9-0.4,1.5-0.3c0.6,0.1,1,0.3,1.2,0.8c0.2,0.4,0.3,0.9,0.3,1.4v4.2H559
		z"/>
	<path fill="#221F20" d="M562.1,439.7c0,0.6,0.2,1.1,0.6,1.5c0.4,0.4,0.8,0.6,1.4,0.6c0.5,0,0.9-0.1,1.2-0.3
		c0.3-0.2,0.4-0.4,0.5-0.6h1.2c-0.1,0.4-0.4,0.8-0.9,1.2c-0.4,0.4-1.1,0.6-1.9,0.6c-0.9,0-1.6-0.3-2.2-0.9c-0.6-0.6-0.9-1.4-0.9-2.3
		c0-0.9,0.3-1.7,0.8-2.3c0.6-0.6,1.3-0.9,2.2-0.9c0.8,0,1.6,0.3,2.2,0.8c0.6,0.6,0.9,1.5,0.9,2.7H562.1z M566,438.9
		c0-0.6-0.2-1-0.6-1.4c-0.3-0.3-0.8-0.5-1.4-0.5c-0.5,0-1,0.2-1.3,0.5c-0.3,0.3-0.5,0.8-0.6,1.4H566z"/>
	<path fill="#221F20" d="M572.5,442.5v-3.7c0-0.6-0.1-1-0.4-1.2c-0.2-0.2-0.6-0.4-1.1-0.4c-0.5,0-0.9,0.2-1.3,0.5
		c-0.3,0.3-0.5,0.8-0.5,1.3v3.5h-1.1v-6.2h1.1v0.7c0.3-0.3,0.6-0.5,1-0.7c0.4-0.2,0.9-0.3,1.4-0.2c0.7,0.1,1.1,0.4,1.4,0.8
		c0.3,0.5,0.4,0.9,0.4,1.3v4.2H572.5z"/>
	<path fill="#221F20" d="M576.4,442.5c-0.2,0-0.4-0.1-0.6-0.2c-0.2-0.1-0.3-0.2-0.4-0.4c-0.1-0.1-0.2-0.3-0.2-0.4
		c0-0.2-0.1-0.4-0.1-0.7v-3.5h-0.8v-0.9l0.8,0v-1.9h1.1v1.9l0.9,0v0.9h-0.9v3.4c0,0.1,0,0.3,0,0.4c0,0.1,0.1,0.2,0.2,0.3
		c0.1,0.1,0.2,0.1,0.4,0.2c0.1,0,0.3,0,0.4,0l0,0.9H576.4z"/>
	<path fill="#221F20" d="M579.2,441c0.3-0.9,0.4-1.9,0.4-2.8c0-0.9-0.1-1.8-0.4-2.8c-0.3-0.9-0.7-2-1.4-3h0.9
		c0.4,0.6,0.9,1.4,1.4,2.4c0.5,1,0.7,2.1,0.7,3.4c0,1.3-0.2,2.5-0.7,3.4c-0.5,1-0.9,1.8-1.4,2.4h-0.9
		C578.5,443,578.9,441.9,579.2,441z"/>
</g>
<g>
	<path fill="#221F20" d="M680.7,426.6c-0.5,0.7-1.2,1.1-2.1,1.1c-0.9,0-1.6-0.4-2.1-1.1c-0.5-0.7-0.8-1.7-0.8-2.8
		c0-1.2,0.3-2.1,0.8-2.8c0.5-0.7,1.2-1.1,2.1-1.1c0.9,0,1.6,0.4,2.1,1.1c0.5,0.7,0.8,1.7,0.8,2.8
		C681.5,424.9,681.2,425.9,680.7,426.6z M679.8,421.8c-0.3-0.6-0.7-0.8-1.2-0.8c-0.5,0-1,0.3-1.2,0.9c-0.3,0.6-0.4,1.2-0.4,2
		c0,0.8,0.1,1.4,0.4,2c0.3,0.6,0.7,0.8,1.2,0.8c0.5,0,1-0.3,1.2-0.8c0.3-0.6,0.4-1.2,0.4-2C680.3,423,680.1,422.3,679.8,421.8z
		 M684.5,426v3.7h-1.2v-10.6h1.2v2.6h1.6v1.1h-1.6v2.1h1.6v1.1H684.5z"/>
	<path fill="#221F20" d="M686.5,428.1v-1H697v1H686.5z M687.9,425.1v-5h7.8v1h-6.6v3h6.6v1H687.9z"/>
	<path fill="#221F20" d="M706.7,423.1c-0.8,1.1-2.1,1.8-3.9,2.3l-0.6-0.8c1-0.2,2-0.7,2.9-1.5c0.9-0.8,1.4-1.6,1.5-2.3h-3.7v-1h5.2
		C707.9,420.9,707.5,422,706.7,423.1z M710.6,429.2c-0.7,0.4-1.7,0.6-3,0.6c-1.3,0-2.3-0.2-3-0.6c-0.7-0.4-1.1-0.9-1.1-1.6
		c0-0.6,0.4-1.2,1.1-1.6c0.7-0.4,1.7-0.6,3-0.6c1.3,0,2.3,0.2,3,0.6c0.7,0.4,1.1,0.9,1.1,1.6C711.6,428.3,711.3,428.8,710.6,429.2z
		 M709.6,426.7c-0.5-0.2-1.2-0.3-2-0.3c-0.8,0-1.5,0.1-2,0.3c-0.5,0.2-0.8,0.5-0.8,0.9c0,0.4,0.3,0.7,0.8,0.9c0.5,0.2,1.2,0.3,2,0.3
		c0.8,0,1.5-0.1,2-0.3c0.5-0.2,0.8-0.5,0.8-0.9C710.4,427.3,710.1,427,709.6,426.7z M710.3,425.4v-1.5h-2.1v-1h2.1v-1.2h-2v-1h2
		v-1.6h1.2v6.3H710.3z"/>
	<path fill="#221F20" d="M717,424.3c-0.6,1.4-1.6,2.5-3.1,3.4l-0.9-0.7c1.2-0.6,2.1-1.5,2.7-2.6c0.6-1.1,0.9-2.1,0.9-3h-2.9v-1h4.2
		C717.9,421.6,717.6,422.9,717,424.3z M719.3,429.1v-3.6h-1.5v-1h1.5v-1.8H718v-1h1.3v-2.3h1.2v9.8H719.3z M721.5,429.6v-10.6h1.2
		v10.6H721.5z"/>
	<path fill="#221F20" d="M732.3,420.3v-1.3h1.2v6.3h-1.2v-1.8h-2.7c-0.3,0.3-0.6,0.5-1,0.7c-0.4,0.2-0.8,0.3-1.3,0.3
		c-0.8,0-1.5-0.3-2.1-0.8c-0.6-0.5-0.8-1.1-0.8-1.8c0-0.7,0.3-1.3,0.8-1.8c0.6-0.5,1.3-0.8,2.1-0.8c0.5,0,0.9,0.1,1.3,0.3
		c0.4,0.2,0.7,0.4,1,0.7H732.3z M728.5,420.9c-0.3-0.3-0.7-0.5-1.2-0.5c-0.5,0-1,0.2-1.2,0.5c-0.3,0.3-0.4,0.7-0.4,1.1
		c0,0.4,0.1,0.8,0.4,1.1c0.3,0.3,0.7,0.5,1.2,0.5c0.5,0,1-0.2,1.2-0.5c0.3-0.3,0.4-0.7,0.4-1.1C728.9,421.6,728.8,421.2,728.5,420.9
		z M732.6,429.2c-0.7,0.4-1.7,0.6-3,0.6c-1.3,0-2.3-0.2-3-0.6c-0.7-0.4-1-0.9-1-1.5c0-0.6,0.3-1.1,1-1.5c0.7-0.4,1.7-0.6,3-0.6
		c1.3,0,2.3,0.2,3,0.6c0.7,0.4,1,0.9,1,1.6C733.6,428.3,733.2,428.8,732.6,429.2z M731.6,426.8c-0.5-0.2-1.1-0.3-2-0.3
		c-0.8,0-1.5,0.1-2,0.3c-0.5,0.2-0.7,0.5-0.7,0.8c0,0.4,0.2,0.6,0.7,0.8c0.5,0.2,1.1,0.3,2,0.3c0.8,0,1.5-0.1,2-0.3
		c0.5-0.2,0.7-0.5,0.7-0.8C732.3,427.3,732,427.1,731.6,426.8z M732.3,422.6v-1.2h-2.2c0,0.1,0,0.2,0.1,0.3c0,0.1,0,0.2,0,0.3
		c0,0.1,0,0.2,0,0.3c0,0.1,0,0.2-0.1,0.3H732.3z"/>
	<path fill="#221F20" d="M743.3,420.4v-1.3h1.2v6.2h-1.2v-1.7h-2.7c-0.3,0.3-0.6,0.5-1,0.7s-0.9,0.3-1.4,0.3c-0.8,0-1.5-0.3-2.1-0.8
		c-0.6-0.5-0.8-1.1-0.8-1.8c0-0.7,0.3-1.3,0.8-1.8c0.6-0.5,1.3-0.8,2.1-0.8c0.5,0,0.9,0.1,1.3,0.3c0.4,0.2,0.7,0.4,1,0.7H743.3z
		 M739.5,420.9c-0.3-0.3-0.7-0.5-1.2-0.5c-0.5,0-1,0.2-1.2,0.5c-0.3,0.3-0.4,0.7-0.4,1.1c0,0.4,0.1,0.8,0.4,1.1
		c0.3,0.3,0.7,0.5,1.2,0.5c0.5,0,1-0.2,1.2-0.5c0.3-0.3,0.4-0.7,0.4-1.1C739.9,421.6,739.8,421.2,739.5,420.9z M743.3,429.6v-2.8
		h-6.6v-1h7.8v3.8H743.3z M743.3,422.6v-1.2h-2.2c0,0.1,0,0.2,0.1,0.3c0,0.1,0,0.2,0,0.3c0,0.1,0,0.2,0,0.3c0,0.1,0,0.2,0,0.3H743.3
		z"/>
	<path fill="#221F20" d="M748.2,430.2c-0.4-0.6-0.9-1.4-1.4-2.4c-0.5-1-0.7-2.1-0.7-3.4c0-1.3,0.2-2.5,0.7-3.4
		c0.5-1,0.9-1.8,1.4-2.4h0.9c-0.6,1.1-1.1,2.1-1.4,3c-0.3,0.9-0.4,1.9-0.4,2.8c0,0.9,0.1,1.8,0.4,2.8c0.3,0.9,0.7,2,1.4,3H748.2z"/>
	<path fill="#221F20" d="M753.7,425.1v3.5h-1.1v-3.5l-3.2-5h1.3l2.4,3.9l2.4-3.9h1.3L753.7,425.1z"/>
	<path fill="#221F20" d="M760.5,428.6c-0.1-0.1-0.1-0.3-0.2-0.4c0-0.2,0-0.3-0.1-0.5c-0.2,0.3-0.6,0.5-1,0.7
		c-0.4,0.2-0.8,0.3-1.3,0.4c-0.6,0-1.2-0.1-1.6-0.3c-0.5-0.2-0.7-0.7-0.8-1.2c-0.1-0.6,0-1,0.3-1.3c0.3-0.3,0.7-0.5,1.1-0.7
		c0.4-0.1,0.8-0.2,1.2-0.2c0.4,0,0.8-0.1,1.2-0.1c0.2,0,0.4-0.1,0.6-0.1c0.2-0.1,0.3-0.2,0.3-0.5c0-0.3-0.1-0.5-0.4-0.8
		c-0.2-0.2-0.7-0.4-1.2-0.4c-0.6,0-1,0.1-1.3,0.3c-0.3,0.2-0.4,0.5-0.3,0.8h-1.1c-0.1-0.7,0.2-1.2,0.7-1.5c0.6-0.4,1.2-0.5,2-0.5
		c0.7,0,1.3,0.2,1.9,0.5c0.6,0.4,0.8,0.9,0.8,1.5v3.4c0,0.3,0,0.5,0.1,0.7c0.1,0.2,0.1,0.3,0.1,0.3H760.5z M760.3,425.4
		c-0.1,0.1-0.2,0.1-0.3,0.2c-0.1,0.1-0.2,0.1-0.4,0.1c-0.2,0.1-0.6,0.1-1,0.1c-0.4,0-0.7,0.1-0.9,0.1c-0.4,0.1-0.6,0.3-0.8,0.4
		c-0.2,0.2-0.3,0.4-0.2,0.7c0,0.3,0.2,0.5,0.5,0.7c0.3,0.1,0.6,0.2,0.9,0.1c0.7,0,1.3-0.3,1.6-0.6c0.4-0.4,0.6-0.7,0.6-1V425.4z"/>
	<path fill="#221F20" d="M766,423.4c-0.2,0-0.4,0-0.6,0c-0.2,0-0.3,0.1-0.5,0.1c-0.4,0.2-0.6,0.4-0.8,0.8c-0.2,0.3-0.3,0.8-0.3,1.4
		v2.9h-1.1v-6.1h1.1v0.9l0.1,0c0.1-0.2,0.3-0.4,0.5-0.6c0.2-0.1,0.4-0.3,0.6-0.4c0.2-0.1,0.4-0.1,0.6-0.1c0.2,0,0.3,0,0.3,0
		L766,423.4z"/>
	<path fill="#221F20" d="M771.1,428.6v-0.7c-0.3,0.3-0.6,0.5-0.9,0.7c-0.4,0.2-0.7,0.2-1.1,0.2c-0.9,0-1.6-0.3-2.2-0.9
		c-0.5-0.6-0.8-1.4-0.8-2.4c0-1,0.3-1.8,0.8-2.4c0.5-0.6,1.3-0.9,2.2-0.9c0.4,0,0.8,0.1,1.1,0.2c0.4,0.2,0.7,0.4,0.9,0.7v-3h1.1v8.5
		H771.1z M770.6,427.2c0.3-0.4,0.5-1,0.5-1.7c0-0.7-0.2-1.3-0.5-1.7c-0.3-0.4-0.8-0.6-1.4-0.6c-0.6,0-1.1,0.2-1.4,0.6
		c-0.3,0.4-0.5,1-0.5,1.6c0,0.7,0.2,1.2,0.5,1.7c0.3,0.4,0.8,0.6,1.4,0.6C769.8,427.8,770.3,427.6,770.6,427.2z"/>
	<path fill="#221F20" d="M784,424.8c0.4,0.4,0.5,0.9,0.5,1.5c0,0.7-0.4,1.3-0.9,1.7c-0.6,0.4-1.3,0.6-2.1,0.6H778v-8.5h3.6
		c0.8,0,1.3,0.2,1.8,0.5c0.4,0.4,0.7,0.8,0.8,1.3c0.1,0.5,0,0.9-0.2,1.3c-0.2,0.4-0.5,0.6-0.8,0.8
		C783.3,424.2,783.7,424.5,784,424.8z M782.5,423.3c0.3-0.2,0.4-0.6,0.4-1c0-0.4-0.1-0.7-0.4-0.9c-0.3-0.2-0.7-0.3-1.2-0.3H779v2.6
		h2.3C781.8,423.7,782.2,423.5,782.5,423.3z M782.8,427.2c0.3-0.3,0.4-0.6,0.5-1.1c0-0.5-0.1-0.8-0.5-1.1c-0.3-0.2-0.8-0.4-1.3-0.4
		H779v2.9h2.4C782.1,427.6,782.5,427.5,782.8,427.2z"/>
	<path fill="#221F20" d="M790.6,423.2c0.6,0.6,0.8,1.4,0.8,2.4c0,1-0.3,1.7-0.8,2.4c-0.6,0.6-1.3,0.9-2.3,0.9c-1,0-1.7-0.3-2.3-0.9
		c-0.6-0.6-0.8-1.4-0.8-2.4c0-1,0.3-1.7,0.8-2.4c0.6-0.6,1.3-0.9,2.3-0.9C789.3,422.2,790,422.5,790.6,423.2z M789.7,427.3
		c0.4-0.4,0.6-1,0.6-1.8c0-0.7-0.2-1.3-0.6-1.7c-0.4-0.4-0.8-0.7-1.4-0.7c-0.6,0-1.1,0.2-1.5,0.7c-0.4,0.4-0.5,1-0.5,1.7
		c0,0.7,0.2,1.3,0.5,1.8c0.4,0.4,0.8,0.7,1.5,0.7C788.9,427.9,789.4,427.7,789.7,427.3z"/>
	<path fill="#221F20" d="M796.6,428.6v-0.8c-0.2,0.3-0.5,0.5-0.8,0.7c-0.4,0.2-0.8,0.3-1.3,0.3c-0.5,0-1-0.2-1.5-0.6
		c-0.5-0.4-0.7-1-0.7-1.7v-4.1h1.1v3.7c0,0.6,0.1,1,0.4,1.2c0.3,0.3,0.6,0.4,1.1,0.4c0.5,0,0.9-0.2,1.2-0.5c0.3-0.3,0.5-0.8,0.5-1.3
		v-3.5h1.1v6.2H796.6z"/>
	<path fill="#221F20" d="M803.5,428.6v-3.7c0-0.6-0.1-1-0.4-1.2c-0.2-0.2-0.6-0.4-1.1-0.4c-0.5,0-0.9,0.2-1.3,0.5
		c-0.3,0.3-0.5,0.8-0.5,1.3v3.5h-1.1v-6.2h1.1v0.7c0.3-0.3,0.6-0.5,1-0.7c0.4-0.2,0.9-0.3,1.4-0.2c0.7,0.1,1.1,0.4,1.4,0.8
		c0.3,0.5,0.4,0.9,0.4,1.3v4.2H803.5z"/>
	<path fill="#221F20" d="M810.7,428.6v-0.7c-0.3,0.3-0.6,0.5-0.9,0.7c-0.4,0.2-0.7,0.2-1.1,0.2c-0.9,0-1.6-0.3-2.2-0.9
		c-0.5-0.6-0.8-1.4-0.8-2.4c0-1,0.3-1.8,0.8-2.4c0.5-0.6,1.3-0.9,2.2-0.9c0.4,0,0.8,0.1,1.1,0.2c0.4,0.2,0.7,0.4,0.9,0.7v-3h1.1v8.5
		H810.7z M810.2,427.2c0.3-0.4,0.5-1,0.5-1.7c0-0.7-0.2-1.3-0.5-1.7c-0.3-0.4-0.8-0.6-1.4-0.6c-0.6,0-1.1,0.2-1.4,0.6
		c-0.3,0.4-0.5,1-0.5,1.6c0,0.7,0.2,1.2,0.5,1.7c0.3,0.4,0.8,0.6,1.4,0.6C809.4,427.8,809.8,427.6,810.2,427.2z"/>
	<path fill="#221F20" d="M817.7,428.6c-0.1-0.1-0.1-0.3-0.2-0.4c0-0.2,0-0.3-0.1-0.5c-0.2,0.3-0.6,0.5-1,0.7
		c-0.4,0.2-0.8,0.3-1.3,0.4c-0.6,0-1.2-0.1-1.6-0.3c-0.5-0.2-0.7-0.7-0.8-1.2c-0.1-0.6,0-1,0.3-1.3c0.3-0.3,0.7-0.5,1.1-0.7
		c0.4-0.1,0.8-0.2,1.2-0.2c0.4,0,0.8-0.1,1.2-0.1c0.2,0,0.4-0.1,0.6-0.1c0.2-0.1,0.3-0.2,0.3-0.5c0-0.3-0.1-0.5-0.4-0.8
		c-0.2-0.2-0.7-0.4-1.2-0.4s-1,0.1-1.3,0.3c-0.3,0.2-0.4,0.5-0.3,0.8h-1.1c-0.1-0.7,0.2-1.2,0.7-1.5c0.6-0.4,1.2-0.5,2-0.5
		c0.7,0,1.3,0.2,1.9,0.5c0.6,0.4,0.8,0.9,0.8,1.5v3.4c0,0.3,0,0.5,0.1,0.7c0.1,0.2,0.1,0.3,0.1,0.3H817.7z M817.5,425.4
		c-0.1,0.1-0.2,0.1-0.3,0.2c-0.1,0.1-0.2,0.1-0.4,0.1c-0.2,0.1-0.6,0.1-1,0.1c-0.4,0-0.7,0.1-0.9,0.1c-0.4,0.1-0.6,0.3-0.8,0.4
		c-0.2,0.2-0.3,0.4-0.2,0.7c0,0.3,0.2,0.5,0.5,0.7c0.3,0.1,0.6,0.2,0.9,0.1c0.7,0,1.3-0.3,1.6-0.6c0.4-0.4,0.6-0.7,0.6-1V425.4z"/>
	<path fill="#221F20" d="M823.2,423.4c-0.2,0-0.4,0-0.6,0c-0.2,0-0.3,0.1-0.5,0.1c-0.4,0.2-0.6,0.4-0.8,0.8
		c-0.2,0.3-0.3,0.8-0.3,1.4v2.9H820v-6.1h1.1v0.9l0.1,0c0.1-0.2,0.3-0.4,0.5-0.6c0.2-0.1,0.4-0.3,0.6-0.4c0.2-0.1,0.4-0.1,0.6-0.1
		c0.2,0,0.3,0,0.3,0L823.2,423.4z"/>
	<path fill="#221F20" d="M826.9,429.3c-0.1,0.2-0.2,0.4-0.3,0.5c-0.1,0.1-0.3,0.3-0.4,0.4c-0.2,0.1-0.4,0.2-0.5,0.2
		c-0.2,0-0.4,0-0.5,0h-0.4v-0.9h0.6c0.2,0,0.3-0.1,0.4-0.2c0.1-0.1,0.2-0.2,0.3-0.3l0.3-0.6l-2.5-5.9l1.1,0l1.9,4.5l1.9-4.5h1.1
		L826.9,429.3z"/>
	<path fill="#221F20" d="M831.5,427.1c0.3-0.9,0.4-1.9,0.4-2.8c0-0.9-0.1-1.8-0.4-2.8c-0.3-0.9-0.7-2-1.4-3h0.9
		c0.4,0.6,0.9,1.4,1.4,2.4c0.5,1,0.7,2.1,0.7,3.4c0,1.3-0.2,2.5-0.7,3.4c-0.5,1-0.9,1.8-1.4,2.4h-0.9
		C830.8,429.1,831.2,428.1,831.5,427.1z"/>
</g>
<g>
	<path fill="#221F20" d="M946,424.5c-0.4-0.1-0.9-0.4-1.5-0.8c-0.6-0.4-1-0.8-1.3-1.2c-0.2,0.5-0.6,0.9-1.1,1.3
		c-0.5,0.4-1.1,0.7-1.7,1l-0.8-0.8c1.1-0.5,1.9-1,2.3-1.6c0.4-0.6,0.6-1.2,0.6-1.9v-0.3h-2.2v-1h5.8v1h-2.2v0.3
		c0,0.6,0.2,1.2,0.7,1.8c0.4,0.6,1.2,1,2.1,1.3L946,424.5z M947.8,429.1v-2.6h-6.4v-1h7.6v3.6H947.8z M949,422.1v2.7h-1.2v-6.3h1.2
		v2.5h1.5v1.1H949z"/>
	<path fill="#221F20" d="M959,420.7v-2.2h1.2v5.6H959v-2.4h-2.3c-0.1,0.6-0.5,1.1-1,1.5c-0.5,0.4-1.1,0.6-1.8,0.6
		c-0.7,0-1.4-0.2-2-0.7c-0.6-0.5-0.9-1-0.9-1.8c0-0.7,0.3-1.3,0.9-1.8c0.6-0.4,1.2-0.7,2-0.7c0.6,0,1.2,0.2,1.8,0.5
		c0.5,0.3,0.9,0.8,1,1.4H959z M955,420.3c-0.3-0.3-0.7-0.4-1.1-0.4c-0.4,0-0.8,0.1-1.1,0.4c-0.3,0.3-0.5,0.6-0.5,1
		c0,0.4,0.2,0.7,0.5,1c0.3,0.3,0.7,0.4,1.1,0.4c0.4,0,0.8-0.1,1.1-0.4c0.3-0.3,0.5-0.6,0.5-1C955.5,420.9,955.4,420.6,955,420.3z
		 M952.7,429v-4.3h1.2v1.1h5.2v-1.1h1.2v4.3H952.7z M959,426.8h-5.2v1.2h5.2V426.8z"/>
	<path fill="#221F20" d="M970.4,426.7c-0.4,0-0.9,0.1-1.6,0.1l-2.1,0v-6.9h3.8v1h-2.6v4.8l1.4,0c0.4,0,0.7,0,1.1-0.1
		c0.4,0,0.6-0.1,0.8-0.1v1C971.1,426.6,970.8,426.6,970.4,426.7z M974.4,429.1v-5.5h-1.4v5h-1.2v-9.8h1.2v3.7h1.4v-4h1.2v10.6H974.4
		z"/>
	<path fill="#221F20" d="M981.9,423.9c-0.8,1.5-2,2.6-3.7,3.4l-0.9-0.7c1.6-0.7,2.7-1.7,3.3-2.8c0.7-1.2,1-2.2,1.1-3h-3.8v-1h5.2
		C983.1,421,982.7,422.4,981.9,423.9z M985.4,429.1v-10.6h1.2v10.6H985.4z"/>
	<path fill="#221F20" d="M996.4,419.9v-1.3h1.2v5.6h-1.2v-1.3h-2.8c-0.3,0.3-0.6,0.5-1,0.7c-0.4,0.2-0.8,0.3-1.3,0.3
		c-0.7,0-1.4-0.2-2-0.7c-0.6-0.5-0.9-1-0.9-1.8c0-0.7,0.3-1.3,0.9-1.8c0.6-0.4,1.2-0.7,2-0.7c0.5,0,0.9,0.1,1.3,0.3
		c0.4,0.2,0.7,0.4,1,0.7H996.4z M992.5,420.3c-0.3-0.3-0.7-0.4-1.1-0.4c-0.4,0-0.8,0.1-1.1,0.4c-0.3,0.3-0.5,0.6-0.5,1
		c0,0.4,0.2,0.7,0.5,1c0.3,0.3,0.7,0.4,1.1,0.4c0.4,0,0.8-0.1,1.1-0.4c0.3-0.3,0.5-0.6,0.5-1C993,420.9,992.8,420.6,992.5,420.3z
		 M990.1,429v-2.6h6.3v-0.9H990v-0.9h7.6v2.7h-6.3v0.8h6.5v0.9H990.1z M996.4,421.8v-1h-2.3c0,0.1,0,0.2,0,0.2c0,0.1,0,0.2,0,0.2
		c0,0.1,0,0.2,0,0.3c0,0.1,0,0.2,0,0.3H996.4z"/>
	<path fill="#221F20" d="M1009.6,423.8c-0.4-0.1-0.9-0.4-1.5-0.8c-0.6-0.4-1-0.8-1.3-1.3c-0.2,0.5-0.5,0.9-1.1,1.3
		c-0.5,0.4-1.1,0.8-1.7,1l-0.8-0.9c1.2-0.4,2-1,2.4-1.7c0.4-0.7,0.6-1.3,0.6-1.8v-0.9h1.3v0.9c0,0.4,0.2,0.9,0.5,1.5
		c0.4,0.6,1.1,1.1,2.3,1.6L1009.6,423.8z M1005.4,429v-2.6h6.2v-0.9h-6.2v-0.9h7.5v2.7h-6.2v0.8h6.5v0.9H1005.4z M1011.7,424.1v-2.8
		h-2.2v-1h2.2v-1.8h1.2v5.5H1011.7z"/>
	<path fill="#221F20" d="M1020.8,424.5c-0.4-0.1-0.9-0.4-1.4-0.7c-0.5-0.4-1-0.8-1.4-1.3c-0.2,0.5-0.6,0.9-1.2,1.4
		c-0.6,0.5-1.1,0.8-1.6,0.9l-0.8-0.8c1.3-0.5,2.1-1.1,2.5-1.8c0.3-0.7,0.5-1.2,0.5-1.6v-0.3h-2.2v-1h5.8v1h-2.2v0.3
		c0,0.4,0.2,0.9,0.5,1.6c0.3,0.6,1.1,1.1,2.3,1.5L1020.8,424.5z M1023.2,428.7c-0.7,0.4-1.7,0.6-3,0.6c-1.3,0-2.3-0.2-3-0.6
		c-0.7-0.4-1-0.9-1-1.5c0-0.6,0.3-1.1,1-1.5c0.7-0.4,1.7-0.6,3-0.6c1.3,0,2.3,0.2,3,0.6c0.7,0.4,1,0.9,1,1.5
		C1024.2,427.8,1023.9,428.3,1023.2,428.7z M1022.2,426.4c-0.5-0.2-1.1-0.3-1.9-0.3c-0.8,0-1.5,0.1-2,0.3s-0.8,0.5-0.8,0.8
		c0,0.3,0.3,0.6,0.8,0.8c0.5,0.2,1.2,0.3,2,0.3c0.8,0,1.5-0.1,1.9-0.3c0.5-0.2,0.7-0.5,0.7-0.8
		C1022.9,426.9,1022.7,426.6,1022.2,426.4z M1022.9,424.9V422h-2.1v-1h2.1v-2.4h1.2v6.4H1022.9z"/>
	<path fill="#221F20" d="M925.3,444c-0.4-0.6-0.9-1.4-1.4-2.4c-0.5-1-0.7-2.1-0.7-3.4c0-1.3,0.2-2.5,0.7-3.4c0.5-1,0.9-1.8,1.4-2.4
		h0.9c-0.6,1.1-1.1,2.1-1.3,3c-0.3,0.9-0.4,1.9-0.4,2.8c0,0.9,0.1,1.8,0.4,2.8c0.3,0.9,0.7,2,1.3,3H925.3z"/>
	<path fill="#221F20" d="M933.8,435c0.7,0.8,1.1,1.9,1.1,3.2c0,0.7-0.1,1.3-0.3,1.8c-0.2,0.5-0.4,1-0.8,1.4l1.1,0.9l-0.6,0.7l-1.2-1
		c-0.3,0.2-0.7,0.4-1,0.5c-0.4,0.1-0.8,0.2-1.2,0.2c-1.2,0-2.2-0.4-2.9-1.2c-0.7-0.8-1.1-1.9-1.1-3.3c0-1.3,0.4-2.4,1.1-3.2
		c0.7-0.8,1.7-1.2,2.9-1.2C932.1,433.8,933,434.2,933.8,435z M933.5,439.6c0.1-0.4,0.2-0.8,0.2-1.3c0-1-0.2-1.9-0.7-2.5
		c-0.5-0.6-1.2-0.9-2-0.9c-0.9,0-1.5,0.3-2,0.9c-0.5,0.6-0.7,1.5-0.7,2.5c0,1,0.2,1.9,0.7,2.5c0.5,0.7,1.1,1,2,1
		c0.2,0,0.5,0,0.7-0.1c0.2-0.1,0.5-0.2,0.7-0.3l-1.1-0.9l0.6-0.7l1.2,1C933.2,440.3,933.3,439.9,933.5,439.6z"/>
	<path fill="#221F20" d="M940.2,442.5v-0.8c-0.2,0.3-0.5,0.5-0.8,0.7c-0.4,0.2-0.8,0.3-1.3,0.3c-0.5,0-1-0.2-1.5-0.6
		c-0.5-0.4-0.7-1-0.7-1.7v-4.1h1.1v3.7c0,0.6,0.1,1,0.4,1.2c0.3,0.3,0.6,0.4,1.1,0.4c0.5,0,0.9-0.2,1.2-0.5c0.3-0.3,0.5-0.8,0.5-1.3
		v-3.5h1.1v6.2H940.2z"/>
	<path fill="#221F20" d="M943.4,439.7c0,0.6,0.2,1.1,0.6,1.5c0.4,0.4,0.8,0.6,1.4,0.6c0.5,0,0.9-0.1,1.2-0.3
		c0.3-0.2,0.4-0.4,0.5-0.6h1.2c-0.1,0.4-0.4,0.8-0.9,1.2c-0.4,0.4-1.1,0.6-1.9,0.6c-0.9,0-1.6-0.3-2.2-0.9c-0.6-0.6-0.9-1.4-0.9-2.3
		c0-0.9,0.3-1.7,0.8-2.3c0.6-0.6,1.3-0.9,2.2-0.9c0.8,0,1.6,0.3,2.2,0.8c0.6,0.6,0.9,1.5,0.9,2.7H943.4z M947.3,438.9
		c0-0.6-0.2-1-0.6-1.4c-0.3-0.3-0.8-0.5-1.4-0.5c-0.5,0-1,0.2-1.3,0.5c-0.3,0.3-0.6,0.8-0.6,1.4H947.3z"/>
	<path fill="#221F20" d="M953.6,442.5v-0.8c-0.2,0.3-0.5,0.5-0.8,0.7c-0.4,0.2-0.8,0.3-1.3,0.3c-0.5,0-1-0.2-1.5-0.6
		c-0.5-0.4-0.7-1-0.7-1.7v-4.1h1.1v3.7c0,0.6,0.1,1,0.4,1.2c0.3,0.3,0.6,0.4,1.1,0.4c0.5,0,0.9-0.2,1.2-0.5c0.3-0.3,0.5-0.8,0.5-1.3
		v-3.5h1.1v6.2H953.6z"/>
	<path fill="#221F20" d="M956.8,439.7c0,0.6,0.2,1.1,0.6,1.5c0.4,0.4,0.8,0.6,1.4,0.6c0.5,0,0.9-0.1,1.2-0.3
		c0.3-0.2,0.4-0.4,0.5-0.6h1.2c-0.1,0.4-0.4,0.8-0.9,1.2c-0.4,0.4-1.1,0.6-1.9,0.6c-0.9,0-1.6-0.3-2.2-0.9c-0.6-0.6-0.9-1.4-0.9-2.3
		c0-0.9,0.3-1.7,0.8-2.3c0.6-0.6,1.3-0.9,2.2-0.9c0.8,0,1.6,0.3,2.2,0.8c0.6,0.6,0.9,1.5,0.9,2.7H956.8z M960.7,438.9
		c0-0.6-0.2-1-0.6-1.4c-0.3-0.3-0.8-0.5-1.4-0.5c-0.5,0-1,0.2-1.3,0.5c-0.3,0.3-0.5,0.8-0.6,1.4H960.7z"/>
	<path fill="#221F20" d="M973.1,436.5c-0.1-0.4-0.4-0.8-0.8-1.1c-0.4-0.4-0.9-0.6-1.7-0.6c-0.8,0-1.5,0.3-2,0.9
		c-0.5,0.6-0.7,1.5-0.7,2.5c0,1.1,0.2,1.9,0.7,2.6c0.5,0.6,1.1,1,2,1c0.7,0,1.3-0.2,1.7-0.6c0.4-0.4,0.6-0.8,0.8-1.3l1.2,0
		c-0.2,0.6-0.5,1.3-1.1,1.9c-0.6,0.7-1.4,1-2.6,1c-1.2,0-2.2-0.4-2.9-1.2c-0.7-0.8-1-1.9-1-3.3c0-1.3,0.3-2.4,1-3.2
		c0.7-0.8,1.7-1.2,2.9-1.2c1.1,0,2,0.3,2.6,0.9c0.6,0.6,0.9,1.2,1.1,1.8H973.1z"/>
	<path fill="#221F20" d="M980.4,437c0.6,0.6,0.8,1.4,0.8,2.4c0,1-0.3,1.7-0.8,2.4c-0.6,0.6-1.3,0.9-2.3,0.9c-1,0-1.7-0.3-2.3-0.9
		c-0.6-0.6-0.8-1.4-0.8-2.4c0-1,0.3-1.7,0.8-2.4c0.6-0.6,1.3-0.9,2.3-0.9C979.1,436.1,979.8,436.4,980.4,437z M979.5,441.1
		c0.4-0.4,0.6-1,0.6-1.8c0-0.7-0.2-1.3-0.6-1.7c-0.4-0.4-0.8-0.7-1.4-0.7c-0.6,0-1.1,0.2-1.5,0.7c-0.4,0.4-0.5,1-0.5,1.7
		c0,0.7,0.2,1.3,0.5,1.8c0.4,0.4,0.8,0.7,1.5,0.7C978.7,441.8,979.2,441.6,979.5,441.1z"/>
	<path fill="#221F20" d="M986.5,442.5v-3.7c0-0.6-0.1-1-0.4-1.2c-0.2-0.2-0.6-0.4-1.1-0.4c-0.5,0-0.9,0.2-1.3,0.5
		c-0.3,0.3-0.5,0.8-0.5,1.3v3.5h-1.1v-6.2h1.1v0.7c0.3-0.3,0.6-0.5,1-0.7c0.4-0.2,0.9-0.3,1.4-0.2c0.7,0.1,1.1,0.4,1.4,0.8
		c0.3,0.5,0.4,0.9,0.4,1.3v4.2H986.5z"/>
	<path fill="#221F20" d="M990.3,437.3v5.2h-1.1v-5.2l-0.8,0v-0.9l0.8,0v-0.7c0-0.3,0-0.6,0.1-0.7c0-0.2,0.1-0.3,0.2-0.5
		c0.1-0.1,0.2-0.3,0.4-0.4s0.4-0.1,0.6-0.1h0.8v0.9c-0.1,0-0.2,0-0.3,0c-0.1,0-0.3,0-0.4,0.1c-0.1,0.1-0.2,0.2-0.2,0.3
		c0,0.1,0,0.3,0,0.4v0.6l0.9,0v0.9H990.3z"/>
	<path fill="#221F20" d="M992.2,435v-1.1h1.1v1.1H992.2z M992.2,442.5v-6.2h1.1v6.2H992.2z"/>
	<path fill="#221F20" d="M1000.5,441.6c0,1-0.3,1.7-0.9,2.1c-0.6,0.4-1.3,0.6-2,0.6c-0.9,0-1.6-0.2-2.1-0.6
		c-0.5-0.4-0.8-0.9-0.8-1.4h1.1c0,0.3,0.2,0.5,0.5,0.8c0.3,0.2,0.8,0.3,1.4,0.3c0.6,0,1.1-0.1,1.4-0.4c0.3-0.3,0.4-0.7,0.4-1.2V441
		c-0.3,0.3-0.6,0.5-1,0.7c-0.4,0.2-0.7,0.2-1.1,0.2c-0.8,0-1.5-0.3-2.1-0.8c-0.6-0.6-0.9-1.3-0.9-2.1c0-0.9,0.3-1.6,0.8-2.1
		c0.6-0.5,1.3-0.8,2.1-0.8c0.4,0,0.8,0.1,1.1,0.2c0.4,0.2,0.7,0.4,1,0.7v-0.6h1.1V441.6z M998.9,440.5c0.4-0.3,0.6-0.8,0.6-1.5
		c0-0.7-0.2-1.2-0.6-1.5c-0.4-0.3-0.8-0.5-1.4-0.5c-0.6,0-1.1,0.2-1.4,0.5c-0.4,0.3-0.5,0.8-0.5,1.5c0,0.7,0.2,1.2,0.5,1.5
		c0.4,0.3,0.8,0.5,1.4,0.5C998.1,441,998.6,440.8,998.9,440.5z"/>
	<path fill="#221F20" d="M1006.2,442.5v-0.8c-0.2,0.3-0.5,0.5-0.8,0.7c-0.4,0.2-0.8,0.3-1.3,0.3c-0.5,0-1-0.2-1.5-0.6
		c-0.5-0.4-0.7-1-0.7-1.7v-4.1h1.1v3.7c0,0.6,0.1,1,0.4,1.2c0.3,0.3,0.6,0.4,1.1,0.4c0.5,0,0.9-0.2,1.2-0.5c0.3-0.3,0.5-0.8,0.5-1.3
		v-3.5h1.1v6.2H1006.2z"/>
	<path fill="#221F20" d="M1012.1,437.2c-0.2,0-0.4,0-0.6,0c-0.2,0-0.3,0.1-0.5,0.1c-0.4,0.2-0.6,0.4-0.8,0.8
		c-0.2,0.3-0.3,0.8-0.3,1.4v2.9h-1.1v-6.1h1.1v0.9l0.1,0c0.1-0.2,0.3-0.4,0.5-0.6c0.2-0.1,0.4-0.3,0.6-0.4c0.2-0.1,0.4-0.1,0.6-0.1
		c0.2,0,0.3,0,0.3,0V437.2z"/>
	<path fill="#221F20" d="M1016.9,442.5c-0.1-0.1-0.1-0.3-0.2-0.4c0-0.2,0-0.3-0.1-0.5c-0.2,0.3-0.6,0.5-1,0.7
		c-0.4,0.2-0.8,0.3-1.3,0.4c-0.6,0-1.2-0.1-1.6-0.3c-0.5-0.2-0.7-0.7-0.8-1.2c-0.1-0.6,0-1,0.3-1.3c0.3-0.3,0.7-0.5,1.1-0.7
		c0.4-0.1,0.8-0.2,1.2-0.2c0.4,0,0.8-0.1,1.2-0.1c0.2,0,0.4-0.1,0.6-0.1c0.2-0.1,0.3-0.2,0.3-0.5c0-0.3-0.1-0.5-0.4-0.8
		c-0.2-0.2-0.7-0.4-1.2-0.4s-1,0.1-1.3,0.3c-0.3,0.2-0.4,0.5-0.3,0.8h-1.1c-0.1-0.7,0.2-1.2,0.7-1.5c0.6-0.4,1.2-0.5,2-0.5
		c0.7,0,1.3,0.2,1.9,0.5c0.6,0.4,0.8,0.9,0.8,1.5v3.4c0,0.3,0,0.5,0.1,0.7c0.1,0.2,0.1,0.3,0.1,0.3H1016.9z M1016.7,439.3
		c-0.1,0.1-0.2,0.1-0.3,0.2c-0.1,0.1-0.2,0.1-0.4,0.1c-0.2,0.1-0.6,0.1-1,0.1c-0.4,0-0.7,0.1-0.9,0.1c-0.4,0.1-0.6,0.3-0.8,0.4
		c-0.2,0.2-0.3,0.4-0.2,0.7c0,0.3,0.2,0.5,0.5,0.7c0.3,0.1,0.6,0.2,0.9,0.1c0.7,0,1.3-0.3,1.6-0.6c0.4-0.4,0.6-0.7,0.6-1V439.3z"/>
	<path fill="#221F20" d="M1020.6,442.5c-0.2,0-0.4-0.1-0.6-0.2c-0.2-0.1-0.3-0.2-0.4-0.4c-0.1-0.1-0.2-0.3-0.2-0.4
		c0-0.2-0.1-0.4-0.1-0.7v-3.5h-0.8v-0.9l0.8,0v-1.9h1.1v1.9l0.9,0v0.9h-0.9v3.4c0,0.1,0,0.3,0,0.4c0,0.1,0.1,0.2,0.2,0.3
		c0.1,0.1,0.2,0.1,0.4,0.2c0.1,0,0.3,0,0.4,0l0,0.9H1020.6z"/>
	<path fill="#221F20" d="M1022.4,435v-1.1h1.1v1.1H1022.4z M1022.4,442.5v-6.2h1.1v6.2H1022.4z"/>
	<path fill="#221F20" d="M1029.9,437c0.6,0.6,0.8,1.4,0.8,2.4c0,1-0.3,1.7-0.8,2.4c-0.6,0.6-1.3,0.9-2.3,0.9c-1,0-1.7-0.3-2.3-0.9
		c-0.6-0.6-0.8-1.4-0.8-2.4c0-1,0.3-1.7,0.8-2.4c0.6-0.6,1.3-0.9,2.3-0.9C1028.5,436.1,1029.3,436.4,1029.9,437z M1029,441.1
		c0.4-0.4,0.6-1,0.6-1.8c0-0.7-0.2-1.3-0.6-1.7c-0.4-0.4-0.8-0.7-1.4-0.7c-0.6,0-1.1,0.2-1.5,0.7c-0.4,0.4-0.5,1-0.5,1.7
		c0,0.7,0.2,1.3,0.5,1.8c0.4,0.4,0.8,0.7,1.5,0.7C1028.2,441.8,1028.6,441.6,1029,441.1z"/>
	<path fill="#221F20" d="M1035.9,442.5v-3.7c0-0.6-0.1-1-0.4-1.2c-0.2-0.2-0.6-0.4-1.1-0.4c-0.5,0-0.9,0.2-1.3,0.5
		c-0.3,0.3-0.5,0.8-0.5,1.3v3.5h-1.1v-6.2h1.1v0.7c0.3-0.3,0.6-0.5,1-0.7c0.4-0.2,0.9-0.3,1.4-0.2c0.7,0.1,1.1,0.4,1.4,0.8
		c0.3,0.5,0.4,0.9,0.4,1.3v4.2H1035.9z"/>
	<path fill="#221F20" d="M1039.5,441c0.3-0.9,0.4-1.9,0.4-2.8c0-0.9-0.1-1.8-0.4-2.8c-0.3-0.9-0.7-2-1.4-3h0.9
		c0.4,0.6,0.9,1.4,1.4,2.4c0.5,1,0.7,2.1,0.7,3.4c0,1.3-0.2,2.5-0.7,3.4c-0.5,1-0.9,1.8-1.4,2.4h-0.9
		C1038.7,443,1039.2,441.9,1039.5,441z"/>
</g>
<g>
	<path fill="#221F20" d="M220.6,427.4V420h1.2v2.5h2.9V420h1.2v7.4H220.6z M224.7,423.6h-2.9v2.8h2.9V423.6z M228.9,424.1v5.5h-1.2
		v-10.6h1.2v4h1.5v1.1H228.9z"/>
	<path fill="#221F20" d="M236.9,425.4v2.1h-1.2v-2.1h-4.8v-1h10.6v1H236.9z M239.2,422.8c-0.7,0.4-1.7,0.6-3,0.6
		c-1.3,0-2.3-0.2-3-0.6c-0.7-0.4-1-0.9-1-1.6c0-0.6,0.3-1.2,1-1.6c0.7-0.4,1.7-0.6,3-0.6c1.3,0,2.3,0.2,3,0.6c0.7,0.4,1,0.9,1,1.6
		C240.2,421.8,239.9,422.4,239.2,422.8z M232.3,429.4v-3h1.2v2h6.9v1H232.3z M234.2,422.1c0.5,0.3,1.2,0.4,2,0.4
		c0.8,0,1.5-0.1,2-0.4c0.5-0.2,0.8-0.5,0.8-0.9c0-0.4-0.2-0.7-0.7-0.9c-0.5-0.2-1.2-0.4-2-0.4c-0.8,0-1.5,0.1-2,0.3
		c-0.5,0.2-0.7,0.5-0.7,0.9C233.4,421.5,233.7,421.8,234.2,422.1z"/>
	<path fill="#221F20" d="M247.7,427.1c-0.7,0.1-1.5,0.1-2.3,0.1l-2.5,0v-7h5.2v1h-4v4.9l1.8,0c0.5,0,1.1-0.1,1.8-0.1
		c0.7-0.1,1.1-0.1,1.2-0.1v1C248.8,427,248.4,427,247.7,427.1z M250.3,429.6V424h-2.9v-1h2.9v-3.9h1.2v10.6H250.3z"/>
	<path fill="#221F20" d="M259,427.4c-0.7,0.1-1.4,0.1-2,0.1l-3,0v-4.3h4v-2.1h-4v-1h5.2v4.2h-4v2.3l2.2,0c0.5,0,1.1-0.1,1.8-0.1
		c0.6-0.1,1.1-0.1,1.5-0.2v1C260.3,427.3,259.7,427.3,259,427.4z M261.3,429.6v-10.6h1.2v10.6H261.3z"/>
	<path fill="#221F20" d="M268.2,424.5v-0.9h10.6v0.9H268.2z M269.2,421.8h1.6l-0.1-1.6h-1.2v-0.9h8.2v0.9h-1.2l-0.1,1.6h1.6v0.9
		h-8.7V421.8z M269.6,429.5V427h6.5v-0.8h-6.6v-0.9h7.8v2.5h-6.5v0.7h6.9v0.9H269.6z M271.8,420.2l0.2,1.6h3l0.2-1.6H271.8z"/>
	<path fill="#221F20" d="M283.6,425.6c-0.6,0-1.1,0.1-1.5,0.1l-2.2,0v-3.4h2.9v-1.6h-2.9v-1h4.1v3.6h-2.9v1.4l1.4,0
		c0.4,0,0.9,0,1.3-0.1c0.5,0,0.8-0.1,1.1-0.1v1C284.6,425.5,284.2,425.5,283.6,425.6z M281.2,429.4v-3.1h1.2v2.1h6.8v1H281.2z
		 M287.9,426.9v-3.6h-1.2v3.4h-1.2v-7.4h1.2v3h1.2v-3.1h1.2v7.8H287.9z"/>
	<path fill="#221F20" d="M292.6,430.2c-0.4-0.6-0.9-1.4-1.4-2.4c-0.5-1-0.7-2.1-0.7-3.4c0-1.3,0.2-2.5,0.7-3.4
		c0.5-1,0.9-1.8,1.4-2.4h0.9c-0.6,1.1-1.1,2.1-1.3,3c-0.3,0.9-0.4,1.9-0.4,2.8c0,0.9,0.1,1.8,0.4,2.8c0.3,0.9,0.7,2,1.3,3H292.6z"/>
	<path fill="#221F20" d="M300.7,424.8c0.4,0.4,0.5,0.9,0.5,1.5c0,0.7-0.4,1.3-0.9,1.7c-0.6,0.4-1.3,0.6-2.1,0.6h-3.5v-8.5h3.6
		c0.8,0,1.4,0.2,1.8,0.5c0.4,0.4,0.7,0.8,0.8,1.3c0.1,0.5,0,0.9-0.2,1.3c-0.2,0.4-0.5,0.6-0.8,0.8
		C300,424.2,300.3,424.5,300.7,424.8z M299.2,423.3c0.3-0.2,0.4-0.6,0.4-1c0-0.4-0.1-0.7-0.4-0.9c-0.3-0.2-0.7-0.3-1.2-0.3h-2.3v2.6
		h2.3C298.5,423.7,298.9,423.5,299.2,423.3z M299.5,427.2c0.3-0.3,0.4-0.6,0.5-1.1c0-0.5-0.1-0.8-0.5-1.1c-0.3-0.2-0.8-0.4-1.3-0.4
		h-2.4v2.9h2.4C298.8,427.6,299.2,427.5,299.5,427.2z"/>
	<path fill="#221F20" d="M307.3,423.2c0.6,0.6,0.8,1.4,0.8,2.4c0,1-0.3,1.7-0.8,2.4c-0.6,0.6-1.3,0.9-2.3,0.9c-1,0-1.7-0.3-2.3-0.9
		c-0.6-0.6-0.8-1.4-0.8-2.4c0-1,0.3-1.7,0.8-2.4c0.6-0.6,1.3-0.9,2.3-0.9C306,422.2,306.7,422.5,307.3,423.2z M306.4,427.3
		c0.4-0.4,0.6-1,0.6-1.8c0-0.7-0.2-1.3-0.6-1.7c-0.4-0.4-0.8-0.7-1.4-0.7c-0.6,0-1.1,0.2-1.5,0.7c-0.4,0.4-0.5,1-0.5,1.7
		c0,0.7,0.2,1.3,0.5,1.8c0.4,0.4,0.8,0.7,1.5,0.7C305.6,427.9,306.1,427.7,306.4,427.3z"/>
	<path fill="#221F20" d="M313.3,428.6v-0.8c-0.2,0.3-0.5,0.5-0.8,0.7c-0.4,0.2-0.8,0.3-1.3,0.3c-0.5,0-1-0.2-1.5-0.6
		c-0.5-0.4-0.7-1-0.7-1.7v-4.1h1.1v3.7c0,0.6,0.1,1,0.4,1.2c0.3,0.3,0.6,0.4,1.1,0.4c0.5,0,0.9-0.2,1.2-0.5c0.3-0.3,0.5-0.8,0.5-1.3
		v-3.5h1.1v6.2H313.3z"/>
	<path fill="#221F20" d="M320.2,428.6v-3.7c0-0.6-0.1-1-0.4-1.2c-0.2-0.2-0.6-0.4-1.1-0.4c-0.5,0-0.9,0.2-1.3,0.5
		c-0.3,0.3-0.5,0.8-0.5,1.3v3.5h-1.1v-6.2h1.1v0.7c0.3-0.3,0.6-0.5,1-0.7c0.4-0.2,0.9-0.3,1.4-0.2c0.7,0.1,1.1,0.4,1.4,0.8
		c0.3,0.5,0.4,0.9,0.4,1.3v4.2H320.2z"/>
	<path fill="#221F20" d="M327.4,428.6v-0.7c-0.3,0.3-0.6,0.5-0.9,0.7c-0.4,0.2-0.7,0.2-1.1,0.2c-0.9,0-1.6-0.3-2.2-0.9
		c-0.5-0.6-0.8-1.4-0.8-2.4c0-1,0.3-1.8,0.8-2.4c0.5-0.6,1.3-0.9,2.2-0.9c0.4,0,0.8,0.1,1.1,0.2c0.4,0.2,0.7,0.4,0.9,0.7v-3h1.1v8.5
		H327.4z M326.9,427.2c0.3-0.4,0.5-1,0.5-1.7c0-0.7-0.2-1.3-0.5-1.7c-0.3-0.4-0.8-0.6-1.4-0.6c-0.6,0-1.1,0.2-1.4,0.6
		c-0.3,0.4-0.5,1-0.5,1.6c0,0.7,0.2,1.2,0.5,1.7c0.3,0.4,0.8,0.6,1.4,0.6C326.1,427.8,326.5,427.6,326.9,427.2z"/>
	<path fill="#221F20" d="M334.4,428.6c-0.1-0.1-0.1-0.3-0.1-0.4c0-0.2,0-0.3-0.1-0.5c-0.2,0.3-0.6,0.5-1,0.7
		c-0.4,0.2-0.8,0.3-1.3,0.4c-0.6,0-1.2-0.1-1.6-0.3c-0.5-0.2-0.7-0.7-0.8-1.2c-0.1-0.6,0-1,0.3-1.3c0.3-0.3,0.7-0.5,1.1-0.7
		c0.4-0.1,0.8-0.2,1.2-0.2c0.4,0,0.8-0.1,1.2-0.1c0.2,0,0.4-0.1,0.6-0.1c0.2-0.1,0.3-0.2,0.3-0.5c0-0.3-0.1-0.5-0.4-0.8
		c-0.2-0.2-0.7-0.4-1.2-0.4c-0.6,0-1,0.1-1.3,0.3c-0.3,0.2-0.4,0.5-0.3,0.8h-1.1c-0.1-0.7,0.2-1.2,0.7-1.5c0.6-0.4,1.2-0.5,2-0.5
		c0.7,0,1.3,0.2,1.9,0.5c0.6,0.4,0.8,0.9,0.8,1.5v3.4c0,0.3,0,0.5,0.1,0.7c0.1,0.2,0.1,0.3,0.1,0.3H334.4z M334.2,425.4
		c-0.1,0.1-0.2,0.1-0.3,0.2c-0.1,0.1-0.2,0.1-0.4,0.1c-0.2,0.1-0.6,0.1-1,0.1c-0.4,0-0.7,0.1-0.9,0.1c-0.4,0.1-0.6,0.3-0.8,0.4
		c-0.2,0.2-0.3,0.4-0.2,0.7c0,0.3,0.2,0.5,0.5,0.7c0.3,0.1,0.6,0.2,0.9,0.1c0.7,0,1.3-0.3,1.6-0.6c0.4-0.4,0.6-0.7,0.6-1V425.4z"/>
	<path fill="#221F20" d="M339.9,423.4c-0.2,0-0.4,0-0.6,0c-0.2,0-0.3,0.1-0.5,0.1c-0.4,0.2-0.6,0.4-0.8,0.8
		c-0.2,0.3-0.3,0.8-0.3,1.4v2.9h-1.1v-6.1h1.1v0.9l0.1,0c0.1-0.2,0.3-0.4,0.5-0.6c0.2-0.1,0.4-0.3,0.6-0.4c0.2-0.1,0.4-0.1,0.6-0.1
		c0.2,0,0.3,0,0.3,0V423.4z"/>
	<path fill="#221F20" d="M343.6,429.3c-0.1,0.2-0.2,0.4-0.3,0.5c-0.1,0.1-0.3,0.3-0.5,0.4c-0.2,0.1-0.4,0.2-0.5,0.2
		c-0.2,0-0.4,0-0.5,0h-0.4v-0.9h0.6c0.2,0,0.3-0.1,0.4-0.2c0.1-0.1,0.2-0.2,0.3-0.3l0.3-0.6l-2.5-5.9l1.1,0l1.9,4.5l1.9-4.5h1.1
		L343.6,429.3z"/>
	<path fill="#221F20" d="M357,420.8c0.6,0.5,0.8,1.1,0.8,1.9c0,0.8-0.3,1.4-0.8,1.9c-0.6,0.5-1.2,0.7-2.1,0.7h-2.4v3.3h-1.1v-8.5
		h3.5C355.7,420.1,356.4,420.3,357,420.8z M356.1,423.9c0.4-0.3,0.5-0.7,0.5-1.2c0-0.6-0.2-1-0.5-1.2c-0.4-0.2-0.8-0.3-1.2-0.3h-2.4
		v3.1h2.4C355.4,424.2,355.8,424.1,356.1,423.9z"/>
	<path fill="#221F20" d="M358.7,428.6v-8.5h1.1v8.5H358.7z"/>
	<path fill="#221F20" d="M365.7,428.6c-0.1-0.1-0.1-0.3-0.1-0.4c0-0.2,0-0.3-0.1-0.5c-0.2,0.3-0.6,0.5-1,0.7
		c-0.4,0.2-0.8,0.3-1.3,0.4c-0.6,0-1.2-0.1-1.6-0.3c-0.5-0.2-0.7-0.7-0.8-1.2c-0.1-0.6,0-1,0.3-1.3c0.3-0.3,0.7-0.5,1.1-0.7
		c0.4-0.1,0.8-0.2,1.2-0.2c0.4,0,0.8-0.1,1.2-0.1c0.2,0,0.4-0.1,0.6-0.1c0.2-0.1,0.3-0.2,0.3-0.5c0-0.3-0.1-0.5-0.4-0.8
		c-0.2-0.2-0.7-0.4-1.2-0.4c-0.6,0-1,0.1-1.3,0.3c-0.3,0.2-0.4,0.5-0.3,0.8h-1.1c-0.1-0.7,0.2-1.2,0.7-1.5c0.6-0.4,1.2-0.5,2-0.5
		c0.7,0,1.3,0.2,1.9,0.5c0.6,0.4,0.8,0.9,0.8,1.5v3.4c0,0.3,0,0.5,0.1,0.7c0.1,0.2,0.1,0.3,0.1,0.3H365.7z M365.5,425.4
		c-0.1,0.1-0.2,0.1-0.3,0.2c-0.1,0.1-0.2,0.1-0.4,0.1c-0.2,0.1-0.6,0.1-1,0.1c-0.4,0-0.7,0.1-0.9,0.1c-0.4,0.1-0.6,0.3-0.8,0.4
		c-0.2,0.2-0.3,0.4-0.2,0.7c0,0.3,0.2,0.5,0.5,0.7c0.3,0.1,0.6,0.2,0.9,0.1c0.7,0,1.3-0.3,1.6-0.6c0.4-0.4,0.6-0.7,0.6-1V425.4z"/>
	<path fill="#221F20" d="M372.3,428.6v-3.7c0-0.6-0.1-1-0.4-1.2c-0.2-0.2-0.6-0.4-1.1-0.4c-0.5,0-0.9,0.2-1.3,0.5
		c-0.3,0.3-0.5,0.8-0.5,1.3v3.5H368v-6.2h1.1v0.7c0.3-0.3,0.6-0.5,1-0.7c0.4-0.2,0.9-0.3,1.4-0.2c0.7,0.1,1.1,0.4,1.4,0.8
		c0.3,0.5,0.4,0.9,0.4,1.3v4.2H372.3z"/>
	<path fill="#221F20" d="M375.8,427.1c0.3-0.9,0.4-1.9,0.4-2.8c0-0.9-0.1-1.8-0.4-2.8c-0.3-0.9-0.7-2-1.4-3h0.9
		c0.4,0.6,0.9,1.4,1.4,2.4c0.5,1,0.7,2.1,0.7,3.4c0,1.3-0.2,2.5-0.7,3.4c-0.5,1-0.9,1.8-1.4,2.4h-0.9
		C375.1,429.1,375.5,428.1,375.8,427.1z"/>
</g>
<g>
	<path fill="#040000" d="M279,506.6v-7.3h-2.2v-1.7c0.3,0,0.6,0,1-0.1s0.6-0.2,0.8-0.4c0.2-0.1,0.3-0.3,0.5-0.5s0.2-0.5,0.2-0.7h1.7
		v10.8H279z"/>
	<path fill="#040000" d="M301.1,509.7c0.6,0.7,0.9,1.5,0.9,2.3c0,0.8-0.2,1.5-0.7,1.9s-0.9,0.8-1.3,1.2l-2,1.5
		c-0.3,0.2-0.5,0.4-0.6,0.5s-0.3,0.3-0.4,0.5h4.9v1.8h-7.2c0-0.8,0.1-1.5,0.3-2.2c0.2-0.7,0.8-1.4,1.8-2.1l1.8-1.3
		c0.3-0.2,0.6-0.4,0.9-0.7s0.4-0.6,0.4-1c0-0.4-0.1-0.8-0.4-1.1c-0.3-0.3-0.7-0.5-1.2-0.5c-0.5,0-1,0.2-1.2,0.6
		c-0.3,0.4-0.4,0.9-0.4,1.4H295c0-0.9,0.2-1.7,0.9-2.5c0.6-0.8,1.5-1.2,2.7-1.2C299.6,508.7,300.5,509,301.1,509.7z"/>
	<path fill="#040000" d="M321.6,528c0.3,0.5,0.5,0.9,0.5,1.5c0,0.9-0.4,1.7-1.1,2.3c-0.7,0.6-1.6,1-2.7,1c-1,0-1.9-0.3-2.7-1
		c-0.7-0.7-1.1-1.5-1-2.6h1.9c0,0.5,0.1,0.9,0.4,1.3c0.3,0.3,0.8,0.5,1.3,0.5c0.5,0,0.9-0.1,1.2-0.4c0.3-0.3,0.5-0.6,0.5-1
		c0-0.3-0.1-0.6-0.3-0.9s-0.5-0.5-0.8-0.6c-0.3-0.1-0.5-0.1-0.7-0.1s-0.5,0-0.7,0v-1.7c0.3,0,0.6,0,0.8-0.1s0.5-0.1,0.7-0.2
		c0.2-0.1,0.3-0.2,0.5-0.4s0.2-0.4,0.2-0.7c0-0.3-0.1-0.6-0.3-0.9c-0.2-0.3-0.6-0.5-1.1-0.5c-0.5,0-0.9,0.2-1.2,0.5
		c-0.3,0.3-0.4,0.7-0.3,1.1h-1.9c-0.1-0.9,0.2-1.7,0.9-2.3c0.7-0.6,1.5-0.9,2.5-0.9c1,0,1.9,0.3,2.5,0.9c0.6,0.6,0.9,1.3,0.9,2.1
		c0,0.6-0.1,1.1-0.4,1.5s-0.6,0.7-0.9,0.8C320.9,527.2,321.2,527.5,321.6,528z"/>
	<path fill="#040000" d="M288.4,520.1h-17v-11h17V520.1z M274.4,517.1h11v-5h-11V517.1z"/>
	<path fill="#040000" d="M288.6,533.1h-17v-11h17V533.1z M274.6,530.1h11v-5h-11V530.1z"/>
	<path fill="#040000" d="M288.6,546.1h-17v-11h17V546.1z M274.6,543.1h11v-5h-11V543.1z"/>
	<path fill="#040000" d="M307.6,533.1h-17v-11h17V533.1z M293.6,530.1h11v-5h-11V530.1z"/>
	<path fill="#040000" d="M307.6,546.1h-17v-11h17V546.1z M293.6,543.1h11v-5h-11V543.1z"/>
	<path fill="#040000" d="M326.6,546.1h-17v-11h17V546.1z M312.6,543.1h11v-5h-11V543.1z"/>
</g>
<g>
	<path fill="#221F20" d="M224.9,571.5c-0.4-0.1-0.9-0.4-1.4-0.7c-0.5-0.4-1-0.8-1.4-1.3c-0.2,0.5-0.6,0.9-1.2,1.4
		c-0.6,0.5-1.1,0.8-1.6,0.9l-0.8-0.8c1.2-0.4,1.9-0.9,2.4-1.5c0.4-0.6,0.6-1.2,0.6-2h-2.2v-1h5.8v1h-2.2c0,0.7,0.2,1.4,0.7,1.9
		c0.4,0.5,1.2,0.9,2.2,1.2L224.9,571.5z M227.2,575.9c-0.7,0.4-1.7,0.6-3,0.6c-1.3,0-2.3-0.2-3-0.6c-0.7-0.4-1-0.9-1-1.5
		c0-0.6,0.3-1.1,1-1.5s1.7-0.6,3-0.6c1.3,0,2.3,0.2,3,0.6c0.7,0.4,1,0.9,1,1.5C228.2,575,227.8,575.5,227.2,575.9z M226.1,573.7
		c-0.5-0.2-1.1-0.3-1.9-0.3c-0.8,0-1.5,0.1-2,0.3c-0.5,0.2-0.7,0.5-0.7,0.8c0,0.3,0.2,0.6,0.7,0.8c0.5,0.2,1.1,0.3,2,0.3
		c0.8,0,1.4-0.1,1.9-0.3c0.5-0.2,0.7-0.5,0.7-0.8C226.9,574.1,226.6,573.9,226.1,573.7z M227.9,569.2v3h-1.2v-6.4h1.2v2.4h1.5v1.1
		H227.9z"/>
	<path fill="#221F20" d="M236,574.4c-0.3-0.2-0.8-0.5-1.4-1c-0.6-0.5-1-1-1.2-1.5c-0.2,0.5-0.6,1.1-1.1,1.6
		c-0.6,0.6-1.1,0.9-1.6,1.1l-0.9-0.9c1.3-0.6,2.2-1.4,2.5-2.2c0.3-0.8,0.5-1.4,0.5-1.8v-0.4h-2.4v-1h6v1H234v0.4
		c0,0.5,0.2,1.1,0.5,1.7c0.3,0.7,1.1,1.3,2.3,2L236,574.4z M231.6,567.3v-1h3.4v1H231.6z M238,576.3v-10.6h1.2v10.6H238z"/>
	<path fill="#221F20" d="M246.4,572.7v3.6h-1.2v-3.6h-4.7v-1h10.6v1H246.4z M248.8,569.8c-0.7,0.4-1.7,0.7-3,0.7
		c-1.3,0-2.3-0.2-3-0.7c-0.7-0.4-1.1-1-1.1-1.7c0-0.7,0.4-1.2,1.1-1.7c0.7-0.4,1.7-0.7,3-0.7c1.3,0,2.3,0.2,3,0.7
		c0.7,0.4,1.1,1,1.1,1.7C249.9,568.8,249.5,569.4,248.8,569.8z M243.7,567.2c-0.5,0.3-0.8,0.6-0.8,1c0,0.4,0.3,0.7,0.8,1
		c0.5,0.3,1.2,0.4,2,0.4c0.8,0,1.5-0.1,2-0.4c0.5-0.3,0.8-0.6,0.8-1c0-0.4-0.3-0.8-0.8-1c-0.5-0.3-1.2-0.4-2-0.4
		C244.9,566.8,244.3,566.9,243.7,567.2z"/>
	<path fill="#221F20" d="M258,571.9c-0.5-0.2-1.1-0.6-1.6-1.1c-0.6-0.5-1-1-1.2-1.5c-0.2,0.6-0.6,1.1-1.1,1.6
		c-0.5,0.5-1.1,0.9-1.7,1.3l-0.8-0.8c1.5-0.7,2.3-1.5,2.6-2.4c0.3-0.9,0.4-1.6,0.4-2.1v-0.9h1.3v0.9c0,0.5,0.2,1.1,0.5,2
		c0.3,0.9,1.1,1.6,2.4,2.1L258,571.9z M253.8,576.1v-3.3h1.2v2.3h6.6v1H253.8z M260.1,573.4v-4.3h-2.2v-1.1h2.2v-2.3h1.2v7.6H260.1z
		"/>
	<path fill="#221F20" d="M268.6,572v2.2h-1.2V572h-4.8v-1h10.6v1H268.6z M266.4,569.2c-0.7,0.5-1.5,0.8-2.4,0.9l-0.7-0.8
		c1.7-0.3,2.8-0.8,3.3-1.6c0.5-0.7,0.7-1.3,0.7-1.7v-0.4h1.3v0.4c0,0.4,0.3,0.9,0.8,1.6c0.5,0.7,1.6,1.2,3.3,1.6l-0.7,0.8
		c-0.8-0.2-1.6-0.5-2.4-1c-0.8-0.5-1.3-1-1.5-1.6C267.6,568.2,267.1,568.8,266.4,569.2z M264,576.1v-3h1.2v2h6.9v1H264z"/>
	<path fill="#221F20" d="M280,572.5c-0.8,0.1-1.4,0.1-1.8,0.1v3.5H277v-3.5h-2.9v-1h3.2c0.6,0,1.4,0,2.5-0.1
		c1.1-0.1,1.8-0.1,2.1-0.2v1C281.4,572.3,280.8,572.4,280,572.5z M279.8,566.7c0.5,0.5,0.8,1,0.8,1.6s-0.3,1.1-0.8,1.6
		c-0.5,0.4-1.2,0.7-2,0.7c-0.8,0-1.5-0.2-2-0.7c-0.5-0.4-0.8-1-0.8-1.6s0.3-1.1,0.8-1.6c0.5-0.5,1.2-0.7,2-0.7
		C278.6,566,279.3,566.2,279.8,566.7z M276.5,567.4c-0.3,0.3-0.4,0.6-0.4,0.9c0,0.3,0.1,0.6,0.4,0.9c0.3,0.3,0.7,0.4,1.2,0.4
		c0.5,0,0.9-0.1,1.2-0.4c0.3-0.3,0.4-0.6,0.4-0.9c0-0.3-0.1-0.6-0.4-0.9c-0.3-0.3-0.7-0.4-1.2-0.4
		C277.2,566.9,276.8,567.1,276.5,567.4z M282.3,576.3v-10.6h1.2v10.6H282.3z"/>
	<path fill="#221F20" d="M287,576.9c-0.4-0.6-0.9-1.4-1.4-2.4c-0.5-1-0.7-2.1-0.7-3.4c0-1.3,0.2-2.5,0.7-3.4c0.5-1,0.9-1.8,1.4-2.4
		h0.9c-0.6,1.1-1.1,2.1-1.4,3c-0.3,0.9-0.4,1.9-0.4,2.8c0,0.9,0.1,1.8,0.4,2.8c0.3,0.9,0.7,2,1.4,3H287z"/>
	<path fill="#221F20" d="M294.8,571.8c0.3,0.4,0.4,0.9,0.3,1.4c-0.1,0.7-0.4,1.2-0.9,1.7c-0.5,0.5-1.3,0.7-2.4,0.7
		c-1.1,0-2-0.3-2.5-1c-0.5-0.7-0.8-1.4-0.9-2.1h1.2c0,0.7,0.3,1.2,0.7,1.6c0.4,0.4,0.9,0.6,1.6,0.6c0.6,0,1.1-0.1,1.5-0.4
		c0.3-0.3,0.5-0.6,0.6-1.1c0.1-0.3,0-0.6-0.2-0.8c-0.2-0.2-0.4-0.4-0.8-0.6c-0.4-0.2-0.8-0.3-1.2-0.3c-0.4,0-0.9-0.1-1.3-0.3
		c-0.6-0.2-1-0.5-1.3-0.8c-0.3-0.3-0.4-0.8-0.4-1.4c0-0.6,0.3-1.1,0.8-1.6c0.5-0.5,1.3-0.8,2.3-0.8c1.2,0,2,0.3,2.4,1
		c0.4,0.7,0.7,1.2,0.7,1.7l-1.2,0c0-0.5-0.2-0.9-0.5-1.2c-0.3-0.3-0.8-0.5-1.5-0.5c-0.6,0-1.1,0.2-1.4,0.5c-0.3,0.3-0.4,0.6-0.4,1
		c0,0.4,0.1,0.7,0.3,0.8c0.2,0.2,0.5,0.3,0.7,0.4c0.3,0.1,0.7,0.2,1.2,0.3c0.5,0.1,1,0.2,1.4,0.4
		C294.2,571.1,294.6,571.4,294.8,571.8z"/>
	<path fill="#221F20" d="M297.5,575.3c-0.2,0-0.4-0.1-0.6-0.2c-0.2-0.1-0.3-0.2-0.4-0.4c-0.1-0.1-0.2-0.3-0.2-0.4
		c0-0.2-0.1-0.4-0.1-0.7v-3.5h-0.8v-0.9l0.8,0v-1.9h1.1v1.9l0.9,0v0.9h-0.9v3.4c0,0.1,0,0.3,0,0.4c0,0.1,0.1,0.2,0.2,0.3
		c0.1,0.1,0.2,0.1,0.4,0.2c0.1,0,0.3,0,0.4,0l0,0.9H297.5z"/>
	<path fill="#221F20" d="M303.6,575.3c-0.1-0.1-0.1-0.3-0.2-0.4c0-0.2,0-0.3-0.1-0.5c-0.2,0.3-0.6,0.5-1,0.7
		c-0.4,0.2-0.8,0.3-1.3,0.4c-0.6,0-1.2-0.1-1.6-0.3c-0.5-0.2-0.7-0.7-0.8-1.2c-0.1-0.6,0-1,0.3-1.3c0.3-0.3,0.7-0.5,1.1-0.7
		c0.4-0.1,0.8-0.2,1.2-0.2c0.4,0,0.8-0.1,1.2-0.1c0.2,0,0.4-0.1,0.6-0.1c0.2-0.1,0.3-0.2,0.3-0.5c0-0.3-0.1-0.5-0.4-0.8
		c-0.2-0.2-0.7-0.4-1.2-0.4s-1,0.1-1.3,0.3c-0.3,0.2-0.4,0.5-0.3,0.8h-1.1c-0.1-0.7,0.2-1.2,0.7-1.5c0.6-0.4,1.2-0.5,2-0.5
		c0.7,0,1.3,0.2,1.9,0.5c0.6,0.4,0.8,0.9,0.8,1.5v3.4c0,0.3,0,0.5,0.1,0.7c0.1,0.2,0.1,0.3,0.1,0.3H303.6z M303.4,572.1
		c-0.1,0.1-0.2,0.1-0.3,0.2c-0.1,0.1-0.2,0.1-0.4,0.1c-0.2,0.1-0.6,0.1-1,0.1c-0.4,0-0.7,0.1-0.9,0.1c-0.4,0.1-0.6,0.3-0.8,0.4
		c-0.2,0.2-0.3,0.4-0.2,0.7c0,0.3,0.2,0.5,0.5,0.7c0.3,0.1,0.6,0.2,0.9,0.1c0.7,0,1.3-0.3,1.6-0.6c0.4-0.4,0.6-0.7,0.6-1V572.1z"/>
	<path fill="#221F20" d="M311.4,573.4c-0.1,0.6-0.5,1.1-0.9,1.5c-0.5,0.4-1.1,0.7-2,0.7c-1,0-1.7-0.3-2.3-0.9
		c-0.6-0.6-0.8-1.4-0.8-2.4c0-1,0.3-1.7,0.8-2.4c0.6-0.6,1.3-0.9,2.3-0.9c0.8,0,1.5,0.2,2,0.7c0.5,0.5,0.8,1,0.9,1.5h-1.2
		c-0.1-0.3-0.2-0.5-0.5-0.8c-0.3-0.3-0.7-0.4-1.2-0.4c-0.6,0-1.1,0.2-1.4,0.7c-0.3,0.4-0.5,1-0.5,1.7c0,0.7,0.2,1.3,0.5,1.7
		c0.3,0.4,0.8,0.7,1.4,0.7c0.5,0,0.8-0.1,1.1-0.4c0.3-0.2,0.5-0.5,0.6-0.8H311.4z"/>
	<path fill="#221F20" d="M317,575.3l-2.6-3.1l-0.9,0.7v2.4h-1.1v-8.5h1.1v4.9l2.8-2.6h1.4l-2.6,2.5l3.2,3.7H317z"/>
	<path fill="#221F20" d="M318.9,567.8v-1.1h1.1v1.1H318.9z M318.9,575.3v-6.2h1.1v6.2H318.9z"/>
	<path fill="#221F20" d="M325.8,575.3v-3.7c0-0.6-0.1-1-0.4-1.2c-0.2-0.2-0.6-0.4-1.1-0.4c-0.5,0-0.9,0.2-1.3,0.5
		c-0.3,0.3-0.5,0.8-0.5,1.3v3.5h-1.1v-6.2h1.1v0.7c0.3-0.3,0.6-0.5,1-0.7c0.4-0.2,0.9-0.3,1.4-0.2c0.7,0.1,1.1,0.4,1.4,0.8
		c0.3,0.5,0.4,0.9,0.4,1.3v4.2H325.8z"/>
	<path fill="#221F20" d="M334.1,574.4c0,1-0.3,1.7-0.9,2.1c-0.6,0.4-1.3,0.6-2,0.6c-0.9,0-1.6-0.2-2.1-0.6c-0.5-0.4-0.8-0.9-0.8-1.4
		h1.1c0,0.3,0.2,0.5,0.5,0.8c0.3,0.2,0.8,0.3,1.4,0.3c0.6,0,1.1-0.1,1.4-0.4c0.3-0.3,0.4-0.7,0.4-1.2v-0.6c-0.3,0.3-0.6,0.5-1,0.7
		c-0.4,0.2-0.7,0.2-1.1,0.2c-0.8,0-1.5-0.3-2.1-0.8c-0.6-0.6-0.9-1.3-0.9-2.1c0-0.9,0.3-1.6,0.8-2.1c0.6-0.5,1.3-0.8,2.1-0.8
		c0.4,0,0.8,0.1,1.1,0.2c0.4,0.2,0.7,0.4,1,0.7v-0.6h1.1V574.4z M332.5,573.3c0.4-0.3,0.6-0.8,0.6-1.5c0-0.7-0.2-1.2-0.6-1.5
		c-0.4-0.3-0.8-0.5-1.4-0.5c-0.6,0-1.1,0.2-1.4,0.5c-0.4,0.3-0.5,0.8-0.5,1.5c0,0.7,0.2,1.2,0.5,1.5c0.4,0.3,0.8,0.5,1.4,0.5
		C331.7,573.8,332.2,573.6,332.5,573.3z"/>
	<path fill="#221F20" d="M345.4,567.5c0.6,0.5,0.8,1.1,0.8,1.9c0,0.8-0.3,1.4-0.8,1.9c-0.6,0.5-1.2,0.7-2.1,0.7H341v3.3h-1.1v-8.5
		h3.5C344.1,566.8,344.8,567,345.4,567.5z M344.5,570.6c0.4-0.3,0.5-0.7,0.5-1.2c0-0.6-0.2-1-0.5-1.2c-0.4-0.2-0.8-0.3-1.2-0.3H341
		v3.1h2.4C343.8,570.9,344.2,570.8,344.5,570.6z"/>
	<path fill="#221F20" d="M350.3,570.1c-0.2,0-0.4,0-0.6,0c-0.2,0-0.3,0.1-0.5,0.1c-0.4,0.2-0.6,0.4-0.8,0.8
		c-0.2,0.3-0.3,0.8-0.3,1.4v2.9h-1.1v-6.1h1.1v0.9l0.1,0c0.1-0.2,0.3-0.4,0.5-0.6c0.2-0.1,0.4-0.3,0.6-0.4c0.2-0.1,0.4-0.1,0.6-0.1
		c0.2,0,0.3,0,0.3,0V570.1z"/>
	<path fill="#221F20" d="M351.3,567.8v-1.1h1.1v1.1H351.3z M351.3,575.3v-6.2h1.1v6.2H351.3z"/>
	<path fill="#221F20" d="M358.7,569.9c0.6,0.6,0.8,1.4,0.8,2.4c0,1-0.3,1.7-0.8,2.4c-0.6,0.6-1.3,0.9-2.3,0.9c-1,0-1.7-0.3-2.3-0.9
		c-0.6-0.6-0.8-1.4-0.8-2.4c0-1,0.3-1.7,0.8-2.4c0.6-0.6,1.3-0.9,2.3-0.9C357.4,568.9,358.2,569.2,358.7,569.9z M357.9,574
		c0.4-0.4,0.6-1,0.6-1.8c0-0.7-0.2-1.3-0.6-1.7c-0.4-0.4-0.8-0.7-1.4-0.7c-0.6,0-1.1,0.2-1.5,0.7c-0.4,0.4-0.5,1-0.5,1.7
		c0,0.7,0.2,1.3,0.5,1.8c0.4,0.4,0.8,0.7,1.5,0.7C357,574.6,357.5,574.4,357.9,574z"/>
	<path fill="#221F20" d="M363.7,570.1c-0.2,0-0.4,0-0.6,0c-0.2,0-0.3,0.1-0.5,0.1c-0.4,0.2-0.6,0.4-0.8,0.8
		c-0.2,0.3-0.3,0.8-0.3,1.4v2.9h-1.1v-6.1h1.1v0.9l0.1,0c0.1-0.2,0.3-0.4,0.5-0.6c0.2-0.1,0.4-0.3,0.6-0.4c0.2-0.1,0.4-0.1,0.6-0.1
		c0.2,0,0.3,0,0.3,0V570.1z"/>
	<path fill="#221F20" d="M364.6,567.8v-1.1h1.1v1.1H364.6z M364.6,575.3v-6.2h1.1v6.2H364.6z"/>
	<path fill="#221F20" d="M368.6,575.3c-0.2,0-0.4-0.1-0.6-0.2c-0.2-0.1-0.3-0.2-0.4-0.4c-0.1-0.1-0.2-0.3-0.2-0.4
		c0-0.2-0.1-0.4-0.1-0.7v-3.5h-0.8v-0.9l0.8,0v-1.9h1.1v1.9l0.9,0v0.9h-0.9v3.4c0,0.1,0,0.3,0,0.4c0,0.1,0.1,0.2,0.2,0.3
		c0.1,0.1,0.2,0.1,0.4,0.2c0.1,0,0.3,0,0.4,0l0,0.9H368.6z"/>
	<path fill="#221F20" d="M373.2,576c-0.1,0.2-0.2,0.4-0.3,0.5c-0.1,0.1-0.3,0.3-0.5,0.4c-0.2,0.1-0.4,0.2-0.5,0.2
		c-0.2,0-0.4,0-0.5,0H371v-0.9h0.6c0.2,0,0.3-0.1,0.4-0.2c0.1-0.1,0.2-0.2,0.3-0.3l0.3-0.6l-2.5-5.9l1.1,0l1.9,4.5l1.9-4.5h1.1
		L373.2,576z"/>
	<path fill="#221F20" d="M377.8,573.8c0.3-0.9,0.4-1.9,0.4-2.8c0-0.9-0.1-1.8-0.4-2.8c-0.3-0.9-0.7-2-1.4-3h0.9
		c0.4,0.6,0.9,1.4,1.4,2.4c0.5,1,0.7,2.1,0.7,3.4c0,1.3-0.2,2.5-0.7,3.4c-0.5,1-0.9,1.8-1.4,2.4h-0.9
		C377.1,575.8,377.5,574.8,377.8,573.8z"/>
</g>
</svg>
