<?xml version="1.0" encoding="utf-8"?>
<!-- Generator: Adobe Illustrator 22.0.1, SVG Export Plug-In . SVG Version: 6.00 Build 0)  -->
<svg version="1.2" baseProfile="tiny" id="레이어_1"
	 xmlns="http://www.w3.org/2000/svg" xmlns:xlink="http://www.w3.org/1999/xlink" x="0px" y="0px" viewBox="0 0 64 64"
	 xml:space="preserve">
<rect x="-301.6" y="-104.6" fill="none" stroke="#000000" stroke-miterlimit="10" width="64" height="64"/>
<rect x="-301.6" y="-104.6" fill="none" stroke="#000000" stroke-miterlimit="10" width="64" height="64"/>
<rect x="-301.6" y="-104.6" fill="none" stroke="#000000" stroke-miterlimit="10" width="64" height="64"/>
<rect x="-301.6" y="-104.6" fill="none" stroke="#000000" stroke-miterlimit="10" width="64" height="64"/>
<rect x="-301.6" y="-104.6" fill="none" stroke="#000000" stroke-miterlimit="10" width="64" height="64"/>
<rect x="-301.6" y="-104.6" fill="none" stroke="#000000" stroke-miterlimit="10" width="64" height="64"/>
<rect x="-301.6" y="-104.6" fill="none" stroke="#000000" stroke-miterlimit="10" width="64" height="64"/>
<rect x="-301.6" y="-104.6" fill="none" stroke="#000000" stroke-miterlimit="10" width="64" height="64"/>
<rect x="-301.6" y="-104.6" fill="none" stroke="#000000" stroke-miterlimit="10" width="64" height="64"/>
<rect x="-301.6" y="-104.6" fill="none" stroke="#000000" stroke-miterlimit="10" width="64" height="64"/>
<rect x="-301.6" y="-104.6" fill="none" stroke="#000000" stroke-miterlimit="10" width="64" height="64"/>
<rect x="-301.6" y="-104.6" fill="none" stroke="#000000" stroke-miterlimit="10" width="64" height="64"/>
<rect x="-301.6" y="-104.6" fill="none" stroke="#000000" stroke-miterlimit="10" width="64" height="64"/>
<rect x="-301.6" y="-104.6" fill="none" stroke="#000000" stroke-miterlimit="10" width="64" height="64"/>
<rect x="-301.6" y="-104.6" fill="none" stroke="#000000" stroke-miterlimit="10" width="64" height="64"/>
<rect x="-301.6" y="-104.6" fill="none" stroke="#000000" stroke-miterlimit="10" width="64" height="64"/>
<rect x="-301.6" y="-104.6" fill="none" stroke="#000000" stroke-miterlimit="10" width="64" height="64"/>
<rect x="-301.6" y="-104.6" fill="none" stroke="#000000" stroke-miterlimit="10" width="64" height="64"/>
<rect x="-301.6" y="-104.6" fill="none" stroke="#000000" stroke-miterlimit="10" width="64" height="64"/>
<rect x="-301.6" y="-104.6" fill="none" stroke="#000000" stroke-miterlimit="10" width="64" height="64"/>
<rect x="-301.6" y="-104.6" fill="none" stroke="#000000" stroke-miterlimit="10" width="64" height="64"/>
<rect x="-301.6" y="-104.6" fill="none" stroke="#000000" stroke-miterlimit="10" width="64" height="64"/>
<rect x="-301.6" y="-104.6" fill="none" stroke="#000000" stroke-miterlimit="10" width="64" height="64"/>
<rect x="-301.6" y="-104.6" fill="none" stroke="#000000" stroke-miterlimit="10" width="64" height="64"/>
<rect x="-301.6" y="-104.6" fill="none" stroke="#000000" stroke-miterlimit="10" width="64" height="64"/>
<rect x="-301.6" y="-104.6" fill="none" stroke="#000000" stroke-miterlimit="10" width="64" height="64"/>
<rect x="-301.6" y="-104.6" fill="none" stroke="#000000" stroke-miterlimit="10" width="64" height="64"/>
<rect x="-301.6" y="-104.6" fill="none" stroke="#000000" stroke-miterlimit="10" width="64" height="64"/>
<rect x="-301.6" y="-104.6" fill="none" stroke="#000000" stroke-miterlimit="10" width="64" height="64"/>
<rect x="-301.6" y="-104.6" fill="none" stroke="#000000" stroke-miterlimit="10" width="64" height="64"/>
<rect x="-301.6" y="-104.6" fill="none" stroke="#000000" stroke-miterlimit="10" width="64" height="64"/>
<rect x="-301.6" y="-104.6" fill="none" stroke="#000000" stroke-miterlimit="10" width="64" height="64"/>
<rect x="-301.6" y="-104.6" fill="none" stroke="#000000" stroke-miterlimit="10" width="64" height="64"/>
<rect x="-301.6" y="-104.6" fill="none" stroke="#000000" stroke-miterlimit="10" width="64" height="64"/>
<rect x="-301.6" y="-104.6" fill="none" stroke="#000000" stroke-miterlimit="10" width="64" height="64"/>
<rect x="-301.6" y="-104.6" fill="none" stroke="#000000" stroke-miterlimit="10" width="64" height="64"/>
<rect x="-301.6" y="-104.6" fill="none" stroke="#000000" stroke-miterlimit="10" width="64" height="64"/>
<rect x="-301.6" y="-104.6" fill="none" stroke="#000000" stroke-miterlimit="10" width="64" height="64"/>
<rect x="-301.6" y="-104.6" fill="none" stroke="#000000" stroke-miterlimit="10" width="64" height="64"/>
<rect x="-301.6" y="-104.6" fill="none" stroke="#000000" stroke-miterlimit="10" width="64" height="64"/>
<rect x="-301.6" y="-104.6" fill="none" stroke="#000000" stroke-miterlimit="10" width="64" height="64"/>
<rect x="-301.6" y="-104.6" fill="none" stroke="#000000" stroke-miterlimit="10" width="64" height="64"/>
<rect x="-301.6" y="-104.6" fill="none" stroke="#000000" stroke-miterlimit="10" width="64" height="64"/>
<rect x="-301.6" y="-104.6" fill="none" stroke="#000000" stroke-miterlimit="10" width="64" height="64"/>
<rect x="-301.6" y="-104.6" fill="none" stroke="#000000" stroke-miterlimit="10" width="64" height="64"/>
<rect x="-301.6" y="-104.6" fill="none" stroke="#000000" stroke-miterlimit="10" width="64" height="64"/>
<rect x="-301.6" y="-104.6" fill="none" stroke="#000000" stroke-miterlimit="10" width="64" height="64"/>
<rect x="-301.6" y="-104.6" fill="none" stroke="#000000" stroke-miterlimit="10" width="64" height="64"/>
<rect x="-301.6" y="-104.6" fill="none" stroke="#000000" stroke-miterlimit="10" width="64" height="64"/>
<rect x="-301.6" y="-104.6" fill="none" stroke="#000000" stroke-miterlimit="10" width="64" height="64"/>
<rect x="-301.6" y="-104.6" fill="none" stroke="#000000" stroke-miterlimit="10" width="64" height="64"/>
<rect x="-301.6" y="-104.6" fill="none" stroke="#000000" stroke-miterlimit="10" width="64" height="64"/>
<rect x="-301.6" y="-104.6" fill="none" stroke="#000000" stroke-miterlimit="10" width="64" height="64"/>
<rect x="-301.6" y="-104.6" fill="none" stroke="#000000" stroke-miterlimit="10" width="64" height="64"/>
<rect x="-301.6" y="-104.6" fill="none" stroke="#000000" stroke-miterlimit="10" width="64" height="64"/>
<rect x="-301.6" y="-104.6" fill="none" stroke="#000000" stroke-miterlimit="10" width="64" height="64"/>
<rect x="-301.6" y="-104.6" fill="none" stroke="#000000" stroke-miterlimit="10" width="64" height="64"/>
<rect x="-301.6" y="-104.6" fill="none" stroke="#000000" stroke-miterlimit="10" width="64" height="64"/>
<rect x="-301.6" y="-104.6" fill="none" stroke="#000000" stroke-miterlimit="10" width="64" height="64"/>
<rect x="-301.6" y="-104.6" fill="none" stroke="#000000" stroke-miterlimit="10" width="64" height="64"/>
<rect x="-301.6" y="-104.6" fill="none" stroke="#000000" stroke-miterlimit="10" width="64" height="64"/>
<rect x="-301.6" y="-104.6" fill="none" stroke="#000000" stroke-miterlimit="10" width="64" height="64"/>
<rect x="-301.6" y="-104.6" fill="none" stroke="#000000" stroke-miterlimit="10" width="64" height="64"/>
<rect x="-301.6" y="-104.6" fill="none" stroke="#000000" stroke-miterlimit="10" width="64" height="64"/>
<rect x="-301.6" y="-104.6" fill="none" stroke="#000000" stroke-miterlimit="10" width="64" height="64"/>
<rect x="-301.6" y="-104.6" fill="none" stroke="#000000" stroke-miterlimit="10" width="64" height="64"/>
<rect x="-301.6" y="-104.6" fill="none" stroke="#000000" stroke-miterlimit="10" width="64" height="64"/>
<rect x="-301.6" y="-104.6" fill="none" stroke="#000000" stroke-miterlimit="10" width="64" height="64"/>
<rect x="-301.6" y="-104.6" fill="none" stroke="#000000" stroke-miterlimit="10" width="64" height="64"/>
<rect x="-301.6" y="-104.6" fill="none" stroke="#000000" stroke-miterlimit="10" width="64" height="64"/>
<rect x="-301.6" y="-104.6" fill="none" stroke="#000000" stroke-miterlimit="10" width="64" height="64"/>
<rect x="-301.6" y="-104.6" fill="none" stroke="#000000" stroke-miterlimit="10" width="64" height="64"/>
<rect x="-301.6" y="-104.6" fill="none" stroke="#000000" stroke-miterlimit="10" width="64" height="64"/>
<rect x="-301.6" y="-104.6" fill="none" stroke="#000000" stroke-miterlimit="10" width="64" height="64"/>
<rect x="-301.6" y="-104.6" fill="none" stroke="#000000" stroke-miterlimit="10" width="64" height="64"/>
<rect x="-301.6" y="-104.6" fill="none" stroke="#000000" stroke-miterlimit="10" width="64" height="64"/>
<rect x="-301.6" y="-104.6" fill="none" stroke="#000000" stroke-miterlimit="10" width="64" height="64"/>
<rect x="-301.6" y="-104.6" fill="none" stroke="#000000" stroke-miterlimit="10" width="64" height="64"/>
<rect x="-301.6" y="-104.6" fill="none" stroke="#000000" stroke-miterlimit="10" width="64" height="64"/>
<rect x="-301.6" y="-104.6" fill="none" stroke="#000000" stroke-miterlimit="10" width="64" height="64"/>
<rect x="-301.6" y="-104.6" fill="none" stroke="#000000" stroke-miterlimit="10" width="64" height="64"/>
<rect x="-301.6" y="-104.6" fill="none" stroke="#000000" stroke-miterlimit="10" width="64" height="64"/>
<rect x="-301.6" y="-104.6" fill="none" stroke="#000000" stroke-miterlimit="10" width="64" height="64"/>
<rect x="-301.6" y="-104.6" fill="none" stroke="#000000" stroke-miterlimit="10" width="64" height="64"/>
<rect x="-301.6" y="-104.6" fill="none" stroke="#000000" stroke-miterlimit="10" width="64" height="64"/>
<rect x="-301.6" y="-104.6" fill="none" stroke="#000000" stroke-miterlimit="10" width="64" height="64"/>
<rect x="-301.6" y="-104.6" fill="none" stroke="#000000" stroke-miterlimit="10" width="64" height="64"/>
<rect x="-301.6" y="-104.6" fill="none" stroke="#000000" stroke-miterlimit="10" width="64" height="64"/>
<rect x="-301.6" y="-104.6" fill="none" stroke="#000000" stroke-miterlimit="10" width="64" height="64"/>
<rect x="-301.6" y="-104.6" fill="none" stroke="#000000" stroke-miterlimit="10" width="64" height="64"/>
<rect x="-301.6" y="-104.6" fill="none" stroke="#000000" stroke-miterlimit="10" width="64" height="64"/>
<rect x="-301.6" y="-104.6" fill="none" stroke="#000000" stroke-miterlimit="10" width="64" height="64"/>
<rect x="-301.6" y="-104.6" fill="none" stroke="#000000" stroke-miterlimit="10" width="64" height="64"/>
<rect x="-301.6" y="-104.6" fill="none" stroke="#000000" stroke-miterlimit="10" width="64" height="64"/>
<rect x="-301.6" y="-104.6" fill="none" stroke="#000000" stroke-miterlimit="10" width="64" height="64"/>
<rect x="-301.6" y="-104.6" fill="none" stroke="#000000" stroke-miterlimit="10" width="64" height="64"/>
<rect x="-301.6" y="-104.6" fill="none" stroke="#000000" stroke-miterlimit="10" width="64" height="64"/>
<rect x="-301.6" y="-104.6" fill="none" stroke="#000000" stroke-miterlimit="10" width="64" height="64"/>
<rect x="-301.6" y="-104.6" fill="none" stroke="#000000" stroke-miterlimit="10" width="64" height="64"/>
<rect x="-301.6" y="-104.6" fill="none" stroke="#000000" stroke-miterlimit="10" width="64" height="64"/>
<rect x="-301.6" y="-104.6" fill="none" stroke="#000000" stroke-miterlimit="10" width="64" height="64"/>
<rect x="-301.6" y="-104.6" fill="none" stroke="#000000" stroke-miterlimit="10" width="64" height="64"/>
<rect x="-301.6" y="-104.6" fill="none" stroke="#000000" stroke-miterlimit="10" width="64" height="64"/>
<g>
	<polyline fill="#040000" points="22.9,25.6 19.2,24.4 9.1,27.5 13.1,35.4 11.5,36.3 6.5,26.4 19.2,22.5 22.8,23.7 	"/>
	<polygon fill="#040000" points="12.2,23.5 10.4,23.5 10.4,17.2 29.2,17.2 29.2,23.1 27.4,23.1 27.4,19 12.2,19 	"/>
	<path fill="#040000" d="M24.1,19H15v-7.4h9.1V19z M16.8,17.2h5.5v-3.8h-5.5V17.2z"/>
	<rect x="19.2" y="24" fill="#040000" width="1.8" height="11.1"/>
	<path fill="#040000" d="M11.1,42.1c-2.3,0-4-1.2-4-2.8c0-0.5,0.4-0.9,0.9-0.9s0.9,0.4,0.9,0.9c0,0.4,0.9,1,2.2,1
		c1.3,0,2.2-0.6,2.2-1c0-0.5,0.4-0.9,0.9-0.9c0.5,0,0.9,0.4,0.9,0.9C15.1,40.9,13.4,42.1,11.1,42.1z"/>
	<path fill="#040000" d="M17.5,42.1c-2.3,0-4-1.2-4-2.8c0-0.5,0.4-0.9,0.9-0.9c0.5,0,0.9,0.4,0.9,0.9c0,0.4,0.9,1,2.2,1
		c1.3,0,2.2-0.6,2.2-1c0-0.5,0.4-0.9,0.9-0.9c0.5,0,0.9,0.4,0.9,0.9C21.5,40.9,19.7,42.1,17.5,42.1z"/>
	<path fill="none" d="M40.6,47.3l-2.8-2.7l2.2-2.2l-0.6-0.6l4.1-4.2V25H24.6v25.4h18.9v-4.7l-0.7-0.7L40.6,47.3z M38,48.4l-1.1-1
		l1.8-1.8l1.1,1L38,48.4z"/>
	<polygon fill="none" points="43.5,43.1 43.5,40.2 42,41.7 	"/>
	<polygon fill="none" points="54.8,31.7 53.3,30.2 45.4,38.2 45.4,41.3 	"/>
	<rect x="40" y="43.8" transform="matrix(0.6992 -0.7149 0.7149 0.6992 -19.3722 42.5147)" fill="none" width="1.6" height="0.9"/>
	<polygon fill="#040000" points="40,42.3 41.2,41.1 43.5,43.4 43.5,43.1 42,41.7 43.5,40.2 43.5,37.5 39.3,41.7 	"/>
	<polygon fill="#040000" points="42.8,45.1 43.5,45.7 43.5,44.4 	"/>
	
		<rect x="41.4" y="43.2" transform="matrix(0.6992 -0.7149 0.7149 0.6992 -18.7322 42.7668)" fill="#040000" width="0.2" height="0.9"/>
	<polygon fill="#040000" points="53.3,30.2 54.8,31.7 45.4,41.3 45.4,44 57.5,31.7 53.2,27.5 45.4,35.5 45.4,38.2 	"/>
	<polygon fill="#040000" points="40.6,45.2 39.9,44.5 41.1,43.4 40,42.3 37.8,44.5 40.6,47.3 42.8,45.1 41.7,44 	"/>
	<polygon fill="#040000" points="40,42.3 41.1,43.4 41.2,43.3 41.9,43.9 41.7,44 42.8,45.1 43.5,44.4 43.5,43.4 41.2,41.1 	"/>
	
		<rect x="37.1" y="46.2" transform="matrix(0.6992 -0.715 0.715 0.6992 -21.9944 41.5617)" fill="#040000" width="2.6" height="1.5"/>
	<polygon fill="#050000" points="43.6,45.8 43.5,45.7 43.5,50.4 24.6,50.4 24.6,25 43.5,25 43.5,37.5 45.4,35.5 45.4,23.1 
		22.6,23.1 22.6,52.3 45.4,52.3 45.4,44 	"/>
	<polygon fill="#050000" points="43.5,40.2 45.4,38.2 45.4,35.5 43.5,37.5 	"/>
	<polygon fill="#050000" points="43.5,43.2 43.5,43.1 43.5,43.4 44,43.9 43.5,44.4 43.5,45.7 43.6,45.8 45.4,44 45.4,41.3 	"/>
	<polygon fill="#050000" points="44,43.9 43.5,43.4 43.5,44.4 	"/>
	<rect x="26.9" y="27.6" fill="#050000" width="5.9" height="1.9"/>
	<rect x="26.9" y="32.2" fill="#050000" width="5.9" height="1.9"/>
	<rect x="26.9" y="36.7" fill="#050000" width="5.9" height="1.9"/>
	<rect x="26.9" y="41.3" fill="#050000" width="5.9" height="1.9"/>
	<rect x="26.9" y="45.8" fill="#050000" width="5.9" height="1.9"/>
	<polygon fill="#050000" points="37.6,31.4 36,29.8 34.6,31.2 37.6,34.2 42.5,29.3 41.1,27.9 	"/>
	<polygon fill="#050000" points="37.6,36.7 36,35.1 34.6,36.4 37.6,39.4 42.5,34.5 41.1,33.1 	"/>
</g>
<g>
	<rect x="-204.8" y="200.2" width="4" height="4"/>
	<rect x="-198.8" y="200.2" width="4" height="4"/>
	<rect x="-192.8" y="200.2" width="4" height="4"/>
	<rect x="-186.8" y="200.2" width="4" height="4"/>
	<rect x="-180.8" y="200.2" width="4" height="4"/>
	<rect x="-174.8" y="200.2" width="4" height="4"/>
	<rect x="-168.8" y="200.2" width="4" height="4"/>
	<rect x="-162.8" y="200.2" width="4" height="4"/>
	<rect x="-156.8" y="200.2" width="4" height="4"/>
	<rect x="-204.8" y="206.2" width="4" height="4"/>
	<rect x="-198.8" y="206.2" width="4" height="4"/>
	<rect x="-192.8" y="206.2" width="4" height="4"/>
	<rect x="-186.8" y="206.2" width="4" height="4"/>
	<rect x="-180.8" y="206.2" width="4" height="4"/>
	<rect x="-174.8" y="206.2" width="4" height="4"/>
	<rect x="-168.8" y="206.2" width="4" height="4"/>
	<rect x="-162.8" y="206.2" width="4" height="4"/>
	<rect x="-156.8" y="206.2" width="4" height="4"/>
	<rect x="-204.8" y="218.2" width="4" height="4"/>
	<rect x="-198.8" y="218.2" width="4" height="4"/>
	<rect x="-192.8" y="218.2" width="4" height="4"/>
	<rect x="-186.8" y="218.2" width="4" height="4"/>
	<rect x="-180.8" y="218.2" width="4" height="4"/>
	<rect x="-174.8" y="218.2" width="4" height="4"/>
	<rect x="-204.8" y="224.2" width="4" height="4"/>
	<rect x="-198.8" y="224.2" width="4" height="4"/>
	<rect x="-192.8" y="224.2" width="4" height="4"/>
	<rect x="-186.8" y="224.2" width="4" height="4"/>
	<rect x="-180.8" y="224.2" width="4" height="4"/>
	<rect x="-174.8" y="224.2" width="4" height="4"/>
	<rect x="-198.8" y="230.2" width="4" height="4"/>
	<rect x="-192.8" y="230.2" width="4" height="4"/>
	<rect x="-186.8" y="230.2" width="4" height="4"/>
	<rect x="-180.8" y="230.2" width="4" height="4"/>
	<rect x="-174.8" y="230.2" width="4" height="4"/>
	<rect x="-192.8" y="236.2" width="4" height="4"/>
	<rect x="-186.8" y="236.2" width="4" height="4"/>
	<rect x="-180.8" y="236.2" width="4" height="4"/>
	<rect x="-174.8" y="236.2" width="4" height="4"/>
	<rect x="-186.8" y="242.2" width="4" height="4"/>
	<rect x="-180.8" y="242.2" width="4" height="4"/>
	<rect x="-174.8" y="242.2" width="4" height="4"/>
	<line fill="none" stroke="#000000" stroke-width="3" stroke-miterlimit="10" x1="-204.8" y1="214.2" x2="-152.8" y2="214.2"/>
	<path fill="none" d="M-150.6,242.7l-2.8-2.7l2.2-2.2l-0.6-0.6l4.1-4.2v-12.5h-18.9v25.4h18.9v-4.7l-0.7-0.7L-150.6,242.7z
		 M-153.3,243.8l-1.1-1l1.8-1.8l1.1,1L-153.3,243.8z"/>
	<polygon fill="none" points="-147.8,238.6 -147.8,235.6 -149.3,237.1 	"/>
	<polygon fill="none" points="-136.5,227.1 -138,225.6 -145.9,233.6 -145.9,236.7 	"/>
	
		<rect x="-151.2" y="239.2" transform="matrix(0.6992 -0.7149 0.7149 0.6992 -216.6375 -35.4552)" fill="none" width="1.6" height="0.9"/>
	<polygon fill="#040000" points="-151.3,237.8 -150.1,236.6 -147.8,238.8 -147.8,238.6 -149.3,237.1 -147.8,235.6 -147.8,232.9 
		-151.9,237.1 	"/>
	<polygon fill="#040000" points="-148.5,240.5 -147.8,241.2 -147.8,239.8 	"/>
	
		<rect x="-149.9" y="238.6" transform="matrix(0.6992 -0.7149 0.7149 0.6992 -215.9946 -35.2032)" fill="#040000" width="0.2" height="0.9"/>
	<polygon fill="#040000" points="-138,225.6 -136.5,227.1 -145.9,236.7 -145.9,239.4 -133.8,227.1 -138.1,223 -145.9,231 
		-145.9,233.6 	"/>
	<polygon fill="#040000" points="-150.7,240.6 -151.3,240 -150.2,238.8 -151.3,237.8 -153.5,240 -150.6,242.7 -148.5,240.5 
		-149.6,239.5 	"/>
	<polygon fill="#040000" points="-151.3,237.8 -150.2,238.8 -150.1,238.7 -149.4,239.3 -149.6,239.5 -148.5,240.5 -147.8,239.8 
		-147.8,238.8 -150.1,236.6 	"/>
	
		<rect x="-154.2" y="241.6" transform="matrix(0.6992 -0.715 0.715 0.6992 -219.267 -36.4081)" fill="#040000" width="2.6" height="1.5"/>
	<polygon fill="#050000" points="-147.7,241.3 -147.8,241.2 -147.8,245.8 -166.7,245.8 -166.7,220.4 -147.8,220.4 -147.8,232.9 
		-145.9,231 -145.9,218.5 -168.7,218.5 -168.7,247.8 -145.9,247.8 -145.9,239.4 	"/>
	<polygon fill="#050000" points="-147.8,235.6 -145.9,233.6 -145.9,231 -147.8,232.9 	"/>
	<polygon fill="#050000" points="-147.7,238.6 -147.8,238.6 -147.8,238.8 -147.3,239.3 -147.8,239.8 -147.8,241.2 -147.7,241.3 
		-145.9,239.4 -145.9,236.7 	"/>
	<polygon fill="#050000" points="-147.3,239.3 -147.8,238.8 -147.8,239.8 	"/>
	<rect x="-164.4" y="223" fill="#050000" width="5.9" height="1.9"/>
	<rect x="-164.4" y="227.6" fill="#050000" width="5.9" height="1.9"/>
	<rect x="-164.4" y="232.2" fill="#050000" width="5.9" height="1.9"/>
	<rect x="-164.4" y="236.7" fill="#050000" width="5.9" height="1.9"/>
	<rect x="-164.4" y="241.3" fill="#050000" width="5.9" height="1.9"/>
	<polygon fill="#050000" points="-153.7,226.9 -155.3,225.3 -156.7,226.6 -153.7,229.6 -148.8,224.7 -150.1,223.3 	"/>
	<polygon fill="#050000" points="-153.7,232.1 -155.3,230.5 -156.7,231.9 -153.7,234.8 -148.8,229.9 -150.1,228.5 	"/>
</g>
<g>
	<rect x="-387.5" y="205.2" width="3.2" height="3.2"/>
	<rect x="-382.7" y="205.2" width="3.2" height="3.2"/>
	<rect x="-377.8" y="205.2" width="3.2" height="3.2"/>
	<rect x="-373" y="205.2" width="3.2" height="3.2"/>
	<rect x="-368.1" y="205.2" width="3.2" height="3.2"/>
	<rect x="-363.3" y="205.2" width="3.2" height="3.2"/>
	<rect x="-358.5" y="205.2" width="3.2" height="3.2"/>
	<rect x="-353.6" y="205.2" width="3.2" height="3.2"/>
	<rect x="-348.8" y="205.2" width="3.2" height="3.2"/>
	<rect x="-387.5" y="210" width="3.2" height="3.2"/>
	<rect x="-382.7" y="210" width="3.2" height="3.2"/>
	<rect x="-377.8" y="210" width="3.2" height="3.2"/>
	<rect x="-373" y="210" width="3.2" height="3.2"/>
	<rect x="-368.1" y="210" width="3.2" height="3.2"/>
	<rect x="-363.3" y="210" width="3.2" height="3.2"/>
	<rect x="-358.5" y="210" width="3.2" height="3.2"/>
	<rect x="-353.6" y="210" width="3.2" height="3.2"/>
	<rect x="-348.8" y="210" width="3.2" height="3.2"/>
	<rect x="-387.5" y="219.7" width="3.2" height="3.2"/>
	<rect x="-382.7" y="219.7" width="3.2" height="3.2"/>
	<rect x="-377.8" y="219.7" width="3.2" height="3.2"/>
	<rect x="-373" y="219.7" width="3.2" height="3.2"/>
	<rect x="-368.1" y="219.7" width="3.2" height="3.2"/>
	<rect x="-363.3" y="219.7" width="3.2" height="3.2"/>
	<rect x="-387.5" y="224.5" width="3.2" height="3.2"/>
	<rect x="-382.7" y="224.5" width="3.2" height="3.2"/>
	<rect x="-377.8" y="224.5" width="3.2" height="3.2"/>
	<rect x="-373" y="224.5" width="3.2" height="3.2"/>
	<rect x="-368.1" y="224.5" width="3.2" height="3.2"/>
	<rect x="-363.3" y="224.5" width="3.2" height="3.2"/>
	<rect x="-382.7" y="229.4" width="3.2" height="3.2"/>
	<rect x="-377.8" y="229.4" width="3.2" height="3.2"/>
	<rect x="-373" y="229.4" width="3.2" height="3.2"/>
	<rect x="-368.1" y="229.4" width="3.2" height="3.2"/>
	<rect x="-363.3" y="229.4" width="3.2" height="3.2"/>
	<rect x="-377.8" y="234.2" width="3.2" height="3.2"/>
	<rect x="-348.8" y="219.7" transform="matrix(-1 -1.224647e-16 1.224647e-16 -1 -694.3419 442.5959)" width="3.2" height="3.2"/>
	<rect x="-353.6" y="219.7" transform="matrix(-1 -1.224647e-16 1.224647e-16 -1 -704.019 442.5959)" width="3.2" height="3.2"/>
	<rect x="-358.5" y="219.7" transform="matrix(-1 -1.224647e-16 1.224647e-16 -1 -713.696 442.5959)" width="3.2" height="3.2"/>
	<rect x="-348.8" y="224.5" transform="matrix(-1 -1.224647e-16 1.224647e-16 -1 -694.3419 452.2731)" width="3.2" height="3.2"/>
	<rect x="-353.6" y="224.5" transform="matrix(-1 -1.224647e-16 1.224647e-16 -1 -704.019 452.2731)" width="3.2" height="3.2"/>
	<rect x="-358.5" y="224.5" transform="matrix(-1 -1.224647e-16 1.224647e-16 -1 -713.696 452.2731)" width="3.2" height="3.2"/>
	<rect x="-353.6" y="229.4" transform="matrix(-1 -1.224647e-16 1.224647e-16 -1 -704.019 461.9501)" width="3.2" height="3.2"/>
	<rect x="-358.5" y="229.4" transform="matrix(-1 -1.224647e-16 1.224647e-16 -1 -713.696 461.9501)" width="3.2" height="3.2"/>
	<rect x="-358.5" y="234.2" transform="matrix(-1 -1.224647e-16 1.224647e-16 -1 -713.696 471.6271)" width="3.2" height="3.2"/>
	<rect x="-373" y="234.2" width="3.2" height="3.2"/>
	<rect x="-368.1" y="234.2" width="3.2" height="3.2"/>
	<rect x="-363.3" y="234.2" width="3.2" height="3.2"/>
	<rect x="-373" y="239" width="3.2" height="3.2"/>
	<rect x="-368.1" y="239" width="3.2" height="3.2"/>
	<rect x="-363.3" y="239" width="3.2" height="3.2"/>
	<line fill="none" stroke="#000000" stroke-width="2.4193" stroke-miterlimit="10" x1="-387.5" y1="216.5" x2="-345.6" y2="216.5"/>
	<polyline fill="none" stroke="#000000" stroke-width="2.4193" stroke-miterlimit="10" points="-355.2,246.3 -338.2,229.3 
		-338.2,205.2 	"/>
	<polyline fill="none" stroke="#000000" stroke-width="2.4193" stroke-miterlimit="10" points="-347.7,248 -330.6,231 -330.6,204.9 
			"/>
</g>
<g>
	<rect x="-271.4" y="205.9" width="3.2" height="3.2"/>
	<rect x="-266.6" y="205.9" width="3.2" height="3.2"/>
	<rect x="-261.7" y="205.9" width="3.2" height="3.2"/>
	<rect x="-256.9" y="205.9" width="3.2" height="3.2"/>
	<rect x="-252" y="205.9" width="3.2" height="3.2"/>
	<rect x="-247.2" y="205.9" width="3.2" height="3.2"/>
	<rect x="-242.4" y="205.9" width="3.2" height="3.2"/>
	<rect x="-237.5" y="205.9" width="3.2" height="3.2"/>
	<rect x="-232.7" y="205.9" width="3.2" height="3.2"/>
	<rect x="-271.4" y="210.7" width="3.2" height="3.2"/>
	<rect x="-266.6" y="210.7" width="3.2" height="3.2"/>
	<rect x="-261.7" y="210.7" width="3.2" height="3.2"/>
	<rect x="-256.9" y="210.7" width="3.2" height="3.2"/>
	<rect x="-252" y="210.7" width="3.2" height="3.2"/>
	<rect x="-247.2" y="210.7" width="3.2" height="3.2"/>
	<rect x="-242.4" y="210.7" width="3.2" height="3.2"/>
	<rect x="-237.5" y="210.7" width="3.2" height="3.2"/>
	<rect x="-232.7" y="210.7" width="3.2" height="3.2"/>
	<rect x="-271.4" y="220.4" width="3.2" height="3.2"/>
	<rect x="-266.6" y="220.4" width="3.2" height="3.2"/>
	<rect x="-261.7" y="220.4" width="3.2" height="3.2"/>
	<rect x="-256.9" y="220.4" width="3.2" height="3.2"/>
	<rect x="-252" y="220.4" width="3.2" height="3.2"/>
	<rect x="-247.2" y="220.4" width="3.2" height="3.2"/>
	<rect x="-271.4" y="225.2" width="3.2" height="3.2"/>
	<rect x="-266.6" y="225.2" width="3.2" height="3.2"/>
	<rect x="-261.7" y="225.2" width="3.2" height="3.2"/>
	<rect x="-256.9" y="225.2" width="3.2" height="3.2"/>
	<rect x="-252" y="225.2" width="3.2" height="3.2"/>
	<rect x="-247.2" y="225.2" width="3.2" height="3.2"/>
	<rect x="-266.6" y="230.1" width="3.2" height="3.2"/>
	<rect x="-261.7" y="230.1" width="3.2" height="3.2"/>
	<rect x="-256.9" y="230.1" width="3.2" height="3.2"/>
	<rect x="-252" y="230.1" width="3.2" height="3.2"/>
	<rect x="-247.2" y="230.1" width="3.2" height="3.2"/>
	<rect x="-261.7" y="234.9" width="3.2" height="3.2"/>
	<rect x="-232.7" y="220.4" transform="matrix(-1 -1.224647e-16 1.224647e-16 -1 -462.1544 444.0371)" width="3.2" height="3.2"/>
	<rect x="-237.5" y="220.4" transform="matrix(-1 -1.224647e-16 1.224647e-16 -1 -471.8317 444.0371)" width="3.2" height="3.2"/>
	<rect x="-242.4" y="220.4" transform="matrix(-1 -1.224647e-16 1.224647e-16 -1 -481.5087 444.0371)" width="3.2" height="3.2"/>
	<rect x="-232.7" y="225.2" transform="matrix(-1 -1.224647e-16 1.224647e-16 -1 -462.1544 453.7143)" width="3.2" height="3.2"/>
	<rect x="-237.5" y="225.2" transform="matrix(-1 -1.224647e-16 1.224647e-16 -1 -471.8317 453.7143)" width="3.2" height="3.2"/>
	<rect x="-242.4" y="225.2" transform="matrix(-1 -1.224647e-16 1.224647e-16 -1 -481.5087 453.7143)" width="3.2" height="3.2"/>
	<rect x="-237.5" y="230.1" transform="matrix(-1 -1.224647e-16 1.224647e-16 -1 -471.8317 463.3913)" width="3.2" height="3.2"/>
	<rect x="-242.4" y="230.1" transform="matrix(-1 -1.224647e-16 1.224647e-16 -1 -481.5087 463.3913)" width="3.2" height="3.2"/>
	<rect x="-242.4" y="234.9" transform="matrix(-1 -1.224647e-16 1.224647e-16 -1 -481.5087 473.0683)" width="3.2" height="3.2"/>
	<rect x="-256.9" y="234.9" width="3.2" height="3.2"/>
	<rect x="-252" y="234.9" width="3.2" height="3.2"/>
	<rect x="-247.2" y="234.9" width="3.2" height="3.2"/>
	<rect x="-256.9" y="239.8" width="3.2" height="3.2"/>
	<rect x="-252" y="239.8" width="3.2" height="3.2"/>
	<rect x="-247.2" y="239.8" width="3.2" height="3.2"/>
	<line fill="none" stroke="#000000" stroke-width="2.4193" stroke-miterlimit="10" x1="-271.4" y1="217.2" x2="-229.5" y2="217.2"/>
	<polyline fill="none" stroke="#000000" stroke-width="2.4193" stroke-miterlimit="10" points="-239.1,247 -222.1,230 -222.1,205.9 
			"/>
</g>
<g>
	<polygon fill="none" stroke="#000000" stroke-width="2" stroke-miterlimit="10" points="-465.9,290.4 -476.9,290.4 -476.9,286.4 
		-465.9,286.4 -463.9,288.4 	"/>
	<polygon fill="none" stroke="#000000" stroke-width="2" stroke-miterlimit="10" points="-445.9,290.4 -456.9,290.4 -456.9,286.4 
		-445.9,286.4 -443.9,288.4 	"/>
	<rect x="-487.9" y="298.4" fill="none" stroke="#000000" stroke-width="2" stroke-miterlimit="10" width="56" height="32"/>
	<line fill="none" stroke="#000000" stroke-width="2" stroke-miterlimit="10" x1="-483.9" y1="305.4" x2="-475.9" y2="305.4"/>
	<line fill="none" stroke="#000000" stroke-width="2" stroke-miterlimit="10" x1="-463.9" y1="305.4" x2="-455.9" y2="305.4"/>
	<line fill="none" stroke="#000000" stroke-width="2" stroke-miterlimit="10" x1="-483.9" y1="309.4" x2="-475.9" y2="309.4"/>
	<line fill="none" stroke="#000000" stroke-width="2" stroke-miterlimit="10" x1="-463.9" y1="309.4" x2="-455.9" y2="309.4"/>
	<line fill="none" stroke="#000000" stroke-width="2" stroke-miterlimit="10" x1="-483.9" y1="313.4" x2="-475.9" y2="313.4"/>
	<line fill="none" stroke="#000000" stroke-width="2" stroke-miterlimit="10" x1="-463.9" y1="313.4" x2="-455.9" y2="313.4"/>
	<line fill="none" stroke="#000000" stroke-width="2" stroke-miterlimit="10" x1="-483.9" y1="317.4" x2="-475.9" y2="317.4"/>
	<line fill="none" stroke="#000000" stroke-width="2" stroke-miterlimit="10" x1="-463.9" y1="317.4" x2="-455.9" y2="317.4"/>
	<line fill="none" stroke="#000000" stroke-width="2" stroke-miterlimit="10" x1="-483.9" y1="321.4" x2="-475.9" y2="321.4"/>
	<line fill="none" stroke="#000000" stroke-width="2" stroke-miterlimit="10" x1="-463.9" y1="321.4" x2="-455.9" y2="321.4"/>
	<line fill="none" stroke="#000000" stroke-width="2" stroke-miterlimit="10" x1="-483.9" y1="309.4" x2="-475.9" y2="309.4"/>
	<line fill="none" stroke="#000000" stroke-width="2" stroke-miterlimit="10" x1="-463.9" y1="309.4" x2="-455.9" y2="309.4"/>
	<line fill="none" stroke="#000000" stroke-width="2" stroke-miterlimit="10" x1="-483.9" y1="313.4" x2="-475.9" y2="313.4"/>
	<line fill="none" stroke="#000000" stroke-width="2" stroke-miterlimit="10" x1="-463.9" y1="313.4" x2="-455.9" y2="313.4"/>
	<line fill="none" stroke="#000000" stroke-width="2" stroke-miterlimit="10" x1="-483.9" y1="317.4" x2="-475.9" y2="317.4"/>
	<line fill="none" stroke="#000000" stroke-width="2" stroke-miterlimit="10" x1="-463.9" y1="317.4" x2="-455.9" y2="317.4"/>
	<line fill="none" stroke="#000000" stroke-width="2" stroke-miterlimit="10" x1="-483.9" y1="321.4" x2="-475.9" y2="321.4"/>
	<g>
		<line fill="none" stroke="#000000" stroke-width="2" stroke-miterlimit="10" x1="-480.9" y1="305.4" x2="-472.9" y2="305.4"/>
		<line fill="none" stroke="#000000" stroke-width="2" stroke-miterlimit="10" x1="-480.9" y1="309.4" x2="-472.9" y2="309.4"/>
		<line fill="none" stroke="#000000" stroke-width="2" stroke-miterlimit="10" x1="-480.9" y1="313.4" x2="-472.9" y2="313.4"/>
		<line fill="none" stroke="#000000" stroke-width="2" stroke-miterlimit="10" x1="-480.9" y1="317.4" x2="-472.9" y2="317.4"/>
		<line fill="none" stroke="#000000" stroke-width="2" stroke-miterlimit="10" x1="-480.9" y1="321.4" x2="-472.9" y2="321.4"/>
	</g>
	<line fill="none" stroke="#000000" stroke-width="2" stroke-miterlimit="10" x1="-447.9" y1="305.4" x2="-439.9" y2="305.4"/>
	<line fill="none" stroke="#000000" stroke-width="2" stroke-miterlimit="10" x1="-447.9" y1="309.4" x2="-439.9" y2="309.4"/>
	<line fill="none" stroke="#000000" stroke-width="2" stroke-miterlimit="10" x1="-447.9" y1="313.4" x2="-439.9" y2="313.4"/>
	<line fill="none" stroke="#000000" stroke-width="2" stroke-miterlimit="10" x1="-447.9" y1="317.4" x2="-439.9" y2="317.4"/>
	<line fill="none" stroke="#000000" stroke-width="2" stroke-miterlimit="10" x1="-447.9" y1="321.4" x2="-439.9" y2="321.4"/>
	<line fill="none" stroke="#000000" stroke-width="2" stroke-miterlimit="10" x1="-447.9" y1="309.4" x2="-439.9" y2="309.4"/>
	<line fill="none" stroke="#000000" stroke-width="2" stroke-miterlimit="10" x1="-447.9" y1="313.4" x2="-439.9" y2="313.4"/>
	<line fill="none" stroke="#000000" stroke-width="2" stroke-miterlimit="10" x1="-447.9" y1="317.4" x2="-439.9" y2="317.4"/>
	<line fill="none" stroke="#000000" stroke-width="2" stroke-miterlimit="10" x1="-447.9" y1="321.4" x2="-439.9" y2="321.4"/>
	<g>
		<line fill="none" stroke="#000000" stroke-width="2" stroke-miterlimit="10" x1="-444.9" y1="305.4" x2="-436.9" y2="305.4"/>
		<line fill="none" stroke="#000000" stroke-width="2" stroke-miterlimit="10" x1="-444.9" y1="309.4" x2="-436.9" y2="309.4"/>
		<line fill="none" stroke="#000000" stroke-width="2" stroke-miterlimit="10" x1="-444.9" y1="313.4" x2="-436.9" y2="313.4"/>
		<line fill="none" stroke="#000000" stroke-width="2" stroke-miterlimit="10" x1="-444.9" y1="317.4" x2="-436.9" y2="317.4"/>
		<line fill="none" stroke="#000000" stroke-width="2" stroke-miterlimit="10" x1="-444.9" y1="321.4" x2="-436.9" y2="321.4"/>
	</g>
	<g>
		<line fill="none" stroke="#000000" stroke-width="2" stroke-miterlimit="10" x1="-466.9" y1="305.4" x2="-458.9" y2="305.4"/>
		<line fill="none" stroke="#000000" stroke-width="2" stroke-miterlimit="10" x1="-466.9" y1="309.4" x2="-458.9" y2="309.4"/>
		<line fill="none" stroke="#000000" stroke-width="2" stroke-miterlimit="10" x1="-466.9" y1="313.4" x2="-458.9" y2="313.4"/>
		<line fill="none" stroke="#000000" stroke-width="2" stroke-miterlimit="10" x1="-466.9" y1="317.4" x2="-458.9" y2="317.4"/>
		<line fill="none" stroke="#000000" stroke-width="2" stroke-miterlimit="10" x1="-466.9" y1="321.4" x2="-458.9" y2="321.4"/>
	</g>
	<g>
		<line fill="none" stroke="#000000" stroke-width="2" stroke-miterlimit="10" x1="-461.9" y1="305.4" x2="-453.9" y2="305.4"/>
		<line fill="none" stroke="#000000" stroke-width="2" stroke-miterlimit="10" x1="-461.9" y1="309.4" x2="-453.9" y2="309.4"/>
		<line fill="none" stroke="#000000" stroke-width="2" stroke-miterlimit="10" x1="-461.9" y1="313.4" x2="-453.9" y2="313.4"/>
		<line fill="none" stroke="#000000" stroke-width="2" stroke-miterlimit="10" x1="-461.9" y1="317.4" x2="-453.9" y2="317.4"/>
		<line fill="none" stroke="#000000" stroke-width="2" stroke-miterlimit="10" x1="-461.9" y1="321.4" x2="-453.9" y2="321.4"/>
	</g>
	<line fill="none" stroke="#000000" stroke-width="2" stroke-miterlimit="10" x1="-463.9" y1="321.4" x2="-455.9" y2="321.4"/>
	<line fill="none" stroke="#000000" stroke-width="2" stroke-miterlimit="10" x1="-472.9" y1="294.4" x2="-472.9" y2="300.4"/>
	<line fill="none" stroke="#000000" stroke-width="2" stroke-miterlimit="10" x1="-469.9" y1="294.4" x2="-469.9" y2="300.4"/>
	<line fill="none" stroke="#000000" stroke-width="2" stroke-miterlimit="10" x1="-466.9" y1="294.4" x2="-466.9" y2="300.4"/>
	<line fill="none" stroke="#000000" stroke-width="2" stroke-miterlimit="10" x1="-453.9" y1="294.4" x2="-453.9" y2="300.4"/>
	<line fill="none" stroke="#000000" stroke-width="2" stroke-miterlimit="10" x1="-450.9" y1="294.4" x2="-450.9" y2="300.4"/>
	<line fill="none" stroke="#000000" stroke-width="2" stroke-miterlimit="10" x1="-447.9" y1="294.4" x2="-447.9" y2="300.4"/>
	<rect x="-462.9" y="327.4" fill="none" stroke="#000000" stroke-width="2" stroke-miterlimit="10" width="6" height="2"/>
	
		<line fill="none" stroke="#000000" stroke-width="1.972" stroke-miterlimit="10" stroke-dasharray="2.7334,2.7334" x1="-469.9" y1="302.4" x2="-469.9" y2="337.4"/>
	
		<line fill="none" stroke="#000000" stroke-width="1.972" stroke-miterlimit="10" stroke-dasharray="2.7334,2.7334" x1="-450.9" y1="302.4" x2="-450.9" y2="337.4"/>
</g>
</svg>
