<?xml version="1.0" encoding="utf-8"?>
<!-- Generator: Adobe Illustrator 22.0.1, SVG Export Plug-In . SVG Version: 6.00 Build 0)  -->
<svg version="1.2" baseProfile="tiny" id="레이어_1"
	 xmlns="http://www.w3.org/2000/svg" xmlns:xlink="http://www.w3.org/1999/xlink" x="0px" y="0px" viewBox="0 0 64 64"
	 xml:space="preserve">
<rect x="-301.6" y="-104.6" fill="none" stroke="#000000" stroke-miterlimit="10" width="64" height="64"/>
<rect x="-301.6" y="-104.6" fill="none" stroke="#000000" stroke-miterlimit="10" width="64" height="64"/>
<rect x="-301.6" y="-104.6" fill="none" stroke="#000000" stroke-miterlimit="10" width="64" height="64"/>
<rect x="-301.6" y="-104.6" fill="none" stroke="#000000" stroke-miterlimit="10" width="64" height="64"/>
<rect x="-301.6" y="-104.6" fill="none" stroke="#000000" stroke-miterlimit="10" width="64" height="64"/>
<rect x="-301.6" y="-104.6" fill="none" stroke="#000000" stroke-miterlimit="10" width="64" height="64"/>
<rect x="-301.6" y="-104.6" fill="none" stroke="#000000" stroke-miterlimit="10" width="64" height="64"/>
<rect x="-301.6" y="-104.6" fill="none" stroke="#000000" stroke-miterlimit="10" width="64" height="64"/>
<rect x="-301.6" y="-104.6" fill="none" stroke="#000000" stroke-miterlimit="10" width="64" height="64"/>
<rect x="-301.6" y="-104.6" fill="none" stroke="#000000" stroke-miterlimit="10" width="64" height="64"/>
<rect x="-301.6" y="-104.6" fill="none" stroke="#000000" stroke-miterlimit="10" width="64" height="64"/>
<rect x="-301.6" y="-104.6" fill="none" stroke="#000000" stroke-miterlimit="10" width="64" height="64"/>
<rect x="-301.6" y="-104.6" fill="none" stroke="#000000" stroke-miterlimit="10" width="64" height="64"/>
<rect x="-301.6" y="-104.6" fill="none" stroke="#000000" stroke-miterlimit="10" width="64" height="64"/>
<rect x="-301.6" y="-104.6" fill="none" stroke="#000000" stroke-miterlimit="10" width="64" height="64"/>
<rect x="-301.6" y="-104.6" fill="none" stroke="#000000" stroke-miterlimit="10" width="64" height="64"/>
<rect x="-301.6" y="-104.6" fill="none" stroke="#000000" stroke-miterlimit="10" width="64" height="64"/>
<rect x="-301.6" y="-104.6" fill="none" stroke="#000000" stroke-miterlimit="10" width="64" height="64"/>
<rect x="-301.6" y="-104.6" fill="none" stroke="#000000" stroke-miterlimit="10" width="64" height="64"/>
<rect x="-301.6" y="-104.6" fill="none" stroke="#000000" stroke-miterlimit="10" width="64" height="64"/>
<rect x="-301.6" y="-104.6" fill="none" stroke="#000000" stroke-miterlimit="10" width="64" height="64"/>
<rect x="-301.6" y="-104.6" fill="none" stroke="#000000" stroke-miterlimit="10" width="64" height="64"/>
<rect x="-301.6" y="-104.6" fill="none" stroke="#000000" stroke-miterlimit="10" width="64" height="64"/>
<rect x="-301.6" y="-104.6" fill="none" stroke="#000000" stroke-miterlimit="10" width="64" height="64"/>
<rect x="-301.6" y="-104.6" fill="none" stroke="#000000" stroke-miterlimit="10" width="64" height="64"/>
<rect x="-301.6" y="-104.6" fill="none" stroke="#000000" stroke-miterlimit="10" width="64" height="64"/>
<rect x="-301.6" y="-104.6" fill="none" stroke="#000000" stroke-miterlimit="10" width="64" height="64"/>
<rect x="-301.6" y="-104.6" fill="none" stroke="#000000" stroke-miterlimit="10" width="64" height="64"/>
<rect x="-301.6" y="-104.6" fill="none" stroke="#000000" stroke-miterlimit="10" width="64" height="64"/>
<rect x="-301.6" y="-104.6" fill="none" stroke="#000000" stroke-miterlimit="10" width="64" height="64"/>
<rect x="-301.6" y="-104.6" fill="none" stroke="#000000" stroke-miterlimit="10" width="64" height="64"/>
<rect x="-301.6" y="-104.6" fill="none" stroke="#000000" stroke-miterlimit="10" width="64" height="64"/>
<rect x="-301.6" y="-104.6" fill="none" stroke="#000000" stroke-miterlimit="10" width="64" height="64"/>
<rect x="-301.6" y="-104.6" fill="none" stroke="#000000" stroke-miterlimit="10" width="64" height="64"/>
<rect x="-301.6" y="-104.6" fill="none" stroke="#000000" stroke-miterlimit="10" width="64" height="64"/>
<rect x="-301.6" y="-104.6" fill="none" stroke="#000000" stroke-miterlimit="10" width="64" height="64"/>
<rect x="-301.6" y="-104.6" fill="none" stroke="#000000" stroke-miterlimit="10" width="64" height="64"/>
<rect x="-301.6" y="-104.6" fill="none" stroke="#000000" stroke-miterlimit="10" width="64" height="64"/>
<rect x="-301.6" y="-104.6" fill="none" stroke="#000000" stroke-miterlimit="10" width="64" height="64"/>
<rect x="-301.6" y="-104.6" fill="none" stroke="#000000" stroke-miterlimit="10" width="64" height="64"/>
<rect x="-301.6" y="-104.6" fill="none" stroke="#000000" stroke-miterlimit="10" width="64" height="64"/>
<rect x="-301.6" y="-104.6" fill="none" stroke="#000000" stroke-miterlimit="10" width="64" height="64"/>
<rect x="-301.6" y="-104.6" fill="none" stroke="#000000" stroke-miterlimit="10" width="64" height="64"/>
<rect x="-301.6" y="-104.6" fill="none" stroke="#000000" stroke-miterlimit="10" width="64" height="64"/>
<rect x="-301.6" y="-104.6" fill="none" stroke="#000000" stroke-miterlimit="10" width="64" height="64"/>
<rect x="-301.6" y="-104.6" fill="none" stroke="#000000" stroke-miterlimit="10" width="64" height="64"/>
<rect x="-301.6" y="-104.6" fill="none" stroke="#000000" stroke-miterlimit="10" width="64" height="64"/>
<rect x="-301.6" y="-104.6" fill="none" stroke="#000000" stroke-miterlimit="10" width="64" height="64"/>
<rect x="-301.6" y="-104.6" fill="none" stroke="#000000" stroke-miterlimit="10" width="64" height="64"/>
<rect x="-301.6" y="-104.6" fill="none" stroke="#000000" stroke-miterlimit="10" width="64" height="64"/>
<rect x="-301.6" y="-104.6" fill="none" stroke="#000000" stroke-miterlimit="10" width="64" height="64"/>
<rect x="-301.6" y="-104.6" fill="none" stroke="#000000" stroke-miterlimit="10" width="64" height="64"/>
<rect x="-301.6" y="-104.6" fill="none" stroke="#000000" stroke-miterlimit="10" width="64" height="64"/>
<rect x="-301.6" y="-104.6" fill="none" stroke="#000000" stroke-miterlimit="10" width="64" height="64"/>
<rect x="-301.6" y="-104.6" fill="none" stroke="#000000" stroke-miterlimit="10" width="64" height="64"/>
<rect x="-301.6" y="-104.6" fill="none" stroke="#000000" stroke-miterlimit="10" width="64" height="64"/>
<rect x="-301.6" y="-104.6" fill="none" stroke="#000000" stroke-miterlimit="10" width="64" height="64"/>
<rect x="-301.6" y="-104.6" fill="none" stroke="#000000" stroke-miterlimit="10" width="64" height="64"/>
<rect x="-301.6" y="-104.6" fill="none" stroke="#000000" stroke-miterlimit="10" width="64" height="64"/>
<rect x="-301.6" y="-104.6" fill="none" stroke="#000000" stroke-miterlimit="10" width="64" height="64"/>
<rect x="-301.6" y="-104.6" fill="none" stroke="#000000" stroke-miterlimit="10" width="64" height="64"/>
<rect x="-301.6" y="-104.6" fill="none" stroke="#000000" stroke-miterlimit="10" width="64" height="64"/>
<rect x="-301.6" y="-104.6" fill="none" stroke="#000000" stroke-miterlimit="10" width="64" height="64"/>
<rect x="-301.6" y="-104.6" fill="none" stroke="#000000" stroke-miterlimit="10" width="64" height="64"/>
<rect x="-301.6" y="-104.6" fill="none" stroke="#000000" stroke-miterlimit="10" width="64" height="64"/>
<rect x="-301.6" y="-104.6" fill="none" stroke="#000000" stroke-miterlimit="10" width="64" height="64"/>
<rect x="-301.6" y="-104.6" fill="none" stroke="#000000" stroke-miterlimit="10" width="64" height="64"/>
<rect x="-301.6" y="-104.6" fill="none" stroke="#000000" stroke-miterlimit="10" width="64" height="64"/>
<rect x="-301.6" y="-104.6" fill="none" stroke="#000000" stroke-miterlimit="10" width="64" height="64"/>
<rect x="-301.6" y="-104.6" fill="none" stroke="#000000" stroke-miterlimit="10" width="64" height="64"/>
<rect x="-301.6" y="-104.6" fill="none" stroke="#000000" stroke-miterlimit="10" width="64" height="64"/>
<rect x="-301.6" y="-104.6" fill="none" stroke="#000000" stroke-miterlimit="10" width="64" height="64"/>
<rect x="-301.6" y="-104.6" fill="none" stroke="#000000" stroke-miterlimit="10" width="64" height="64"/>
<rect x="-301.6" y="-104.6" fill="none" stroke="#000000" stroke-miterlimit="10" width="64" height="64"/>
<rect x="-301.6" y="-104.6" fill="none" stroke="#000000" stroke-miterlimit="10" width="64" height="64"/>
<rect x="-301.6" y="-104.6" fill="none" stroke="#000000" stroke-miterlimit="10" width="64" height="64"/>
<rect x="-301.6" y="-104.6" fill="none" stroke="#000000" stroke-miterlimit="10" width="64" height="64"/>
<rect x="-301.6" y="-104.6" fill="none" stroke="#000000" stroke-miterlimit="10" width="64" height="64"/>
<rect x="-301.6" y="-104.6" fill="none" stroke="#000000" stroke-miterlimit="10" width="64" height="64"/>
<rect x="-301.6" y="-104.6" fill="none" stroke="#000000" stroke-miterlimit="10" width="64" height="64"/>
<rect x="-301.6" y="-104.6" fill="none" stroke="#000000" stroke-miterlimit="10" width="64" height="64"/>
<rect x="-301.6" y="-104.6" fill="none" stroke="#000000" stroke-miterlimit="10" width="64" height="64"/>
<rect x="-301.6" y="-104.6" fill="none" stroke="#000000" stroke-miterlimit="10" width="64" height="64"/>
<rect x="-301.6" y="-104.6" fill="none" stroke="#000000" stroke-miterlimit="10" width="64" height="64"/>
<rect x="-301.6" y="-104.6" fill="none" stroke="#000000" stroke-miterlimit="10" width="64" height="64"/>
<rect x="-301.6" y="-104.6" fill="none" stroke="#000000" stroke-miterlimit="10" width="64" height="64"/>
<rect x="-301.6" y="-104.6" fill="none" stroke="#000000" stroke-miterlimit="10" width="64" height="64"/>
<rect x="-301.6" y="-104.6" fill="none" stroke="#000000" stroke-miterlimit="10" width="64" height="64"/>
<rect x="-301.6" y="-104.6" fill="none" stroke="#000000" stroke-miterlimit="10" width="64" height="64"/>
<rect x="-301.6" y="-104.6" fill="none" stroke="#000000" stroke-miterlimit="10" width="64" height="64"/>
<rect x="-301.6" y="-104.6" fill="none" stroke="#000000" stroke-miterlimit="10" width="64" height="64"/>
<rect x="-301.6" y="-104.6" fill="none" stroke="#000000" stroke-miterlimit="10" width="64" height="64"/>
<rect x="-301.6" y="-104.6" fill="none" stroke="#000000" stroke-miterlimit="10" width="64" height="64"/>
<rect x="-301.6" y="-104.6" fill="none" stroke="#000000" stroke-miterlimit="10" width="64" height="64"/>
<rect x="-301.6" y="-104.6" fill="none" stroke="#000000" stroke-miterlimit="10" width="64" height="64"/>
<rect x="-301.6" y="-104.6" fill="none" stroke="#000000" stroke-miterlimit="10" width="64" height="64"/>
<rect x="-301.6" y="-104.6" fill="none" stroke="#000000" stroke-miterlimit="10" width="64" height="64"/>
<rect x="-301.6" y="-104.6" fill="none" stroke="#000000" stroke-miterlimit="10" width="64" height="64"/>
<rect x="-301.6" y="-104.6" fill="none" stroke="#000000" stroke-miterlimit="10" width="64" height="64"/>
<rect x="-301.6" y="-104.6" fill="none" stroke="#000000" stroke-miterlimit="10" width="64" height="64"/>
<rect x="-301.6" y="-104.6" fill="none" stroke="#000000" stroke-miterlimit="10" width="64" height="64"/>
<rect x="-301.6" y="-104.6" fill="none" stroke="#000000" stroke-miterlimit="10" width="64" height="64"/>
<rect x="-301.6" y="-104.6" fill="none" stroke="#000000" stroke-miterlimit="10" width="64" height="64"/>
<rect x="-301.6" y="-104.6" fill="none" stroke="#000000" stroke-miterlimit="10" width="64" height="64"/>
<rect x="-301.6" y="-104.6" fill="none" stroke="#000000" stroke-miterlimit="10" width="64" height="64"/>
<rect x="-301.6" y="-104.6" fill="none" stroke="#000000" stroke-miterlimit="10" width="64" height="64"/>
<rect x="-301.6" y="-104.6" fill="none" stroke="#000000" stroke-miterlimit="10" width="64" height="64"/>
<rect x="-301.6" y="-104.6" fill="none" stroke="#000000" stroke-miterlimit="10" width="64" height="64"/>
<rect x="-301.6" y="-104.6" fill="none" stroke="#000000" stroke-miterlimit="10" width="64" height="64"/>
<g>
	<polyline fill="#040000" points="-469.5,220 -473.2,218.8 -483.3,221.9 -479.3,229.9 -480.9,230.7 -485.9,220.8 -473.2,217 
		-469.6,218.1 	"/>
	<polygon fill="#040000" points="-480.2,217.9 -482,217.9 -482,211.7 -463.2,211.7 -463.2,217.5 -465,217.5 -465,213.5 
		-480.2,213.5 	"/>
	<path fill="#040000" d="M-468.3,213.5h-9.1v-7.4h9.1V213.5z M-475.6,211.7h5.5v-3.8h-5.5V211.7z"/>
	<rect x="-473.2" y="218.5" fill="#040000" width="1.8" height="11.1"/>
	<path fill="#040000" d="M-481.3,236.6c-2.3,0-4-1.2-4-2.8c0-0.5,0.4-0.9,0.9-0.9s0.9,0.4,0.9,0.9c0,0.4,0.9,1,2.2,1
		c1.3,0,2.2-0.6,2.2-1c0-0.5,0.4-0.9,0.9-0.9s0.9,0.4,0.9,0.9C-477.3,235.3-479,236.6-481.3,236.6z"/>
	<path fill="#040000" d="M-474.9,236.6c-2.3,0-4-1.2-4-2.8c0-0.5,0.4-0.9,0.9-0.9c0.5,0,0.9,0.4,0.9,0.9c0,0.4,0.9,1,2.2,1
		c1.3,0,2.2-0.6,2.2-1c0-0.5,0.4-0.9,0.9-0.9c0.5,0,0.9,0.4,0.9,0.9C-470.9,235.3-472.7,236.6-474.9,236.6z"/>
	<path fill="none" d="M-451.8,241.7l-2.8-2.7l2.2-2.2l-0.6-0.6l4.1-4.2v-12.5h-18.9v25.4h18.9v-4.7l-0.7-0.7L-451.8,241.7z
		 M-454.4,242.8l-1.1-1l1.8-1.8l1.1,1L-454.4,242.8z"/>
	<polygon fill="none" points="-448.9,237.6 -448.9,234.6 -450.4,236.1 	"/>
	<polygon fill="none" points="-437.6,226.1 -439.1,224.6 -447,232.6 -447,235.7 	"/>
	
		<rect x="-452.4" y="238.2" transform="matrix(0.6992 -0.7149 0.7149 0.6992 -306.4998 -251.0307)" fill="none" width="1.6" height="0.9"/>
	<polygon fill="#040000" points="-452.4,236.8 -451.2,235.6 -448.9,237.8 -448.9,237.6 -450.4,236.1 -448.9,234.6 -448.9,231.9 
		-453.1,236.1 	"/>
	<polygon fill="#040000" points="-449.6,239.5 -448.9,240.2 -448.9,238.8 	"/>
	
		<rect x="-451" y="237.6" transform="matrix(0.6992 -0.7149 0.7149 0.6992 -305.8546 -250.7765)" fill="#040000" width="0.2" height="0.9"/>
	<polygon fill="#040000" points="-439.1,224.6 -437.6,226.1 -447,235.7 -447,238.4 -434.9,226.1 -439.2,222 -447,230 -447,232.6 	
		"/>
	<polygon fill="#040000" points="-451.8,239.6 -452.5,239 -451.3,237.8 -452.4,236.8 -454.6,239 -451.8,241.7 -449.6,239.5 
		-450.7,238.5 	"/>
	<polygon fill="#040000" points="-452.4,236.8 -451.3,237.8 -451.2,237.7 -450.5,238.3 -450.7,238.5 -449.6,239.5 -448.9,238.8 
		-448.9,237.8 -451.2,235.6 	"/>
	
		<rect x="-455.3" y="240.6" transform="matrix(0.6992 -0.715 0.715 0.6992 -309.1349 -251.9892)" fill="#040000" width="2.6" height="1.5"/>
	<polygon fill="#050000" points="-448.8,240.3 -448.9,240.2 -448.9,244.8 -467.8,244.8 -467.8,219.4 -448.9,219.4 -448.9,231.9 
		-447,230 -447,217.5 -469.8,217.5 -469.8,246.8 -447,246.8 -447,238.4 	"/>
	<polygon fill="#050000" points="-448.9,234.6 -447,232.6 -447,230 -448.9,231.9 	"/>
	<polygon fill="#050000" points="-448.9,237.6 -448.9,237.6 -448.9,237.8 -448.4,238.3 -448.9,238.8 -448.9,240.2 -448.8,240.3 
		-447,238.4 -447,235.7 	"/>
	<polygon fill="#050000" points="-448.4,238.3 -448.9,237.8 -448.9,238.8 	"/>
	<rect x="-465.5" y="222" fill="#050000" width="5.9" height="1.9"/>
	<rect x="-465.5" y="226.6" fill="#050000" width="5.9" height="1.9"/>
	<rect x="-465.5" y="231.2" fill="#050000" width="5.9" height="1.9"/>
	<rect x="-465.5" y="235.7" fill="#050000" width="5.9" height="1.9"/>
	<rect x="-465.5" y="240.3" fill="#050000" width="5.9" height="1.9"/>
	<polygon fill="#050000" points="-454.8,225.9 -456.4,224.3 -457.8,225.6 -454.8,228.6 -449.9,223.7 -451.3,222.3 	"/>
	<polygon fill="#050000" points="-454.8,231.1 -456.4,229.5 -457.8,230.9 -454.8,233.8 -449.9,228.9 -451.3,227.5 	"/>
</g>
<g>
	<rect x="-204.8" y="200.2" width="4" height="4"/>
	<rect x="-198.8" y="200.2" width="4" height="4"/>
	<rect x="-192.8" y="200.2" width="4" height="4"/>
	<rect x="-186.8" y="200.2" width="4" height="4"/>
	<rect x="-180.8" y="200.2" width="4" height="4"/>
	<rect x="-174.8" y="200.2" width="4" height="4"/>
	<rect x="-168.8" y="200.2" width="4" height="4"/>
	<rect x="-162.8" y="200.2" width="4" height="4"/>
	<rect x="-156.8" y="200.2" width="4" height="4"/>
	<rect x="-204.8" y="206.2" width="4" height="4"/>
	<rect x="-198.8" y="206.2" width="4" height="4"/>
	<rect x="-192.8" y="206.2" width="4" height="4"/>
	<rect x="-186.8" y="206.2" width="4" height="4"/>
	<rect x="-180.8" y="206.2" width="4" height="4"/>
	<rect x="-174.8" y="206.2" width="4" height="4"/>
	<rect x="-168.8" y="206.2" width="4" height="4"/>
	<rect x="-162.8" y="206.2" width="4" height="4"/>
	<rect x="-156.8" y="206.2" width="4" height="4"/>
	<rect x="-204.8" y="218.2" width="4" height="4"/>
	<rect x="-198.8" y="218.2" width="4" height="4"/>
	<rect x="-192.8" y="218.2" width="4" height="4"/>
	<rect x="-186.8" y="218.2" width="4" height="4"/>
	<rect x="-180.8" y="218.2" width="4" height="4"/>
	<rect x="-174.8" y="218.2" width="4" height="4"/>
	<rect x="-204.8" y="224.2" width="4" height="4"/>
	<rect x="-198.8" y="224.2" width="4" height="4"/>
	<rect x="-192.8" y="224.2" width="4" height="4"/>
	<rect x="-186.8" y="224.2" width="4" height="4"/>
	<rect x="-180.8" y="224.2" width="4" height="4"/>
	<rect x="-174.8" y="224.2" width="4" height="4"/>
	<rect x="-198.8" y="230.2" width="4" height="4"/>
	<rect x="-192.8" y="230.2" width="4" height="4"/>
	<rect x="-186.8" y="230.2" width="4" height="4"/>
	<rect x="-180.8" y="230.2" width="4" height="4"/>
	<rect x="-174.8" y="230.2" width="4" height="4"/>
	<rect x="-192.8" y="236.2" width="4" height="4"/>
	<rect x="-186.8" y="236.2" width="4" height="4"/>
	<rect x="-180.8" y="236.2" width="4" height="4"/>
	<rect x="-174.8" y="236.2" width="4" height="4"/>
	<rect x="-186.8" y="242.2" width="4" height="4"/>
	<rect x="-180.8" y="242.2" width="4" height="4"/>
	<rect x="-174.8" y="242.2" width="4" height="4"/>
	<line fill="none" stroke="#000000" stroke-width="3" stroke-miterlimit="10" x1="-204.8" y1="214.2" x2="-152.8" y2="214.2"/>
	<path fill="none" d="M-150.6,242.7l-2.8-2.7l2.2-2.2l-0.6-0.6l4.1-4.2v-12.5h-18.9v25.4h18.9v-4.7l-0.7-0.7L-150.6,242.7z
		 M-153.3,243.8l-1.1-1l1.8-1.8l1.1,1L-153.3,243.8z"/>
	<polygon fill="none" points="-147.8,238.6 -147.8,235.6 -149.3,237.1 	"/>
	<polygon fill="none" points="-136.5,227.1 -138,225.6 -145.9,233.6 -145.9,236.7 	"/>
	
		<rect x="-151.2" y="239.2" transform="matrix(0.6992 -0.7149 0.7149 0.6992 -216.6375 -35.4552)" fill="none" width="1.6" height="0.9"/>
	<polygon fill="#040000" points="-151.3,237.8 -150.1,236.6 -147.8,238.8 -147.8,238.6 -149.3,237.1 -147.8,235.6 -147.8,232.9 
		-151.9,237.1 	"/>
	<polygon fill="#040000" points="-148.5,240.5 -147.8,241.2 -147.8,239.8 	"/>
	
		<rect x="-149.9" y="238.6" transform="matrix(0.6992 -0.7149 0.7149 0.6992 -215.9946 -35.2032)" fill="#040000" width="0.2" height="0.9"/>
	<polygon fill="#040000" points="-138,225.6 -136.5,227.1 -145.9,236.7 -145.9,239.4 -133.8,227.1 -138.1,223 -145.9,231 
		-145.9,233.6 	"/>
	<polygon fill="#040000" points="-150.7,240.6 -151.3,240 -150.2,238.8 -151.3,237.8 -153.5,240 -150.6,242.7 -148.5,240.5 
		-149.6,239.5 	"/>
	<polygon fill="#040000" points="-151.3,237.8 -150.2,238.8 -150.1,238.7 -149.4,239.3 -149.6,239.5 -148.5,240.5 -147.8,239.8 
		-147.8,238.8 -150.1,236.6 	"/>
	
		<rect x="-154.2" y="241.6" transform="matrix(0.6992 -0.715 0.715 0.6992 -219.267 -36.4081)" fill="#040000" width="2.6" height="1.5"/>
	<polygon fill="#050000" points="-147.7,241.3 -147.8,241.2 -147.8,245.8 -166.7,245.8 -166.7,220.4 -147.8,220.4 -147.8,232.9 
		-145.9,231 -145.9,218.5 -168.7,218.5 -168.7,247.8 -145.9,247.8 -145.9,239.4 	"/>
	<polygon fill="#050000" points="-147.8,235.6 -145.9,233.6 -145.9,231 -147.8,232.9 	"/>
	<polygon fill="#050000" points="-147.7,238.6 -147.8,238.6 -147.8,238.8 -147.3,239.3 -147.8,239.8 -147.8,241.2 -147.7,241.3 
		-145.9,239.4 -145.9,236.7 	"/>
	<polygon fill="#050000" points="-147.3,239.3 -147.8,238.8 -147.8,239.8 	"/>
	<rect x="-164.4" y="223" fill="#050000" width="5.9" height="1.9"/>
	<rect x="-164.4" y="227.6" fill="#050000" width="5.9" height="1.9"/>
	<rect x="-164.4" y="232.2" fill="#050000" width="5.9" height="1.9"/>
	<rect x="-164.4" y="236.7" fill="#050000" width="5.9" height="1.9"/>
	<rect x="-164.4" y="241.3" fill="#050000" width="5.9" height="1.9"/>
	<polygon fill="#050000" points="-153.7,226.9 -155.3,225.3 -156.7,226.6 -153.7,229.6 -148.8,224.7 -150.1,223.3 	"/>
	<polygon fill="#050000" points="-153.7,232.1 -155.3,230.5 -156.7,231.9 -153.7,234.8 -148.8,229.9 -150.1,228.5 	"/>
</g>
<g>
	<rect x="-282.6" y="123.4" fill="none" stroke="#040000" stroke-width="3" stroke-miterlimit="10" width="25.7" height="7.8"/>
	<rect x="-282.6" y="137.8" fill="none" stroke="#040000" stroke-width="3" stroke-miterlimit="10" width="25.7" height="7.8"/>
	<rect x="-282.6" y="151.5" fill="none" stroke="#040000" stroke-width="3" stroke-miterlimit="10" width="25.7" height="7.8"/>
	<polyline fill="none" stroke="#040000" stroke-width="3" stroke-miterlimit="10" points="-230.6,131.2 -239.7,131.2 -239.7,123.4 
		-230.6,123.4 	"/>
	<polyline fill="none" stroke="#040000" stroke-width="3" stroke-miterlimit="10" points="-230.6,145.6 -239.7,145.6 -239.7,137.8 
		-230.6,137.8 	"/>
	<polyline fill="none" stroke="#040000" stroke-width="3" stroke-miterlimit="10" points="-230.6,159.3 -239.7,159.3 -239.7,151.5 
		-230.6,151.5 	"/>
	<text transform="matrix(1 0 0 1 -251.2637 131.4674)" font-family="'YDIYGO330'" font-size="12px">2</text>
	<text transform="matrix(1 0 0 1 -251.2637 145.4674)" font-family="'YDIYGO330'" font-size="12px">1</text>
	<text transform="matrix(1 0 0 1 -251.2637 159.4674)" font-family="'YDIYGO330'" font-size="12px">3</text>
	<text transform="matrix(1 0 0 1 -251.2637 172.4674)" font-family="'YDIYGO330'" font-size="12px">4</text>
	<rect x="-282.6" y="164.2" fill="none" stroke="#040000" stroke-width="3" stroke-miterlimit="10" width="25.7" height="7.8"/>
	<polyline fill="none" stroke="#040000" stroke-width="3" stroke-miterlimit="10" points="-230.6,172 -239.7,172 -239.7,164.2 
		-230.6,164.2 	"/>
</g>
<g>
	<polygon points="-193.9,149.7 -190.5,146.3 -192.4,146.3 -192.4,135.8 -195.4,135.8 -195.4,146.3 -197.3,146.3 	"/>
	<rect x="-201.1" y="155.2" fill="none" stroke="#000000" stroke-width="3" stroke-miterlimit="10" width="14" height="14"/>
	<rect x="-162.5" y="155.2" fill="none" stroke="#000000" stroke-width="3" stroke-miterlimit="10" width="14" height="14"/>
	<rect x="-181.6" y="155.2" stroke="#000000" stroke-width="3" stroke-miterlimit="10" width="14" height="14"/>
	<rect x="-162.5" y="135.7" fill="none" stroke="#000000" stroke-width="3" stroke-miterlimit="10" width="14" height="14"/>
	<rect x="-162.5" y="116.7" fill="none" stroke="#000000" stroke-width="3" stroke-miterlimit="10" width="14" height="14"/>
	<rect x="-201.1" y="116.7" fill="none" stroke="#000000" stroke-width="3" stroke-miterlimit="10" width="14" height="14"/>
	<rect x="-181.6" y="135.7" fill="none" stroke="#000000" stroke-width="3" stroke-miterlimit="10" width="14" height="14"/>
</g>
<g>
	<polyline fill="none" stroke="#040000" stroke-width="3" stroke-miterlimit="10" points="52,45.3 52,55.3 12,55.3 12,45.3 	"/>
	<rect x="19.2" y="45.8" width="26" height="6"/>
	<rect x="19.2" y="36.8" fill="none" stroke="#000000" stroke-width="2" stroke-miterlimit="10" width="26" height="6"/>
	<rect x="19.2" y="27.8" stroke="#000000" stroke-width="2" stroke-miterlimit="10" width="26" height="6"/>
	<rect x="19.2" y="18.8" fill="none" stroke="#000000" stroke-width="2" stroke-miterlimit="10" width="26" height="6"/>
	<rect x="19.2" y="8.8" fill="none" stroke="#000000" stroke-width="2" stroke-miterlimit="10" width="26" height="6"/>
	<line fill="none" stroke="#000000" stroke-width="2" stroke-miterlimit="10" x1="27.5" y1="9.3" x2="27.5" y2="14.8"/>
	<line fill="none" stroke="#000000" stroke-width="2" stroke-miterlimit="10" x1="32.2" y1="9.3" x2="32.2" y2="15.3"/>
	<line fill="none" stroke="#000000" stroke-width="2" stroke-miterlimit="10" x1="37" y1="9.3" x2="37" y2="14.3"/>
	<line fill="none" stroke="#000000" stroke-width="2" stroke-miterlimit="10" x1="41.7" y1="9.3" x2="41.7" y2="14.3"/>
	<line fill="none" stroke="#000000" stroke-width="2" stroke-miterlimit="10" x1="22.7" y1="9.3" x2="22.7" y2="14.3"/>
	<line fill="none" stroke="#000000" stroke-width="2" stroke-miterlimit="10" x1="19.7" y1="19.3" x2="24.7" y2="24.3"/>
	<line fill="none" stroke="#000000" stroke-width="2" stroke-miterlimit="10" x1="25.7" y1="19.3" x2="30.7" y2="24.3"/>
	<line fill="none" stroke="#000000" stroke-width="2" stroke-miterlimit="10" x1="31.7" y1="19.3" x2="36.7" y2="24.3"/>
	<line fill="none" stroke="#000000" stroke-width="2" stroke-miterlimit="10" x1="37.7" y1="19.3" x2="42.7" y2="24.3"/>
	<line fill="none" stroke="#000000" stroke-width="2" stroke-miterlimit="10" x1="23.2" y1="39.8" x2="27.2" y2="39.8"/>
	<line fill="none" stroke="#000000" stroke-width="2" stroke-miterlimit="10" x1="30.2" y1="39.8" x2="34.2" y2="39.8"/>
	<line fill="none" stroke="#000000" stroke-width="2" stroke-miterlimit="10" x1="37.2" y1="39.8" x2="41.2" y2="39.8"/>
</g>
<g>
	<g>
		<polyline fill="none" stroke="#040000" stroke-width="3" stroke-miterlimit="10" points="-154.1,66 -154.1,76 -194.1,76 
			-194.1,66 		"/>
		<rect x="-186.9" y="65.5" width="26" height="6"/>
		<rect x="-186.9" y="57.5" width="26" height="6"/>
		<rect x="-186.9" y="49.5" width="26" height="6"/>
		<rect x="-186.9" y="41.5" width="26" height="6"/>
		<rect x="-186.9" y="33.5" width="26" height="6"/>
	</g>
	<text transform="matrix(1 0 0 1 -155.5416 37.7763)" font-family="'YDIYGO330'" font-size="6.5545px">2</text>
	<text transform="matrix(1 0 0 1 -155.5416 45.9076)" font-family="'YDIYGO330'" font-size="6.5545px">1</text>
	<text transform="matrix(1 0 0 1 -155.5416 54.0392)" font-family="'YDIYGO330'" font-size="6.5545px">3</text>
	<text transform="matrix(1 0 0 1 -155.5416 62.1708)" font-family="'YDIYGO330'" font-size="6.5545px">4</text>
</g>
<g>
	<polygon fill="none" stroke="#000000" stroke-width="2" stroke-miterlimit="10" points="-365.6,133.8 -376.6,133.8 -376.6,129.8 
		-365.6,129.8 -363.6,131.8 	"/>
	<polygon fill="none" stroke="#000000" stroke-width="2" stroke-miterlimit="10" points="-345.6,133.8 -356.6,133.8 -356.6,129.8 
		-345.6,129.8 -343.6,131.8 	"/>
	<rect x="-389.6" y="141.8" fill="none" stroke="#000000" stroke-width="2" stroke-miterlimit="10" width="56" height="32"/>
	<line fill="none" stroke="#000000" stroke-width="2" stroke-miterlimit="10" x1="-374.6" y1="137.8" x2="-374.6" y2="143.8"/>
	<line fill="none" stroke="#000000" stroke-width="2" stroke-miterlimit="10" x1="-371.6" y1="137.8" x2="-371.6" y2="143.8"/>
	<line fill="none" stroke="#000000" stroke-width="2" stroke-miterlimit="10" x1="-368.6" y1="137.8" x2="-368.6" y2="143.8"/>
	<line fill="none" stroke="#000000" stroke-width="2" stroke-miterlimit="10" x1="-355.6" y1="137.8" x2="-355.6" y2="143.8"/>
	<line fill="none" stroke="#000000" stroke-width="2" stroke-miterlimit="10" x1="-352.6" y1="137.8" x2="-352.6" y2="143.8"/>
	<line fill="none" stroke="#000000" stroke-width="2" stroke-miterlimit="10" x1="-349.6" y1="137.8" x2="-349.6" y2="143.8"/>
	<rect x="-364.6" y="170.8" fill="none" stroke="#000000" stroke-width="2" stroke-miterlimit="10" width="6" height="2"/>
	
		<rect x="-386.6" y="145.8" fill="none" stroke="#000000" stroke-width="1.3874" stroke-miterlimit="10" width="26.3" height="6.6"/>
	<rect x="-369.1" y="154" fill="none" stroke="#000000" stroke-width="1.3874" stroke-miterlimit="10" width="21.9" height="7.7"/>
	<rect x="-386.6" y="154" fill="none" stroke="#000000" stroke-width="1.3874" stroke-miterlimit="10" width="14.9" height="13.8"/>
	
		<rect x="-369.1" y="163.4" fill="none" stroke="#000000" stroke-width="1.3874" stroke-miterlimit="10" width="14.9" height="4.4"/>
	<polygon fill="none" stroke="#000000" stroke-width="1.3874" stroke-miterlimit="10" points="-344.6,154 -344.6,163.4 
		-350.7,163.4 -350.7,167.8 -337.6,167.8 -337.6,165 -337.6,163.4 -337.6,154 	"/>
	
		<rect x="-357.7" y="145.8" fill="none" stroke="#000000" stroke-width="1.3874" stroke-miterlimit="10" width="20.1" height="6.6"/>
</g>
<g>
	<rect x="-387.5" y="205.2" width="3.2" height="3.2"/>
	<rect x="-382.7" y="205.2" width="3.2" height="3.2"/>
	<rect x="-377.8" y="205.2" width="3.2" height="3.2"/>
	<rect x="-373" y="205.2" width="3.2" height="3.2"/>
	<rect x="-368.1" y="205.2" width="3.2" height="3.2"/>
	<rect x="-363.3" y="205.2" width="3.2" height="3.2"/>
	<rect x="-358.5" y="205.2" width="3.2" height="3.2"/>
	<rect x="-353.6" y="205.2" width="3.2" height="3.2"/>
	<rect x="-348.8" y="205.2" width="3.2" height="3.2"/>
	<rect x="-387.5" y="210" width="3.2" height="3.2"/>
	<rect x="-382.7" y="210" width="3.2" height="3.2"/>
	<rect x="-377.8" y="210" width="3.2" height="3.2"/>
	<rect x="-373" y="210" width="3.2" height="3.2"/>
	<rect x="-368.1" y="210" width="3.2" height="3.2"/>
	<rect x="-363.3" y="210" width="3.2" height="3.2"/>
	<rect x="-358.5" y="210" width="3.2" height="3.2"/>
	<rect x="-353.6" y="210" width="3.2" height="3.2"/>
	<rect x="-348.8" y="210" width="3.2" height="3.2"/>
	<rect x="-387.5" y="219.7" width="3.2" height="3.2"/>
	<rect x="-382.7" y="219.7" width="3.2" height="3.2"/>
	<rect x="-377.8" y="219.7" width="3.2" height="3.2"/>
	<rect x="-373" y="219.7" width="3.2" height="3.2"/>
	<rect x="-368.1" y="219.7" width="3.2" height="3.2"/>
	<rect x="-363.3" y="219.7" width="3.2" height="3.2"/>
	<rect x="-387.5" y="224.5" width="3.2" height="3.2"/>
	<rect x="-382.7" y="224.5" width="3.2" height="3.2"/>
	<rect x="-377.8" y="224.5" width="3.2" height="3.2"/>
	<rect x="-373" y="224.5" width="3.2" height="3.2"/>
	<rect x="-368.1" y="224.5" width="3.2" height="3.2"/>
	<rect x="-363.3" y="224.5" width="3.2" height="3.2"/>
	<rect x="-382.7" y="229.4" width="3.2" height="3.2"/>
	<rect x="-377.8" y="229.4" width="3.2" height="3.2"/>
	<rect x="-373" y="229.4" width="3.2" height="3.2"/>
	<rect x="-368.1" y="229.4" width="3.2" height="3.2"/>
	<rect x="-363.3" y="229.4" width="3.2" height="3.2"/>
	<rect x="-377.8" y="234.2" width="3.2" height="3.2"/>
	<rect x="-348.8" y="219.7" transform="matrix(-1 -1.224647e-16 1.224647e-16 -1 -694.3419 442.5959)" width="3.2" height="3.2"/>
	<rect x="-353.6" y="219.7" transform="matrix(-1 -1.224647e-16 1.224647e-16 -1 -704.019 442.5959)" width="3.2" height="3.2"/>
	<rect x="-358.5" y="219.7" transform="matrix(-1 -1.224647e-16 1.224647e-16 -1 -713.696 442.5959)" width="3.2" height="3.2"/>
	<rect x="-348.8" y="224.5" transform="matrix(-1 -1.224647e-16 1.224647e-16 -1 -694.3419 452.2731)" width="3.2" height="3.2"/>
	<rect x="-353.6" y="224.5" transform="matrix(-1 -1.224647e-16 1.224647e-16 -1 -704.019 452.2731)" width="3.2" height="3.2"/>
	<rect x="-358.5" y="224.5" transform="matrix(-1 -1.224647e-16 1.224647e-16 -1 -713.696 452.2731)" width="3.2" height="3.2"/>
	<rect x="-353.6" y="229.4" transform="matrix(-1 -1.224647e-16 1.224647e-16 -1 -704.019 461.9501)" width="3.2" height="3.2"/>
	<rect x="-358.5" y="229.4" transform="matrix(-1 -1.224647e-16 1.224647e-16 -1 -713.696 461.9501)" width="3.2" height="3.2"/>
	<rect x="-358.5" y="234.2" transform="matrix(-1 -1.224647e-16 1.224647e-16 -1 -713.696 471.6271)" width="3.2" height="3.2"/>
	<rect x="-373" y="234.2" width="3.2" height="3.2"/>
	<rect x="-368.1" y="234.2" width="3.2" height="3.2"/>
	<rect x="-363.3" y="234.2" width="3.2" height="3.2"/>
	<rect x="-373" y="239" width="3.2" height="3.2"/>
	<rect x="-368.1" y="239" width="3.2" height="3.2"/>
	<rect x="-363.3" y="239" width="3.2" height="3.2"/>
	<line fill="none" stroke="#000000" stroke-width="2.4193" stroke-miterlimit="10" x1="-387.5" y1="216.5" x2="-345.6" y2="216.5"/>
	<polyline fill="none" stroke="#000000" stroke-width="2.4193" stroke-miterlimit="10" points="-355.2,246.3 -338.2,229.3 
		-338.2,205.2 	"/>
	<polyline fill="none" stroke="#000000" stroke-width="2.4193" stroke-miterlimit="10" points="-347.7,248 -330.6,231 -330.6,204.9 
			"/>
</g>
<g>
	<rect x="-271.4" y="205.9" width="3.2" height="3.2"/>
	<rect x="-266.6" y="205.9" width="3.2" height="3.2"/>
	<rect x="-261.7" y="205.9" width="3.2" height="3.2"/>
	<rect x="-256.9" y="205.9" width="3.2" height="3.2"/>
	<rect x="-252" y="205.9" width="3.2" height="3.2"/>
	<rect x="-247.2" y="205.9" width="3.2" height="3.2"/>
	<rect x="-242.4" y="205.9" width="3.2" height="3.2"/>
	<rect x="-237.5" y="205.9" width="3.2" height="3.2"/>
	<rect x="-232.7" y="205.9" width="3.2" height="3.2"/>
	<rect x="-271.4" y="210.7" width="3.2" height="3.2"/>
	<rect x="-266.6" y="210.7" width="3.2" height="3.2"/>
	<rect x="-261.7" y="210.7" width="3.2" height="3.2"/>
	<rect x="-256.9" y="210.7" width="3.2" height="3.2"/>
	<rect x="-252" y="210.7" width="3.2" height="3.2"/>
	<rect x="-247.2" y="210.7" width="3.2" height="3.2"/>
	<rect x="-242.4" y="210.7" width="3.2" height="3.2"/>
	<rect x="-237.5" y="210.7" width="3.2" height="3.2"/>
	<rect x="-232.7" y="210.7" width="3.2" height="3.2"/>
	<rect x="-271.4" y="220.4" width="3.2" height="3.2"/>
	<rect x="-266.6" y="220.4" width="3.2" height="3.2"/>
	<rect x="-261.7" y="220.4" width="3.2" height="3.2"/>
	<rect x="-256.9" y="220.4" width="3.2" height="3.2"/>
	<rect x="-252" y="220.4" width="3.2" height="3.2"/>
	<rect x="-247.2" y="220.4" width="3.2" height="3.2"/>
	<rect x="-271.4" y="225.2" width="3.2" height="3.2"/>
	<rect x="-266.6" y="225.2" width="3.2" height="3.2"/>
	<rect x="-261.7" y="225.2" width="3.2" height="3.2"/>
	<rect x="-256.9" y="225.2" width="3.2" height="3.2"/>
	<rect x="-252" y="225.2" width="3.2" height="3.2"/>
	<rect x="-247.2" y="225.2" width="3.2" height="3.2"/>
	<rect x="-266.6" y="230.1" width="3.2" height="3.2"/>
	<rect x="-261.7" y="230.1" width="3.2" height="3.2"/>
	<rect x="-256.9" y="230.1" width="3.2" height="3.2"/>
	<rect x="-252" y="230.1" width="3.2" height="3.2"/>
	<rect x="-247.2" y="230.1" width="3.2" height="3.2"/>
	<rect x="-261.7" y="234.9" width="3.2" height="3.2"/>
	<rect x="-232.7" y="220.4" transform="matrix(-1 -1.224647e-16 1.224647e-16 -1 -462.1544 444.0371)" width="3.2" height="3.2"/>
	<rect x="-237.5" y="220.4" transform="matrix(-1 -1.224647e-16 1.224647e-16 -1 -471.8317 444.0371)" width="3.2" height="3.2"/>
	<rect x="-242.4" y="220.4" transform="matrix(-1 -1.224647e-16 1.224647e-16 -1 -481.5087 444.0371)" width="3.2" height="3.2"/>
	<rect x="-232.7" y="225.2" transform="matrix(-1 -1.224647e-16 1.224647e-16 -1 -462.1544 453.7143)" width="3.2" height="3.2"/>
	<rect x="-237.5" y="225.2" transform="matrix(-1 -1.224647e-16 1.224647e-16 -1 -471.8317 453.7143)" width="3.2" height="3.2"/>
	<rect x="-242.4" y="225.2" transform="matrix(-1 -1.224647e-16 1.224647e-16 -1 -481.5087 453.7143)" width="3.2" height="3.2"/>
	<rect x="-237.5" y="230.1" transform="matrix(-1 -1.224647e-16 1.224647e-16 -1 -471.8317 463.3913)" width="3.2" height="3.2"/>
	<rect x="-242.4" y="230.1" transform="matrix(-1 -1.224647e-16 1.224647e-16 -1 -481.5087 463.3913)" width="3.2" height="3.2"/>
	<rect x="-242.4" y="234.9" transform="matrix(-1 -1.224647e-16 1.224647e-16 -1 -481.5087 473.0683)" width="3.2" height="3.2"/>
	<rect x="-256.9" y="234.9" width="3.2" height="3.2"/>
	<rect x="-252" y="234.9" width="3.2" height="3.2"/>
	<rect x="-247.2" y="234.9" width="3.2" height="3.2"/>
	<rect x="-256.9" y="239.8" width="3.2" height="3.2"/>
	<rect x="-252" y="239.8" width="3.2" height="3.2"/>
	<rect x="-247.2" y="239.8" width="3.2" height="3.2"/>
	<line fill="none" stroke="#000000" stroke-width="2.4193" stroke-miterlimit="10" x1="-271.4" y1="217.2" x2="-229.5" y2="217.2"/>
	<polyline fill="none" stroke="#000000" stroke-width="2.4193" stroke-miterlimit="10" points="-239.1,247 -222.1,230 -222.1,205.9 
			"/>
</g>
<g>
	<polygon fill="none" points="-458.1,150 -463.1,152.3 -458.1,154.7 	"/>
	<polygon fill="none" points="-458.1,143 -467.6,138.6 -467.6,150.1 -465,151.4 -458.1,148.3 	"/>
	<path fill="none" d="M-457,156.7C-457,156.7-457.1,156.7-457,156.7c-0.1,0-0.2,0-0.3,0c-0.1,0-0.1,0-0.2,0c0,0,0,0-0.1,0
		c0,0-0.1,0-0.1,0l-7.4-3.6l-1.5,0.7l9.2,4.2l9.3-4.2l-1.4-0.7L-457,156.7C-457,156.7-457,156.7-457,156.7z"/>
	<polygon fill="none" points="-448,120.4 -456.8,116.1 -466.5,120.4 -457.3,124.6 	"/>
	<polygon fill="none" points="-456.5,154.7 -451.2,152.2 -456.5,149.6 	"/>
	<path fill="none" d="M-457,139.7C-457,139.7-457.1,139.8-457,139.7c-0.1,0-0.2,0-0.3,0c-0.1,0-0.1,0-0.2,0c0,0,0,0-0.1,0
		c0,0-0.1,0-0.1,0l-6.7-3.3l-2.2,1l9.2,4.2l9.3-4.2l-2.1-1L-457,139.7C-457,139.7-457,139.7-457,139.7z"/>
	<polygon fill="none" points="-458.1,126 -467.6,121.7 -467.6,133.1 -464.3,134.7 -458.1,131.9 	"/>
	<path fill="none" d="M-449.4,151.3l2.5-1.2v-11.5l-9.6,4.3v4.9c0,0,0,0,0.1,0L-449.4,151.3z"/>
	<polygon fill="none" points="-456.5,137.8 -451.8,135.5 -456.5,133.2 	"/>
	<path fill="none" d="M-450,134.6l3.1-1.5v-11.5l-9.6,4.3v5.5c0,0,0,0,0.1,0L-450,134.6z"/>
	<polygon fill="none" points="-458.1,133.7 -462.4,135.6 -458.1,137.8 	"/>
	<polygon fill="none" points="-467.6,166.4 -458.1,171.1 -458.1,159.3 -467.6,155 	"/>
	<polygon fill="none" points="-456.5,171.1 -446.9,166.4 -446.9,155 -456.5,159.3 	"/>
	<path fill="#040000" d="M-448,153.7l-9.3,4.2l-9.2-4.2l1.5-0.7l-1.9-0.9l-1.9,0.8c0,0,0,0,0,0c0,0,0,0-0.1,0c0,0,0,0,0,0
		c0,0,0,0-0.1,0.1c0,0-0.1,0.1-0.1,0.1c0,0,0,0,0,0.1c0,0,0,0.1-0.1,0.1c0,0,0,0,0,0.1c0,0.1,0,0.1,0,0.2c0,0,0,0,0,0c0,0,0,0,0,0
		c0,0,0,0,0,0v13.2c0,0.3,0.2,0.6,0.4,0.7l11.1,5.4c0,0,0.1,0,0.1,0c0,0,0,0,0.1,0c0.1,0,0.1,0,0.2,0c0.1,0,0.1,0,0.2,0
		c0,0,0,0,0.1,0c0,0,0.1,0,0.1,0l11.1-5.4c0.3-0.1,0.4-0.4,0.4-0.7v-13.2c0,0,0,0,0,0c0,0,0,0,0,0v-0.2l0,0
		c-0.1-0.2-0.2-0.4-0.4-0.5l-1.8-0.9l-1.8,0.9L-448,153.7z M-458.1,171.1l-9.6-4.6V155l9.6,4.3V171.1z M-446.9,166.4l-9.6,4.6v-11.7
		l9.6-4.3V166.4z"/>
	<path fill="#040000" d="M-445.3,150.6v-13.2c0,0,0,0,0,0c0,0,0,0,0,0v-0.2l0,0c-0.1-0.2-0.2-0.4-0.4-0.5l-2.5-1.2l-1.8,0.9l2.1,1
		l-9.3,4.2l-9.2-4.2l2.2-1l-1.9-0.9l-2.6,1.1c0,0,0,0,0,0c0,0,0,0-0.1,0c0,0,0,0,0,0c0,0,0,0-0.1,0.1c0,0-0.1,0.1-0.1,0.1
		c0,0,0,0,0,0.1c0,0,0,0.1-0.1,0.1c0,0,0,0,0,0.1c0,0.1,0,0.1,0,0.2c0,0,0,0,0,0c0,0,0,0,0,0c0,0,0,0,0,0v13.2
		c0,0.3,0.2,0.6,0.4,0.7l1.9,0.9l1.9-0.8l-2.7-1.3v-11.5l9.6,4.3v5.3l1-0.4c0.2-0.1,0.4-0.1,0.6,0V143l9.6-4.3v11.5l-2.5,1.2
		l1.8,0.9l1.8-0.9C-445.5,151.2-445.3,150.9-445.3,150.6z"/>
	<path fill="#040000" d="M-456.5,149.6l-0.3-0.1l-1.3,0.6v4.7l-5.1-2.5l-1.9,0.8l7.4,3.6c0,0,0.1,0,0.1,0c0,0,0,0,0.1,0
		c0.1,0,0.1,0,0.2,0c0.1,0,0.1,0,0.2,0c0,0,0,0,0.1,0c0,0,0.1,0,0.1,0l7.5-3.6l-1.8-0.9l-5.3,2.6V149.6z"/>
	<polygon fill="#040000" points="-451.2,152.2 -449.4,153 -447.6,152.2 -449.4,151.3 	"/>
	<path fill="#040000" d="M-456.8,149.4l0.3,0.1v-1.7c-0.2-0.1-0.4-0.1-0.6,0l-1,0.4v1.7L-456.8,149.4z"/>
	<polygon fill="#040000" points="-463.1,152.3 -465,151.4 -466.9,152.2 -465,153.1 	"/>
	<path fill="#040000" d="M-467.6,133.1v-11.5l9.6,4.3v5.9l1-0.4c0.2-0.1,0.4-0.1,0.6,0V126l9.6-4.3v11.5l-3.1,1.5l1.8,0.9l2.5-1.2
		c0.3-0.1,0.4-0.4,0.4-0.7v-13.2c0,0,0,0,0,0c0,0,0,0,0,0v-0.2l0,0c-0.1-0.2-0.2-0.4-0.4-0.5l-10.6-5.2c-0.2-0.1-0.5-0.1-0.7,0
		l-11.6,5.2c0,0,0,0,0,0c0,0,0,0-0.1,0c0,0,0,0,0,0c0,0,0,0-0.1,0.1c0,0-0.1,0.1-0.1,0.1c0,0,0,0,0,0.1c0,0,0,0.1-0.1,0.1
		c0,0,0,0,0,0.1c0,0.1,0,0.1,0,0.2c0,0,0,0,0,0c0,0,0,0,0,0c0,0,0,0,0,0v13.2c0,0.3,0.2,0.6,0.4,0.7l2.6,1.2l1.9-0.8L-467.6,133.1z
		 M-456.8,116.1l8.8,4.3l-9.3,4.2l-9.2-4.2L-456.8,116.1z"/>
	<path fill="#040000" d="M-456.5,137.8v-4.5l-0.3-0.1l-1.3,0.6v4.1l-4.4-2.1l-1.9,0.8l6.7,3.3c0,0,0.1,0,0.1,0c0,0,0,0,0.1,0
		c0.1,0,0.1,0,0.2,0c0.1,0,0.1,0,0.2,0c0,0,0,0,0.1,0c0,0,0.1,0,0.1,0l6.9-3.3l-1.8-0.9L-456.5,137.8z"/>
	<polygon fill="#040000" points="-451.8,135.5 -450.1,136.4 -448.3,135.5 -450,134.6 	"/>
	<polygon fill="#040000" points="-462.4,135.6 -464.3,134.7 -466.2,135.6 -464.3,136.5 	"/>
	<path fill="#040000" d="M-456.8,133.1l0.3,0.1v-1.7c-0.2-0.1-0.4-0.1-0.6,0l-1,0.4v1.7L-456.8,133.1z"/>
</g>
<g>
	<polygon fill="none" stroke="#000000" stroke-width="2" stroke-miterlimit="10" points="-465.9,290.4 -476.9,290.4 -476.9,286.4 
		-465.9,286.4 -463.9,288.4 	"/>
	<polygon fill="none" stroke="#000000" stroke-width="2" stroke-miterlimit="10" points="-445.9,290.4 -456.9,290.4 -456.9,286.4 
		-445.9,286.4 -443.9,288.4 	"/>
	<rect x="-487.9" y="298.4" fill="none" stroke="#000000" stroke-width="2" stroke-miterlimit="10" width="56" height="32"/>
	<line fill="none" stroke="#000000" stroke-width="2" stroke-miterlimit="10" x1="-483.9" y1="305.4" x2="-475.9" y2="305.4"/>
	<line fill="none" stroke="#000000" stroke-width="2" stroke-miterlimit="10" x1="-463.9" y1="305.4" x2="-455.9" y2="305.4"/>
	<line fill="none" stroke="#000000" stroke-width="2" stroke-miterlimit="10" x1="-483.9" y1="309.4" x2="-475.9" y2="309.4"/>
	<line fill="none" stroke="#000000" stroke-width="2" stroke-miterlimit="10" x1="-463.9" y1="309.4" x2="-455.9" y2="309.4"/>
	<line fill="none" stroke="#000000" stroke-width="2" stroke-miterlimit="10" x1="-483.9" y1="313.4" x2="-475.9" y2="313.4"/>
	<line fill="none" stroke="#000000" stroke-width="2" stroke-miterlimit="10" x1="-463.9" y1="313.4" x2="-455.9" y2="313.4"/>
	<line fill="none" stroke="#000000" stroke-width="2" stroke-miterlimit="10" x1="-483.9" y1="317.4" x2="-475.9" y2="317.4"/>
	<line fill="none" stroke="#000000" stroke-width="2" stroke-miterlimit="10" x1="-463.9" y1="317.4" x2="-455.9" y2="317.4"/>
	<line fill="none" stroke="#000000" stroke-width="2" stroke-miterlimit="10" x1="-483.9" y1="321.4" x2="-475.9" y2="321.4"/>
	<line fill="none" stroke="#000000" stroke-width="2" stroke-miterlimit="10" x1="-463.9" y1="321.4" x2="-455.9" y2="321.4"/>
	<line fill="none" stroke="#000000" stroke-width="2" stroke-miterlimit="10" x1="-483.9" y1="309.4" x2="-475.9" y2="309.4"/>
	<line fill="none" stroke="#000000" stroke-width="2" stroke-miterlimit="10" x1="-463.9" y1="309.4" x2="-455.9" y2="309.4"/>
	<line fill="none" stroke="#000000" stroke-width="2" stroke-miterlimit="10" x1="-483.9" y1="313.4" x2="-475.9" y2="313.4"/>
	<line fill="none" stroke="#000000" stroke-width="2" stroke-miterlimit="10" x1="-463.9" y1="313.4" x2="-455.9" y2="313.4"/>
	<line fill="none" stroke="#000000" stroke-width="2" stroke-miterlimit="10" x1="-483.9" y1="317.4" x2="-475.9" y2="317.4"/>
	<line fill="none" stroke="#000000" stroke-width="2" stroke-miterlimit="10" x1="-463.9" y1="317.4" x2="-455.9" y2="317.4"/>
	<line fill="none" stroke="#000000" stroke-width="2" stroke-miterlimit="10" x1="-483.9" y1="321.4" x2="-475.9" y2="321.4"/>
	<g>
		<line fill="none" stroke="#000000" stroke-width="2" stroke-miterlimit="10" x1="-480.9" y1="305.4" x2="-472.9" y2="305.4"/>
		<line fill="none" stroke="#000000" stroke-width="2" stroke-miterlimit="10" x1="-480.9" y1="309.4" x2="-472.9" y2="309.4"/>
		<line fill="none" stroke="#000000" stroke-width="2" stroke-miterlimit="10" x1="-480.9" y1="313.4" x2="-472.9" y2="313.4"/>
		<line fill="none" stroke="#000000" stroke-width="2" stroke-miterlimit="10" x1="-480.9" y1="317.4" x2="-472.9" y2="317.4"/>
		<line fill="none" stroke="#000000" stroke-width="2" stroke-miterlimit="10" x1="-480.9" y1="321.4" x2="-472.9" y2="321.4"/>
	</g>
	<line fill="none" stroke="#000000" stroke-width="2" stroke-miterlimit="10" x1="-447.9" y1="305.4" x2="-439.9" y2="305.4"/>
	<line fill="none" stroke="#000000" stroke-width="2" stroke-miterlimit="10" x1="-447.9" y1="309.4" x2="-439.9" y2="309.4"/>
	<line fill="none" stroke="#000000" stroke-width="2" stroke-miterlimit="10" x1="-447.9" y1="313.4" x2="-439.9" y2="313.4"/>
	<line fill="none" stroke="#000000" stroke-width="2" stroke-miterlimit="10" x1="-447.9" y1="317.4" x2="-439.9" y2="317.4"/>
	<line fill="none" stroke="#000000" stroke-width="2" stroke-miterlimit="10" x1="-447.9" y1="321.4" x2="-439.9" y2="321.4"/>
	<line fill="none" stroke="#000000" stroke-width="2" stroke-miterlimit="10" x1="-447.9" y1="309.4" x2="-439.9" y2="309.4"/>
	<line fill="none" stroke="#000000" stroke-width="2" stroke-miterlimit="10" x1="-447.9" y1="313.4" x2="-439.9" y2="313.4"/>
	<line fill="none" stroke="#000000" stroke-width="2" stroke-miterlimit="10" x1="-447.9" y1="317.4" x2="-439.9" y2="317.4"/>
	<line fill="none" stroke="#000000" stroke-width="2" stroke-miterlimit="10" x1="-447.9" y1="321.4" x2="-439.9" y2="321.4"/>
	<g>
		<line fill="none" stroke="#000000" stroke-width="2" stroke-miterlimit="10" x1="-444.9" y1="305.4" x2="-436.9" y2="305.4"/>
		<line fill="none" stroke="#000000" stroke-width="2" stroke-miterlimit="10" x1="-444.9" y1="309.4" x2="-436.9" y2="309.4"/>
		<line fill="none" stroke="#000000" stroke-width="2" stroke-miterlimit="10" x1="-444.9" y1="313.4" x2="-436.9" y2="313.4"/>
		<line fill="none" stroke="#000000" stroke-width="2" stroke-miterlimit="10" x1="-444.9" y1="317.4" x2="-436.9" y2="317.4"/>
		<line fill="none" stroke="#000000" stroke-width="2" stroke-miterlimit="10" x1="-444.9" y1="321.4" x2="-436.9" y2="321.4"/>
	</g>
	<g>
		<line fill="none" stroke="#000000" stroke-width="2" stroke-miterlimit="10" x1="-466.9" y1="305.4" x2="-458.9" y2="305.4"/>
		<line fill="none" stroke="#000000" stroke-width="2" stroke-miterlimit="10" x1="-466.9" y1="309.4" x2="-458.9" y2="309.4"/>
		<line fill="none" stroke="#000000" stroke-width="2" stroke-miterlimit="10" x1="-466.9" y1="313.4" x2="-458.9" y2="313.4"/>
		<line fill="none" stroke="#000000" stroke-width="2" stroke-miterlimit="10" x1="-466.9" y1="317.4" x2="-458.9" y2="317.4"/>
		<line fill="none" stroke="#000000" stroke-width="2" stroke-miterlimit="10" x1="-466.9" y1="321.4" x2="-458.9" y2="321.4"/>
	</g>
	<g>
		<line fill="none" stroke="#000000" stroke-width="2" stroke-miterlimit="10" x1="-461.9" y1="305.4" x2="-453.9" y2="305.4"/>
		<line fill="none" stroke="#000000" stroke-width="2" stroke-miterlimit="10" x1="-461.9" y1="309.4" x2="-453.9" y2="309.4"/>
		<line fill="none" stroke="#000000" stroke-width="2" stroke-miterlimit="10" x1="-461.9" y1="313.4" x2="-453.9" y2="313.4"/>
		<line fill="none" stroke="#000000" stroke-width="2" stroke-miterlimit="10" x1="-461.9" y1="317.4" x2="-453.9" y2="317.4"/>
		<line fill="none" stroke="#000000" stroke-width="2" stroke-miterlimit="10" x1="-461.9" y1="321.4" x2="-453.9" y2="321.4"/>
	</g>
	<line fill="none" stroke="#000000" stroke-width="2" stroke-miterlimit="10" x1="-463.9" y1="321.4" x2="-455.9" y2="321.4"/>
	<line fill="none" stroke="#000000" stroke-width="2" stroke-miterlimit="10" x1="-472.9" y1="294.4" x2="-472.9" y2="300.4"/>
	<line fill="none" stroke="#000000" stroke-width="2" stroke-miterlimit="10" x1="-469.9" y1="294.4" x2="-469.9" y2="300.4"/>
	<line fill="none" stroke="#000000" stroke-width="2" stroke-miterlimit="10" x1="-466.9" y1="294.4" x2="-466.9" y2="300.4"/>
	<line fill="none" stroke="#000000" stroke-width="2" stroke-miterlimit="10" x1="-453.9" y1="294.4" x2="-453.9" y2="300.4"/>
	<line fill="none" stroke="#000000" stroke-width="2" stroke-miterlimit="10" x1="-450.9" y1="294.4" x2="-450.9" y2="300.4"/>
	<line fill="none" stroke="#000000" stroke-width="2" stroke-miterlimit="10" x1="-447.9" y1="294.4" x2="-447.9" y2="300.4"/>
	<rect x="-462.9" y="327.4" fill="none" stroke="#000000" stroke-width="2" stroke-miterlimit="10" width="6" height="2"/>
	
		<line fill="none" stroke="#000000" stroke-width="1.972" stroke-miterlimit="10" stroke-dasharray="2.7334,2.7334" x1="-469.9" y1="302.4" x2="-469.9" y2="337.4"/>
	
		<line fill="none" stroke="#000000" stroke-width="1.972" stroke-miterlimit="10" stroke-dasharray="2.7334,2.7334" x1="-450.9" y1="302.4" x2="-450.9" y2="337.4"/>
</g>
</svg>
