<?xml version="1.0" encoding="utf-8"?>
<!-- Generator: Adobe Illustrator 22.0.1, SVG Export Plug-In . SVG Version: 6.00 Build 0)  -->
<svg version="1.2" baseProfile="tiny" id="레이어_1"
	 xmlns="http://www.w3.org/2000/svg" xmlns:xlink="http://www.w3.org/1999/xlink" x="0px" y="0px" viewBox="0 0 64 64"
	 xml:space="preserve">
<rect x="-411.9" y="8.4" fill="none" stroke="#000000" stroke-miterlimit="10" width="64" height="64"/>
<rect x="-411.9" y="8.4" fill="none" stroke="#000000" stroke-miterlimit="10" width="64" height="64"/>
<rect x="-411.9" y="8.4" fill="none" stroke="#000000" stroke-miterlimit="10" width="64" height="64"/>
<rect x="-411.9" y="8.4" fill="none" stroke="#000000" stroke-miterlimit="10" width="64" height="64"/>
<rect x="-411.9" y="8.4" fill="none" stroke="#000000" stroke-miterlimit="10" width="64" height="64"/>
<rect x="-411.9" y="8.4" fill="none" stroke="#000000" stroke-miterlimit="10" width="64" height="64"/>
<rect x="-411.9" y="8.4" fill="none" stroke="#000000" stroke-miterlimit="10" width="64" height="64"/>
<rect x="-411.9" y="8.4" fill="none" stroke="#000000" stroke-miterlimit="10" width="64" height="64"/>
<rect x="-411.9" y="8.4" fill="none" stroke="#000000" stroke-miterlimit="10" width="64" height="64"/>
<rect x="-411.9" y="8.4" fill="none" stroke="#000000" stroke-miterlimit="10" width="64" height="64"/>
<rect x="-411.9" y="8.4" fill="none" stroke="#000000" stroke-miterlimit="10" width="64" height="64"/>
<rect x="-411.9" y="8.4" fill="none" stroke="#000000" stroke-miterlimit="10" width="64" height="64"/>
<rect x="-411.9" y="8.4" fill="none" stroke="#000000" stroke-miterlimit="10" width="64" height="64"/>
<rect x="-411.9" y="8.4" fill="none" stroke="#000000" stroke-miterlimit="10" width="64" height="64"/>
<rect x="-411.9" y="8.4" fill="none" stroke="#000000" stroke-miterlimit="10" width="64" height="64"/>
<rect x="-411.9" y="8.4" fill="none" stroke="#000000" stroke-miterlimit="10" width="64" height="64"/>
<rect x="-411.9" y="8.4" fill="none" stroke="#000000" stroke-miterlimit="10" width="64" height="64"/>
<rect x="-411.9" y="8.4" fill="none" stroke="#000000" stroke-miterlimit="10" width="64" height="64"/>
<rect x="-411.9" y="8.4" fill="none" stroke="#000000" stroke-miterlimit="10" width="64" height="64"/>
<rect x="-411.9" y="8.4" fill="none" stroke="#000000" stroke-miterlimit="10" width="64" height="64"/>
<rect x="-411.9" y="8.4" fill="none" stroke="#000000" stroke-miterlimit="10" width="64" height="64"/>
<rect x="-411.9" y="8.4" fill="none" stroke="#000000" stroke-miterlimit="10" width="64" height="64"/>
<rect x="-411.9" y="8.4" fill="none" stroke="#000000" stroke-miterlimit="10" width="64" height="64"/>
<rect x="-411.9" y="8.4" fill="none" stroke="#000000" stroke-miterlimit="10" width="64" height="64"/>
<rect x="-411.9" y="8.4" fill="none" stroke="#000000" stroke-miterlimit="10" width="64" height="64"/>
<rect x="-411.9" y="8.4" fill="none" stroke="#000000" stroke-miterlimit="10" width="64" height="64"/>
<rect x="-411.9" y="8.4" fill="none" stroke="#000000" stroke-miterlimit="10" width="64" height="64"/>
<rect x="-411.9" y="8.4" fill="none" stroke="#000000" stroke-miterlimit="10" width="64" height="64"/>
<rect x="-411.9" y="8.4" fill="none" stroke="#000000" stroke-miterlimit="10" width="64" height="64"/>
<rect x="-411.9" y="8.4" fill="none" stroke="#000000" stroke-miterlimit="10" width="64" height="64"/>
<rect x="-411.9" y="8.4" fill="none" stroke="#000000" stroke-miterlimit="10" width="64" height="64"/>
<rect x="-411.9" y="8.4" fill="none" stroke="#000000" stroke-miterlimit="10" width="64" height="64"/>
<rect x="-411.9" y="8.4" fill="none" stroke="#000000" stroke-miterlimit="10" width="64" height="64"/>
<rect x="-411.9" y="8.4" fill="none" stroke="#000000" stroke-miterlimit="10" width="64" height="64"/>
<rect x="-411.9" y="8.4" fill="none" stroke="#000000" stroke-miterlimit="10" width="64" height="64"/>
<rect x="-411.9" y="8.4" fill="none" stroke="#000000" stroke-miterlimit="10" width="64" height="64"/>
<rect x="-411.9" y="8.4" fill="none" stroke="#000000" stroke-miterlimit="10" width="64" height="64"/>
<rect x="-411.9" y="8.4" fill="none" stroke="#000000" stroke-miterlimit="10" width="64" height="64"/>
<rect x="-411.9" y="8.4" fill="none" stroke="#000000" stroke-miterlimit="10" width="64" height="64"/>
<rect x="-411.9" y="8.4" fill="none" stroke="#000000" stroke-miterlimit="10" width="64" height="64"/>
<rect x="-411.9" y="8.4" fill="none" stroke="#000000" stroke-miterlimit="10" width="64" height="64"/>
<rect x="-411.9" y="8.4" fill="none" stroke="#000000" stroke-miterlimit="10" width="64" height="64"/>
<rect x="-411.9" y="8.4" fill="none" stroke="#000000" stroke-miterlimit="10" width="64" height="64"/>
<rect x="-411.9" y="8.4" fill="none" stroke="#000000" stroke-miterlimit="10" width="64" height="64"/>
<rect x="-411.9" y="8.4" fill="none" stroke="#000000" stroke-miterlimit="10" width="64" height="64"/>
<rect x="-411.9" y="8.4" fill="none" stroke="#000000" stroke-miterlimit="10" width="64" height="64"/>
<rect x="-411.9" y="8.4" fill="none" stroke="#000000" stroke-miterlimit="10" width="64" height="64"/>
<rect x="-411.9" y="8.4" fill="none" stroke="#000000" stroke-miterlimit="10" width="64" height="64"/>
<rect x="-411.9" y="8.4" fill="none" stroke="#000000" stroke-miterlimit="10" width="64" height="64"/>
<rect x="-411.9" y="8.4" fill="none" stroke="#000000" stroke-miterlimit="10" width="64" height="64"/>
<rect x="-411.9" y="8.4" fill="none" stroke="#000000" stroke-miterlimit="10" width="64" height="64"/>
<rect x="-411.9" y="8.4" fill="none" stroke="#000000" stroke-miterlimit="10" width="64" height="64"/>
<rect x="-411.9" y="8.4" fill="none" stroke="#000000" stroke-miterlimit="10" width="64" height="64"/>
<rect x="-411.9" y="8.4" fill="none" stroke="#000000" stroke-miterlimit="10" width="64" height="64"/>
<rect x="-411.9" y="8.4" fill="none" stroke="#000000" stroke-miterlimit="10" width="64" height="64"/>
<rect x="-411.9" y="8.4" fill="none" stroke="#000000" stroke-miterlimit="10" width="64" height="64"/>
<rect x="-411.9" y="8.4" fill="none" stroke="#000000" stroke-miterlimit="10" width="64" height="64"/>
<rect x="-411.9" y="8.4" fill="none" stroke="#000000" stroke-miterlimit="10" width="64" height="64"/>
<rect x="-411.9" y="8.4" fill="none" stroke="#000000" stroke-miterlimit="10" width="64" height="64"/>
<rect x="-411.9" y="8.4" fill="none" stroke="#000000" stroke-miterlimit="10" width="64" height="64"/>
<rect x="-411.9" y="8.4" fill="none" stroke="#000000" stroke-miterlimit="10" width="64" height="64"/>
<rect x="-411.9" y="8.4" fill="none" stroke="#000000" stroke-miterlimit="10" width="64" height="64"/>
<rect x="-411.9" y="8.4" fill="none" stroke="#000000" stroke-miterlimit="10" width="64" height="64"/>
<rect x="-411.9" y="8.4" fill="none" stroke="#000000" stroke-miterlimit="10" width="64" height="64"/>
<rect x="-411.9" y="8.4" fill="none" stroke="#000000" stroke-miterlimit="10" width="64" height="64"/>
<rect x="-411.9" y="8.4" fill="none" stroke="#000000" stroke-miterlimit="10" width="64" height="64"/>
<rect x="-411.9" y="8.4" fill="none" stroke="#000000" stroke-miterlimit="10" width="64" height="64"/>
<rect x="-411.9" y="8.4" fill="none" stroke="#000000" stroke-miterlimit="10" width="64" height="64"/>
<rect x="-411.9" y="8.4" fill="none" stroke="#000000" stroke-miterlimit="10" width="64" height="64"/>
<rect x="-411.9" y="8.4" fill="none" stroke="#000000" stroke-miterlimit="10" width="64" height="64"/>
<rect x="-411.9" y="8.4" fill="none" stroke="#000000" stroke-miterlimit="10" width="64" height="64"/>
<rect x="-411.9" y="8.4" fill="none" stroke="#000000" stroke-miterlimit="10" width="64" height="64"/>
<rect x="-411.9" y="8.4" fill="none" stroke="#000000" stroke-miterlimit="10" width="64" height="64"/>
<rect x="-411.9" y="8.4" fill="none" stroke="#000000" stroke-miterlimit="10" width="64" height="64"/>
<rect x="-411.9" y="8.4" fill="none" stroke="#000000" stroke-miterlimit="10" width="64" height="64"/>
<rect x="-411.9" y="8.4" fill="none" stroke="#000000" stroke-miterlimit="10" width="64" height="64"/>
<rect x="-411.9" y="8.4" fill="none" stroke="#000000" stroke-miterlimit="10" width="64" height="64"/>
<rect x="-411.9" y="8.4" fill="none" stroke="#000000" stroke-miterlimit="10" width="64" height="64"/>
<rect x="-411.9" y="8.4" fill="none" stroke="#000000" stroke-miterlimit="10" width="64" height="64"/>
<rect x="-411.9" y="8.4" fill="none" stroke="#000000" stroke-miterlimit="10" width="64" height="64"/>
<rect x="-411.9" y="8.4" fill="none" stroke="#000000" stroke-miterlimit="10" width="64" height="64"/>
<rect x="-411.9" y="8.4" fill="none" stroke="#000000" stroke-miterlimit="10" width="64" height="64"/>
<rect x="-411.9" y="8.4" fill="none" stroke="#000000" stroke-miterlimit="10" width="64" height="64"/>
<rect x="-411.9" y="8.4" fill="none" stroke="#000000" stroke-miterlimit="10" width="64" height="64"/>
<rect x="-411.9" y="8.4" fill="none" stroke="#000000" stroke-miterlimit="10" width="64" height="64"/>
<rect x="-411.9" y="8.4" fill="none" stroke="#000000" stroke-miterlimit="10" width="64" height="64"/>
<rect x="-411.9" y="8.4" fill="none" stroke="#000000" stroke-miterlimit="10" width="64" height="64"/>
<rect x="-411.9" y="8.4" fill="none" stroke="#000000" stroke-miterlimit="10" width="64" height="64"/>
<rect x="-411.9" y="8.4" fill="none" stroke="#000000" stroke-miterlimit="10" width="64" height="64"/>
<rect x="-411.9" y="8.4" fill="none" stroke="#000000" stroke-miterlimit="10" width="64" height="64"/>
<rect x="-411.9" y="8.4" fill="none" stroke="#000000" stroke-miterlimit="10" width="64" height="64"/>
<rect x="-411.9" y="8.4" fill="none" stroke="#000000" stroke-miterlimit="10" width="64" height="64"/>
<rect x="-411.9" y="8.4" fill="none" stroke="#000000" stroke-miterlimit="10" width="64" height="64"/>
<rect x="-411.9" y="8.4" fill="none" stroke="#000000" stroke-miterlimit="10" width="64" height="64"/>
<rect x="-411.9" y="8.4" fill="none" stroke="#000000" stroke-miterlimit="10" width="64" height="64"/>
<rect x="-411.9" y="8.4" fill="none" stroke="#000000" stroke-miterlimit="10" width="64" height="64"/>
<rect x="-411.9" y="8.4" fill="none" stroke="#000000" stroke-miterlimit="10" width="64" height="64"/>
<rect x="-411.9" y="8.4" fill="none" stroke="#000000" stroke-miterlimit="10" width="64" height="64"/>
<rect x="-411.9" y="8.4" fill="none" stroke="#000000" stroke-miterlimit="10" width="64" height="64"/>
<rect x="-411.9" y="8.4" fill="none" stroke="#000000" stroke-miterlimit="10" width="64" height="64"/>
<rect x="-411.9" y="8.4" fill="none" stroke="#000000" stroke-miterlimit="10" width="64" height="64"/>
<rect x="-411.9" y="8.4" fill="none" stroke="#000000" stroke-miterlimit="10" width="64" height="64"/>
<rect x="-411.9" y="8.4" fill="none" stroke="#000000" stroke-miterlimit="10" width="64" height="64"/>
<rect x="-411.9" y="8.4" fill="none" stroke="#000000" stroke-miterlimit="10" width="64" height="64"/>
<rect x="-411.9" y="8.4" fill="none" stroke="#000000" stroke-miterlimit="10" width="64" height="64"/>
<rect x="-411.9" y="8.4" fill="none" stroke="#000000" stroke-miterlimit="10" width="64" height="64"/>
<rect x="-411.9" y="8.4" fill="none" stroke="#000000" stroke-miterlimit="10" width="64" height="64"/>
<rect x="-411.9" y="8.4" fill="none" stroke="#000000" stroke-miterlimit="10" width="64" height="64"/>
<rect x="-411.9" y="8.4" fill="none" stroke="#000000" stroke-miterlimit="10" width="64" height="64"/>
<rect x="-411.9" y="8.4" fill="none" stroke="#000000" stroke-miterlimit="10" width="64" height="64"/>
<rect x="-411.9" y="8.4" fill="none" stroke="#000000" stroke-miterlimit="10" width="64" height="64"/>
<rect x="-411.9" y="8.4" fill="none" stroke="#000000" stroke-miterlimit="10" width="64" height="64"/>
<rect x="-411.9" y="8.4" fill="none" stroke="#000000" stroke-miterlimit="10" width="64" height="64"/>
<rect x="-411.9" y="8.4" fill="none" stroke="#000000" stroke-miterlimit="10" width="64" height="64"/>
<rect x="-411.9" y="8.4" fill="none" stroke="#000000" stroke-miterlimit="10" width="64" height="64"/>
<rect x="-411.9" y="8.4" fill="none" stroke="#000000" stroke-miterlimit="10" width="64" height="64"/>
<rect x="-411.9" y="8.4" fill="none" stroke="#000000" stroke-miterlimit="10" width="64" height="64"/>
<rect x="-411.9" y="8.4" fill="none" stroke="#000000" stroke-miterlimit="10" width="64" height="64"/>
<rect x="-411.9" y="8.4" fill="none" stroke="#000000" stroke-miterlimit="10" width="64" height="64"/>
<rect x="-411.9" y="8.4" fill="none" stroke="#000000" stroke-miterlimit="10" width="64" height="64"/>
<rect x="-411.9" y="8.4" fill="none" stroke="#000000" stroke-miterlimit="10" width="64" height="64"/>
<rect x="-411.9" y="8.4" fill="none" stroke="#000000" stroke-miterlimit="10" width="64" height="64"/>
<rect x="-411.9" y="8.4" fill="none" stroke="#000000" stroke-miterlimit="10" width="64" height="64"/>
<rect x="-411.9" y="8.4" fill="none" stroke="#000000" stroke-miterlimit="10" width="64" height="64"/>
<rect x="-411.9" y="8.4" fill="none" stroke="#000000" stroke-miterlimit="10" width="64" height="64"/>
<rect x="-411.9" y="8.4" fill="none" stroke="#000000" stroke-miterlimit="10" width="64" height="64"/>
<rect x="-411.9" y="8.4" fill="none" stroke="#000000" stroke-miterlimit="10" width="64" height="64"/>
<rect x="-411.9" y="8.4" fill="none" stroke="#000000" stroke-miterlimit="10" width="64" height="64"/>
<rect x="-411.9" y="8.4" fill="none" stroke="#000000" stroke-miterlimit="10" width="64" height="64"/>
<rect x="-411.9" y="8.4" fill="none" stroke="#000000" stroke-miterlimit="10" width="64" height="64"/>
<rect x="-411.9" y="8.4" fill="none" stroke="#000000" stroke-miterlimit="10" width="64" height="64"/>
<rect x="-411.9" y="8.4" fill="none" stroke="#000000" stroke-miterlimit="10" width="64" height="64"/>
<rect x="-411.9" y="8.4" fill="none" stroke="#000000" stroke-miterlimit="10" width="64" height="64"/>
<rect x="-411.9" y="8.4" fill="none" stroke="#000000" stroke-miterlimit="10" width="64" height="64"/>
<rect x="-411.9" y="8.4" fill="none" stroke="#000000" stroke-miterlimit="10" width="64" height="64"/>
<rect x="-411.9" y="8.4" fill="none" stroke="#000000" stroke-miterlimit="10" width="64" height="64"/>
<rect x="-411.9" y="8.4" fill="none" stroke="#000000" stroke-miterlimit="10" width="64" height="64"/>
<rect x="-411.9" y="8.4" fill="none" stroke="#000000" stroke-miterlimit="10" width="64" height="64"/>
<rect x="-411.9" y="8.4" fill="none" stroke="#000000" stroke-miterlimit="10" width="64" height="64"/>
<rect x="-411.9" y="8.4" fill="none" stroke="#000000" stroke-miterlimit="10" width="64" height="64"/>
<rect x="-411.9" y="8.4" fill="none" stroke="#000000" stroke-miterlimit="10" width="64" height="64"/>
<rect x="-411.9" y="8.4" fill="none" stroke="#000000" stroke-miterlimit="10" width="64" height="64"/>
<rect x="-411.9" y="8.4" fill="none" stroke="#000000" stroke-miterlimit="10" width="64" height="64"/>
<rect x="-411.9" y="8.4" fill="none" stroke="#000000" stroke-miterlimit="10" width="64" height="64"/>
<rect x="-411.9" y="8.4" fill="none" stroke="#000000" stroke-miterlimit="10" width="64" height="64"/>
<rect x="-411.9" y="8.4" fill="none" stroke="#000000" stroke-miterlimit="10" width="64" height="64"/>
<rect x="-411.9" y="8.4" fill="none" stroke="#000000" stroke-miterlimit="10" width="64" height="64"/>
<rect x="-411.9" y="8.4" fill="none" stroke="#000000" stroke-miterlimit="10" width="64" height="64"/>
<rect x="-411.9" y="8.4" fill="none" stroke="#000000" stroke-miterlimit="10" width="64" height="64"/>
<rect x="-411.9" y="8.4" fill="none" stroke="#000000" stroke-miterlimit="10" width="64" height="64"/>
<rect x="-411.9" y="8.4" fill="none" stroke="#000000" stroke-miterlimit="10" width="64" height="64"/>
<rect x="-411.9" y="8.4" fill="none" stroke="#000000" stroke-miterlimit="10" width="64" height="64"/>
<rect x="-411.9" y="8.4" fill="none" stroke="#000000" stroke-miterlimit="10" width="64" height="64"/>
<rect x="-411.9" y="8.4" fill="none" stroke="#000000" stroke-miterlimit="10" width="64" height="64"/>
<rect x="-411.9" y="8.4" fill="none" stroke="#000000" stroke-miterlimit="10" width="64" height="64"/>
<rect x="-411.9" y="8.4" fill="none" stroke="#000000" stroke-miterlimit="10" width="64" height="64"/>
<rect x="-411.9" y="8.4" fill="none" stroke="#000000" stroke-miterlimit="10" width="64" height="64"/>
<rect x="-411.9" y="8.4" fill="none" stroke="#000000" stroke-miterlimit="10" width="64" height="64"/>
<rect x="-411.9" y="8.4" fill="none" stroke="#000000" stroke-miterlimit="10" width="64" height="64"/>
<rect x="-411.9" y="8.4" fill="none" stroke="#000000" stroke-miterlimit="10" width="64" height="64"/>
<rect x="-411.9" y="8.4" fill="none" stroke="#000000" stroke-miterlimit="10" width="64" height="64"/>
<rect x="-411.9" y="8.4" fill="none" stroke="#000000" stroke-miterlimit="10" width="64" height="64"/>
<rect x="-411.9" y="8.4" fill="none" stroke="#000000" stroke-miterlimit="10" width="64" height="64"/>
<rect x="-411.9" y="8.4" fill="none" stroke="#000000" stroke-miterlimit="10" width="64" height="64"/>
<rect x="-411.9" y="8.4" fill="none" stroke="#000000" stroke-miterlimit="10" width="64" height="64"/>
<rect x="-411.9" y="8.4" fill="none" stroke="#000000" stroke-miterlimit="10" width="64" height="64"/>
<rect x="-411.9" y="8.4" fill="none" stroke="#000000" stroke-miterlimit="10" width="64" height="64"/>
<rect x="-411.9" y="8.4" fill="none" stroke="#000000" stroke-miterlimit="10" width="64" height="64"/>
<rect x="-411.9" y="8.4" fill="none" stroke="#000000" stroke-miterlimit="10" width="64" height="64"/>
<rect x="-411.9" y="8.4" fill="none" stroke="#000000" stroke-miterlimit="10" width="64" height="64"/>
<rect x="-411.9" y="8.4" fill="none" stroke="#000000" stroke-miterlimit="10" width="64" height="64"/>
<rect x="-411.9" y="8.4" fill="none" stroke="#000000" stroke-miterlimit="10" width="64" height="64"/>
<rect x="-411.9" y="8.4" fill="none" stroke="#000000" stroke-miterlimit="10" width="64" height="64"/>
<rect x="-411.9" y="8.4" fill="none" stroke="#000000" stroke-miterlimit="10" width="64" height="64"/>
<rect x="-411.9" y="8.4" fill="none" stroke="#000000" stroke-miterlimit="10" width="64" height="64"/>
<rect x="-411.9" y="8.4" fill="none" stroke="#000000" stroke-miterlimit="10" width="64" height="64"/>
<rect x="-411.9" y="8.4" fill="none" stroke="#000000" stroke-miterlimit="10" width="64" height="64"/>
<rect x="-411.9" y="8.4" fill="none" stroke="#000000" stroke-miterlimit="10" width="64" height="64"/>
<rect x="-411.9" y="8.4" fill="none" stroke="#000000" stroke-miterlimit="10" width="64" height="64"/>
<rect x="-411.9" y="8.4" fill="none" stroke="#000000" stroke-miterlimit="10" width="64" height="64"/>
<rect x="-411.9" y="8.4" fill="none" stroke="#000000" stroke-miterlimit="10" width="64" height="64"/>
<rect x="-411.9" y="8.4" fill="none" stroke="#000000" stroke-miterlimit="10" width="64" height="64"/>
<rect x="-411.9" y="8.4" fill="none" stroke="#000000" stroke-miterlimit="10" width="64" height="64"/>
<rect x="-411.9" y="8.4" fill="none" stroke="#000000" stroke-miterlimit="10" width="64" height="64"/>
<rect x="-411.9" y="8.4" fill="none" stroke="#000000" stroke-miterlimit="10" width="64" height="64"/>
<rect x="-411.9" y="8.4" fill="none" stroke="#000000" stroke-miterlimit="10" width="64" height="64"/>
<rect x="-411.9" y="8.4" fill="none" stroke="#000000" stroke-miterlimit="10" width="64" height="64"/>
<rect x="-411.9" y="8.4" fill="none" stroke="#000000" stroke-miterlimit="10" width="64" height="64"/>
<rect x="-411.9" y="8.4" fill="none" stroke="#000000" stroke-miterlimit="10" width="64" height="64"/>
<rect x="-411.9" y="8.4" fill="none" stroke="#000000" stroke-miterlimit="10" width="64" height="64"/>
<rect x="-411.9" y="8.4" fill="none" stroke="#000000" stroke-miterlimit="10" width="64" height="64"/>
<rect x="-411.9" y="8.4" fill="none" stroke="#000000" stroke-miterlimit="10" width="64" height="64"/>
<rect x="-411.9" y="8.4" fill="none" stroke="#000000" stroke-miterlimit="10" width="64" height="64"/>
<rect x="-411.9" y="8.4" fill="none" stroke="#000000" stroke-miterlimit="10" width="64" height="64"/>
<rect x="-411.9" y="8.4" fill="none" stroke="#000000" stroke-miterlimit="10" width="64" height="64"/>
<rect x="-411.9" y="8.4" fill="none" stroke="#000000" stroke-miterlimit="10" width="64" height="64"/>
<rect x="-411.9" y="8.4" fill="none" stroke="#000000" stroke-miterlimit="10" width="64" height="64"/>
<rect x="-411.9" y="8.4" fill="none" stroke="#000000" stroke-miterlimit="10" width="64" height="64"/>
<rect x="-411.9" y="8.4" fill="none" stroke="#000000" stroke-miterlimit="10" width="64" height="64"/>
<rect x="-411.9" y="8.4" fill="none" stroke="#000000" stroke-miterlimit="10" width="64" height="64"/>
<rect x="-411.9" y="8.4" fill="none" stroke="#000000" stroke-miterlimit="10" width="64" height="64"/>
<rect x="-411.9" y="8.4" fill="none" stroke="#000000" stroke-miterlimit="10" width="64" height="64"/>
<rect x="-411.9" y="8.4" fill="none" stroke="#000000" stroke-miterlimit="10" width="64" height="64"/>
<rect x="-411.9" y="8.4" fill="none" stroke="#000000" stroke-miterlimit="10" width="64" height="64"/>
<rect x="-411.9" y="8.4" fill="none" stroke="#000000" stroke-miterlimit="10" width="64" height="64"/>
<rect x="-411.9" y="8.4" fill="none" stroke="#000000" stroke-miterlimit="10" width="64" height="64"/>
<rect x="-411.9" y="8.4" fill="none" stroke="#000000" stroke-miterlimit="10" width="64" height="64"/>
<rect x="-411.9" y="8.4" fill="none" stroke="#000000" stroke-miterlimit="10" width="64" height="64"/>
<rect x="-411.9" y="8.4" fill="none" stroke="#000000" stroke-miterlimit="10" width="64" height="64"/>
<rect x="-411.9" y="8.4" fill="none" stroke="#000000" stroke-miterlimit="10" width="64" height="64"/>
<rect x="-411.9" y="8.4" fill="none" stroke="#000000" stroke-miterlimit="10" width="64" height="64"/>
<rect x="-411.9" y="8.4" fill="none" stroke="#000000" stroke-miterlimit="10" width="64" height="64"/>
<rect x="-411.9" y="8.4" fill="none" stroke="#000000" stroke-miterlimit="10" width="64" height="64"/>
<rect x="-411.9" y="8.4" fill="none" stroke="#000000" stroke-miterlimit="10" width="64" height="64"/>
<rect x="-411.9" y="8.4" fill="none" stroke="#000000" stroke-miterlimit="10" width="64" height="64"/>
<rect x="-411.9" y="8.4" fill="none" stroke="#000000" stroke-miterlimit="10" width="64" height="64"/>
<rect x="-411.9" y="8.4" fill="none" stroke="#000000" stroke-miterlimit="10" width="64" height="64"/>
<rect x="-411.9" y="8.4" fill="none" stroke="#000000" stroke-miterlimit="10" width="64" height="64"/>
<rect x="-411.9" y="8.4" fill="none" stroke="#000000" stroke-miterlimit="10" width="64" height="64"/>
<rect x="-411.9" y="8.4" fill="none" stroke="#000000" stroke-miterlimit="10" width="64" height="64"/>
<rect x="-411.9" y="8.4" fill="none" stroke="#000000" stroke-miterlimit="10" width="64" height="64"/>
<rect x="-411.9" y="8.4" fill="none" stroke="#000000" stroke-miterlimit="10" width="64" height="64"/>
<rect x="-411.9" y="8.4" fill="none" stroke="#000000" stroke-miterlimit="10" width="64" height="64"/>
<rect x="-411.9" y="8.4" fill="none" stroke="#000000" stroke-miterlimit="10" width="64" height="64"/>
<rect x="-411.9" y="8.4" fill="none" stroke="#000000" stroke-miterlimit="10" width="64" height="64"/>
<rect x="-411.9" y="8.4" fill="none" stroke="#000000" stroke-miterlimit="10" width="64" height="64"/>
<rect x="-411.9" y="8.4" fill="none" stroke="#000000" stroke-miterlimit="10" width="64" height="64"/>
<rect x="-411.9" y="8.4" fill="none" stroke="#000000" stroke-miterlimit="10" width="64" height="64"/>
<rect x="-411.9" y="8.4" fill="none" stroke="#000000" stroke-miterlimit="10" width="64" height="64"/>
<rect x="-411.9" y="8.4" fill="none" stroke="#000000" stroke-miterlimit="10" width="64" height="64"/>
<rect x="-411.9" y="8.4" fill="none" stroke="#000000" stroke-miterlimit="10" width="64" height="64"/>
<rect x="-411.9" y="8.4" fill="none" stroke="#000000" stroke-miterlimit="10" width="64" height="64"/>
<rect x="-411.9" y="8.4" fill="none" stroke="#000000" stroke-miterlimit="10" width="64" height="64"/>
<rect x="-411.9" y="8.4" fill="none" stroke="#000000" stroke-miterlimit="10" width="64" height="64"/>
<rect x="-411.9" y="8.4" fill="none" stroke="#000000" stroke-miterlimit="10" width="64" height="64"/>
<rect x="-411.9" y="8.4" fill="none" stroke="#000000" stroke-miterlimit="10" width="64" height="64"/>
<rect x="-411.9" y="8.4" fill="none" stroke="#000000" stroke-miterlimit="10" width="64" height="64"/>
<rect x="-411.9" y="8.4" fill="none" stroke="#000000" stroke-miterlimit="10" width="64" height="64"/>
<rect x="-411.9" y="8.4" fill="none" stroke="#000000" stroke-miterlimit="10" width="64" height="64"/>
<rect x="-411.9" y="8.4" fill="none" stroke="#000000" stroke-miterlimit="10" width="64" height="64"/>
<rect x="-411.9" y="8.4" fill="none" stroke="#000000" stroke-miterlimit="10" width="64" height="64"/>
<rect x="-411.9" y="8.4" fill="none" stroke="#000000" stroke-miterlimit="10" width="64" height="64"/>
<rect x="-411.9" y="8.4" fill="none" stroke="#000000" stroke-miterlimit="10" width="64" height="64"/>
<rect x="-411.9" y="8.4" fill="none" stroke="#000000" stroke-miterlimit="10" width="64" height="64"/>
<rect x="-411.9" y="8.4" fill="none" stroke="#000000" stroke-miterlimit="10" width="64" height="64"/>
<rect x="-411.9" y="8.4" fill="none" stroke="#000000" stroke-miterlimit="10" width="64" height="64"/>
<rect x="-411.9" y="8.4" fill="none" stroke="#000000" stroke-miterlimit="10" width="64" height="64"/>
<rect x="-411.9" y="8.4" fill="none" stroke="#000000" stroke-miterlimit="10" width="64" height="64"/>
<rect x="-411.9" y="8.4" fill="none" stroke="#000000" stroke-miterlimit="10" width="64" height="64"/>
<rect x="-411.9" y="8.4" fill="none" stroke="#000000" stroke-miterlimit="10" width="64" height="64"/>
<rect x="-411.9" y="8.4" fill="none" stroke="#000000" stroke-miterlimit="10" width="64" height="64"/>
<rect x="-411.9" y="8.4" fill="none" stroke="#000000" stroke-miterlimit="10" width="64" height="64"/>
<rect x="-411.9" y="8.4" fill="none" stroke="#000000" stroke-miterlimit="10" width="64" height="64"/>
<rect x="-411.9" y="8.4" fill="none" stroke="#000000" stroke-miterlimit="10" width="64" height="64"/>
<rect x="-411.9" y="8.4" fill="none" stroke="#000000" stroke-miterlimit="10" width="64" height="64"/>
<rect x="-411.9" y="8.4" fill="none" stroke="#000000" stroke-miterlimit="10" width="64" height="64"/>
<rect x="-411.9" y="8.4" fill="none" stroke="#000000" stroke-miterlimit="10" width="64" height="64"/>
<polygon points="42,32 22,47 22,17 "/>
<polygon points="-6.5,294.4 13.5,279.4 13.5,309.4 "/>
<g>
	<rect x="163.5" y="275.9" width="30" height="3"/>
	<rect x="190.5" y="275.9" width="3" height="12"/>
	<rect x="163.5" y="310.9" width="30" height="3"/>
	<rect x="190.5" y="301.9" width="3" height="12"/>
	<polygon points="177.4,294.9 173.5,294.9 163.5,278.9 167.4,278.9 	"/>
	<polygon points="177.4,294.9 173.5,294.9 163.5,310.9 167.4,310.9 	"/>
</g>
<path fill="#040000" d="M353.6,315.4c-2.4,0-4.8-0.4-7-1.3l-1.1-0.4l1.6-4.7l2.4,0.8l-0.8,2.3c1.7,0.5,3.3,0.7,5,0.7
	c0.2,0,0.3,0,0.5,0l0.3-3.9l6.5-1.3l1.5,3c1.7-0.9,3.1-2.1,4.4-3.4l-2.5-2.9l3.7-5.5l3,1c0.5-1.6,0.7-3.3,0.7-5c0-0.2,0-0.3,0-0.5
	L368,294l-1.3-6.5l2.8-1.4c-0.9-1.6-2-3.1-3.4-4.4l-2.8,2.4l-5.5-3.7l1-3c-1.8-0.5-3.7-0.8-5.5-0.8l-0.2,3.7l-6.5,1.3l-1.4-2.9
	c-1.6,0.9-3.2,2-4.5,3.4l2.5,2.9l-3.7,5.5l-3.2-1.1c-0.5,1.7-0.8,3.5-0.8,5.2c0,0.1,0,0.2,0,0.3l3.9,0.3l1.3,6.5l-4.2,2.1l-1.1-2.2
	l2.5-1.2l-0.6-2.8l-4.2-0.3l-0.1-1.1c0-0.5-0.1-1.1-0.1-1.6c0-2.5,0.4-4.9,1.3-7.2l0.4-1.1l3.7,1.2l1.6-2.3l-2.7-3.1l0.7-0.8
	c1.9-2.3,4.4-4.1,7.1-5.3l1.1-0.5l1.7,3.4l2.8-0.6l0.3-4l1.1-0.1c2.9-0.2,5.9,0.2,8.8,1.2l1.1,0.4l-1.2,3.5l2.3,1.6l3-2.6l0.8,0.7
	c2.3,1.9,4.1,4.4,5.4,7.1l0.5,1.1l-3.3,1.6l0.6,2.8l4,0.3l0.1,1.1c0,0.5,0.1,1.1,0.1,1.8c0,2.4-0.4,4.7-1.2,7l-0.4,1.1l-3.6-1.2
	l-1.6,2.3l2.7,3.1l-0.7,0.8c-1.9,2.3-4.3,4.1-7.1,5.4l-1.1,0.5l-1.7-3.5l-2.8,0.6l-0.3,4.2l-1.1,0.1
	C354.8,315.3,354.2,315.4,353.6,315.4z"/>
<g>
	<g>
		<polygon fill="#040000" points="5.3,427.4 10.6,434.6 0.1,434.6 		"/>
		<polygon fill="#040000" points="5.3,463.4 0.1,456.2 10.6,456.2 		"/>
		<rect x="4.2" y="431" fill="#040000" width="2.2" height="28.5"/>
		<polygon fill="#040000" points="23.3,445.4 16.2,450.7 16.2,440.1 		"/>
		<polygon fill="#040000" points="-12.6,445.4 -5.5,440.1 -5.5,450.7 		"/>
		<rect x="-8.8" y="444.3" fill="#040000" width="28.5" height="2.2"/>
	</g>
	<circle fill="none" stroke="#050000" stroke-width="3" stroke-miterlimit="10" cx="5.3" cy="445.4" r="22"/>
</g>
<g>
	<g>
		<path fill="none" stroke="#050000" stroke-width="3" stroke-miterlimit="10" d="M203.1,445.4c0-7.2-10.7-13.1-23.8-13.1
			c-13.1,0-23.8,5.9-23.8,13.1c0,7.2,10.7,13.1,23.8,13.1C192.4,458.4,203.1,452.6,203.1,445.4z"/>
		<path fill="none" stroke="#050000" stroke-width="3.7133" stroke-miterlimit="10" d="M179.3,455.4c-5.5,0-10-4.5-10-10
			s4.5-10,10-10c5.5,0,10,4.5,10,10S184.8,455.4,179.3,455.4z"/>
	</g>
	<circle fill="#050000" cx="179.3" cy="445.4" r="3"/>
</g>
<g>
	<path fill="#040000" stroke="#000000" stroke-miterlimit="10" d="M354.5,449c-1.5,0-3-0.3-4.4-0.8l-0.7-0.3l1-2.9l1.5,0.5l-0.5,1.4
		c1,0.3,2.1,0.5,3.1,0.5c0.1,0,0.2,0,0.3,0l0.2-2.5l4.1-0.8l0.9,1.8c1-0.6,2-1.3,2.8-2.1l-1.6-1.8l2.3-3.4l1.9,0.6
		c0.3-1,0.4-2.1,0.4-3.1c0-0.1,0-0.2,0-0.3l-2.3-0.2l-0.8-4.1l1.8-0.9c-0.6-1-1.3-2-2.1-2.8l-1.7,1.5l-3.4-2.3l0.6-1.9
		c-1.1-0.3-2.3-0.5-3.4-0.5l-0.2,2.3l-4.1,0.8l-0.9-1.8c-1,0.6-2,1.3-2.8,2.1l1.6,1.8l-2.3,3.4l-2-0.7c-0.3,1.1-0.5,2.2-0.5,3.3
		c0,0.1,0,0.1,0,0.2l2.5,0.2l0.8,4.1l-2.6,1.3l-0.7-1.4l1.5-0.8l-0.3-1.7l-2.6-0.2l-0.1-0.7c0-0.3,0-0.7,0-1c0-1.5,0.3-3.1,0.8-4.5
		l0.3-0.7l2.3,0.8l1-1.5l-1.7-1.9l0.4-0.5c1.2-1.4,2.8-2.6,4.5-3.3l0.7-0.3l1.1,2.1l1.7-0.3l0.2-2.5l0.7-0.1
		c1.8-0.1,3.7,0.1,5.5,0.8l0.7,0.3l-0.7,2.2l1.5,1l1.9-1.6l0.5,0.4c1.4,1.2,2.6,2.7,3.4,4.4l0.3,0.7l-2.1,1l0.3,1.7l2.5,0.2l0.1,0.7
		c0,0.3,0.1,0.7,0.1,1.1c0,1.5-0.3,2.9-0.8,4.4l-0.3,0.7l-2.2-0.7l-1,1.5l1.7,1.9l-0.4,0.5c-1.2,1.4-2.7,2.6-4.4,3.4l-0.7,0.3
		l-1.1-2.2l-1.7,0.3l-0.2,2.6l-0.7,0.1C355.2,448.9,354.8,449,354.5,449z"/>
	<path fill="#040000" d="M328.7,461.3l-1.7-1.9l11.2-10.2h6.9l3.8,3h8.8l0.2,0.1c0.2,0.1,1.8,0.6,2.6,2.3c0.5,1.2,0.4,2.5-0.2,3.9
		l-2.3-1c0.4-0.8,0.4-1.4,0.2-1.9c-0.2-0.5-0.7-0.7-0.9-0.9h-9.2l-3.8-3h-5.1L328.7,461.3z"/>
	<path fill="#040000" d="M360.4,468.1h-18.7v-2.5h17.8l14-12.8c0.3-1.3-0.2-1.8-0.2-1.8c-0.7-0.5-2-0.2-2.5,0l-12.1,9.2h-11v-2.5
		h10.2l11.8-9c0.3-0.1,3-1.2,5,0.1c0.8,0.5,2,2.2,1.1,4.9l-0.1,0.3L360.4,468.1z"/>
</g>
<g>
	<g>
		<path fill="#040000" d="M-175.3,618.5c-1.7,0-3.5-0.3-5.1-0.9l-1.1-0.4l1.2-3.6l2.2,0.7l-0.5,1.4c1.1,0.3,2.2,0.4,3.3,0.4l0.2-2.8
			l5.1-1l1,2c1-0.6,1.9-1.3,2.6-2.1l-1.8-2l2.9-4.3l2.1,0.7c0.3-1.1,0.4-2.1,0.4-3.2c0,0,0-0.1,0-0.1l-2.6-0.2l-1-5.1l1.9-1
			c-0.6-1-1.2-1.8-2-2.6l-1.9,1.7l-4.3-2.9l0.7-2.1c-1.1-0.3-2.2-0.5-3.3-0.5l-0.2,2.6l-5.1,1l-1-2c-1,0.5-1.9,1.2-2.7,2l1.8,2
			l-2.9,4.3l-2.2-0.7c-0.3,1.1-0.5,2.2-0.5,3.3l2.8,0.2l1,5.1l-3.2,1.6l-1.1-2.1l1.6-0.8l-0.3-1.5l-3-0.2l-0.1-1
			c0-0.4-0.1-0.8-0.1-1.2c0-1.8,0.3-3.6,1-5.3l0.4-1.1l2.7,0.9l0.9-1.3l-2-2.2l0.7-0.8c1.4-1.7,3.2-3,5.2-3.9l1-0.5l1.2,2.5l1.5-0.3
			l0.2-2.9l1-0.1c2.1-0.2,4.3,0.1,6.4,0.9l1.1,0.4l-0.9,2.6l1.3,0.9l2.2-1.9l0.8,0.7c1.7,1.4,3,3.2,3.9,5.1l0.5,1l-2.4,1.2l0.3,1.5
			l2.9,0.2l0.1,1c0,0.4,0.1,0.9,0.1,1.3c0,1.7-0.3,3.4-0.9,5.1l-0.4,1.1l-2.6-0.9l-0.9,1.3l1.9,2.2l-0.6,0.8c-1.4,1.7-3.1,3-5.1,4
			l-1,0.5l-1.3-2.5l-1.5,0.3l-0.2,3l-1,0.1C-174.4,618.5-174.9,618.5-175.3,618.5z"/>
		<path fill="#040000" d="M-175.3,610.6c-3.9,0-7.1-3.2-7.1-7.1c0-3.9,3.2-7.1,7.1-7.1c3.9,0,7.1,3.2,7.1,7.1
			C-168.3,607.4-171.4,610.6-175.3,610.6z M-175.3,598.8c-2.6,0-4.7,2.1-4.7,4.7c0,2.6,2.1,4.7,4.7,4.7c2.6,0,4.7-2.1,4.7-4.7
			C-170.6,600.9-172.7,598.8-175.3,598.8z"/>
	</g>
	<path fill="none" stroke="#040000" stroke-width="3" stroke-miterlimit="10" d="M-169.6,586.5c0-6.2,5.1-11.3,11.3-11.3
		c6.2,0,11.3,5.1,11.3,11.3c0,6.2-5.1,11.3-11.3,11.3"/>
	<circle fill="#040000" cx="-158.3" cy="586.5" r="3"/>
	<line fill="none" stroke="#040000" stroke-width="2" stroke-miterlimit="10" x1="-157.3" y1="585.5" x2="-151.8" y2="580"/>
</g>
<g>
	<g>
		<path fill="none" stroke="#050000" stroke-width="3" stroke-miterlimit="10" d="M-156.1,445.7c0-3.6-5.3-6.5-11.8-6.5
			c-6.5,0-11.8,2.9-11.8,6.5s5.3,6.5,11.8,6.5C-161.4,452.2-156.1,449.2-156.1,445.7z"/>
		<path fill="none" stroke="#050000" stroke-width="3" stroke-miterlimit="10" d="M-167.9,450.6c-2.7,0-5-2.2-5-5c0-2.7,2.2-5,5-5
			c2.7,0,5,2.2,5,5C-162.9,448.4-165.1,450.6-167.9,450.6z"/>
	</g>
	<polygon fill="#040000" points="-148.1,460.7 -189.6,460.7 -189.6,430.7 -146.9,430.7 -146.9,453.3 -149.4,453.3 -149.4,433.2 
		-187.1,433.2 -187.1,458.2 -148.1,458.2 	"/>
	<rect x="-178.3" y="463.6" fill="#040000" width="20.6" height="2.5"/>
	<rect x="-176.4" y="460.9" transform="matrix(0.4 -0.9165 0.9165 0.4 -527.6312 118.296)" fill="#040000" width="6" height="2.5"/>
	
		<rect x="-163.8" y="459.2" transform="matrix(0.9165 -0.4001 0.4001 0.9165 -198.4898 -26.4355)" fill="#040000" width="2.5" height="6"/>
</g>
<g>
	<path fill="#040000" d="M4.2,602.5c-7.4,0-13.3-6-13.3-13.3s6-13.3,13.3-13.3c7.4,0,13.3,6,13.3,13.3S11.6,602.5,4.2,602.5z
		 M4.2,578.3c-6,0-10.8,4.9-10.8,10.8c0,6,4.9,10.8,10.8,10.8c6,0,10.8-4.9,10.8-10.8C15.1,583.2,10.2,578.3,4.2,578.3z"/>
	<path fill="#040000" d="M4.2,597.9c-4.8,0-8.8-3.9-8.8-8.8c0-4.8,3.9-8.8,8.8-8.8c1.8,0,3.6,0.6,5.1,1.6l-1.2,1.6
		c-1.2-0.8-2.5-1.3-3.9-1.3c-3.7,0-6.8,3-6.8,6.8c0,3.7,3,6.8,6.8,6.8c3.7,0,6.8-3,6.8-6.8c0-0.9-0.2-1.7-0.5-2.5l1.9-0.7
		c0.4,1,0.6,2.1,0.6,3.2C13,594,9.1,597.9,4.2,597.9z"/>
	<polygon fill="#040000" points="11.5,617.9 4.4,613.8 -3.1,617.9 -3.1,603.1 -1.1,603.1 -1.1,614.5 4.5,611.5 9.5,614.4 9.5,603.1 
		11.5,603.1 	"/>
	<rect x="3.5" y="603.7" fill="#040000" width="1.5" height="5.2"/>
</g>
<g>
	<polygon fill="#040000" points="191.7,619.2 164.3,619.2 164.3,616.3 188.9,616.3 188.9,577.4 157.5,577.4 157.5,617.7 
		154.7,617.7 154.7,574.5 191.7,574.5 	"/>
	<rect x="165.8" y="584.1" fill="#040000" width="15.9" height="2.9"/>
	<rect x="165.8" y="591.2" fill="#040000" width="15.9" height="2.9"/>
	<rect x="165.8" y="598.4" fill="#040000" width="15.9" height="2.9"/>
	<rect x="165.8" y="605.7" fill="#040000" width="15.9" height="2.9"/>
	<path fill="#040000" d="M204,618.7h-9.1v-30.5h9.1V618.7z M197.8,615.9h3.3v-24.8h-3.3V615.9z"/>
	<path fill="#040000" d="M202.7,590.8h-6v-7.3h6V590.8z M198.9,588.5h1.4v-2.7h-1.4V588.5z"/>
	<rect x="198.3" y="579.5" fill="#040000" width="2.3" height="4"/>
</g>
<g>
	<path fill="#040000" d="M357.2,612.2h-10.7l-0.1-1.1c0,0-0.5-4.3-3-7.3c-3-2.6-4.7-6.4-4.7-10.3c0-7.6,6.2-13.8,13.8-13.8
		c7.6,0,13.8,6.2,13.8,13.8c0,4.1-1.8,8-5,10.6c-0.5,0.7-1,1.5-1.5,2.5l-2.3-1c0.5-1.2,1.2-2.2,1.9-3.1l0.2-0.2
		c2.7-2.2,4.2-5.3,4.2-8.8c0-6.2-5-11.3-11.3-11.3c-6.2,0-11.3,5-11.3,11.3c0,3.3,1.4,6.4,3.9,8.5l0.1,0.1c2.2,2.6,3.1,5.9,3.4,7.5
		h8.5V612.2z"/>
	<rect x="332.1" y="591.6" fill="#040000" width="3.1" height="2.5"/>
	<rect x="351.5" y="573.7" fill="#040000" width="2.5" height="3.1"/>
	
		<rect x="338.3" y="578.9" transform="matrix(0.7071 -0.7071 0.7071 0.7071 -310.9768 410.0771)" fill="#040000" width="2.5" height="3.1"/>
	<rect x="369.9" y="591.6" fill="#040000" width="3.1" height="2.5"/>
	
		<rect x="364" y="579.2" transform="matrix(0.7073 -0.7069 0.7069 0.7073 -303.3115 428.3201)" fill="#040000" width="3.1" height="2.5"/>
	<rect x="346.7" y="613.7" fill="#040000" width="11.3" height="2.5"/>
	<rect x="349" y="617.5" fill="#040000" width="6.5" height="2.5"/>
</g>
</svg>
