<?xml version="1.0" encoding="utf-8"?>
<!-- Generator: Adobe Illustrator 22.0.1, SVG Export Plug-In . SVG Version: 6.00 Build 0)  -->
<svg version="1.2" baseProfile="tiny" id="레이어_1"
	 xmlns="http://www.w3.org/2000/svg" xmlns:xlink="http://www.w3.org/1999/xlink" x="0px" y="0px" viewBox="0 0 64 64"
	 xml:space="preserve">
<rect x="-301.6" y="-104.6" fill="none" stroke="#000000" stroke-miterlimit="10" width="64" height="64"/>
<rect x="-301.6" y="-104.6" fill="none" stroke="#000000" stroke-miterlimit="10" width="64" height="64"/>
<rect x="-301.6" y="-104.6" fill="none" stroke="#000000" stroke-miterlimit="10" width="64" height="64"/>
<rect x="-301.6" y="-104.6" fill="none" stroke="#000000" stroke-miterlimit="10" width="64" height="64"/>
<rect x="-301.6" y="-104.6" fill="none" stroke="#000000" stroke-miterlimit="10" width="64" height="64"/>
<rect x="-301.6" y="-104.6" fill="none" stroke="#000000" stroke-miterlimit="10" width="64" height="64"/>
<rect x="-301.6" y="-104.6" fill="none" stroke="#000000" stroke-miterlimit="10" width="64" height="64"/>
<rect x="-301.6" y="-104.6" fill="none" stroke="#000000" stroke-miterlimit="10" width="64" height="64"/>
<rect x="-301.6" y="-104.6" fill="none" stroke="#000000" stroke-miterlimit="10" width="64" height="64"/>
<rect x="-301.6" y="-104.6" fill="none" stroke="#000000" stroke-miterlimit="10" width="64" height="64"/>
<rect x="-301.6" y="-104.6" fill="none" stroke="#000000" stroke-miterlimit="10" width="64" height="64"/>
<rect x="-301.6" y="-104.6" fill="none" stroke="#000000" stroke-miterlimit="10" width="64" height="64"/>
<rect x="-301.6" y="-104.6" fill="none" stroke="#000000" stroke-miterlimit="10" width="64" height="64"/>
<rect x="-301.6" y="-104.6" fill="none" stroke="#000000" stroke-miterlimit="10" width="64" height="64"/>
<rect x="-301.6" y="-104.6" fill="none" stroke="#000000" stroke-miterlimit="10" width="64" height="64"/>
<rect x="-301.6" y="-104.6" fill="none" stroke="#000000" stroke-miterlimit="10" width="64" height="64"/>
<rect x="-301.6" y="-104.6" fill="none" stroke="#000000" stroke-miterlimit="10" width="64" height="64"/>
<rect x="-301.6" y="-104.6" fill="none" stroke="#000000" stroke-miterlimit="10" width="64" height="64"/>
<rect x="-301.6" y="-104.6" fill="none" stroke="#000000" stroke-miterlimit="10" width="64" height="64"/>
<rect x="-301.6" y="-104.6" fill="none" stroke="#000000" stroke-miterlimit="10" width="64" height="64"/>
<rect x="-301.6" y="-104.6" fill="none" stroke="#000000" stroke-miterlimit="10" width="64" height="64"/>
<rect x="-301.6" y="-104.6" fill="none" stroke="#000000" stroke-miterlimit="10" width="64" height="64"/>
<rect x="-301.6" y="-104.6" fill="none" stroke="#000000" stroke-miterlimit="10" width="64" height="64"/>
<rect x="-301.6" y="-104.6" fill="none" stroke="#000000" stroke-miterlimit="10" width="64" height="64"/>
<rect x="-301.6" y="-104.6" fill="none" stroke="#000000" stroke-miterlimit="10" width="64" height="64"/>
<rect x="-301.6" y="-104.6" fill="none" stroke="#000000" stroke-miterlimit="10" width="64" height="64"/>
<rect x="-301.6" y="-104.6" fill="none" stroke="#000000" stroke-miterlimit="10" width="64" height="64"/>
<rect x="-301.6" y="-104.6" fill="none" stroke="#000000" stroke-miterlimit="10" width="64" height="64"/>
<rect x="-301.6" y="-104.6" fill="none" stroke="#000000" stroke-miterlimit="10" width="64" height="64"/>
<rect x="-301.6" y="-104.6" fill="none" stroke="#000000" stroke-miterlimit="10" width="64" height="64"/>
<rect x="-301.6" y="-104.6" fill="none" stroke="#000000" stroke-miterlimit="10" width="64" height="64"/>
<rect x="-301.6" y="-104.6" fill="none" stroke="#000000" stroke-miterlimit="10" width="64" height="64"/>
<rect x="-301.6" y="-104.6" fill="none" stroke="#000000" stroke-miterlimit="10" width="64" height="64"/>
<rect x="-301.6" y="-104.6" fill="none" stroke="#000000" stroke-miterlimit="10" width="64" height="64"/>
<rect x="-301.6" y="-104.6" fill="none" stroke="#000000" stroke-miterlimit="10" width="64" height="64"/>
<rect x="-301.6" y="-104.6" fill="none" stroke="#000000" stroke-miterlimit="10" width="64" height="64"/>
<rect x="-301.6" y="-104.6" fill="none" stroke="#000000" stroke-miterlimit="10" width="64" height="64"/>
<rect x="-301.6" y="-104.6" fill="none" stroke="#000000" stroke-miterlimit="10" width="64" height="64"/>
<rect x="-301.6" y="-104.6" fill="none" stroke="#000000" stroke-miterlimit="10" width="64" height="64"/>
<g>
	<path fill="none" stroke="#040000" stroke-width="3.1133" stroke-miterlimit="10" d="M-974.7,118.3c0,3.9-9,7-20,7s-20-3.1-20-7
		V85.8"/>
	<path fill="none" stroke="#040000" stroke-width="3.1133" stroke-miterlimit="10" d="M-1014.7,118.3c0,3.9,9,7,20,7s20-3.1,20-7
		V85.8"/>
	<ellipse fill="none" stroke="#040000" stroke-width="3.1133" stroke-miterlimit="10" cx="-994.7" cy="78.8" rx="20" ry="7"/>
	<path fill="none" stroke="#040000" stroke-width="3.1133" stroke-miterlimit="10" d="M-974.4,90.8c0,3.9-9,7-20,7s-20-3.1-20-7"/>
	<path fill="none" stroke="#040000" stroke-width="3.1133" stroke-miterlimit="10" d="M-974.4,104.8c0,3.9-9,7-20,7s-20-3.1-20-7"/>
</g>
<g>
	<path fill="#040000" d="M-635.8,570.8c-1.5,0-2.8-1.1-3.1-2.7c-0.1-0.8,0.1-1.6,0.6-2.3c0.5-0.7,1.2-1.1,2-1.2c1-0.1,2,0.2,2.7,1
		l-1.5,1.3c-0.2-0.3-0.6-0.4-1-0.4c-0.3,0-0.5,0.2-0.7,0.4c-0.2,0.2-0.3,0.5-0.2,0.8c0.1,0.6,0.6,1,1.2,0.9c0.6-0.1,1-0.6,0.9-1.2
		l2-0.3c0.2,1.7-1,3.2-2.6,3.5C-635.5,570.8-635.6,570.8-635.8,570.8z"/>
	<path fill="#040000" d="M-644.4,565.3c-0.7,0-1.3-0.2-1.9-0.6c-0.7-0.5-1.1-1.2-1.2-2c-0.1-0.8,0.1-1.6,0.6-2.3
		c0.5-0.7,1.2-1.1,2-1.2c1-0.1,2,0.2,2.7,1l-1.5,1.3c-0.2-0.3-0.6-0.4-1-0.4c-0.3,0-0.5,0.2-0.7,0.4c-0.2,0.2-0.3,0.5-0.2,0.8
		c0,0.3,0.2,0.5,0.4,0.7c0.2,0.2,0.5,0.3,0.8,0.2c0.3,0,0.5-0.2,0.7-0.4c0.2-0.2,0.3-0.5,0.2-0.8l2-0.3c0.1,0.8-0.1,1.6-0.6,2.3
		c-0.5,0.7-1.2,1.1-2,1.2C-644.1,565.3-644.2,565.3-644.4,565.3z"/>
	<path fill="#040000" d="M-654.1,568.2c-0.7,0-1.3-0.2-1.9-0.6c-0.7-0.5-1.1-1.2-1.2-2c-0.1-0.8,0.1-1.6,0.6-2.3
		c0.5-0.7,1.2-1.1,2-1.2c1-0.1,2,0.2,2.7,1l-1.5,1.3c-0.2-0.3-0.6-0.4-1-0.4c-0.3,0-0.5,0.2-0.7,0.4c-0.2,0.2-0.3,0.5-0.2,0.8
		c0,0.3,0.2,0.5,0.4,0.7c0.2,0.2,0.5,0.3,0.8,0.2c0.6-0.1,1-0.6,0.9-1.2l2-0.3c0.2,1.7-1,3.2-2.6,3.5
		C-653.8,568.2-654,568.2-654.1,568.2z"/>
	<path fill="#040000" d="M-656.5,578.3c-0.7,0-1.3-0.2-1.9-0.6c-0.7-0.5-1.1-1.2-1.2-2c-0.1-0.8,0.1-1.6,0.6-2.3
		c0.5-0.7,1.2-1.1,2-1.2c1-0.1,2,0.2,2.7,1l-1.5,1.3c-0.2-0.3-0.6-0.4-1-0.4c-0.3,0-0.5,0.2-0.7,0.4c-0.2,0.2-0.3,0.5-0.2,0.8
		c0,0.3,0.2,0.5,0.4,0.7c0.2,0.2,0.5,0.3,0.8,0.2c0.6-0.1,1-0.6,0.9-1.2l2-0.3c0.2,1.7-1,3.2-2.6,3.5
		C-656.2,578.3-656.4,578.3-656.5,578.3z"/>
	<path fill="#040000" d="M-649.9,585.1c-1.5,0-2.8-1.1-3.1-2.7c-0.2-1.7,1-3.2,2.6-3.5c1-0.1,2,0.2,2.7,1l-1.5,1.3
		c-0.2-0.3-0.6-0.4-1-0.4c-0.6,0.1-1,0.6-0.9,1.2c0.1,0.6,0.6,1,1.2,0.9c0.6-0.1,1-0.6,0.9-1.2l2-0.3c0.2,1.7-1,3.2-2.6,3.5
		C-649.6,585.1-649.8,585.1-649.9,585.1z"/>
	<path fill="#040000" d="M-646.5,591.9c-10.9,0-19.7-8.9-19.7-19.7c0-10.9,8.9-19.8,19.7-19.8c10.9,0,19.8,8.9,19.8,19.8
		c0,3.5-0.9,6.9-2.7,9.9l-1,1.7l-1.1-1.6c-0.9-1.3-2.4-2-3.9-2c-2.7,0-4.8,2.2-4.8,4.8c0,1.3,0.5,2.5,1.5,3.5l1.4,1.3l-1.8,0.7
		C-641.5,591.4-644,591.9-646.5,591.9z M-646.5,554.9c-9.5,0-17.2,7.7-17.2,17.3c0,9.5,7.7,17.2,17.2,17.2c1.6,0,3.2-0.2,4.7-0.7
		c-0.7-1.1-1-2.4-1-3.7c0-4,3.3-7.3,7.3-7.3c1.7,0,3.3,0.6,4.6,1.6c1-2.2,1.6-4.7,1.6-7.2C-629.2,562.6-636.9,554.9-646.5,554.9z"/>
</g>
<g>
	<path fill="none" stroke="#000000" stroke-width="3" stroke-miterlimit="10" d="M-1011.2,168.7c9-9,23.5-9,32.5,0
		c9,9,9,23.5,0,32.5c-9,9-23.5,9-32.5,0"/>
	<polygon points="-1005.9,174.1 -1015.9,174.1 -1015.9,164.1 	"/>
	<polyline fill="none" stroke="#000000" stroke-width="3" stroke-miterlimit="10" points="-984.4,193.5 -994.9,185 -994.9,171 	"/>
</g>
<g>
	<path fill="#040000" d="M-799.8,180.7h-37.9V170h37.9V180.7z M-835.3,178.2h32.9v-5.7h-32.9V178.2z"/>
	<polygon fill="#040000" points="-799.8,205 -836.5,205 -836.5,202.5 -802.3,202.5 -802.3,172.5 -807.2,172.5 -807.2,170 
		-799.8,170 	"/>
	<rect x="-821.6" y="170" fill="#040000" width="6.7" height="2.5"/>
	<polygon fill="#040000" points="-835.3,196.4 -837.8,196.4 -837.8,170 -830.4,170 -830.4,172.5 -835.3,172.5 	"/>
	<rect x="-836.5" y="178.2" fill="#040000" width="35.4" height="2.5"/>
	<rect x="-827.3" y="168.4" fill="#040000" width="2.5" height="5.1"/>
	<rect x="-812.1" y="168.4" fill="#040000" width="2.5" height="5.1"/>
	<rect x="-828.7" y="186.3" fill="#040000" width="3.7" height="2.5"/>
	<rect x="-820.7" y="186.3" fill="#040000" width="3.7" height="2.5"/>
	<rect x="-812.7" y="186.3" fill="#040000" width="3.7" height="2.5"/>
	<rect x="-828.7" y="193.3" fill="#040000" width="3.7" height="2.5"/>
	<rect x="-820.7" y="193.3" fill="#040000" width="3.7" height="2.5"/>
	<rect x="-812.7" y="193.3" fill="#040000" width="3.7" height="2.5"/>
</g>
<g>
	<path fill="none" stroke="#040000" stroke-width="3" stroke-miterlimit="10" d="M-643.5,164.9l4.2,12.8c0.3,1.1,1.3,1.8,2.4,1.8
		h13.4c2.5,0,3.5,3.2,1.5,4.7l-10.8,7.8c-0.9,0.7-1.3,1.8-0.9,2.9l4.1,12.7c0.8,2.4-1.9,4.4-3.9,2.9l-10.9-7.9c-0.9-0.6-2.1-0.6-3,0
		l-10.9,7.9c-2,1.5-4.7-0.5-3.9-2.9l4.1-12.7c0.3-1.1,0-2.3-0.9-2.9l-10.8-7.8c-2-1.5-1-4.7,1.5-4.7h13.4c1.1,0,2.1-0.7,2.4-1.8
		l4.2-12.8C-647.6,162.5-644.3,162.5-643.5,164.9z"/>
</g>
<g>
	<path fill="#040000" d="M-482,382.8c-1.5-0.8-2.4-2.2-2.4-3.8v-6.2c0-1.6,0.9-3,2.4-3.8l0.9,1.8c-0.8,0.4-1.3,1.2-1.3,2v6.2
		c0,0.8,0.5,1.6,1.3,2L-482,382.8z"/>
	<path fill="#040000" d="M-478.8,379.9c-0.9-0.5-1.5-1.4-1.5-2.4v-3.1c0-1,0.6-1.9,1.5-2.4l0.9,1.8c-0.3,0.1-0.4,0.4-0.4,0.6v3.1
		c0,0.3,0.2,0.5,0.4,0.6L-478.8,379.9z"/>
	<path fill="#040000" d="M-485.6,385.1c-1.9-1-3.2-2.9-3.2-4.9v-8.5c0-2,1.2-3.9,3.1-4.9l0.9,1.8c-1.3,0.7-2.1,1.9-2.1,3.1v8.5
		c0,1.3,0.8,2.5,2.1,3.1L-485.6,385.1z"/>
	<path fill="#040000" d="M-461.1,382.8l-0.9-1.8c0.8-0.4,1.3-1.2,1.3-2v-6.2c0-0.8-0.5-1.6-1.3-2l0.9-1.8c1.5,0.8,2.4,2.2,2.4,3.8
		v6.2C-458.7,380.6-459.6,382-461.1,382.8z"/>
	<path fill="#040000" d="M-464.3,379.9l-0.9-1.8c0.3-0.1,0.4-0.4,0.4-0.6v-3.1c0-0.2-0.2-0.5-0.4-0.6l0.9-1.8
		c0.9,0.5,1.5,1.4,1.5,2.4v3.1C-462.8,378.5-463.4,379.4-464.3,379.9z"/>
	<path fill="#040000" d="M-457.5,385.1l-0.9-1.8c1.3-0.6,2.1-1.9,2.1-3.1v-8.5c0-1.3-0.8-2.5-2-3.1l0.9-1.8c1.9,1,3.1,2.9,3.1,4.9
		v8.5C-454.3,382.2-455.5,384.1-457.5,385.1z"/>
	<path fill="#040000" d="M-471.7,380.4c-2.5,0-4.5-2-4.5-4.5c0-2.5,2-4.5,4.5-4.5s4.5,2,4.5,4.5
		C-467.2,378.4-469.3,380.4-471.7,380.4z M-471.7,373.9c-1.1,0-2,0.9-2,2c0,1.1,0.9,2,2,2c1.1,0,2-0.9,2-2
		C-469.7,374.8-470.6,373.9-471.7,373.9z"/>
	<polygon fill="#040000" points="-465.9,407.1 -471.8,386.8 -477.6,407.1 -480,406.4 -471.8,377.7 -463.5,406.4 	"/>
	
		<rect x="-481" y="399" transform="matrix(0.6582 -0.7528 0.7528 0.6582 -463.0729 -219.5085)" fill="#040000" width="15.3" height="2.5"/>
	
		<rect x="-471.2" y="392.6" transform="matrix(0.7527 -0.6584 0.6584 0.7527 -379.7651 -210.4388)" fill="#040000" width="2.5" height="15.3"/>
</g>
<g>
	<path fill="#040000" d="M-823.4,498.3c-2.8,0-5.2-2.1-5.6-4.8l2.5-0.4c0.2,1.5,1.6,2.7,3.1,2.7c1.7,0,3.1-1.4,3.1-3.1v-15.2h2.5
		v15.2C-817.8,495.8-820.3,498.3-823.4,498.3z"/>
	<path fill="#040000" d="M-817.8,470.3h-2.5v-9.9c0-1.7-1.4-3.1-3.1-3.1c-1.3,0-2.4,0.8-2.9,1.9l-2.3-1c0.9-2.1,2.9-3.5,5.2-3.5
		c3.1,0,5.6,2.5,5.6,5.6V470.3z"/>
	<path fill="#040000" d="M-833.5,464.1l-2.4-0.6c0.8-3.3,3.8-5.7,7.2-5.7c2.8,0,5.3,1.6,6.6,4.1l-2.2,1.1c-0.8-1.7-2.5-2.7-4.4-2.7
		C-831,460.3-832.9,461.8-833.5,464.1z"/>
	<path fill="#040000" d="M-827.5,473.7c-2.1-0.5-3.6-2.4-3.6-4.6c0-1.8,1-3.4,2.6-4.3l1.1,2.2c-0.8,0.4-1.3,1.2-1.3,2
		c0,1,0.7,1.9,1.8,2.2L-827.5,473.7z"/>
	<path fill="#040000" d="M-827.5,488.3c-2.1-0.5-3.6-2.4-3.6-4.6c0-1.8,1-3.4,2.6-4.3l1.1,2.2c-0.8,0.4-1.3,1.2-1.3,2
		c0,1,0.7,1.9,1.8,2.2L-827.5,488.3z"/>
	<path fill="#040000" d="M-828.7,494.6c-2.7,0-5.2-1.5-6.5-3.9l2.2-1.2c0.9,1.6,2.5,2.6,4.3,2.6c1.5,0,2.8-0.7,3.8-1.8l1.9,1.6
		C-824.4,493.6-826.5,494.6-828.7,494.6z"/>
	<path fill="#040000" d="M-835.7,473.5c-3.2,0-5.8-2.6-5.8-5.8c0-3.2,2.6-5.8,5.8-5.8c0.1,0,1.2,0,2.4,0.6l-1.2,2.2
		c-0.6-0.3-1.2-0.3-1.2-0.3c0,0,0,0,0,0c-1.9,0-3.3,1.5-3.3,3.3c0,1.8,1.5,3.3,3.3,3.3V473.5z"/>
	<path fill="#040000" d="M-835.7,490.8c-3.2,0-5.8-2.6-5.8-5.8c0-3.2,2.6-5.8,5.8-5.8v2.5c-1.8,0-3.3,1.5-3.3,3.3
		c0,1.8,1.5,3.3,3.3,3.3V490.8z"/>
	<path fill="#040000" d="M-840,482.3c-2.7-1.2-4.4-3.9-4.4-6.8c0-2.5,1.2-4.8,3.3-6.2l1.4,2.1c-1.4,0.9-2.2,2.5-2.2,4.1
		c0,2,1.2,3.8,3,4.6L-840,482.3z"/>
	<path fill="#040000" d="M-814.2,485.2l0-2.5c0.2,0,0.5,0,0.7,0c3.5-0.4,6.1-3.6,5.6-7.2c-0.4-3.2-3.1-5.6-6.3-5.7l0.1-2.5
		c4.4,0.1,8.2,3.5,8.7,7.9c0.6,4.9-2.9,9.4-7.8,10C-813.5,485.2-813.8,485.2-814.2,485.2z"/>
	<path fill="#040000" d="M-814.2,494.8c-0.2,0-0.4,0-0.5,0l0.1-2.5c0.4,0,0.8,0,1.2,0c0.1-1.1,0.5-2.2,1.2-3c1.9-2.4,5.4-2.9,7.9-1
		c0.1,0.1,0.3,0.2,0.4,0.3c0.6-0.5,1.2-1,1.7-1.6c-0.7-0.8-1.2-1.9-1.3-3c-0.4-3.1,1.8-5.9,4.9-6.2c0.2,0,0.3,0,0.5,0
		c0.1-0.8,0.1-1.5,0.1-2.3c-1.1-0.1-2.1-0.5-3-1.2c-2.4-1.9-2.9-5.5-1-7.9c0.1-0.1,0.2-0.3,0.3-0.4c-0.5-0.6-1-1.2-1.6-1.7
		c-0.8,0.7-1.9,1.2-3,1.3c-1.5,0.2-3-0.2-4.1-1.2c-1.2-0.9-1.9-2.3-2.1-3.7c0-0.2,0-0.3,0-0.5c-0.3,0-0.7-0.1-1-0.1l0.1-2.5
		c0.8,0,1.7,0.1,2.5,0.3l1.3,0.2l-0.3,1.3c-0.1,0.4-0.1,0.7-0.1,1c0.1,0.8,0.5,1.6,1.2,2.1c0.7,0.5,1.5,0.7,2.3,0.6
		c0.9-0.1,1.6-0.6,2.1-1.3l0.8-1.1l1,0.8c1.4,1.1,2.6,2.4,3.7,3.9l0.8,1.1l-1.1,0.7c-0.3,0.2-0.6,0.4-0.8,0.7
		c-1.1,1.4-0.8,3.3,0.5,4.4c0.7,0.5,1.6,0.8,2.4,0.6l1.3-0.2l0.2,1.3c0.2,1.8,0.2,3.6-0.1,5.3l-0.2,1.3l-1.3-0.3
		c-0.4-0.1-0.7-0.1-1-0.1c-1.7,0.2-2.9,1.8-2.7,3.5c0.1,0.9,0.6,1.6,1.3,2.1l1.1,0.8l-0.8,1c-1.1,1.4-2.4,2.6-3.9,3.7l-1.1,0.8
		l-0.7-1.1c-0.2-0.3-0.4-0.6-0.7-0.8c-1.4-1.1-3.3-0.8-4.4,0.5c-0.5,0.7-0.8,1.5-0.6,2.4l0.2,1.3l-1.3,0.2
		C-812.8,494.8-813.5,494.8-814.2,494.8z"/>
</g>
<g>
	<path fill="#040000" d="M-991.3,500.9c-3,0-5.6-2.2-6-5.2l2.5-0.4c0.3,1.7,1.8,3,3.5,3c2,0,3.6-1.6,3.6-3.6v-13.3h2.5v13.3
		C-985.2,498.2-988,500.9-991.3,500.9z"/>
	<path fill="#040000" d="M-985.2,469h-2.5v-9.7c0-2-1.6-3.6-3.6-3.6c-1.5,0-2.8,0.9-3.3,2.2l-2.3-0.9c0.9-2.3,3.2-3.8,5.6-3.8
		c3.4,0,6.1,2.7,6.1,6.1V469z"/>
	<path fill="#040000" d="M-1002.6,463.3l-2.4-0.6c0.9-3.6,4.1-6.2,7.8-6.2c3,0,5.8,1.7,7.2,4.5l-2.2,1.1c-1-1.9-2.9-3.1-4.9-3.1
		C-999.7,459-1001.9,460.8-1002.6,463.3z"/>
	<path fill="#040000" d="M-995.7,473.8c-2.3-0.6-3.9-2.6-3.9-5c0-1.9,1.1-3.7,2.8-4.6l1.1,2.2c-0.9,0.5-1.5,1.4-1.5,2.3
		c0,1.2,0.8,2.3,2,2.6L-995.7,473.8z"/>
	<path fill="#040000" d="M-995.7,489.9c-2.3-0.6-3.9-2.6-3.9-5c0-1.9,1.1-3.7,2.8-4.6l1.1,2.2c-0.9,0.5-1.5,1.4-1.5,2.3
		c0,1.2,0.8,2.3,2,2.6L-995.7,489.9z"/>
	<path fill="#040000" d="M-997.2,496.9c-3,0-5.7-1.6-7.1-4.3l2.2-1.2c1,1.8,2.8,3,4.9,3c1.7,0,3.2-0.8,4.3-2.1l1.9,1.6
		C-992.5,495.8-994.8,496.9-997.2,496.9z"/>
	<path fill="#040000" d="M-1005.1,473.8c-3.5,0-6.4-2.9-6.4-6.4c0-3.5,2.9-6.4,6.4-6.4c0.1,0,1.3,0,2.7,0.7l-1.2,2.2
		c-0.8-0.4-1.4-0.4-1.5-0.4c-2.2,0-4,1.8-4,3.9c0,2.2,1.8,3.9,3.9,3.9V473.8z"/>
	<path fill="#040000" d="M-1005.1,493.1c-3.5,0-6.4-2.9-6.4-6.4c0-3.5,2.9-6.4,6.4-6.4v2.5c-2.2,0-3.9,1.8-3.9,3.9
		c0,2.2,1.8,3.9,3.9,3.9V493.1z"/>
	<path fill="#040000" d="M-1009.6,483.8c-2.9-1.3-4.8-4.2-4.8-7.4c0-2.7,1.3-5.2,3.6-6.8l1.4,2.1c-1.6,1.1-2.5,2.8-2.5,4.7
		c0,2.2,1.3,4.2,3.3,5.1L-1009.6,483.8z"/>
	<rect x="-991.9" y="475.4" fill="#040000" width="15.6" height="2.5"/>
	<polygon fill="#040000" points="-979,490.5 -981.7,488.2 -986.4,488.2 -986.4,485.7 -980.8,485.7 -977.4,488.6 	"/>
	<polygon fill="#040000" points="-980.8,468.9 -986.4,468.9 -986.4,466.4 -981.7,466.4 -979,464.1 -977.4,466 	"/>
	<path fill="#040000" d="M-969.5,476.7c0,1.2-1,2.2-2.2,2.2c-1.2,0-2.2-1-2.2-2.2c0-1.2,1-2.2,2.2-2.2
		C-970.4,474.5-969.5,475.5-969.5,476.7z"/>
	<path fill="#040000" d="M-972.7,462.8c0,1.2-1,2.2-2.2,2.2c-1.2,0-2.2-1-2.2-2.2c0-1.2,1-2.2,2.2-2.2
		C-973.6,460.7-972.7,461.7-972.7,462.8z"/>
	<path fill="#040000" d="M-973.1,492.4c0,1.2-1,2.2-2.2,2.2c-1.2,0-2.2-1-2.2-2.2c0-1.2,1-2.2,2.2-2.2
		C-974,490.2-973.1,491.2-973.1,492.4z"/>
</g>
<g>
	<circle fill="none" stroke="#050000" stroke-width="3" stroke-miterlimit="10" cx="-469.1" cy="104.4" r="22"/>
	<polyline fill="none" stroke="#000000" stroke-width="3" stroke-miterlimit="10" points="-458.6,114.3 -469.1,105.8 -469.1,91.8 	
		"/>
</g>
<g>
	<polygon points="-634.4,125.8 -667.4,125.8 -667.4,74.8 -625.4,74.8 -625.4,124.3 -628.4,124.3 -628.4,77.8 -664.4,77.8 
		-664.4,122.8 -634.4,122.8 	"/>
	<polyline fill="none" stroke="#000000" stroke-width="3" stroke-miterlimit="10" points="-655.4,107.2 -661.9,100.7 -655.4,94.3 	
		"/>
	<polyline fill="none" stroke="#000000" stroke-width="3" stroke-miterlimit="10" points="-637.8,94.3 -631.3,100.7 -637.8,107.2 	
		"/>
	<line fill="none" stroke="#000000" stroke-width="3" stroke-miterlimit="10" x1="-644" y1="94.6" x2="-650.1" y2="106.9"/>
</g>
<g>
	<path fill="#040000" d="M-458.2,274.4c-3-6.2-9.3-10.3-16.2-10.3c-5.8,0-11.3,2.8-14.7,7.6l-2-1.5c3.8-5.4,10.1-8.6,16.7-8.6
		c7.9,0,15.1,4.6,18.5,11.7L-458.2,274.4z"/>
	<path fill="#040000" d="M-467.1,271.3c-1.7-4.6-4.4-7.4-7.2-7.4v-2c3.7,0,7,3.2,9.1,8.7L-467.1,271.3z"/>
	<path fill="#040000" d="M-474.3,302.4c-6.2,0-11.1-8.9-11.1-20.2c0-11.3,4.9-20.2,11.1-20.2v2c-4.9,0-9.1,8.4-9.1,18.2
		c0,9.9,4.1,18.2,9.1,18.2V302.4z"/>
	<rect x="-493.7" y="281.2" fill="#040000" width="19.4" height="2"/>
	<rect x="-489.8" y="270" fill="#040000" width="31" height="2"/>
	<path fill="none" d="M-487.4,294.6c3.1,3.2,7.3,5.2,11.9,5.5v-5.5H-487.4z"/>
	<path fill="#040000" d="M-487.4,294.6h-2.4v-2h0.7c-2.1-2.9-3.4-6.6-3.4-10.5c0-2.6,0.5-5.1,1.6-7.4l-2.3-1
		c-1.2,2.7-1.8,5.5-1.8,8.4c0,11,8.7,19.9,19.5,20.4v-2.5C-480.1,299.8-484.3,297.8-487.4,294.6z"/>
	<path fill="#040000" d="M-475.5,294.6v5.5c0.3,0,0.7,0.1,1,0.1c0.3,0,0.7,0,1,0v-5.5H-475.5z"/>
	<rect x="-475.5" y="262.9" fill="#040000" width="2" height="29.7"/>
	<path fill="#040000" d="M-474.5,300.1c-0.3,0-0.7,0-1-0.1v2.5c0.3,0,0.7,0.1,1,0.1c0.3,0,0.7,0,1,0v-2.5
		C-473.8,300.1-474.1,300.1-474.5,300.1z"/>
	<path fill="#040000" d="M-475.5,294.6v-2h-13.6c0.5,0.7,1.1,1.4,1.7,2H-475.5z"/>
	<path fill="#040000" d="M-489.8,294.6h2.4c-0.6-0.6-1.2-1.3-1.7-2h-0.7V294.6z"/>
	<rect x="-475.5" y="292.6" fill="#040000" width="2" height="2"/>
	<polygon fill="#040000" points="-467.3,301.2 -471.9,291.9 -460,288.3 -447.9,292.2 -452.4,301.2 -453.9,300.4 -450.3,293.2 
		-460,290.1 -469.5,293 -465.8,300.4 	"/>
	<polygon fill="#040000" points="-467.3,289.2 -469,289.2 -469,283.4 -451.4,283.4 -451.4,288.8 -453.1,288.8 -453.1,285.1 
		-467.3,285.1 	"/>
	<path fill="#040000" d="M-456.2,285.1h-8.5v-6.9h8.5V285.1z M-463,283.4h5.2v-3.5h-5.2V283.4z"/>
	<rect x="-460.7" y="289.7" fill="#040000" width="1.7" height="10.4"/>
	<polyline fill="none" stroke="#040000" stroke-width="2.5" stroke-miterlimit="10" points="-496.5,275.3 -491.1,272.6 -488.4,278 	
		"/>
	<polyline fill="none" stroke="#040000" stroke-width="2.5" stroke-miterlimit="10" points="-454.5,270 -456.8,275.6 -462.4,273.3 	
		"/>
</g>
<g>
	<path fill="#040000" d="M-1017.6,557.7c-0.3,0-0.7-0.1-0.9-0.4c-0.5-0.5-0.4-1.3,0.1-1.8l7.7-6.7c0.2-0.2,0.5-0.3,0.8-0.3h32.8
		c0.3,0,0.6,0.1,0.8,0.3l8.1,6.6c0.5,0.4,0.6,1.2,0.2,1.8c-0.4,0.5-1.2,0.6-1.8,0.2l-7.8-6.3h-31.9l-7.3,6.4
		C-1017,557.6-1017.3,557.7-1017.6,557.7z"/>
	<path fill="#040000" d="M-967.8,567.1h-51.1v-11.5h51.1V567.1z M-1016.3,564.6h46.1v-6.5h-46.1V564.6z"/>
	<path fill="#040000" d="M-967.8,581.1h-51.1v-11.5h51.1V581.1z M-1016.3,578.6h46.1v-6.5h-46.1V578.6z"/>
	<path fill="#040000" d="M-967.8,595.1h-51.1v-11.5h51.1V595.1z M-1016.3,592.6h46.1v-6.5h-46.1V592.6z"/>
	<rect x="-994.5" y="550.1" fill="#040000" width="2.5" height="11.5"/>
</g>
<g>
	<path fill="#040000" d="M-464.5,460c-0.6,0.7-1.5,0.7-2.2,0.2c-0.7-0.6-0.7-1.5-0.2-2.2c0.6-0.7,1.5-0.7,2.2-0.2
		C-464,458.4-463.9,459.3-464.5,460z"/>
	<path fill="#040000" d="M-464.3,467.3c-0.6,0.7-1.5,0.7-2.2,0.2c-0.7-0.6-0.7-1.5-0.2-2.2c0.6-0.7,1.5-0.7,2.2-0.2
		C-463.8,465.6-463.8,466.6-464.3,467.3z"/>
	<path fill="#040000" d="M-471.7,461c-0.6,0.7-1.5,0.7-2.2,0.2c-0.7-0.6-0.7-1.5-0.2-2.2c0.6-0.7,1.5-0.7,2.2-0.2
		C-471.2,459.3-471.1,460.3-471.7,461z"/>
	<path fill="#040000" d="M-468,464.1c-0.6,0.7-1.5,0.7-2.2,0.2c-0.7-0.6-0.7-1.5-0.2-2.2c0.6-0.7,1.5-0.7,2.2-0.2
		C-467.5,462.5-467.4,463.5-468,464.1z"/>
	<path fill="#040000" d="M-470.9,469.1c-0.6,0.7-1.5,0.7-2.2,0.2c-0.7-0.6-0.7-1.5-0.2-2.2c0.6-0.7,1.5-0.7,2.2-0.2
		C-470.4,467.4-470.4,468.4-470.9,469.1z"/>
	<path fill="#040000" d="M-467.2,472.2c-0.6,0.7-1.5,0.7-2.2,0.2c-0.7-0.6-0.7-1.5-0.2-2.2c0.6-0.7,1.5-0.7,2.2-0.2
		C-466.8,470.6-466.7,471.6-467.2,472.2z"/>
	<path fill="#040000" d="M-474.6,465.9c-0.6,0.7-1.5,0.7-2.2,0.2c-0.7-0.6-0.7-1.5-0.2-2.2c0.6-0.7,1.5-0.7,2.2-0.2
		C-474.1,464.3-474,465.3-474.6,465.9z"/>
	<path fill="#040000" d="M-478.4,462.7c-0.6,0.7-1.5,0.7-2.2,0.2c-0.7-0.6-0.7-1.5-0.2-2.2c0.6-0.7,1.5-0.7,2.2-0.2
		C-477.9,461.1-477.8,462-478.4,462.7z"/>
	<path fill="#040000" d="M-469.7,501.7c-0.5,0-0.9-0.3-1.1-0.7c-0.3-0.6,0-1.4,0.6-1.7l16.7-7.6v-11.4c0-0.7,0.6-1.3,1.3-1.3
		c0.7,0,1.3,0.6,1.3,1.3v12.2c0,0.5-0.3,0.9-0.7,1.1l-17.4,7.9C-469.4,501.7-469.6,501.7-469.7,501.7z"/>
	<polygon fill="#040000" points="-462.8,487.2 -466.9,483.2 -465.1,481.4 -462.3,484.2 -449.9,477.7 -454.5,472.6 -452.7,470.9 
		-445.9,478.4 	"/>
	<polygon fill="#040000" points="-476.3,487.2 -493.2,478.4 -486.4,470.9 -484.5,472.6 -489.2,477.7 -476.8,484.2 -474,481.4 
		-472.2,483.2 	"/>
	<path fill="#040000" d="M-470.1,480.7c-0.2,0-0.4,0-0.6-0.1l-15.4-7.7c-0.4-0.2-0.7-0.6-0.7-1.1c0-0.5,0.2-0.9,0.6-1.1l5-3
		c0.6-0.3,1.4-0.2,1.7,0.4c0.4,0.6,0.2,1.4-0.4,1.7l-3.1,1.8l12.8,6.4l13.7-6.4l-3.1-1.8c-0.6-0.3-0.8-1.1-0.5-1.7
		c0.3-0.6,1.1-0.8,1.7-0.5l5.2,3c0.4,0.2,0.6,0.7,0.6,1.1c0,0.5-0.3,0.9-0.7,1.1l-16.5,7.7C-469.7,480.6-469.9,480.7-470.1,480.7z"
		/>
	<path fill="#040000" d="M-469.7,501.7c-0.2,0-0.3,0-0.5-0.1l-17.4-7.9c-0.4-0.2-0.7-0.6-0.7-1.1v-12.2c0-0.7,0.6-1.3,1.3-1.3
		s1.3,0.6,1.3,1.3v11.4l16.7,7.6c0.6,0.3,0.9,1,0.6,1.7C-468.8,501.4-469.3,501.7-469.7,501.7z"/>
	<rect x="-471" y="486.4" fill="#040000" width="2.5" height="13.5"/>
</g>
<g>
	<path fill="#040000" d="M-644.2,475.6c-0.2,0-0.4,0-0.5-0.1l-17.7-8.1c-0.4-0.2-0.7-0.7-0.7-1.1c0-0.5,0.3-0.9,0.7-1.1l18.5-8.3
		c0.3-0.2,0.7-0.1,1.1,0l16.9,8.3c0.4,0.2,0.7,0.7,0.7,1.1c0,0.5-0.3,0.9-0.7,1.1l-17.7,8.1C-643.9,475.6-644,475.6-644.2,475.6z
		 M-658.9,466.3l14.7,6.7l14.8-6.7l-14-6.8L-658.9,466.3z"/>
	<path fill="#040000" d="M-644.2,497.1c-0.2,0-0.4,0-0.5-0.1l-17.7-8.6c-0.4-0.2-0.7-0.6-0.7-1.1v-20.9c0-0.4,0.2-0.8,0.6-1.1
		c0.4-0.2,0.8-0.3,1.2-0.1l17.7,8.1c0.4,0.2,0.7,0.6,0.7,1.1v21.5c0,0.4-0.2,0.8-0.6,1.1C-643.8,497-644,497.1-644.2,497.1z
		 M-660.7,486.5l15.2,7.4v-18.7l-15.2-6.9V486.5z"/>
	<path fill="#040000" d="M-644.2,497.1c-0.2,0-0.5-0.1-0.7-0.2c-0.4-0.2-0.6-0.6-0.6-1.1v-21.5h2.5v19.5l15.2-7.4v-12.1l2.5-1.4
		v14.2c0,0.5-0.3,0.9-0.7,1.1l-17.7,8.6C-643.8,497-644,497.1-644.2,497.1z"/>
	
		<rect x="-644.5" y="456.2" transform="matrix(0.4483 -0.8939 0.8939 0.4483 -771.202 -318.0201)" fill="#040000" width="2.5" height="19.1"/>
</g>
<g>
	<polygon fill="#040000" points="-643.2,303 -645.7,303 -645.7,269.3 -665.4,269.3 -665.4,303 -667.9,303 -667.9,266.8 
		-643.2,266.8 	"/>
	<polygon fill="#040000" points="-623.2,303 -625.7,303 -625.7,286.4 -638.5,286.4 -638.5,303 -641,303 -641,283.9 -623.2,283.9 	
		"/>
	<rect x="-662" y="273.5" fill="#040000" width="4.7" height="2.5"/>
	<rect x="-653.5" y="273.5" fill="#040000" width="4.8" height="2.5"/>
	<rect x="-653.4" y="280.2" fill="#040000" width="4.7" height="2.5"/>
	<rect x="-662" y="280.2" fill="#040000" width="4.8" height="2.5"/>
	<rect x="-653.4" y="286.1" fill="#040000" width="4.7" height="2.5"/>
	<rect x="-662" y="286.1" fill="#040000" width="4.8" height="2.5"/>
	<rect x="-662" y="292.8" fill="#040000" width="4.7" height="2.5"/>
	<rect x="-653.5" y="292.8" fill="#040000" width="4.8" height="2.5"/>
	<rect x="-630.8" y="288.3" fill="#040000" width="3.1" height="2.5"/>
	<rect x="-636.4" y="288.3" fill="#040000" width="3.2" height="2.5"/>
	<rect x="-630.8" y="292.7" fill="#040000" width="3.1" height="2.5"/>
	<rect x="-636.4" y="292.7" fill="#040000" width="3.2" height="2.5"/>
	<rect x="-636.4" y="297.6" fill="#040000" width="3.1" height="2.5"/>
	<rect x="-630.8" y="297.6" fill="#040000" width="3.2" height="2.5"/>
	<rect x="-660.8" y="301.8" fill="#040000" width="28.7" height="2.5"/>
	<rect x="-656.8" y="261.2" fill="#040000" width="2.5" height="6.5"/>
</g>
<g>
	<circle fill="none" stroke="#040000" stroke-width="3" stroke-miterlimit="10" cx="-486.9" cy="163" r="4"/>
	<path fill="none" stroke="#040000" stroke-width="3" stroke-miterlimit="10" d="M-476.9,195v-15.2c0-4.8-4.1-8.8-9.1-8.8h-1.9
		c-5,0-9.1,3.9-9.1,8.8V195h13.5"/>
	<circle fill="none" stroke="#040000" stroke-width="3" stroke-miterlimit="10" cx="-456.9" cy="181" r="4"/>
	<path fill="none" stroke="#040000" stroke-width="3" stroke-miterlimit="10" d="M-446.9,213v-15.2c0-4.8-4.1-8.8-9.1-8.8h-1.9
		c-5,0-9.1,3.9-9.1,8.8V213h13.5"/>
	<polygon fill="#040000" points="-465.7,170.3 -467.2,169.7 -469.2,171.8 -468.6,173.1 -470.9,174.2 -472.2,171.2 -467.7,166.8 
		-464.8,168 	"/>
	<polygon fill="#040000" points="-465.3,165.9 -468.5,164.9 -474.3,170.7 -473.2,173.7 -475.6,174.5 -477.2,170 -469.2,162.1 
		-464.6,163.5 	"/>
	
		<rect x="-466.9" y="172" transform="matrix(0.7071 -0.7071 0.7071 0.7071 -258.9786 -278.3105)" fill="#040000" width="2.8" height="2.8"/>
</g>
<g>
	<polyline fill="none" stroke="#000000" stroke-width="3" stroke-miterlimit="10" points="-635.9,364.3 -625.9,364.3 -625.9,374.3 	
		"/>
	<polyline fill="none" stroke="#000000" stroke-width="3" stroke-miterlimit="10" points="-645.9,364.3 -665.9,364.3 -665.9,404.3 
		-625.9,404.3 -625.9,384.3 	"/>
	<line fill="none" stroke="#000000" stroke-width="3" stroke-miterlimit="10" x1="-626.7" y1="365" x2="-655.2" y2="393.5"/>
</g>
<g>
	<polygon fill="#040000" points="-797.1,395.7 -830,395.7 -830,358.8 -805.6,358.8 -797.8,367.8 -799.7,369.5 -806.7,361.3 
		-827.5,361.3 -827.5,393.2 -799.6,393.2 -799.6,374.2 -797.1,374.2 	"/>
	<polygon fill="#040000" points="-799.4,369.1 -807.4,369.1 -807.4,360.1 -804.9,360.1 -804.9,366.6 -799.4,366.6 	"/>
	<path fill="#040000" d="M-818.2,376.5c0-0.2,0-0.3,0-0.5v-1.5c0-2.8,2.2-5,5-5c2.8,0,5,2.2,5,5v1.5h-2.7v-1.5c0-1.3-1-2.3-2.3-2.3
		c-1.3,0-2.3,1-2.3,2.3v1.5c0,0.1,0,0.2,0,0.2L-818.2,376.5z"/>
	<rect x="-814.3" y="379.4" fill="#040000" width="2.7" height="3"/>
	<path fill="#040000" d="M-806.4,387.3h-13.7v-12.5h13.7V387.3z M-817.4,384.6h8.4v-7.1h-8.4V384.6z"/>
</g>
<g>
	<polygon fill="#040000" points="-793.4,582.8 -834.9,582.8 -834.9,552.8 -792.2,552.8 -792.2,575.4 -794.7,575.4 -794.7,555.3 
		-832.4,555.3 -832.4,580.3 -793.4,580.3 	"/>
	<rect x="-823.6" y="585.8" fill="#040000" width="20.6" height="2.5"/>
	
		<rect x="-821.7" y="583.1" transform="matrix(0.4 -0.9165 0.9165 0.4 -1026.7582 -399.8197)" fill="#040000" width="6" height="2.5"/>
	
		<rect x="-809.1" y="581.3" transform="matrix(0.9165 -0.4001 0.4001 0.9165 -301.2576 -274.4086)" fill="#040000" width="2.5" height="6"/>
	<line fill="none" stroke="#050000" stroke-width="1.8898" stroke-miterlimit="10" x1="-796.4" y1="556.7" x2="-802.1" y2="562.4"/>
	<line fill="none" stroke="#050000" stroke-width="1.8898" stroke-miterlimit="10" x1="-796.4" y1="562.4" x2="-802.1" y2="556.7"/>
</g>
<g>
	<polygon fill="none" points="24.6,30.7 25.4,27.2 18.4,27.2 16,22.7 6.6,22.7 11.7,54.4 17.2,30.7 	"/>
	<path fill="none" d="M30.7,29.7l4.3,1h18.7l4.1-17.5L32.7,7.4l-5.5,23.3h3.2L30.7,29.7z M46.4,17.4L48,20l5.8-3.6l1.4,2.2l-8,5
		l-3-4.8L46.4,17.4z M50.7,28l-0.6,2.6l-7.8-1.8l0.6-2.6L50.7,28z M35,11.6l7.8,1.8L42.1,16l-7.8-1.8L35,11.6z M33.5,17.6l7.8,1.8
		L40.7,22l-7.8-1.8L33.5,17.6z M32.1,23.7l7.8,1.8l-0.6,2.6l-7.8-1.8L32.1,23.7z"/>
	<polygon fill="#ffffff" points="27.3,27.2 25.4,27.2 24.6,30.7 27.3,30.7 32.7,7.4 57.8,13.3 53.7,30.7 56.4,30.7 60.9,11.3 30.8,4.3 26.1,24.2 
		27.3,24.2 	"/>
	<rect fill="#ffffff" x="37.2" y="9.8" transform="matrix(0.2275 -0.9738 0.9738 0.2275 16.3441 48.1838)" width="2.6" height="8"/>
	<rect fill="#ffffff" x="35.8" y="15.8" transform="matrix(0.2276 -0.9738 0.9738 0.2276 9.3712 51.475)" width="2.6" height="8"/>
	<rect fill="#ffffff" x="34.4" y="21.9" transform="matrix(0.2275 -0.9738 0.9738 0.2275 2.399 54.7665)" width="2.6" height="8"/>
	<rect fill="#ffffff" x="45.2" y="24.4" transform="matrix(0.2275 -0.9738 0.9738 0.2275 8.2766 67.2169)" width="2.6" height="8"/>
	<polygon fill="#ffffff" points="30.7,29.7 30.5,30.7 35.1,30.7 	"/>
	<polygon fill="#ffffff" points="55.2,18.6 53.8,16.4 48,20 46.4,17.4 44.2,18.8 47.2,23.6 	"/>
	<polygon fill="#ffffff" points="38.5,31.5 38.3,32.2 53.4,32.2 53.7,30.7 35.1,30.7 	"/>
	<polygon fill="#ffffff" points="24.2,32.2 24.6,30.7 17.2,30.7 11.7,54.4 12.1,56.7 12.7,56.7 18.4,32.2 	"/>
	<polygon fill="#ffffff" points="30.1,32.2 30.5,30.7 27.3,30.7 26.9,32.2 	"/>
	<polygon fill="#ffffff" points="56.1,32.2 58.5,32.2 52.5,58.2 50.8,58.2 50.8,59.7 53.7,59.7 60.4,30.7 56.4,30.7 	"/>
	<polygon fill="#ffffff" points="53.4,32.2 56.1,32.2 56.4,30.7 53.7,30.7 	"/>
	<polygon fill="#ffffff" points="26.9,32.2 27.3,30.7 24.6,30.7 24.2,32.2 	"/>
	<polygon fill="#ffffff" points="38.5,31.5 35.1,30.7 30.5,30.7 30.1,32.2 38.3,32.2 	"/>
	<polygon fill="#ffffff" points="36.4,33.7 30.1,32.3 30.1,32.2 26.9,32.2 26.6,33.7 	"/>
	<polygon fill="#ffffff" points="38,33.7 41.2,33.7 41.5,32.2 47.9,33.7 53,33.7 53.4,32.2 38.3,32.2 	"/>
	<polygon fill="#ffffff" points="56.6,33.7 51.3,56.7 50.8,56.7 50.8,58.2 52.5,58.2 58.5,32.2 56.1,32.2 55.7,33.7 	"/>
	<polygon fill="#ffffff" points="19.6,33.7 23.9,33.7 24.2,32.2 18.4,32.2 12.7,56.7 14.2,56.7 	"/>
	<polygon fill="#ffffff" points="26.9,32.2 24.2,32.2 23.9,33.7 26.6,33.7 	"/>
	<polygon fill="#ffffff" points="53,33.7 55.7,33.7 56.1,32.2 53.4,32.2 	"/>
	<polygon fill="#ffffff" points="36.4,33.7 38,33.7 38.3,32.2 30.1,32.2 30.1,32.3 	"/>
	<polygon fill="#ffffff" points="41.5,32.2 41.2,33.7 47.9,33.7 	"/>
	<polygon fill="#ffffff" points="6.6,22.7 16,22.7 18.4,27.2 25.4,27.2 26.1,24.2 20.2,24.2 17.9,19.7 3.1,19.7 9.5,59.7 10.5,59.7 11.7,54.4 	"/>
	<polygon fill="#ffffff" points="27.3,27.2 27.3,24.2 26.1,24.2 25.4,27.2 	"/>
	<polygon fill="#ffffff" points="12.4,58.2 12.7,56.7 12.1,56.7 11.7,54.4 10.5,59.7 50.8,59.7 50.8,58.2 	"/>
	<polygon fill="#ffffff" points="14.2,56.7 12.7,56.7 12.4,58.2 50.8,58.2 50.8,56.7 	"/>
</g>
<g>
	<polyline fill="none" stroke="#040000" stroke-width="3" stroke-miterlimit="10" points="-844.7,90.8 -854.7,116.8 -794.7,116.8 
		-804.7,90.8 -826.9,90.8 	"/>
	<g>
		<polygon fill="#040000" points="-843.2,95.8 -847.9,86.5 -835.9,82.8 -823.7,86.7 -828.2,95.8 -829.7,95.1 -826.1,87.7 
			-835.9,84.6 -845.5,87.5 -841.7,95.1 		"/>
		<polygon fill="#040000" points="-843,83.7 -844.7,83.7 -844.7,77.8 -826.9,77.8 -826.9,83.4 -828.6,83.4 -828.6,79.5 -843,79.5 		
			"/>
		<path fill="#040000" d="M-831.5,79.5h-8.6v-7h8.6V79.5z M-838.4,77.8h5.2v-3.6h-5.2V77.8z"/>
		<rect x="-836.6" y="84.3" fill="#040000" width="1.7" height="10.5"/>
	</g>
	<polyline fill="none" stroke="#040000" stroke-width="3" stroke-miterlimit="10" points="-835.7,96.8 -837.7,104.8 -824.7,104.8 
		-824.7,108.8 -808.7,108.8 	"/>
	<path fill="#040000" d="M-808.6,109.6l-3.2-3.6c-1-0.9-1.5-2.2-1.5-3.5c0-2.6,2.1-4.7,4.7-4.7c2.6,0,4.7,2.1,4.7,4.7
		c0,1.3-0.6,2.6-1.5,3.5L-808.6,109.6z M-808.6,99.4c-1.8,0-3.2,1.4-3.2,3.2c0,0.9,0.4,1.8,1.1,2.4l0.1,0.1l2.1,2.3l2.2-2.4
		c0.7-0.6,1.1-1.5,1.1-2.4C-805.4,100.8-806.9,99.4-808.6,99.4z"/>
	<rect x="-809.4" y="101.4" fill="#040000" width="1.5" height="2.1"/>
</g>
<g>
	<g>
		<polygon fill="#040000" points="-834.4,283.3 -839.1,274 -827.1,270.4 -814.9,274.3 -819.5,283.3 -821,282.6 -817.3,275.3 
			-827.1,272.1 -836.7,275 -832.9,282.6 		"/>
		<polygon fill="#040000" points="-834.2,271.2 -835.9,271.2 -835.9,265.4 -818.1,265.4 -818.1,270.9 -819.8,270.9 -819.8,267.1 
			-834.2,267.1 		"/>
		<path fill="#040000" d="M-822.7,267.1h-8.6v-7h8.6V267.1z M-829.6,265.4h5.2v-3.6h-5.2V265.4z"/>
		<rect x="-827.9" y="271.8" fill="#040000" width="1.7" height="10.5"/>
	</g>
	<line fill="none" stroke="#040000" stroke-width="2" stroke-miterlimit="10" x1="-801.6" y1="302.8" x2="-801.6" y2="281.8"/>
	<rect x="-801.6" y="281.8" fill="none" stroke="#040000" stroke-width="2" stroke-miterlimit="10" width="14" height="8"/>
	<polyline fill="none" stroke="#040000" stroke-width="2" stroke-miterlimit="10" points="-827.4,286.3 -827.4,302.8 -819.9,302.8 	
		"/>
	<rect x="-807.6" y="298.8" fill="#040000" width="12" height="4"/>
	<polygon points="-819.9,307.6 -819.9,299.1 -815.7,303.3 	"/>
	<text transform="matrix(1 0 0 1 -802.7405 278.3446)" font-family="'YDIYGO330'" font-size="9px">POD</text>
	<line fill="none" stroke="#040000" stroke-width="2" stroke-miterlimit="10" x1="-807.6" y1="305.3" x2="-795.6" y2="305.3"/>
</g>
<g>
	<path fill="none" stroke="#040000" stroke-width="3" stroke-miterlimit="10" d="M-968.1,388.3c0,2.7-6.2,4.8-13.8,4.8
		c-7.6,0-13.8-2.2-13.8-4.8v-22.4"/>
	<path fill="none" stroke="#040000" stroke-width="3" stroke-miterlimit="10" d="M-995.7,388.3c0,2.7,6.2,4.8,13.8,4.8
		c7.6,0,13.8-2.2,13.8-4.8v-22.4"/>
	<ellipse fill="none" stroke="#040000" stroke-width="3" stroke-miterlimit="10" cx="-981.9" cy="361.1" rx="13.8" ry="4.8"/>
	<path fill="none" stroke="#040000" stroke-width="3" stroke-miterlimit="10" d="M-968,369.4c0,2.7-6.2,4.8-13.8,4.8
		c-7.6,0-13.8-2.2-13.8-4.8"/>
	<path fill="none" stroke="#040000" stroke-width="3" stroke-miterlimit="10" d="M-968,379c0,2.7-6.2,4.8-13.8,4.8
		c-7.6,0-13.8-2.2-13.8-4.8"/>
	<polygon fill="#040000" points="-961.6,373.5 -967.5,373.5 -967.5,371 -962.7,371 -957.6,364.8 -955.6,366.4 	"/>
	<rect x="-967.5" y="378.5" fill="#040000" width="9.9" height="2.5"/>
	<polygon fill="#040000" points="-995.5,372 -1002,372 -1003.8,368.3 -1007.9,368.3 -1007.9,365.8 -1002.3,365.8 -1000.5,369.5 
		-995.5,369.5 	"/>
	<polygon fill="#040000" points="-1006.3,393.3 -1007.9,391.5 -1002.2,386.5 -994.9,386.5 -994.9,389 -1001.2,389 	"/>
	<rect x="-1005.3" y="377.6" fill="#040000" width="10.4" height="2.5"/>
	<polygon fill="#040000" points="-954.2,391.6 -959.8,391.6 -962.4,389.3 -967.5,389.3 -967.5,386.8 -961.4,386.8 -958.9,389.1 
		-954.2,389.1 	"/>
	<path fill="#040000" d="M-1009.3,370.4c-1.8,0-3.3-1.5-3.3-3.3c0-1.8,1.5-3.3,3.3-3.3c1.8,0,3.3,1.5,3.3,3.3
		C-1005.9,368.9-1007.4,370.4-1009.3,370.4z M-1009.3,365.7c-0.7,0-1.3,0.6-1.3,1.3c0,0.7,0.6,1.3,1.3,1.3c0.7,0,1.3-0.6,1.3-1.3
		C-1007.9,366.3-1008.5,365.7-1009.3,365.7z"/>
	<path fill="#040000" d="M-1007.1,382.1c-1.8,0-3.3-1.5-3.3-3.3c0-1.8,1.5-3.3,3.3-3.3c1.8,0,3.3,1.5,3.3,3.3
		C-1003.8,380.6-1005.3,382.1-1007.1,382.1z M-1007.1,377.5c-0.7,0-1.3,0.6-1.3,1.3c0,0.7,0.6,1.3,1.3,1.3c0.7,0,1.3-0.6,1.3-1.3
		C-1005.8,378.1-1006.4,377.5-1007.1,377.5z"/>
	<path fill="#040000" d="M-1008.2,396.6c-1.8,0-3.3-1.5-3.3-3.3c0-1.8,1.5-3.3,3.3-3.3c1.8,0,3.3,1.5,3.3,3.3
		C-1004.9,395.1-1006.4,396.6-1008.2,396.6z M-1008.2,392c-0.7,0-1.3,0.6-1.3,1.3c0,0.7,0.6,1.3,1.3,1.3c0.7,0,1.3-0.6,1.3-1.3
		C-1006.9,392.6-1007.5,392-1008.2,392z"/>
	<path fill="#040000" d="M-955.6,367.7c-1.8,0-3.3-1.5-3.3-3.3c0-1.8,1.5-3.3,3.3-3.3c1.8,0,3.3,1.5,3.3,3.3
		C-952.3,366.2-953.8,367.7-955.6,367.7z M-955.6,363.1c-0.7,0-1.3,0.6-1.3,1.3c0,0.7,0.6,1.3,1.3,1.3c0.7,0,1.3-0.6,1.3-1.3
		C-954.3,363.7-954.9,363.1-955.6,363.1z"/>
	<path fill="#040000" d="M-956.3,382.9c-1.8,0-3.3-1.5-3.3-3.3c0-1.8,1.5-3.3,3.3-3.3c1.8,0,3.3,1.5,3.3,3.3
		C-953,381.4-954.5,382.9-956.3,382.9z M-956.3,378.3c-0.7,0-1.3,0.6-1.3,1.3c0,0.7,0.6,1.3,1.3,1.3c0.7,0,1.3-0.6,1.3-1.3
		C-955,378.9-955.6,378.3-956.3,378.3z"/>
	<path fill="#040000" d="M-952.7,393.4c-1.8,0-3.3-1.5-3.3-3.3s1.5-3.3,3.3-3.3c1.8,0,3.3,1.5,3.3,3.3S-950.9,393.4-952.7,393.4z
		 M-952.7,388.8c-0.7,0-1.3,0.6-1.3,1.3c0,0.7,0.6,1.3,1.3,1.3c0.7,0,1.3-0.6,1.3-1.3C-951.4,389.4-952,388.8-952.7,388.8z"/>
</g>
<g>
	<path fill="#040000" d="M-971.8,262.4c0,1.2-0.9,2.1-2.1,2.1c-1.2,0-2.1-0.9-2.1-2.1c0-1.2,0.9-2.1,2.1-2.1
		C-972.7,260.3-971.8,261.2-971.8,262.4z"/>
	<path fill="#040000" d="M-968.6,279.3v-8.1c0-2.6-2.2-4.6-4.8-4.6h-1c-2.6,0-4.8,2.1-4.8,4.6v8.1h7.1"/>
	<g>
		<path stroke="#040000" stroke-width="0.3007" stroke-miterlimit="10" d="M-1004.6,281.3c-1.6,0-2.9-1.3-2.9-2.9
			c0-1.6,1.3-2.9,2.9-2.9c1.6,0,2.9,1.3,2.9,2.9C-1001.6,280-1003,281.3-1004.6,281.3z M-1004.6,277.1c-0.7,0-1.3,0.6-1.3,1.3
			s0.6,1.3,1.3,1.3c0.7,0,1.3-0.6,1.3-1.3S-1003.8,277.1-1004.6,277.1z"/>
		<path stroke="#040000" stroke-width="0.3007" stroke-miterlimit="10" d="M-987.6,281.3c-1.6,0-2.9-1.3-2.9-2.9
			c0-1.6,1.3-2.9,2.9-2.9c1.6,0,2.9,1.3,2.9,2.9C-984.7,280-986,281.3-987.6,281.3z M-987.6,277.1c-0.7,0-1.3,0.6-1.3,1.3
			s0.6,1.3,1.3,1.3c0.7,0,1.3-0.6,1.3-1.3S-986.9,277.1-987.6,277.1z"/>
		<polygon stroke="#040000" stroke-width="0.3007" stroke-miterlimit="10" points="-984.7,270.8 -986.3,270.8 -986.3,261.8 
			-990.7,261.8 -996.3,267.4 -996.3,270.8 -997.9,270.8 -997.9,266.7 -991.4,260.2 -984.7,260.2 		"/>
		<rect x="-1008" y="255.9" stroke="#040000" stroke-width="0.3007" stroke-miterlimit="10" width="1.6" height="20.6"/>
		<polygon stroke="#040000" stroke-width="0.3007" stroke-miterlimit="10" points="-1000.8,276.6 -1006.4,276.6 -1006.4,275 
			-1002,275 -1000.7,269.7 -984.7,269.7 -984.7,275.8 -986.3,275.8 -986.3,271.3 -999.4,271.3 		"/>
		<polygon stroke="#040000" stroke-width="0.3007" stroke-miterlimit="10" points="-987.9,269.7 -992.9,269.7 -992.9,268.1 
			-989.5,268.1 -989.5,264.7 -987.9,264.7 		"/>
		<rect x="-997.1" y="275" stroke="#040000" stroke-width="0.3007" stroke-miterlimit="10" width="11.6" height="1.6"/>
		
			<rect x="-1006.4" y="268.1" transform="matrix(0.9285 -0.3714 0.3714 0.9285 -173.0728 -353.9989)" stroke="#040000" stroke-width="0.3007" stroke-miterlimit="10" width="1.6" height="8.6"/>
		<polygon stroke="#040000" stroke-width="0.3007" stroke-miterlimit="10" points="-1008.5,265.5 -1012.5,265.5 -1012.5,263.9 
			-1010.1,263.9 -1010.1,257.5 -1012.5,257.5 -1012.5,255.9 -1008.5,255.9 		"/>
	</g>
	<polyline fill="none" stroke="#040000" stroke-width="2.5236" stroke-miterlimit="10" points="-968.1,299.2 -968.1,303.7 
		-982.3,303.7 -982.3,289.1 -968.1,289.1 -968.1,299.2 	"/>
	<path fill="none" stroke="#040000" stroke-width="2.5236" stroke-miterlimit="10" d="M-992.5,296"/>
	<polyline fill="none" stroke="#040000" stroke-width="2.5236" stroke-miterlimit="10" points="-992.5,300.5 -1006.7,300.5 
		-1006.7,283.9 	"/>
	<polyline fill="none" stroke="#040000" stroke-width="2.5236" stroke-miterlimit="10" points="-997.6,295.1 -992.1,300.2 
		-997.6,305.2 	"/>
</g>
</svg>
