<?xml version="1.0" encoding="utf-8"?>
<!-- Generator: Adobe Illustrator 22.0.1, SVG Export Plug-In . SVG Version: 6.00 Build 0)  -->
<svg version="1.2" baseProfile="tiny" id="레이어_1"
	 xmlns="http://www.w3.org/2000/svg" xmlns:xlink="http://www.w3.org/1999/xlink" x="0px" y="0px" viewBox="0 0 64 64"
	 xml:space="preserve">
<g>
	<path d="M-1068.8,227.2v-1h2.7v-2.1h1.2v2.1h2.7v-2.1h1.2v2.1h2.7v1H-1068.8z M-1060.5,223.1c-0.7,0.5-1.7,0.8-3,0.8
		c-1.3,0-2.3-0.3-3-0.8c-0.7-0.5-1.1-1.2-1.1-2c0-0.8,0.4-1.5,1.1-2c0.7-0.5,1.7-0.8,3-0.8c1.3,0,2.3,0.3,3,0.8
		c0.7,0.5,1.1,1.2,1.1,2C-1059.4,221.9-1059.8,222.5-1060.5,223.1z M-1061.5,219.8c-0.6-0.3-1.2-0.5-2-0.5c-0.8,0-1.5,0.1-2,0.5
		c-0.6,0.3-0.8,0.7-0.8,1.3c0,0.5,0.3,1,0.8,1.3s1.2,0.5,2,0.5c0.8,0,1.5-0.2,2-0.5c0.6-0.3,0.8-0.7,0.8-1.3
		C-1060.7,220.5-1060.9,220.1-1061.5,219.8z"/>
	<path d="M-1049.9,223.2v1h1.4v2.5h-6.5v0.7h6.8v0.9h-8.1v-2.5h6.5v-0.7h-6.5v-0.9h1.4v-1h-2.8v-0.9h10.6v0.9H-1049.9z
		 M-1049.5,221.1c-0.7,0.3-1.7,0.5-3,0.5c-1.3,0-2.3-0.2-3-0.5c-0.7-0.3-1-0.8-1-1.3c0-0.5,0.3-1,1-1.4c0.7-0.4,1.7-0.5,3-0.5
		c1.3,0,2.3,0.2,3,0.6c0.7,0.4,1,0.8,1,1.3C-1048.4,220.3-1048.8,220.7-1049.5,221.1z M-1050.5,219c-0.5-0.2-1.1-0.3-2-0.3
		c-0.8,0-1.5,0.1-2,0.3c-0.5,0.2-0.7,0.4-0.7,0.7c0,0.3,0.2,0.5,0.7,0.7c0.5,0.2,1.1,0.3,2,0.3c0.8,0,1.5-0.1,2-0.3
		c0.5-0.2,0.7-0.4,0.7-0.7C-1049.8,219.4-1050,219.2-1050.5,219z M-1051.2,223.2h-2.6v1h2.6V223.2z"/>
	<path d="M-1046.7,227.2v-1h3v-2.3h-2.1v-1h1.7l-0.3-2.8h1.2l0.3,2.8h2.9l0.3-2.8h1.2l-0.3,2.8h1.7v1h-2v2.3h2.9v1H-1046.7z
		 M-1045.6,219.8v-1h8.3v1H-1045.6z M-1040.3,223.9h-2.3v2.3h2.3V223.9z"/>
	<path d="M-1033.4,229c-0.4-0.6-0.9-1.4-1.4-2.4c-0.5-1-0.7-2.1-0.7-3.4c0-1.3,0.2-2.5,0.7-3.4c0.5-1,0.9-1.8,1.4-2.4h0.9
		c-0.6,1.1-1.1,2.1-1.4,3c-0.3,0.9-0.4,1.9-0.4,2.8c0,0.9,0.1,1.8,0.4,2.8c0.3,0.9,0.7,2,1.4,3H-1033.4z"/>
	<path d="M-1028.1,219.9v7.5h-1.1v-7.5h-2.8v-1h6.8v1H-1028.1z"/>
	<path d="M-1021.5,227.5c-0.1-0.1-0.1-0.3-0.1-0.4c0-0.2,0-0.3-0.1-0.5c-0.2,0.3-0.6,0.5-1,0.7c-0.4,0.2-0.8,0.3-1.3,0.4
		c-0.6,0-1.2-0.1-1.6-0.3c-0.5-0.2-0.7-0.7-0.8-1.2c-0.1-0.6,0-1,0.3-1.3c0.3-0.3,0.7-0.5,1.1-0.7c0.4-0.1,0.8-0.2,1.2-0.2
		c0.4,0,0.8-0.1,1.2-0.1c0.2,0,0.4-0.1,0.6-0.1c0.2-0.1,0.3-0.2,0.3-0.5c0-0.3-0.1-0.5-0.4-0.8c-0.2-0.2-0.7-0.4-1.2-0.4
		c-0.6,0-1,0.1-1.3,0.3c-0.3,0.2-0.4,0.5-0.3,0.8h-1.1c-0.1-0.7,0.2-1.2,0.7-1.5c0.6-0.4,1.2-0.5,2-0.5c0.7,0,1.3,0.2,1.9,0.5
		c0.6,0.4,0.8,0.9,0.8,1.5v3.4c0,0.3,0,0.5,0.1,0.7c0.1,0.2,0.1,0.3,0.1,0.3H-1021.5z M-1021.7,224.3c-0.1,0.1-0.2,0.1-0.3,0.2
		c-0.1,0.1-0.2,0.1-0.4,0.1c-0.2,0.1-0.6,0.1-1,0.1c-0.4,0-0.7,0.1-0.9,0.1c-0.4,0.1-0.6,0.3-0.8,0.4c-0.2,0.2-0.3,0.4-0.2,0.7
		c0,0.3,0.2,0.5,0.5,0.7c0.3,0.1,0.6,0.2,0.9,0.1c0.7,0,1.3-0.3,1.6-0.6c0.4-0.4,0.6-0.7,0.6-1V224.3z"/>
	<path d="M-1016,222.2c-0.2,0-0.4,0-0.6,0c-0.2,0-0.3,0.1-0.5,0.1c-0.4,0.2-0.6,0.4-0.8,0.8c-0.2,0.3-0.3,0.8-0.3,1.4v2.9h-1.1v-6.1
		h1.1v0.9l0.1,0c0.1-0.2,0.3-0.4,0.5-0.6c0.2-0.1,0.4-0.3,0.6-0.4c0.2-0.1,0.4-0.1,0.6-0.1c0.2,0,0.3,0,0.3,0V222.2z"/>
	<path d="M-1015,220v-1.1h1.1v1.1H-1015z M-1015,227.4v-6.2h1.1v6.2H-1015z"/>
	<path d="M-1011.3,222.3v5.2h-1.1v-5.2l-0.8,0v-0.9l0.8,0v-0.7c0-0.3,0-0.6,0.1-0.7c0-0.2,0.1-0.3,0.2-0.5c0.1-0.1,0.2-0.3,0.4-0.4
		c0.2-0.1,0.4-0.1,0.6-0.1h0.8v0.9c-0.1,0-0.2,0-0.3,0c-0.1,0-0.3,0-0.4,0.1c-0.1,0.1-0.2,0.2-0.2,0.3c0,0.1,0,0.3,0,0.4v0.6l0.9,0
		v0.9H-1011.3z"/>
	<path d="M-1007.7,222.3v5.2h-1.1v-5.2l-0.8,0v-0.9l0.8,0v-0.7c0-0.3,0-0.6,0.1-0.7c0-0.2,0.1-0.3,0.2-0.5c0.1-0.1,0.2-0.3,0.4-0.4
		c0.2-0.1,0.4-0.1,0.6-0.1h0.8v0.9c-0.1,0-0.2,0-0.3,0c-0.1,0-0.3,0-0.4,0.1c-0.1,0.1-0.2,0.2-0.2,0.3c0,0.1,0,0.3,0,0.4v0.6l0.9,0
		v0.9H-1007.7z"/>
	<path d="M-1004.8,226c0.3-0.9,0.4-1.9,0.4-2.8c0-0.9-0.1-1.8-0.4-2.8c-0.3-0.9-0.7-2-1.4-3h0.9c0.4,0.6,0.9,1.4,1.4,2.4
		c0.5,1,0.7,2.1,0.7,3.4c0,1.3-0.2,2.5-0.7,3.4c-0.5,1-0.9,1.8-1.4,2.4h-0.9C-1005.6,227.9-1005.1,226.9-1004.8,226z"/>
</g>
<g>
	<path d="M-535.3,223.2c-0.6,1.4-1.6,2.5-3.1,3.4l-0.9-0.7c1.2-0.6,2.1-1.5,2.7-2.6c0.6-1.1,0.9-2.1,0.9-3h-2.9v-1h4.2
		C-534.4,220.5-534.7,221.8-535.3,223.2z M-533,228v-3.6h-1.5v-1h1.5v-1.8h-1.3v-1h1.3v-2.3h1.2v9.8H-533z M-530.8,228.5v-10.6h1.2
		v10.6H-530.8z"/>
	<path d="M-522.2,224.1c-0.5-0.2-1.1-0.6-1.6-1.1c-0.6-0.5-1-1-1.2-1.5c-0.2,0.6-0.6,1.1-1.1,1.6c-0.5,0.5-1.1,0.9-1.7,1.3l-0.8-0.8
		c1.1-0.6,1.9-1.2,2.4-2c0.4-0.7,0.6-1.6,0.6-2.5v-0.9h1.3v0.9c0,0.8,0.2,1.6,0.7,2.4c0.5,0.7,1.2,1.3,2.2,1.8L-522.2,224.1z
		 M-526.4,228.2v-3.3h1.2v2.3h6.4v1H-526.4z M-519.1,217.9v3.1h1.5v1h-1.5v3.6h-1.2v-7.6H-519.1z"/>
	<path d="M-510.9,226.4c-0.5-0.2-1-0.6-1.6-1.3c-0.6-0.6-1-1.3-1.3-1.9c-0.2,0.6-0.6,1.2-1.2,1.9c-0.6,0.7-1.2,1.2-1.7,1.5l-1-0.8
		c1.1-0.6,1.9-1.4,2.4-2.4c0.5-1,0.7-2.1,0.7-3.4v-1.7h1.3v1.7c0,1.3,0.3,2.4,0.8,3.2c0.5,0.8,1.3,1.6,2.3,2.2L-510.9,226.4z
		 M-508.9,228.5v-6h-2.4v-1.1h2.4v-3.5h1.2v10.6H-508.9z"/>
	<path d="M-504.1,229c-0.4-0.6-0.9-1.4-1.4-2.4c-0.5-1-0.7-2.1-0.7-3.4c0-1.3,0.2-2.5,0.7-3.4c0.5-1,0.9-1.8,1.4-2.4h0.9
		c-0.6,1.1-1.1,2.1-1.4,3c-0.3,0.9-0.4,1.9-0.4,2.8c0,0.9,0.1,1.8,0.4,2.8c0.3,0.9,0.7,2,1.4,3H-504.1z"/>
	<path d="M-496,223.7c0.4,0.4,0.5,0.9,0.5,1.5c0,0.7-0.4,1.3-0.9,1.7c-0.6,0.4-1.3,0.6-2.1,0.6h-3.5v-8.5h3.6c0.8,0,1.4,0.2,1.8,0.5
		c0.4,0.4,0.7,0.8,0.8,1.3c0.1,0.5,0,0.9-0.2,1.3c-0.2,0.4-0.5,0.6-0.8,0.8C-496.7,223.1-496.4,223.3-496,223.7z M-497.5,222.1
		c0.3-0.2,0.4-0.6,0.4-1c0-0.4-0.1-0.7-0.4-0.9s-0.7-0.3-1.2-0.3h-2.3v2.6h2.3C-498.2,222.5-497.8,222.4-497.5,222.1z M-497.2,226.1
		c0.3-0.3,0.4-0.6,0.5-1.1c0-0.5-0.1-0.8-0.5-1.1c-0.3-0.2-0.8-0.4-1.3-0.4h-2.4v2.9h2.4C-498,226.5-497.5,226.3-497.2,226.1z"/>
	<path d="M-494.5,220v-1.1h1.1v1.1H-494.5z M-494.5,227.4v-6.2h1.1v6.2H-494.5z"/>
	<path d="M-491.9,227.4V219h1.1v8.5H-491.9z"/>
	<path d="M-489.3,227.4V219h1.1v8.5H-489.3z"/>
	<path d="M-485.8,226c0.3-0.9,0.4-1.9,0.4-2.8c0-0.9-0.1-1.8-0.4-2.8c-0.3-0.9-0.7-2-1.4-3h0.9c0.4,0.6,0.9,1.4,1.4,2.4
		c0.5,1,0.7,2.1,0.7,3.4c0,1.3-0.2,2.5-0.7,3.4c-0.5,1-0.9,1.8-1.4,2.4h-0.9C-486.6,227.9-486.1,226.9-485.8,226z"/>
</g>
<g>
	<path d="M-711.5,224.3v-1h4.7V222h-3.3v-3.8h7.8v3.8h-3.3v1.2h4.7v1H-711.5z M-703.5,228.5v-2.1h-6.8v-1h8v3.1H-703.5z
		 M-703.5,219.3h-5.4v1.8h5.4V219.3z"/>
	<path d="M-700.5,224.7v-1h4.6v-0.9h-3.2V220h6.4v-0.9h-6.4v-0.9h7.7v2.8h-6.5v0.9h6.7v0.9h-3.5v0.9h4.7v1H-700.5z M-692.5,228.5v-2
		h-6.8v-1h8v3H-692.5z"/>
	<path d="M-687.2,229c-0.4-0.6-0.9-1.4-1.4-2.4c-0.5-1-0.7-2.1-0.7-3.4c0-1.3,0.2-2.5,0.7-3.4c0.5-1,0.9-1.8,1.4-2.4h0.9
		c-0.6,1.1-1.1,2.1-1.4,3c-0.3,0.9-0.4,1.9-0.4,2.8c0,0.9,0.1,1.8,0.4,2.8c0.3,0.9,0.7,2,1.4,3H-687.2z"/>
	<path d="M-685.1,227.4V219h1.1v7.5h4.5v1H-685.1z"/>
	<path d="M-678.7,220v-1.1h1.1v1.1H-678.7z M-678.7,227.4v-6.2h1.1v6.2H-678.7z"/>
	<path d="M-671.5,224.8c0.2,0.2,0.3,0.5,0.3,0.9c0,0.6-0.3,1-0.8,1.4c-0.5,0.4-1.1,0.5-1.8,0.5c-1.1,0-1.8-0.3-2.2-0.8
		c-0.4-0.5-0.6-1-0.6-1.4h1.1c0,0.3,0.2,0.6,0.5,0.9c0.3,0.2,0.7,0.3,1.2,0.3c0.4,0,0.8-0.1,1-0.2c0.3-0.1,0.4-0.4,0.5-0.6
		c0-0.2,0-0.4-0.1-0.5c-0.1-0.1-0.3-0.3-0.5-0.4c-0.3-0.2-0.7-0.3-1.1-0.3c-0.4-0.1-0.7-0.1-1-0.2c-0.4-0.1-0.7-0.3-0.9-0.6
		c-0.2-0.3-0.4-0.6-0.3-1c0-0.5,0.3-0.9,0.7-1.2c0.4-0.4,1-0.6,1.8-0.6c0.9,0,1.5,0.2,1.9,0.7c0.4,0.5,0.6,0.9,0.6,1.3h-1.1
		c0-0.2-0.1-0.4-0.3-0.6c-0.2-0.2-0.6-0.4-1.2-0.4c-0.5,0-0.8,0.1-1,0.3c-0.2,0.2-0.3,0.4-0.3,0.6c0,0.3,0.1,0.5,0.3,0.6
		c0.2,0.1,0.4,0.2,0.6,0.3c0.3,0.1,0.6,0.1,1,0.2c0.4,0.1,0.7,0.2,1,0.3C-672,224.4-671.8,224.6-671.5,224.8z"/>
	<path d="M-668.8,227.5c-0.2,0-0.4-0.1-0.6-0.2c-0.2-0.1-0.3-0.2-0.4-0.4c-0.1-0.1-0.2-0.3-0.2-0.4c0-0.2-0.1-0.4-0.1-0.7v-3.5h-0.8
		v-0.9l0.8,0v-1.9h1.1v1.9l0.9,0v0.9h-0.9v3.4c0,0.1,0,0.3,0,0.4c0,0.1,0.1,0.2,0.2,0.3c0.1,0.1,0.2,0.1,0.4,0.2c0.1,0,0.3,0,0.4,0
		l0,0.9H-668.8z"/>
	<path d="M-666.1,226c0.3-0.9,0.4-1.9,0.4-2.8c0-0.9-0.1-1.8-0.4-2.8c-0.3-0.9-0.7-2-1.4-3h0.9c0.4,0.6,0.9,1.4,1.4,2.4
		c0.5,1,0.7,2.1,0.7,3.4c0,1.3-0.2,2.5-0.7,3.4c-0.5,1-0.9,1.8-1.4,2.4h-0.9C-666.8,227.9-666.3,226.9-666.1,226z"/>
</g>
<g>
	<path d="M-889.8,224c-0.5-0.2-1-0.5-1.5-0.9c-0.5-0.4-0.9-0.8-1.2-1.3c-0.1,0.4-0.5,0.9-1,1.4c-0.6,0.5-1.1,0.8-1.7,1.1l-0.9-0.9
		c1.4-0.6,2.2-1.2,2.5-1.9c0.3-0.7,0.5-1.3,0.5-1.6v-0.3h-2.2v-1h5.7v1h-2.2v0.3c0,0.3,0.2,0.8,0.5,1.5c0.3,0.7,1.1,1.2,2.2,1.7
		L-889.8,224z M-894.1,228.2v-3.4h1.2v2.4h6.7v1H-894.1z M-887.6,225.6v-4.1h-2.1v-1.1h2.1v-2.4h1.2v7.6H-887.6z"/>
	<path d="M-879,226.4c-0.4-0.3-1-0.7-1.5-1.3c-0.6-0.6-0.9-1.1-1.1-1.7c-0.2,0.6-0.6,1.2-1.1,1.8c-0.6,0.6-1.1,1.1-1.7,1.4l-1-0.8
		c1.4-0.8,2.3-1.7,2.6-2.7c0.3-1,0.5-1.8,0.5-2.3v-0.8h-2.4v-1h6.1v1h-2.4v0.8c0,0.5,0.2,1.2,0.5,2.1c0.3,0.9,1.1,1.7,2.3,2.4
		L-879,226.4z M-876,217.9v4.2h1.6v1.1h-1.6v5.3h-1.2v-10.6H-876z"/>
	<path d="M-868.2,224.2v2.2h-1.2v-2.2h-4.8v-1h10.6v1H-868.2z M-872.9,222.1v-3.9h7.8v3.9H-872.9z M-872.9,228.2v-2.9h1.2v1.9h6.9v1
		H-872.9z M-866.3,219.3h-5.4v1.8h5.4V219.3z"/>
	<path d="M-856.7,226.4c-0.5-0.2-1-0.6-1.6-1.3c-0.6-0.6-1-1.3-1.3-1.9c-0.2,0.6-0.6,1.2-1.2,1.9c-0.6,0.7-1.2,1.2-1.7,1.5l-1-0.8
		c1.1-0.6,1.9-1.4,2.4-2.4c0.5-1,0.7-2.1,0.7-3.4v-1.7h1.3v1.7c0,1.3,0.3,2.4,0.8,3.2c0.5,0.8,1.3,1.6,2.3,2.2L-856.7,226.4z
		 M-854.7,228.5v-6h-2.4v-1.1h2.4v-3.5h1.2v10.6H-854.7z"/>
	<path d="M-849.9,229c-0.4-0.6-0.9-1.4-1.4-2.4c-0.5-1-0.7-2.1-0.7-3.4c0-1.3,0.2-2.5,0.7-3.4c0.5-1,0.9-1.8,1.4-2.4h0.9
		c-0.6,1.1-1.1,2.1-1.4,3c-0.3,0.9-0.4,1.9-0.4,2.8c0,0.9,0.1,1.8,0.4,2.8c0.3,0.9,0.7,2,1.4,3H-849.9z"/>
	<path d="M-847.8,227.4V219h5.9v1h-4.8v2.6h4.6v1l-4.6,0v2.9h5v1H-847.8z"/>
	<path d="M-835,220.1c0.7,0.8,1.1,1.8,1.1,3c0,1.2-0.4,2.3-1.1,3.1c-0.7,0.8-1.7,1.2-2.9,1.2h-2.9v-8.5h2.9
		C-836.7,218.9-835.7,219.3-835,220.1z M-835.9,225.5c0.5-0.6,0.7-1.4,0.7-2.3c0-0.9-0.2-1.7-0.7-2.3c-0.5-0.6-1.2-0.9-2.2-0.9h-1.5
		v6.5h1.5C-837.1,226.5-836.4,226.1-835.9,225.5z"/>
	<path d="M-832.8,227.4V219h1.1v8.5H-832.8z"/>
	<path d="M-829.3,226c0.3-0.9,0.4-1.9,0.4-2.8c0-0.9-0.1-1.8-0.4-2.8c-0.3-0.9-0.7-2-1.4-3h0.9c0.4,0.6,0.9,1.4,1.4,2.4
		c0.5,1,0.7,2.1,0.7,3.4c0,1.3-0.2,2.5-0.7,3.4c-0.5,1-0.9,1.8-1.4,2.4h-0.9C-830,227.9-829.5,226.9-829.3,226z"/>
</g>
<g>
	<path d="M-1078,377.8c-0.5-0.3-1-0.7-1.5-1.3c-0.6-0.6-0.9-1.1-1.1-1.7c-0.2,0.7-0.6,1.3-1.2,1.9c-0.5,0.6-1.1,1-1.6,1.4l-1-0.8
		c1.2-0.7,2-1.5,2.5-2.4c0.4-0.9,0.6-1.8,0.6-2.6v-0.8h-2.4v-1h6.1v1h-2.4v0.8c0,0.8,0.2,1.7,0.6,2.5c0.4,0.8,1.1,1.5,2.1,2.1
		L-1078,377.8z M-1075.9,379.9v-10.6h1.2v10.6H-1075.9z"/>
	<path d="M-1073.6,374.4v-1h7.5c0.1-0.2,0.2-0.6,0.3-1.2c0.1-0.5,0.2-1,0.2-1.4h-6.8v-1h8.2c0,0.3-0.1,0.8-0.2,1.7
		c-0.1,0.8-0.3,1.5-0.5,2h1.8v1H-1073.6z M-1072.2,379.8v-4.5h1.2v1.2h5.4v-1.2h1.2v4.5H-1072.2z M-1065.6,377.5h-5.4v1.3h5.4V377.5
		z"/>
	<path d="M-1054.2,375.8V374h-2.4v1h-5.1v-4.8h5.1v1h2.4v-1.7h1.2v6.4H-1054.2z M-1053.9,379.5c-0.7,0.4-1.7,0.6-3,0.6
		c-1.3,0-2.3-0.2-3-0.6c-0.7-0.4-1-0.9-1-1.5c0-0.6,0.3-1.1,1-1.5c0.7-0.4,1.7-0.6,3-0.6c1.3,0,2.3,0.2,3,0.6c0.7,0.4,1,0.9,1,1.5
		C-1052.9,378.6-1053.2,379.1-1053.9,379.5z M-1057.8,371.1h-2.7v2.8h2.7V371.1z M-1054.9,377.1c-0.5-0.2-1.2-0.3-2-0.3
		c-0.8,0-1.5,0.1-2,0.3c-0.5,0.2-0.8,0.5-0.8,0.8c0,0.4,0.3,0.6,0.8,0.8c0.5,0.2,1.2,0.3,2,0.3c0.8,0,1.5-0.1,2-0.3
		c0.5-0.2,0.8-0.5,0.8-0.8C-1054.2,377.6-1054.4,377.3-1054.9,377.1z M-1054.2,372h-2.4v1h2.4V372z"/>
	<path d="M-1046.4,377.9c-0.4-0.3-0.8-0.7-1.3-1.3c-0.5-0.6-0.7-1.1-0.9-1.6c-0.1,0.5-0.4,1-0.8,1.7c-0.4,0.6-0.9,1.1-1.4,1.5
		l-1-0.7c0.9-0.6,1.6-1.4,2-2.4c0.4-1,0.6-2,0.6-3.1v-1.8h1.3v1.8c0,1.1,0.2,2.1,0.6,2.9c0.4,0.9,1,1.6,1.8,2.2L-1046.4,377.9z
		 M-1044.9,379.4v-5.4h-1.7V373h1.7v-3.4h1.2v9.8H-1044.9z M-1042.6,379.9v-10.6h1.2v10.6H-1042.6z"/>
	<path d="M-1038.2,380.5c-0.4-0.6-0.9-1.4-1.4-2.4c-0.5-1-0.7-2.1-0.7-3.4c0-1.3,0.2-2.5,0.7-3.4c0.5-1,0.9-1.8,1.4-2.4h0.9
		c-0.6,1.1-1.1,2.1-1.4,3c-0.3,0.9-0.4,1.9-0.4,2.8c0,0.9,0.1,1.8,0.4,2.8c0.3,0.9,0.7,2,1.4,3H-1038.2z"/>
	<path d="M-1030.6,371.1c0.6,0.5,0.8,1.1,0.8,1.9c0,0.8-0.3,1.4-0.8,1.9c-0.6,0.5-1.2,0.7-2.1,0.7h-2.4v3.3h-1.1v-8.5h3.5
		C-1031.9,370.4-1031.2,370.6-1030.6,371.1z M-1031.5,374.2c0.4-0.3,0.5-0.7,0.5-1.2c0-0.6-0.2-1-0.5-1.2c-0.4-0.2-0.8-0.3-1.2-0.3
		h-2.4v3.1h2.4C-1032.2,374.5-1031.8,374.4-1031.5,374.2z"/>
	<path d="M-1024.9,378.9c-0.1-0.1-0.1-0.3-0.1-0.4c0-0.2,0-0.3-0.1-0.5c-0.2,0.3-0.6,0.5-1,0.7c-0.4,0.2-0.8,0.3-1.3,0.4
		c-0.6,0-1.2-0.1-1.6-0.3c-0.5-0.2-0.7-0.7-0.8-1.2c-0.1-0.6,0-1,0.3-1.3c0.3-0.3,0.7-0.5,1.1-0.7c0.4-0.1,0.8-0.2,1.2-0.2
		c0.4,0,0.8-0.1,1.2-0.1c0.2,0,0.4-0.1,0.6-0.1c0.2-0.1,0.3-0.2,0.3-0.5c0-0.3-0.1-0.5-0.4-0.8c-0.2-0.2-0.7-0.4-1.2-0.4
		c-0.6,0-1,0.1-1.3,0.3c-0.3,0.2-0.4,0.5-0.3,0.8h-1.1c-0.1-0.7,0.2-1.2,0.7-1.5c0.6-0.4,1.2-0.5,2-0.5c0.7,0,1.3,0.2,1.9,0.5
		c0.6,0.4,0.8,0.9,0.8,1.5v3.4c0,0.3,0,0.5,0.1,0.7c0.1,0.2,0.1,0.3,0.1,0.3H-1024.9z M-1025.1,375.7c-0.1,0.1-0.2,0.1-0.3,0.2
		c-0.1,0.1-0.2,0.1-0.4,0.1c-0.2,0.1-0.6,0.1-1,0.1c-0.4,0-0.7,0.1-0.9,0.1c-0.4,0.1-0.6,0.3-0.8,0.4c-0.2,0.2-0.3,0.4-0.2,0.7
		c0,0.3,0.2,0.5,0.5,0.7c0.3,0.1,0.6,0.2,0.9,0.1c0.7,0,1.3-0.3,1.6-0.6c0.4-0.4,0.6-0.7,0.6-1V375.7z"/>
	<path d="M-1020.1,379.6c-0.1,0.2-0.2,0.4-0.3,0.5c-0.1,0.1-0.3,0.3-0.4,0.4c-0.2,0.1-0.4,0.2-0.5,0.2c-0.2,0-0.4,0-0.5,0h-0.4v-0.9
		h0.6c0.2,0,0.3-0.1,0.4-0.2c0.1-0.1,0.2-0.2,0.3-0.3l0.3-0.6l-2.5-5.9l1.1,0l1.9,4.5l1.9-4.5h1.1L-1020.1,379.6z"/>
	<path d="M-1009.2,378.9l0-3.9c0-0.5-0.1-0.9-0.2-1.1c-0.1-0.3-0.5-0.4-1-0.3c-0.4,0-0.7,0.2-1,0.5c-0.2,0.3-0.4,0.7-0.4,1.2v3.7
		h-1.1V375c0-0.5-0.1-0.9-0.2-1.1c-0.1-0.3-0.5-0.4-0.9-0.3c-0.4,0-0.8,0.2-1,0.5c-0.2,0.3-0.4,0.7-0.4,1.2v3.7h-1.1v-6.2h1.1v0.7
		c0.2-0.2,0.5-0.5,0.8-0.7c0.3-0.2,0.8-0.3,1.3-0.3c0.3,0,0.5,0.1,0.8,0.3c0.2,0.2,0.4,0.4,0.6,0.8c0.2-0.2,0.4-0.4,0.8-0.7
		c0.4-0.3,0.9-0.4,1.5-0.3c0.6,0.1,1,0.3,1.2,0.8c0.2,0.4,0.3,0.9,0.3,1.4v4.2H-1009.2z"/>
	<path d="M-1006,376.1c0,0.6,0.2,1.1,0.6,1.5c0.4,0.4,0.8,0.6,1.4,0.6c0.5,0,0.9-0.1,1.2-0.3c0.3-0.2,0.4-0.4,0.5-0.6h1.2
		c-0.1,0.4-0.4,0.8-0.9,1.2c-0.4,0.4-1.1,0.6-1.9,0.6c-0.9,0-1.6-0.3-2.2-0.9c-0.6-0.6-0.9-1.4-0.9-2.3c0-0.9,0.3-1.7,0.8-2.3
		c0.6-0.6,1.3-0.9,2.2-0.9c0.8,0,1.6,0.3,2.2,0.8c0.6,0.6,0.9,1.5,0.9,2.7H-1006z M-1002.1,375.3c0-0.6-0.2-1-0.6-1.4
		c-0.3-0.3-0.8-0.5-1.4-0.5c-0.5,0-1,0.2-1.3,0.5c-0.3,0.3-0.6,0.8-0.6,1.4H-1002.1z"/>
	<path d="M-995.7,378.9v-3.7c0-0.6-0.1-1-0.4-1.2c-0.2-0.2-0.6-0.4-1.1-0.4c-0.5,0-0.9,0.2-1.3,0.5c-0.3,0.3-0.5,0.8-0.5,1.3v3.5
		h-1.1v-6.2h1.1v0.7c0.3-0.3,0.6-0.5,1-0.7c0.4-0.2,0.9-0.3,1.4-0.2c0.7,0.1,1.1,0.4,1.4,0.8c0.3,0.5,0.4,0.9,0.4,1.3v4.2H-995.7z"
		/>
	<path d="M-991.7,378.9c-0.2,0-0.4-0.1-0.6-0.2c-0.2-0.1-0.3-0.2-0.4-0.4c-0.1-0.1-0.2-0.3-0.2-0.4c0-0.2-0.1-0.4-0.1-0.7v-3.5h-0.8
		v-0.9l0.8,0v-1.9h1.1v1.9l0.9,0v0.9h-0.9v3.4c0,0.1,0,0.3,0,0.4c0,0.1,0.1,0.2,0.2,0.3c0.1,0.1,0.2,0.1,0.4,0.2c0.1,0,0.3,0,0.4,0
		l0,0.9H-991.7z"/>
	<path d="M-989,377.4c0.3-0.9,0.4-1.9,0.4-2.8c0-0.9-0.1-1.8-0.4-2.8c-0.3-0.9-0.7-2-1.4-3h0.9c0.4,0.6,0.9,1.4,1.4,2.4
		c0.5,1,0.7,2.1,0.7,3.4c0,1.3-0.2,2.5-0.7,3.4c-0.5,1-0.9,1.8-1.4,2.4h-0.9C-989.7,379.4-989.2,378.4-989,377.4z"/>
</g>
<g>
	<path d="M-547.4,371.6v-2.1h1.2v6h-1.2v-2.8h-1.2c-0.1,0.6-0.4,1.1-0.8,1.5c-0.5,0.4-1,0.6-1.7,0.6c-0.7,0-1.3-0.2-1.8-0.7
		c-0.5-0.5-0.7-1.1-0.7-1.8c0-0.7,0.2-1.3,0.7-1.8c0.5-0.5,1.1-0.7,1.8-0.7c0.6,0,1.1,0.2,1.5,0.5c0.4,0.3,0.7,0.8,0.9,1.3H-547.4z
		 M-552,371.2c-0.3,0.3-0.4,0.6-0.4,1.1c0,0.5,0.1,0.8,0.4,1.1c0.3,0.3,0.6,0.4,0.9,0.4c0.4,0,0.7-0.1,0.9-0.4
		c0.3-0.3,0.4-0.6,0.4-1.1c0-0.5-0.1-0.8-0.4-1.1c-0.3-0.3-0.6-0.4-0.9-0.4C-551.5,370.8-551.8,371-552,371.2z M-545.2,379.9v-2.8
		h-6.7v-1h7.9v3.8H-545.2z M-545.2,375.5v-6.2h1.2v6.2H-545.2z"/>
	<path d="M-537.6,374.8c-0.4-0.2-0.8-0.5-1.2-0.9c-0.4-0.4-0.8-0.8-1-1.2c-0.1,0.4-0.4,0.8-0.8,1.3c-0.4,0.4-0.9,0.8-1.3,1l-0.9-0.8
		c1-0.5,1.7-1.1,2-1.9c0.3-0.8,0.4-1.4,0.4-2v-0.7h1.3v0.7c0,0.6,0.1,1.2,0.4,1.8c0.3,0.7,0.9,1.2,1.9,1.7L-537.6,374.8z
		 M-540.6,379.8v-2.6h6.3v-0.8h-6.3v-0.9h7.7v2.6h-6.3v0.8h6.6v0.9H-540.6z M-536.4,374.9v-2.7h-1.8v-1h1.8v-1.7h1.2v5.4H-536.4z
		 M-534.1,374.9v-5.6h1.2v5.6H-534.1z"/>
	<path d="M-525.8,375.6v2.2h-1.2v-2.2h-4.8v-1h10.6v1H-525.8z M-530.5,373.6v-3.9h7.8v3.9H-530.5z M-530.5,379.7v-2.9h1.2v1.9h6.9v1
		H-530.5z M-523.9,370.7h-5.4v1.8h5.4V370.7z"/>
	<path d="M-514.3,377.9c-0.5-0.2-1-0.6-1.6-1.3c-0.6-0.6-1-1.3-1.3-1.9c-0.2,0.6-0.6,1.2-1.2,1.9c-0.6,0.7-1.2,1.2-1.7,1.5l-1-0.8
		c1.1-0.6,1.9-1.4,2.4-2.4c0.5-1,0.7-2.1,0.7-3.4V370h1.3v1.7c0,1.3,0.3,2.4,0.8,3.2c0.5,0.8,1.3,1.6,2.3,2.2L-514.3,377.9z
		 M-512.3,379.9v-6h-2.4v-1.1h2.4v-3.5h1.2v10.6H-512.3z"/>
	<path d="M-507.5,380.5c-0.4-0.6-0.9-1.4-1.4-2.4c-0.5-1-0.7-2.1-0.7-3.4c0-1.3,0.2-2.5,0.7-3.4c0.5-1,0.9-1.8,1.4-2.4h0.9
		c-0.6,1.1-1.1,2.1-1.4,3c-0.3,0.9-0.4,1.9-0.4,2.8c0,0.9,0.1,1.8,0.4,2.8c0.3,0.9,0.7,2,1.4,3H-507.5z"/>
	<path d="M-505.5,378.9v-8.5h5.9v1h-4.8v2.6h4.6v1l-4.6,0v2.9h5v1H-505.5z"/>
	<path d="M-494.4,378.9l-1.7-2.3l-1.7,2.3h-1.3l2.4-3.2l-2.2-3h1.3l1.6,2.1l1.6-2.1h1.3l-2.2,3l2.4,3.2H-494.4z"/>
	<path d="M-486.9,377c-0.1,0.6-0.5,1.1-0.9,1.5c-0.5,0.4-1.1,0.7-2,0.7c-1,0-1.7-0.3-2.3-0.9c-0.6-0.6-0.8-1.4-0.8-2.4
		c0-1,0.3-1.7,0.8-2.4c0.6-0.6,1.3-0.9,2.3-0.9c0.8,0,1.5,0.2,2,0.7c0.5,0.5,0.8,1,0.9,1.5h-1.2c-0.1-0.3-0.2-0.5-0.5-0.8
		c-0.3-0.3-0.7-0.4-1.2-0.4c-0.6,0-1.1,0.2-1.4,0.7c-0.3,0.4-0.5,1-0.5,1.7c0,0.7,0.2,1.3,0.5,1.7c0.3,0.4,0.8,0.7,1.4,0.7
		c0.5,0,0.8-0.1,1.1-0.4c0.3-0.2,0.5-0.5,0.6-0.8H-486.9z"/>
	<path d="M-485.2,376.1c0,0.6,0.2,1.1,0.6,1.5c0.4,0.4,0.8,0.6,1.4,0.6c0.5,0,0.9-0.1,1.2-0.3c0.3-0.2,0.4-0.4,0.5-0.6h1.2
		c-0.1,0.4-0.4,0.8-0.9,1.2c-0.4,0.4-1.1,0.6-1.9,0.6c-0.9,0-1.6-0.3-2.2-0.9c-0.6-0.6-0.9-1.4-0.9-2.3c0-0.9,0.3-1.7,0.8-2.3
		c0.6-0.6,1.3-0.9,2.2-0.9c0.8,0,1.6,0.3,2.2,0.8c0.6,0.6,0.9,1.5,0.9,2.7H-485.2z M-481.3,375.3c0-0.6-0.2-1-0.6-1.4
		c-0.3-0.3-0.8-0.5-1.4-0.5c-0.5,0-1,0.2-1.3,0.5c-0.3,0.3-0.6,0.8-0.6,1.4H-481.3z"/>
	<path d="M-479.1,378.9v-8.5h1.1v8.5H-479.1z"/>
	<path d="M-475.6,377.4c0.3-0.9,0.4-1.9,0.4-2.8c0-0.9-0.1-1.8-0.4-2.8c-0.3-0.9-0.7-2-1.4-3h0.9c0.4,0.6,0.9,1.4,1.4,2.4
		c0.5,1,0.7,2.1,0.7,3.4c0,1.3-0.2,2.5-0.7,3.4c-0.5,1-0.9,1.8-1.4,2.4h-0.9C-476.3,379.4-475.9,378.4-475.6,377.4z"/>
</g>
<g>
	<path d="M-723.7,375.6v2.2h-1.2v-2.2h-4.8v-1h10.6v1H-723.7z M-728.4,373.6v-3.9h7.8v3.9H-728.4z M-728.4,379.7v-2.9h1.2v1.9h6.9v1
		H-728.4z M-721.8,370.7h-5.4v1.8h5.4V370.7z"/>
	<path d="M-712.2,377.9c-0.5-0.2-1-0.6-1.6-1.3c-0.6-0.6-1-1.3-1.3-1.9c-0.2,0.6-0.6,1.2-1.2,1.9c-0.6,0.7-1.2,1.2-1.7,1.5l-1-0.8
		c1.1-0.6,1.9-1.4,2.4-2.4c0.5-1,0.7-2.1,0.7-3.4V370h1.3v1.7c0,1.3,0.3,2.4,0.8,3.2c0.5,0.8,1.3,1.6,2.3,2.2L-712.2,377.9z
		 M-710.2,379.9v-6h-2.4v-1.1h2.4v-3.5h1.2v10.6H-710.2z"/>
	<path d="M-705.4,380.5c-0.4-0.6-0.9-1.4-1.4-2.4c-0.5-1-0.7-2.1-0.7-3.4c0-1.3,0.2-2.5,0.7-3.4c0.5-1,0.9-1.8,1.4-2.4h0.9
		c-0.6,1.1-1.1,2.1-1.4,3c-0.3,0.9-0.4,1.9-0.4,2.8c0,0.9,0.1,1.8,0.4,2.8c0.3,0.9,0.7,2,1.4,3H-705.4z"/>
	<path d="M-697.6,371.6c0.7,0.8,1.1,1.8,1.1,3c0,1.2-0.4,2.3-1.1,3.1s-1.7,1.2-2.9,1.2h-2.9v-8.5h2.9
		C-699.3,370.4-698.3,370.8-697.6,371.6z M-698.5,377c0.5-0.6,0.7-1.4,0.7-2.3c0-0.9-0.2-1.7-0.7-2.3s-1.2-0.9-2.2-0.9h-1.5v6.5h1.5
		C-699.7,377.9-699,377.6-698.5,377z"/>
	<path d="M-690.4,373.5c0.6,0.6,0.8,1.4,0.8,2.4c0,1-0.3,1.7-0.8,2.4c-0.6,0.6-1.3,0.9-2.3,0.9c-1,0-1.7-0.3-2.3-0.9
		c-0.6-0.6-0.8-1.4-0.8-2.4c0-1,0.3-1.7,0.8-2.4c0.6-0.6,1.3-0.9,2.3-0.9C-691.7,372.5-691,372.8-690.4,373.5z M-691.3,377.6
		c0.4-0.4,0.6-1,0.6-1.8c0-0.7-0.2-1.3-0.6-1.7c-0.4-0.4-0.8-0.7-1.4-0.7c-0.6,0-1.1,0.2-1.5,0.7c-0.4,0.4-0.5,1-0.5,1.7
		c0,0.7,0.2,1.3,0.5,1.8c0.4,0.4,0.8,0.7,1.5,0.7C-692.1,378.2-691.7,378-691.3,377.6z"/>
	<path d="M-683,377c-0.1,0.6-0.5,1.1-0.9,1.5c-0.5,0.4-1.1,0.7-2,0.7c-1,0-1.7-0.3-2.3-0.9c-0.6-0.6-0.8-1.4-0.8-2.4
		c0-1,0.3-1.7,0.8-2.4c0.6-0.6,1.3-0.9,2.3-0.9c0.8,0,1.5,0.2,2,0.7c0.5,0.5,0.8,1,0.9,1.5h-1.2c-0.1-0.3-0.2-0.5-0.5-0.8
		c-0.3-0.3-0.7-0.4-1.2-0.4c-0.6,0-1.1,0.2-1.4,0.7c-0.3,0.4-0.5,1-0.5,1.7c0,0.7,0.2,1.3,0.5,1.7c0.3,0.4,0.8,0.7,1.4,0.7
		c0.5,0,0.8-0.1,1.1-0.4c0.3-0.2,0.5-0.5,0.6-0.8H-683z"/>
	<path d="M-677.8,378.9v-0.8c-0.2,0.3-0.5,0.5-0.8,0.7c-0.4,0.2-0.8,0.3-1.3,0.3c-0.5,0-1-0.2-1.5-0.6c-0.5-0.4-0.7-1-0.7-1.7v-4.1
		h1.1v3.7c0,0.6,0.1,1,0.4,1.2c0.3,0.3,0.6,0.4,1.1,0.4c0.5,0,0.9-0.2,1.2-0.5c0.3-0.3,0.5-0.8,0.5-1.3v-3.5h1.1v6.2H-677.8z"/>
	<path d="M-668,378.9l0-3.9c0-0.5-0.1-0.9-0.2-1.1c-0.1-0.3-0.5-0.4-1-0.3c-0.4,0-0.7,0.2-1,0.5c-0.2,0.3-0.4,0.7-0.4,1.2v3.7h-1.1
		V375c0-0.5-0.1-0.9-0.2-1.1c-0.1-0.3-0.5-0.4-0.9-0.3c-0.4,0-0.8,0.2-1,0.5c-0.2,0.3-0.4,0.7-0.4,1.2v3.7h-1.1v-6.2h1.1v0.7
		c0.2-0.2,0.5-0.5,0.8-0.7c0.3-0.2,0.8-0.3,1.3-0.3c0.3,0,0.5,0.1,0.8,0.3c0.2,0.2,0.4,0.4,0.6,0.8c0.2-0.2,0.4-0.4,0.8-0.7
		c0.4-0.3,0.9-0.4,1.5-0.3c0.6,0.1,1,0.3,1.2,0.8c0.2,0.4,0.3,0.9,0.3,1.4v4.2H-668z"/>
	<path d="M-664.8,376.1c0,0.6,0.2,1.1,0.6,1.5c0.4,0.4,0.8,0.6,1.4,0.6c0.5,0,0.9-0.1,1.2-0.3c0.3-0.2,0.4-0.4,0.5-0.6h1.2
		c-0.1,0.4-0.4,0.8-0.9,1.2c-0.4,0.4-1.1,0.6-1.9,0.6c-0.9,0-1.6-0.3-2.2-0.9c-0.6-0.6-0.9-1.4-0.9-2.3c0-0.9,0.3-1.7,0.8-2.3
		c0.6-0.6,1.3-0.9,2.2-0.9c0.8,0,1.6,0.3,2.2,0.8c0.6,0.6,0.9,1.5,0.9,2.7H-664.8z M-660.9,375.3c0-0.6-0.2-1-0.6-1.4
		c-0.3-0.3-0.8-0.5-1.4-0.5c-0.5,0-1,0.2-1.3,0.5c-0.3,0.3-0.6,0.8-0.6,1.4H-660.9z"/>
	<path d="M-654.5,378.9v-3.7c0-0.6-0.1-1-0.4-1.2c-0.2-0.2-0.6-0.4-1.1-0.4c-0.5,0-0.9,0.2-1.3,0.5c-0.3,0.3-0.5,0.8-0.5,1.3v3.5
		h-1.1v-6.2h1.1v0.7c0.3-0.3,0.6-0.5,1-0.7c0.4-0.2,0.9-0.3,1.4-0.2c0.7,0.1,1.1,0.4,1.4,0.8c0.3,0.5,0.4,0.9,0.4,1.3v4.2H-654.5z"
		/>
	<path d="M-650.5,378.9c-0.2,0-0.4-0.1-0.6-0.2c-0.2-0.1-0.3-0.2-0.4-0.4c-0.1-0.1-0.2-0.3-0.2-0.4c0-0.2-0.1-0.4-0.1-0.7v-3.5h-0.8
		v-0.9l0.8,0v-1.9h1.1v1.9l0.9,0v0.9h-0.9v3.4c0,0.1,0,0.3,0,0.4c0,0.1,0.1,0.2,0.2,0.3c0.1,0.1,0.2,0.1,0.4,0.2c0.1,0,0.3,0,0.4,0
		l0,0.9H-650.5z"/>
	<path d="M-647.8,377.4c0.3-0.9,0.4-1.9,0.4-2.8c0-0.9-0.1-1.8-0.4-2.8c-0.3-0.9-0.7-2-1.4-3h0.9c0.4,0.6,0.9,1.4,1.4,2.4
		c0.5,1,0.7,2.1,0.7,3.4c0,1.3-0.2,2.5-0.7,3.4c-0.5,1-0.9,1.8-1.4,2.4h-0.9C-648.5,379.4-648.1,378.4-647.8,377.4z"/>
</g>
<g>
	<path d="M-899.9,375.8v-1h4.6v-0.9h-3.2v-4.3h7.8v1h-6.6v0.7h6.6v0.9h-6.6v0.7h6.7v1h-3.4v0.9h4.6v1H-899.9z M-891.5,376.9
		c0.7,0.4,1.1,0.8,1.1,1.4c0,0.5-0.4,1-1.1,1.3c-0.7,0.3-1.8,0.5-3.1,0.5c-1.3,0-2.4-0.2-3.1-0.5c-0.7-0.4-1.1-0.8-1.1-1.3
		c0-0.5,0.4-1,1.1-1.3c0.7-0.3,1.8-0.5,3.1-0.5C-893.3,376.4-892.2,376.5-891.5,376.9z M-892.5,377.5c-0.5-0.2-1.2-0.2-2.1-0.2
		c-0.9,0-1.6,0.1-2.1,0.2c-0.5,0.1-0.8,0.4-0.8,0.7c0,0.3,0.3,0.5,0.8,0.7c0.5,0.2,1.2,0.3,2.1,0.3c0.8,0,1.5-0.1,2.1-0.3
		c0.5-0.2,0.8-0.4,0.8-0.7C-891.7,377.9-892,377.7-892.5,377.5z"/>
	<path d="M-884.6,374.6c-0.6,1.4-1.6,2.5-3.1,3.4l-0.9-0.7c1.2-0.6,2.1-1.5,2.7-2.6c0.6-1.1,0.9-2.1,0.9-3h-2.9v-1h4.2
		C-883.7,371.9-884,373.2-884.6,374.6z M-882.3,379.4v-3.6h-1.5v-1h1.5V373h-1.3v-1h1.3v-2.3h1.2v9.8H-882.3z M-880.1,379.9v-10.6
		h1.2v10.6H-880.1z"/>
	<path d="M-875.5,380.5c-0.4-0.6-0.9-1.4-1.4-2.4c-0.5-1-0.7-2.1-0.7-3.4c0-1.3,0.2-2.5,0.7-3.4c0.5-1,0.9-1.8,1.4-2.4h0.9
		c-0.6,1.1-1.1,2.1-1.4,3c-0.3,0.9-0.4,1.9-0.4,2.8c0,0.9,0.1,1.8,0.4,2.8c0.3,0.9,0.7,2,1.4,3H-875.5z"/>
	<path d="M-867.7,375.4c0.3,0.4,0.4,0.9,0.3,1.4c-0.1,0.7-0.4,1.2-0.9,1.7c-0.5,0.5-1.3,0.7-2.4,0.7c-1.1,0-2-0.3-2.5-1
		c-0.5-0.7-0.8-1.4-0.9-2.1h1.2c0,0.7,0.3,1.2,0.7,1.6c0.4,0.4,0.9,0.6,1.6,0.6c0.6,0,1.1-0.1,1.5-0.4c0.3-0.3,0.5-0.6,0.6-1.1
		c0.1-0.3,0-0.6-0.2-0.8c-0.2-0.2-0.4-0.4-0.8-0.6c-0.4-0.2-0.8-0.3-1.2-0.3c-0.4,0-0.9-0.1-1.3-0.3c-0.6-0.2-1-0.5-1.3-0.8
		s-0.4-0.8-0.4-1.4c0-0.6,0.3-1.1,0.8-1.6c0.5-0.5,1.3-0.8,2.3-0.8c1.2,0,2,0.3,2.4,1c0.4,0.7,0.7,1.2,0.7,1.7l-1.2,0
		c0-0.5-0.2-0.9-0.5-1.2c-0.3-0.3-0.8-0.5-1.5-0.5c-0.6,0-1.1,0.2-1.4,0.5c-0.3,0.3-0.4,0.6-0.4,1c0,0.4,0.1,0.7,0.3,0.8
		c0.2,0.2,0.5,0.3,0.7,0.4c0.3,0.1,0.7,0.2,1.2,0.3c0.5,0.1,1,0.2,1.4,0.4C-868.3,374.7-867.9,375-867.7,375.4z"/>
	<path d="M-865,378.9c-0.2,0-0.4-0.1-0.6-0.2c-0.2-0.1-0.3-0.2-0.4-0.4c-0.1-0.1-0.2-0.3-0.2-0.4c0-0.2-0.1-0.4-0.1-0.7v-3.5h-0.8
		v-0.9l0.8,0v-1.9h1.1v1.9l0.9,0v0.9h-0.9v3.4c0,0.1,0,0.3,0,0.4c0,0.1,0.1,0.2,0.2,0.3c0.1,0.1,0.2,0.1,0.4,0.2c0.1,0,0.3,0,0.4,0
		l0,0.9H-865z"/>
	<path d="M-858.9,378.9c-0.1-0.1-0.1-0.3-0.1-0.4c0-0.2,0-0.3-0.1-0.5c-0.2,0.3-0.6,0.5-1,0.7c-0.4,0.2-0.8,0.3-1.3,0.4
		c-0.6,0-1.2-0.1-1.6-0.3c-0.5-0.2-0.7-0.7-0.8-1.2c-0.1-0.6,0-1,0.3-1.3c0.3-0.3,0.7-0.5,1.1-0.7c0.4-0.1,0.8-0.2,1.2-0.2
		c0.4,0,0.8-0.1,1.2-0.1c0.2,0,0.4-0.1,0.6-0.1c0.2-0.1,0.3-0.2,0.3-0.5c0-0.3-0.1-0.5-0.4-0.8c-0.2-0.2-0.7-0.4-1.2-0.4
		c-0.6,0-1,0.1-1.3,0.3c-0.3,0.2-0.4,0.5-0.3,0.8h-1.1c-0.1-0.7,0.2-1.2,0.7-1.5c0.6-0.4,1.2-0.5,2-0.5c0.7,0,1.3,0.2,1.9,0.5
		c0.6,0.4,0.8,0.9,0.8,1.5v3.4c0,0.3,0,0.5,0.1,0.7c0.1,0.2,0.1,0.3,0.1,0.3H-858.9z M-859.1,375.7c-0.1,0.1-0.2,0.1-0.3,0.2
		c-0.1,0.1-0.2,0.1-0.4,0.1c-0.2,0.1-0.6,0.1-1,0.1c-0.4,0-0.7,0.1-0.9,0.1c-0.4,0.1-0.6,0.3-0.8,0.4c-0.2,0.2-0.3,0.4-0.2,0.7
		c0,0.3,0.2,0.5,0.5,0.7c0.3,0.1,0.6,0.2,0.9,0.1c0.7,0,1.3-0.3,1.6-0.6c0.4-0.4,0.6-0.7,0.6-1V375.7z"/>
	<path d="M-855.2,378.9c-0.2,0-0.4-0.1-0.6-0.2c-0.2-0.1-0.3-0.2-0.4-0.4c-0.1-0.1-0.2-0.3-0.2-0.4c0-0.2-0.1-0.4-0.1-0.7v-3.5h-0.8
		v-0.9l0.8,0v-1.9h1.1v1.9l0.9,0v0.9h-0.9v3.4c0,0.1,0,0.3,0,0.4c0,0.1,0.1,0.2,0.2,0.3c0.1,0.1,0.2,0.1,0.4,0.2c0.1,0,0.3,0,0.4,0
		l0,0.9H-855.2z"/>
	<path d="M-853.4,371.4v-1.1h1.1v1.1H-853.4z M-853.4,378.9v-6.2h1.1v6.2H-853.4z"/>
	<path d="M-846.2,376.3c0.2,0.2,0.3,0.5,0.3,0.9c0,0.6-0.3,1-0.8,1.4c-0.5,0.4-1.1,0.5-1.8,0.5c-1.1,0-1.8-0.3-2.2-0.8
		c-0.4-0.5-0.6-1-0.6-1.4h1.1c0,0.3,0.2,0.6,0.5,0.9c0.3,0.2,0.7,0.3,1.2,0.3c0.4,0,0.8-0.1,1-0.2c0.3-0.1,0.4-0.4,0.5-0.6
		c0-0.2,0-0.4-0.1-0.5c-0.1-0.1-0.3-0.3-0.5-0.4c-0.3-0.2-0.7-0.3-1.1-0.3c-0.4-0.1-0.7-0.1-1-0.2c-0.4-0.1-0.7-0.3-0.9-0.6
		c-0.2-0.3-0.4-0.6-0.3-1c0-0.5,0.3-0.9,0.7-1.2c0.4-0.4,1-0.6,1.8-0.6c0.9,0,1.5,0.2,1.9,0.7c0.4,0.5,0.6,0.9,0.6,1.3h-1.1
		c0-0.2-0.1-0.4-0.3-0.6c-0.2-0.2-0.6-0.4-1.2-0.4c-0.5,0-0.8,0.1-1,0.3c-0.2,0.2-0.3,0.4-0.3,0.6c0,0.3,0.1,0.5,0.3,0.6
		c0.2,0.1,0.4,0.2,0.6,0.3c0.3,0.1,0.6,0.1,1,0.2c0.4,0.1,0.7,0.2,1,0.3C-846.7,375.9-846.4,376.1-846.2,376.3z"/>
	<path d="M-843.5,378.9c-0.2,0-0.4-0.1-0.6-0.2c-0.2-0.1-0.3-0.2-0.4-0.4c-0.1-0.1-0.2-0.3-0.2-0.4c0-0.2-0.1-0.4-0.1-0.7v-3.5h-0.8
		v-0.9l0.8,0v-1.9h1.1v1.9l0.9,0v0.9h-0.9v3.4c0,0.1,0,0.3,0,0.4c0,0.1,0.1,0.2,0.2,0.3c0.1,0.1,0.2,0.1,0.4,0.2c0.1,0,0.3,0,0.4,0
		l0,0.9H-843.5z"/>
	<path d="M-841.7,371.4v-1.1h1.1v1.1H-841.7z M-841.7,378.9v-6.2h1.1v6.2H-841.7z"/>
	<path d="M-833.6,377c-0.1,0.6-0.5,1.1-0.9,1.5c-0.5,0.4-1.1,0.7-2,0.7c-1,0-1.7-0.3-2.3-0.9c-0.6-0.6-0.8-1.4-0.8-2.4
		c0-1,0.3-1.7,0.8-2.4c0.6-0.6,1.3-0.9,2.3-0.9c0.8,0,1.5,0.2,2,0.7c0.5,0.5,0.8,1,0.9,1.5h-1.2c-0.1-0.3-0.2-0.5-0.5-0.8
		c-0.3-0.3-0.7-0.4-1.2-0.4c-0.6,0-1.1,0.2-1.4,0.7c-0.3,0.4-0.5,1-0.5,1.7c0,0.7,0.2,1.3,0.5,1.7c0.3,0.4,0.8,0.7,1.4,0.7
		c0.5,0,0.8-0.1,1.1-0.4c0.3-0.2,0.5-0.5,0.6-0.8H-833.6z"/>
	<path d="M-828,376.3c0.2,0.2,0.3,0.5,0.3,0.9c0,0.6-0.3,1-0.8,1.4c-0.5,0.4-1.1,0.5-1.8,0.5c-1.1,0-1.8-0.3-2.2-0.8
		c-0.4-0.5-0.6-1-0.6-1.4h1.1c0,0.3,0.2,0.6,0.5,0.9c0.3,0.2,0.7,0.3,1.2,0.3c0.4,0,0.8-0.1,1-0.2c0.3-0.1,0.4-0.4,0.5-0.6
		c0-0.2,0-0.4-0.1-0.5c-0.1-0.1-0.3-0.3-0.5-0.4c-0.3-0.2-0.7-0.3-1.1-0.3c-0.4-0.1-0.7-0.1-1-0.2c-0.4-0.1-0.7-0.3-0.9-0.6
		c-0.2-0.3-0.4-0.6-0.3-1c0-0.5,0.3-0.9,0.7-1.2c0.4-0.4,1-0.6,1.8-0.6c0.9,0,1.5,0.2,1.9,0.7c0.4,0.5,0.6,0.9,0.6,1.3h-1.1
		c0-0.2-0.1-0.4-0.3-0.6c-0.2-0.2-0.6-0.4-1.2-0.4c-0.5,0-0.8,0.1-1,0.3c-0.2,0.2-0.3,0.4-0.3,0.6c0,0.3,0.1,0.5,0.3,0.6
		c0.2,0.1,0.4,0.2,0.6,0.3c0.3,0.1,0.6,0.1,1,0.2c0.4,0.1,0.7,0.2,1,0.3C-828.5,375.9-828.2,376.1-828,376.3z"/>
	<path d="M-825.7,377.4c0.3-0.9,0.4-1.9,0.4-2.8c0-0.9-0.1-1.8-0.4-2.8c-0.3-0.9-0.7-2-1.4-3h0.9c0.4,0.6,0.9,1.4,1.4,2.4
		c0.5,1,0.7,2.1,0.7,3.4c0,1.3-0.2,2.5-0.7,3.4c-0.5,1-0.9,1.8-1.4,2.4h-0.9C-826.4,379.4-826,378.4-825.7,377.4z"/>
</g>
<g>
	<path d="M-1081.9,526.6c-0.4-0.2-0.8-0.5-1.2-0.9c-0.4-0.4-0.8-0.9-1-1.3c-0.1,0.4-0.4,0.8-0.8,1.3c-0.4,0.5-0.9,0.9-1.4,1.2
		l-0.9-0.8c1.1-0.6,1.8-1.4,2.1-2.2c0.3-0.8,0.4-1.4,0.4-1.9v-0.9h1.3v0.9c0,0.5,0.1,1.1,0.4,1.9c0.3,0.7,0.9,1.4,1.9,1.8
		L-1081.9,526.6z M-1078.2,531c-0.7,0.4-1.7,0.6-3.1,0.6c-1.3,0-2.4-0.2-3.1-0.6c-0.7-0.4-1-0.9-1-1.5c0-0.6,0.3-1.1,1-1.5
		c0.7-0.4,1.7-0.6,3.1-0.6c1.4,0,2.4,0.2,3.1,0.6c0.7,0.4,1,0.9,1,1.5C-1077.2,530-1077.5,530.6-1078.2,531z M-1079.2,528.6
		c-0.5-0.2-1.2-0.3-2-0.3c-0.8,0-1.5,0.1-2.1,0.3c-0.5,0.2-0.8,0.5-0.8,0.8c0,0.4,0.3,0.6,0.8,0.8c0.5,0.2,1.2,0.3,2.1,0.3
		c0.8,0,1.5-0.1,2-0.3c0.5-0.2,0.8-0.5,0.8-0.8C-1078.5,529.1-1078.7,528.8-1079.2,528.6z M-1078.4,527.3v-2.9h-1.2v2.5h-1.2V521
		h1.2v2.4h1.2v-2.5h1.2v6.5H-1078.4z"/>
	<path d="M-1069.9,527c-0.5-0.2-1.1-0.6-1.6-1.1c-0.6-0.5-1-1-1.2-1.5c-0.2,0.6-0.6,1.1-1.1,1.6c-0.5,0.5-1.1,0.9-1.7,1.3l-0.8-0.8
		c1.1-0.6,1.9-1.2,2.4-2c0.4-0.7,0.6-1.6,0.6-2.5v-0.9h1.3v0.9c0,0.8,0.2,1.6,0.7,2.4c0.5,0.7,1.2,1.3,2.2,1.8L-1069.9,527z
		 M-1074.2,531.1v-3.3h1.2v2.3h6.4v1H-1074.2z M-1066.9,520.8v3.1h1.5v1h-1.5v3.6h-1.2v-7.6H-1066.9z"/>
	<path d="M-1058.7,526.5c-0.6-0.2-1.1-0.6-1.7-1c-0.5-0.5-0.9-0.9-1.2-1.3c-0.2,0.5-0.6,1-1.2,1.5c-0.6,0.5-1.1,0.9-1.6,1.2
		l-0.9-0.8c1.3-0.6,2.2-1.3,2.5-2.1c0.3-0.8,0.5-1.4,0.5-1.9v-0.9h1.3v0.9c0,0.5,0.2,1.1,0.5,1.8c0.3,0.7,1.1,1.3,2.4,1.8
		L-1058.7,526.5z M-1056.3,531c-0.7,0.4-1.7,0.6-3,0.6c-1.3,0-2.3-0.2-3-0.6c-0.7-0.4-1-0.9-1-1.5c0-0.6,0.3-1.1,1-1.5
		c0.7-0.4,1.7-0.6,3-0.6c1.3,0,2.3,0.2,3,0.6c0.7,0.4,1,0.9,1,1.5C-1055.2,530.1-1055.6,530.6-1056.3,531z M-1057.3,528.6
		c-0.5-0.2-1.1-0.3-1.9-0.3c-0.8,0-1.5,0.1-2,0.3c-0.5,0.2-0.7,0.5-0.7,0.9c0,0.3,0.2,0.6,0.7,0.8c0.5,0.2,1.1,0.3,2,0.3
		c0.8,0,1.4-0.1,1.9-0.3c0.5-0.2,0.7-0.5,0.7-0.8C-1056.5,529.1-1056.8,528.8-1057.3,528.6z M-1056.6,527.1V524h-2.2v-1.1h2.2v-2.1
		h1.2v6.3H-1056.6z"/>
	<path d="M-1051.9,531.9c-0.4-0.6-0.9-1.4-1.4-2.4c-0.5-1-0.7-2.1-0.7-3.4c0-1.3,0.2-2.5,0.7-3.4c0.5-1,0.9-1.8,1.4-2.4h0.9
		c-0.6,1.1-1.1,2.1-1.4,3c-0.3,0.9-0.4,1.9-0.4,2.8c0,0.9,0.1,1.8,0.4,2.8c0.3,0.9,0.7,2,1.4,3H-1051.9z"/>
	<path d="M-1044.3,522.5c0.6,0.5,0.8,1.1,0.8,1.9c0,0.8-0.3,1.4-0.8,1.9c-0.6,0.5-1.2,0.7-2.1,0.7h-2.4v3.3h-1.1v-8.5h3.5
		C-1045.5,521.9-1044.9,522.1-1044.3,522.5z M-1045.2,525.6c0.4-0.3,0.5-0.7,0.5-1.2c0-0.6-0.2-1-0.5-1.2c-0.4-0.2-0.8-0.3-1.2-0.3
		h-2.4v3.1h2.4C-1045.9,526-1045.5,525.9-1045.2,525.6z"/>
	<path d="M-1039.3,525.1c-0.2,0-0.4,0-0.6,0c-0.2,0-0.3,0.1-0.5,0.1c-0.4,0.2-0.6,0.4-0.8,0.8c-0.2,0.3-0.3,0.8-0.3,1.4v2.9h-1.1
		v-6.1h1.1v0.9l0.1,0c0.1-0.2,0.3-0.4,0.5-0.6c0.2-0.1,0.4-0.3,0.6-0.4c0.2-0.1,0.4-0.1,0.6-0.1c0.2,0,0.3,0,0.3,0V525.1z"/>
	<path d="M-1034,524.9c0.6,0.6,0.8,1.4,0.8,2.4c0,1-0.3,1.7-0.8,2.4c-0.6,0.6-1.3,0.9-2.3,0.9c-1,0-1.7-0.3-2.3-0.9
		c-0.6-0.6-0.8-1.4-0.8-2.4c0-1,0.3-1.7,0.8-2.4c0.6-0.6,1.3-0.9,2.3-0.9C-1035.3,524-1034.5,524.3-1034,524.9z M-1034.8,529
		c0.4-0.4,0.6-1,0.6-1.8c0-0.7-0.2-1.3-0.6-1.7c-0.4-0.4-0.8-0.7-1.4-0.7c-0.6,0-1.1,0.2-1.5,0.7c-0.4,0.4-0.5,1-0.5,1.7
		c0,0.7,0.2,1.3,0.5,1.8c0.4,0.4,0.8,0.7,1.5,0.7C-1035.7,529.7-1035.2,529.5-1034.8,529z"/>
	<path d="M-1027.4,530.4v-0.7c-0.3,0.3-0.6,0.5-0.9,0.7c-0.4,0.2-0.7,0.2-1.1,0.2c-0.9,0-1.6-0.3-2.2-0.9c-0.5-0.6-0.8-1.4-0.8-2.4
		c0-1,0.3-1.8,0.8-2.4c0.5-0.6,1.3-0.9,2.2-0.9c0.4,0,0.8,0.1,1.1,0.2c0.4,0.2,0.7,0.4,0.9,0.7v-3h1.1v8.5H-1027.4z M-1027.9,529
		c0.3-0.4,0.5-1,0.5-1.7c0-0.7-0.2-1.3-0.5-1.7c-0.3-0.4-0.8-0.6-1.4-0.6c-0.6,0-1.1,0.2-1.4,0.6c-0.3,0.4-0.5,1-0.5,1.6
		c0,0.7,0.2,1.2,0.5,1.7c0.3,0.4,0.8,0.6,1.4,0.6C-1028.7,529.6-1028.3,529.4-1027.9,529z"/>
	<path d="M-1020.6,530.4v-0.8c-0.2,0.3-0.5,0.5-0.8,0.7c-0.4,0.2-0.8,0.3-1.3,0.3c-0.5,0-1-0.2-1.5-0.6c-0.5-0.4-0.7-1-0.7-1.7v-4.1
		h1.1v3.7c0,0.6,0.1,1,0.4,1.2c0.3,0.3,0.6,0.4,1.1,0.4c0.5,0,0.9-0.2,1.2-0.5c0.3-0.3,0.5-0.8,0.5-1.3v-3.5h1.1v6.2H-1020.6z"/>
	<path d="M-1012.5,528.4c-0.1,0.6-0.5,1.1-0.9,1.5c-0.5,0.4-1.1,0.7-2,0.7c-1,0-1.7-0.3-2.3-0.9c-0.6-0.6-0.8-1.4-0.8-2.4
		c0-1,0.3-1.7,0.8-2.4c0.6-0.6,1.3-0.9,2.3-0.9c0.8,0,1.5,0.2,2,0.7c0.5,0.5,0.8,1,0.9,1.5h-1.2c-0.1-0.3-0.2-0.5-0.5-0.8
		c-0.3-0.3-0.7-0.4-1.2-0.4c-0.6,0-1.1,0.2-1.4,0.7c-0.3,0.4-0.5,1-0.5,1.7c0,0.7,0.2,1.3,0.5,1.7c0.3,0.4,0.8,0.7,1.4,0.7
		c0.5,0,0.8-0.1,1.1-0.4c0.3-0.2,0.5-0.5,0.6-0.8H-1012.5z"/>
	<path d="M-1010.2,530.4c-0.2,0-0.4-0.1-0.6-0.2c-0.2-0.1-0.3-0.2-0.4-0.4c-0.1-0.1-0.2-0.3-0.2-0.4c0-0.2-0.1-0.4-0.1-0.7v-3.5
		h-0.8v-0.9l0.8,0v-1.9h1.1v1.9l0.9,0v0.9h-0.9v3.4c0,0.1,0,0.3,0,0.4c0,0.1,0.1,0.2,0.2,0.3c0.1,0.1,0.2,0.1,0.4,0.2
		c0.1,0,0.3,0,0.4,0l0,0.9H-1010.2z"/>
	<path d="M-1008.4,522.9v-1.1h1.1v1.1H-1008.4z M-1008.4,530.4v-6.2h1.1v6.2H-1008.4z"/>
	<path d="M-1002.8,530.3h-1.3l-2.4-6h1.1l1.9,5l1.9-5h1.1L-1002.8,530.3z"/>
	<path d="M-999.5,522.9v-1.1h1.1v1.1H-999.5z M-999.5,530.4v-6.2h1.1v6.2H-999.5z"/>
	<path d="M-995.5,530.4c-0.2,0-0.4-0.1-0.6-0.2c-0.2-0.1-0.3-0.2-0.4-0.4c-0.1-0.1-0.2-0.3-0.2-0.4c0-0.2-0.1-0.4-0.1-0.7v-3.5h-0.8
		v-0.9l0.8,0v-1.9h1.1v1.9l0.9,0v0.9h-0.9v3.4c0,0.1,0,0.3,0,0.4c0,0.1,0.1,0.2,0.2,0.3c0.1,0.1,0.2,0.1,0.4,0.2c0.1,0,0.3,0,0.4,0
		l0,0.9H-995.5z"/>
	<path d="M-990.9,531c-0.1,0.2-0.2,0.4-0.3,0.5c-0.1,0.1-0.3,0.3-0.4,0.4c-0.2,0.1-0.4,0.2-0.5,0.2c-0.2,0-0.4,0-0.5,0h-0.4v-0.9
		h0.6c0.2,0,0.3-0.1,0.4-0.2c0.1-0.1,0.2-0.2,0.3-0.3l0.3-0.6l-2.5-5.9l1.1,0l1.9,4.5l1.9-4.5h1.1L-990.9,531z"/>
	<path d="M-986.3,528.9c0.3-0.9,0.4-1.9,0.4-2.8c0-0.9-0.1-1.8-0.4-2.8c-0.3-0.9-0.7-2-1.4-3h0.9c0.4,0.6,0.9,1.4,1.4,2.4
		c0.5,1,0.7,2.1,0.7,3.4c0,1.3-0.2,2.5-0.7,3.4c-0.5,1-0.9,1.8-1.4,2.4h-0.9C-987.1,530.8-986.6,529.8-986.3,528.9z"/>
</g>
<g>
	<path d="M-886.5,530.2v-1h4.6v-1.6h-3.2v-3.4h6.3v-1.5h-6.3v-1h7.5v3.5h-6.3v1.4h6.6v1h-3.4v1.6h4.7v1H-886.5z"/>
	<path d="M-875.4,529.8v-1h7.2c0.1-0.5,0.2-1.4,0.4-2.6c0.2-1.2,0.3-2.2,0.3-2.9h-6.9v-1h8.2c0,0.9-0.1,2-0.3,3.4
		c-0.2,1.4-0.4,2.5-0.6,3.2h2.1v1H-875.4z"/>
	<path d="M-862.1,531.9c-0.4-0.6-0.9-1.4-1.4-2.4c-0.5-1-0.7-2.1-0.7-3.4c0-1.3,0.2-2.5,0.7-3.4c0.5-1,0.9-1.8,1.4-2.4h0.9
		c-0.6,1.1-1.1,2.1-1.4,3c-0.3,0.9-0.4,1.9-0.4,2.8c0,0.9,0.1,1.8,0.4,2.8c0.3,0.9,0.7,2,1.4,3H-862.1z"/>
	<path d="M-860.1,530.4v-8.5h1.1v7.5h4.5v1H-860.1z"/>
	<path d="M-849.2,524.9c0.6,0.6,0.8,1.4,0.8,2.4c0,1-0.3,1.7-0.8,2.4c-0.6,0.6-1.3,0.9-2.3,0.9c-1,0-1.7-0.3-2.3-0.9
		c-0.6-0.6-0.8-1.4-0.8-2.4c0-1,0.3-1.7,0.8-2.4c0.6-0.6,1.3-0.9,2.3-0.9C-850.5,524-849.7,524.3-849.2,524.9z M-850,529
		c0.4-0.4,0.6-1,0.6-1.8c0-0.7-0.2-1.3-0.6-1.7c-0.4-0.4-0.8-0.7-1.4-0.7c-0.6,0-1.1,0.2-1.5,0.7c-0.4,0.4-0.5,1-0.5,1.7
		c0,0.7,0.2,1.3,0.5,1.8c0.4,0.4,0.8,0.7,1.5,0.7C-850.9,529.7-850.4,529.5-850,529z"/>
	<path d="M-841.6,529.5c0,1-0.3,1.7-0.9,2.1c-0.6,0.4-1.3,0.6-2,0.6c-0.9,0-1.6-0.2-2.1-0.6c-0.5-0.4-0.8-0.9-0.8-1.4h1.1
		c0,0.3,0.2,0.5,0.5,0.8c0.3,0.2,0.8,0.3,1.4,0.3c0.6,0,1.1-0.1,1.4-0.4c0.3-0.3,0.4-0.7,0.4-1.2v-0.6c-0.3,0.3-0.6,0.5-1,0.7
		c-0.4,0.2-0.7,0.2-1.1,0.2c-0.8,0-1.5-0.3-2.1-0.8c-0.6-0.6-0.9-1.3-0.9-2.1c0-0.9,0.3-1.6,0.8-2.1c0.6-0.5,1.3-0.8,2.1-0.8
		c0.4,0,0.8,0.1,1.1,0.2c0.4,0.2,0.7,0.4,1,0.7v-0.6h1.1V529.5z M-843.2,528.4c0.4-0.3,0.6-0.8,0.6-1.5c0-0.7-0.2-1.2-0.6-1.5
		c-0.4-0.3-0.8-0.5-1.4-0.5c-0.6,0-1.1,0.2-1.4,0.5c-0.4,0.3-0.5,0.8-0.5,1.5c0,0.7,0.2,1.2,0.5,1.5c0.4,0.3,0.8,0.5,1.4,0.5
		C-844,528.9-843.5,528.7-843.2,528.4z"/>
	<path d="M-839.1,528.9c0.3-0.9,0.4-1.9,0.4-2.8c0-0.9-0.1-1.8-0.4-2.8c-0.3-0.9-0.7-2-1.4-3h0.9c0.4,0.6,0.9,1.4,1.4,2.4
		c0.5,1,0.7,2.1,0.7,3.4c0,1.3-0.2,2.5-0.7,3.4c-0.5,1-0.9,1.8-1.4,2.4h-0.9C-839.9,530.8-839.4,529.8-839.1,528.9z"/>
</g>
<g>
	<polygon fill="#040000" points="44.4,54.3 17,54.3 17,51.5 41.5,51.5 41.5,12.5 10.2,12.5 10.2,52.9 7.3,52.9 7.3,9.7 44.4,9.7 	
		"/>
	<rect x="18.4" y="19.2" fill="#040000" width="15.9" height="2.9"/>
	<rect x="18.4" y="26.4" fill="#040000" width="15.9" height="2.9"/>
	<rect x="18.4" y="33.6" fill="#040000" width="15.9" height="2.9"/>
	<rect x="18.4" y="40.9" fill="#040000" width="15.9" height="2.9"/>
	<path fill="#040000" d="M56.7,53.9h-9.1V23.4h9.1V53.9z M50.5,51h3.3V26.3h-3.3V51z"/>
	<path fill="#040000" d="M55.3,26h-6v-7.3h6V26z M51.6,23.7H53V21h-1.4V23.7z"/>
	<rect x="51" y="14.7" fill="#040000" width="2.3" height="4"/>
</g>
<g>
	<polygon fill="#040000" points="-668.3,343.4 -695.8,343.4 -695.8,340.5 -671.2,340.5 -671.2,301.6 -702.5,301.6 -702.5,342 
		-705.4,342 -705.4,298.7 -668.3,298.7 	"/>
	<rect x="-694.3" y="308.3" fill="#040000" width="15.9" height="2.9"/>
	<rect x="-694.3" y="315.4" fill="#040000" width="15.9" height="2.9"/>
	<rect x="-694.3" y="322.6" fill="#040000" width="15.9" height="2.9"/>
	<rect x="-694.3" y="329.9" fill="#040000" width="15.9" height="2.9"/>
</g>
<g>
	<polygon fill="#040000" points="-847.6,310.1 -849.8,308.2 -843.1,300.5 -837.9,300.5 -837.9,303.4 -841.8,303.4 	"/>
	<rect x="-835.5" y="300.5" fill="#040000" width="3" height="2.9"/>
	<path fill="#040000" d="M-837.9,319.4h-24.5v-23.5l1.9,0c4.9,0,9.6,1.6,13.6,4.5l-1.7,2.3c-3.2-2.4-6.9-3.7-10.8-3.9v17.8h18.7
		c-0.3-2.7-1.1-5.4-2.4-7.8l2.5-1.4c1.8,3.2,2.8,6.9,2.9,10.6L-837.9,319.4z"/>
	<path fill="#040000" d="M-864.9,345.8l-0.5,0c-12.2-0.3-22.1-10.4-22.1-22.6c0-0.1,0-0.2,0-0.4l0-0.2c0.3-12.1,10-21.8,22.1-22.1
		l1.5,0v20.7h21.6l0,1.6c0,0.1,0,0.2,0,0.4C-842.3,335.6-852.5,345.8-864.9,345.8z M-866.8,303.5c-9.9,0.9-17.6,9.1-17.9,19.2l0,0.5
		c0,10.7,8.7,19.5,19.3,19.7l0.4,0c10.6,0,19.2-8.4,19.7-18.8h-21.6V303.5z"/>
</g>
<g>
	<polygon points="-500.6,195.8 -533.6,195.8 -533.6,144.8 -491.6,144.8 -491.6,194.3 -494.6,194.3 -494.6,147.8 -530.6,147.8 
		-530.6,192.8 -500.6,192.8 	"/>
	<rect x="-527.6" y="181.3" fill="#040000" width="16.5" height="3"/>
	<rect x="-527.6" y="186.3" fill="#040000" width="16.5" height="3"/>
	<rect x="-527.6" y="176.3" fill="#040000" width="16.5" height="3"/>
	<g>
		<path d="M-514.2,162.5c0.5,0.7,0.6,1.5,0.5,2.3c-0.1,1-0.5,1.9-1.2,2.7c-0.7,0.8-1.8,1.3-3.2,1.4v1.5l-2.1,0V169
			c-1.6-0.2-2.8-0.9-3.5-1.9c-0.7-1.1-1-2.2-1-3.3h2.2c0,0.9,0.2,1.5,0.6,2.1c0.4,0.5,1,0.9,1.7,1.1v-5.1c-0.2-0.1-0.4-0.1-0.7-0.2
			c-0.2-0.1-0.5-0.2-0.7-0.2c-0.9-0.4-1.6-0.9-2.1-1.5c-0.5-0.6-0.7-1.5-0.6-2.5c0.1-0.9,0.4-1.7,1.1-2.5c0.7-0.8,1.7-1.3,3-1.5
			v-1.5h2.1v1.5c1.7,0.3,2.7,0.9,3.3,2c0.5,1.1,0.8,1.9,0.7,2.6h-2.2c0-0.6-0.1-1.1-0.4-1.6c-0.3-0.5-0.8-0.8-1.4-1v4.8
			c0.3,0.1,0.7,0.2,1,0.3c0.3,0.1,0.7,0.2,0.9,0.4C-515.3,161.3-514.6,161.8-514.2,162.5z M-520.1,155.4c-0.6,0.1-1.1,0.4-1.4,0.8
			c-0.3,0.4-0.5,0.8-0.5,1.3c0,0.6,0.1,1,0.4,1.3c0.3,0.3,0.6,0.5,1,0.7c0,0,0.1,0,0.2,0.1c0.1,0,0.2,0.1,0.2,0.1V155.4z
			 M-516.5,166.2c0.3-0.4,0.6-0.8,0.6-1.3c0.1-0.5,0-0.9-0.3-1.3c-0.3-0.4-0.6-0.7-1.1-0.9c-0.1-0.1-0.2-0.1-0.4-0.2
			c-0.1-0.1-0.3-0.1-0.4-0.1v4.5C-517.4,166.8-516.9,166.5-516.5,166.2z"/>
	</g>
</g>
<g>
	<g>
		<path fill="#040000" d="M-852.2,447.3l0,8.2c0,0.8,0.6,1.4,1.4,1.4h9.3c0.6,0,1.1-0.3,1.3-0.9c0.2-0.5,0.1-1.1-0.3-1.6l-9.3-9.7
			c-0.1-0.1-0.2-0.2-0.4-0.3 M-844.9,454h-4.5l0-4.7L-844.9,454z"/>
		<path fill="#040000" d="M-850.1,444.5v-0.2h-32v20.6v3.2v13.4v3.2v15.6h42v-15.2v-3.2v-14.3v-3.2c-1-0.3-2-0.7-3-1
			c-5-1.4-11-2.2-17.5-2.2c-7,0-13.3,0.9-18.5,2.5v-16.5h26.9 M-843.1,497.3h-36v-11.5c5.2,1.6,11.5,2.5,18.5,2.5
			c6.5,0,12.5-0.8,17.5-2.2V497.3z M-843.1,482.9c-4.7,1.4-10.7,2.3-17.5,2.3c-7.3,0-13.7-1-18.5-2.6v-15.7
			c4.8-1.6,11.2-2.6,18.5-2.6c6.8,0,12.8,0.9,17.5,2.3V482.9z"/>
	</g>
	<g>
		<path d="M-874.5,480.2v-10.4h2v8.6l5.1,0v1.8L-874.5,480.2z"/>
		<path d="M-859,471.1c0.9,1,1.3,2.3,1.3,3.9c0,1.6-0.4,2.9-1.3,3.9c-0.9,1-2,1.5-3.5,1.5c-1.5,0-2.6-0.5-3.5-1.5
			c-0.9-1-1.3-2.3-1.3-3.9c0-1.6,0.4-2.9,1.3-3.9c0.9-1,2-1.5,3.5-1.5C-861,469.6-859.8,470.1-859,471.1z M-860.4,477.7
			c0.5-0.7,0.7-1.6,0.7-2.6c0-1.1-0.3-1.9-0.7-2.6c-0.5-0.7-1.2-1-2-1c-0.9,0-1.5,0.3-2,1c-0.5,0.7-0.7,1.5-0.7,2.6
			c0,1.1,0.2,1.9,0.7,2.6c0.5,0.7,1.1,1,2,1C-861.6,478.7-860.9,478.3-860.4,477.7z"/>
		<path d="M-849.6,480.2l0-0.9c-0.3,0.3-0.7,0.6-1.1,0.8c-0.5,0.2-1,0.4-1.5,0.4c-1.4,0-2.6-0.5-3.5-1.5c-0.9-1-1.3-2.3-1.3-3.9
			s0.4-2.9,1.3-3.9c0.9-1,2-1.5,3.5-1.5c1.4,0,2.5,0.4,3.2,1.2c0.7,0.8,1.2,1.6,1.4,2.4h-2.1c-0.1-0.4-0.4-0.8-0.8-1.2
			c-0.4-0.4-0.9-0.6-1.6-0.6c-0.9,0-1.6,0.3-2,1c-0.5,0.7-0.7,1.5-0.7,2.6c0,1.1,0.2,1.9,0.7,2.6c0.5,0.7,1.2,1,2,1
			c0.8,0,1.3-0.3,1.7-0.8c0.4-0.5,0.6-1,0.8-1.5h-2.4v-1.7h4.5v5.5L-849.6,480.2z"/>
	</g>
</g>
<g>
	<polygon fill="none" stroke="#040000" stroke-width="4" stroke-miterlimit="10" points="-512.1,347.3 -536.1,341.3 -536.1,301.3 
		-512.1,295.3 	"/>
	<rect x="-512.1" y="301.3" fill="none" stroke="#040000" stroke-width="4" stroke-miterlimit="10" width="20" height="40"/>
	<line fill="none" stroke="#040000" stroke-width="4" stroke-miterlimit="10" x1="-507.1" y1="309.3" x2="-503.1" y2="309.3"/>
	<line fill="none" stroke="#040000" stroke-width="4" stroke-miterlimit="10" x1="-501.1" y1="309.3" x2="-497.1" y2="309.3"/>
	<line fill="none" stroke="#040000" stroke-width="4" stroke-miterlimit="10" x1="-507.1" y1="315.3" x2="-503.1" y2="315.3"/>
	<line fill="none" stroke="#040000" stroke-width="4" stroke-miterlimit="10" x1="-501.1" y1="315.3" x2="-497.1" y2="315.3"/>
	<line fill="none" stroke="#040000" stroke-width="4" stroke-miterlimit="10" x1="-507.1" y1="321.3" x2="-503.1" y2="321.3"/>
	<line fill="none" stroke="#040000" stroke-width="4" stroke-miterlimit="10" x1="-501.1" y1="321.3" x2="-497.1" y2="321.3"/>
	<line fill="none" stroke="#040000" stroke-width="4" stroke-miterlimit="10" x1="-507.1" y1="327.3" x2="-503.1" y2="327.3"/>
	<line fill="none" stroke="#040000" stroke-width="4" stroke-miterlimit="10" x1="-501.1" y1="327.3" x2="-497.1" y2="327.3"/>
	<line fill="none" stroke="#040000" stroke-width="4" stroke-miterlimit="10" x1="-507.1" y1="333.3" x2="-503.1" y2="333.3"/>
	<line fill="none" stroke="#040000" stroke-width="4" stroke-miterlimit="10" x1="-501.1" y1="333.3" x2="-497.1" y2="333.3"/>
	<polygon points="-517.4,332.3 -519.9,332.3 -530.8,312.3 -528.3,312.3 	"/>
	<polygon points="-530.8,332.3 -528.3,332.3 -517.4,312.3 -519.9,312.3 	"/>
</g>
<g>
	<g>
		<path fill="#040000" d="M-1044.6,502.1c-2.1,0-4.2-0.4-6.3-1.1l-1.3-0.5l1.5-4.4l2.7,0.9l-0.6,1.7c1.3,0.4,2.7,0.5,4.1,0.5
			l0.2-3.4l6.2-1.3l1.2,2.5c1.2-0.7,2.3-1.5,3.2-2.5l-2.2-2.5l3.5-5.3l2.6,0.9c0.3-1.3,0.5-2.6,0.5-3.9c0,0,0-0.1,0-0.1l-3.2-0.2
			l-1.2-6.2l2.4-1.2c-0.7-1.2-1.5-2.3-2.5-3.2l-2.4,2.1l-5.3-3.5l0.8-2.5c-1.3-0.4-2.7-0.6-4-0.6l-0.2,3.2l-6.2,1.2l-1.2-2.4
			c-1.2,0.7-2.3,1.5-3.3,2.5l2.2,2.5l-3.5,5.3l-2.7-0.9c-0.4,1.3-0.6,2.7-0.6,4.1l3.4,0.2l1.2,6.2l-3.9,1.9l-1.3-2.6l1.9-1l-0.4-1.9
			l-3.7-0.2l-0.1-1.3c0-0.5-0.1-0.9-0.1-1.4c0-2.2,0.4-4.4,1.2-6.5l0.5-1.3l3.3,1.1l1.1-1.6l-2.4-2.7l0.8-1c1.7-2,3.9-3.7,6.4-4.8
			l1.3-0.6l1.5,3l1.9-0.4l0.2-3.5l1.2-0.1c2.6-0.2,5.3,0.2,7.8,1.1l1.3,0.5l-1,3.1l1.6,1.1l2.6-2.3l1,0.8c2,1.7,3.7,3.9,4.8,6.3
			l0.6,1.3l-2.9,1.5l0.4,1.9l3.5,0.2l0.1,1.2c0,0.5,0.1,1.1,0.1,1.6c0,2.1-0.4,4.2-1.1,6.2l-0.5,1.3l-3.2-1.1l-1.1,1.6l2.4,2.7
			l-0.8,1c-1.7,2.1-3.8,3.7-6.3,4.8l-1.3,0.6l-1.5-3.1l-1.9,0.4l-0.2,3.7l-1.2,0.1C-1043.5,502.1-1044,502.1-1044.6,502.1z"/>
		<path fill="#040000" d="M-1044.6,492.4c-4.8,0-8.7-3.9-8.7-8.7c0-4.8,3.9-8.7,8.7-8.7c4.8,0,8.7,3.9,8.7,8.7
			C-1035.9,488.5-1039.8,492.4-1044.6,492.4z M-1044.6,478c-3.2,0-5.8,2.6-5.8,5.8c0,3.2,2.6,5.8,5.8,5.8c3.2,0,5.8-2.6,5.8-5.8
			C-1038.8,480.6-1041.4,478-1044.6,478z"/>
	</g>
	<path fill="none" stroke="#040000" stroke-width="3.6714" stroke-miterlimit="10" d="M-1037.6,462.9c0-7.6,6.2-13.8,13.8-13.8
		s13.8,6.2,13.8,13.8c0,7.6-6.2,13.8-13.8,13.8"/>
	<circle fill="#040000" cx="-1023.8" cy="462.9" r="3.7"/>
	<line fill="none" stroke="#040000" stroke-width="2.4476" stroke-miterlimit="10" x1="-1022.6" y1="461.7" x2="-1015.8" y2="455"/>
</g>
<g>
	<path fill="#040000" d="M-1017.1,343h-35.3v-43h35.3V343z M-1049.5,340.2h29.5v-37.3h-29.5V340.2z"/>
	<polygon fill="#040000" points="-1009.3,336 -1012.1,336 -1012.1,295 -1044.4,295 -1044.4,292.1 -1009.3,292.1 	"/>
	<rect x="-1043.2" y="333.6" fill="#040000" width="16.5" height="3"/>
	<rect x="-1043.2" y="328.6" fill="#040000" width="16.5" height="3"/>
	<path d="M-1029.8,316.9c0.5,0.7,0.6,1.5,0.5,2.3c-0.1,1-0.5,1.9-1.2,2.7c-0.7,0.8-1.8,1.3-3.2,1.4v1.5l-2.1,0v-1.4
		c-1.6-0.2-2.8-0.9-3.5-1.9c-0.7-1.1-1-2.2-1-3.3h2.2c0,0.9,0.2,1.5,0.6,2.1c0.4,0.5,1,0.9,1.7,1.1v-5.1c-0.2-0.1-0.4-0.1-0.7-0.2
		c-0.2-0.1-0.5-0.2-0.7-0.2c-0.9-0.4-1.6-0.9-2.1-1.5c-0.5-0.6-0.7-1.5-0.6-2.5c0.1-0.9,0.4-1.7,1.1-2.5c0.7-0.8,1.7-1.3,3-1.5v-1.5
		h2.1v1.5c1.7,0.3,2.7,0.9,3.3,2c0.5,1.1,0.8,1.9,0.7,2.6h-2.2c0-0.6-0.1-1.1-0.4-1.6c-0.3-0.5-0.8-0.8-1.4-1v4.8
		c0.3,0.1,0.7,0.2,1,0.3c0.3,0.1,0.7,0.2,0.9,0.4C-1030.9,315.6-1030.3,316.2-1029.8,316.9z M-1035.8,309.7
		c-0.6,0.1-1.1,0.4-1.4,0.8c-0.3,0.4-0.5,0.8-0.5,1.3c0,0.6,0.1,1,0.4,1.3c0.3,0.3,0.6,0.5,1,0.7c0,0,0.1,0,0.2,0.1
		c0.1,0,0.2,0.1,0.2,0.1V309.7z M-1032.2,320.5c0.3-0.4,0.6-0.8,0.6-1.3c0.1-0.5,0-0.9-0.3-1.3c-0.3-0.4-0.6-0.7-1.1-0.9
		c-0.1-0.1-0.2-0.1-0.4-0.2c-0.1-0.1-0.3-0.1-0.4-0.1v4.5C-1033,321.2-1032.5,320.9-1032.2,320.5z"/>
</g>
<rect x="-324.9" y="-174.6" fill="none" stroke="#000000" stroke-miterlimit="10" width="64" height="64"/>
<rect x="-324.9" y="-174.6" fill="none" stroke="#000000" stroke-miterlimit="10" width="64" height="64"/>
<rect x="-324.9" y="-174.6" fill="none" stroke="#000000" stroke-miterlimit="10" width="64" height="64"/>
</svg>
