<?xml version="1.0" encoding="utf-8"?>
<!-- Generator: Adobe Illustrator 26.0.3, SVG Export Plug-In . SVG Version: 6.00 Build 0)  -->
<svg version="1.1" xmlns="http://www.w3.org/2000/svg" xmlns:xlink="http://www.w3.org/1999/xlink" x="0px" y="0px"
	 viewBox="0 0 64 64" style="enable-background:new 0 0 64 64;" xml:space="preserve">
<style type="text/css">
	.st0{display:none;}
	.st1{fill:#ffffff;}
	.st2{clip-path:url(#SVGID_00000153703040214199092640000009023697240335018385_);}
	.st3{clip-path:url(#SVGID_00000015353547139041272630000005514918775137515706_);}
</style>
<g id="레이어_3" class="st0">
</g>
<g id="레이어_1">
</g>
<g id="레이어_2">
	<g>
		<defs>
			<path id="SVGID_00000139996068923685228180000009134425953768268189_" d="M0,0v64h64V0H0z M59.065,57.844
				c-0.469,0.519-0.985,1.021-1.535,1.494c-3.049,2.619-6.935,4.062-10.943,4.062c-9.271,0-16.813-7.542-16.813-16.813
				c0-4.162,1.539-8.16,4.335-11.257c0.469-0.519,0.985-1.021,1.535-1.494c3.049-2.619,6.935-4.062,10.943-4.062
				c9.271,0,16.813,7.542,16.813,16.813C63.4,50.749,61.861,54.747,59.065,57.844z"/>
		</defs>
		<clipPath id="SVGID_00000049207591407049780270000017580373041127018399_">
			<use xlink:href="#SVGID_00000139996068923685228180000009134425953768268189_"  style="overflow:visible;"/>
		</clipPath>
		<g style="clip-path:url(#SVGID_00000049207591407049780270000017580373041127018399_);">
			<g>
				<rect fill="#ffffff"  x="6.476" y="6.157" width="5.217" height="5.217"/>
				<rect fill="#ffffff"  x="13.78" y="6.157" width="5.217" height="5.217"/>
				<rect fill="#ffffff"  x="21.084" y="6.157" width="5.217" height="5.217"/>
				<rect fill="#ffffff"  x="35.693" y="6.157" width="5.217" height="5.217"/>
				<rect fill="#ffffff"  x="42.997" y="6.157" width="5.217" height="5.217"/>
				<rect fill="#ffffff"  x="6.476" y="13.461" width="5.217" height="5.217"/>
				<rect fill="#ffffff"  x="13.78" y="13.461" width="5.217" height="5.217"/>
				<rect fill="#ffffff"  x="21.084" y="13.461" width="5.217" height="5.217"/>
				<rect fill="#ffffff"  x="35.693" y="13.461" width="5.217" height="5.217"/>
				<rect fill="#ffffff"  x="42.997" y="13.461" width="5.217" height="5.217"/>
				<rect fill="#ffffff"  x="6.476" y="27.026" width="5.217" height="5.217"/>
				<rect fill="#ffffff"  x="13.78" y="27.026" width="5.217" height="5.217"/>
				<rect fill="#ffffff"  x="21.084" y="27.026" width="5.217" height="5.217"/>
				<rect fill="#ffffff"  x="35.693" y="27.026" width="5.217" height="5.217"/>
				<rect fill="#ffffff"  x="42.997" y="27.026" width="5.217" height="5.217"/>
				<rect fill="#ffffff"  x="13.78" y="34.33" width="5.217" height="5.217"/>
				<rect fill="#ffffff"  x="21.084" y="34.33" width="5.217" height="5.217"/>
				<rect fill="#ffffff"  x="35.693" y="34.33" width="5.217" height="5.217"/>
				<rect fill="#ffffff"  x="21.084" y="41.635" width="5.217" height="5.217"/>
				<rect fill="#ffffff"  x="28.388" y="6.157" width="5.217" height="5.217"/>
				<rect fill="#ffffff"  x="28.388" y="13.461" width="5.217" height="5.217"/>
				<rect fill="#ffffff"  x="28.388" y="27.026" width="5.217" height="5.217"/>
				<rect fill="#ffffff"  x="28.388" y="34.33" width="5.217" height="5.217"/>
				<rect fill="#ffffff"  x="28.388" y="41.635" width="5.217" height="5.217"/>
			</g>
			<rect fill="#ffffff" x="6.201" y="21.809" width="8.481" height="2.087"/>
			<rect fill="#ffffff" x="17.482" y="21.809" width="8.481" height="2.087"/>
			<rect fill="#ffffff" x="28.763" y="21.809" width="8.481" height="2.087"/>
			<rect fill="#ffffff" x="40.044" y="21.809" width="8.481" height="2.087"/>
		</g>
	</g>
	<g>
		<path class="st1" d="M46.587,32.174c-3.435,0-6.766,1.237-9.379,3.482c-0.474,0.407-0.917,0.839-1.318,1.282
			c-2.396,2.655-3.716,6.081-3.716,9.648C32.174,54.534,38.64,61,46.587,61c3.435,0,6.766-1.237,9.379-3.482
			c0.474-0.407,0.917-0.839,1.318-1.282C59.68,53.581,61,50.154,61,46.587C61,38.64,54.534,32.174,46.587,32.174z M53.448,55.741
			c-1.977,1.484-4.389,2.296-6.861,2.296c-6.313,0-11.45-5.136-11.45-11.45c0-2.568,0.874-5.058,2.473-7.079L53.448,55.741z
			 M58.037,46.587c0,2.568-0.874,5.058-2.473,7.079L39.726,37.433c1.977-1.484,4.389-2.296,6.861-2.296
			C52.9,35.137,58.037,40.274,58.037,46.587z"/>
	</g>
</g>
<g id="레이어_4">
</g>
</svg>
