<?xml version="1.0" encoding="utf-8"?>
<!-- Generator: Adobe Illustrator 22.0.1, SVG Export Plug-In . SVG Version: 6.00 Build 0)  -->
<svg version="1.1" baseProfile="tiny" id="레이어_1"
	 xmlns="http://www.w3.org/2000/svg" xmlns:xlink="http://www.w3.org/1999/xlink" x="0px" y="0px" viewBox="0 0 64 64"
	 xml:space="preserve">
<g>
	<path d="M126.4,67.8l0-1.2c-0.4,0.4-1,0.8-1.6,1.1c-0.7,0.3-1.4,0.5-2.2,0.5c-2.1,0-3.8-0.7-5.1-2c-1.3-1.3-1.9-3-1.9-5
		c0-2,0.6-3.7,1.9-5c1.3-1.3,3-1.9,5.1-1.9c2.1,0,3.6,0.5,4.7,1.6c1.1,1,1.7,2,2,3h-3.1c-0.2-0.5-0.6-1-1.1-1.5
		c-0.5-0.5-1.3-0.8-2.4-0.8c-1.3,0-2.3,0.4-3,1.3s-1.1,1.9-1.1,3.3c0,1.4,0.4,2.5,1.1,3.4c0.7,0.9,1.7,1.3,3,1.3
		c1.1,0,1.9-0.3,2.5-1c0.6-0.7,1-1.3,1.2-1.9h-3.6v-2.1h6.6v7.1L126.4,67.8z"/>
	<rect x="99.3" y="54.3" width="5.8" height="5.8"/>
	<rect x="107.4" y="54.3" width="5.8" height="5.8"/>
	<rect x="131.6" y="54.3" width="5.8" height="5.8"/>
	<rect x="139.7" y="54.3" width="5.8" height="5.8"/>
	<rect x="99.3" y="62.4" width="5.8" height="5.8"/>
	<rect x="107.4" y="62.4" width="5.8" height="5.8"/>
	<rect x="131.6" y="62.4" width="5.8" height="5.8"/>
	<rect x="139.7" y="62.4" width="5.8" height="5.8"/>
	<rect x="99.3" y="77.4" width="5.8" height="5.8"/>
	<rect x="107.4" y="77.4" width="5.8" height="5.8"/>
	<rect x="115.4" y="77.4" width="5.8" height="5.8"/>
	<rect x="131.6" y="77.4" width="5.8" height="5.8"/>
	<rect x="139.7" y="77.4" width="5.8" height="5.8"/>
	<rect x="107.4" y="86.6" width="5.8" height="5.8"/>
	<rect x="115.4" y="86.6" width="5.8" height="5.8"/>
	<rect x="131.6" y="86.6" width="5.8" height="5.8"/>
	<rect x="115.4" y="94.7" width="5.8" height="5.8"/>
	<rect x="123.5" y="77.4" width="5.8" height="5.8"/>
	<rect x="123.5" y="86.6" width="5.8" height="5.8"/>
	<rect x="123.5" y="94.7" width="5.8" height="5.8"/>
	<polygon points="106.5,71.6 104.6,71.6 102.7,71.6 99,71.6 99,73.9 102.7,73.9 104.6,73.9 106.5,73.9 107.1,73.9 108.4,73.9 
		108.4,71.6 107.1,71.6 	"/>
	<polygon points="119,71.6 117.1,71.6 115.2,71.6 111.5,71.6 111.5,73.9 115.2,73.9 117.1,73.9 119,73.9 119.6,73.9 120.8,73.9 
		120.8,71.6 119.6,71.6 	"/>
	<polygon points="131.4,71.6 129.6,71.6 127.7,71.6 123.9,71.6 123.9,73.9 127.7,73.9 129.6,73.9 131.4,73.9 132.1,73.9 133.3,73.9 
		133.3,71.6 132.1,71.6 	"/>
	<polygon points="143.9,71.6 142,71.6 140.2,71.6 136.4,71.6 136.4,73.9 140.2,73.9 142,73.9 143.9,73.9 144.6,73.9 145.8,73.9 
		145.8,71.6 144.6,71.6 	"/>
</g>
<g>
	<path d="M212.9,61.9c0.5,0.6,0.7,1.3,0.6,2.2c-0.1,1.1-0.6,1.9-1.6,2.6s-2.3,1-3.8,1h-6.6V54.6l6.6,0c1.4,0,2.5,0.3,3.3,0.9
		c0.8,0.6,1.3,1.3,1.4,2.1c0.2,0.8,0,1.4-0.3,2c-0.4,0.5-0.8,0.9-1.2,1.2C211.8,61,212.4,61.4,212.9,61.9z M209.3,59.4
		c0.4-0.3,0.6-0.6,0.6-1.1c0-0.4-0.2-0.7-0.6-1c-0.4-0.2-0.9-0.4-1.6-0.4h-3.3v2.8h3.3C208.4,59.8,208.9,59.6,209.3,59.4z M209.9,65
		c0.4-0.4,0.6-0.7,0.6-1.2s-0.2-0.8-0.6-1.2c-0.4-0.3-1-0.5-1.9-0.5h-3.6v3.4h3.6C208.8,65.5,209.5,65.3,209.9,65z"/>
	<rect x="184.4" y="54.3" width="5.8" height="5.8"/>
	<rect x="192.5" y="54.3" width="5.8" height="5.8"/>
	<rect x="216.8" y="54.3" width="5.8" height="5.8"/>
	<rect x="224.9" y="54.3" width="5.8" height="5.8"/>
	<rect x="184.4" y="62.4" width="5.8" height="5.8"/>
	<rect x="192.5" y="62.4" width="5.8" height="5.8"/>
	<rect x="216.8" y="62.4" width="5.8" height="5.8"/>
	<rect x="224.9" y="62.4" width="5.8" height="5.8"/>
	<rect x="184.4" y="77.4" width="5.8" height="5.8"/>
	<rect x="192.5" y="77.4" width="5.8" height="5.8"/>
	<rect x="200.6" y="77.4" width="5.8" height="5.8"/>
	<rect x="216.8" y="77.4" width="5.8" height="5.8"/>
	<rect x="224.9" y="77.4" width="5.8" height="5.8"/>
	<rect x="192.5" y="86.6" width="5.8" height="5.8"/>
	<rect x="200.6" y="86.6" width="5.8" height="5.8"/>
	<rect x="216.8" y="86.6" width="5.8" height="5.8"/>
	<rect x="200.6" y="94.7" width="5.8" height="5.8"/>
	<rect x="208.7" y="77.4" width="5.8" height="5.8"/>
	<rect x="208.7" y="86.6" width="5.8" height="5.8"/>
	<rect x="208.7" y="94.7" width="5.8" height="5.8"/>
	<polygon points="191.7,71.6 189.8,71.6 187.9,71.6 184.1,71.6 184.1,73.9 187.9,73.9 189.8,73.9 191.7,73.9 192.3,73.9 193.5,73.9 
		193.5,71.6 192.3,71.6 	"/>
	<polygon points="204.1,71.6 202.3,71.6 200.4,71.6 196.6,71.6 196.6,73.9 200.4,73.9 202.3,73.9 204.1,73.9 204.8,73.9 206,73.9 
		206,71.6 204.8,71.6 	"/>
	<polygon points="216.6,71.6 214.7,71.6 212.9,71.6 209.1,71.6 209.1,73.9 212.9,73.9 214.7,73.9 216.6,73.9 217.3,73.9 218.5,73.9 
		218.5,71.6 217.3,71.6 	"/>
	<polygon points="229.1,71.6 227.2,71.6 225.3,71.6 221.6,71.6 221.6,73.9 225.3,73.9 227.2,73.9 229.1,73.9 229.7,73.9 231,73.9 
		231,71.6 229.7,71.6 	"/>
</g>
<g>
	<g>
		<rect fill="#ffffff" x="8.9" y="8.9" width="5.8" height="5.8"/>
		<rect fill="#ffffff" x="17" y="8.9" width="5.8" height="5.8"/>
		<rect fill="#ffffff" x="25.1" y="8.9" width="5.8" height="5.8"/>
		<rect fill="#ffffff" x="41.2" y="8.9" width="5.8" height="5.8"/>
		<rect fill="#ffffff" x="49.3" y="8.9" width="5.8" height="5.8"/>
		<rect fill="#ffffff" x="8.9" y="17" width="5.8" height="5.8"/>
		<rect fill="#ffffff" x="17" y="17" width="5.8" height="5.8"/>
		<rect fill="#ffffff" x="25.1" y="17" width="5.8" height="5.8"/>
		<rect fill="#ffffff" x="41.2" y="17" width="5.8" height="5.8"/>
		<rect fill="#ffffff" x="49.3" y="17" width="5.8" height="5.8"/>
		<rect fill="#ffffff" x="8.9" y="32" width="5.8" height="5.8"/>
		<rect fill="#ffffff" x="17" y="32" width="5.8" height="5.8"/>
		<rect fill="#ffffff" x="25.1" y="32" width="5.8" height="5.8"/>
		<rect fill="#ffffff" x="41.2" y="32" width="5.8" height="5.8"/>
		<rect fill="#ffffff" x="49.3" y="32" width="5.8" height="5.8"/>
		<rect fill="#ffffff" x="17" y="41.2" width="5.8" height="5.8"/>
		<rect fill="#ffffff" x="25.1" y="41.2" width="5.8" height="5.8"/>
		<rect fill="#ffffff" x="41.2" y="41.2" width="5.8" height="5.8"/>
		<rect fill="#ffffff" x="25.1" y="49.3" width="5.8" height="5.8"/>
		<rect fill="#ffffff" x="33.1" y="8.9" width="5.8" height="5.8"/>
		<rect fill="#ffffff" x="33.1" y="17" width="5.8" height="5.8"/>
		<rect fill="#ffffff" x="33.1" y="32" width="5.8" height="5.8"/>
		<rect fill="#ffffff" x="33.1" y="41.2" width="5.8" height="5.8"/>
		<rect fill="#ffffff" x="33.1" y="49.3" width="5.8" height="5.8"/>
	</g>
	<polygon fill="#ffffff" points="16.1,26.2 14.2,26.2 12.3,26.2 8.6,26.2 8.6,28.5 12.3,28.5 14.2,28.5 16.1,28.5 16.8,28.5 18,28.5 18,26.2 
		16.8,26.2 	"/>
	<polygon fill="#ffffff" points="28.6,26.2 26.7,26.2 24.8,26.2 21.1,26.2 21.1,28.5 24.8,28.5 26.7,28.5 28.6,28.5 29.2,28.5 30.5,28.5 30.5,26.2 
		29.2,26.2 	"/>
	<polygon fill="#ffffff" points="41.1,26.2 39.2,26.2 37.3,26.2 33.5,26.2 33.5,28.5 37.3,28.5 39.2,28.5 41.1,28.5 41.7,28.5 42.9,28.5 42.9,26.2 
		41.7,26.2 	"/>
	<polygon fill="#ffffff" points="53.5,26.2 51.7,26.2 49.8,26.2 46,26.2 46,28.5 49.8,28.5 51.7,28.5 53.5,28.5 54.2,28.5 55.4,28.5 55.4,26.2 
		54.2,26.2 	"/>
</g>
<text transform="matrix(1.14 0 0 1 112.8885 -25.1378)" font-family="'YDIYGO330'" font-size="8px">데크</text>
<text transform="matrix(1.14 0 0 1 191.3885 -25.1378)" font-family="'YDIYGO330'" font-size="8px">해치</text>
<text transform="matrix(1.14 0 0 1 269.8885 -25.1378)" font-family="'YDIYGO330'" font-size="8px">홀드</text>
<text transform="matrix(1.14 0 0 1 344.3884 -25.1378)" font-family="'YDIYGO330'" font-size="8px">선박베이</text>
<text transform="matrix(1.14 0 0 1 106.3885 121.3622)" font-family="'YDIYGO330'" font-size="8px">일반 계획</text>
<text transform="matrix(1.14 0 0 1 177.8885 121.3622)" font-family="'YDIYGO330'" font-size="8px">적재 / 베이플랜</text>
<text transform="matrix(1.14 0 0 1 281.2218 121.3622)" font-family="'YDIYGO330'" font-size="8px">설정</text>
<g>
	<path d="M308.8,70.2c-0.1-0.7-0.3-1.3-0.4-1.8l-0.3-1l-4,0.4l-1-2.6l3-2.2l-0.7-1c-1.7-2.5-3.9-4.6-6.4-6.1l-0.9-0.6l-2.5,3.1
		l-2.6-1.2l0.6-3.6l-1.2-0.2c-3-0.6-6-0.5-8.9,0.2l-1,0.3l0.4,4l-2.6,1l-2.2-3.1l-1,0.7c-2.5,1.7-4.6,3.9-6.2,6.4l-0.6,0.9l3.2,2.6
		l-1.2,2.6l-3.8-0.6l-0.2,1.2c-0.5,2.5-0.5,4.9-0.1,7.4c0.1,0.5,0.2,1,0.3,1.6l0.3,1l4.2-0.4l1,2.6l-3.2,2.3l0.7,1
		c1.4,2.1,3.1,3.9,5.1,5.3c0.4,0.3,0.9,0.6,1.3,0.9l0.9,0.6l2.7-3.3l2.6,1.2l-0.6,3.9l1.2,0.2c2.4,0.5,4.8,0.5,7.2,0.1
		c0.5-0.1,1.1-0.2,1.8-0.4l1-0.3l-0.4-4.2l2.6-1l2.3,3.1l1-0.7c2.5-1.7,4.6-3.9,6.1-6.5l0.5-0.9l-3.1-2.6l1.2-2.6l3.7,0.6l0.2-1.2
		C309.2,75,309.2,72.6,308.8,70.2z M306.4,75.7l-3.2-0.5l-2.7,6l3,2.4c-1,1.6-2.3,2.9-3.8,4.1l-1.9-2.7l-6.2,2.3l0.4,3.9
		c-0.2,0-0.4,0.1-0.5,0.1c-1.7,0.3-3.4,0.3-5.1,0.1l0.5-3.3l-6.1-2.8l-2.5,3c-0.1-0.1-0.2-0.1-0.3-0.2c-1.4-1-2.7-2.3-3.8-3.7l2.8-2
		l-2.3-6.2l-3.9,0.4c0-0.1,0-0.2-0.1-0.3c-0.3-1.7-0.3-3.5-0.1-5.3l3.3,0.5l2.7-6l-3-2.4c1.1-1.5,2.4-2.9,3.9-4l1.9,2.6l6.2-2.3
		l-0.4-3.7c1.8-0.3,3.7-0.4,5.6-0.1l-0.5,3.1l6,2.7l2.3-2.8c1.5,1,2.9,2.3,4,3.8l-2.5,1.8l2.3,6.2l3.7-0.4c0,0.2,0.1,0.4,0.1,0.5
		C306.6,72.3,306.6,74,306.4,75.7z"/>
	<path d="M288.5,83.3c-5.4,0-9.8-4.4-9.8-9.8s4.4-9.8,9.8-9.8s9.8,4.4,9.8,9.8S293.9,83.3,288.5,83.3z M288.5,66.3
		c-4,0-7.3,3.3-7.3,7.3s3.3,7.3,7.3,7.3s7.3-3.3,7.3-7.3S292.5,66.3,288.5,66.3z"/>
</g>
<g>
	<path fill="#221F20" d="M333.6,121.7c-0.4-0.2-0.8-0.5-1.2-0.9c-0.4-0.4-0.8-0.9-1-1.3c-0.1,0.4-0.4,0.8-0.8,1.3
		c-0.4,0.5-0.9,0.9-1.4,1.2l-0.9-0.8c1.1-0.6,1.8-1.4,2.1-2.2c0.3-0.8,0.4-1.4,0.4-1.9v-0.9h1.3v0.9c0,0.5,0.1,1.1,0.4,1.9
		c0.3,0.7,0.9,1.4,1.9,1.8L333.6,121.7z M337.3,126c-0.7,0.4-1.7,0.6-3.1,0.6c-1.3,0-2.4-0.2-3.1-0.6c-0.7-0.4-1-0.9-1-1.5
		c0-0.6,0.3-1.1,1-1.5c0.7-0.4,1.7-0.6,3.1-0.6c1.4,0,2.4,0.2,3.1,0.6c0.7,0.4,1,0.9,1,1.5C338.3,125.1,338,125.6,337.3,126z
		 M336.2,123.7c-0.5-0.2-1.2-0.3-2-0.3c-0.8,0-1.5,0.1-2.1,0.3c-0.5,0.2-0.8,0.5-0.8,0.8c0,0.4,0.3,0.6,0.8,0.8
		c0.5,0.2,1.2,0.3,2.1,0.3c0.8,0,1.5-0.1,2-0.3c0.5-0.2,0.8-0.5,0.8-0.8C337,124.1,336.8,123.9,336.2,123.7z M337.1,122.4v-2.9h-1.2
		v2.5h-1.2v-5.9h1.2v2.4h1.2v-2.5h1.2v6.5H337.1z"/>
	<path fill="#221F20" d="M345.6,122.1c-0.5-0.2-1.1-0.6-1.6-1.1c-0.6-0.5-1-1-1.2-1.5c-0.2,0.6-0.6,1.1-1.1,1.6
		c-0.5,0.5-1.1,0.9-1.7,1.3l-0.8-0.8c1.1-0.6,1.9-1.2,2.4-2c0.4-0.7,0.6-1.6,0.6-2.5v-0.9h1.3v0.9c0,0.8,0.2,1.6,0.7,2.4
		c0.5,0.7,1.2,1.3,2.2,1.8L345.6,122.1z M341.3,126.2v-3.3h1.2v2.3h6.4v1H341.3z M348.6,115.9v3.1h1.5v1h-1.5v3.6h-1.2v-7.6H348.6z"
		/>
	<path fill="#221F20" d="M356.8,121.6c-0.6-0.2-1.1-0.6-1.7-1c-0.5-0.5-0.9-0.9-1.2-1.3c-0.2,0.5-0.6,1-1.2,1.5
		c-0.6,0.5-1.1,0.9-1.6,1.2l-0.9-0.8c1.3-0.6,2.2-1.3,2.5-2.1c0.3-0.8,0.5-1.4,0.5-1.9v-0.9h1.3v0.9c0,0.5,0.2,1.1,0.5,1.8
		c0.3,0.7,1.1,1.3,2.4,1.8L356.8,121.6z M359.2,126c-0.7,0.4-1.7,0.6-3,0.6c-1.3,0-2.3-0.2-3-0.6c-0.7-0.4-1-0.9-1-1.5
		c0-0.6,0.3-1.1,1-1.5c0.7-0.4,1.7-0.6,3-0.6c1.3,0,2.3,0.2,3,0.6c0.7,0.4,1,0.9,1,1.5C360.2,125.1,359.9,125.6,359.2,126z
		 M358.2,123.7c-0.5-0.2-1.1-0.3-1.9-0.3c-0.8,0-1.5,0.1-2,0.3c-0.5,0.2-0.7,0.5-0.7,0.9c0,0.3,0.2,0.6,0.7,0.8
		c0.5,0.2,1.1,0.3,2,0.3c0.8,0,1.4-0.1,1.9-0.3c0.5-0.2,0.7-0.5,0.7-0.8C359,124.2,358.7,123.9,358.2,123.7z M358.9,122.2V119h-2.2
		V118h2.2v-2.1h1.2v6.3H358.9z"/>
	<path fill="#221F20" d="M363.6,127c-0.4-0.6-0.9-1.4-1.4-2.4c-0.5-1-0.7-2.1-0.7-3.4c0-1.3,0.2-2.5,0.7-3.4c0.5-1,0.9-1.8,1.4-2.4
		h0.9c-0.6,1.1-1.1,2.1-1.4,3c-0.3,0.9-0.4,1.9-0.4,2.8c0,0.9,0.1,1.8,0.4,2.8c0.3,0.9,0.7,2,1.4,3H363.6z"/>
	<path fill="#221F20" d="M371.2,117.6c0.6,0.5,0.8,1.1,0.8,1.9c0,0.8-0.3,1.4-0.8,1.9c-0.6,0.5-1.2,0.7-2.1,0.7h-2.4v3.3h-1.1v-8.5
		h3.5C370,116.9,370.6,117.2,371.2,117.6z M370.3,120.7c0.4-0.3,0.5-0.7,0.5-1.2c0-0.6-0.2-1-0.5-1.2c-0.4-0.2-0.8-0.3-1.2-0.3h-2.4
		v3.1h2.4C369.6,121.1,370,120.9,370.3,120.7z"/>
	<path fill="#221F20" d="M376.2,120.2c-0.2,0-0.4,0-0.6,0c-0.2,0-0.3,0.1-0.5,0.1c-0.4,0.2-0.6,0.4-0.8,0.8s-0.3,0.8-0.3,1.4v2.9
		h-1.1v-6.1h1.1v0.9l0.1,0c0.1-0.2,0.3-0.4,0.5-0.6c0.2-0.1,0.4-0.3,0.6-0.4c0.2-0.1,0.4-0.1,0.6-0.1c0.2,0,0.3,0,0.3,0V120.2z"/>
	<path fill="#221F20" d="M381.5,120c0.6,0.6,0.8,1.4,0.8,2.4c0,1-0.3,1.7-0.8,2.4c-0.6,0.6-1.3,0.9-2.3,0.9c-1,0-1.7-0.3-2.3-0.9
		c-0.6-0.6-0.8-1.4-0.8-2.4c0-1,0.3-1.7,0.8-2.4c0.6-0.6,1.3-0.9,2.3-0.9C380.2,119,381,119.4,381.5,120z M380.7,124.1
		c0.4-0.4,0.6-1,0.6-1.8c0-0.7-0.2-1.3-0.6-1.7c-0.4-0.4-0.8-0.7-1.4-0.7c-0.6,0-1.1,0.2-1.5,0.7c-0.4,0.4-0.5,1-0.5,1.7
		c0,0.7,0.2,1.3,0.5,1.8c0.4,0.4,0.8,0.7,1.5,0.7C379.8,124.8,380.3,124.5,380.7,124.1z"/>
	<path fill="#221F20" d="M388,125.4v-0.7c-0.3,0.3-0.6,0.5-0.9,0.7c-0.4,0.2-0.7,0.2-1.1,0.2c-0.9,0-1.6-0.3-2.2-0.9
		c-0.5-0.6-0.8-1.4-0.8-2.4c0-1,0.3-1.8,0.8-2.4c0.5-0.6,1.3-0.9,2.2-0.9c0.4,0,0.8,0.1,1.1,0.2c0.4,0.2,0.7,0.4,0.9,0.7v-3h1.1v8.5
		H388z M387.6,124.1c0.3-0.4,0.5-1,0.5-1.7c0-0.7-0.2-1.3-0.5-1.7c-0.3-0.4-0.8-0.6-1.4-0.6c-0.6,0-1.1,0.2-1.4,0.6
		c-0.3,0.4-0.5,1-0.5,1.6c0,0.7,0.2,1.2,0.5,1.7c0.3,0.4,0.8,0.6,1.4,0.6C386.7,124.7,387.2,124.5,387.6,124.1z"/>
	<path fill="#221F20" d="M394.9,125.5v-0.8c-0.2,0.3-0.5,0.5-0.8,0.7c-0.4,0.2-0.8,0.3-1.3,0.3c-0.5,0-1-0.2-1.5-0.6
		c-0.5-0.4-0.7-1-0.7-1.7v-4.1h1.1v3.7c0,0.6,0.1,1,0.4,1.2c0.3,0.3,0.6,0.4,1.1,0.4c0.5,0,0.9-0.2,1.2-0.5c0.3-0.3,0.5-0.8,0.5-1.3
		v-3.5h1.1v6.2H394.9z"/>
	<path fill="#221F20" d="M403,123.5c-0.1,0.6-0.5,1.1-0.9,1.5c-0.5,0.4-1.1,0.7-2,0.7c-1,0-1.7-0.3-2.3-0.9
		c-0.6-0.6-0.8-1.4-0.8-2.4c0-1,0.3-1.7,0.8-2.4c0.6-0.6,1.3-0.9,2.3-0.9c0.8,0,1.5,0.2,2,0.7c0.5,0.5,0.8,1,0.9,1.5h-1.2
		c-0.1-0.3-0.2-0.5-0.5-0.8c-0.3-0.3-0.7-0.4-1.2-0.4c-0.6,0-1.1,0.2-1.4,0.7c-0.3,0.4-0.5,1-0.5,1.7c0,0.7,0.2,1.3,0.5,1.7
		c0.3,0.4,0.8,0.7,1.4,0.7c0.5,0,0.8-0.1,1.1-0.4c0.3-0.2,0.5-0.5,0.6-0.8H403z"/>
	<path fill="#221F20" d="M405.3,125.4c-0.2,0-0.4-0.1-0.6-0.2c-0.2-0.1-0.3-0.2-0.4-0.4c-0.1-0.1-0.2-0.3-0.2-0.4
		c0-0.2-0.1-0.4-0.1-0.7v-3.5h-0.8v-0.9l0.8,0v-1.9h1.1v1.9l0.9,0v0.9h-0.9v3.4c0,0.1,0,0.3,0,0.4c0,0.1,0.1,0.2,0.2,0.3
		c0.1,0.1,0.2,0.1,0.4,0.2c0.1,0,0.3,0,0.4,0l0,0.9H405.3z"/>
	<path fill="#221F20" d="M407.1,118v-1.1h1.1v1.1H407.1z M407.1,125.4v-6.2h1.1v6.2H407.1z"/>
	<path fill="#221F20" d="M412.7,125.4h-1.3l-2.4-6h1.1l1.9,5l1.9-5h1.1L412.7,125.4z"/>
	<path fill="#221F20" d="M416,118v-1.1h1.1v1.1H416z M416,125.4v-6.2h1.1v6.2H416z"/>
	<path fill="#221F20" d="M419.9,125.4c-0.2,0-0.4-0.1-0.6-0.2c-0.2-0.1-0.3-0.2-0.4-0.4c-0.1-0.1-0.2-0.3-0.2-0.4
		c0-0.2-0.1-0.4-0.1-0.7v-3.5h-0.8v-0.9l0.8,0v-1.9h1.1v1.9l0.9,0v0.9h-0.9v3.4c0,0.1,0,0.3,0,0.4c0,0.1,0.1,0.2,0.2,0.3
		c0.1,0.1,0.2,0.1,0.4,0.2c0.1,0,0.3,0,0.4,0l0,0.9H419.9z"/>
	<path fill="#221F20" d="M424.6,126.1c-0.1,0.2-0.2,0.4-0.3,0.5c-0.1,0.1-0.3,0.3-0.4,0.4c-0.2,0.1-0.4,0.2-0.5,0.2
		c-0.2,0-0.4,0-0.5,0h-0.4v-0.9h0.6c0.2,0,0.3-0.1,0.4-0.2c0.1-0.1,0.2-0.2,0.3-0.3l0.3-0.6l-2.5-5.9l1.1,0l1.9,4.5l1.9-4.5h1.1
		L424.6,126.1z"/>
	<path fill="#221F20" d="M429.2,123.9c0.3-0.9,0.4-1.9,0.4-2.8c0-0.9-0.1-1.8-0.4-2.8c-0.3-0.9-0.7-2-1.4-3h0.9
		c0.4,0.6,0.9,1.4,1.4,2.4c0.5,1,0.7,2.1,0.7,3.4c0,1.3-0.2,2.5-0.7,3.4c-0.5,1-0.9,1.8-1.4,2.4h-0.9
		C428.4,125.9,428.9,124.9,429.2,123.9z"/>
</g>
<g>
	<path d="M387.3,74.7c-0.1-0.5-0.2-1-0.3-1.3l-0.2-0.8l-2.9,0.3l-0.7-1.9l2.2-1.6l-0.5-0.7c-1.2-1.8-2.8-3.3-4.7-4.5l-0.7-0.4
		l-1.8,2.2l-1.9-0.8l0.4-2.7l-0.9-0.2c-2.2-0.4-4.4-0.4-6.5,0.1l-0.8,0.2l0.3,2.9l-1.9,0.7l-1.6-2.2l-0.7,0.5
		c-1.8,1.2-3.4,2.8-4.5,4.7l-0.4,0.7l2.3,1.9l-0.8,1.9l-2.8-0.5l-0.2,0.9c-0.4,1.8-0.4,3.6-0.1,5.4c0.1,0.4,0.2,0.8,0.2,1.1l0.2,0.8
		l3.1-0.3l0.7,1.9l-2.3,1.7l0.5,0.7c1,1.5,2.3,2.8,3.7,3.9c0.3,0.2,0.6,0.4,1,0.6l0.7,0.4l2-2.4l1.9,0.8l-0.5,2.8l0.9,0.2
		c1.8,0.3,3.5,0.4,5.2,0.1c0.4-0.1,0.8-0.2,1.3-0.3l0.8-0.2l-0.3-3l1.9-0.7l1.7,2.3l0.7-0.5c1.8-1.3,3.3-2.9,4.4-4.8l0.4-0.7
		l-2.3-1.9l0.8-1.9l2.7,0.4l0.2-0.9C387.5,78.1,387.5,76.4,387.3,74.7z M385.5,78.7l-2.3-0.4l-2,4.4l2.2,1.8c-0.8,1.1-1.7,2.1-2.8,3
		l-1.4-2l-4.5,1.7l0.3,2.9c-0.1,0-0.3,0.1-0.4,0.1c-1.2,0.2-2.5,0.2-3.7,0.1l0.4-2.4l-4.5-2L365,88c-0.1,0-0.1-0.1-0.2-0.1
		c-1-0.8-2-1.7-2.8-2.7l2-1.5l-1.7-4.5l-2.9,0.3c0-0.1,0-0.2,0-0.2c-0.2-1.3-0.2-2.6-0.1-3.9l2.4,0.4l2-4.4l-2.2-1.8
		c0.8-1.1,1.7-2.1,2.8-2.9l1.4,1.9l4.5-1.7l-0.3-2.7c1.3-0.3,2.7-0.3,4.1-0.1l-0.4,2.3l4.4,2l1.7-2.1c1.1,0.8,2.1,1.7,3,2.8
		l-1.9,1.3l1.7,4.5l2.7-0.3c0,0.1,0.1,0.3,0.1,0.4C385.7,76.2,385.7,77.4,385.5,78.7z"/>
	<path d="M372.4,84.3c-3.9,0-7.1-3.2-7.1-7.1c0-3.9,3.2-7.1,7.1-7.1c3.9,0,7.1,3.2,7.1,7.1C379.6,81.1,376.4,84.3,372.4,84.3z
		 M372.4,71.8c-2.9,0-5.3,2.4-5.3,5.3c0,2.9,2.4,5.3,5.3,5.3c2.9,0,5.3-2.4,5.3-5.3C377.7,74.2,375.4,71.8,372.4,71.8z"/>
	<path d="M389.4,73.1v-3c5.4,0,9.8-4.4,9.8-9.8s-4.4-9.8-9.8-9.8s-9.8,4.4-9.8,9.8h-3c0-7.1,5.7-12.8,12.8-12.8s12.8,5.7,12.8,12.8
		S396.5,73.1,389.4,73.1z"/>
	<circle cx="389.4" cy="60.3" r="3"/>
	<rect x="389.2" y="55.6" transform="matrix(0.7071 -0.7071 0.7071 0.7071 75.1418 294.5608)" width="7.8" height="2"/>
</g>
<g>
	<path fill="#221F20" d="M467.6,122v4h-1.2v-4h-4.7v-1h10.6v1H467.6z M465.4,119c-0.8,0.4-1.6,0.7-2.4,0.9l-0.7-0.8
		c1.7-0.3,2.8-0.8,3.3-1.6c0.5-0.7,0.8-1.3,0.8-1.7v-0.5h1.3v0.5c0,0.4,0.2,0.9,0.7,1.6c0.5,0.7,1.6,1.2,3.3,1.6l-0.7,0.8
		c-0.6-0.1-1.4-0.4-2.2-0.8c-0.8-0.5-1.4-1-1.7-1.7C466.7,118.1,466.1,118.6,465.4,119z"/>
	<path fill="#221F20" d="M478.8,123.7c-0.7,0.1-1.4,0.1-2,0.1l-3,0v-4.3h4v-2.1h-4v-1h5.2v4.2h-4v2.3l2.2,0c0.5,0,1.1-0.1,1.8-0.1
		c0.6-0.1,1.1-0.1,1.5-0.2v1C480,123.6,479.5,123.7,478.8,123.7z M481,125.9v-10.6h1.2v10.6H481z"/>
	<path fill="#221F20" d="M486,126.5c-0.4-0.6-0.9-1.4-1.4-2.4c-0.5-1-0.7-2.1-0.7-3.4c0-1.3,0.2-2.5,0.7-3.4c0.5-1,0.9-1.8,1.4-2.4
		h0.9c-0.6,1.1-1.1,2.1-1.4,3c-0.3,0.9-0.4,1.9-0.4,2.8c0,0.9,0.1,1.8,0.4,2.8c0.3,0.9,0.7,2,1.4,3H486z"/>
	<path fill="#221F20" d="M493.5,124.9l-2.5-3.6h-1.9v3.5h-1.1v-8.5h3.5c0.8,0,1.5,0.2,2.1,0.7c0.6,0.4,0.8,1,0.8,1.8
		c0,0.6-0.2,1.1-0.6,1.5c-0.4,0.4-0.9,0.7-1.5,0.9l2.5,3.7H493.5z M492.7,120c0.4-0.3,0.6-0.6,0.6-1.1c0-0.5-0.2-0.9-0.5-1.1
		c-0.3-0.2-0.7-0.3-1.1-0.3h-2.4v2.9h2.4C492,120.4,492.4,120.2,492.7,120z"/>
	<path fill="#221F20" d="M496.1,122.2c0,0.6,0.2,1.1,0.6,1.5c0.4,0.4,0.8,0.6,1.4,0.6c0.5,0,0.9-0.1,1.2-0.3s0.4-0.4,0.5-0.6h1.2
		c-0.1,0.4-0.4,0.8-0.9,1.2c-0.4,0.4-1.1,0.6-1.9,0.6c-0.9,0-1.6-0.3-2.2-0.9c-0.6-0.6-0.9-1.4-0.9-2.3c0-0.9,0.3-1.7,0.8-2.3
		c0.6-0.6,1.3-0.9,2.2-0.9c0.8,0,1.6,0.3,2.2,0.8c0.6,0.6,0.9,1.5,0.9,2.7H496.1z M500,121.3c0-0.6-0.2-1-0.6-1.4
		c-0.3-0.3-0.8-0.5-1.4-0.5c-0.5,0-1,0.2-1.3,0.5c-0.3,0.3-0.5,0.8-0.6,1.4H500z"/>
	<path fill="#221F20" d="M507.5,119.4c0.6,0.6,0.8,1.4,0.8,2.4c0,1-0.3,1.8-0.8,2.4c-0.6,0.6-1.3,0.9-2.1,0.9
		c-0.4,0-0.8-0.1-1.1-0.2c-0.4-0.2-0.7-0.4-1-0.7v2.4h-1.1v-7.9h1.1v0.6c0.3-0.3,0.6-0.5,1-0.6c0.4-0.2,0.7-0.2,1.1-0.2
		C506.2,118.5,506.9,118.8,507.5,119.4z M506.6,123.6c0.4-0.4,0.5-1,0.5-1.8c0-0.8-0.2-1.3-0.5-1.7c-0.4-0.4-0.8-0.6-1.5-0.6
		c-0.6,0-1.1,0.2-1.5,0.6c-0.3,0.4-0.5,1-0.5,1.7c0,0.8,0.2,1.3,0.5,1.8c0.3,0.4,0.8,0.6,1.5,0.6C505.8,124.2,506.3,124,506.6,123.6
		z"/>
	<path fill="#221F20" d="M513.7,124.9c-0.1-0.1-0.1-0.3-0.2-0.4c0-0.2,0-0.3-0.1-0.5c-0.2,0.3-0.6,0.5-1,0.7
		c-0.4,0.2-0.8,0.3-1.3,0.4c-0.6,0-1.2-0.1-1.6-0.3c-0.5-0.2-0.7-0.7-0.8-1.2c-0.1-0.6,0-1,0.3-1.3c0.3-0.3,0.7-0.5,1.1-0.7
		c0.4-0.1,0.8-0.2,1.2-0.2c0.4,0,0.8-0.1,1.2-0.1c0.2,0,0.4-0.1,0.6-0.1c0.2-0.1,0.3-0.2,0.3-0.5c0-0.3-0.1-0.5-0.4-0.8
		c-0.2-0.2-0.7-0.4-1.2-0.4c-0.6,0-1,0.1-1.3,0.3c-0.3,0.2-0.4,0.5-0.3,0.8h-1.1c-0.1-0.7,0.2-1.2,0.7-1.5c0.6-0.4,1.2-0.5,2-0.5
		c0.7,0,1.3,0.2,1.9,0.5c0.6,0.4,0.8,0.9,0.8,1.5v3.4c0,0.3,0,0.5,0.1,0.7c0.1,0.2,0.1,0.3,0.1,0.3H513.7z M513.5,121.7
		c-0.1,0.1-0.2,0.1-0.3,0.2c-0.1,0.1-0.2,0.1-0.4,0.1c-0.2,0.1-0.6,0.1-1,0.1c-0.4,0-0.7,0.1-0.9,0.1c-0.4,0.1-0.6,0.3-0.8,0.4
		c-0.2,0.2-0.3,0.4-0.2,0.7c0,0.3,0.2,0.5,0.5,0.7c0.3,0.1,0.6,0.2,0.9,0.1c0.7,0,1.3-0.3,1.6-0.6c0.4-0.4,0.6-0.7,0.6-1V121.7z"/>
	<path fill="#221F20" d="M516,117.4v-1.1h1.1v1.1H516z M516,124.9v-6.2h1.1v6.2H516z"/>
	<path fill="#221F20" d="M521.8,119.7c-0.2,0-0.4,0-0.6,0c-0.2,0-0.3,0.1-0.5,0.1c-0.4,0.2-0.6,0.4-0.8,0.8
		c-0.2,0.3-0.3,0.8-0.3,1.4v2.9h-1.1v-6.1h1.1v0.9l0.1,0c0.1-0.2,0.3-0.4,0.5-0.6c0.2-0.1,0.4-0.3,0.6-0.4c0.2-0.1,0.4-0.1,0.6-0.1
		c0.2,0,0.3,0,0.3,0V119.7z"/>
	<path fill="#221F20" d="M523.7,123.4c0.3-0.9,0.4-1.9,0.4-2.8c0-0.9-0.1-1.8-0.4-2.8c-0.3-0.9-0.7-2-1.4-3h0.9
		c0.4,0.6,0.9,1.4,1.4,2.4c0.5,1,0.7,2.1,0.7,3.4c0,1.3-0.2,2.5-0.7,3.4c-0.5,1-0.9,1.8-1.4,2.4h-0.9
		C522.9,125.4,523.4,124.4,523.7,123.4z"/>
</g>
<g>
	<path d="M500.8,73.4l-0.2-0.8l-2.9,0.3L497,71l2.2-1.6l-0.5-0.7c-1.2-1.8-2.8-3.3-4.7-4.5l-0.7-0.4l-1.8,2.2l-1.9-0.8l0.4-2.7
		l-0.9-0.2c-2.2-0.4-4.4-0.4-6.5,0.1l-0.8,0.2l0.3,2.9l-1.9,0.7l-1.6-2.2l-0.7,0.5c-1.8,1.2-3.4,2.8-4.5,4.7L473,70l2.3,1.9
		l-0.8,1.9l-2.8-0.5l-0.2,0.9c-0.4,1.8-0.4,3.6-0.1,5.4c0.1,0.4,0.2,0.8,0.2,1.1l0.2,0.8l3.1-0.3l0.7,1.9l-2.3,1.7l0.5,0.7
		c1,1.5,2.3,2.8,3.7,3.9c0.3,0.2,0.6,0.4,1,0.6l0.7,0.4l2-2.4l1.9,0.8l-0.5,2.8l0.9,0.2c1.8,0.3,3.5,0.4,5.2,0.1
		c0.4-0.1,0.8-0.2,1.3-0.3l0.8-0.2l-0.3-3l1.9-0.7L494,90l0.7-0.5c1.8-1.3,3.3-2.9,4.4-4.8l0.4-0.7l-2.3-1.9l0.8-1.9l2.7,0.4
		l0.2-0.9c0.3-1.7,0.3-3.5,0.1-5.2C501,74.2,500.9,73.8,500.8,73.4z M499.4,78.7l-2.3-0.4l-2,4.4l2.2,1.8c-0.8,1.1-1.7,2.1-2.8,3
		l-1.4-2l-4.5,1.7l0.3,2.9c-0.1,0-0.3,0.1-0.4,0.1c-1.2,0.2-2.5,0.2-3.7,0.1l0.4-2.4l-4.5-2l-1.8,2.2c-0.1,0-0.1-0.1-0.2-0.1
		c-1-0.8-2-1.7-2.8-2.7l2-1.5l-1.7-4.5l-2.9,0.3c0-0.1,0-0.2,0-0.2c-0.2-1.3-0.2-2.6-0.1-3.9l2.4,0.4l2-4.4l-2.2-1.8
		c0.8-1.1,1.7-2.1,2.8-2.9l1.4,1.9l4.5-1.7l-0.3-2.7c1.3-0.3,2.7-0.3,4.1-0.1l-0.4,2.3l4.4,2l1.7-2.1c1.1,0.8,2.1,1.7,3,2.8
		l-1.9,1.3l1.7,4.5l2.7-0.3c0,0.1,0.1,0.3,0.1,0.4C499.5,76.2,499.5,77.4,499.4,78.7z"/>
	<path d="M486.3,70c-3.9,0-7.1,3.2-7.1,7.1c0,3.9,3.2,7.1,7.1,7.1c3.9,0,7.1-3.2,7.1-7.1C493.4,73.2,490.2,70,486.3,70z M486.3,82.4
		c-2.9,0-5.3-2.4-5.3-5.3s2.4-5.3,5.3-5.3s5.3,2.4,5.3,5.3S489.2,82.4,486.3,82.4z"/>
	<path d="M520.9,76.5c1.3-2.4,0.9-5.5-1.1-7.5c-1.7-1.7-4-2.2-6.1-1.6l-17.3-17.3c0.6-2.1,0-4.5-1.6-6.1c-2.5-2.5-6.5-2.5-9,0
		c-2.5,2.5-2.5,6.5,0,9c1.7,1.7,4,2.2,6.1,1.6l17.3,17.3c-0.6,2.1,0,4.5,1.6,6.1c2,2,5.1,2.4,7.5,1.1l-4.6-4.6l2.6-2.6L520.9,76.5z
		 M487.9,50.7l-0.8-3l2.2-2.2l3,0.8l0.8,3l-2.2,2.2L487.9,50.7z"/>
</g>
<g>
	<path fill="#221F20" d="M550.2,117.1c0.7,0.8,1.1,1.9,1.1,3.2c0,1.4-0.4,2.5-1.1,3.3c-0.7,0.8-1.7,1.2-2.9,1.2
		c-1.2,0-2.2-0.4-2.9-1.2c-0.7-0.8-1.1-1.9-1.1-3.3c0-1.3,0.4-2.4,1.1-3.2c0.7-0.8,1.7-1.2,2.9-1.2
		C548.5,115.8,549.4,116.2,550.2,117.1z M549.3,122.8c0.5-0.6,0.7-1.5,0.7-2.6c0-1-0.2-1.9-0.7-2.5c-0.5-0.6-1.2-0.9-2-0.9
		c-0.9,0-1.5,0.3-2,0.9c-0.5,0.6-0.7,1.5-0.7,2.5c0,1.1,0.2,1.9,0.7,2.6c0.5,0.6,1.1,1,2,1C548.1,123.8,548.8,123.5,549.3,122.8z"/>
	<path fill="#221F20" d="M557.8,119c0.6,0.6,0.8,1.4,0.8,2.4c0,1-0.3,1.8-0.8,2.4c-0.6,0.6-1.3,0.9-2.1,0.9c-0.4,0-0.8-0.1-1.1-0.2
		c-0.4-0.2-0.7-0.4-1-0.7v2.4h-1.1v-7.9h1.1v0.6c0.3-0.3,0.6-0.5,1-0.6c0.4-0.2,0.7-0.2,1.1-0.2C556.5,118.1,557.2,118.4,557.8,119z
		 M556.9,123.2c0.4-0.4,0.5-1,0.5-1.8c0-0.8-0.2-1.3-0.5-1.7c-0.4-0.4-0.8-0.6-1.5-0.6c-0.6,0-1.1,0.2-1.5,0.6
		c-0.3,0.4-0.5,1-0.5,1.7c0,0.8,0.2,1.3,0.5,1.8c0.3,0.4,0.8,0.6,1.5,0.6C556.1,123.8,556.6,123.6,556.9,123.2z"/>
	<path fill="#221F20" d="M560.4,121.8c0,0.6,0.2,1.1,0.6,1.5c0.4,0.4,0.8,0.6,1.4,0.6c0.5,0,0.9-0.1,1.2-0.3
		c0.3-0.2,0.4-0.4,0.5-0.6h1.2c-0.1,0.4-0.4,0.8-0.9,1.2c-0.4,0.4-1.1,0.6-1.9,0.6c-0.9,0-1.6-0.3-2.2-0.9c-0.6-0.6-0.9-1.4-0.9-2.3
		c0-0.9,0.3-1.7,0.8-2.3c0.6-0.6,1.3-0.9,2.2-0.9c0.8,0,1.6,0.3,2.2,0.8c0.6,0.6,0.9,1.5,0.9,2.7H560.4z M564.2,120.9
		c0-0.6-0.2-1-0.6-1.4c-0.3-0.3-0.8-0.5-1.4-0.5c-0.5,0-1,0.2-1.3,0.5c-0.3,0.3-0.6,0.8-0.6,1.4H564.2z"/>
	<path fill="#221F20" d="M569.6,119.3c-0.2,0-0.4,0-0.6,0c-0.2,0-0.3,0.1-0.5,0.1c-0.4,0.2-0.6,0.4-0.8,0.8
		c-0.2,0.3-0.3,0.8-0.3,1.4v2.9h-1.1v-6.1h1.1v0.9l0.1,0c0.1-0.2,0.3-0.4,0.5-0.6c0.2-0.1,0.4-0.3,0.6-0.4c0.2-0.1,0.4-0.1,0.6-0.1
		c0.2,0,0.3,0,0.3,0L569.6,119.3z"/>
	<path fill="#221F20" d="M574.5,124.6c-0.1-0.1-0.1-0.3-0.2-0.4c0-0.2,0-0.3-0.1-0.5c-0.2,0.3-0.6,0.5-1,0.7
		c-0.4,0.2-0.8,0.3-1.3,0.4c-0.6,0-1.2-0.1-1.6-0.3c-0.5-0.2-0.7-0.7-0.8-1.2c-0.1-0.6,0-1,0.3-1.3c0.3-0.3,0.7-0.5,1.1-0.7
		c0.4-0.1,0.8-0.2,1.2-0.2s0.8-0.1,1.2-0.1c0.2,0,0.4-0.1,0.6-0.1c0.2-0.1,0.3-0.2,0.3-0.5c0-0.3-0.1-0.5-0.4-0.8
		c-0.2-0.2-0.7-0.4-1.2-0.4s-1,0.1-1.3,0.3c-0.3,0.2-0.4,0.5-0.3,0.8h-1.1c-0.1-0.7,0.2-1.2,0.7-1.5c0.6-0.4,1.2-0.5,2-0.5
		c0.7,0,1.3,0.2,1.9,0.5c0.6,0.4,0.8,0.9,0.8,1.5v3.4c0,0.3,0,0.5,0.1,0.7c0.1,0.2,0.1,0.3,0.1,0.3H574.5z M574.3,121.3
		c-0.1,0.1-0.2,0.1-0.3,0.2c-0.1,0.1-0.2,0.1-0.4,0.1c-0.2,0.1-0.6,0.1-1,0.1c-0.4,0-0.7,0.1-0.9,0.1c-0.4,0.1-0.6,0.3-0.8,0.4
		c-0.2,0.2-0.3,0.4-0.2,0.7c0,0.3,0.2,0.5,0.5,0.7c0.3,0.1,0.6,0.2,0.9,0.1c0.7,0,1.3-0.3,1.6-0.6c0.4-0.4,0.6-0.7,0.6-1V121.3z"/>
	<path fill="#221F20" d="M578.1,124.5c-0.2,0-0.4-0.1-0.6-0.2c-0.2-0.1-0.3-0.2-0.4-0.4c-0.1-0.1-0.2-0.3-0.2-0.4
		c0-0.2-0.1-0.4-0.1-0.7v-3.5h-0.8v-0.9l0.8,0v-1.9h1.1v1.9l0.9,0v0.9H578v3.4c0,0.1,0,0.3,0,0.4c0,0.1,0.1,0.2,0.2,0.3
		c0.1,0.1,0.2,0.1,0.4,0.2c0.1,0,0.3,0,0.4,0l0,0.9H578.1z"/>
	<path fill="#221F20" d="M580,117.1v-1.1h1.1v1.1H580z M580,124.5v-6.2h1.1v6.2H580z"/>
	<path fill="#221F20" d="M587.4,119.1c0.6,0.6,0.8,1.4,0.8,2.4c0,1-0.3,1.7-0.8,2.4c-0.6,0.6-1.3,0.9-2.3,0.9c-1,0-1.7-0.3-2.3-0.9
		c-0.6-0.6-0.8-1.4-0.8-2.4c0-1,0.3-1.7,0.8-2.4c0.6-0.6,1.3-0.9,2.3-0.9C586.1,118.1,586.9,118.5,587.4,119.1z M586.6,123.2
		c0.4-0.4,0.6-1,0.6-1.8c0-0.7-0.2-1.3-0.6-1.7c-0.4-0.4-0.8-0.7-1.4-0.7c-0.6,0-1.1,0.2-1.5,0.7c-0.4,0.4-0.5,1-0.5,1.7
		c0,0.7,0.2,1.3,0.5,1.8c0.4,0.4,0.8,0.7,1.5,0.7C585.7,123.9,586.2,123.7,586.6,123.2z"/>
	<path fill="#221F20" d="M593.5,124.5v-3.7c0-0.6-0.1-1-0.4-1.2c-0.2-0.2-0.6-0.4-1.1-0.4c-0.5,0-0.9,0.2-1.3,0.5
		c-0.3,0.3-0.5,0.8-0.5,1.3v3.5h-1.1v-6.2h1.1v0.7c0.3-0.3,0.6-0.5,1-0.7c0.4-0.2,0.9-0.3,1.4-0.2c0.7,0.1,1.1,0.4,1.4,0.8
		c0.3,0.5,0.4,0.9,0.4,1.3v4.2H593.5z"/>
	<path fill="#221F20" d="M606.1,124.6l-0.8-0.9c-0.4,0.4-0.9,0.7-1.3,0.9c-0.5,0.2-0.9,0.3-1.4,0.3c-0.7,0-1.3-0.2-1.9-0.7
		c-0.6-0.5-0.8-1.1-0.8-1.9c0-0.6,0.2-1.1,0.6-1.5c0.4-0.4,0.9-0.8,1.5-1.1c-0.1-0.2-0.3-0.4-0.6-0.8c-0.2-0.3-0.4-0.7-0.5-1
		c-0.1-0.6,0.1-1.2,0.5-1.6c0.5-0.4,1-0.7,1.7-0.7c0.7,0,1.2,0.2,1.7,0.6c0.5,0.4,0.7,0.9,0.6,1.5c0,0.6-0.3,1-0.7,1.4
		c-0.4,0.4-0.8,0.7-1.3,0.9l1.8,2.2c0.1-0.2,0.3-0.5,0.4-0.9c0.1-0.3,0.2-0.6,0.2-0.8h1c-0.1,0.4-0.2,0.8-0.3,1.3
		c-0.1,0.4-0.3,0.9-0.6,1.2l1.4,1.8H606.1z M602.7,120.3c-0.4,0.2-0.8,0.5-1.1,0.8c-0.4,0.3-0.6,0.7-0.6,1.1c0,0.4,0.1,0.8,0.5,1.1
		c0.3,0.3,0.7,0.5,1.2,0.5c0.3,0,0.7-0.1,1.1-0.2c0.4-0.2,0.7-0.4,1-0.7L602.7,120.3z M603.9,118.5c0.3-0.2,0.5-0.5,0.6-0.9
		c0.1-0.3,0-0.6-0.3-0.9c-0.2-0.3-0.6-0.4-1-0.4c-0.4,0-0.7,0.1-0.9,0.3c-0.2,0.2-0.3,0.5-0.3,0.8c0,0.3,0.2,0.6,0.4,0.8
		c0.2,0.3,0.4,0.5,0.6,0.7C603.3,118.9,603.6,118.7,603.9,118.5z"/>
	<path fill="#221F20" d="M619.6,124.5v-6.1l-0.1,0l-2.2,6.1H616l-2.2-6.1l-0.1,0v6.1h-1v-8.4h1.2l2.7,7.3l2.7-7.3h1.2v8.4H619.6z"/>
	<path fill="#221F20" d="M626.5,124.6c-0.1-0.1-0.1-0.3-0.2-0.4c0-0.2,0-0.3-0.1-0.5c-0.2,0.3-0.6,0.5-1,0.7
		c-0.4,0.2-0.8,0.3-1.3,0.4c-0.6,0-1.2-0.1-1.6-0.3c-0.5-0.2-0.7-0.7-0.8-1.2c-0.1-0.6,0-1,0.3-1.3c0.3-0.3,0.7-0.5,1.1-0.7
		c0.4-0.1,0.8-0.2,1.2-0.2s0.8-0.1,1.2-0.1c0.2,0,0.4-0.1,0.6-0.1c0.2-0.1,0.3-0.2,0.3-0.5c0-0.3-0.1-0.5-0.4-0.8
		c-0.2-0.2-0.7-0.4-1.2-0.4s-1,0.1-1.3,0.3c-0.3,0.2-0.4,0.5-0.3,0.8H622c-0.1-0.7,0.2-1.2,0.7-1.5c0.6-0.4,1.2-0.5,2-0.5
		c0.7,0,1.3,0.2,1.9,0.5c0.6,0.4,0.8,0.9,0.8,1.5v3.4c0,0.3,0,0.5,0.1,0.7c0.1,0.2,0.1,0.3,0.1,0.3H626.5z M626.3,121.3
		c-0.1,0.1-0.2,0.1-0.3,0.2c-0.1,0.1-0.2,0.1-0.4,0.1c-0.2,0.1-0.6,0.1-1,0.1c-0.4,0-0.7,0.1-0.9,0.1c-0.4,0.1-0.6,0.3-0.8,0.4
		c-0.2,0.2-0.3,0.4-0.2,0.7c0,0.3,0.2,0.5,0.5,0.7c0.3,0.1,0.6,0.2,0.9,0.1c0.7,0,1.3-0.3,1.6-0.6c0.4-0.4,0.6-0.7,0.6-1V121.3z"/>
	<path fill="#221F20" d="M633.1,124.5v-3.7c0-0.6-0.1-1-0.4-1.2c-0.2-0.2-0.6-0.4-1.1-0.4c-0.5,0-0.9,0.2-1.3,0.5
		c-0.3,0.3-0.5,0.8-0.5,1.3v3.5h-1.1v-6.2h1.1v0.7c0.3-0.3,0.6-0.5,1-0.7c0.4-0.2,0.9-0.3,1.4-0.2c0.7,0.1,1.1,0.4,1.4,0.8
		c0.3,0.5,0.4,0.9,0.4,1.3v4.2H633.1z"/>
	<path fill="#221F20" d="M640.1,124.6c-0.1-0.1-0.1-0.3-0.1-0.4c0-0.2,0-0.3-0.1-0.5c-0.2,0.3-0.6,0.5-1,0.7
		c-0.4,0.2-0.8,0.3-1.3,0.4c-0.6,0-1.2-0.1-1.6-0.3c-0.5-0.2-0.7-0.7-0.8-1.2c-0.1-0.6,0-1,0.3-1.3c0.3-0.3,0.7-0.5,1.1-0.7
		c0.4-0.1,0.8-0.2,1.2-0.2c0.4,0,0.8-0.1,1.2-0.1c0.2,0,0.4-0.1,0.6-0.1c0.2-0.1,0.3-0.2,0.3-0.5c0-0.3-0.1-0.5-0.4-0.8
		c-0.2-0.2-0.7-0.4-1.2-0.4c-0.6,0-1,0.1-1.3,0.3c-0.3,0.2-0.4,0.5-0.3,0.8h-1.1c-0.1-0.7,0.2-1.2,0.7-1.5c0.6-0.4,1.2-0.5,2-0.5
		c0.7,0,1.3,0.2,1.9,0.5c0.6,0.4,0.8,0.9,0.8,1.5v3.4c0,0.3,0,0.5,0.1,0.7c0.1,0.2,0.1,0.3,0.1,0.3H640.1z M639.9,121.3
		c-0.1,0.1-0.2,0.1-0.3,0.2c-0.1,0.1-0.2,0.1-0.4,0.1c-0.2,0.1-0.6,0.1-1,0.1c-0.4,0-0.7,0.1-0.9,0.1c-0.4,0.1-0.6,0.3-0.8,0.4
		c-0.2,0.2-0.3,0.4-0.2,0.7c0,0.3,0.2,0.5,0.5,0.7c0.3,0.1,0.6,0.2,0.9,0.1c0.7,0,1.3-0.3,1.6-0.6c0.4-0.4,0.6-0.7,0.6-1V121.3z"/>
	<path fill="#221F20" d="M648.1,123.6c0,1-0.3,1.7-0.9,2.1c-0.6,0.4-1.3,0.6-2,0.6c-0.9,0-1.6-0.2-2.1-0.6c-0.5-0.4-0.8-0.9-0.8-1.4
		h1.1c0,0.3,0.2,0.5,0.5,0.8c0.3,0.2,0.8,0.3,1.4,0.3c0.6,0,1.1-0.1,1.4-0.4c0.3-0.3,0.4-0.7,0.4-1.2V123c-0.3,0.3-0.6,0.5-1,0.7
		c-0.4,0.2-0.7,0.2-1.1,0.2c-0.8,0-1.5-0.3-2.1-0.8c-0.6-0.6-0.9-1.3-0.9-2.1c0-0.9,0.3-1.6,0.8-2.1c0.6-0.5,1.3-0.8,2.1-0.8
		c0.4,0,0.8,0.1,1.1,0.2c0.4,0.2,0.7,0.4,1,0.7v-0.6h1.1V123.6z M646.5,122.5c0.4-0.3,0.6-0.8,0.6-1.5c0-0.7-0.2-1.2-0.6-1.5
		c-0.4-0.3-0.8-0.5-1.4-0.5c-0.6,0-1.1,0.2-1.4,0.5c-0.4,0.3-0.5,0.8-0.5,1.5c0,0.7,0.2,1.2,0.5,1.5c0.4,0.3,0.8,0.5,1.4,0.5
		C645.6,123,646.1,122.9,646.5,122.5z"/>
	<path fill="#221F20" d="M650.2,121.8c0,0.6,0.2,1.1,0.6,1.5c0.4,0.4,0.8,0.6,1.4,0.6c0.5,0,0.9-0.1,1.2-0.3
		c0.3-0.2,0.4-0.4,0.5-0.6h1.2c-0.1,0.4-0.4,0.8-0.9,1.2c-0.4,0.4-1.1,0.6-1.9,0.6c-0.9,0-1.6-0.3-2.2-0.9c-0.6-0.6-0.9-1.4-0.9-2.3
		c0-0.9,0.3-1.7,0.8-2.3c0.6-0.6,1.3-0.9,2.2-0.9c0.8,0,1.6,0.3,2.2,0.8c0.6,0.6,0.9,1.5,0.9,2.7H650.2z M654.1,120.9
		c0-0.6-0.2-1-0.6-1.4c-0.3-0.3-0.8-0.5-1.4-0.5c-0.5,0-1,0.2-1.3,0.5c-0.3,0.3-0.5,0.8-0.6,1.4H654.1z"/>
	<path fill="#221F20" d="M663.5,124.5l0-3.9c0-0.5-0.1-0.9-0.2-1.1c-0.1-0.3-0.5-0.4-1-0.3c-0.4,0-0.7,0.2-1,0.5
		c-0.2,0.3-0.4,0.7-0.4,1.2v3.7h-1.1v-3.9c0-0.5-0.1-0.9-0.2-1.1c-0.1-0.3-0.5-0.4-0.9-0.3c-0.4,0-0.8,0.2-1,0.5s-0.4,0.7-0.4,1.2
		v3.7h-1.1v-6.2h1.1v0.7c0.2-0.2,0.5-0.5,0.8-0.7c0.3-0.2,0.8-0.3,1.3-0.3c0.3,0,0.5,0.1,0.8,0.3c0.2,0.2,0.4,0.4,0.6,0.8
		c0.2-0.2,0.4-0.4,0.8-0.7c0.4-0.3,0.9-0.4,1.5-0.3c0.6,0.1,1,0.3,1.2,0.8c0.2,0.4,0.3,0.9,0.3,1.4v4.2H663.5z"/>
	<path fill="#221F20" d="M666.7,121.8c0,0.6,0.2,1.1,0.6,1.5c0.4,0.4,0.8,0.6,1.4,0.6c0.5,0,0.9-0.1,1.2-0.3
		c0.3-0.2,0.4-0.4,0.5-0.6h1.2c-0.1,0.4-0.4,0.8-0.9,1.2c-0.4,0.4-1.1,0.6-1.9,0.6c-0.9,0-1.6-0.3-2.2-0.9c-0.6-0.6-0.9-1.4-0.9-2.3
		c0-0.9,0.3-1.7,0.8-2.3c0.6-0.6,1.3-0.9,2.2-0.9c0.8,0,1.6,0.3,2.2,0.8c0.6,0.6,0.9,1.5,0.9,2.7H666.7z M670.5,120.9
		c0-0.6-0.2-1-0.6-1.4c-0.3-0.3-0.8-0.5-1.4-0.5c-0.5,0-1,0.2-1.3,0.5c-0.3,0.3-0.6,0.8-0.6,1.4H670.5z"/>
	<path fill="#221F20" d="M677,124.5v-3.7c0-0.6-0.1-1-0.4-1.2c-0.2-0.2-0.6-0.4-1.1-0.4c-0.5,0-0.9,0.2-1.3,0.5
		c-0.3,0.3-0.5,0.8-0.5,1.3v3.5h-1.1v-6.2h1.1v0.7c0.3-0.3,0.6-0.5,1-0.7c0.4-0.2,0.9-0.3,1.4-0.2c0.7,0.1,1.1,0.4,1.4,0.8
		c0.3,0.5,0.4,0.9,0.4,1.3v4.2H677z"/>
	<path fill="#221F20" d="M680.9,124.5c-0.2,0-0.4-0.1-0.6-0.2c-0.2-0.1-0.3-0.2-0.4-0.4c-0.1-0.1-0.2-0.3-0.2-0.4
		c0-0.2-0.1-0.4-0.1-0.7v-3.5h-0.8v-0.9l0.8,0v-1.9h1.1v1.9l0.9,0v0.9h-0.9v3.4c0,0.1,0,0.3,0,0.4c0,0.1,0.1,0.2,0.2,0.3
		c0.1,0.1,0.2,0.1,0.4,0.2c0.1,0,0.3,0,0.4,0l0,0.9H680.9z"/>
</g>
<g>
	<g>
		<path d="M631.6,50.6c-0.1-0.4-0.2-0.8-0.2-1.1l-0.2-0.6l-2.4,0.2l-0.6-1.6l1.8-1.3l-0.4-0.6c-1-1.5-2.4-2.8-3.9-3.7l-0.6-0.3
			l-1.5,1.9l-1.6-0.7l0.4-2.2l-0.7-0.1c-1.8-0.4-3.7-0.3-5.4,0.1l-0.6,0.2l0.2,2.4l-1.6,0.6l-1.3-1.9l-0.6,0.4
			c-1.5,1-2.8,2.3-3.7,3.9l-0.3,0.6l1.9,1.6l-0.7,1.5l-2.3-0.4l-0.1,0.7c-0.3,1.5-0.3,3-0.1,4.5c0.1,0.3,0.1,0.6,0.2,0.9l0.2,0.6
			l2.5-0.2l0.6,1.6l-1.9,1.4l0.4,0.6c0.8,1.3,1.9,2.4,3.1,3.2c0.3,0.2,0.5,0.4,0.8,0.5l0.6,0.3l1.6-2l1.6,0.7l-0.4,2.3l0.7,0.1
			c1.5,0.3,2.9,0.3,4.3,0.1c0.3-0.1,0.7-0.1,1.1-0.2l0.6-0.2l-0.2-2.5l1.6-0.6l1.4,1.9l0.6-0.4c1.5-1,2.8-2.4,3.7-3.9l0.3-0.6
			l-1.9-1.6l0.7-1.6l2.3,0.4l0.1-0.7C631.8,53.5,631.8,52.1,631.6,50.6z M630.2,53.9l-1.9-0.3l-1.7,3.7l1.8,1.5
			c-0.6,0.9-1.4,1.8-2.3,2.5l-1.2-1.6l-3.8,1.4l0.2,2.4c-0.1,0-0.2,0-0.3,0.1c-1,0.2-2,0.2-3.1,0.1l0.3-2l-3.7-1.7l-1.5,1.8
			c-0.1,0-0.1-0.1-0.2-0.1c-0.9-0.6-1.6-1.4-2.3-2.2l1.7-1.2l-1.4-3.8l-2.4,0.2c0-0.1,0-0.1,0-0.2c-0.2-1.1-0.2-2.1,0-3.2l2,0.3
			l1.7-3.7l-1.8-1.5c0.6-0.9,1.4-1.8,2.3-2.4l1.2,1.6l3.8-1.4l-0.2-2.3c1.1-0.2,2.2-0.2,3.4-0.1l-0.3,1.9l3.7,1.7l1.4-1.7
			c0.9,0.6,1.8,1.4,2.5,2.3l-1.5,1.1l1.4,3.8l2.3-0.2c0,0.1,0,0.2,0.1,0.3C630.3,51.9,630.3,52.9,630.2,53.9z"/>
		<path d="M619.3,58.6c-3.3,0-5.9-2.7-5.9-5.9c0-3.3,2.7-5.9,5.9-5.9c3.3,0,5.9,2.7,5.9,5.9C625.2,55.9,622.5,58.6,619.3,58.6z
			 M619.3,48.3c-2.4,0-4.4,2-4.4,4.4c0,2.4,2,4.4,4.4,4.4c2.4,0,4.4-2,4.4-4.4C623.7,50.2,621.7,48.3,619.3,48.3z"/>
	</g>
	<path d="M605.6,62.7c0,0.9-0.7,1.6-1.6,1.6c-0.9,0-1.6-0.7-1.6-1.6c0-0.9,0.7-1.6,1.6-1.6C604.8,61,605.6,61.8,605.6,62.7z"/>
	<polygon points="609.7,83.8 596.5,83.8 596.5,72.9 591.1,69.9 596.5,61.6 596.5,50.7 599,50.7 599,62.4 594.7,69 599,71.4 
		599,81.3 609.7,81.3 	"/>
	<rect x="626" y="68.9" width="2.5" height="13.6"/>
</g>
<g>
	<path fill="#221F20" d="M94,243.4c-0.5-0.1-1-0.3-1.4-0.6c-0.5-0.3-0.9-0.6-1.2-1c-0.2,0.3-0.6,0.7-1.1,1.1
		c-0.5,0.4-1.1,0.7-1.7,0.8l-0.8-0.9c1.2-0.4,2-0.8,2.3-1.2c0.3-0.5,0.5-0.8,0.6-1h-2.2v-1h5.8v1h-2.2c0,0.2,0.3,0.6,0.7,1
		c0.4,0.4,1,0.8,1.9,1L94,243.4z M89.8,238.8v-0.9h3.3v0.9H89.8z M89.8,248.3v-2.5h6.4v-0.7h-6.4v-1h7.7v2.5h-6.4v0.7h6.6v1H89.8z
		 M96.3,243.6v-1.9h-2.1v-1h2.1v-2.9h1.2v5.8H96.3z"/>
	<path fill="#221F20" d="M98.7,247v-1h4.7v-2.3h-3.3v-5h7.8v1h-6.6v2.9h6.7v1h-3.4v2.3h4.6v1H98.7z"/>
	<path fill="#221F20" d="M110.7,248.7h-1.2l4.2-11.1h1.2L110.7,248.7z"/>
	<path fill="#221F20" d="M120.1,243.1c-0.8,1.5-2,2.6-3.7,3.4l-0.9-0.7c1.6-0.7,2.7-1.7,3.3-2.8c0.7-1.2,1-2.2,1.1-3h-3.8v-1h5.2
		C121.3,240.3,120.9,241.6,120.1,243.1z M123.6,248.4v-10.6h1.2v10.6H123.6z"/>
	<path fill="#221F20" d="M132.4,246.5c-0.3-0.2-0.8-0.5-1.4-1c-0.6-0.5-1-1-1.2-1.5c-0.2,0.5-0.6,1.1-1.1,1.6
		c-0.6,0.6-1.1,0.9-1.6,1.1l-0.9-0.9c1-0.4,1.7-1,2.2-1.7c0.5-0.7,0.8-1.5,0.8-2.3v-0.4h-2.4v-1h6v1h-2.4v0.4c0,0.8,0.2,1.5,0.7,2.1
		c0.5,0.6,1.1,1.2,2.1,1.7L132.4,246.5z M128.1,239.4v-1h3.4v1H128.1z M135.4,237.8v4.2h1.6v1.1h-1.6v5.2h-1.2v-10.6H135.4z"/>
	<path fill="#221F20" d="M139.4,248.9c-0.4-0.6-0.9-1.4-1.4-2.4c-0.5-1-0.7-2.1-0.7-3.4c0-1.3,0.2-2.5,0.7-3.4
		c0.5-1,0.9-1.8,1.4-2.4h0.9c-0.6,1.1-1.1,2.1-1.4,3c-0.3,0.9-0.4,1.9-0.4,2.8c0,0.9,0.1,1.8,0.4,2.8c0.3,0.9,0.7,2,1.4,3H139.4z"/>
	<path fill="#221F20" d="M146.9,247.4l-2.5-3.6h-1.9v3.5h-1.1v-8.5h3.5c0.8,0,1.5,0.2,2.1,0.7c0.6,0.4,0.8,1,0.8,1.8
		c0,0.6-0.2,1.1-0.6,1.5c-0.4,0.4-0.9,0.7-1.5,0.9l2.5,3.7H146.9z M146.1,242.4c0.4-0.3,0.6-0.6,0.6-1.1c0-0.5-0.2-0.9-0.5-1.1
		c-0.3-0.2-0.7-0.3-1.1-0.3h-2.4v2.9h2.4C145.4,242.8,145.8,242.7,146.1,242.4z"/>
	<path fill="#221F20" d="M153.3,247.4c-0.1-0.1-0.1-0.3-0.1-0.4c0-0.2,0-0.3-0.1-0.5c-0.2,0.3-0.6,0.5-1,0.7
		c-0.4,0.2-0.8,0.3-1.3,0.4c-0.6,0-1.2-0.1-1.6-0.3c-0.5-0.2-0.7-0.7-0.8-1.2c-0.1-0.6,0-1,0.3-1.3c0.3-0.3,0.7-0.5,1.1-0.7
		c0.4-0.1,0.8-0.2,1.2-0.2c0.4,0,0.8-0.1,1.2-0.1c0.2,0,0.4-0.1,0.6-0.1c0.2-0.1,0.3-0.2,0.3-0.5c0-0.3-0.1-0.5-0.4-0.8
		c-0.2-0.2-0.7-0.4-1.2-0.4c-0.6,0-1,0.1-1.3,0.3c-0.3,0.2-0.4,0.5-0.3,0.8h-1.1c-0.1-0.7,0.2-1.2,0.7-1.5c0.6-0.4,1.2-0.5,2-0.5
		c0.7,0,1.3,0.2,1.9,0.5c0.6,0.4,0.8,0.9,0.8,1.5v3.4c0,0.3,0,0.5,0.1,0.7c0.1,0.2,0.1,0.3,0.1,0.3H153.3z M153.1,244.2
		c-0.1,0.1-0.2,0.1-0.3,0.2c-0.1,0.1-0.2,0.1-0.4,0.1c-0.2,0.1-0.6,0.1-1,0.1c-0.4,0-0.7,0.1-0.9,0.1c-0.4,0.1-0.6,0.3-0.8,0.4
		c-0.2,0.2-0.3,0.4-0.2,0.7c0,0.3,0.2,0.5,0.5,0.7c0.3,0.1,0.6,0.2,0.9,0.1c0.7,0,1.3-0.3,1.6-0.6c0.4-0.4,0.6-0.7,0.6-1V244.2z"/>
	<path fill="#221F20" d="M155.6,239.9v-1.1h1.1v1.1H155.6z M155.6,247.4v-6.2h1.1v6.2H155.6z"/>
	<path fill="#221F20" d="M158.2,247.4v-8.5h1.1v8.5H158.2z"/>
	<path fill="#221F20" d="M161.7,245.9c0.3-0.9,0.4-1.9,0.4-2.8c0-0.9-0.1-1.8-0.4-2.8c-0.3-0.9-0.7-2-1.4-3h0.9
		c0.4,0.6,0.9,1.4,1.4,2.4c0.5,1,0.7,2.1,0.7,3.4c0,1.3-0.2,2.5-0.7,3.4c-0.5,1-0.9,1.8-1.4,2.4h-0.9
		C161,247.8,161.4,246.8,161.7,245.9z"/>
</g>
<g>
	<rect x="116.6" y="194.9" width="4" height="3"/>
	<rect x="127.4" y="194.9" width="4" height="3"/>
	<polygon points="131.3,185.5 124,188.6 116.6,185.5 116.6,188.5 123.5,191.4 124,191.6 124.5,191.4 131.3,188.5 	"/>
	<path d="M142.7,220.1h4l-13.3-17.8h2.9v-30.6H130V169h-12v2.7h-6.3v30.6h2.5l-13.3,17.8h4l4.3-5.8h29.3L142.7,220.1z M114.3,174.3
		h19.4v25.4h-19.4V174.3z M129.4,202.3l2.2,2.9H116l2.2-2.9H129.4z M111,211.9l3.1-4.1h19.4l3.1,4.1H111z"/>
</g>
<g>
	<path fill="#221F20" d="M330.6,235.9c-1,0.1-2.2,0.1-3.5,0.1h-1.4v-1h2.1v-2.3h1.2v2.3c0.4,0,1.1,0,2.1-0.1c1-0.1,1.7-0.1,2.2-0.2
		v1C332.5,235.7,331.6,235.8,330.6,235.9z M332.1,232c-0.1,0.8-0.2,1.5-0.4,1.9h-1.2c0,0,0.1-0.4,0.2-1c0.1-0.6,0.2-1.2,0.2-1.8
		h-4.6v-1h5.9C332.3,230.5,332.2,231.1,332.1,232z M327.5,239.9v-3.1h1.2v2.1h6.6v1H327.5z M334.9,234v3.4h-1.2v-7.8h1.2v3.4h1.5v1
		H334.9z"/>
	<path fill="#221F20" d="M342.7,237.9c-0.7,0.1-1.4,0.1-2,0.1l-3,0v-4.3h4v-2.1h-4v-1h5.2v4.2h-4v2.3l2.2,0c0.5,0,1.1-0.1,1.8-0.1
		c0.6-0.1,1.1-0.1,1.5-0.2v1C343.9,237.8,343.4,237.8,342.7,237.9z M345,240.1v-10.6h1.2v10.6H345z"/>
	<path fill="#221F20" d="M350,240.7c-0.4-0.6-0.9-1.4-1.4-2.4c-0.5-1-0.7-2.1-0.7-3.4c0-1.3,0.2-2.5,0.7-3.4c0.5-1,0.9-1.8,1.4-2.4
		h0.9c-0.6,1.1-1.1,2.1-1.4,3c-0.3,0.9-0.4,1.9-0.4,2.8c0,0.9,0.1,1.8,0.4,2.8c0.3,0.9,0.7,2,1.4,3H350z"/>
	<path fill="#221F20" d="M359,239v-6.1l-0.1,0l-2.2,6.1h-1.3l-2.2-6.1l-0.1,0v6.1h-1v-8.4h1.2l2.7,7.3l2.7-7.3h1.2v8.4H359z"/>
	<path fill="#221F20" d="M365.9,239.1c-0.1-0.1-0.1-0.3-0.1-0.4c0-0.2,0-0.3-0.1-0.5c-0.2,0.3-0.6,0.5-1,0.7
		c-0.4,0.2-0.8,0.3-1.3,0.4c-0.6,0-1.2-0.1-1.6-0.3c-0.5-0.2-0.7-0.7-0.8-1.2c-0.1-0.6,0-1,0.3-1.3c0.3-0.3,0.7-0.5,1.1-0.7
		c0.4-0.1,0.8-0.2,1.2-0.2c0.4,0,0.8-0.1,1.2-0.1c0.2,0,0.4-0.1,0.6-0.1c0.2-0.1,0.3-0.2,0.3-0.5c0-0.3-0.1-0.5-0.4-0.8
		c-0.2-0.2-0.7-0.4-1.2-0.4c-0.6,0-1,0.1-1.3,0.3c-0.3,0.2-0.4,0.5-0.3,0.8h-1.1c-0.1-0.7,0.2-1.2,0.7-1.5c0.6-0.4,1.2-0.5,2-0.5
		c0.7,0,1.3,0.2,1.9,0.5c0.6,0.4,0.8,0.9,0.8,1.5v3.4c0,0.3,0,0.5,0.1,0.7c0.1,0.2,0.1,0.3,0.1,0.3H365.9z M365.7,235.9
		c-0.1,0.1-0.2,0.1-0.3,0.2c-0.1,0.1-0.2,0.1-0.4,0.1c-0.2,0.1-0.6,0.1-1,0.1c-0.4,0-0.7,0.1-0.9,0.1c-0.4,0.1-0.6,0.3-0.8,0.4
		c-0.2,0.2-0.3,0.4-0.2,0.7c0,0.3,0.2,0.5,0.5,0.7c0.3,0.1,0.6,0.2,0.9,0.1c0.7,0,1.3-0.3,1.6-0.6c0.4-0.4,0.6-0.7,0.6-1V235.9z"/>
	<path fill="#221F20" d="M372.5,239.1v-3.7c0-0.6-0.1-1-0.4-1.2c-0.2-0.2-0.6-0.4-1.1-0.4c-0.5,0-0.9,0.2-1.3,0.5
		c-0.3,0.3-0.5,0.8-0.5,1.3v3.5h-1.1v-6.2h1.1v0.7c0.3-0.3,0.6-0.5,1-0.7c0.4-0.2,0.9-0.3,1.4-0.2c0.7,0.1,1.1,0.4,1.4,0.8
		c0.3,0.5,0.4,0.9,0.4,1.3v4.2H372.5z"/>
	<path fill="#221F20" d="M379.5,239.1c-0.1-0.1-0.1-0.3-0.1-0.4c0-0.2,0-0.3-0.1-0.5c-0.2,0.3-0.6,0.5-1,0.7
		c-0.4,0.2-0.8,0.3-1.3,0.4c-0.6,0-1.2-0.1-1.6-0.3c-0.5-0.2-0.7-0.7-0.8-1.2c-0.1-0.6,0-1,0.3-1.3c0.3-0.3,0.7-0.5,1.1-0.7
		c0.4-0.1,0.8-0.2,1.2-0.2c0.4,0,0.8-0.1,1.2-0.1c0.2,0,0.4-0.1,0.6-0.1c0.2-0.1,0.3-0.2,0.3-0.5c0-0.3-0.1-0.5-0.4-0.8
		c-0.2-0.2-0.7-0.4-1.2-0.4c-0.6,0-1,0.1-1.3,0.3c-0.3,0.2-0.4,0.5-0.3,0.8h-1.1c-0.1-0.7,0.2-1.2,0.7-1.5c0.6-0.4,1.2-0.5,2-0.5
		c0.7,0,1.3,0.2,1.9,0.5c0.6,0.4,0.8,0.9,0.8,1.5v3.4c0,0.3,0,0.5,0.1,0.7c0.1,0.2,0.1,0.3,0.1,0.3H379.5z M379.3,235.9
		c-0.1,0.1-0.2,0.1-0.3,0.2c-0.1,0.1-0.2,0.1-0.4,0.1c-0.2,0.1-0.6,0.1-1,0.1c-0.4,0-0.7,0.1-0.9,0.1c-0.4,0.1-0.6,0.3-0.8,0.4
		c-0.2,0.2-0.3,0.4-0.2,0.7c0,0.3,0.2,0.5,0.5,0.7c0.3,0.1,0.6,0.2,0.9,0.1c0.7,0,1.3-0.3,1.6-0.6c0.4-0.4,0.6-0.7,0.6-1V235.9z"/>
	<path fill="#221F20" d="M387.5,238.2c0,1-0.3,1.7-0.9,2.1c-0.6,0.4-1.3,0.6-2,0.6c-0.9,0-1.6-0.2-2.1-0.6c-0.5-0.4-0.8-0.9-0.8-1.4
		h1.1c0,0.3,0.2,0.5,0.5,0.8c0.3,0.2,0.8,0.3,1.4,0.3c0.6,0,1.1-0.1,1.4-0.4c0.3-0.3,0.4-0.7,0.4-1.2v-0.6c-0.3,0.3-0.6,0.5-1,0.7
		c-0.4,0.2-0.7,0.2-1.1,0.2c-0.8,0-1.5-0.3-2.1-0.8c-0.6-0.6-0.9-1.3-0.9-2.1c0-0.9,0.3-1.6,0.8-2.1c0.6-0.5,1.3-0.8,2.1-0.8
		c0.4,0,0.8,0.1,1.1,0.2c0.4,0.2,0.7,0.4,1,0.7v-0.6h1.1V238.2z M385.9,237.1c0.4-0.3,0.6-0.8,0.6-1.5c0-0.7-0.2-1.2-0.6-1.5
		c-0.4-0.3-0.8-0.5-1.4-0.5c-0.6,0-1.1,0.2-1.4,0.5c-0.4,0.3-0.5,0.8-0.5,1.5c0,0.7,0.2,1.2,0.5,1.5c0.4,0.3,0.8,0.5,1.4,0.5
		C385,237.6,385.5,237.4,385.9,237.1z"/>
	<path fill="#221F20" d="M389.6,236.3c0,0.6,0.2,1.1,0.6,1.5c0.4,0.4,0.8,0.6,1.4,0.6c0.5,0,0.9-0.1,1.2-0.3
		c0.3-0.2,0.4-0.4,0.5-0.6h1.2c-0.1,0.4-0.4,0.8-0.9,1.2c-0.4,0.4-1.1,0.6-1.9,0.6c-0.9,0-1.6-0.3-2.2-0.9c-0.6-0.6-0.9-1.4-0.9-2.3
		c0-0.9,0.3-1.7,0.8-2.3c0.6-0.6,1.3-0.9,2.2-0.9c0.8,0,1.6,0.3,2.2,0.8c0.6,0.6,0.9,1.5,0.9,2.7H389.6z M393.5,235.5
		c0-0.6-0.2-1-0.6-1.4c-0.3-0.3-0.8-0.5-1.4-0.5c-0.5,0-1,0.2-1.3,0.5c-0.3,0.3-0.6,0.8-0.6,1.4H393.5z"/>
	<path fill="#221F20" d="M402.9,239.1l0-3.9c0-0.5-0.1-0.9-0.2-1.1c-0.1-0.3-0.5-0.4-1-0.3c-0.4,0-0.7,0.2-1,0.5
		c-0.2,0.3-0.4,0.7-0.4,1.2v3.7h-1.1v-3.9c0-0.5-0.1-0.9-0.2-1.1c-0.1-0.3-0.5-0.4-0.9-0.3c-0.4,0-0.8,0.2-1,0.5
		c-0.2,0.3-0.4,0.7-0.4,1.2v3.7h-1.1v-6.2h1.1v0.7c0.2-0.2,0.5-0.5,0.8-0.7c0.3-0.2,0.8-0.3,1.3-0.3c0.3,0,0.5,0.1,0.8,0.3
		c0.2,0.2,0.4,0.4,0.6,0.8c0.2-0.2,0.4-0.4,0.8-0.7c0.4-0.3,0.9-0.4,1.5-0.3c0.6,0.1,1,0.3,1.2,0.8c0.2,0.4,0.3,0.9,0.3,1.4v4.2
		H402.9z"/>
	<path fill="#221F20" d="M406.1,236.3c0,0.6,0.2,1.1,0.6,1.5c0.4,0.4,0.8,0.6,1.4,0.6c0.5,0,0.9-0.1,1.2-0.3
		c0.3-0.2,0.4-0.4,0.5-0.6h1.2c-0.1,0.4-0.4,0.8-0.9,1.2c-0.4,0.4-1.1,0.6-1.9,0.6c-0.9,0-1.6-0.3-2.2-0.9c-0.6-0.6-0.9-1.4-0.9-2.3
		c0-0.9,0.3-1.7,0.8-2.3c0.6-0.6,1.3-0.9,2.2-0.9c0.8,0,1.6,0.3,2.2,0.8c0.6,0.6,0.9,1.5,0.9,2.7H406.1z M409.9,235.5
		c0-0.6-0.2-1-0.6-1.4c-0.3-0.3-0.8-0.5-1.4-0.5c-0.5,0-1,0.2-1.3,0.5c-0.3,0.3-0.6,0.8-0.6,1.4H409.9z"/>
	<path fill="#221F20" d="M416.4,239.1v-3.7c0-0.6-0.1-1-0.4-1.2c-0.2-0.2-0.6-0.4-1.1-0.4c-0.5,0-0.9,0.2-1.3,0.5
		c-0.3,0.3-0.5,0.8-0.5,1.3v3.5h-1.1v-6.2h1.1v0.7c0.3-0.3,0.6-0.5,1-0.7c0.4-0.2,0.9-0.3,1.4-0.2c0.7,0.1,1.1,0.4,1.4,0.8
		c0.3,0.5,0.4,0.9,0.4,1.3v4.2H416.4z"/>
	<path fill="#221F20" d="M420.3,239.1c-0.2,0-0.4-0.1-0.6-0.2c-0.2-0.1-0.3-0.2-0.4-0.4c-0.1-0.1-0.2-0.3-0.2-0.4
		c0-0.2-0.1-0.4-0.1-0.7v-3.5h-0.8V233l0.8,0v-1.9h1.1v1.9l0.9,0v0.9h-0.9v3.4c0,0.1,0,0.3,0,0.4c0,0.1,0.1,0.2,0.2,0.3
		c0.1,0.1,0.2,0.1,0.4,0.2c0.1,0,0.3,0,0.4,0l0,0.9H420.3z"/>
	<path fill="#221F20" d="M423.1,237.6c0.3-0.9,0.4-1.9,0.4-2.8c0-0.9-0.1-1.8-0.4-2.8c-0.3-0.9-0.7-2-1.4-3h0.9
		c0.4,0.6,0.9,1.4,1.4,2.4c0.5,1,0.7,2.1,0.7,3.4c0,1.3-0.2,2.5-0.7,3.4c-0.5,1-0.9,1.8-1.4,2.4h-0.9
		C422.4,239.6,422.8,238.6,423.1,237.6z"/>
</g>
<g>
	<path d="M393.7,168.1c-0.1-0.5-0.2-1-0.3-1.3l-0.2-0.8l-2.9,0.3l-0.7-1.9l2.2-1.6l-0.5-0.7c-1.2-1.8-2.8-3.3-4.7-4.5l-0.7-0.4
		l-1.8,2.2l-1.9-0.8l0.4-2.7l-0.9-0.2c-2.2-0.4-4.4-0.4-6.5,0.1l-0.8,0.2l0.3,2.9l-1.9,0.7l-1.6-2.2l-0.7,0.5
		c-1.8,1.2-3.4,2.8-4.5,4.7l-0.4,0.7l2.3,1.9l-0.8,1.9l-2.8-0.5l-0.2,0.9c-0.4,1.8-0.4,3.6-0.1,5.4c0.1,0.4,0.2,0.8,0.2,1.1l0.2,0.8
		l3.1-0.3l0.7,1.9l-2.3,1.7l0.5,0.7c1,1.5,2.3,2.8,3.7,3.9c0.3,0.2,0.6,0.4,1,0.6l0.7,0.4l2-2.4l1.9,0.8l-0.5,2.8l0.9,0.2
		c1.8,0.3,3.5,0.4,5.2,0.1c0.4-0.1,0.8-0.2,1.3-0.3l0.8-0.2l-0.3-3l1.9-0.7l1.7,2.3l0.7-0.5c1.8-1.3,3.3-2.9,4.4-4.8l0.4-0.7
		l-2.3-1.9l0.8-1.9l2.7,0.4l0.2-0.9C394,171.6,394,169.8,393.7,168.1z M392,172.1l-2.3-0.4l-2,4.4l2.2,1.8c-0.8,1.1-1.7,2.1-2.8,3
		l-1.4-2l-4.5,1.7l0.3,2.9c-0.1,0-0.3,0.1-0.4,0.1c-1.2,0.2-2.5,0.2-3.7,0.1l0.4-2.4l-4.5-2l-1.8,2.2c-0.1,0-0.1-0.1-0.2-0.1
		c-1-0.8-2-1.7-2.8-2.7l2-1.5l-1.7-4.5l-2.9,0.3c0-0.1,0-0.2,0-0.2c-0.2-1.3-0.2-2.6-0.1-3.9l2.4,0.4l2-4.4L368,163
		c0.8-1.1,1.7-2.1,2.8-2.9l1.4,1.9l4.5-1.7l-0.3-2.7c1.3-0.3,2.7-0.3,4.1-0.1l-0.4,2.3l4.4,2l1.7-2.1c1.1,0.8,2.1,1.7,3,2.8
		l-1.9,1.3l1.7,4.5l2.7-0.3c0,0.1,0.1,0.3,0.1,0.4C392.1,169.6,392.1,170.9,392,172.1z"/>
	<path d="M378.9,177.7c-3.9,0-7.1-3.2-7.1-7.1c0-3.9,3.2-7.1,7.1-7.1s7.1,3.2,7.1,7.1C386,174.5,382.8,177.7,378.9,177.7z
		 M378.9,165.3c-2.9,0-5.3,2.4-5.3,5.3s2.4,5.3,5.3,5.3s5.3-2.4,5.3-5.3S381.8,165.3,378.9,165.3z"/>
	<path fill="#040000" d="M351.5,197.3l-1.7-1.9l11.2-10.2h6.9l3.8,3h8.8l0.2,0.1c0.2,0.1,1.8,0.6,2.6,2.3c0.5,1.2,0.4,2.5-0.2,3.9
		l-2.3-1c0.4-0.8,0.4-1.4,0.2-1.9c-0.2-0.5-0.7-0.7-0.9-0.9h-9.2l-3.8-3h-5.1L351.5,197.3z"/>
	<path fill="#040000" d="M383.1,204.1h-18.7v-2.5h17.8l14-12.8c0.3-1.3-0.2-1.8-0.2-1.8c-0.7-0.5-2-0.2-2.5,0l-12.1,9.2h-11v-2.5
		h10.2l11.8-9c0.3-0.1,3-1.2,5,0.1c0.8,0.5,2,2.2,1.1,4.9l-0.1,0.3L383.1,204.1z"/>
</g>
<rect x="0" fill="none" width="64" height="64"/>
</svg>
