<?xml version="1.0" encoding="utf-8"?>
<!-- Generator: Adobe Illustrator 26.0.3, SVG Export Plug-In . SVG Version: 6.00 Build 0)  -->
<svg version="1.1" xmlns="http://www.w3.org/2000/svg" xmlns:xlink="http://www.w3.org/1999/xlink" x="0px" y="0px"
	 viewBox="0 0 64 64" style="enable-background:new 0 0 64 64;" xml:space="preserve">
<style type="text/css">
	.st0{display:none;}
	.st1{fill:#010101;}
	.st2{clip-path:url(#SVGID_00000024717505349044872440000002441483250925857417_);}
	.st3{clip-path:url(#SVGID_00000049939678530716435990000005497191660398966427_);}
</style>
<g id="레이어_3" class="st0">
</g>
<g id="레이어_1">
	<g>
		<path class="st1" d="M46.587,32.174c-3.435,0-6.766,1.237-9.379,3.482c-0.474,0.407-0.917,0.839-1.318,1.282
			c-2.396,2.655-3.716,6.081-3.716,9.648C32.174,54.534,38.64,61,46.587,61c3.435,0,6.766-1.237,9.379-3.482
			c0.474-0.407,0.917-0.839,1.318-1.282C59.68,53.581,61,50.154,61,46.587C61,38.64,54.534,32.174,46.587,32.174z M53.448,55.741
			c-1.977,1.484-4.389,2.296-6.861,2.296c-6.313,0-11.45-5.136-11.45-11.45c0-2.568,0.874-5.058,2.473-7.079L53.448,55.741z
			 M58.037,46.587c0,2.568-0.874,5.058-2.473,7.079L39.726,37.433c1.977-1.484,4.389-2.296,6.861-2.296
			C52.9,35.137,58.037,40.274,58.037,46.587z"/>
	</g>
	<g>
		<defs>
			<path id="SVGID_1_" d="M0,0v64h64V0H0z M59.065,57.844c-0.469,0.519-0.985,1.021-1.535,1.494
				c-3.049,2.619-6.935,4.062-10.943,4.062c-9.271,0-16.813-7.542-16.813-16.813c0-4.162,1.539-8.16,4.335-11.257
				c0.469-0.519,0.985-1.021,1.535-1.494c3.049-2.619,6.935-4.062,10.943-4.062c9.271,0,16.813,7.542,16.813,16.813
				C63.4,50.749,61.861,54.747,59.065,57.844z"/>
		</defs>
		<clipPath id="SVGID_00000078740512507915756200000003889943184757600659_">
			<use xlink:href="#SVGID_1_"  style="overflow:visible;"/>
		</clipPath>
		<g style="clip-path:url(#SVGID_00000078740512507915756200000003889943184757600659_);">
			<g>
				<polygon class="st1" points="29.667,43.202 25.333,43.202 22,46.202 22,49.202 33,49.202 33,46.202 				"/>
			</g>
			<g>
				<polygon class="st1" points="51.667,43.202 47.333,43.202 44,46.202 44,49.202 55,49.202 55,46.202 				"/>
			</g>
			<g>
				<rect x="3" y="15.702" class="st1" width="57" height="4"/>
			</g>
			<g>
				<rect x="26" y="5.202" class="st1" width="3" height="40"/>
			</g>
			<g>
				<rect x="48" y="22.202" class="st1" width="3" height="22.5"/>
			</g>
			<g>
				<polygon class="st1" points="55.886,19.07 27.629,6.403 8.146,18.962 6.521,16.441 27.371,3 57.114,16.333 				"/>
			</g>
			<g>
				
					<rect x="37" y="16.572" transform="matrix(0.4299 -0.9029 0.9029 0.4299 -3.5146 50.837)" class="st1" width="3.001" height="23.259"/>
			</g>
			<g>
				<rect x="27.5" y="38.202" class="st1" width="22" height="3"/>
			</g>
			<g>
				<rect x="5.5" y="22.702" class="st1" width="5.5" height="7.5"/>
			</g>
		</g>
	</g>
</g>
<g id="레이어_2">
</g>
<g id="레이어_4">
</g>
</svg>
